<svg width="57" height="44" viewBox="0 0 57 44" fill="none" xmlns="http://www.w3.org/2000/svg">
<path d="M30.2678 43.305H55.3171C55.9016 43.305 56.3608 42.8026 56.3608 42.1631V1.05593C56.3608 0.416484 55.9016 -0.0859375 55.3171 -0.0859375H30.2678C29.6834 -0.0859375 29.2241 0.416484 29.2241 1.05593V6.76526H1.04372C0.459236 6.76526 0 7.26768 0 7.90713C0 8.54657 0.459236 9.04899 1.04372 9.04899H29.2241V13.6165H1.04372C0.459236 13.6165 0 14.1189 0 14.7583C0 15.3978 0.459236 15.9002 1.04372 15.9002H29.2241V20.4677H1.04372C0.459236 20.4677 0 20.9701 0 21.6095C0 22.249 0.459236 22.7514 1.04372 22.7514H29.2241V34.1701H10.4372V30.7445C10.4372 30.105 9.97795 29.6026 9.39347 29.6026H1.04372C0.459236 29.6026 0 30.105 0 30.7445V39.8794C0 40.5188 0.459236 41.0213 1.04372 41.0213H9.39347C9.97795 41.0213 10.4372 40.5188 10.4372 39.8794V36.4538H29.2241V42.1631C29.2241 42.8026 29.6834 43.305 30.2678 43.305ZM31.3116 2.1978H54.2734V41.0213H31.3116V2.1978ZM8.34975 38.7375H2.08744V31.8863H8.34975V38.7375Z" fill="#4064DF"/>
</svg>
