<svg width="115" height="169" viewBox="0 0 115 169" fill="none" xmlns="http://www.w3.org/2000/svg">
<path d="M1 167.49V143.673L70.8623 81.4097C76.3061 76.5707 80.0865 71.9964 82.2036 67.6867C84.3206 63.377 85.3791 59.2186 85.3791 55.2113C85.3791 49.7675 84.2072 44.9286 81.8633 40.6945C79.5195 36.3848 76.2683 32.9824 72.1098 30.4873C68.027 27.9922 63.3014 26.7447 57.9332 26.7447C52.2626 26.7447 47.2346 28.0679 42.8493 30.7142C38.5396 33.2848 35.1751 36.725 32.7556 41.0347C30.3361 45.3444 29.202 49.9943 29.3532 54.9845H1.22683C1.22683 44.0969 3.6463 34.608 8.48525 26.5179C13.3998 18.4278 20.129 12.1523 28.6727 7.69136C37.2921 3.23045 47.2346 1 58.5003 1C68.9343 1 78.3097 3.34386 86.6267 8.03158C94.9436 12.6437 101.484 19.0704 106.247 27.3118C111.01 35.4775 113.392 44.8908 113.392 55.5516C113.392 63.3392 112.334 69.8794 110.217 75.172C108.099 80.4646 104.924 85.3413 100.69 89.8022C96.5314 94.2631 91.3522 99.2155 85.1523 104.659L35.5909 148.55L33.0958 141.745H113.392V167.49H1Z" fill="#4064DF" fill-opacity="0.2"/>
<path d="M58.5 0.5C69.0117 0.5 78.4734 2.86197 86.8721 7.5957H86.8711C95.2657 12.2513 101.871 18.7415 106.679 27.0596C111.492 35.3112 113.893 44.814 113.893 55.5518C113.893 63.3811 112.828 69.9885 110.681 75.3574C108.539 80.7121 105.327 85.6402 101.055 90.1426C96.8817 94.619 91.6907 99.584 85.4824 105.035L85.4814 105.034L44.5947 141.245H113.893V167.99H0.5V143.449L0.666992 143.3L70.5293 81.0361H70.5303C75.9482 76.2202 79.6772 71.6953 81.7549 67.4658C83.8447 63.2114 84.8789 59.1279 84.8789 55.2109C84.8789 49.8412 83.7236 45.0875 81.4258 40.9365L81.4238 40.9336C79.1221 36.7013 75.9336 33.3646 71.8525 30.916L71.8486 30.9141C67.8537 28.4728 63.221 27.2452 57.9336 27.2451C52.344 27.2451 47.4066 28.5483 43.1074 31.1426L43.1055 31.1436C38.8697 33.6702 35.5674 37.0471 33.1914 41.2793C30.8169 45.5089 29.704 50.0694 29.8525 54.9697L29.8682 55.4844H0.726562V54.9844C0.726581 44.0206 3.16354 34.4398 8.05566 26.2607L8.05762 26.2578C13.0204 18.0884 19.8184 11.7503 28.4414 7.24805L28.4434 7.24707C37.1442 2.7441 47.1676 0.500039 58.5 0.5Z" stroke="#4064DF" stroke-opacity="0.6"/>
</svg>
