<svg width="121" height="87" viewBox="0 0 121 87" fill="none" xmlns="http://www.w3.org/2000/svg">
<path d="M92.0303 0.5C97.1151 0.5 101.629 1.4757 105.56 3.44238H105.559C109.521 5.36846 112.63 8.09056 114.871 11.6084L115.082 11.9414C117.227 15.399 118.292 19.4459 118.292 24.0635C118.292 28.028 117.445 31.6053 115.741 34.7832L115.74 34.7822C114.683 36.799 113.277 38.6837 111.528 40.4395C113.89 42.3727 115.804 44.7111 117.268 47.4531L117.659 48.1934C119.553 51.9151 120.5 55.9253 120.5 60.2168C120.5 65.3237 119.27 69.8725 116.802 73.8496L116.803 73.8506C114.375 77.8226 111.003 80.9242 106.699 83.1553L106.7 83.1562C102.429 85.39 97.5342 86.5 92.0303 86.5C86.5636 86.5 81.6887 85.3897 77.418 83.1562C73.151 80.9248 69.7981 77.8219 67.3711 73.8506C64.9405 69.8732 63.7315 65.3234 63.7314 60.2168C63.7314 55.6408 64.7889 51.3843 66.9053 47.4561C68.3684 44.7404 70.2986 42.4021 72.6924 40.4424C70.9878 38.7291 69.5681 36.8648 68.4375 34.8477L68.4336 34.8418V34.8408C66.6922 31.6258 65.8262 28.0296 65.8262 24.0635C65.8262 19.2984 66.9408 15.1408 69.1885 11.6113L69.1904 11.6084C71.4684 8.0919 74.5761 5.3691 78.502 3.44238L79.2451 3.08594C82.998 1.3581 87.2632 0.500038 92.0303 0.5ZM43.46 2.2002L43.123 2.91309L17.3584 57.5635H36.6221V36.3135H51.4375V57.5635H59.0811V71.3135H51.4375V84.7998H36.6221V71.3135H0.5V57.9512L0.547852 57.8506L26.6484 2.48633L26.7842 2.2002H43.46ZM92.0303 47.7402C88.1268 47.7403 85.0286 48.8247 82.6855 50.9531L82.6816 50.9561C80.363 53.0268 79.1689 56.0847 79.1689 60.2168C79.169 64.3489 80.363 67.4068 82.6816 69.4775C85.0246 71.5699 88.1245 72.6367 92.0303 72.6367C95.9359 72.6367 99.0565 71.5696 101.438 69.4746L101.441 69.4717C103.833 67.3996 105.062 64.344 105.062 60.2168C105.062 56.087 103.85 53.0304 101.495 50.959L101.492 50.9561C99.1109 48.8255 95.9729 47.7402 92.0303 47.7402ZM92.0303 14.3633C88.7966 14.3633 86.1976 15.1894 84.1914 16.8027L84.1904 16.8037C82.266 18.3446 81.2637 20.7294 81.2637 24.0635C81.2637 27.3962 82.2654 29.8024 84.1934 31.3818C86.1989 32.9563 88.7974 33.7636 92.0303 33.7637C95.3064 33.7637 97.905 32.9541 99.8711 31.3799C101.836 29.7994 102.854 27.3935 102.854 24.0635C102.854 20.7327 101.836 18.3486 99.875 16.8066L99.8672 16.7998C97.9012 15.1899 95.304 14.3633 92.0303 14.3633Z" fill="url(#paint0_linear_1419_6394)" stroke="url(#paint1_linear_1419_6394)"/>
<defs>
<linearGradient id="paint0_linear_1419_6394" x1="4.45717" y1="0.40032" x2="114.865" y2="76.5892" gradientUnits="userSpaceOnUse">
<stop stop-color="#4064DF" stop-opacity="0.8"/>
<stop offset="0.513774" stop-color="#4064DF" stop-opacity="0.2"/>
<stop offset="0.822298" stop-color="#4064DF" stop-opacity="0.2"/>
<stop offset="1" stop-color="#4064DF" stop-opacity="0.2"/>
</linearGradient>
<linearGradient id="paint1_linear_1419_6394" x1="4.45717" y1="0.40032" x2="114.865" y2="76.5892" gradientUnits="userSpaceOnUse">
<stop stop-color="#6A8BFD" stop-opacity="0.9"/>
<stop offset="0.513774" stop-color="#4064DF" stop-opacity="0.5"/>
<stop offset="0.822298" stop-color="#4064DF" stop-opacity="0.5"/>
<stop offset="1" stop-color="#4064DF" stop-opacity="0.5"/>
</linearGradient>
</defs>
</svg>
