<svg width="162" height="115" viewBox="0 0 162 115" fill="none" xmlns="http://www.w3.org/2000/svg">
<path d="M67.3633 2.75V20.7002H24.7246L23.21 45.7627C24.8684 44.792 26.6417 43.9889 28.5283 43.3516C32.2731 42.0864 35.9021 41.4502 39.4131 41.4502C46.2407 41.4502 52.3048 43.0184 57.5898 46.168L58.0859 46.4609C63.1756 49.5281 67.1732 53.6698 70.0732 58.8789L70.3545 59.3857C73.2136 64.6446 74.6387 70.5868 74.6387 77.2002C74.6386 84.0417 72.8634 90.2606 69.3105 95.8438L69.3086 95.8447C65.7638 101.364 61.079 105.771 55.2598 109.061L55.2588 109.06C49.4811 112.353 43.1464 114 36.2637 114C30.6932 114 25.4938 112.86 20.6738 110.577L20.6699 110.575C15.8587 108.246 11.7044 105.053 8.20996 101.002L8.20703 100.999C4.75832 96.9417 2.27538 92.2268 0.756836 86.8613L0.619141 86.373L1.10938 86.2422L18.5088 81.5918L19.0039 81.46L19.124 81.958C19.8063 84.7842 21.0462 87.2092 22.8389 89.2441C24.6929 91.2921 26.8352 92.8742 29.2686 93.9941C31.7563 95.1161 34.3119 95.6748 36.9385 95.6748C40.3533 95.6748 43.4651 94.8465 46.2852 93.1934C49.1134 91.5354 51.3525 89.3206 53.0088 86.5439C54.6607 83.7248 55.4883 80.6138 55.4883 77.2002C55.4883 73.7881 54.6368 70.704 52.9375 67.9365L52.9316 67.9277C51.2757 65.1029 49.0389 62.8904 46.2158 61.2842L46.21 61.2812C43.3889 59.6276 40.3018 58.7998 36.9385 58.7998C32.846 58.7998 29.4846 59.5403 26.8281 60.9893L26.8271 60.9883C24.1626 62.469 22.143 64.0347 20.7441 65.6748L20.5273 65.9277L20.2109 65.8262L4.76074 60.876L4.3916 60.7578L4.41406 60.3711L7.71387 3.2207L7.74121 2.75H67.3633ZM121.979 0.5C129.7 0.5 136.512 2.16567 142.396 5.5127C148.327 8.80767 152.969 13.4244 156.314 19.3545C159.662 25.2892 161.329 32.1259 161.329 39.8496V74.6504C161.329 82.3741 159.662 89.2108 156.314 95.1455C152.97 101.075 148.329 105.716 142.399 109.061L142.398 109.062C136.513 112.359 129.701 114 121.979 114C114.256 114 107.42 112.359 101.486 109.062L101.483 109.061C95.554 105.716 90.9131 101.075 87.5684 95.1455L87.5664 95.1426C84.2697 89.2084 82.629 82.3727 82.6289 74.6504V39.8496C82.629 32.1273 84.2697 25.2916 87.5664 19.3574L87.5684 19.3545C90.8089 13.6099 95.2662 9.09816 100.934 5.82617L101.486 5.5127C107.42 2.16605 114.256 0.500056 121.979 0.5ZM121.979 18.5254C118.264 18.5255 114.903 19.4283 111.885 21.2295L111.88 21.2324C108.855 22.9888 106.467 25.3766 104.711 28.4014L104.71 28.4043C102.959 31.3707 102.079 34.7314 102.079 38.5V75.9248C102.079 79.6407 102.957 83.0023 104.709 86.0205C106.465 88.9952 108.853 91.3848 111.88 93.1924C114.899 94.9454 118.261 95.8251 121.979 95.8252C125.694 95.8252 129.055 94.9463 132.072 93.1953C135.102 91.3873 137.491 88.997 139.248 86.0205C141 83.0022 141.879 79.6408 141.879 75.9248V38.5C141.879 34.7314 140.999 31.3707 139.248 28.4043L139.246 28.4014C137.49 25.3766 135.103 22.9888 132.078 21.2324L132.072 21.2295C129.054 19.4283 125.693 18.5254 121.979 18.5254Z" fill="url(#paint0_linear_1400_8148)" stroke="url(#paint1_linear_1400_8148)"/>
<defs>
<linearGradient id="paint0_linear_1400_8148" x1="6.11577" y1="0.158595" x2="153.308" y2="103.753" gradientUnits="userSpaceOnUse">
<stop stop-color="#4064DF" stop-opacity="0.8"/>
<stop offset="0.513774" stop-color="#4064DF" stop-opacity="0.2"/>
<stop offset="0.822298" stop-color="#4064DF" stop-opacity="0.2"/>
<stop offset="1" stop-color="#4064DF" stop-opacity="0.2"/>
</linearGradient>
<linearGradient id="paint1_linear_1400_8148" x1="6.11577" y1="0.158595" x2="153.308" y2="103.753" gradientUnits="userSpaceOnUse">
<stop stop-color="#6A8BFD" stop-opacity="0.9"/>
<stop offset="0.513774" stop-color="#4064DF" stop-opacity="0.5"/>
<stop offset="0.822298" stop-color="#4064DF" stop-opacity="0.5"/>
<stop offset="1" stop-color="#4064DF" stop-opacity="0.5"/>
</linearGradient>
</defs>
</svg>
