<svg width="55" height="55" viewBox="0 0 55 55" fill="none" xmlns="http://www.w3.org/2000/svg">
<path d="M27.4969 35.6142C27.9185 35.6142 28.2598 35.2729 28.2598 34.8513V33.8943L28.4539 33.8541C30.1069 33.4927 31.3115 31.9937 31.3115 30.3005C31.3115 28.6073 30.234 27.068 28.6212 26.4992L26.8745 25.8768C25.8773 25.5288 25.2014 24.5785 25.2014 23.5144C25.2014 22.3499 26.145 21.4063 27.3095 21.4063H27.6709C28.8353 21.4063 29.779 22.3499 29.779 23.5144C29.779 23.936 30.1203 24.2773 30.5419 24.2773C30.9635 24.2773 31.3048 23.936 31.3048 23.5144C31.3048 21.8212 30.1069 20.3288 28.4472 19.9607L28.2531 19.9206V18.9636C28.2531 18.5419 27.9118 18.2006 27.4902 18.2006C27.0685 18.2006 26.7272 18.5419 26.7272 18.9636V19.9206L26.5331 19.9607C24.8801 20.3288 23.6822 21.8212 23.6822 23.5144C23.6822 25.2076 24.7597 26.7468 26.3725 27.3157L28.1192 27.9381C29.1164 28.2928 29.7856 29.2431 29.7923 30.3005C29.7923 31.465 28.842 32.4086 27.6842 32.4086H27.3228C26.1584 32.4086 25.2147 31.465 25.2147 30.3005C25.2147 29.8789 24.8734 29.5375 24.4518 29.5375C24.0302 29.5375 23.6889 29.8789 23.6889 30.3005C23.6889 31.9937 24.8868 33.4861 26.5398 33.8541L26.7339 33.8943V34.8513C26.7339 35.2729 27.0752 35.6142 27.4969 35.6142Z" fill="#747DA1"/>
<path d="M27.4969 12.3247C19.1314 12.3247 12.3252 19.1309 12.3252 27.4964C12.3252 35.8619 19.1314 42.6747 27.4969 42.6747C35.8623 42.6747 42.6752 35.8685 42.6752 27.4964C42.6752 19.1242 35.869 12.3247 27.4969 12.3247ZM27.4969 41.1422C19.9746 41.1422 13.8511 35.0186 13.8511 27.4964C13.8511 19.9741 19.9746 13.8506 27.4969 13.8506C35.0191 13.8506 41.1426 19.9741 41.1426 27.4964C41.1426 35.0186 35.0191 41.1422 27.4969 41.1422Z" fill="#747DA1"/>
</svg>
