<svg width="227" height="109" viewBox="0 0 227 109" fill="none" xmlns="http://www.w3.org/2000/svg">
<path d="M54.1035 108.207C83.9841 108.207 108.207 83.9841 108.207 54.1035C108.207 24.223 83.9841 0 54.1035 0C24.223 0 0 24.223 0 54.1035C0 83.9841 24.223 108.207 54.1035 108.207Z" fill="#8497D5" fill-opacity="0.1"/>
<path d="M33.3965 66.5236V54.7012H34.9317L39.1694 63.59L43.3829 54.7012H44.9327V66.5138H43.3248V58.4281L39.552 66.5236H38.782L34.9995 58.4281V66.5236H33.4013H33.3965Z" fill="white"/>
<path d="M49.6847 66.7691C49.0357 66.7691 48.4933 66.6467 48.0526 66.4018C47.6118 66.157 47.2825 65.8337 47.0597 65.4321C46.8369 65.0306 46.7207 64.5898 46.7207 64.1049C46.7207 63.6544 46.7982 63.2626 46.958 62.9247C47.113 62.5867 47.3455 62.2978 47.6554 62.0578C47.9654 61.8178 48.3431 61.6268 48.7935 61.4799C49.181 61.3673 49.6266 61.2644 50.1157 61.1763C50.6097 61.0881 51.1279 61.0049 51.6703 60.9314C52.2128 60.853 52.7552 60.7796 53.2879 60.7012L52.6729 61.0441C52.6825 60.3486 52.5372 59.8344 52.237 59.4965C51.9367 59.1585 51.4233 58.992 50.692 58.992C50.2319 58.992 49.8106 59.0998 49.428 59.3153C49.0454 59.5307 48.7742 59.8883 48.624 60.3878L47.0403 59.8932C47.2583 59.1341 47.6699 58.5268 48.2802 58.0811C48.8904 57.6305 49.6992 57.4102 50.7114 57.4102C51.496 57.4102 52.1789 57.5473 52.76 57.8166C53.3412 58.086 53.7674 58.517 54.0386 59.0998C54.1791 59.3887 54.2662 59.6973 54.3001 60.0205C54.334 60.3437 54.3486 60.6914 54.3486 61.0636V66.5243H52.8472V64.4967L53.1378 64.7612C52.7746 65.4419 52.3145 65.9464 51.7527 66.2745C51.1909 66.6075 50.5031 66.7691 49.6847 66.7691ZM49.9849 65.3636C50.4644 65.3636 50.8809 65.2754 51.2248 65.104C51.5686 64.9326 51.8495 64.7122 52.0626 64.4429C52.2757 64.1735 52.4113 63.8944 52.4743 63.6054C52.5663 63.3409 52.6196 63.0471 52.6341 62.719C52.6486 62.3908 52.6535 62.1264 52.6535 61.9305L53.2056 62.1362C52.668 62.2194 52.1837 62.2929 51.743 62.3566C51.3023 62.4202 50.91 62.4888 50.5516 62.5476C50.198 62.6112 49.8832 62.6847 49.6072 62.7728C49.3747 62.8561 49.1665 62.954 48.9873 63.0667C48.8081 63.1793 48.6628 63.3214 48.5562 63.483C48.4497 63.6495 48.3964 63.8454 48.3964 64.0805C48.3964 64.3155 48.4545 64.5212 48.5659 64.7171C48.6773 64.913 48.8517 65.0648 49.0841 65.1824C49.3166 65.295 49.6169 65.3538 49.9753 65.3538L49.9849 65.3636Z" fill="white"/>
<path d="M59.9362 66.7694C59.1177 66.7694 58.4154 66.5637 57.8197 66.1523C57.2289 65.7409 56.7688 65.1826 56.4492 64.4725C56.1247 63.7624 55.9648 62.9641 55.9648 62.0777C55.9648 61.1912 56.1295 60.3881 56.454 59.6828C56.7785 58.9776 57.2386 58.4242 57.8391 58.0177C58.4348 57.6112 59.1468 57.4055 59.9701 57.4055C60.7934 57.4055 61.4956 57.6112 62.0623 58.0177C62.6289 58.4242 63.0551 58.9825 63.3457 59.6877C63.6363 60.393 63.7816 61.1912 63.7816 62.0777C63.7816 62.9641 63.6363 63.7624 63.3409 64.4676C63.0503 65.1728 62.6192 65.7312 62.0478 66.1474C61.4763 66.5637 60.774 66.7694 59.9362 66.7694ZM60.1735 65.2169C60.7304 65.2169 61.1857 65.0847 61.5392 64.8153C61.8928 64.546 62.1495 64.1787 62.3093 63.7085C62.4691 63.2384 62.5514 62.6947 62.5514 62.0826C62.5514 61.4704 62.4691 60.9268 62.3044 60.4566C62.1398 59.9865 61.8831 59.6192 61.5392 59.3547C61.1954 59.0902 60.7595 58.9629 60.2268 58.9629C59.665 58.9629 59.2 59.1049 58.8368 59.3792C58.4736 59.6583 58.2023 60.0354 58.028 60.5056C57.8536 60.9757 57.7665 61.4998 57.7665 62.0826C57.7665 62.6654 57.8536 63.1992 58.028 63.6693C58.2023 64.1444 58.4687 64.5166 58.8223 64.8006C59.1758 65.0798 59.6262 65.2169 60.1638 65.2169H60.1735ZM62.5514 66.5245V60.1481H62.3577V54.707H64.0625V66.5294H62.5514V66.5245Z" fill="white"/>
<path d="M70.2219 66.7691C69.3501 66.7691 68.5849 66.5781 67.9263 66.1913C67.2676 65.8044 66.7591 65.2656 66.391 64.5751C66.0278 63.8846 65.8438 63.0814 65.8438 62.1656C65.8438 61.1959 66.0229 60.3584 66.3813 59.6434C66.7397 58.9284 67.2434 58.3798 67.8875 57.9929C68.5317 57.6061 69.2823 57.4102 70.1347 57.4102C70.9871 57.4102 71.7862 57.6207 72.4158 58.037C73.0454 58.4533 73.5152 59.0508 73.8252 59.8246C74.1351 60.5984 74.261 61.5142 74.1932 62.5769H72.4981V61.955C72.4885 60.9265 72.2947 60.1674 71.917 59.6728C71.5392 59.1781 70.9677 58.9333 70.1977 58.9333C69.3501 58.9333 68.7109 59.2026 68.2798 59.7462C67.8488 60.2898 67.6405 61.0685 67.6405 62.0921C67.6405 63.1157 67.8536 63.8209 68.2798 64.3547C68.706 64.8885 69.3259 65.153 70.1299 65.153C70.6626 65.153 71.1179 65.0306 71.5053 64.7857C71.8928 64.5408 72.193 64.1931 72.411 63.7376L74.077 64.2715C73.738 65.0648 73.2198 65.6819 72.5272 66.1129C71.8346 66.5488 71.0646 66.7642 70.2122 66.7642L70.2219 66.7691ZM67.0981 62.572V61.2351H73.3554V62.572H67.0981Z" fill="white"/>
<path d="M29.3086 71.0343V69.3691H31.0037V71.0343H29.3086ZM29.3086 81.3531V72.4888H31.0037V81.3531H29.3086Z" fill="white"/>
<path d="M33.4297 81.3543V72.49H34.9456V75.0513H35.149V81.3543H33.4297ZM39.5901 81.3543V76.9956C39.5901 76.6528 39.561 76.2953 39.5029 75.9329C39.4448 75.5705 39.3383 75.2325 39.1784 74.9191C39.0186 74.6057 38.7958 74.3559 38.5052 74.1649C38.2147 73.9739 37.8369 73.876 37.372 73.876C37.0668 73.876 36.7811 73.9249 36.5099 74.0278C36.2387 74.1306 36.0014 74.2922 35.798 74.5175C35.5945 74.7428 35.4347 75.0366 35.3185 75.4039C35.2023 75.7713 35.1441 76.2169 35.1441 76.7409L34.0883 76.3394C34.0883 75.5362 34.2385 74.826 34.5339 74.209C34.8293 73.5919 35.2604 73.1119 35.8173 72.7691C36.3743 72.4263 37.0475 72.25 37.8369 72.25C38.4423 72.25 38.9508 72.348 39.3625 72.5438C39.7741 72.7397 40.1083 72.9993 40.365 73.3176C40.6217 73.636 40.8202 73.9886 40.9558 74.3657C41.0914 74.7428 41.1835 75.115 41.2319 75.4725C41.2803 75.8349 41.3045 76.1533 41.3045 76.4226V81.3494H39.5852L39.5901 81.3543Z" fill="white"/>
<path d="M46.8359 81.3517V69.5293H48.531V81.3517H46.8359Z" fill="white"/>
<path d="M49.9941 73.865V72.4839H55.985V73.865H49.9941ZM55.985 81.3531C55.4329 81.4609 54.8905 81.5099 54.3626 81.4952C53.8299 81.4805 53.3601 81.3727 52.9436 81.1817C52.5271 80.9907 52.2123 80.6871 52.004 80.2806C51.8151 79.9133 51.7134 79.5411 51.6989 79.1591C51.6844 78.7771 51.6795 78.3461 51.6795 77.8662V70.0254H53.3843V77.7829C53.3843 78.1404 53.3843 78.449 53.394 78.7085C53.4037 78.973 53.4569 79.1934 53.5586 79.3746C53.7524 79.7125 54.0623 79.9084 54.4885 79.9525C54.9147 80.0015 55.4136 79.9819 55.985 79.8986V81.3531Z" fill="white"/>
<path d="M60.3038 81.5992C59.6548 81.5992 59.1124 81.4768 58.6717 81.2319C58.231 80.987 57.9016 80.6638 57.6789 80.2622C57.4561 79.8606 57.3398 79.4199 57.3398 78.935C57.3398 78.4845 57.4173 78.0927 57.5772 77.7547C57.7321 77.4168 57.9646 77.1279 58.2746 76.8879C58.5845 76.6479 58.9623 76.4569 59.4127 76.31C59.8001 76.1974 60.2457 76.0945 60.7348 76.0064C61.2288 75.9182 61.747 75.835 62.2895 75.7615C62.8319 75.6831 63.3743 75.6097 63.9071 75.5313L63.292 75.8741C63.3017 75.1787 63.1564 74.6645 62.8561 74.3265C62.5558 73.9886 62.0425 73.8221 61.3112 73.8221C60.8511 73.8221 60.4297 73.9299 60.0471 74.1453C59.6645 74.3608 59.3933 74.7183 59.2432 75.2179L57.6595 74.7281C57.8774 73.969 58.2891 73.3618 58.8993 72.9112C59.5095 72.4606 60.3183 72.2402 61.3305 72.2402C62.1151 72.2402 62.798 72.3774 63.3792 72.6467C63.9603 72.9161 64.3865 73.3471 64.6577 73.9299C64.7982 74.2188 64.8854 74.5273 64.9193 74.8506C64.9532 75.1738 64.9677 75.5215 64.9677 75.8937V81.3544H63.4663V79.3268L63.7569 79.5913C63.3937 80.272 62.9336 80.7765 62.3718 81.1046C61.81 81.4376 61.1223 81.5992 60.3038 81.5992ZM60.6041 80.1986C61.0835 80.1986 61.5001 80.1104 61.8439 79.939C62.1878 79.7676 62.4687 79.5472 62.6818 79.2778C62.8949 79.0085 63.0305 78.7293 63.0934 78.4404C63.1854 78.1759 63.2387 77.8821 63.2532 77.554C63.2678 77.2258 63.2726 76.9614 63.2726 76.7655L63.8247 76.9712C63.2871 77.0544 62.8028 77.1279 62.3621 77.1915C61.9214 77.2552 61.5291 77.3238 61.1707 77.3825C60.8172 77.4462 60.5024 77.5197 60.2263 77.6078C59.9939 77.6911 59.7856 77.789 59.6064 77.9017C59.4272 78.0143 59.2819 78.1563 59.1754 78.3179C59.0688 78.4796 59.0156 78.6804 59.0156 78.9154C59.0156 79.1505 59.0737 79.3562 59.1851 79.5521C59.2964 79.748 59.4708 79.8998 59.7033 80.0174C59.9357 80.1349 60.236 80.1888 60.5944 80.1888L60.6041 80.1986Z" fill="white"/>
<path d="M67.2344 81.3524V69.2852H68.9295V81.3524H67.2344Z" fill="white"/>
<path d="M72.5521 85.297L74.2471 80.6249L74.2714 82.0059L70.4453 72.4902H72.213L75.0705 79.8364H74.5523L77.2789 72.4902H78.9982L74.16 85.297H72.5424H72.5521Z" fill="white"/>
<path d="M39.0719 43.5313L50.4086 22.5968" stroke="#009347" stroke-width="11" stroke-miterlimit="10" stroke-linecap="round"/>
<path d="M48.7809 43.5313L60.1176 22.5968" stroke="white" stroke-width="11" stroke-miterlimit="10" stroke-linecap="round"/>
<path d="M58.4938 43.5313L69.8305 22.5968" stroke="#CF2837" stroke-width="11" stroke-miterlimit="10" stroke-linecap="round"/>
<g clip-path="url(#clip0_1845_11741)">
<mask id="mask0_1845_11741" style="mask-type:luminance" maskUnits="userSpaceOnUse" x="118" y="0" width="109" height="108">
<path d="M226.207 0H118.207V108H226.207V0Z" fill="white"/>
</mask>
<g mask="url(#mask0_1845_11741)">
<path d="M172.207 108C142.427 108 118.207 83.7604 118.207 54C118.207 24.2396 142.427 0 172.207 0C201.987 0 226.207 24.2199 226.207 54C226.207 83.7801 201.987 108 172.207 108Z" fill="#8497D5" fill-opacity="0.1"/>
<path d="M191.747 58.7988H151.08V60.9306H191.747V58.7988Z" fill="#E42313"/>
<path d="M151.392 54.3301C151.851 54.5597 152.605 54.7072 153.212 54.7072C154.114 54.7072 154.524 54.3301 154.524 53.8382C154.524 53.2314 154.081 52.9527 153.163 52.4443C151.457 51.5097 151.178 50.4274 151.178 49.7059C151.178 48.0989 152.31 46.7051 154.737 46.7051C155.458 46.7051 156.147 46.8855 156.475 47.0494L156.131 48.968C155.819 48.7876 155.36 48.64 154.753 48.64C153.933 48.64 153.556 49.0336 153.556 49.4763C153.556 49.9027 153.769 50.165 154.966 50.7882C156.426 51.5425 156.901 52.5591 156.901 53.5594C156.901 55.396 155.426 56.6094 153.195 56.6094C152.294 56.6094 151.441 56.4126 151.08 56.2323L151.392 54.2973V54.3301Z" fill="white"/>
<path d="M161.377 52.9016L161.115 51.0486C161.033 50.4911 160.902 49.4416 160.803 48.8349H160.77C160.656 49.4416 160.508 50.5239 160.41 51.0486L160.098 52.9016H161.377ZM159.852 54.6233L159.491 56.5419H157.146L159.377 46.7852H162.312L164.23 56.5419H161.885L161.541 54.6233H159.836H159.852Z" fill="white"/>
<path d="M167.725 54.9029C167.856 54.9357 167.971 54.9357 168.118 54.9357C168.774 54.9357 169.397 54.5421 169.397 53.673C169.397 52.804 168.807 52.394 168.134 52.394H167.725V54.9029ZM167.725 50.7542H168.118C168.758 50.7542 169.2 50.2295 169.2 49.5408C169.2 48.9013 168.872 48.4093 168.233 48.4093C168.036 48.4093 167.856 48.4093 167.725 48.4749V50.7542ZM165.314 46.9499C165.986 46.8187 166.905 46.7695 167.889 46.7695C168.872 46.7695 169.905 46.8515 170.693 47.4582C171.299 47.9174 171.529 48.6061 171.529 49.2784C171.529 50.0819 171.086 50.9346 170.053 51.3937V51.4429C171.266 51.7709 171.873 52.722 171.873 53.7058C171.873 54.5093 171.594 55.1325 171.086 55.608C170.447 56.2475 169.332 56.6411 167.331 56.6411C166.544 56.6411 165.822 56.5919 165.281 56.5263V46.9499H165.314Z" fill="white"/>
<path d="M175.726 54.9029C175.858 54.9357 175.972 54.9357 176.12 54.9357C176.776 54.9357 177.399 54.5421 177.399 53.673C177.399 52.804 176.809 52.394 176.136 52.394H175.726V54.9029ZM175.726 50.7542H176.12C176.76 50.7542 177.202 50.2295 177.202 49.5408C177.202 48.9013 176.874 48.4093 176.235 48.4093C176.038 48.4093 175.858 48.4093 175.726 48.4749V50.7542ZM173.316 46.9499C173.988 46.8187 174.907 46.7695 175.89 46.7695C176.874 46.7695 177.907 46.8515 178.695 47.4582C179.301 47.9174 179.531 48.6061 179.531 49.2784C179.531 50.0819 179.088 50.9346 178.055 51.3937V51.4429C179.268 51.7709 179.875 52.722 179.875 53.7058C179.875 54.5093 179.596 55.1325 179.088 55.608C178.449 56.2475 177.333 56.6411 175.333 56.6411C174.546 56.6411 173.824 56.5919 173.283 56.5263V46.9499H173.316Z" fill="white"/>
<path d="M183.745 46.8027H181.318V56.5595H183.745V46.8027Z" fill="white"/>
<path d="M188.877 52.9016L188.615 51.0486C188.533 50.4911 188.402 49.4416 188.303 48.8349H188.27C188.156 49.4416 188.008 50.5239 187.91 51.0486L187.598 52.9016H188.877ZM187.352 54.6233L186.991 56.5419H184.646L186.877 46.7852H189.812L191.73 56.5419H189.385L189.041 54.6233H187.336H187.352Z" fill="white"/>
<path d="M192.533 47.1806H192.631C192.779 47.1806 192.844 47.115 192.844 47.033C192.844 46.9346 192.762 46.9018 192.648 46.9018C192.598 46.9018 192.566 46.9018 192.533 46.9018V47.1806ZM192.517 47.9021H192.074V46.6394C192.156 46.6394 192.385 46.5902 192.68 46.5902C192.992 46.5902 193.123 46.623 193.222 46.6886C193.304 46.7378 193.353 46.8362 193.353 46.9674C193.353 47.0986 193.222 47.2134 193.041 47.2462C193.189 47.3117 193.271 47.4101 193.32 47.5905C193.369 47.7709 193.402 47.8529 193.418 47.8857H192.926C192.926 47.8857 192.861 47.7381 192.844 47.6397C192.828 47.5249 192.762 47.4593 192.648 47.4593H192.533V47.8857L192.517 47.9021ZM192.664 46.2131C192.09 46.2131 191.664 46.6722 191.664 47.2626C191.664 47.8529 192.09 48.312 192.664 48.312C193.254 48.312 193.681 47.8529 193.681 47.2462C193.681 46.6394 193.254 46.2131 192.664 46.2131ZM192.68 45.8359C193.5 45.8359 194.14 46.4755 194.14 47.2626C194.14 48.0497 193.484 48.7056 192.664 48.7056C191.844 48.7056 191.172 48.0661 191.172 47.2626C191.172 46.4591 191.844 45.8359 192.664 45.8359H192.68Z" fill="white"/>
<path d="M147.105 33.9121L144.639 39.0215L147.385 40.3475L149.852 35.2381L147.105 33.9121Z" fill="#E42313"/>
<path d="M149.619 26.8805L147.75 28.3235L146.258 26.3722L152.456 21.584L153.965 23.5189L152.079 24.9783L157.605 32.1278L155.145 34.0464L149.619 26.8805Z" fill="white"/>
<path d="M161.246 25.7476C160.426 26.1247 159.688 26.7643 160.033 27.5841C160.311 28.2401 160.885 28.3057 161.197 28.1581C161.492 28.0269 161.836 27.7481 161.853 27.3382C161.853 27.2398 161.836 27.125 161.771 26.9938L161.23 25.7312L161.246 25.7476ZM164.854 26.4199C165.116 27.043 165.411 27.6497 165.756 28.1253L163.197 29.2075L162.738 28.5352H162.706C162.427 29.3715 161.787 29.9618 160.984 30.3062C159.541 30.9293 158.049 30.3554 157.458 28.9616C156.573 26.8954 158.442 25.1245 160.492 24.239L160.426 24.0914C160.246 23.6651 159.639 23.5339 158.901 23.8454C158.098 24.1898 157.573 24.6161 157.097 25.1737L155.9 23.7634C156.343 23.2715 157.343 22.4024 158.77 21.7957C161.935 20.4511 163.066 22.222 163.706 23.7142L164.837 26.3871L164.854 26.4199Z" fill="white"/>
<path d="M167.3 16.0443L164.236 16.6094L166.378 28.22L169.442 27.6549L167.3 16.0443Z" fill="white"/>
<path d="M175.053 22.616C175.086 21.7961 174.955 20.9106 174.151 20.8778C173.364 20.845 173.053 21.8289 173.02 22.534L175.053 22.616ZM172.954 24.3542C172.954 25.1249 173.708 25.6168 174.905 25.6496C175.693 25.6824 176.381 25.5676 176.906 25.4528L177.218 27.3386C176.48 27.5354 175.348 27.6502 174.266 27.601C171.429 27.5026 169.904 25.994 170.003 23.3539C170.101 20.4843 172.069 18.8937 174.397 18.9757C176.578 19.0577 177.956 20.3695 177.841 23.1899C177.808 23.9114 177.759 24.2722 177.693 24.5346L172.971 24.3542H172.954Z" fill="white"/>
<path d="M179.595 22.2378C179.89 21.4015 180.152 20.4996 180.398 19.6797L182.924 20.5652L182.76 21.5163H182.792C183.53 21.0735 184.498 20.9751 185.465 21.3031C187.449 21.9918 187.564 23.5824 186.974 25.2878L185.236 30.2563L182.3 29.2233L184.006 24.3203C184.203 23.7792 184.203 23.2052 183.612 22.9921C183.284 22.8773 182.989 22.9593 182.71 23.2052C182.579 23.32 182.415 23.566 182.3 23.8939L180.644 28.6493L177.709 27.6163L179.595 22.2214V22.2378Z" fill="white"/>
<path d="M194.633 23.9608L193.338 25.8301L194.945 26.9452L193.895 28.4538L192.288 27.3387L190.386 30.0936C189.861 30.8479 190.14 31.307 190.55 31.6022C190.763 31.7498 190.943 31.8481 191.173 31.9793L189.992 33.6683C189.615 33.5043 189.041 33.1928 188.418 32.7664C187.746 32.2909 187.238 31.7498 187.024 31.143C186.795 30.4215 186.893 29.6672 187.68 28.5358L189.714 25.5842L188.779 24.9282L189.828 23.4196L190.763 24.0755L191.616 22.8457L194.617 23.9936L194.633 23.9608Z" fill="white"/>
<path d="M195.895 37.3738C195.928 37.4722 196.026 37.6198 196.092 37.751C196.682 38.6693 198.043 38.8005 200.437 37.2427C202.225 36.0784 203.045 34.8486 202.307 33.7171C202.225 33.5859 202.143 33.4711 202.028 33.3728L195.895 37.3738ZM201.946 29.7324C202.421 30.2408 203.094 31.0934 203.733 32.0773C204.734 33.6187 205.127 34.865 205.012 36.0456C204.881 37.5706 203.881 38.8496 202.094 40.0139C200.257 41.2109 198.42 41.5881 196.912 41.0142C195.813 40.6042 194.764 39.6695 193.665 37.9642C193.157 37.1935 192.73 36.39 192.484 35.898L201.946 29.7324Z" fill="white"/>
<path d="M202.439 41.8007C203.292 41.5384 204.161 41.2268 204.964 40.9316L205.751 43.4897L204.653 43.998V44.08C205.719 44.2604 206.325 44.8999 206.522 45.5067C206.62 45.8182 206.653 45.9658 206.67 46.1626L204.194 46.9333C204.161 46.7365 204.112 46.5397 204.03 46.2774C203.915 45.933 203.57 45.2443 202.685 45.1623C202.505 45.1459 202.177 45.1623 201.816 45.2935L197.913 46.5069L196.979 43.5225L202.439 41.8335V41.8007Z" fill="white"/>
<path d="M209.391 50.6404C208.604 50.7552 207.948 50.1157 207.85 49.2466C207.751 48.4267 208.227 47.6888 209.03 47.6068C209.866 47.492 210.49 48.148 210.588 48.9679C210.686 49.8042 210.244 50.5421 209.391 50.6568M198.486 48.8531L206.816 47.8692L207.194 50.9684L198.863 51.9523L198.503 48.8531H198.486Z" fill="white"/>
<path d="M207.178 55.9862L203.8 56.2158C202.963 56.2814 202.209 56.3306 201.291 56.3798V56.4289C202.193 56.6257 202.881 56.8225 203.718 57.0357L206.997 57.9048L206.702 60.9548L198.602 57.5112L198.864 54.6416L207.473 52.6738L207.161 55.9862H207.178Z" fill="white"/>
<path d="M201.373 65.7082C202.144 65.987 203.029 66.151 203.308 65.3966C203.587 64.6587 202.751 64.052 202.078 63.8061L201.373 65.7082ZM200.373 63.1665C199.635 62.937 198.946 63.4945 198.52 64.5932C198.241 65.3311 198.126 66.0198 198.077 66.5445L196.191 66.2493C196.241 65.495 196.487 64.38 196.864 63.3633C197.864 60.7069 199.783 59.723 202.259 60.6577C204.948 61.6579 205.85 64.0192 205.03 66.2001C204.259 68.2335 202.587 69.1354 199.947 68.1351C199.274 67.8891 198.946 67.7087 198.717 67.5612L200.373 63.1337V63.1665Z" fill="white"/>
<path d="M200.29 70.1365C200.995 70.6776 201.766 71.2188 202.471 71.6943L200.847 73.826L199.995 73.3669V73.3997C200.175 74.236 199.978 75.2035 199.339 76.007C198.076 77.6631 196.518 77.3024 195.092 76.2037L190.91 73.0061L192.812 70.5301L196.928 73.6785C197.387 74.0392 197.928 74.2196 198.306 73.7276C198.519 73.4489 198.535 73.1537 198.388 72.8094C198.322 72.6618 198.125 72.4158 197.863 72.2026L193.862 69.1362L195.764 66.6602L200.306 70.1365H200.29Z" fill="white"/>
<path d="M187.799 75.3129L185.186 77.0098L191.446 86.6502L194.059 84.9533L187.799 75.3129Z" fill="white"/>
<path d="M186.368 83.0746C186.663 83.9109 187.008 84.78 187.319 85.5835L184.794 86.469L184.319 85.6163H184.286C183.991 86.4362 183.302 87.1249 182.334 87.4692C180.367 88.1579 179.268 86.9937 178.678 85.2883L176.939 80.3033L179.875 79.2703L181.58 84.1733C181.777 84.7144 182.121 85.1735 182.712 84.9767C183.039 84.862 183.22 84.616 183.285 84.2552C183.318 84.0913 183.285 83.7797 183.171 83.4681L181.514 78.7128L184.466 77.6797L186.352 83.0746H186.368Z" fill="white"/>
<path d="M176.857 86.0764C176.89 86.9619 176.955 87.8965 177.021 88.7492L174.348 88.8312L174.168 87.8801H174.118C173.594 88.5689 172.725 89.0116 171.691 89.0444C169.593 89.11 168.92 87.6834 168.855 85.8632L168.707 80.5995L171.823 80.5011L171.97 85.6828C171.987 86.2568 172.183 86.7979 172.807 86.7815C173.151 86.7815 173.397 86.6011 173.577 86.2732C173.659 86.1092 173.725 85.8304 173.708 85.4861L173.561 80.4519L176.676 80.3535L176.84 86.06L176.857 86.0764Z" fill="white"/>
<path d="M164.608 83.8295C165.002 82.4357 164.985 81.4682 164.28 81.2714C163.657 81.1075 163.149 82.1733 162.837 83.3376C162.542 84.4034 162.411 85.6497 163.067 85.83C163.821 86.0432 164.329 84.9118 164.625 83.8295M159.853 82.5341C160.82 79.0741 163.428 78.9921 164.854 79.3857C167.379 80.0908 168.281 82.0749 167.576 84.6002C166.773 87.4698 164.51 88.2733 162.509 87.7322C160.033 87.0435 159.164 84.961 159.836 82.5341" fill="white"/>
<path d="M154.59 84.2547L155.869 81.1227C156.18 80.352 156.459 79.6469 156.82 78.8106H156.787C156.197 79.5157 155.737 80.0405 155.164 80.6964L152.933 83.2545L150.326 81.6639L157 75.9082L159.46 77.4168L157.426 86.0093L154.59 84.2711V84.2547Z" fill="white"/>
<path d="M149.406 74.4009C150.03 75.0568 150.882 75.5324 151.538 74.9257C152.063 74.4337 151.915 73.8762 151.686 73.6302C151.473 73.4007 151.095 73.1711 150.702 73.2859C150.604 73.3187 150.505 73.3843 150.407 73.4663L149.406 74.3845V74.4009ZM148.849 70.7606C149.357 70.3015 149.816 69.8095 150.161 69.334L152.047 71.3673L151.571 72.0232L151.604 72.056C152.473 72.056 153.244 72.4332 153.834 73.0891C154.9 74.2369 154.867 75.8439 153.752 76.8606C152.096 78.3856 149.816 77.2214 148.275 75.5816L148.16 75.68C147.816 75.9915 147.898 76.5982 148.439 77.1886C149.029 77.8281 149.62 78.1888 150.292 78.4348L149.374 80.0254C148.767 79.763 147.619 79.1235 146.57 77.9921C144.241 75.4668 145.537 73.7942 146.717 72.6956L148.849 70.7278V70.7606Z" fill="white"/>
<path d="M139.027 70.9068L141.028 69.8246L140.11 68.1028L141.733 67.2337L142.651 68.9555L145.603 67.3649C146.406 66.9221 146.374 66.3974 146.144 65.9546C146.013 65.7251 145.914 65.5611 145.75 65.3315L147.571 64.3477C147.833 64.6592 148.21 65.2003 148.571 65.8727C148.964 66.5942 149.178 67.3157 149.079 67.9552C148.964 68.7095 148.522 69.3326 147.308 69.9885L144.16 71.6775L144.701 72.6778L143.078 73.5469L142.536 72.5302L141.208 73.2353L139.06 70.8576L139.027 70.9068Z" fill="white"/>
<path d="M147.489 63.7579L139.47 66.2503L138.536 63.2659L146.554 60.7734L147.489 63.7415V63.7579ZM136.437 64.0038C137.191 63.7415 137.945 64.2498 138.208 65.1025C138.454 65.8896 138.126 66.7095 137.355 66.939C136.552 67.2178 135.83 66.6767 135.584 65.8896C135.338 65.0861 135.633 64.2662 136.453 64.0202" fill="white"/>
<path d="M141.783 57.6914C143.226 57.5766 144.128 57.2487 144.062 56.5108C144.013 55.8713 142.832 55.7565 141.635 55.8549C140.536 55.9369 139.323 56.232 139.372 56.9207C139.438 57.7078 140.668 57.7898 141.783 57.7078M141.389 52.7721C144.98 52.4933 145.931 54.9202 146.046 56.4124C146.243 59.0197 144.685 60.5447 142.061 60.7578C139.077 60.9874 137.552 59.118 137.404 57.0519C137.208 54.4774 138.864 52.9688 141.389 52.7721Z" fill="white"/>
<path d="M140.044 51.1799C139.174 50.9831 138.256 50.8191 137.42 50.6715L138.01 48.0643L138.978 48.1135V48.0807C138.453 47.4084 138.24 46.4409 138.469 45.4406C138.929 43.4073 140.486 43.0957 142.241 43.4893L147.39 44.6535L146.701 47.7035L141.651 46.5721C141.077 46.4409 140.519 46.5065 140.372 47.1132C140.29 47.4412 140.404 47.7363 140.683 47.9823C140.814 48.0971 141.077 48.2283 141.405 48.3102L146.308 49.4089L145.619 52.4425L140.044 51.1799Z" fill="white"/>
</g>
</g>
<defs>
<clipPath id="clip0_1845_11741">
<rect width="108" height="108" fill="white" transform="translate(118.207)"/>
</clipPath>
</defs>
</svg>
