<svg width="198" height="46" viewBox="0 0 198 46" fill="none" xmlns="http://www.w3.org/2000/svg">
<g clip-path="url(#clip0_1106_5324)">
<path fill-rule="evenodd" clip-rule="evenodd" d="M3.87674 4.29584C6.4263 1.64849 10.0097 0 13.9772 0C20.4804 0 25.9497 4.42856 27.5353 10.4358C27.5353 10.4358 22.6248 10.5126 19.5234 10.0865C16.0867 9.61152 14.1239 9.19939 10.8898 7.94906C8.01192 6.83843 3.88372 4.29584 3.88372 4.29584M27.8636 12.1122C27.8147 11.7629 27.7588 11.4207 27.682 11.0784C27.682 11.0784 20.7877 11.1762 16.4569 10.5056C11.7629 9.77916 9.02477 9.29719 4.70797 7.31341C3.78593 6.88732 3.27602 6.57998 2.38192 6.13991C1.90694 6.83144 1.49481 7.57186 1.15254 8.34721C1.15254 8.34721 3.88372 9.26925 5.65794 9.74423C9.43689 10.7501 11.6512 11.0225 15.5279 11.4835C20.3057 12.0563 27.8566 12.1122 27.8566 12.1122M15.6606 13.4114L27.9754 13.4673C27.9684 13.2368 27.9544 13.0063 27.9335 12.7758C27.9335 12.7758 19.8307 12.8386 14.6827 12.3846C9.1016 11.8887 5.81161 11.3299 0.481973 10.1983C0.237494 11.0714 0.0698511 11.9795 0 12.9155L15.6606 13.4114ZM3.87674 23.3722C6.4263 26.0195 10.0097 27.668 13.9702 27.668C20.4734 27.668 25.9427 23.2395 27.5283 17.2323C27.5283 17.2323 22.6178 17.1554 19.5164 17.5815C16.0797 18.0565 14.1169 18.4686 10.8828 19.719C8.00494 20.8296 3.87674 23.3722 3.87674 23.3722ZM15.5349 16.1845C11.6512 16.6525 9.44387 16.9179 5.66493 17.9238C3.88372 18.3988 1.15953 19.3208 1.15953 19.3208C1.5018 20.0962 1.91392 20.8366 2.38891 21.5281C3.283 21.0811 3.79292 20.7807 4.71495 20.3546C9.02477 18.3708 11.7699 17.8889 16.4639 17.1624C20.7947 16.4919 27.689 16.5896 27.689 16.5896C27.7588 16.2474 27.8217 15.9051 27.8706 15.5558C27.8706 15.5558 20.3197 15.6117 15.5419 16.1845M0 14.7526C0.0698511 15.6886 0.237494 16.5966 0.481973 17.4698C5.8186 16.3382 9.1016 15.7794 14.6827 15.2834C19.8307 14.8294 27.9335 14.8923 27.9335 14.8923C27.9544 14.6618 27.9684 14.4382 27.9754 14.2077L15.6606 14.2566L0 14.7526Z" fill="#E42313"/>
<path d="M44.3691 26.8843C52.2762 26.8843 59.0099 21.2752 60.8889 14.2552C61.8528 10.6718 61.308 7.30501 59.3661 4.7764C57.5081 2.35955 54.5953 1.02539 51.1586 1.02539C44.1246 1.02539 36.8741 6.73921 34.9881 13.7593L29.2812 35.0638L36.448 31.3408L41.0232 14.2622C42.078 10.3296 46.1224 7.13038 50.041 7.13038C51.7803 7.13038 53.2332 7.77999 54.1343 8.95349C55.0912 10.2038 55.3497 11.9082 54.8537 13.7593C53.799 17.6919 49.7057 21.0028 45.836 20.8911C41.9662 20.7793 41.0162 19.2076 41.0162 19.2076L39.4097 25.0193C39.4097 25.0193 40.4225 26.8982 44.3691 26.8982" fill="white"/>
<path fill-rule="evenodd" clip-rule="evenodd" d="M195.569 0.962891C194.242 0.962891 193.117 1.98272 193.117 3.36577C193.117 4.74882 194.242 5.78262 195.569 5.78262C196.896 5.78262 198.007 4.76279 198.007 3.36577C198.007 1.96875 196.882 0.962891 195.569 0.962891ZM195.569 5.38447C194.465 5.38447 193.606 4.53228 193.606 3.37275C193.606 2.21323 194.465 1.36803 195.569 1.36803C196.673 1.36803 197.518 2.2272 197.518 3.37275C197.518 4.51831 196.659 5.38447 195.569 5.38447ZM196.68 2.77902C196.68 2.2272 196.351 1.9897 195.695 1.9897H194.633V4.76978H195.052V3.56135H195.534L196.267 4.76978H196.742L195.953 3.54738C196.358 3.49849 196.673 3.28195 196.673 2.77902M195.059 3.20511V2.34594H195.632C195.925 2.34594 196.24 2.40881 196.24 2.75108C196.24 3.17717 195.918 3.20511 195.562 3.20511H195.059Z" fill="white"/>
<path fill-rule="evenodd" clip-rule="evenodd" d="M68.7057 10.911C70.5427 8.52903 73.3927 6.96436 76.0959 6.96436H79.6583L79.8469 6.2449L80.9645 2.08177L81.2928 0.859375H77.2135C70.1795 0.859375 62.929 6.5732 61.043 13.5932C60.079 17.1766 60.6239 20.5434 62.5588 23.072C64.4168 25.4889 67.3296 26.823 70.7663 26.823H74.3287L74.5173 26.1036L75.6349 21.9404L75.9632 20.7181H71.8839C69.2784 20.7181 67.3925 19.2582 66.9384 16.988H66.9594H76.1867H76.9271L77.1227 16.2685L78.2403 12.1054L78.5686 10.883H68.7406L68.7057 10.911Z" fill="white"/>
<path fill-rule="evenodd" clip-rule="evenodd" d="M85.6439 20.7172L83.4366 20.7382L83.5763 20.6963L85.8325 12.0487L86.1608 10.8263H79.993L79.7974 11.5458L76.0324 25.5998L75.7041 26.8222H84.5403C91.5743 26.8222 98.8248 21.1084 100.711 14.0884C101.668 10.505 101.13 7.13816 99.1881 4.60257C97.33 2.18572 94.4172 0.851562 90.9805 0.851562H82.6683L82.4727 1.57103L81.3551 5.73416L81.0268 6.95655H89.8629C91.5882 6.95655 93.0272 7.59918 93.9213 8.75871C94.8782 10.009 95.1297 11.7204 94.6338 13.5854C93.579 17.518 89.5346 20.7172 85.616 20.7172" fill="white"/>
<path fill-rule="evenodd" clip-rule="evenodd" d="M117.894 9.2132C118.488 6.98495 118.146 4.88942 116.938 3.3038C115.778 1.78104 113.962 0.94283 111.824 0.94283L104.176 0.921875L102.548 7.01988H110.728C111.182 7.01988 111.538 7.16657 111.762 7.45296C111.999 7.7603 112.055 8.20735 111.922 8.71028C111.601 9.90473 110.344 10.9106 109.17 10.9106H109.128L101.654 10.9246L97.3652 26.9833H103.526L106.201 16.9597H107.221L110.33 26.9833H116.882L113.333 15.3112C113.333 15.3112 117.189 11.8606 117.894 9.2132Z" fill="white"/>
<path fill-rule="evenodd" clip-rule="evenodd" d="M154.664 13.6131C153.707 17.1964 154.245 20.5633 156.18 23.0919C158.038 25.5087 160.951 26.8708 164.387 26.8708H165.896L167.537 20.7449H165.498C163.759 20.7449 162.306 20.0953 161.405 18.9218C160.448 17.6714 160.196 15.967 160.685 14.116L164.234 0.865234H158.066L154.65 13.6131H154.664Z" fill="white"/>
<path fill-rule="evenodd" clip-rule="evenodd" d="M141.937 13.6209C140.98 17.2042 141.518 20.5711 143.453 23.0997C145.311 25.5165 148.224 26.8507 151.661 26.8507L151.43 26.8227L151.661 26.8786H153.169L154.811 20.7527H152.771C151.032 20.7527 149.579 20.1031 148.678 18.9296C147.721 17.6792 147.463 15.9749 147.959 14.1238L151.507 0.873047H145.339L141.923 13.6209H141.937Z" fill="white"/>
<path fill-rule="evenodd" clip-rule="evenodd" d="M191.573 4.67288C189.715 2.25603 186.802 0.921875 183.365 0.921875C176.338 0.921875 169.088 6.62871 167.209 13.6418C166.252 17.2251 166.79 20.592 168.725 23.1206C170.583 25.5374 173.495 26.8716 176.932 26.8716C183.959 26.8716 191.21 21.1647 193.089 14.1517C194.046 10.5683 193.508 7.20149 191.573 4.67288ZM187.061 13.6488C186.006 17.5814 181.968 20.7736 178.05 20.7736C176.31 20.7736 174.858 20.124 173.956 18.9505C172.999 17.7001 172.748 15.9957 173.244 14.1447C174.299 10.2121 178.336 7.01988 182.255 7.01988C183.994 7.01988 185.447 7.66949 186.348 8.84299C187.305 10.0933 187.563 11.7977 187.067 13.6488" fill="white"/>
<path fill-rule="evenodd" clip-rule="evenodd" d="M140.338 4.72171C138.48 2.30486 135.567 0.970703 132.13 0.970703C125.103 0.970703 117.852 6.67754 115.973 13.6906C115.017 17.274 115.554 20.6408 117.489 23.1694C119.347 25.5862 122.26 26.9204 125.697 26.9204C132.724 26.9204 139.974 21.2136 141.853 14.2005C142.81 10.6171 142.272 7.25032 140.338 4.72171ZM135.825 13.6976C134.77 17.6302 130.726 20.8224 126.814 20.8224C125.075 20.8224 123.622 20.1728 122.721 18.9993C121.764 17.7489 121.506 16.0446 122.002 14.1935C123.056 10.2609 127.101 7.06871 131.012 7.06871C132.745 7.06871 134.205 7.71832 135.106 8.89182C136.063 10.1422 136.314 11.8465 135.825 13.6976Z" fill="white"/>
<path d="M186.125 39.4927C186.125 39.4927 186.747 37.2714 186.258 36.2097C185.95 35.616 185.231 35.2108 184.372 35.141C183.673 35.0851 182.604 35.2248 181.452 36.2097C180.739 36.8104 180.139 37.8023 179.81 38.9199C179.489 40.0026 179.482 41.0085 179.782 41.6162C180.16 42.3566 180.998 42.7967 182.025 42.7967C183.051 42.7967 184.043 42.3985 184.728 41.7349C185.301 41.232 185.866 40.1074 185.866 40.1074H184.434C184.434 40.1074 183.471 41.5463 182.276 41.5463C181.557 41.5463 181.284 41.1621 181.11 40.7849C180.935 40.289 181.123 39.4857 181.123 39.4857H186.125V39.4927ZM182.458 36.9152L182.472 36.9012C182.884 36.4961 183.464 36.2865 184.022 36.3424C184.546 36.3913 184.798 36.6707 184.916 36.8593C185.042 37.0479 185.147 37.6905 184.993 38.2424C184.581 38.2424 182.849 38.2424 181.536 38.2424C181.382 38.2424 182.269 37.0479 182.451 36.9152M112.146 39.3111C112.146 39.3111 112.767 37.1806 112.278 36.1678C111.971 35.602 111.251 35.2108 110.392 35.148C109.694 35.0921 108.625 35.2318 107.472 36.1748C106.76 36.7545 106.159 37.7045 105.831 38.7732C105.51 39.807 105.503 40.778 105.803 41.3577C106.18 42.0702 107.018 42.4893 108.045 42.4893C109.072 42.4893 110.064 42.1121 110.748 41.4695C111.321 40.9875 111.887 39.9048 111.887 39.9048H110.455C110.455 39.9048 109.491 41.2809 108.297 41.2809C107.577 41.2809 107.305 40.9107 107.13 40.5475C106.956 40.0725 107.144 39.3041 107.144 39.3041H112.146V39.3111ZM108.478 36.8384L108.492 36.8244C108.904 36.4332 109.484 36.2376 110.05 36.2865C110.574 36.3354 110.825 36.6009 110.944 36.7825C111.07 36.9641 111.175 37.5788 111.021 38.1097C110.609 38.1097 108.876 38.1097 107.563 38.1097C107.41 38.1097 108.297 36.9641 108.478 36.8384ZM129.07 35.4274C128.728 35.2388 128.246 35.134 127.701 35.134C127.198 35.134 126.716 35.2318 126.381 35.3994C126.081 35.5461 125.557 35.8884 125.557 35.8954L125.564 35.8744L125.718 35.3156H124.453L121.687 44.7874L121.631 44.969H123.035L123.063 44.8643L123.978 41.7489C124.062 41.8607 124.167 41.9724 124.3 42.0702C124.432 42.168 124.928 42.5033 125.759 42.5033C126.591 42.5033 127.366 42.2029 128.113 41.6162C128.98 40.9526 129.706 39.7092 129.951 38.438C130.244 37.0339 129.909 35.9093 129.056 35.4344M127.373 40.5335C126.968 40.9247 126.416 41.1482 125.857 41.1342C125.375 41.1202 124.977 40.9107 124.81 40.5894C124.586 40.1214 124.558 38.4449 125.794 37.0828C126.151 36.6987 126.689 36.4542 127.226 36.4123C127.757 36.3773 128.176 36.5729 128.344 36.9292C128.84 37.9979 128.113 39.821 127.373 40.5335ZM151.039 35.3296C151.039 35.3296 150.934 35.6928 150.864 35.9722C150.508 35.4413 149.97 35.1549 149.25 35.134C148.126 35.0991 146.952 35.9443 146.631 36.2446C145.891 36.992 145.332 38.1795 144.996 39.3111C144.424 41.2669 145.611 42.7617 146.875 42.7897C147.784 42.8036 148.566 42.3636 149.167 41.9165C148.978 42.3496 148.789 43.4882 147.693 43.9143C147.385 44.033 147.05 44.0819 146.708 44.0819C146.414 44.0819 146.17 44.0191 145.967 43.9422C145.332 43.6977 145.576 42.9713 145.576 42.9713H144.186C144.186 42.9713 143.676 44.529 145.164 45.1367C145.569 45.3043 146.079 45.437 146.722 45.3462C149.25 45.1856 150.026 43.4672 150.773 41.218L152.436 35.3296H151.032H151.039ZM148.88 40.9596C148.433 41.3298 147.909 41.5114 147.455 41.4625C146.987 41.4346 146.638 41.2041 146.463 40.8059C146.296 40.3938 146.331 39.7791 146.554 39.0666C146.757 38.438 147.078 37.8512 147.295 37.5718C147.888 36.7825 148.559 36.6288 149.02 36.6358C149.551 36.6498 149.928 36.9012 149.97 37.006V37.02L149.984 37.0339C150.487 37.7744 149.97 40.0515 148.873 40.9666M162.396 35.9722C161.873 35.2807 161.013 35.134 160.385 35.134C159.421 35.134 157.074 35.5042 156.11 38.9129C155.733 40.2611 155.795 41.2809 156.298 41.9515C156.711 42.4893 157.423 42.7897 158.31 42.7897C159.274 42.7897 161.628 42.4195 162.592 38.9968C162.969 37.6556 162.906 36.6358 162.403 35.9722M161.181 38.9129C160.846 40.1074 159.896 41.3927 158.617 41.3927C158.191 41.3927 157.87 41.253 157.661 40.9805C157.283 40.4776 157.339 39.6254 157.514 38.9968C157.849 37.8093 158.792 36.531 160.07 36.531C160.503 36.531 160.825 36.6707 161.034 36.9431C161.412 37.4391 161.349 38.2843 161.174 38.9129M96.1496 40.8967C96.1356 40.9456 96.1286 41.0155 96.1496 41.0504C96.1845 41.0923 96.3382 41.1761 96.9669 41.0713L97.1974 41.0294L96.8341 42.3706C96.8341 42.3706 95.94 42.5103 95.486 42.4684C95.0809 42.4265 94.8713 42.2169 94.7665 42.0562C94.5989 41.7978 94.5849 41.4695 94.6408 41.2599L96.0588 36.0211H95.1018L95.472 34.652H96.415L96.9529 32.7102H98.3569L97.84 34.652H98.9227L98.5525 36.0211H97.4698L96.1566 40.8897L96.1496 40.8967ZM105.188 37.1806V37.1667L103.687 42.4893H102.283C102.283 42.4893 103.659 37.6207 103.659 37.6137C103.931 36.8104 103.617 36.6498 103.498 36.5939C103.142 36.4123 102.827 36.3634 102.478 36.4262C102.157 36.4821 101.787 36.6567 101.291 36.985C101.004 37.2086 100.795 37.3762 100.634 37.928L99.3418 42.4893H97.9378L100.711 32.6613H102.115L101.193 35.9303C101.193 35.9303 101.556 35.595 102.296 35.3226C102.674 35.1969 103.009 35.134 103.323 35.134C103.721 35.134 104.099 35.2178 104.42 35.3785C104.755 35.5112 104.993 35.7347 105.132 36.049C105.328 36.5031 105.244 37.013 105.174 37.1806M122.456 35.8046C122.756 36.1957 122.819 36.7476 122.63 37.4321L122.602 37.5439H121.219C121.219 37.5439 121.373 36.9222 121.247 36.7545C121.093 36.552 120.723 36.4472 120.157 36.4472C119.529 36.4472 118.977 36.7964 118.739 37.1178C118.614 37.2924 118.558 37.467 118.586 37.6137C118.607 37.7115 118.663 37.7883 118.76 37.8442C119.047 38.0328 119.501 38.1516 120.081 38.3052C120.081 38.3052 120.178 38.3332 120.164 38.3262C120.66 38.41 121.226 38.5427 121.659 38.871C122.183 39.2412 122.309 39.9607 121.974 40.743C121.652 41.5044 120.989 42.154 120.199 42.4684C119.815 42.622 119.34 42.7198 118.809 42.7687C118.348 42.7687 117.866 42.7687 117.482 42.6709C116.944 42.5382 116.56 42.2798 116.344 41.9096C116.099 41.4904 116.071 40.9456 116.267 40.2541L116.295 40.1423H117.629L117.587 40.3239C117.454 40.9177 117.678 41.2739 118.299 41.4835C118.509 41.5533 118.851 41.5533 119.18 41.5533C119.522 41.4695 119.878 41.3787 120.074 41.2599C120.353 41.0923 120.597 40.7849 120.674 40.5125C120.765 40.1772 120.639 39.9537 120.283 39.821L119.703 39.6743C119.019 39.5067 118.306 39.332 117.901 39.1155C117.433 38.9199 116.958 38.4449 117.294 37.2714C117.713 35.7906 119.27 35.113 120.542 35.113C121.471 35.113 122.113 35.3366 122.456 35.7836M134.03 36.7266C133.178 37.1038 132.668 37.6975 132.353 38.8151L131.313 42.4893H129.909L131.934 35.3296H133.338L133.15 36.0071C133.15 36.0071 133.757 35.1829 134.784 35.134H135.595L135.182 36.5799C135.182 36.5799 134.791 36.3913 134.037 36.7266M137.844 35.3296L135.818 42.4893H134.414L136.44 35.3296H137.844ZM138.13 34.3167H136.726L137.194 32.6613H138.598L138.13 34.3167ZM144.675 37.027V37.0409V37.0479L143.138 42.4893H141.734L143.138 37.5299C143.236 37.2016 143.215 36.9292 143.076 36.7406C142.929 36.538 142.643 36.4262 142.279 36.4262C141.853 36.4262 140.435 36.5939 139.855 38.7383L138.794 42.4963H137.39L139.408 35.3366H140.812L140.666 35.8604L141.287 35.4763C141.79 35.1619 142.461 35.134 142.817 35.141C143.278 35.1549 143.76 35.2388 143.963 35.3505C144.249 35.5321 144.836 35.9093 144.682 37.0409M168.18 32.6752L168.334 32.7102L167.998 33.8976L167.873 33.8837C167.23 33.8068 166.895 33.8837 166.713 34.5053L166.483 35.3226H167.579L167.209 36.6218H166.112L164.457 42.4753H163.053L164.701 36.6218H163.779L164.15 35.3156H165.079L165.372 34.2609C165.686 33.1362 166.762 32.6752 167.014 32.6543C167.405 32.5844 167.782 32.5844 168.18 32.6682M174.173 32.8499L171.484 42.3776L171.456 42.4823H170.052L170.108 42.2937L172.797 32.766L172.825 32.6613H174.229L174.173 32.8499ZM176.304 35.5182L174.362 42.3776L174.334 42.4823H172.93L172.986 42.2937L174.928 35.4344L174.956 35.3296H176.36L176.304 35.5182ZM175.431 34.3167H175.235L175.291 34.1281L175.675 32.766L175.703 32.6613H177.107L177.051 32.8499L176.667 34.212L176.639 34.3237H175.431V34.3167ZM181.417 32.7381L181.082 33.9256L180.956 33.9116C180.313 33.8348 179.978 33.9116 179.796 34.5333L179.573 35.3226H180.669L180.299 36.6218H179.203L177.547 42.4753H176.143L177.792 36.6218H176.87L177.24 35.3156H178.169L178.455 34.2888C178.776 33.1642 179.845 32.7032 180.097 32.6822C180.488 32.6124 180.865 32.6124 181.256 32.6962L181.417 32.7311V32.7381Z" fill="white"/>
</g>
<defs>
<clipPath id="clip0_1106_5324">
<rect width="198" height="45.3823" fill="white"/>
</clipPath>
</defs>
</svg>
