<svg width="28" height="28" viewBox="0 0 28 28" fill="none" xmlns="http://www.w3.org/2000/svg">
<path d="M10.2784 5.07199C9.32188 5.11712 8.66849 5.27031 8.09763 5.49398C7.50662 5.7243 7.0057 6.0332 6.5073 6.53358C6.00835 7.03432 5.70197 7.53614 5.47327 8.12769C5.25194 8.69999 5.1018 9.35374 5.05973 10.3108C5.01766 11.2699 5.00813 11.5757 5.0128 14.017C5.01748 16.458 5.02826 16.7644 5.07393 17.7236C5.1196 18.68 5.27225 19.333 5.49592 19.9042C5.72661 20.4952 6.03514 20.996 6.53571 21.4945C7.03609 21.9931 7.53827 22.2993 8.13017 22.5282C8.70193 22.7494 9.35586 22.8999 10.3128 22.9417C11.2716 22.984 11.5778 22.9933 14.0184 22.9887C16.4601 22.984 16.7663 22.9732 17.7252 22.9277C18.6817 22.8821 19.3344 22.7289 19.906 22.5057C20.497 22.2745 20.9979 21.9665 21.4963 21.4659C21.9947 20.9656 22.3011 20.4634 22.5298 19.8715C22.7511 19.2997 22.9018 18.6458 22.9433 17.6894C22.9852 16.73 22.9951 16.4235 22.9904 13.9827C22.9858 11.5415 22.9748 11.2357 22.9293 10.277C22.8838 9.31994 22.7306 8.66708 22.5073 8.09568C22.2763 7.50468 21.9681 7.0043 21.4677 6.50535C20.9673 6.00695 20.4651 5.70003 19.8732 5.47186C19.3011 5.25053 18.6476 5.09968 17.6907 5.05832C16.732 5.01553 16.4259 5.00618 13.9844 5.01086C11.5435 5.01553 11.2375 5.02596 10.2786 5.07199M10.3834 21.3237C9.5069 21.2856 9.03097 21.14 8.7138 21.0179C8.29379 20.8553 7.99406 20.6604 7.67851 20.3474C7.36368 20.0331 7.16824 19.7343 7.00426 19.3152C6.8811 18.998 6.73277 18.5226 6.69177 17.6461C6.64718 16.6986 6.63693 16.4143 6.63262 14.0138C6.62794 11.614 6.63675 11.3296 6.67811 10.3813C6.71568 9.50549 6.86222 9.02884 6.98395 8.71203C7.14649 8.29148 7.34067 7.9923 7.65442 7.67675C7.96871 7.36138 8.26754 7.16648 8.68701 7.0025C9.004 6.87862 9.47921 6.73154 10.3554 6.69001C11.3035 6.64506 11.5875 6.63553 13.9873 6.63085C16.3877 6.62618 16.6721 6.63463 17.6204 6.67634C18.4962 6.71446 18.9728 6.85956 19.2894 6.98218C19.7098 7.14472 20.0095 7.33836 20.3247 7.65265C20.6399 7.96694 20.8354 8.26523 20.9993 8.6856C21.123 9.00169 21.2703 9.47762 21.3116 10.3534C21.3568 11.3015 21.367 11.5858 21.3713 13.9857C21.376 16.3862 21.3672 16.6705 21.3257 17.6182C21.2876 18.4948 21.1421 18.9709 21.0198 19.2884C20.8573 19.708 20.6629 20.0078 20.349 20.3233C20.0351 20.6376 19.7362 20.8336 19.3164 20.9976C19.0001 21.1211 18.5242 21.2685 17.6486 21.3101C16.7005 21.3547 16.4164 21.3649 14.0157 21.3692C11.6159 21.3739 11.3319 21.3649 10.3836 21.3237M17.7121 9.19426C17.7131 9.78957 18.1973 10.2716 18.7927 10.2705C19.3883 10.2695 19.8704 9.78562 19.8695 9.19012C19.8682 8.5948 19.3842 8.1124 18.7885 8.11348C18.1928 8.11456 17.7108 8.59876 17.7119 9.19408M9.38571 14.0086C9.39057 16.5581 11.4613 18.6204 14.0103 18.6154C16.5595 18.6104 18.6229 16.5403 18.6181 13.9908C18.613 11.4421 16.5421 9.37873 13.9925 9.38359C11.4435 9.38862 9.38068 11.4596 9.38571 14.0086ZM11.005 14.0053C11.0021 12.3506 12.3414 11.0063 13.9958 11.0034C15.6505 11.0002 16.995 12.339 16.9983 13.994C17.0015 15.6491 15.6622 16.9931 14.0071 16.9963C12.3526 16.9995 11.008 15.6606 11.005 14.0055" fill="url(#paint0_linear_4051_7288)"/>
<defs>
<linearGradient id="paint0_linear_4051_7288" x1="0.501953" y1="22.9898" x2="-12.998" y2="22.9898" gradientUnits="userSpaceOnUse">
<stop stop-color="white"/>
<stop offset="1" stop-color="#4064DF"/>
</linearGradient>
</defs>
</svg>
