<svg width="148" height="148" viewBox="0 0 148 148" fill="none" xmlns="http://www.w3.org/2000/svg">
<path d="M22.8896 126.18C54.6089 104.464 94.4638 93.2306 144.064 94.541C135.191 124.847 107.164 147 73.957 147C54.0797 147 36.0648 139.054 22.8896 126.18ZM7.48535 104.26C48.2119 90.727 94.0257 83.6103 146.228 84.5576C146.053 85.7704 145.849 86.9753 145.615 88.1689C89.0673 86.1226 47.6885 96.9028 11.7939 112.313C10.1978 109.731 8.75601 107.045 7.48535 104.26ZM146.905 77.8555C146.886 78.2187 146.867 78.581 146.843 78.9434C87.9605 78.4165 41.6934 83.372 3.08398 91.6611C2.07852 87.6306 1.4112 83.4736 1.1084 79.208L146.905 77.8555ZM3.25781 55.6094C46.0969 65.2438 93.5948 70.3978 146.901 70.0068C146.932 70.5915 146.954 71.1784 146.972 71.7695L1.05371 69.5049C1.34246 64.7369 2.09306 60.0923 3.25781 55.6094ZM12.3535 34.7529C42.3627 51.7689 86.8469 60.4061 145.79 60.8672C145.966 61.8046 146.12 62.6888 146.256 63.6084C95.6772 64.2382 49.494 57.5963 6.95215 44.8857C8.48686 41.3589 10.3005 37.975 12.3535 34.7529ZM73.957 1C107.584 1 135.907 23.7122 144.393 54.6123C95.5367 55.3079 54.5195 44.8178 20.6348 24.1133C33.9697 9.89179 52.9294 1.00005 73.957 1Z" fill="url(#paint0_linear_1400_7716)" fill-opacity="0.1" stroke="url(#paint1_linear_1400_7716)" stroke-width="2"/>
<defs>
<linearGradient id="paint0_linear_1400_7716" x1="-113.284" y1="131.101" x2="-6.47996" y2="98.3563" gradientUnits="userSpaceOnUse">
<stop stop-color="#999999" stop-opacity="0.2"/>
<stop offset="0.447115" stop-color="#999999" stop-opacity="0.4"/>
<stop offset="1" stop-color="#999999" stop-opacity="0.2"/>
</linearGradient>
<linearGradient id="paint1_linear_1400_7716" x1="-113.284" y1="131.101" x2="-6.47996" y2="98.3563" gradientUnits="userSpaceOnUse">
<stop stop-color="#999999" stop-opacity="0.2"/>
<stop offset="0.447115" stop-color="#999999" stop-opacity="0.4"/>
<stop offset="1" stop-color="#999999" stop-opacity="0.2"/>
</linearGradient>
</defs>
</svg>
