<svg width="37" height="16" viewBox="0 0 37 16" fill="none" xmlns="http://www.w3.org/2000/svg">
<path d="M1.09797 4.20524C1.37817 4.18738 1.64048 4.05838 1.81734 3.85001C2.80696 2.69897 4.05293 2.06392 5.3307 2.06392C6.60847 2.06392 7.9538 2.73866 8.95733 3.96114C10.3245 5.64205 12.1647 6.56883 14.134 6.56883C16.1033 6.56883 17.8421 5.67975 19.2053 4.06831C20.2049 2.90338 21.4528 2.26238 22.7187 2.26238C24.0461 2.26238 25.3279 2.94307 26.3274 4.18143C27.7006 5.84844 29.5387 6.76728 31.5021 6.76728C33.4654 6.76728 35.1943 5.87424 36.5515 4.2489C36.9231 3.8381 36.8834 3.19114 36.4621 2.80217C36.2574 2.61364 35.9872 2.52037 35.707 2.5422C35.4407 2.56204 35.1903 2.68508 34.9936 2.89743C34.0238 4.04846 32.7778 4.68153 31.4822 4.68153C30.117 4.68153 28.877 4.04648 27.8973 2.84583C26.5102 1.12523 24.6641 0.176624 22.6988 0.176624C20.7335 0.176624 19.0046 1.07165 17.6255 2.69897C16.6557 3.85001 15.4098 4.48307 14.1141 4.48307C12.735 4.48307 11.495 3.84802 10.5252 2.64341C9.11233 0.938687 7.26027 0 5.31083 0C3.36139 0 1.62259 0.887089 0.237515 2.5025C-0.122167 2.9272 -0.0645384 3.59202 0.350786 3.94328C0.55348 4.12983 0.819764 4.2231 1.09797 4.20524Z" fill="#4064DF"/>
<path d="M35.0115 11.6314C34.0417 12.7824 32.7957 13.4155 31.5001 13.4155C30.1349 13.4155 28.8949 12.7804 27.9152 11.5798C26.5281 9.85919 24.682 8.91058 22.7167 8.91058C20.7513 8.91058 19.0225 9.80561 17.6434 11.4329C16.6736 12.584 15.4276 13.217 14.132 13.217C12.7529 13.217 11.5129 12.582 10.5431 11.3774C9.13022 9.67265 7.27815 8.73197 5.32871 8.73197C3.37927 8.73197 1.64246 9.61906 0.267323 11.2206C0.0805269 11.421 -0.0108841 11.687 0.00501345 11.9668C0.0228982 12.2466 0.152066 12.5086 0.348798 12.6753C0.549505 12.8618 0.817777 12.9551 1.09598 12.9372C1.37618 12.9194 1.63849 12.7904 1.81535 12.582C2.80497 11.4309 4.05293 10.7959 5.32871 10.7959C6.60449 10.7959 7.95181 11.4706 8.95534 12.6931C10.3225 14.374 12.1627 15.3008 14.132 15.3008C16.1013 15.3008 17.8401 14.4117 19.2033 12.8003C20.2029 11.6354 21.4508 10.9944 22.7167 10.9944C23.9825 10.9944 25.3239 11.675 26.3254 12.9134C27.6986 14.5804 29.5367 15.4993 31.5001 15.4993C33.4634 15.4993 35.1943 14.6042 36.5615 12.9908C36.941 12.58 36.9033 11.9291 36.48 11.5361C36.0686 11.1571 35.4168 11.1948 35.0115 11.6314Z" fill="#4064DF"/>
</svg>
