<svg width="41" height="52" viewBox="0 0 41 52" fill="none" xmlns="http://www.w3.org/2000/svg">
<path d="M10.1646 51.5914C7.02794 51.5914 3.91697 50.7329 0.967423 49.005C0.0355997 48.4584 -0.276231 47.2624 0.266721 46.3306C0.809673 45.3988 2.0093 45.0833 2.94113 45.6299C9.24377 49.3168 14.8714 47.3651 18.4776 45.0796C25.9469 40.3471 31.0096 30.2511 30.2538 21.5896C29.8466 16.9378 27.5941 10.6645 19.1783 7.20502C18.1805 6.79414 17.7036 5.6532 18.1144 4.65535C18.5253 3.65749 19.6663 3.18057 20.6641 3.59145C28.647 6.87485 33.4345 13.1445 34.1462 21.2484C35.0377 31.4251 29.3257 42.8344 20.5687 48.3813C17.1936 50.5165 13.6644 51.5877 10.1646 51.5877V51.5914ZM11.2322 44.3349C8.6678 44.3349 6.10346 43.5681 3.67485 42.042C2.76137 41.466 2.48622 40.2591 3.06219 39.3456C3.63816 38.4321 4.84513 38.157 5.75861 38.7329C9.97382 41.389 13.6388 40.4242 15.972 39.1512C20.7925 36.5208 24.3327 30.3429 24.3877 24.4621C24.4171 21.3695 23.4816 17.1249 18.8592 14.4835C17.9237 13.9479 17.5972 12.7556 18.1328 11.8164C18.6684 10.8773 19.8607 10.5545 20.7999 11.0901C25.6901 13.8819 28.3535 18.6437 28.2985 24.4988C28.2288 31.825 23.9292 39.2612 17.8466 42.5813C15.7042 43.7516 13.47 44.3312 11.2322 44.3312V44.3349ZM33.2474 42.6547C32.8695 42.6547 32.4917 42.5446 32.1542 42.3172C31.259 41.7118 31.0242 40.4975 31.6295 39.6024C36.4427 32.4853 41.6668 14.3001 27.0842 3.52175C26.2147 2.87975 26.0313 1.6581 26.6733 0.788646C27.3153 -0.0808114 28.5369 -0.264241 29.4064 0.377763C44.7998 11.7504 41.8686 31.4434 34.8689 41.7889C34.4911 42.3465 33.8747 42.6473 33.2474 42.6473V42.6547Z" fill="#ED1C24"/>
</svg>
