<svg width="45" height="45" viewBox="0 0 45 45" fill="none" xmlns="http://www.w3.org/2000/svg">
<path fill-rule="evenodd" clip-rule="evenodd" d="M35.6012 36.2597H39.9682C42.7388 36.2597 44.9938 34.0047 44.9938 31.2341V21.5309C44.9938 18.9094 43.0246 16.7539 40.4155 16.524L40.1422 16.4992V16.2196C39.8937 7.12521 32.5697 4.1827e-06 23.4691 4.1827e-06H21.5309C12.6788 -0.00620785 5.3672 6.90779 4.87645 15.7351L4.86403 16.0022L4.59691 16.0271C2.01891 16.2445 0 18.4498 0 21.0402V30.7434C0 33.5636 2.31709 35.7689 5.26781 35.7689H5.57841V39.962C5.57841 40.8628 6.31143 41.5896 7.20596 41.5896H17.4682V41.9002C17.4682 43.6023 18.8535 44.9876 20.5556 44.9876H23.7113C26.3515 44.9876 28.4946 42.8382 28.4946 40.2043C28.4946 37.5704 26.3452 35.421 23.7113 35.421H20.5556C18.8535 35.421 17.4682 36.8063 17.4682 38.5084V39.3036H7.87065V35.7689H9.3926C11.0947 35.7689 12.48 34.3836 12.48 32.6815V17.636C12.48 12.1135 16.9713 7.62217 22.4938 7.62217C28.0163 7.62217 32.5076 12.1135 32.5076 17.636V33.1661C32.5076 34.8682 33.8929 36.2535 35.595 36.2535L35.6012 36.2597ZM19.7605 38.5084C19.7605 38.0674 20.1146 37.7133 20.5556 37.7133H23.7113C25.0842 37.7133 26.2086 38.8314 26.2086 40.2105C26.2086 41.5896 25.0904 42.7078 23.7113 42.7078H20.5556C20.1146 42.7078 19.7605 42.3475 19.7605 41.9126V38.5146V38.5084ZM42.7078 21.5247V31.2279C42.7078 32.7374 41.4778 33.9674 39.9682 33.9674H35.6012C35.1601 33.9674 34.806 33.6071 34.806 33.1723V19.5803C34.806 19.1393 35.1663 18.7852 35.6012 18.7852H39.9682C41.4778 18.7852 42.7078 20.0152 42.7078 21.5247ZM10.194 32.6815C10.194 33.1226 9.83987 33.4767 9.39881 33.4767H5.03175C3.52223 33.4767 2.29224 32.2467 2.29224 30.7372V21.0278C2.29224 19.5182 3.52223 18.2882 5.03175 18.2882H9.39881C9.83987 18.2882 10.194 18.6423 10.194 19.0834V32.6753V32.6815ZM22.5 5.32993C16.4557 5.32993 11.2189 9.83366 10.3306 15.7972L10.2809 16.114L9.96411 16.0519C9.77775 16.0146 9.59139 16.0022 9.39881 16.0022H7.15627L7.18112 15.673C7.6905 8.16262 13.9957 2.27982 21.5309 2.27982H23.4753C31.2714 2.27982 37.589 8.38004 37.8499 16.1699L37.8624 16.493H35.6074C35.4397 16.493 35.2657 16.5054 35.0918 16.5364L34.7688 16.5861L34.7315 16.2631C34.0358 10.0324 28.7804 5.32993 22.5 5.32993Z" fill="#4064DF"/>
</svg>
