<svg width="44" height="23" viewBox="0 0 44 23" fill="none" xmlns="http://www.w3.org/2000/svg">
<path d="M42.1967 0H1.80328C0.807869 0 0 0.796464 0 1.77782C0 2.75918 0.807869 3.55565 1.80328 3.55565H42.1967C43.1921 3.55565 44 2.75918 44 1.77782C44 0.796464 43.1921 0 42.1967 0Z" fill="#4064DF"/>
<path d="M27.7705 12.8003C28.7664 12.8003 29.5738 12.0044 29.5738 11.0225C29.5738 10.0406 28.7664 9.24468 27.7705 9.24468C26.7746 9.24468 25.9672 10.0406 25.9672 11.0225C25.9672 12.0044 26.7746 12.8003 27.7705 12.8003Z" fill="#4064DF"/>
<path d="M16.2295 12.8003C17.2254 12.8003 18.0328 12.0044 18.0328 11.0225C18.0328 10.0406 17.2254 9.24468 16.2295 9.24468C15.2336 9.24468 14.4262 10.0406 14.4262 11.0225C14.4262 12.0044 15.2336 12.8003 16.2295 12.8003Z" fill="#4064DF"/>
<path d="M33.541 22.045C34.5369 22.045 35.3443 21.249 35.3443 20.2672C35.3443 19.2853 34.5369 18.4894 33.541 18.4894C32.5451 18.4894 31.7377 19.2853 31.7377 20.2672C31.7377 21.249 32.5451 22.045 33.541 22.045Z" fill="#4064DF"/>
<path d="M10.459 22.045C11.4549 22.045 12.2623 21.249 12.2623 20.2672C12.2623 19.2853 11.4549 18.4894 10.459 18.4894C9.46309 18.4894 8.65574 19.2853 8.65574 20.2672C8.65574 21.249 9.46309 22.045 10.459 22.045Z" fill="#4064DF"/>
<path d="M22 22.045C22.9959 22.045 23.8033 21.249 23.8033 20.2672C23.8033 19.2853 22.9959 18.4894 22 18.4894C21.0041 18.4894 20.1967 19.2853 20.1967 20.2672C20.1967 21.249 21.0041 22.045 22 22.045Z" fill="#4064DF"/>
</svg>
