<svg width="19" height="30" viewBox="0 0 19 30" fill="none" xmlns="http://www.w3.org/2000/svg">
<path d="M3.18608 30H15.0418C16.8 30 18.2278 28.5722 18.2278 26.8139V3.18608C18.2278 1.42785 16.8 0 15.0418 0H3.18608C1.42785 0 0 1.42785 0 3.18608V26.8139C0 28.5722 1.42785 30 3.18608 30ZM1.51899 3.18608C1.51899 2.26709 2.26709 1.51899 3.18608 1.51899H15.0418C15.9608 1.51899 16.7089 2.26709 16.7089 3.18608V26.8139C16.7089 27.7329 15.9608 28.481 15.0418 28.481H3.18608C2.26709 28.481 1.51899 27.7329 1.51899 26.8139V3.18608Z" fill="white"/>
<path d="M7.02532 4.17722H11.2025C11.6203 4.17722 11.962 3.83544 11.962 3.41772C11.962 3 11.6203 2.65823 11.2025 2.65823H7.02532C6.60759 2.65823 6.26582 3 6.26582 3.41772C6.26582 3.83544 6.60759 4.17722 7.02532 4.17722Z" fill="white"/>
<path d="M9.11392 24.8316C8.44557 24.8316 7.90253 25.3747 7.90253 26.043C7.90253 26.7114 8.44557 27.2544 9.11392 27.2544C9.78228 27.2544 10.3253 26.7114 10.3253 26.043C10.3253 25.3747 9.78228 24.8316 9.11392 24.8316Z" fill="white"/>
</svg>
