<svg width="74" height="80" viewBox="0 0 74 80" fill="none" xmlns="http://www.w3.org/2000/svg">
<path d="M18.9664 68.9826L15.8734 67.0014C-1.17197 55.0562 -5.01644 31.1875 7.69144 14.5406C22.2672 -4.55385 50.8074 -4.90902 65.8229 13.8689C79.0721 30.4385 75.5127 54.7928 58.245 66.9434L55.0361 68.9826H73.3041V69.6784H74V80H0V69.6784L0.700793 69.6543L0.753947 68.9826H18.9664ZM53.4726 68.9826H54.5455C54.6712 68.9826 56.4328 67.8736 56.6937 67.7069C77.6585 54.4328 79.4466 24.4345 60.3449 8.61873C44.4739 -4.52244 20.9188 -1.92031 8.24238 14.2144C-4.71197 30.7019 -1.21063 54.7783 15.9338 66.767C16.3373 67.0497 19.3023 68.9802 19.5197 68.9802H20.5926L17.4658 67.1488C-0.292377 55.6868 -4.5235 31.3881 8.53234 14.6203C22.6514 -3.51251 49.836 -4.05613 64.6655 13.5186C78.9899 30.4917 74.6718 56.2062 55.79 67.6706L53.4751 68.9802L53.4726 68.9826ZM52.5447 69.2145C52.5568 69.1275 52.6535 69.1058 52.7163 69.0671C53.2818 68.7289 53.9656 68.451 54.5552 68.1224C75.8292 56.2256 79.3113 27.0729 61.4178 10.4429C46.5859 -3.34097 23.1734 -1.98795 9.94596 13.2552C-4.79894 30.2477 -0.473575 56.4503 18.8891 67.7528L21.5737 69.2145H20.0078L21.2257 69.9104H0.985912V78.8983H73.0721V69.9104H52.8323L53.9921 69.2145H52.5423H52.5447ZM19.4593 69.2145H0.988331V69.6784H20.3002L19.4593 69.2145ZM73.0746 69.2145H54.5455L53.7626 69.6784H73.0746V69.2145ZM0.698374 69.9104H0.234384V79.7681H73.7705V69.9104H73.3065V79.1302H0.785332L0.698374 79.0432V69.9104Z" fill="#6E6E6E"/>
<path d="M41.978 21.9169C45.5374 21.5835 46.3469 26.8941 42.9204 27.6721C38.8512 28.595 37.9088 22.2987 41.978 21.9169Z" fill="#6E6E6E"/>
<path d="M37.5706 14.4923C40.1441 14.1806 41.867 17.005 40.3326 19.1094C38.9842 20.9577 36.0942 20.5688 35.2774 18.4353C34.6201 16.7175 35.7269 14.717 37.5706 14.4923Z" fill="#6E6E6E"/>
<path d="M26.6799 64.3437V67.388C26.6799 67.4363 26.8611 67.7987 26.9143 67.8494C27.0761 67.9992 27.3395 68.0113 27.5497 67.9968V68.2288H24.5341V67.9968C25.1672 68.0524 25.3629 67.7407 25.4064 67.1584C25.5828 64.7278 25.2735 62.0774 25.3992 59.6226C25.3339 59.1515 24.9884 58.934 24.5341 58.9485V58.719H28.8546C32.0153 58.719 32.7474 62.8191 30.0821 64.0054C29.8598 64.1045 29.1253 64.3437 28.9126 64.3437H26.6799ZM26.6799 64.1117H28.7966C28.932 64.1117 29.478 63.8605 29.6085 63.7638C30.5533 63.0583 30.5388 60.6132 29.8961 59.7096C29.3717 58.9751 28.033 58.7794 27.2139 58.992C26.9892 59.05 26.6823 59.3303 26.6823 59.5622V64.1142L26.6799 64.1117Z" fill="#6E6E6E"/>
<path d="M34.1491 7.53389C37.2565 7.17631 38.1143 11.849 35.0238 12.5835C31.52 13.4171 30.5776 7.94463 34.1491 7.53389Z" fill="#6E6E6E"/>
<path d="M30.901 18.6697C33.9505 18.4063 34.7165 22.8882 31.8096 23.6928C28.2115 24.6882 27.2063 18.9886 30.901 18.6697Z" fill="#6E6E6E"/>
<path d="M39.2644 58.487L39.1967 58.7963L33.7671 67.2237C33.5858 67.5426 33.494 67.9437 33.958 67.9968C35.2701 68.1466 36.8528 67.8833 38.1939 67.9968C38.6555 67.9413 38.8028 67.6006 38.8294 67.1826L39.0348 67.127V68.2868H31.7567C31.6817 68.2868 31.6309 68.0741 31.701 67.9992C33.2741 65.4768 35.0019 63.0414 36.5653 60.5117C36.8432 60.0648 37.7904 58.8471 36.7972 58.7238C36.0095 58.6272 34.0112 58.6393 33.2065 58.719C32.6459 58.7746 32.3728 59.0017 32.3608 59.584H32.1336V58.4846H39.2668L39.2644 58.487Z" fill="#6E6E6E"/>
<path d="M46.2089 29.1628C49.2584 28.7448 49.7055 33.3016 46.8251 33.606C43.8384 33.9201 43.418 29.547 46.2089 29.1628Z" fill="#6E6E6E"/>
<path d="M49.4037 35.8868C52.1729 35.8168 52.4194 39.9845 49.7903 40.2793C46.5958 40.6393 46.4436 35.9617 49.4037 35.8868Z" fill="#6E6E6E"/>
<path d="M31.9981 27.9983L42.0648 30.5521C42.5529 30.6028 42.2219 31.7432 42.0116 31.8665C41.9464 31.9051 41.8835 31.9365 41.8038 31.9172L31.783 29.3489C31.3166 29.2329 31.638 28.049 31.9981 27.9983Z" fill="#6E6E6E"/>
<path d="M33.8542 34.2028L44.1094 36.7977C44.5685 36.8557 44.2713 37.9357 44.0635 38.0347C43.9693 38.0782 43.8775 38.0927 43.776 38.0662L33.6971 35.4978C33.1873 35.3891 33.5111 34.2535 33.8542 34.2028Z" fill="#6E6E6E"/>
<path d="M44.5851 12.8686C47.1585 12.5159 47.9149 16.2536 45.4478 16.9229C42.5891 17.6984 41.7675 13.2552 44.5851 12.8686Z" fill="#6E6E6E"/>
<path d="M27.0738 25.2777C29.4926 25.0192 30.2635 28.5806 27.9316 29.3223C25.0102 30.2525 24.075 25.5967 27.0738 25.2777Z" fill="#6E6E6E"/>
<path d="M47.8331 43.1351C50.7158 42.6857 51.1315 46.8801 48.616 47.2232C45.6897 47.6218 45.3659 43.5217 47.8331 43.1351Z" fill="#6E6E6E"/>
<path d="M44.1213 43.9759C44.0416 44.0508 43.8797 44.0605 43.7734 44.0388L35.2 41.7652C35.055 41.5743 35.2265 40.3518 35.6808 40.4653L44.3122 42.7413C44.4959 42.9201 44.2373 43.8648 44.1213 43.9759Z" fill="#6E6E6E"/>
<path d="M28.4051 31.7722C31.2758 31.3832 31.3821 35.94 28.4486 35.6404C26.2279 35.4157 26.2158 32.067 28.4051 31.7722Z" fill="#6E6E6E"/>
<path d="M42.7293 47.3102C44.4836 47.0347 45.7546 48.9676 44.6576 50.3979C43.2875 52.1834 40.528 50.6661 41.2843 48.5327C41.48 47.977 42.1397 47.4044 42.7293 47.3102Z" fill="#6E6E6E"/>
<path d="M36.0024 50.1539C38.3391 49.8688 38.7837 53.5244 36.4447 53.7853C34.0041 54.0559 33.6223 50.4438 36.0024 50.1539Z" fill="#6E6E6E"/>
<path d="M30.9569 38.2087C33.8107 37.7907 33.8566 42.1276 31.0052 41.7821C29.0649 41.5478 29.0262 38.4914 30.9569 38.2087Z" fill="#6E6E6E"/>
<path d="M66.2312 72.7227C66.2699 72.5971 66.7435 72.5971 66.8402 72.6937L68.29 75.7694L69.6601 72.6454C69.8462 72.643 70.0999 72.5753 70.2328 72.7251V76.7842C70.083 76.9557 69.8389 76.8542 69.6528 76.8132V73.9718L68.4543 76.4556C68.2997 76.4676 68.0773 76.5232 67.9759 76.3734L66.8111 73.9138V76.7842C66.6613 76.9557 66.4173 76.8542 66.2312 76.8132V72.7227Z" fill="#6E6E6E"/>
<path d="M55.8508 14.5913L58.3058 13.2045C58.4194 13.3132 58.649 13.4533 58.6248 13.62L57.4722 16.099L60.065 14.4246C60.2849 14.4536 60.5386 14.6759 60.3428 14.8837C60.1471 15.0915 59.2676 15.5988 58.9752 15.7752C58.4001 16.1207 57.8105 16.4396 57.2015 16.7247C57.0686 16.7368 56.7569 16.4807 56.7835 16.3164L57.8757 14.0115L55.6284 15.2799C54.8818 15.106 55.2757 14.572 55.4883 14.0888C55.8774 13.1996 56.3751 12.3468 56.8657 11.5156C56.9672 11.5084 57.3006 11.7741 57.2885 11.8853C56.7618 12.7599 56.2036 13.6321 55.8484 14.5913H55.8508Z" fill="#6E6E6E"/>
<path d="M9.04002 36.1743C9.05452 36.3169 9.14148 36.6503 9.01099 36.7494L6.49795 37.5274L9.05205 38.3392C9.13904 38.4117 9.13907 38.7958 9.08108 38.8925C8.96026 39.0906 5.61353 40.0836 5.45405 39.97C5.36948 39.871 5.36223 39.5061 5.45405 39.4409C5.52413 39.3902 6.89907 39.1196 7.15037 39.0495L8.47214 38.6025L5.71504 37.7931L5.74643 37.2978L8.35616 36.4015L5.33807 35.6791C5.22933 35.4399 5.20276 35.1644 5.53381 35.1886C5.86486 35.2127 6.46166 35.3891 6.81446 35.4785C7.57079 35.6694 8.30543 35.9279 9.04244 36.1792L9.04002 36.1743Z" fill="#6E6E6E"/>
<path d="M13.6747 72.5367C16.5261 72.1501 16.8788 76.7189 14.1241 76.9267C11.3694 77.1345 11.0457 72.8943 13.6747 72.5367ZM13.8535 73.0562C11.9566 73.1528 12.0001 76.4097 13.9501 76.4097C15.9002 76.4097 15.9558 72.9498 13.8535 73.0562Z" fill="#6E6E6E"/>
<path d="M17.8527 72.5971C18.2925 72.5584 18.7709 72.5608 19.201 72.6647C21.5522 73.2349 21.2623 76.6609 18.8241 76.8736C18.5752 76.8953 17.3646 76.9291 17.2921 76.7189L17.2849 72.7831C17.3018 72.5995 17.6763 72.614 17.8527 72.5971ZM17.8648 76.3469H18.9377C18.9594 76.3469 19.3195 76.2261 19.3727 76.2019C20.1242 75.8661 20.3102 74.9552 20.1435 74.2134C19.9212 73.2228 18.7274 72.9957 17.8648 73.1576V76.3469Z" fill="#6E6E6E"/>
<path d="M43.0338 63.8798V67.3879C43.0338 67.5184 43.2029 67.8277 43.3262 67.9074C43.5243 68.033 44.2178 67.9678 43.7587 68.2867L40.9267 68.2771L40.8566 68.2312V68.0524C41.0258 67.9533 41.1828 68.0282 41.3737 67.9316C41.4631 67.8857 41.6999 67.574 41.6999 67.5039V63.9667L41.7869 63.8798H43.0338Z" fill="#6E6E6E"/>
<path d="M49.1231 63.8798V67.214C49.1231 67.2381 49.2077 67.5933 49.2246 67.6344C49.4082 68.0789 50.01 67.9557 50.051 68.0838C50.08 68.1442 50.0099 68.2867 49.964 68.2867H46.9774V67.9968C47.1876 68.0113 47.451 67.9968 47.6129 67.8494C47.6854 67.7818 47.8472 67.4097 47.8472 67.33V63.8798H49.1231Z" fill="#6E6E6E"/>
<path d="M7.94771 72.7807C8.01778 72.5657 9.43862 72.5633 9.68993 72.6043C11.1156 72.829 11.1543 74.5131 9.97988 75.1074L10.9634 76.8132C10.758 76.8108 10.526 76.9509 10.3423 76.7963C10.1031 76.5957 9.60053 75.3973 9.39755 75.2765L8.52762 75.1896V76.7842C8.37781 76.9557 8.13377 76.8543 7.94771 76.8132V72.7807ZM8.52762 74.6653C9.34437 74.7184 10.323 74.8416 10.2119 73.7037C10.1394 72.9619 9.06406 73.0489 8.52762 73.1576V74.6653Z" fill="#6E6E6E"/>
<path d="M43.9038 58.487V58.719C43.5728 58.6199 43.034 59.0017 43.034 59.3278V62.5461H41.7001V59.2699C41.7001 58.934 41.1467 58.632 40.8302 58.719V58.487H43.9038Z" fill="#6E6E6E"/>
<path d="M47.8477 62.5461V59.4438C47.8477 59.3834 47.7051 59.0137 47.6495 58.9461C47.5021 58.7721 47.1977 58.7093 46.9802 58.7166V58.487H49.9669L49.9959 58.69C49.7808 58.7431 49.5222 58.7456 49.3555 58.9195C49.2733 59.0065 49.1259 59.3979 49.1259 59.5018V62.5461H47.8477Z" fill="#6E6E6E"/>
<path d="M27.4336 72.6357V74.6072C27.8033 74.3173 28.1851 74.025 28.5065 73.6795C28.6877 73.4862 29.142 72.771 29.2556 72.6889C29.4175 72.5729 29.7268 72.6599 29.9274 72.6357C29.9419 72.742 29.8525 72.8048 29.7993 72.8846C29.3813 73.5176 28.8424 74.0515 28.3036 74.5782L30.1014 76.7817C29.8645 76.8421 29.5915 76.9267 29.374 76.7552L27.9484 74.9648C27.8517 74.8972 27.4336 75.2451 27.4336 75.2765V76.7841C27.2838 76.9557 27.0398 76.8542 26.8537 76.8131V72.6381H27.4336V72.6357Z" fill="#6E6E6E"/>
<path d="M53.1829 73.1576H51.0951V74.4333H52.9509C52.934 74.6072 53.0161 74.8319 52.8639 74.9552H51.0951V76.2889H53.1538C53.3061 76.4121 53.2239 76.6368 53.2409 76.8107H50.5151V72.7227L50.6022 72.6357H53.0959C53.2481 72.7589 53.166 72.9836 53.1829 73.1576Z" fill="#6E6E6E"/>
<path d="M65.3614 33.4949L69.0126 33.2654C69.1479 34.0095 69.4814 35.5075 68.4399 35.7298C68.0219 35.8192 67.744 35.6911 67.4516 35.4084C67.1762 36.2613 66.0187 36.2492 65.5838 35.5075C65.5209 35.3988 65.3638 34.959 65.3638 34.8576V33.4949H65.3614ZM68.6671 33.7872L67.5072 33.9032C67.6159 34.4468 67.4734 35.4205 68.336 35.2248C68.899 35.0968 68.6671 34.1859 68.6671 33.7872ZM67.0432 33.9008L65.8254 34.0168C65.8206 34.4492 65.777 35.4157 66.3328 35.5123C67.3332 35.6839 67.1133 34.5386 67.0432 33.9032V33.9008Z" fill="#6E6E6E"/>
<path d="M64.8978 72.6357V73.1576H62.868V74.4333H64.6658C64.7456 74.5517 64.7407 74.9552 64.5788 74.9552H62.868V76.2889H64.9558C65.0258 76.4773 65.0258 76.6223 64.9558 76.8107H62.288V72.6357H64.8978Z" fill="#6E6E6E"/>
<path d="M65.8763 50.9561C65.8932 51.1735 65.8424 51.4175 65.5959 51.4465L62.4039 51.821L64.7164 53.104C64.7816 53.2054 64.6318 53.5292 64.5134 53.5534L61.3092 51.7872L61.5146 51.3668L64.8396 51.0092L62.5198 49.7045C62.3748 49.6224 62.6697 49.2189 62.7228 49.2189L65.8763 50.9585V50.9561Z" fill="#6E6E6E"/>
<path d="M19.4307 62.1402L21.0207 60.0479C21.1632 59.9101 21.545 60.1566 21.429 60.3402L19.276 63.1767C19.2011 63.1912 18.8966 63.039 18.9063 62.923L18.9643 59.5888L17.3719 61.6811C17.2704 61.8164 16.9515 61.5434 16.9394 61.4637L19.1649 58.5426C19.6385 58.6924 19.4887 58.8181 19.4839 59.1491C19.4694 60.1469 19.4573 61.1424 19.4283 62.1378L19.4307 62.1402Z" fill="#6E6E6E"/>
<path d="M12.6985 22.7747L12.5438 23.2337L9.22369 23.7846L11.6594 24.9733L11.3985 25.4227C11.0432 25.1835 8.24262 23.9465 8.18704 23.7749C8.13871 23.63 8.21116 23.3811 8.38272 23.3497C9.36379 23.1419 10.4246 23.096 11.3985 22.8858C11.4782 22.8689 11.5482 22.8858 11.6014 22.7988L9.28168 21.6391C9.11736 21.4675 9.38075 21.3226 9.40008 21.1462L12.7009 22.7747H12.6985Z" fill="#6E6E6E"/>
<path d="M22.6202 72.6357V75.448C22.6202 75.5157 22.8062 75.9433 22.8618 76.0182C23.2243 76.5111 24.2319 76.4725 24.5944 75.9699C24.6765 75.8564 24.8263 75.4481 24.8263 75.3321V72.6357H25.3483V75.68C25.3483 75.7162 25.1477 76.185 25.1067 76.2502C24.4856 77.2335 22.7265 77.149 22.2239 76.0786C22.1876 76.0013 22.0426 75.6124 22.0426 75.564V72.6357H22.6226H22.6202Z" fill="#6E6E6E"/>
<path d="M44.4112 72.6502L45.9916 76.8108C45.7765 76.8422 45.5687 76.9316 45.3681 76.7963L44.9767 75.709L43.2707 75.6583L42.9034 76.7987C42.7318 76.9074 42.5216 76.8832 42.3428 76.8059L42.3767 76.5329L43.795 72.7348C43.9135 72.5343 44.2276 72.5971 44.4088 72.6526L44.4112 72.6502ZM44.7737 75.1871L44.1068 73.3316L43.4978 75.1871H44.7737Z" fill="#6E6E6E"/>
<path d="M39.6125 72.6357C39.6029 72.7758 39.6319 72.9329 39.6102 73.0682C39.557 73.3799 37.7785 75.4988 37.445 75.9482C37.3701 76.0497 37.2469 76.1632 37.2373 76.2913H39.586C39.76 76.4459 39.7455 76.6102 39.673 76.8131H36.4833V76.4387C37.1841 75.2813 38.1603 74.2859 38.9191 73.16H36.5703C36.435 73.044 36.435 72.7541 36.5703 72.6381H39.615L39.6125 72.6357Z" fill="#6E6E6E"/>
<path d="M54.9663 58.9678C57.0057 58.6682 58.1729 61.5676 56.3171 62.5799C54.2293 63.7179 52.3155 60.6374 54.2317 59.2771C54.4057 59.1539 54.7561 59.0017 54.9687 58.9702L54.9663 58.9678ZM54.3066 59.8425C53.154 60.9901 55.046 63.225 56.3751 61.9396C57.5615 60.792 55.6139 58.5402 54.3066 59.8425Z" fill="#6E6E6E"/>
<path d="M53.0525 9.38947C54.7536 9.16719 55.7709 11.1025 54.6884 12.4748C53.3352 14.1927 50.7641 12.8179 51.4576 10.7521C51.6751 10.107 52.3662 9.47886 53.0525 9.38947ZM53.0525 9.90893C52.7335 9.96208 52.4218 10.2303 52.2309 10.4791C50.9986 12.1052 53.125 13.6346 54.251 12.1511C55.0605 11.0832 54.4177 9.67698 53.0525 9.90893Z" fill="#6E6E6E"/>
<path d="M10.775 49.5741C13.4379 49.2092 13.682 53.0967 11.1085 53.3262C8.60509 53.5509 8.33448 49.9075 10.775 49.5741ZM10.891 50.0935C10.7799 50.1104 10.5672 50.1926 10.4609 50.2433C8.70901 51.0744 9.75533 53.4881 11.5652 52.6232C13.0779 51.9008 12.481 49.8398 10.891 50.0935Z" fill="#6E6E6E"/>
<path d="M4.46787 75.3031V76.7817C4.34222 76.9195 4.01361 76.9195 3.88796 76.7817V72.7807C4.45098 72.4956 5.63744 72.4714 6.1908 72.7976C7.04862 73.3026 6.98336 74.5469 6.16903 75.0615C6.05063 75.1364 5.59874 75.3031 5.48275 75.3031H4.46787ZM4.46787 74.7812H5.54074C5.89112 74.7812 6.20284 74.2714 6.21251 73.9404C6.23667 73.0247 5.12513 73.0054 4.46787 73.1576V74.7812Z" fill="#6E6E6E"/>
<path d="M7.58754 40.9341C10.2021 40.6345 10.5283 44.3335 8.0297 44.6234C5.41273 44.9255 5.04789 41.224 7.58754 40.9341ZM7.76151 41.4559C5.64957 41.6541 6.05549 44.3359 7.90404 44.0919C9.90241 43.8286 9.54723 41.2892 7.76151 41.4559Z" fill="#6E6E6E"/>
<path d="M7.83884 49.2068C7.37489 48.3346 6.91339 47.2111 7.57549 46.3171C7.83646 45.9668 8.41641 45.6213 8.85136 45.5633C10.4051 45.358 11.0478 46.624 11.2871 47.9384L7.83884 49.2068ZM10.6709 47.6412C10.5743 46.3631 9.4216 45.5923 8.27622 46.3775C7.51747 46.897 7.73014 47.8562 8.06361 48.5714L10.6685 47.6412H10.6709Z" fill="#6E6E6E"/>
<path d="M43.6161 9.31215L44.5948 5.74598C46.221 5.84504 47.8086 6.90812 46.929 8.71778C46.2669 10.0756 44.7712 9.79295 43.6161 9.31215ZM44.1937 9.02463C45.0998 9.35805 46.1098 9.41362 46.5013 8.34571C46.9556 7.10625 46.076 6.45873 44.95 6.29927L44.1961 9.02463H44.1937Z" fill="#6E6E6E"/>
<path d="M55.4907 72.5367C55.8604 72.5028 56.5587 72.6454 56.8584 72.8749C57.0662 73.0344 56.8874 73.247 56.74 73.3847C56.2615 73.2035 55.9571 73.032 55.4134 73.0996C54.7199 73.1842 54.628 73.9694 55.3119 74.2497C55.9039 74.4913 56.7641 74.4985 56.9937 75.291C57.3272 76.4435 56.2736 77.0427 55.2466 76.9219C54.8987 76.8808 53.7074 76.4362 54.367 76.0545C54.5676 75.9385 54.8116 76.2502 55.0823 76.3324C55.6236 76.4967 56.5394 76.3855 56.4741 75.6365C56.421 75.0277 55.6115 75.0011 55.179 74.8416C53.7799 74.3318 54.0529 72.6647 55.4883 72.5367H55.4907Z" fill="#6E6E6E"/>
<path d="M58.8156 60.0479L58.7769 59.5888C60.0528 59.2143 60.4998 57.9096 59.4197 56.9818C58.5256 56.2135 57.6001 56.6967 57.1362 57.6414L57.7935 58.3155L58.3227 57.7985C58.3927 57.7864 58.6126 58.0062 58.6271 58.0667C58.673 58.243 57.9264 58.8398 57.7838 59.0065C57.6992 59.021 56.5756 57.8927 56.5538 57.8105C56.5055 57.6221 56.88 57.0543 57.0105 56.8948C58.8832 54.6068 62.0246 57.8057 59.7628 59.6468C59.5961 59.7821 59.0113 60.1711 58.8132 60.0479H58.8156Z" fill="#6E6E6E"/>
<path d="M13.8633 52.8068C13.9358 52.7536 14.2572 53.0774 14.2693 53.1861C14.2958 53.4446 13.7739 54.3869 13.699 54.7034C13.7473 54.8315 14.0397 55.3195 14.1726 55.2978L15.2358 54.5005C15.347 54.4908 15.5548 54.7614 15.5354 54.8605L12.6744 57.0905C11.9785 56.4817 10.8549 55.3074 11.9229 54.4932C12.4062 54.1236 12.7372 54.2057 13.2858 54.3531L13.8633 52.8116V52.8068ZM13.7473 55.6457C13.5734 55.4017 13.1843 54.7976 12.8943 54.73C12.4062 54.6189 11.9157 55.0417 12.022 55.5466C12.0558 55.7037 12.4956 56.3609 12.6309 56.3947C12.8049 56.4382 13.5129 55.7061 13.7498 55.6457H13.7473Z" fill="#6E6E6E"/>
<path d="M49.8194 9.83644L50.0513 11.576L49.5245 11.3634L49.2853 9.75914L48.6015 9.43054L48.0723 10.699L47.6107 10.554L49.092 7.18598C49.6937 7.31887 50.8802 7.68128 51.0252 8.37229C51.1943 9.17685 50.6264 9.83403 49.8194 9.83886V9.83644ZM49.3578 7.75135L48.8407 8.94007C49.2829 9.22276 49.9233 9.63591 50.3413 9.11161C50.9526 8.34571 49.9981 7.88424 49.3578 7.74894V7.75135Z" fill="#6E6E6E"/>
<path d="M44.3097 63.1259L44.6021 62.3745L44.8003 62.4325L45.2932 65.0975C45.3028 64.9163 45.2811 64.7302 45.2932 64.5466C45.3971 63.1574 45.472 61.6255 45.6412 60.2556C45.6677 60.0454 45.7837 59.6709 45.9311 60.0237L46.2235 63.4159L46.5425 63.1259H48.9782C49.1763 63.1259 49.1763 63.4159 48.9782 63.4159H46.5134C46.5159 63.5294 46.209 64.09 46.0761 63.8822C45.9407 63.2226 45.9553 62.5437 45.878 61.8768C45.8683 61.7898 45.8659 61.698 45.7596 61.6763L45.3826 66.3152L45.1796 66.3732L44.6577 62.894L44.3967 63.3579H41.7869L41.7 63.2709L41.7869 63.1259H44.3097Z" fill="#6E6E6E"/>
<path d="M24.3022 7.63295C24.5366 8.46409 25.5708 9.70355 25.5176 10.554C25.4645 11.4093 24.4931 11.9723 23.7005 11.8611C22.6324 11.7137 22.1661 9.78329 21.6514 8.99564C21.6586 8.90141 22.0766 8.68396 22.1539 8.73953C22.4995 9.30007 23.0142 10.9019 23.5217 11.2305C24.0895 11.5978 24.9956 11.1291 25.0005 10.4477C25.0053 9.76637 23.9494 8.51966 23.8431 7.81416L24.3022 7.63537V7.63295Z" fill="#6E6E6E"/>
<path d="M61.8841 54.6044L60.9804 55.8825L60.6155 55.5708L61.5337 54.2878C61.3646 54.1912 60.688 53.5533 60.5478 53.6427L59.5039 55.0417C59.3759 55.1093 59.1681 54.8967 59.1028 54.7976L60.4584 52.9759L60.6034 52.9493C60.9079 53.2537 63.3968 54.9329 63.4427 55.1069C63.4789 55.2422 62.2562 56.745 62.0846 56.9697L61.7174 56.6629L62.7419 55.2205L61.8817 54.6044H61.8841Z" fill="#6E6E6E"/>
<path d="M68.2031 28.5661C68.2056 28.7159 68.3457 29.0106 68.2031 29.1193C67.4951 29.3368 66.6132 29.3803 65.9269 29.6267C65.4243 29.8079 65.1851 30.1196 65.26 30.6681C65.475 32.2554 67.7779 30.9483 68.7155 31.0111L68.7565 31.4702C67.802 31.5983 66.1323 32.3811 65.301 31.7287C64.6631 31.2286 64.5206 30.0882 65.0981 29.4938C65.6756 28.8995 67.3985 28.8656 68.2031 28.5685V28.5661Z" fill="#6E6E6E"/>
<path d="M59.562 19.3486L63.2519 18.4208C63.3969 18.3918 63.6603 18.689 63.6699 18.805L61.4468 22.0716L61.1254 21.6922L61.6982 20.7572C61.7054 20.6871 60.966 19.6386 60.8935 19.6047C60.6808 19.5081 60.1106 19.8439 59.8351 19.8004L59.562 19.3462V19.3486ZM62.9257 19.0007L61.3598 19.4356C61.4468 19.5202 61.9712 20.39 62.0534 20.3344L62.9233 19.0007H62.9257Z" fill="#6E6E6E"/>
<path d="M16.3932 55.7834C16.4391 55.8293 16.5236 55.9501 16.5188 56.013L16.0911 56.919L17.0939 57.9579C17.5578 57.8975 18.174 57.163 18.3843 57.9289L14.8346 59.5236L14.5277 59.2409L16.0693 55.6505C16.1346 55.6022 16.3352 55.7279 16.3932 55.7858V55.7834ZM15.197 58.893L16.6445 58.1681L15.9195 57.4433C15.8036 57.4191 15.8494 57.4699 15.8204 57.5158C15.5764 57.9289 15.4049 58.4532 15.1946 58.8905L15.197 58.893Z" fill="#6E6E6E"/>
<path d="M66.3474 48.8033L67.1303 46.8898C67.2245 46.7689 67.616 46.8849 67.5556 47.0782L66.6349 49.5547C66.5455 49.6175 66.1444 49.3808 66.0912 49.2624L64.3466 46.4259L63.5613 48.453L63.1626 48.3322L64.088 45.672C64.2837 45.6503 64.5061 45.7542 64.6341 45.904L66.3474 48.8009V48.8033Z" fill="#6E6E6E"/>
<path d="M43.034 5.3715C43.0605 5.64693 42.9445 5.86438 42.773 6.06733L40.4822 8.29981L42.6208 8.62356L42.5676 9.0802L39.7935 8.66705C39.7597 8.49793 39.7815 8.31189 39.9023 8.18142L42.338 5.80397L40.2503 5.48505L40.3034 5.04774L43.034 5.3715Z" fill="#6E6E6E"/>
<path d="M66.8595 24.809C67.3258 25.5725 67.942 27.0197 66.8329 27.5175C65.7238 28.0152 65.0134 27.0608 64.8974 26.075L63.5925 26.5317L63.3919 26.0195L66.8595 24.809ZM66.6372 25.3768L65.3106 25.9349C65.4676 26.5486 65.7431 27.3507 66.5381 27.0463C67.2848 26.7612 66.8691 25.8866 66.6372 25.3768Z" fill="#6E6E6E"/>
<path d="M12.0559 18.4112C12.0414 18.4353 11.6595 18.5755 11.5411 18.6794C11.2681 18.9113 10.9853 19.4187 11.2246 19.7521C11.6257 20.3102 12.3506 19.3704 12.7421 19.1843C13.7062 18.7228 14.639 19.5443 14.2789 20.547C14.1388 20.936 13.7715 21.3999 13.3993 21.5811C12.9741 21.7889 12.7977 21.772 12.8146 21.238C13.4187 21.1969 14.2693 20.1846 13.6507 19.7038C13.0997 19.2737 12.5802 20.1 12.1404 20.3223C11.3816 20.7065 10.5359 20.1749 10.6277 19.3341C10.6785 18.8751 11.3261 17.9835 11.8094 17.9545C12.0317 17.94 12.1332 18.288 12.0559 18.4112Z" fill="#6E6E6E"/>
<path d="M67.3985 45.3338C68.2225 44.6452 67.9978 43.4178 66.966 43.053C65.6466 42.5843 64.6583 43.5749 65.0618 44.8796C65.0425 45.0342 64.6801 45.0874 64.6124 45.0294C64.5133 44.9448 64.4795 44.2393 64.4916 44.0798C64.7284 41.1104 69.5612 42.4369 68.1669 45.2033C67.9422 45.6479 67.6063 46.0369 67.3985 45.3338Z" fill="#6E6E6E"/>
<path d="M33.871 72.6357C33.9169 72.7227 33.9845 73.1576 33.8419 73.1576H32.5951V76.7817C32.4695 76.9195 32.1408 76.9195 32.0151 76.7817V73.1576H30.6813V72.6357H33.871Z" fill="#6E6E6E"/>
<path d="M61.1859 72.6357V73.1576H59.852V76.7817C59.7263 76.9195 59.3977 76.9195 59.2721 76.7817V73.1576H57.9382C57.9551 72.9836 57.873 72.7589 58.0252 72.6357H61.1859Z" fill="#6E6E6E"/>
<path d="M48.1374 73.1576V76.7817C48.0118 76.9195 47.6832 76.9195 47.5575 76.7817V73.1576H46.2237V72.6357H49.3843C49.5197 72.7517 49.5197 73.0416 49.3843 73.1576H48.1374Z" fill="#6E6E6E"/>
<path d="M17.3429 11.924L17.8213 14.4319C17.9373 14.7097 18.6719 15.2872 18.7275 15.5022C18.7685 15.6592 18.5318 15.809 18.4037 15.8598C18.2708 15.8719 17.6039 14.9006 17.3574 14.7798C16.8789 14.5406 15.7722 14.2797 15.1971 14.0984C15.1222 14.0743 15.0424 14.0694 14.9651 14.0719C14.8709 13.9776 15.2068 13.6346 15.3421 13.6297L17.2849 14.2458L16.9031 12.2429C16.9514 12.1487 17.2414 11.8394 17.3429 11.9264V11.924Z" fill="#6E6E6E"/>
<path d="M9.39261 32.7483L9.28389 33.2412L7.87268 33.0455L5.45386 34.0772C5.47319 33.9081 5.39586 33.6544 5.50943 33.5263C5.68341 33.3306 7.08974 32.8715 7.42321 32.7435L5.82841 31.4678L5.85738 30.9459C5.9492 30.9362 6.01443 30.9918 6.08451 31.0377C6.57021 31.3494 7.5416 32.3617 7.95964 32.526C8.1747 32.6106 9.32978 32.6589 9.39019 32.7483H9.39261Z" fill="#6E6E6E"/>
<path d="M19.3679 11.059L18.3578 11.6823C18.2636 11.6147 18.0437 11.3417 18.1041 11.2354L20.4335 9.72772L20.68 10.0708C20.5761 10.252 19.7594 10.6193 19.7859 10.7836L21.5233 13.463C21.388 13.5476 21.2382 13.7505 21.0811 13.6104L19.3679 11.0566V11.059Z" fill="#6E6E6E"/>
<path d="M28.4197 6.64718L27.3178 6.99751L28.352 9.99589C28.3617 10.165 28.0403 10.1868 27.9243 10.2278L26.7983 7.19563C26.3537 7.22704 25.5539 7.94221 25.5732 7.08932L28.1684 6.19537C28.3472 6.18329 28.3496 6.52879 28.4173 6.64959L28.4197 6.64718Z" fill="#6E6E6E"/>
<path d="M16.2358 17.9618L15.9217 18.4184L13.4859 16.2754L12.7248 17.1379L12.3671 16.8238L14.2906 14.7121C14.9406 15.0866 14.0827 15.437 13.8894 15.809C13.8653 15.855 13.8508 15.8815 13.8894 15.925L16.2382 17.9618H16.2358Z" fill="#6E6E6E"/>
<path d="M65.9415 39.0906C65.9342 39.1389 65.852 39.4264 65.8303 39.4433L65.4171 39.3733L65.5355 37.206L69.2205 37.4331C69.2519 37.4984 69.252 37.5684 69.252 37.6409C69.252 37.7714 69.2568 37.8922 69.1021 37.9019C68.4835 37.8777 67.8625 37.8704 67.2439 37.8463C67.0748 37.839 65.9415 37.6723 65.9415 37.8729C65.9053 38.257 65.9898 38.7161 65.9415 39.0906Z" fill="#6E6E6E"/>
<path d="M61.3891 15.8694C61.481 15.9902 61.7927 16.1594 61.6815 16.3333L58.8954 18.6552L58.5837 18.3242L61.3891 15.8719V15.8694Z" fill="#6E6E6E"/>
<path d="M10.9007 26.6597C10.9273 26.8313 10.9128 27.0222 10.792 27.1502L10.6615 27.1671L7.44284 25.9712L7.31718 25.86L7.43316 25.4396L10.9007 26.6573V26.6597Z" fill="#6E6E6E"/>
<path d="M68.9573 40.8592L68.9307 41.3279C68.8848 41.3931 68.7712 41.3883 68.6963 41.3883C67.952 41.3786 66.3476 41.1153 65.5816 40.9606C65.4414 40.9316 65.1925 40.9437 65.1901 40.7819C65.1901 40.6804 65.2578 40.388 65.3907 40.3977L68.9573 40.864V40.8592Z" fill="#6E6E6E"/>
</svg>
