<svg width="588" height="471" viewBox="0 0 588 471" fill="none" xmlns="http://www.w3.org/2000/svg">
<g clip-path="url(#clip0_1390_7920)">
<rect width="588" height="471" rx="20" fill="#0A0A0A"/>
<g filter="url(#filter0_f_1390_7920)">
<path d="M624 11.293C624 81.4331 563.782 138.293 489.5 138.293C415.218 138.293 355 81.4331 355 11.293C355 -58.8472 415.218 -115.707 489.5 -115.707C563.782 -115.707 624 -58.8472 624 11.293Z" fill="#4064DF" fill-opacity="0.2"/>
</g>
<g filter="url(#filter1_f_1390_7920)">
<path d="M475 366.793C475 422.298 427.542 467.293 369 467.293C310.458 467.293 263 422.298 263 366.793C263 311.288 310.458 266.293 369 266.293C427.542 266.293 475 311.288 475 366.793Z" fill="#4064DF" fill-opacity="0.2"/>
</g>
<g filter="url(#filter2_f_1390_7920)">
<path d="M144 304.293C144 381.613 81.3199 444.293 4 444.293C-73.3199 444.293 -136 381.613 -136 304.293C-136 226.973 -73.3199 164.293 4 164.293C81.3199 164.293 144 226.973 144 304.293Z" fill="#4064DF" fill-opacity="0.48"/>
</g>
<path d="M67.667 399.611H536.349" stroke="#4064DF" stroke-opacity="0.2" stroke-width="0.85" stroke-miterlimit="3.86"/>
<path d="M67.667 373.605H536.349" stroke="#4064DF" stroke-opacity="0.2" stroke-width="0.85" stroke-miterlimit="3.86"/>
<path d="M67.667 347.604H536.349" stroke="#4064DF" stroke-opacity="0.2" stroke-width="0.85" stroke-miterlimit="3.86"/>
<path d="M67.667 321.605H536.349" stroke="#4064DF" stroke-opacity="0.2" stroke-width="0.85" stroke-miterlimit="3.86"/>
<path d="M67.667 295.596H536.349" stroke="#4064DF" stroke-opacity="0.2" stroke-width="0.85" stroke-miterlimit="3.86"/>
<path d="M67.667 269.592H536.349" stroke="#4064DF" stroke-opacity="0.2" stroke-width="0.85" stroke-miterlimit="3.86"/>
<path d="M67.667 243.592H536.349" stroke="#4064DF" stroke-opacity="0.2" stroke-width="0.85" stroke-miterlimit="3.86"/>
<path d="M67.667 217.586H536.349" stroke="#4064DF" stroke-opacity="0.2" stroke-width="0.85" stroke-miterlimit="3.86"/>
<path d="M67.667 191.582H536.349" stroke="#4064DF" stroke-opacity="0.2" stroke-width="0.85" stroke-miterlimit="3.86"/>
<path d="M67.667 165.576H536.349" stroke="#4064DF" stroke-opacity="0.2" stroke-width="0.85" stroke-miterlimit="3.86"/>
<path d="M67.667 139.57H536.349" stroke="#4064DF" stroke-opacity="0.2" stroke-width="0.85" stroke-miterlimit="3.86"/>
<path d="M67.667 113.566H536.349" stroke="#4064DF" stroke-opacity="0.2" stroke-width="0.85" stroke-miterlimit="3.86"/>
<path d="M67.667 87.5605H536.349" stroke="#4064DF" stroke-opacity="0.2" stroke-width="0.85" stroke-miterlimit="3.86"/>
<path d="M67.667 61.5586H536.349" stroke="#4064DF" stroke-opacity="0.2" stroke-width="0.85" stroke-miterlimit="3.86"/>
<path d="M68.3252 61.6094L68.3252 399.66" stroke="#4064DF" stroke-opacity="0.2" stroke-width="0.85" stroke-miterlimit="3.86"/>
<path d="M94.3623 61.6094L94.3623 399.66" stroke="#4064DF" stroke-opacity="0.2" stroke-width="0.85" stroke-miterlimit="3.86"/>
<path d="M120.399 61.6094L120.399 399.66" stroke="#4064DF" stroke-opacity="0.2" stroke-width="0.85" stroke-miterlimit="3.86"/>
<path d="M146.438 61.6094L146.438 399.66" stroke="#4064DF" stroke-opacity="0.2" stroke-width="0.85" stroke-miterlimit="3.86"/>
<path d="M172.476 61.6094L172.476 399.66" stroke="#4064DF" stroke-opacity="0.2" stroke-width="0.85" stroke-miterlimit="3.86"/>
<path d="M198.513 61.6094L198.513 399.66" stroke="#4064DF" stroke-opacity="0.2" stroke-width="0.85" stroke-miterlimit="3.86"/>
<path d="M224.552 61.6094L224.552 399.66" stroke="#4064DF" stroke-opacity="0.2" stroke-width="0.85" stroke-miterlimit="3.86"/>
<path d="M250.588 61.6094L250.588 399.66" stroke="#4064DF" stroke-opacity="0.2" stroke-width="0.85" stroke-miterlimit="3.86"/>
<path d="M276.625 61.6094L276.625 399.66" stroke="#4064DF" stroke-opacity="0.2" stroke-width="0.85" stroke-miterlimit="3.86"/>
<path d="M302.662 61.6094L302.662 399.66" stroke="#4064DF" stroke-opacity="0.2" stroke-width="0.85" stroke-miterlimit="3.86"/>
<path d="M328.7 61.6094L328.7 399.66" stroke="#4064DF" stroke-opacity="0.2" stroke-width="0.85" stroke-miterlimit="3.86"/>
<path d="M354.736 61.6094L354.736 399.66" stroke="#4064DF" stroke-opacity="0.2" stroke-width="0.85" stroke-miterlimit="3.86"/>
<path d="M380.773 61.6094L380.773 399.66" stroke="#4064DF" stroke-opacity="0.2" stroke-width="0.85" stroke-miterlimit="3.86"/>
<path d="M406.812 61.6094L406.812 399.66" stroke="#4064DF" stroke-opacity="0.2" stroke-width="0.85" stroke-miterlimit="3.86"/>
<path d="M432.85 61.6094L432.85 399.66" stroke="#4064DF" stroke-opacity="0.2" stroke-width="0.85" stroke-miterlimit="3.86"/>
<path d="M458.889 61.6094L458.889 399.66" stroke="#4064DF" stroke-opacity="0.2" stroke-width="0.85" stroke-miterlimit="3.86"/>
<path d="M484.924 61.6094L484.924 399.66" stroke="#4064DF" stroke-opacity="0.2" stroke-width="0.85" stroke-miterlimit="3.86"/>
<path d="M510.963 61.6094L510.963 399.66" stroke="#4064DF" stroke-opacity="0.2" stroke-width="0.85" stroke-miterlimit="3.86"/>
<path d="M537 61.6094L537 399.66" stroke="#4064DF" stroke-opacity="0.2" stroke-width="0.85" stroke-miterlimit="3.86"/>
<path d="M66.7979 399.162L536.911 399.162" stroke="#4064DF" stroke-width="2"/>
<path d="M67.5459 399.912L67.5459 60.8019" stroke="#4064DF" stroke-width="2"/>
<path d="M538.8 133.892C538.693 132.793 537.715 131.988 536.615 132.095L518.7 133.839C517.6 133.946 516.796 134.924 516.903 136.023C517.01 137.122 517.988 137.927 519.087 137.82L535.012 136.27L536.562 152.195C536.669 153.294 537.647 154.099 538.746 153.992C539.846 153.885 540.65 152.907 540.543 151.808L538.8 133.892ZM68.2529 342.333V344.333C217.36 344.333 334.873 292.099 415.089 239.886C455.198 213.779 485.994 187.67 506.769 168.08C517.158 158.284 525.043 150.117 530.336 144.392C532.983 141.529 534.981 139.277 536.321 137.738C536.991 136.968 537.496 136.376 537.836 135.975C538.005 135.774 538.133 135.621 538.22 135.518C538.263 135.466 538.296 135.427 538.318 135.4C538.329 135.386 538.338 135.376 538.344 135.369C538.346 135.365 538.349 135.362 538.35 135.36C538.352 135.358 538.354 135.357 536.809 134.086C535.264 132.815 535.264 132.816 535.264 132.816C535.262 132.818 535.261 132.82 535.259 132.822C535.254 132.828 535.247 132.836 535.237 132.848C535.218 132.872 535.188 132.908 535.148 132.956C535.067 133.053 534.945 133.198 534.781 133.392C534.454 133.779 533.961 134.356 533.304 135.112C531.989 136.622 530.017 138.845 527.399 141.676C522.162 147.34 514.342 155.442 504.025 165.169C483.391 184.626 452.782 210.579 412.907 236.533C333.157 288.443 216.392 340.333 68.2529 340.333V342.333Z" fill="url(#paint0_linear_1390_7920)"/>
<path d="M540.116 316.56C540.962 317.27 541.072 318.531 540.362 319.377L528.793 333.167C528.083 334.013 526.822 334.124 525.975 333.414C525.129 332.704 525.019 331.442 525.729 330.596L536.013 318.339L523.755 308.055C522.909 307.345 522.799 306.083 523.509 305.237C524.219 304.391 525.48 304.281 526.326 304.99L540.116 316.56ZM68.2529 259.038L69.0181 257.19C211.25 316.085 370.367 330.833 538.656 316.1L538.83 318.092L539.005 320.084C370.286 334.855 210.483 320.097 67.4878 260.885L68.2529 259.038Z" fill="url(#paint1_linear_1390_7920)"/>
<path d="M419.085 445.066V434.266H420.42V443.799H425.43V445.066H419.085ZM428.701 445.291C428.096 445.291 427.589 445.181 427.179 444.961C426.774 444.736 426.466 444.441 426.256 444.076C426.051 443.711 425.949 443.311 425.949 442.876C425.949 442.451 426.029 442.084 426.189 441.774C426.354 441.459 426.584 441.199 426.879 440.994C427.174 440.784 427.526 440.619 427.936 440.499C428.321 440.394 428.751 440.304 429.226 440.229C429.706 440.149 430.191 440.076 430.681 440.011C431.171 439.946 431.629 439.884 432.054 439.824L431.574 440.101C431.589 439.381 431.444 438.849 431.139 438.504C430.839 438.159 430.319 437.986 429.579 437.986C429.089 437.986 428.659 438.099 428.289 438.324C427.924 438.544 427.666 438.904 427.516 439.404L426.249 439.021C426.444 438.311 426.821 437.754 427.381 437.349C427.941 436.944 428.679 436.741 429.594 436.741C430.329 436.741 430.959 436.874 431.484 437.139C432.014 437.399 432.394 437.794 432.624 438.324C432.739 438.574 432.811 438.846 432.841 439.141C432.871 439.431 432.886 439.736 432.886 440.056V445.066H431.701V443.124L431.979 443.304C431.674 443.959 431.246 444.454 430.696 444.789C430.151 445.124 429.486 445.291 428.701 445.291ZM428.904 444.174C429.384 444.174 429.799 444.089 430.149 443.919C430.504 443.744 430.789 443.516 431.004 443.236C431.219 442.951 431.359 442.641 431.424 442.306C431.499 442.056 431.539 441.779 431.544 441.474C431.554 441.164 431.559 440.926 431.559 440.761L432.024 440.964C431.589 441.024 431.161 441.081 430.741 441.136C430.321 441.191 429.924 441.251 429.549 441.316C429.174 441.376 428.836 441.449 428.536 441.534C428.316 441.604 428.109 441.694 427.914 441.804C427.724 441.914 427.569 442.056 427.449 442.231C427.334 442.401 427.276 442.614 427.276 442.869C427.276 443.089 427.331 443.299 427.441 443.499C427.556 443.699 427.731 443.861 427.966 443.986C428.206 444.111 428.519 444.174 428.904 444.174ZM439.059 445.066C438.579 445.161 438.104 445.199 437.634 445.179C437.169 445.164 436.754 445.071 436.389 444.901C436.024 444.726 435.746 444.456 435.556 444.091C435.396 443.771 435.309 443.449 435.294 443.124C435.284 442.794 435.279 442.421 435.279 442.006V434.716H436.614V441.946C436.614 442.276 436.616 442.559 436.621 442.794C436.631 443.029 436.684 443.231 436.779 443.401C436.959 443.721 437.244 443.909 437.634 443.964C438.029 444.019 438.504 444.004 439.059 443.919V445.066ZM433.636 438.069V436.966H439.059V438.069H433.636ZM442.706 445.291C442.101 445.291 441.593 445.181 441.183 444.961C440.778 444.736 440.471 444.441 440.261 444.076C440.056 443.711 439.953 443.311 439.953 442.876C439.953 442.451 440.033 442.084 440.193 441.774C440.358 441.459 440.588 441.199 440.883 440.994C441.178 440.784 441.531 440.619 441.941 440.499C442.326 440.394 442.756 440.304 443.231 440.229C443.711 440.149 444.196 440.076 444.686 440.011C445.176 439.946 445.633 439.884 446.058 439.824L445.578 440.101C445.593 439.381 445.448 438.849 445.143 438.504C444.843 438.159 444.323 437.986 443.583 437.986C443.093 437.986 442.663 438.099 442.293 438.324C441.928 438.544 441.671 438.904 441.521 439.404L440.253 439.021C440.448 438.311 440.826 437.754 441.386 437.349C441.946 436.944 442.683 436.741 443.598 436.741C444.333 436.741 444.963 436.874 445.488 437.139C446.018 437.399 446.398 437.794 446.628 438.324C446.743 438.574 446.816 438.846 446.846 439.141C446.876 439.431 446.891 439.736 446.891 440.056V445.066H445.706V443.124L445.983 443.304C445.678 443.959 445.251 444.454 444.701 444.789C444.156 445.124 443.491 445.291 442.706 445.291ZM442.908 444.174C443.388 444.174 443.803 444.089 444.153 443.919C444.508 443.744 444.793 443.516 445.008 443.236C445.223 442.951 445.363 442.641 445.428 442.306C445.503 442.056 445.543 441.779 445.548 441.474C445.558 441.164 445.563 440.926 445.563 440.761L446.028 440.964C445.593 441.024 445.166 441.081 444.746 441.136C444.326 441.191 443.928 441.251 443.553 441.316C443.178 441.376 442.841 441.449 442.541 441.534C442.321 441.604 442.113 441.694 441.918 441.804C441.728 441.914 441.573 442.056 441.453 442.231C441.338 442.401 441.281 442.614 441.281 442.869C441.281 443.089 441.336 443.299 441.446 443.499C441.561 443.699 441.736 443.861 441.971 443.986C442.211 444.111 442.523 444.174 442.908 444.174ZM454.319 445.276C453.799 445.276 453.351 445.194 452.976 445.029C452.606 444.864 452.299 444.644 452.054 444.369C451.809 444.094 451.616 443.789 451.476 443.454C451.336 443.119 451.236 442.776 451.176 442.426C451.121 442.076 451.094 441.749 451.094 441.444V436.966H452.444V441.024C452.444 441.404 452.479 441.771 452.549 442.126C452.619 442.481 452.736 442.801 452.901 443.086C453.071 443.371 453.296 443.596 453.576 443.761C453.861 443.926 454.216 444.009 454.641 444.009C454.976 444.009 455.281 443.951 455.556 443.836C455.831 443.721 456.066 443.551 456.261 443.326C456.456 443.096 456.606 442.806 456.711 442.456C456.816 442.106 456.869 441.699 456.869 441.234L457.746 441.504C457.746 442.284 457.604 442.956 457.319 443.521C457.039 444.086 456.641 444.521 456.126 444.826C455.616 445.126 455.014 445.276 454.319 445.276ZM457.019 445.066V442.899H456.869V436.966H458.211V445.066H457.019ZM462.321 435.286V433.816H463.791V435.286H462.321ZM459.261 445.066V444.826L464.174 438.181H459.666V436.966H466.326V437.221L461.421 443.851H466.071V445.066H459.261ZM468.585 448.666L470.153 444.406L470.175 445.666L466.635 436.966H468.038L470.813 443.964H470.333L472.935 436.966H474.293L469.883 448.666H468.585ZM480.354 445.066C479.874 445.161 479.399 445.199 478.929 445.179C478.464 445.164 478.049 445.071 477.684 444.901C477.319 444.726 477.042 444.456 476.852 444.091C476.692 443.771 476.604 443.449 476.589 443.124C476.579 442.794 476.574 442.421 476.574 442.006V434.716H477.909V441.946C477.909 442.276 477.912 442.559 477.917 442.794C477.927 443.029 477.979 443.231 478.074 443.401C478.254 443.721 478.539 443.909 478.929 443.964C479.324 444.019 479.799 444.004 480.354 443.919V445.066ZM474.932 438.069V436.966H480.354V438.069H474.932ZM481.691 445.066L481.699 434.266H483.049V440.866L486.446 436.966H488.179L484.601 441.016L488.599 445.066H486.731L483.049 441.166V445.066H481.691ZM492.349 445.291C491.544 445.291 490.849 445.109 490.264 444.744C489.684 444.379 489.236 443.874 488.921 443.229C488.606 442.584 488.449 441.844 488.449 441.009C488.449 440.159 488.609 439.414 488.929 438.774C489.249 438.134 489.701 437.636 490.286 437.281C490.871 436.921 491.559 436.741 492.349 436.741C493.159 436.741 493.856 436.924 494.441 437.289C495.026 437.649 495.474 438.151 495.784 438.796C496.099 439.436 496.256 440.174 496.256 441.009C496.256 441.854 496.099 442.599 495.784 443.244C495.469 443.884 495.019 444.386 494.434 444.751C493.849 445.111 493.154 445.291 492.349 445.291ZM492.349 444.024C493.189 444.024 493.814 443.744 494.224 443.184C494.634 442.624 494.839 441.899 494.839 441.009C494.839 440.094 494.631 439.366 494.216 438.826C493.801 438.281 493.179 438.009 492.349 438.009C491.784 438.009 491.319 438.136 490.954 438.391C490.589 438.646 490.316 438.999 490.136 439.449C489.956 439.899 489.866 440.419 489.866 441.009C489.866 441.919 490.076 442.649 490.496 443.199C490.916 443.749 491.534 444.024 492.349 444.024ZM499.04 445.066L496.565 436.959L497.892 436.966L499.7 442.891L501.522 436.966H502.7L504.515 442.891L506.33 436.966H507.65L505.175 445.066H504.065L502.107 438.909L500.15 445.066H499.04ZM510.553 445.291C509.948 445.291 509.44 445.181 509.03 444.961C508.625 444.736 508.318 444.441 508.108 444.076C507.903 443.711 507.8 443.311 507.8 442.876C507.8 442.451 507.88 442.084 508.04 441.774C508.205 441.459 508.435 441.199 508.73 440.994C509.025 440.784 509.378 440.619 509.788 440.499C510.173 440.394 510.603 440.304 511.078 440.229C511.558 440.149 512.043 440.076 512.533 440.011C513.023 439.946 513.48 439.884 513.905 439.824L513.425 440.101C513.44 439.381 513.295 438.849 512.99 438.504C512.69 438.159 512.17 437.986 511.43 437.986C510.94 437.986 510.51 438.099 510.14 438.324C509.775 438.544 509.518 438.904 509.368 439.404L508.1 439.021C508.295 438.311 508.673 437.754 509.233 437.349C509.793 436.944 510.53 436.741 511.445 436.741C512.18 436.741 512.81 436.874 513.335 437.139C513.865 437.399 514.245 437.794 514.475 438.324C514.59 438.574 514.663 438.846 514.693 439.141C514.723 439.431 514.738 439.736 514.738 440.056V445.066H513.553V443.124L513.83 443.304C513.525 443.959 513.098 444.454 512.548 444.789C512.003 445.124 511.338 445.291 510.553 445.291ZM510.755 444.174C511.235 444.174 511.65 444.089 512 443.919C512.355 443.744 512.64 443.516 512.855 443.236C513.07 442.951 513.21 442.641 513.275 442.306C513.35 442.056 513.39 441.779 513.395 441.474C513.405 441.164 513.41 440.926 513.41 440.761L513.875 440.964C513.44 441.024 513.013 441.081 512.593 441.136C512.173 441.191 511.775 441.251 511.4 441.316C511.025 441.376 510.688 441.449 510.388 441.534C510.168 441.604 509.96 441.694 509.765 441.804C509.575 441.914 509.42 442.056 509.3 442.231C509.185 442.401 509.128 442.614 509.128 442.869C509.128 443.089 509.183 443.299 509.293 443.499C509.408 443.699 509.583 443.861 509.818 443.986C510.058 444.111 510.37 444.174 510.755 444.174ZM522.155 445.066V441.009C522.155 440.624 522.12 440.254 522.05 439.899C521.985 439.544 521.868 439.226 521.698 438.946C521.533 438.661 521.308 438.436 521.023 438.271C520.743 438.106 520.388 438.024 519.958 438.024C519.623 438.024 519.318 438.081 519.043 438.196C518.773 438.306 518.54 438.476 518.345 438.706C518.15 438.936 517.998 439.226 517.888 439.576C517.783 439.921 517.73 440.329 517.73 440.799L516.853 440.529C516.853 439.744 516.993 439.071 517.273 438.511C517.558 437.946 517.955 437.514 518.465 437.214C518.98 436.909 519.585 436.756 520.28 436.756C520.805 436.756 521.253 436.839 521.623 437.004C521.993 437.169 522.3 437.389 522.545 437.664C522.79 437.934 522.983 438.239 523.123 438.579C523.263 438.914 523.36 439.256 523.415 439.606C523.475 439.951 523.505 440.279 523.505 440.589V445.066H522.155ZM516.38 445.066V436.966H517.58V439.134H517.73V445.066H516.38ZM525.305 435.534V434.154H526.64V435.534H525.305ZM525.305 445.066V436.966H526.64V445.066H525.305ZM530.893 445.291C530.288 445.291 529.78 445.181 529.37 444.961C528.965 444.736 528.658 444.441 528.448 444.076C528.243 443.711 528.14 443.311 528.14 442.876C528.14 442.451 528.22 442.084 528.38 441.774C528.545 441.459 528.775 441.199 529.07 440.994C529.365 440.784 529.718 440.619 530.128 440.499C530.513 440.394 530.943 440.304 531.418 440.229C531.898 440.149 532.383 440.076 532.873 440.011C533.363 439.946 533.82 439.884 534.245 439.824L533.765 440.101C533.78 439.381 533.635 438.849 533.33 438.504C533.03 438.159 532.51 437.986 531.77 437.986C531.28 437.986 530.85 438.099 530.48 438.324C530.115 438.544 529.858 438.904 529.708 439.404L528.44 439.021C528.635 438.311 529.013 437.754 529.573 437.349C530.133 436.944 530.87 436.741 531.785 436.741C532.52 436.741 533.15 436.874 533.675 437.139C534.205 437.399 534.585 437.794 534.815 438.324C534.93 438.574 535.003 438.846 535.033 439.141C535.063 439.431 535.078 439.736 535.078 440.056V445.066H533.893V443.124L534.17 443.304C533.865 443.959 533.438 444.454 532.888 444.789C532.343 445.124 531.678 445.291 530.893 445.291ZM531.095 444.174C531.575 444.174 531.99 444.089 532.34 443.919C532.695 443.744 532.98 443.516 533.195 443.236C533.41 442.951 533.55 442.641 533.615 442.306C533.69 442.056 533.73 441.779 533.735 441.474C533.745 441.164 533.75 440.926 533.75 440.761L534.215 440.964C533.78 441.024 533.353 441.081 532.933 441.136C532.513 441.191 532.115 441.251 531.74 441.316C531.365 441.376 531.028 441.449 530.728 441.534C530.508 441.604 530.3 441.694 530.105 441.804C529.915 441.914 529.76 442.056 529.64 442.231C529.525 442.401 529.468 442.614 529.468 442.869C529.468 443.089 529.523 443.299 529.633 443.499C529.748 443.699 529.923 443.861 530.158 443.986C530.398 444.111 530.71 444.174 531.095 444.174Z" fill="white"/>
<path d="M38.6535 37.3711V26.5711H39.9885V31.6411L44.7135 26.5711H46.3935L41.4885 31.8136L46.776 37.3711H45.051L39.9885 32.0911V37.3711H38.6535ZM50.3729 37.5961C49.5679 37.5961 48.8729 37.4136 48.2879 37.0486C47.7079 36.6836 47.2604 36.1786 46.9454 35.5336C46.6304 34.8886 46.4729 34.1486 46.4729 33.3136C46.4729 32.4636 46.6329 31.7186 46.9529 31.0786C47.2729 30.4386 47.7254 29.9411 48.3104 29.5861C48.8954 29.2261 49.5829 29.0461 50.3729 29.0461C51.1829 29.0461 51.8804 29.2286 52.4654 29.5936C53.0504 29.9536 53.4979 30.4561 53.8079 31.1011C54.1229 31.7411 54.2804 32.4786 54.2804 33.3136C54.2804 34.1586 54.1229 34.9036 53.8079 35.5486C53.4929 36.1886 53.0429 36.6911 52.4579 37.0561C51.8729 37.4161 51.1779 37.5961 50.3729 37.5961ZM50.3729 36.3286C51.2129 36.3286 51.8379 36.0486 52.2479 35.4886C52.6579 34.9286 52.8629 34.2036 52.8629 33.3136C52.8629 32.3986 52.6554 31.6711 52.2404 31.1311C51.8254 30.5861 51.2029 30.3136 50.3729 30.3136C49.8079 30.3136 49.3429 30.4411 48.9779 30.6961C48.6129 30.9511 48.3404 31.3036 48.1604 31.7536C47.9804 32.2036 47.8904 32.7236 47.8904 33.3136C47.8904 34.2236 48.1004 34.9536 48.5204 35.5036C48.9404 36.0536 49.5579 36.3286 50.3729 36.3286ZM58.5745 37.5886C57.6095 37.5886 56.817 37.3786 56.197 36.9586C55.582 36.5336 55.2045 35.9411 55.0645 35.1811L56.4295 34.9636C56.5395 35.4036 56.792 35.7536 57.187 36.0136C57.582 36.2686 58.072 36.3961 58.657 36.3961C59.212 36.3961 59.647 36.2811 59.962 36.0511C60.277 35.8211 60.4345 35.5086 60.4345 35.1136C60.4345 34.8836 60.382 34.6986 60.277 34.5586C60.172 34.4136 59.9545 34.2786 59.6245 34.1536C59.2995 34.0286 58.807 33.8786 58.147 33.7036C57.432 33.5136 56.8695 33.3161 56.4595 33.1111C56.0495 32.9061 55.757 32.6686 55.582 32.3986C55.407 32.1286 55.3195 31.8011 55.3195 31.4161C55.3195 30.9411 55.4495 30.5261 55.7095 30.1711C55.9695 29.8111 56.332 29.5336 56.797 29.3386C57.267 29.1436 57.812 29.0461 58.432 29.0461C59.047 29.0461 59.597 29.1436 60.082 29.3386C60.567 29.5336 60.957 29.8111 61.252 30.1711C61.552 30.5261 61.7295 30.9411 61.7845 31.4161L60.4195 31.6636C60.3545 31.2286 60.1445 30.8861 59.7895 30.6361C59.4395 30.3861 58.987 30.2536 58.432 30.2386C57.907 30.2186 57.4795 30.3111 57.1495 30.5161C56.8245 30.7211 56.662 30.9986 56.662 31.3486C56.662 31.5436 56.722 31.7111 56.842 31.8511C56.967 31.9911 57.1945 32.1236 57.5245 32.2486C57.8595 32.3736 58.3445 32.5161 58.9795 32.6761C59.6945 32.8561 60.257 33.0536 60.667 33.2686C61.082 33.4786 61.377 33.7286 61.552 34.0186C61.727 34.3036 61.8145 34.6561 61.8145 35.0761C61.8145 35.8561 61.527 36.4711 60.952 36.9211C60.377 37.3661 59.5845 37.5886 58.5745 37.5886ZM62.4186 37.3711V37.1311L67.3311 30.4861H62.8236V29.2711H69.4836V29.5261L64.5786 36.1561H69.2286V37.3711H62.4186ZM75.3598 37.3711C74.8798 37.4661 74.4048 37.5036 73.9348 37.4836C73.4698 37.4686 73.0548 37.3761 72.6898 37.2061C72.3248 37.0311 72.0473 36.7611 71.8573 36.3961C71.6973 36.0761 71.6098 35.7536 71.5948 35.4286C71.5848 35.0986 71.5798 34.7261 71.5798 34.3111V27.0211H72.9148V34.2511C72.9148 34.5811 72.9173 34.8636 72.9223 35.0986C72.9323 35.3336 72.9848 35.5361 73.0798 35.7061C73.2598 36.0261 73.5448 36.2136 73.9348 36.2686C74.3298 36.3236 74.8048 36.3086 75.3598 36.2236V37.3711ZM69.9373 30.3736V29.2711H75.3598V30.3736H69.9373ZM77.6096 40.9711L79.1771 36.7111L79.1996 37.9711L75.6596 29.2711H77.0621L79.8371 36.2686H79.3571L81.9596 29.2711H83.3171L78.9071 40.9711H77.6096Z" fill="white"/>
<path d="M45.3253 71.0137V62.9342L43.5638 64.0002V62.7067L45.3253 61.6537H46.5018V71.0137H45.3253ZM51.8741 71.2087C51.2674 71.2087 50.7257 71.0722 50.2491 70.7992C49.7767 70.5218 49.4019 70.147 49.1246 69.6747C48.8516 69.198 48.7151 68.6563 48.7151 68.0497V64.6177C48.7151 64.011 48.8516 63.4693 49.1246 62.9927C49.4019 62.516 49.7767 62.1412 50.2491 61.8682C50.7257 61.5952 51.2674 61.4587 51.8741 61.4587C52.4807 61.4587 53.0224 61.5952 53.4991 61.8682C53.9757 62.1412 54.3506 62.516 54.6236 62.9927C54.8966 63.4693 55.0331 64.011 55.0331 64.6177V68.0497C55.0331 68.6563 54.8966 69.198 54.6236 69.6747C54.3506 70.147 53.9757 70.5218 53.4991 70.7992C53.0224 71.0722 52.4807 71.2087 51.8741 71.2087ZM51.8741 70.0972C52.2424 70.0972 52.5761 70.0083 52.8751 69.8307C53.1741 69.653 53.4124 69.4147 53.5901 69.1157C53.7677 68.8123 53.8566 68.4787 53.8566 68.1147V64.5462C53.8566 64.1778 53.7677 63.8442 53.5901 63.5452C53.4124 63.2462 53.1741 63.0078 52.8751 62.8302C52.5761 62.6525 52.2424 62.5637 51.8741 62.5637C51.5101 62.5637 51.1764 62.6525 50.8731 62.8302C50.5741 63.0078 50.3357 63.2462 50.1581 63.5452C49.9804 63.8442 49.8916 64.1778 49.8916 64.5462V68.1147C49.8916 68.4787 49.9804 68.8123 50.1581 69.1157C50.3357 69.4147 50.5741 69.653 50.8731 69.8307C51.1764 70.0083 51.5101 70.0972 51.8741 70.0972Z" fill="#ACACAC"/>
<path d="M49.2977 94.1351C49.8957 94.1351 50.4352 94.2781 50.9162 94.5641C51.3972 94.8501 51.7785 95.2401 52.0602 95.7341C52.3462 96.2281 52.4892 96.7893 52.4892 97.4176V100.531C52.4892 101.185 52.3483 101.764 52.0667 102.267C51.785 102.769 51.395 103.164 50.8967 103.45C50.4027 103.736 49.835 103.879 49.1937 103.879C48.6823 103.879 48.2035 103.772 47.7572 103.56C47.3152 103.348 46.9403 103.047 46.6327 102.657L47.4972 101.89C47.6878 102.158 47.9327 102.375 48.2317 102.54C48.5307 102.7 48.8513 102.78 49.1937 102.78C49.6097 102.78 49.9758 102.68 50.2922 102.481C50.6128 102.282 50.862 102.022 51.0397 101.701C51.2217 101.38 51.3127 101.034 51.3127 100.661V98.7826L51.5662 99.0686C51.2975 99.4586 50.953 99.7706 50.5327 100.005C50.1123 100.239 49.6552 100.356 49.1612 100.356C48.5805 100.356 48.0605 100.219 47.6012 99.9461C47.1418 99.6731 46.7778 99.3048 46.5092 98.8411C46.2405 98.3731 46.1062 97.8488 46.1062 97.2681C46.1062 96.6874 46.2513 96.1609 46.5417 95.6886C46.832 95.2119 47.2177 94.8349 47.6987 94.5576C48.184 94.2759 48.717 94.1351 49.2977 94.1351ZM49.2977 95.2531C48.925 95.2531 48.5848 95.3441 48.2772 95.5261C47.9738 95.7038 47.7312 95.9464 47.5492 96.2541C47.3672 96.5574 47.2762 96.8954 47.2762 97.2681C47.2762 97.6408 47.365 97.9809 47.5427 98.2886C47.7247 98.5919 47.9673 98.8346 48.2707 99.0166C48.5783 99.1986 48.9185 99.2896 49.2912 99.2896C49.6638 99.2896 50.004 99.1986 50.3117 99.0166C50.6193 98.8346 50.862 98.5919 51.0397 98.2886C51.2217 97.9809 51.3127 97.6408 51.3127 97.2681C51.3127 96.8998 51.2217 96.5639 51.0397 96.2606C50.862 95.9529 50.6193 95.7081 50.3117 95.5261C50.0083 95.3441 49.6703 95.2531 49.2977 95.2531Z" fill="#ACACAC"/>
<path d="M49.3579 136.549C48.7599 136.549 48.2313 136.429 47.7719 136.191C47.3126 135.948 46.9529 135.613 46.6929 135.184C46.4329 134.755 46.3029 134.254 46.3029 133.682C46.3029 133.123 46.4351 132.618 46.6994 132.168C46.9681 131.717 47.3711 131.37 47.9084 131.128L47.8889 131.55C47.4513 131.338 47.1154 131.039 46.8814 130.653C46.6474 130.263 46.5304 129.832 46.5304 129.36C46.5304 128.831 46.6518 128.376 46.8944 127.995C47.1371 127.613 47.4708 127.319 47.8954 127.111C48.3201 126.903 48.8076 126.799 49.3579 126.799C49.9083 126.799 50.3958 126.903 50.8204 127.111C51.2451 127.319 51.5788 127.613 51.8214 127.995C52.0641 128.376 52.1854 128.831 52.1854 129.36C52.1854 129.832 52.0749 130.261 51.8539 130.647C51.6329 131.028 51.2928 131.329 50.8334 131.55L50.8074 131.134C51.3448 131.368 51.7478 131.713 52.0164 132.168C52.2894 132.618 52.4259 133.123 52.4259 133.682C52.4259 134.254 52.2938 134.755 52.0294 135.184C51.7694 135.613 51.4076 135.948 50.9439 136.191C50.4846 136.429 49.9559 136.549 49.3579 136.549ZM49.3579 135.444C49.9039 135.444 50.3459 135.294 50.6839 134.995C51.0263 134.692 51.1974 134.254 51.1974 133.682C51.1974 133.106 51.0284 132.668 50.6904 132.369C50.3568 132.066 49.9126 131.914 49.3579 131.914C48.8076 131.914 48.3634 132.066 48.0254 132.369C47.6918 132.668 47.5249 133.106 47.5249 133.682C47.5249 134.254 47.6939 134.692 48.0319 134.995C48.3699 135.294 48.8119 135.444 49.3579 135.444ZM49.3579 130.803C49.8346 130.803 50.2203 130.683 50.5149 130.445C50.8096 130.202 50.9569 129.841 50.9569 129.36C50.9569 128.879 50.8096 128.519 50.5149 128.281C50.2203 128.038 49.8346 127.917 49.3579 127.917C48.8856 127.917 48.4999 128.038 48.2009 128.281C47.9063 128.519 47.7589 128.879 47.7589 129.36C47.7589 129.841 47.9063 130.202 48.2009 130.445C48.4999 130.683 48.8856 130.803 49.3579 130.803Z" fill="#ACACAC"/>
<path d="M47.4348 169.025L50.8018 160.777H46.5508V159.665H52.0433V160.777L48.6828 169.025H47.4348Z" fill="#ACACAC"/>
<path d="M49.4277 201.89C48.834 201.89 48.2945 201.747 47.8092 201.461C47.3282 201.175 46.9447 200.785 46.6587 200.291C46.377 199.793 46.2362 199.232 46.2362 198.608V195.494C46.2362 194.84 46.377 194.261 46.6587 193.759C46.9447 193.252 47.3347 192.857 47.8287 192.576C48.327 192.29 48.8947 192.147 49.5317 192.147C50.0473 192.147 50.5262 192.253 50.9682 192.465C51.4145 192.673 51.7893 192.974 52.0927 193.369L51.2282 194.136C51.0418 193.863 50.7992 193.646 50.5002 193.486C50.2012 193.325 49.8783 193.245 49.5317 193.245C49.12 193.245 48.7538 193.345 48.4332 193.544C48.1168 193.739 47.8677 193.999 47.6857 194.324C47.5037 194.645 47.4127 194.992 47.4127 195.364V197.243L47.1592 196.957C47.4322 196.567 47.7788 196.255 48.1992 196.021C48.6195 195.787 49.0745 195.67 49.5642 195.67C50.1448 195.67 50.6648 195.806 51.1242 196.079C51.5878 196.352 51.9518 196.723 52.2162 197.191C52.4848 197.654 52.6192 198.177 52.6192 198.757C52.6192 199.338 52.474 199.864 52.1837 200.337C51.8933 200.809 51.5055 201.186 51.0202 201.468C50.5392 201.749 50.0083 201.89 49.4277 201.89ZM49.4277 200.772C49.8003 200.772 50.1405 200.683 50.4482 200.506C50.7558 200.324 50.9985 200.081 51.1762 199.778C51.3582 199.47 51.4492 199.13 51.4492 198.757C51.4492 198.385 51.3582 198.044 51.1762 197.737C50.9985 197.429 50.7558 197.186 50.4482 197.009C50.1448 196.827 49.8068 196.736 49.4342 196.736C49.0615 196.736 48.7213 196.827 48.4137 197.009C48.1103 197.186 47.8677 197.429 47.6857 197.737C47.5037 198.044 47.4127 198.385 47.4127 198.757C47.4127 199.126 47.5015 199.464 47.6792 199.771C47.8612 200.075 48.1038 200.317 48.4072 200.499C48.7148 200.681 49.055 200.772 49.4277 200.772Z" fill="#ACACAC"/>
<path d="M49.2718 234.56C48.7908 234.56 48.3423 234.461 47.9263 234.261C47.5146 234.062 47.1614 233.789 46.8668 233.442C46.5764 233.091 46.3684 232.688 46.2428 232.233L47.3543 231.934C47.4323 232.242 47.5709 232.508 47.7703 232.734C47.9696 232.955 48.2014 233.128 48.4658 233.254C48.7344 233.375 49.0139 233.436 49.3043 233.436C49.6856 233.436 50.0279 233.345 50.3313 233.163C50.6389 232.976 50.8816 232.732 51.0593 232.428C51.2369 232.121 51.3258 231.785 51.3258 231.421C51.3258 231.044 51.2326 230.704 51.0463 230.4C50.8643 230.093 50.6194 229.85 50.3118 229.672C50.0041 229.495 49.6683 229.406 49.3043 229.406C48.8926 229.406 48.5394 229.492 48.2448 229.666C47.9544 229.835 47.7248 230.043 47.5558 230.29L46.5288 229.9L46.8148 225.005H51.8393V226.104H47.3738L47.8873 225.623L47.6468 229.542L47.3933 229.211C47.6533 228.933 47.9631 228.719 48.3228 228.567C48.6868 228.416 49.0573 228.34 49.4343 228.34C50.0149 228.34 50.5349 228.476 50.9943 228.749C51.4536 229.018 51.8176 229.386 52.0863 229.854C52.3549 230.318 52.4893 230.84 52.4893 231.421C52.4893 231.997 52.3419 232.524 52.0473 233C51.7526 233.473 51.3604 233.852 50.8708 234.138C50.3854 234.419 49.8524 234.56 49.2718 234.56Z" fill="#ACACAC"/>
<path d="M50.4442 267.035V265.313H46.1412V264.214L49.2287 257.675H50.5417L47.4542 264.214H50.4442V261.582H51.6142V264.214H52.5892V265.313H51.6142V267.035H50.4442Z" fill="#ACACAC"/>
<path d="M49.1845 299.887C48.7209 299.887 48.2897 299.803 47.891 299.634C47.4924 299.46 47.1479 299.218 46.8575 298.906C46.5715 298.589 46.3614 298.214 46.227 297.781L47.3385 297.463C47.4815 297.896 47.7199 298.225 48.0535 298.451C48.3872 298.676 48.762 298.786 49.178 298.782C49.5594 298.773 49.8887 298.687 50.166 298.522C50.4477 298.353 50.6644 298.123 50.816 297.833C50.972 297.543 51.05 297.207 51.05 296.826C51.05 296.245 50.8767 295.775 50.53 295.415C50.1834 295.051 49.7284 294.869 49.165 294.869C49.009 294.869 48.8444 294.891 48.671 294.934C48.502 294.977 48.3439 295.038 48.1965 295.116L47.6375 294.2L51.1085 291.06L51.258 291.45H46.5975V290.345H52.116V291.457L49.1585 294.291L49.1455 293.881C49.7652 293.838 50.3069 293.94 50.7705 294.187C51.2342 294.434 51.5939 294.787 51.8495 295.246C52.1095 295.705 52.2395 296.232 52.2395 296.826C52.2395 297.424 52.1052 297.952 51.8365 298.412C51.5679 298.871 51.2039 299.233 50.7445 299.497C50.2852 299.757 49.7652 299.887 49.1845 299.887Z" fill="#ACACAC"/>
<path d="M46.2555 332.37L46.262 331.33L50.4155 327.593C50.7621 327.281 50.994 326.986 51.111 326.709C51.2323 326.427 51.293 326.139 51.293 325.844C51.293 325.485 51.2106 325.16 51.046 324.869C50.8813 324.579 50.656 324.349 50.37 324.18C50.0883 324.011 49.7676 323.927 49.408 323.927C49.0353 323.927 48.7038 324.016 48.4135 324.193C48.1231 324.367 47.8935 324.599 47.7245 324.889C47.5598 325.179 47.4796 325.496 47.484 325.838H46.301C46.301 325.249 46.4375 324.729 46.7105 324.278C46.9835 323.823 47.354 323.468 47.822 323.212C48.2943 322.952 48.8295 322.822 49.4275 322.822C50.0081 322.822 50.5281 322.956 50.9875 323.225C51.4468 323.489 51.8086 323.851 52.073 324.31C52.3416 324.765 52.476 325.281 52.476 325.857C52.476 326.265 52.424 326.618 52.32 326.917C52.2203 327.216 52.0643 327.493 51.852 327.749C51.6396 328 51.3731 328.269 51.0525 328.555L47.601 331.655L47.4515 331.265H52.476V332.37H46.2555Z" fill="#ACACAC"/>
<path d="M49.2642 365.047V356.967L47.5027 358.033V356.74L49.2642 355.687H50.4407V365.047H49.2642Z" fill="#ACACAC"/>
<path d="M49.3634 397.912C48.7568 397.912 48.2151 397.775 47.7384 397.502C47.2661 397.225 46.8913 396.85 46.6139 396.378C46.3409 395.901 46.2044 395.359 46.2044 394.753V391.321C46.2044 390.714 46.3409 390.172 46.6139 389.696C46.8913 389.219 47.2661 388.844 47.7384 388.571C48.2151 388.298 48.7568 388.162 49.3634 388.162C49.9701 388.162 50.5118 388.298 50.9884 388.571C51.4651 388.844 51.8399 389.219 52.1129 389.696C52.3859 390.172 52.5224 390.714 52.5224 391.321V394.753C52.5224 395.359 52.3859 395.901 52.1129 396.378C51.8399 396.85 51.4651 397.225 50.9884 397.502C50.5118 397.775 49.9701 397.912 49.3634 397.912ZM49.3634 396.8C49.7318 396.8 50.0654 396.711 50.3644 396.534C50.6634 396.356 50.9018 396.118 51.0794 395.819C51.2571 395.515 51.3459 395.182 51.3459 394.818V391.249C51.3459 390.881 51.2571 390.547 51.0794 390.248C50.9018 389.949 50.6634 389.711 50.3644 389.533C50.0654 389.356 49.7318 389.267 49.3634 389.267C48.9994 389.267 48.6658 389.356 48.3624 389.533C48.0634 389.711 47.8251 389.949 47.6474 390.248C47.4698 390.547 47.3809 390.881 47.3809 391.249V394.818C47.3809 395.182 47.4698 395.515 47.6474 395.819C47.8251 396.118 48.0634 396.356 48.3624 396.534C48.6658 396.711 48.9994 396.8 49.3634 396.8Z" fill="#ACACAC"/>
<path d="M74.2116 422.08C73.6049 422.08 73.0632 421.943 72.5866 421.67C72.1142 421.393 71.7394 421.018 71.4621 420.546C71.1891 420.069 71.0526 419.527 71.0526 418.921V415.489C71.0526 414.882 71.1891 414.34 71.4621 413.864C71.7394 413.387 72.1142 413.012 72.5866 412.739C73.0632 412.466 73.6049 412.33 74.2116 412.33C74.8182 412.33 75.3599 412.466 75.8366 412.739C76.3132 413.012 76.6881 413.387 76.9611 413.864C77.2341 414.34 77.3706 414.882 77.3706 415.489V418.921C77.3706 419.527 77.2341 420.069 76.9611 420.546C76.6881 421.018 76.3132 421.393 75.8366 421.67C75.3599 421.943 74.8182 422.08 74.2116 422.08ZM74.2116 420.968C74.5799 420.968 74.9136 420.879 75.2126 420.702C75.5116 420.524 75.7499 420.286 75.9276 419.987C76.1052 419.683 76.1941 419.35 76.1941 418.986V415.417C76.1941 415.049 76.1052 414.715 75.9276 414.416C75.7499 414.117 75.5116 413.879 75.2126 413.701C74.9136 413.524 74.5799 413.435 74.2116 413.435C73.8476 413.435 73.5139 413.524 73.2106 413.701C72.9116 413.879 72.6732 414.117 72.4956 414.416C72.3179 414.715 72.2291 415.049 72.2291 415.417V418.986C72.2291 419.35 72.3179 419.683 72.4956 419.987C72.6732 420.286 72.9116 420.524 73.2106 420.702C73.5139 420.879 73.8476 420.968 74.2116 420.968Z" fill="#ACACAC"/>
<path d="M119.27 421.885V413.805L117.509 414.871V413.578L119.27 412.525H120.447V421.885H119.27Z" fill="#ACACAC"/>
<path d="M160.964 421.878L160.971 420.838L165.124 417.101C165.471 416.789 165.703 416.494 165.82 416.217C165.941 415.935 166.002 415.647 166.002 415.352C166.002 414.993 165.92 414.668 165.755 414.377C165.59 414.087 165.365 413.857 165.079 413.688C164.797 413.519 164.477 413.435 164.117 413.435C163.744 413.435 163.413 413.524 163.122 413.701C162.832 413.875 162.602 414.106 162.433 414.397C162.269 414.687 162.189 415.003 162.193 415.346H161.01C161.01 414.756 161.146 414.236 161.419 413.786C161.692 413.331 162.063 412.975 162.531 412.72C163.003 412.46 163.538 412.33 164.136 412.33C164.717 412.33 165.237 412.464 165.696 412.733C166.156 412.997 166.518 413.359 166.782 413.818C167.051 414.273 167.185 414.789 167.185 415.365C167.185 415.773 167.133 416.126 167.029 416.425C166.929 416.724 166.773 417.001 166.561 417.257C166.349 417.508 166.082 417.777 165.761 418.063L162.31 421.163L162.16 420.773H167.185V421.878H160.964Z" fill="#ACACAC"/>
<path d="M209.377 422.067C208.913 422.067 208.482 421.982 208.083 421.813C207.685 421.64 207.34 421.397 207.05 421.085C206.764 420.769 206.554 420.394 206.419 419.961L207.531 419.642C207.674 420.076 207.912 420.405 208.246 420.63C208.58 420.856 208.954 420.966 209.37 420.962C209.752 420.953 210.081 420.866 210.358 420.702C210.64 420.533 210.857 420.303 211.008 420.013C211.164 419.722 211.242 419.387 211.242 419.005C211.242 418.425 211.069 417.954 210.722 417.595C210.376 417.231 209.921 417.049 209.357 417.049C209.201 417.049 209.037 417.07 208.863 417.114C208.694 417.157 208.536 417.218 208.389 417.296L207.83 416.379L211.301 413.24L211.45 413.63H206.79V412.525H212.308V413.636L209.351 416.47L209.338 416.061C209.958 416.017 210.499 416.119 210.963 416.366C211.427 416.613 211.786 416.966 212.042 417.426C212.302 417.885 212.432 418.412 212.432 419.005C212.432 419.603 212.298 420.132 212.029 420.591C211.76 421.051 211.396 421.412 210.937 421.677C210.478 421.937 209.958 422.067 209.377 422.067Z" fill="#ACACAC"/>
<path d="M256.438 421.885V420.162H252.135V419.064L255.223 412.525H256.536L253.448 419.064H256.438V416.431H257.608V419.064H258.583V420.162H257.608V421.885H256.438Z" fill="#ACACAC"/>
<path d="M300.75 422.08C300.269 422.08 299.821 421.98 299.405 421.781C298.993 421.581 298.64 421.308 298.345 420.962C298.055 420.611 297.847 420.208 297.721 419.753L298.833 419.454C298.911 419.761 299.049 420.028 299.249 420.253C299.448 420.474 299.68 420.648 299.944 420.773C300.213 420.895 300.492 420.955 300.783 420.955C301.164 420.955 301.506 420.864 301.81 420.682C302.117 420.496 302.36 420.251 302.538 419.948C302.715 419.64 302.804 419.304 302.804 418.94C302.804 418.563 302.711 418.223 302.525 417.92C302.343 417.612 302.098 417.369 301.79 417.192C301.483 417.014 301.147 416.925 300.783 416.925C300.371 416.925 300.018 417.012 299.723 417.185C299.433 417.354 299.203 417.562 299.034 417.809L298.007 417.419L298.293 412.525H303.318V413.623H298.852L299.366 413.142L299.125 417.062L298.872 416.73C299.132 416.453 299.442 416.238 299.801 416.087C300.165 415.935 300.536 415.859 300.913 415.859C301.493 415.859 302.013 415.996 302.473 416.269C302.932 416.537 303.296 416.906 303.565 417.374C303.833 417.837 303.968 418.36 303.968 418.94C303.968 419.517 303.82 420.043 303.526 420.52C303.231 420.992 302.839 421.371 302.349 421.657C301.864 421.939 301.331 422.08 300.75 422.08Z" fill="#ACACAC"/>
<path d="M346.759 422.08C346.165 422.08 345.626 421.937 345.14 421.651C344.659 421.365 344.276 420.975 343.99 420.481C343.708 419.982 343.567 419.421 343.567 418.797V415.684C343.567 415.029 343.708 414.451 343.99 413.948C344.276 413.441 344.666 413.047 345.16 412.765C345.658 412.479 346.226 412.336 346.863 412.336C347.378 412.336 347.857 412.442 348.299 412.655C348.746 412.863 349.12 413.164 349.424 413.558L348.559 414.325C348.373 414.052 348.13 413.836 347.831 413.675C347.532 413.515 347.209 413.435 346.863 413.435C346.451 413.435 346.085 413.534 345.764 413.734C345.448 413.929 345.199 414.189 345.017 414.514C344.835 414.834 344.744 415.181 344.744 415.554V417.432L344.49 417.146C344.763 416.756 345.11 416.444 345.53 416.21C345.951 415.976 346.406 415.859 346.895 415.859C347.476 415.859 347.996 415.996 348.455 416.269C348.919 416.542 349.283 416.912 349.547 417.38C349.816 417.844 349.95 418.366 349.95 418.947C349.95 419.527 349.805 420.054 349.515 420.526C349.224 420.999 348.837 421.376 348.351 421.657C347.87 421.939 347.339 422.08 346.759 422.08ZM346.759 420.962C347.131 420.962 347.472 420.873 347.779 420.695C348.087 420.513 348.33 420.271 348.507 419.967C348.689 419.66 348.78 419.319 348.78 418.947C348.78 418.574 348.689 418.234 348.507 417.926C348.33 417.619 348.087 417.376 347.779 417.198C347.476 417.016 347.138 416.925 346.765 416.925C346.393 416.925 346.052 417.016 345.745 417.198C345.441 417.376 345.199 417.619 345.017 417.926C344.835 418.234 344.744 418.574 344.744 418.947C344.744 419.315 344.833 419.653 345.01 419.961C345.192 420.264 345.435 420.507 345.738 420.689C346.046 420.871 346.386 420.962 346.759 420.962Z" fill="#ACACAC"/>
<path d="M390.647 421.885L394.014 413.636H389.763V412.525H395.256V413.636L391.895 421.885H390.647Z" fill="#ACACAC"/>
<path d="M437.664 422.08C437.066 422.08 436.537 421.961 436.078 421.722C435.619 421.48 435.259 421.144 434.999 420.715C434.739 420.286 434.609 419.785 434.609 419.213C434.609 418.654 434.741 418.149 435.006 417.699C435.274 417.248 435.677 416.901 436.215 416.659L436.195 417.081C435.757 416.869 435.422 416.57 435.188 416.184C434.954 415.794 434.837 415.363 434.837 414.891C434.837 414.362 434.958 413.907 435.201 413.526C435.443 413.144 435.777 412.85 436.202 412.642C436.626 412.434 437.114 412.33 437.664 412.33C438.214 412.33 438.702 412.434 439.127 412.642C439.551 412.85 439.885 413.144 440.128 413.526C440.37 413.907 440.492 414.362 440.492 414.891C440.492 415.363 440.381 415.792 440.16 416.178C439.939 416.559 439.599 416.86 439.14 417.081L439.114 416.665C439.651 416.899 440.054 417.244 440.323 417.699C440.596 418.149 440.732 418.654 440.732 419.213C440.732 419.785 440.6 420.286 440.336 420.715C440.076 421.144 439.714 421.48 439.25 421.722C438.791 421.961 438.262 422.08 437.664 422.08ZM437.664 420.975C438.21 420.975 438.652 420.825 438.99 420.526C439.332 420.223 439.504 419.785 439.504 419.213C439.504 418.637 439.335 418.199 438.997 417.9C438.663 417.597 438.219 417.445 437.664 417.445C437.114 417.445 436.67 417.597 436.332 417.9C435.998 418.199 435.831 418.637 435.831 419.213C435.831 419.785 436 420.223 436.338 420.526C436.676 420.825 437.118 420.975 437.664 420.975ZM437.664 416.334C438.141 416.334 438.526 416.215 438.821 415.976C439.116 415.734 439.263 415.372 439.263 414.891C439.263 414.41 439.116 414.05 438.821 413.812C438.526 413.569 438.141 413.448 437.664 413.448C437.192 413.448 436.806 413.569 436.507 413.812C436.212 414.05 436.065 414.41 436.065 414.891C436.065 415.372 436.212 415.734 436.507 415.976C436.806 416.215 437.192 416.334 437.664 416.334Z" fill="#ACACAC"/>
<path d="M483.386 412.336C483.984 412.336 484.523 412.479 485.004 412.765C485.485 413.051 485.866 413.441 486.148 413.935C486.434 414.429 486.577 414.99 486.577 415.619V418.732C486.577 419.387 486.436 419.965 486.155 420.468C485.873 420.97 485.483 421.365 484.985 421.651C484.491 421.937 483.923 422.08 483.282 422.08C482.77 422.08 482.291 421.974 481.845 421.761C481.403 421.549 481.028 421.248 480.721 420.858L481.585 420.091C481.776 420.359 482.021 420.576 482.32 420.741C482.619 420.901 482.939 420.981 483.282 420.981C483.698 420.981 484.064 420.882 484.38 420.682C484.701 420.483 484.95 420.223 485.128 419.902C485.31 419.582 485.401 419.235 485.401 418.862V416.984L485.654 417.27C485.385 417.66 485.041 417.972 484.621 418.206C484.2 418.44 483.743 418.557 483.249 418.557C482.668 418.557 482.148 418.42 481.689 418.147C481.23 417.874 480.866 417.506 480.597 417.042C480.328 416.574 480.194 416.05 480.194 415.469C480.194 414.889 480.339 414.362 480.63 413.89C480.92 413.413 481.306 413.036 481.787 412.759C482.272 412.477 482.805 412.336 483.386 412.336ZM483.386 413.454C483.013 413.454 482.673 413.545 482.365 413.727C482.062 413.905 481.819 414.148 481.637 414.455C481.455 414.759 481.364 415.097 481.364 415.469C481.364 415.842 481.453 416.182 481.631 416.49C481.813 416.793 482.055 417.036 482.359 417.218C482.666 417.4 483.006 417.491 483.379 417.491C483.752 417.491 484.092 417.4 484.4 417.218C484.707 417.036 484.95 416.793 485.128 416.49C485.31 416.182 485.401 415.842 485.401 415.469C485.401 415.101 485.31 414.765 485.128 414.462C484.95 414.154 484.707 413.909 484.4 413.727C484.096 413.545 483.758 413.454 483.386 413.454Z" fill="#ACACAC"/>
<path d="M528.542 421.885V413.805L526.78 414.871V413.578L528.542 412.525H529.718V421.885H528.542ZM535.09 422.08C534.484 422.08 533.942 421.943 533.465 421.67C532.993 421.393 532.618 421.018 532.341 420.546C532.068 420.069 531.931 419.527 531.931 418.921V415.489C531.931 414.882 532.068 414.34 532.341 413.864C532.618 413.387 532.993 413.012 533.465 412.739C533.942 412.466 534.484 412.33 535.09 412.33C535.697 412.33 536.239 412.466 536.715 412.739C537.192 413.012 537.567 413.387 537.84 413.864C538.113 414.34 538.249 414.882 538.249 415.489V418.921C538.249 419.527 538.113 420.069 537.84 420.546C537.567 421.018 537.192 421.393 536.715 421.67C536.239 421.943 535.697 422.08 535.09 422.08ZM535.09 420.968C535.459 420.968 535.792 420.879 536.091 420.702C536.39 420.524 536.629 420.286 536.806 419.987C536.984 419.683 537.073 419.35 537.073 418.986V415.417C537.073 415.049 536.984 414.715 536.806 414.416C536.629 414.117 536.39 413.879 536.091 413.701C535.792 413.524 535.459 413.435 535.09 413.435C534.726 413.435 534.393 413.524 534.089 413.701C533.79 413.879 533.552 414.117 533.374 414.416C533.197 414.715 533.108 415.049 533.108 415.417V418.986C533.108 419.35 533.197 419.683 533.374 419.987C533.552 420.286 533.79 420.524 534.089 420.702C534.393 420.879 534.726 420.968 535.09 420.968Z" fill="#ACACAC"/>
<rect x="328.861" y="118.234" width="167.204" height="35.5982" rx="17.7991" fill="#C92626"/>
<path d="M351.403 142.533V129.573H353.005V142.533H351.403ZM362.266 142.533V137.664C362.266 137.202 362.224 136.758 362.14 136.332C362.062 135.906 361.921 135.525 361.717 135.189C361.519 134.847 361.249 134.577 360.907 134.379C360.571 134.181 360.145 134.082 359.629 134.082C359.227 134.082 358.861 134.151 358.531 134.289C358.207 134.421 357.928 134.625 357.694 134.901C357.46 135.177 357.277 135.525 357.145 135.945C357.019 136.359 356.956 136.848 356.956 137.412L355.903 137.088C355.903 136.146 356.071 135.339 356.407 134.667C356.749 133.989 357.226 133.47 357.838 133.11C358.456 132.744 359.182 132.561 360.016 132.561C360.646 132.561 361.183 132.66 361.627 132.858C362.071 133.056 362.44 133.32 362.734 133.65C363.028 133.974 363.259 134.34 363.427 134.748C363.595 135.15 363.712 135.561 363.778 135.981C363.85 136.395 363.886 136.788 363.886 137.16V142.533H362.266ZM355.336 142.533V132.813H356.776V135.414H356.956V142.533H355.336ZM372.787 142.533V137.664C372.787 137.202 372.745 136.758 372.661 136.332C372.583 135.906 372.442 135.525 372.238 135.189C372.04 134.847 371.77 134.577 371.428 134.379C371.092 134.181 370.666 134.082 370.15 134.082C369.748 134.082 369.382 134.151 369.052 134.289C368.728 134.421 368.449 134.625 368.215 134.901C367.981 135.177 367.798 135.525 367.666 135.945C367.54 136.359 367.477 136.848 367.477 137.412L366.424 137.088C366.424 136.146 366.592 135.339 366.928 134.667C367.27 133.989 367.747 133.47 368.359 133.11C368.977 132.744 369.703 132.561 370.537 132.561C371.167 132.561 371.704 132.66 372.148 132.858C372.592 133.056 372.961 133.32 373.255 133.65C373.549 133.974 373.78 134.34 373.948 134.748C374.116 135.15 374.233 135.561 374.299 135.981C374.371 136.395 374.407 136.788 374.407 137.16V142.533H372.787ZM365.857 142.533V132.813H367.297V135.414H367.477V142.533H365.857ZM376.567 131.094V129.438H378.169V131.094H376.567ZM376.567 142.533V132.813H378.169V142.533H376.567ZM388.217 142.803C387.305 142.803 386.537 142.578 385.913 142.128C385.289 141.672 384.815 141.057 384.491 140.283C384.173 139.503 384.014 138.63 384.014 137.664C384.014 136.686 384.173 135.81 384.491 135.036C384.815 134.262 385.289 133.653 385.913 133.209C386.543 132.765 387.314 132.543 388.226 132.543C389.126 132.543 389.9 132.768 390.548 133.218C391.202 133.662 391.703 134.271 392.051 135.045C392.399 135.819 392.573 136.692 392.573 137.664C392.573 138.636 392.399 139.509 392.051 140.283C391.703 141.057 391.202 141.672 390.548 142.128C389.9 142.578 389.123 142.803 388.217 142.803ZM383.744 146.853V132.813H385.175V139.968H385.355V146.853H383.744ZM388.019 141.336C388.661 141.336 389.192 141.174 389.612 140.85C390.032 140.526 390.347 140.088 390.557 139.536C390.767 138.978 390.872 138.354 390.872 137.664C390.872 136.98 390.767 136.362 390.557 135.81C390.353 135.258 390.035 134.82 389.603 134.496C389.177 134.172 388.634 134.01 387.974 134.01C387.344 134.01 386.822 134.166 386.408 134.478C385.994 134.784 385.685 135.213 385.481 135.765C385.277 136.311 385.175 136.944 385.175 137.664C385.175 138.372 385.274 139.005 385.472 139.563C385.676 140.115 385.988 140.55 386.408 140.868C386.828 141.18 387.365 141.336 388.019 141.336ZM394.186 142.533V132.813H395.617V135.162L395.383 134.856C395.497 134.556 395.644 134.28 395.824 134.028C396.01 133.776 396.217 133.569 396.445 133.407C396.697 133.203 396.982 133.047 397.3 132.939C397.618 132.831 397.942 132.768 398.272 132.75C398.602 132.726 398.911 132.747 399.199 132.813V134.316C398.863 134.226 398.494 134.202 398.092 134.244C397.69 134.286 397.318 134.433 396.976 134.685C396.664 134.907 396.421 135.177 396.247 135.495C396.079 135.813 395.962 136.158 395.896 136.53C395.83 136.896 395.797 137.271 395.797 137.655V142.533H394.186ZM404.505 142.803C403.539 142.803 402.705 142.584 402.003 142.146C401.307 141.708 400.77 141.102 400.392 140.328C400.014 139.554 399.825 138.666 399.825 137.664C399.825 136.644 400.017 135.75 400.401 134.982C400.785 134.214 401.328 133.617 402.03 133.191C402.732 132.759 403.557 132.543 404.505 132.543C405.477 132.543 406.314 132.762 407.016 133.2C407.718 133.632 408.255 134.235 408.627 135.009C409.005 135.777 409.194 136.662 409.194 137.664C409.194 138.678 409.005 139.572 408.627 140.346C408.249 141.114 407.709 141.717 407.007 142.155C406.305 142.587 405.471 142.803 404.505 142.803ZM404.505 141.282C405.513 141.282 406.263 140.946 406.755 140.274C407.247 139.602 407.493 138.732 407.493 137.664C407.493 136.566 407.244 135.693 406.746 135.045C406.248 134.391 405.501 134.064 404.505 134.064C403.827 134.064 403.269 134.217 402.831 134.523C402.393 134.829 402.066 135.252 401.85 135.792C401.634 136.332 401.526 136.956 401.526 137.664C401.526 138.756 401.778 139.632 402.282 140.292C402.786 140.952 403.527 141.282 404.505 141.282ZM414.632 142.803C413.726 142.803 412.949 142.578 412.301 142.128C411.653 141.672 411.152 141.057 410.798 140.283C410.45 139.509 410.276 138.636 410.276 137.664C410.276 136.692 410.45 135.819 410.798 135.045C411.152 134.271 411.653 133.662 412.301 133.218C412.949 132.768 413.723 132.543 414.623 132.543C415.541 132.543 416.312 132.765 416.936 133.209C417.56 133.653 418.031 134.262 418.349 135.036C418.673 135.81 418.835 136.686 418.835 137.664C418.835 138.63 418.673 139.503 418.349 140.283C418.031 141.057 417.56 141.672 416.936 142.128C416.312 142.578 415.544 142.803 414.632 142.803ZM414.83 141.336C415.484 141.336 416.021 141.18 416.441 140.868C416.861 140.55 417.17 140.115 417.368 139.563C417.572 139.005 417.674 138.372 417.674 137.664C417.674 136.944 417.572 136.311 417.368 135.765C417.17 135.213 416.864 134.784 416.45 134.478C416.036 134.166 415.511 134.01 414.875 134.01C414.215 134.01 413.669 134.172 413.237 134.496C412.811 134.82 412.493 135.258 412.283 135.81C412.079 136.362 411.977 136.98 411.977 137.664C411.977 138.354 412.082 138.978 412.292 139.536C412.502 140.088 412.817 140.526 413.237 140.85C413.663 141.174 414.194 141.336 414.83 141.336ZM417.674 142.533V135.378H417.494V129.573H419.105V142.533H417.674ZM424.956 142.785C424.332 142.785 423.795 142.686 423.345 142.488C422.901 142.29 422.532 142.026 422.238 141.696C421.944 141.366 421.713 141 421.545 140.598C421.377 140.196 421.257 139.785 421.185 139.365C421.119 138.945 421.086 138.552 421.086 138.186V132.813H422.706V137.682C422.706 138.138 422.748 138.579 422.832 139.005C422.916 139.431 423.057 139.815 423.255 140.157C423.459 140.499 423.729 140.769 424.065 140.967C424.407 141.165 424.833 141.264 425.343 141.264C425.745 141.264 426.111 141.195 426.441 141.057C426.771 140.919 427.053 140.715 427.287 140.445C427.521 140.169 427.701 139.821 427.827 139.401C427.953 138.981 428.016 138.492 428.016 137.934L429.069 138.258C429.069 139.194 428.898 140.001 428.556 140.679C428.22 141.357 427.743 141.879 427.125 142.245C426.513 142.605 425.79 142.785 424.956 142.785ZM428.196 142.533V139.932H428.016V132.813H429.627V142.533H428.196ZM435.882 142.803C434.898 142.803 434.061 142.584 433.371 142.146C432.687 141.702 432.165 141.093 431.805 140.319C431.445 139.545 431.259 138.663 431.247 137.673C431.259 136.659 431.448 135.768 431.814 135C432.186 134.226 432.717 133.623 433.407 133.191C434.097 132.759 434.928 132.543 435.9 132.543C436.926 132.543 437.808 132.795 438.546 133.299C439.29 133.803 439.788 134.493 440.04 135.369L438.456 135.846C438.252 135.282 437.919 134.844 437.457 134.532C437.001 134.22 436.476 134.064 435.882 134.064C435.216 134.064 434.667 134.22 434.235 134.532C433.803 134.838 433.482 135.264 433.272 135.81C433.062 136.35 432.954 136.971 432.948 137.673C432.96 138.753 433.209 139.626 433.695 140.292C434.187 140.952 434.916 141.282 435.882 141.282C436.518 141.282 437.046 141.138 437.466 140.85C437.886 140.556 438.204 140.133 438.42 139.581L440.04 140.004C439.704 140.91 439.179 141.603 438.465 142.083C437.751 142.563 436.89 142.803 435.882 142.803ZM445.465 142.803C444.511 142.803 443.677 142.593 442.963 142.173C442.255 141.747 441.703 141.156 441.307 140.4C440.911 139.638 440.713 138.75 440.713 137.736C440.713 136.674 440.908 135.756 441.298 134.982C441.688 134.202 442.231 133.602 442.927 133.182C443.629 132.756 444.451 132.543 445.393 132.543C446.371 132.543 447.202 132.768 447.886 133.218C448.576 133.668 449.092 134.31 449.434 135.144C449.782 135.978 449.932 136.971 449.884 138.123H448.264V137.547C448.246 136.353 448.003 135.462 447.535 134.874C447.067 134.28 446.371 133.983 445.447 133.983C444.457 133.983 443.704 134.301 443.188 134.937C442.672 135.573 442.414 136.485 442.414 137.673C442.414 138.819 442.672 139.707 443.188 140.337C443.704 140.967 444.439 141.282 445.393 141.282C446.035 141.282 446.593 141.135 447.067 140.841C447.541 140.547 447.913 140.124 448.183 139.572L449.722 140.103C449.344 140.961 448.774 141.627 448.012 142.101C447.256 142.569 446.407 142.803 445.465 142.803ZM441.874 138.123V136.836H449.056V138.123H441.874ZM458.185 142.533V137.664C458.185 137.202 458.143 136.758 458.059 136.332C457.981 135.906 457.84 135.525 457.636 135.189C457.438 134.847 457.168 134.577 456.826 134.379C456.49 134.181 456.064 134.082 455.548 134.082C455.146 134.082 454.78 134.151 454.45 134.289C454.126 134.421 453.847 134.625 453.613 134.901C453.379 135.177 453.196 135.525 453.064 135.945C452.938 136.359 452.875 136.848 452.875 137.412L451.822 137.088C451.822 136.146 451.99 135.339 452.326 134.667C452.668 133.989 453.145 133.47 453.757 133.11C454.375 132.744 455.101 132.561 455.935 132.561C456.565 132.561 457.102 132.66 457.546 132.858C457.99 133.056 458.359 133.32 458.653 133.65C458.947 133.974 459.178 134.34 459.346 134.748C459.514 135.15 459.631 135.561 459.697 135.981C459.769 136.395 459.805 136.788 459.805 137.16V142.533H458.185ZM451.255 142.533V132.813H452.695V135.414H452.875V142.533H451.255ZM465.792 142.803C464.808 142.803 463.971 142.584 463.281 142.146C462.597 141.702 462.075 141.093 461.715 140.319C461.355 139.545 461.169 138.663 461.157 137.673C461.169 136.659 461.358 135.768 461.724 135C462.096 134.226 462.627 133.623 463.317 133.191C464.007 132.759 464.838 132.543 465.81 132.543C466.836 132.543 467.718 132.795 468.456 133.299C469.2 133.803 469.698 134.493 469.95 135.369L468.366 135.846C468.162 135.282 467.829 134.844 467.367 134.532C466.911 134.22 466.386 134.064 465.792 134.064C465.126 134.064 464.577 134.22 464.145 134.532C463.713 134.838 463.392 135.264 463.182 135.81C462.972 136.35 462.864 136.971 462.858 137.673C462.87 138.753 463.119 139.626 463.605 140.292C464.097 140.952 464.826 141.282 465.792 141.282C466.428 141.282 466.956 141.138 467.376 140.85C467.796 140.556 468.114 140.133 468.33 139.581L469.95 140.004C469.614 140.91 469.089 141.603 468.375 142.083C467.661 142.563 466.8 142.803 465.792 142.803ZM471.343 131.094V129.438H472.945V131.094H471.343ZM471.343 142.533V132.813H472.945V142.533H471.343Z" fill="white"/>
<rect x="431.341" y="267.295" width="105.716" height="35.5982" rx="17.7991" fill="#4064DF"/>
<path d="M451.459 291.594V278.634H456.58C456.706 278.634 456.856 278.64 457.03 278.652C457.204 278.658 457.372 278.676 457.534 278.706C458.236 278.814 458.824 279.054 459.298 279.426C459.778 279.798 460.138 280.269 460.378 280.839C460.618 281.403 460.738 282.03 460.738 282.72C460.738 283.404 460.615 284.031 460.369 284.601C460.129 285.165 459.769 285.636 459.289 286.014C458.815 286.386 458.23 286.626 457.534 286.734C457.372 286.758 457.204 286.776 457.03 286.788C456.856 286.8 456.706 286.806 456.58 286.806H453.061V291.594H451.459ZM453.061 285.285H456.526C456.64 285.285 456.769 285.279 456.913 285.267C457.063 285.255 457.204 285.234 457.336 285.204C457.75 285.108 458.086 284.934 458.344 284.682C458.608 284.424 458.8 284.124 458.92 283.782C459.04 283.434 459.1 283.08 459.1 282.72C459.1 282.36 459.04 282.009 458.92 281.667C458.8 281.319 458.608 281.016 458.344 280.758C458.086 280.5 457.75 280.326 457.336 280.236C457.204 280.2 457.063 280.179 456.913 280.173C456.769 280.161 456.64 280.155 456.526 280.155H453.061V285.285ZM466.298 291.864C465.344 291.864 464.51 291.654 463.796 291.234C463.088 290.808 462.536 290.217 462.14 289.461C461.744 288.699 461.546 287.811 461.546 286.797C461.546 285.735 461.741 284.817 462.131 284.043C462.521 283.263 463.064 282.663 463.76 282.243C464.462 281.817 465.284 281.604 466.226 281.604C467.204 281.604 468.035 281.829 468.719 282.279C469.409 282.729 469.925 283.371 470.267 284.205C470.615 285.039 470.765 286.032 470.717 287.184H469.097V286.608C469.079 285.414 468.836 284.523 468.368 283.935C467.9 283.341 467.204 283.044 466.28 283.044C465.29 283.044 464.537 283.362 464.021 283.998C463.505 284.634 463.247 285.546 463.247 286.734C463.247 287.88 463.505 288.768 464.021 289.398C464.537 290.028 465.272 290.343 466.226 290.343C466.868 290.343 467.426 290.196 467.9 289.902C468.374 289.608 468.746 289.185 469.016 288.633L470.555 289.164C470.177 290.022 469.607 290.688 468.845 291.162C468.089 291.63 467.24 291.864 466.298 291.864ZM462.707 287.184V285.897H469.889V287.184H462.707ZM476.176 291.864C475.27 291.864 474.493 291.639 473.845 291.189C473.197 290.733 472.696 290.118 472.342 289.344C471.994 288.57 471.82 287.697 471.82 286.725C471.82 285.753 471.994 284.88 472.342 284.106C472.696 283.332 473.197 282.723 473.845 282.279C474.493 281.829 475.267 281.604 476.167 281.604C477.085 281.604 477.856 281.826 478.48 282.27C479.104 282.714 479.575 283.323 479.893 284.097C480.217 284.871 480.379 285.747 480.379 286.725C480.379 287.691 480.217 288.564 479.893 289.344C479.575 290.118 479.104 290.733 478.48 291.189C477.856 291.639 477.088 291.864 476.176 291.864ZM476.374 290.397C477.028 290.397 477.565 290.241 477.985 289.929C478.405 289.611 478.714 289.176 478.912 288.624C479.116 288.066 479.218 287.433 479.218 286.725C479.218 286.005 479.116 285.372 478.912 284.826C478.714 284.274 478.408 283.845 477.994 283.539C477.58 283.227 477.055 283.071 476.419 283.071C475.759 283.071 475.213 283.233 474.781 283.557C474.355 283.881 474.037 284.319 473.827 284.871C473.623 285.423 473.521 286.041 473.521 286.725C473.521 287.415 473.626 288.039 473.836 288.597C474.046 289.149 474.361 289.587 474.781 289.911C475.207 290.235 475.738 290.397 476.374 290.397ZM479.218 291.594V284.439H479.038V278.634H480.649V291.594H479.218ZM482.811 291.594V281.874H484.242V284.223L484.008 283.917C484.122 283.617 484.269 283.341 484.449 283.089C484.635 282.837 484.842 282.63 485.07 282.468C485.322 282.264 485.607 282.108 485.925 282C486.243 281.892 486.567 281.829 486.897 281.811C487.227 281.787 487.536 281.808 487.824 281.874V283.377C487.488 283.287 487.119 283.263 486.717 283.305C486.315 283.347 485.943 283.494 485.601 283.746C485.289 283.968 485.046 284.238 484.872 284.556C484.704 284.874 484.587 285.219 484.521 285.591C484.455 285.957 484.422 286.332 484.422 286.716V291.594H482.811ZM493.13 291.864C492.164 291.864 491.33 291.645 490.628 291.207C489.932 290.769 489.395 290.163 489.017 289.389C488.639 288.615 488.45 287.727 488.45 286.725C488.45 285.705 488.642 284.811 489.026 284.043C489.41 283.275 489.953 282.678 490.655 282.252C491.357 281.82 492.182 281.604 493.13 281.604C494.102 281.604 494.939 281.823 495.641 282.261C496.343 282.693 496.88 283.296 497.252 284.07C497.63 284.838 497.819 285.723 497.819 286.725C497.819 287.739 497.63 288.633 497.252 289.407C496.874 290.175 496.334 290.778 495.632 291.216C494.93 291.648 494.096 291.864 493.13 291.864ZM493.13 290.343C494.138 290.343 494.888 290.007 495.38 289.335C495.872 288.663 496.118 287.793 496.118 286.725C496.118 285.627 495.869 284.754 495.371 284.106C494.873 283.452 494.126 283.125 493.13 283.125C492.452 283.125 491.894 283.278 491.456 283.584C491.018 283.89 490.691 284.313 490.475 284.853C490.259 285.393 490.151 286.017 490.151 286.725C490.151 287.817 490.403 288.693 490.907 289.353C491.411 290.013 492.152 290.343 493.13 290.343ZM499.62 291.594V278.364H501.222V291.594H499.62ZM503.743 291.594V278.364H505.345V291.594H503.743ZM511.825 291.864C510.859 291.864 510.025 291.645 509.323 291.207C508.627 290.769 508.09 290.163 507.712 289.389C507.334 288.615 507.145 287.727 507.145 286.725C507.145 285.705 507.337 284.811 507.721 284.043C508.105 283.275 508.648 282.678 509.35 282.252C510.052 281.82 510.877 281.604 511.825 281.604C512.797 281.604 513.634 281.823 514.336 282.261C515.038 282.693 515.575 283.296 515.947 284.07C516.325 284.838 516.514 285.723 516.514 286.725C516.514 287.739 516.325 288.633 515.947 289.407C515.569 290.175 515.029 290.778 514.327 291.216C513.625 291.648 512.791 291.864 511.825 291.864ZM511.825 290.343C512.833 290.343 513.583 290.007 514.075 289.335C514.567 288.663 514.813 287.793 514.813 286.725C514.813 285.627 514.564 284.754 514.066 284.106C513.568 283.452 512.821 283.125 511.825 283.125C511.147 283.125 510.589 283.278 510.151 283.584C509.713 283.89 509.386 284.313 509.17 284.853C508.954 285.393 508.846 286.017 508.846 286.725C508.846 287.817 509.098 288.693 509.602 289.353C510.106 290.013 510.847 290.343 511.825 290.343Z" fill="white"/>
</g>
<defs>
<filter id="filter0_f_1390_7920" x="-9" y="-479.707" width="997" height="982" filterUnits="userSpaceOnUse" color-interpolation-filters="sRGB">
<feFlood flood-opacity="0" result="BackgroundImageFix"/>
<feBlend mode="normal" in="SourceGraphic" in2="BackgroundImageFix" result="shape"/>
<feGaussianBlur stdDeviation="182" result="effect1_foregroundBlur_1390_7920"/>
</filter>
<filter id="filter1_f_1390_7920" x="-101" y="-97.707" width="940" height="929" filterUnits="userSpaceOnUse" color-interpolation-filters="sRGB">
<feFlood flood-opacity="0" result="BackgroundImageFix"/>
<feBlend mode="normal" in="SourceGraphic" in2="BackgroundImageFix" result="shape"/>
<feGaussianBlur stdDeviation="182" result="effect1_foregroundBlur_1390_7920"/>
</filter>
<filter id="filter2_f_1390_7920" x="-500" y="-199.707" width="1008" height="1008" filterUnits="userSpaceOnUse" color-interpolation-filters="sRGB">
<feFlood flood-opacity="0" result="BackgroundImageFix"/>
<feBlend mode="normal" in="SourceGraphic" in2="BackgroundImageFix" result="shape"/>
<feGaussianBlur stdDeviation="182" result="effect1_foregroundBlur_1390_7920"/>
</filter>
<linearGradient id="paint0_linear_1390_7920" x1="59.7663" y1="351.59" x2="542.413" y2="154.982" gradientUnits="userSpaceOnUse">
<stop stop-color="#631313"/>
<stop offset="0.485577" stop-color="#C92626"/>
<stop offset="1" stop-color="#EA3030"/>
</linearGradient>
<linearGradient id="paint1_linear_1390_7920" x1="536.077" y1="325.563" x2="67.6823" y2="250.337" gradientUnits="userSpaceOnUse">
<stop stop-color="#233679"/>
<stop offset="0.485577" stop-color="#4064DF"/>
<stop offset="0.947115" stop-color="#6688FF"/>
</linearGradient>
<clipPath id="clip0_1390_7920">
<rect width="588" height="471" rx="20" fill="white"/>
</clipPath>
</defs>
</svg>
