<svg width="59" height="45" viewBox="0 0 59 45" fill="none" xmlns="http://www.w3.org/2000/svg">
<path fill-rule="evenodd" clip-rule="evenodd" d="M8.02154 5.618C6.16606 7.38365 4.07101 9.37726 0 9.37726V6.96665C3.22859 6.96665 4.79103 5.49289 6.59072 3.7804L6.6085 3.76348C8.46587 1.99606 10.5635 0 14.6428 0C18.7209 0 20.8159 1.99503 22.6713 3.76192L22.691 3.7807C24.4886 5.49252 26.0512 6.96665 29.2855 6.96665C32.5199 6.96665 34.0825 5.49252 35.8801 3.7807L35.8998 3.76192C37.7552 1.99502 39.8502 0 43.9283 0C48.0064 0 50.1014 1.99502 51.9568 3.76192L51.9765 3.7807C53.7741 5.49252 55.3367 6.96665 58.5711 6.96665V9.37726C54.4929 9.37726 52.398 7.38224 50.5426 5.61534L50.5228 5.59656C48.7252 3.88474 47.1626 2.41061 43.9283 2.41061C40.694 2.41061 39.1314 3.88474 37.3337 5.59656L37.314 5.61534C35.4586 7.38224 33.3636 9.37726 29.2855 9.37726C25.2074 9.37726 23.1124 7.38223 21.257 5.61534L21.2373 5.59656C19.4397 3.88474 17.8771 2.41061 14.6428 2.41061C11.4081 2.41061 9.84267 3.88511 8.04376 5.59686L8.02154 5.618Z" fill="#4064DF"/>
<path fill-rule="evenodd" clip-rule="evenodd" d="M8.02154 40.3307C6.16606 42.0964 4.071 44.09 0 44.09V41.6794C3.22859 41.6794 4.79103 40.2056 6.59072 38.4931L6.6085 38.4762C8.46587 36.7088 10.5635 34.7127 14.6428 34.7127C18.7209 34.7127 20.8159 36.7078 22.6713 38.4747L22.691 38.4934C24.4886 40.2053 26.0512 41.6794 29.2855 41.6794C32.5199 41.6794 34.0825 40.2053 35.8801 38.4934L35.8998 38.4747C37.7552 36.7078 39.8502 34.7127 43.9283 34.7127C48.0064 34.7127 50.1014 36.7078 51.9568 38.4747L51.9765 38.4934C53.7741 40.2053 55.3367 41.6794 58.5711 41.6794V44.09C54.4929 44.09 52.398 42.095 50.5426 40.3281L50.5228 40.3093C48.7252 38.5975 47.1626 37.1233 43.9283 37.1233C40.694 37.1233 39.1314 38.5975 37.3337 40.3093L37.314 40.3281C35.4586 42.095 33.3636 44.09 29.2855 44.09C25.2074 44.09 23.1124 42.095 21.257 40.3281L21.2373 40.3093C19.4397 38.5975 17.8771 37.1233 14.6428 37.1233C11.4081 37.1233 9.84267 38.5978 8.04376 40.3096L8.02154 40.3307Z" fill="#4064DF"/>
</svg>
