<svg width="655" height="33" viewBox="0 0 655 33" fill="none" xmlns="http://www.w3.org/2000/svg">
<g clip-path="url(#clip0_1372_9606)">
<path fill-rule="evenodd" clip-rule="evenodd" d="M260.167 3.04082C261.972 1.16688 264.508 0 267.317 0C271.92 0 275.791 3.13476 276.914 7.38696C276.914 7.38696 273.438 7.44135 271.243 7.13974C268.81 6.80352 267.42 6.5118 265.131 5.62675C263.094 4.84059 260.172 3.04082 260.172 3.04082M277.146 8.57362C277.112 8.3264 277.072 8.08413 277.018 7.84185C277.018 7.84185 272.137 7.91107 269.072 7.43641C265.749 6.92219 263.811 6.58102 260.755 5.17681C260.103 4.8752 259.742 4.65764 259.109 4.34615C258.773 4.83564 258.481 5.35975 258.239 5.90858C258.239 5.90858 260.172 6.56125 261.428 6.89747C264.103 7.60946 265.67 7.8023 268.414 8.12863C271.796 8.53407 277.141 8.57362 277.141 8.57362M268.508 9.49329L277.225 9.53284C277.22 9.36968 277.21 9.20651 277.196 9.04334C277.196 9.04334 271.46 9.08784 267.816 8.76646C263.865 8.4154 261.537 8.01985 257.764 7.21885C257.591 7.83691 257.472 8.47968 257.423 9.14223L268.508 9.49329ZM260.167 16.544C261.972 18.418 264.508 19.5848 267.312 19.5848C271.915 19.5848 275.786 16.4501 276.909 12.1979C276.909 12.1979 273.433 12.1435 271.238 12.4451C268.805 12.7813 267.416 13.073 265.126 13.9581C263.089 14.7443 260.167 16.544 260.167 16.544ZM268.419 11.4562C265.67 11.7875 264.108 11.9754 261.433 12.6874C260.172 13.0236 258.244 13.6763 258.244 13.6763C258.486 14.2251 258.778 14.7492 259.114 15.2387C259.747 14.9223 260.108 14.7097 260.76 14.408C263.811 13.0038 265.754 12.6627 269.077 12.1484C272.142 11.6738 277.023 11.743 277.023 11.743C277.072 11.5007 277.116 11.2584 277.151 11.0112C277.151 11.0112 271.806 11.0508 268.424 11.4562M257.423 10.4426C257.472 11.1052 257.591 11.7479 257.764 12.366C261.542 11.565 263.865 11.1694 267.816 10.8184C271.46 10.497 277.196 10.5415 277.196 10.5415C277.21 10.3783 277.22 10.2201 277.225 10.057L268.508 10.0916L257.423 10.4426Z" fill="#E42313"/>
<path d="M288.829 19.031C294.426 19.031 299.193 15.0607 300.523 10.0915C301.205 7.55505 300.82 5.17184 299.445 3.38196C298.13 1.67119 296.068 0.726807 293.635 0.726807C288.656 0.726807 283.524 4.77134 282.189 9.74048L278.149 24.821L283.222 22.1856L286.461 10.0965C287.208 7.31277 290.07 5.04823 292.844 5.04823C294.075 5.04823 295.104 5.50806 295.742 6.33872C296.419 7.22377 296.602 8.43021 296.251 9.74048C295.504 12.5242 292.607 14.8678 289.868 14.7887C287.128 14.7096 286.456 13.5971 286.456 13.5971L285.319 17.7109C285.319 17.7109 286.036 19.0409 288.829 19.0409" fill="white"/>
<path fill-rule="evenodd" clip-rule="evenodd" d="M395.857 0.682312C394.917 0.682312 394.121 1.4042 394.121 2.38319C394.121 3.36219 394.917 4.09396 395.857 4.09396C396.796 4.09396 397.582 3.37208 397.582 2.38319C397.582 1.39431 396.786 0.682312 395.857 0.682312ZM395.857 3.81213C395.075 3.81213 394.467 3.20891 394.467 2.38814C394.467 1.56736 395.075 0.969088 395.857 0.969088C396.638 0.969088 397.236 1.57725 397.236 2.38814C397.236 3.19902 396.628 3.81213 395.857 3.81213ZM396.643 1.96786C396.643 1.57725 396.41 1.40914 395.946 1.40914H395.194V3.37702H395.491V2.52164H395.832L396.351 3.37702H396.687L396.129 2.51175C396.415 2.47714 396.638 2.32386 396.638 1.96786M395.496 2.26947V1.66131H395.901C396.109 1.66131 396.331 1.70581 396.331 1.94808C396.331 2.24969 396.104 2.26947 395.852 2.26947H395.496Z" fill="white"/>
<path fill-rule="evenodd" clip-rule="evenodd" d="M306.056 7.72317C307.356 6.03713 309.373 4.92958 311.287 4.92958H313.808L313.942 4.4203L314.733 1.47343L314.965 0.608154H312.078C307.099 0.608154 301.966 4.65269 300.632 9.62183C299.949 12.1583 300.335 14.5415 301.704 16.3314C303.02 18.0422 305.081 18.9866 307.514 18.9866H310.036L310.169 18.4773L310.96 15.5304L311.193 14.6651H308.305C306.461 14.6651 305.126 13.6318 304.805 12.0248H304.819H311.351H311.875L312.014 11.5155L312.805 8.56867L313.037 7.7034H306.08L306.056 7.72317Z" fill="white"/>
<path fill-rule="evenodd" clip-rule="evenodd" d="M318.046 14.6651L316.483 14.68L316.582 14.6503L318.179 8.52912L318.412 7.66384H314.046L313.907 8.17312L311.242 18.1213L311.01 18.9866H317.264C322.243 18.9866 327.376 14.942 328.711 9.97289C329.388 7.4364 329.007 5.05319 327.633 3.25836C326.318 1.54759 324.256 0.60321 321.823 0.60321H315.939L315.801 1.11249L315.01 4.05936L314.777 4.92463H321.032C322.253 4.92463 323.272 5.37952 323.905 6.20029C324.582 7.08534 324.76 8.29673 324.409 9.61689C323.663 12.4006 320.8 14.6651 318.026 14.6651" fill="white"/>
<path fill-rule="evenodd" clip-rule="evenodd" d="M340.874 6.52168C341.295 4.94441 341.052 3.46108 340.197 2.3387C339.376 1.26081 338.091 0.667482 336.578 0.667482L331.164 0.652649L330.012 4.96913H335.801C336.123 4.96913 336.375 5.07296 336.533 5.27568C336.701 5.49324 336.741 5.80968 336.647 6.16568C336.42 7.01117 335.53 7.72317 334.699 7.72317H334.669L329.379 7.73306L326.343 19.1003H330.704L332.597 12.005H333.319L335.52 19.1003H340.157L337.646 10.8382C337.646 10.8382 340.375 8.39561 340.874 6.52168Z" fill="white"/>
<path fill-rule="evenodd" clip-rule="evenodd" d="M366.902 9.63666C366.224 12.1732 366.605 14.5564 367.975 16.3462C369.29 18.057 371.352 19.0212 373.784 19.0212H374.852L376.014 14.6849H374.571C373.339 14.6849 372.311 14.2251 371.673 13.3944C370.996 12.5094 370.818 11.3029 371.164 9.99266L373.676 0.613098H369.31L366.892 9.63666H366.902Z" fill="white"/>
<path fill-rule="evenodd" clip-rule="evenodd" d="M357.893 9.64161C357.216 12.1781 357.596 14.5613 358.966 16.3512C360.281 18.062 362.343 19.0063 364.776 19.0063L364.612 18.9866L364.776 19.0261H365.844L367.006 14.6899H365.562C364.331 14.6899 363.302 14.23 362.664 13.3994C361.987 12.5143 361.804 11.3079 362.155 9.99761L364.667 0.618042H360.301L357.883 9.64161H357.893Z" fill="white"/>
<path fill-rule="evenodd" clip-rule="evenodd" d="M393.028 3.3078C391.713 1.59703 389.651 0.652649 387.218 0.652649C382.244 0.652649 377.112 4.69224 375.782 9.65644C375.104 12.1929 375.485 14.5761 376.855 16.366C378.17 18.0768 380.232 19.0212 382.664 19.0212C387.638 19.0212 392.771 14.9816 394.101 10.0174C394.778 7.48089 394.397 5.09768 393.028 3.3078ZM389.834 9.66138C389.087 12.4451 386.229 14.7047 383.455 14.7047C382.224 14.7047 381.196 14.2449 380.558 13.4142C379.881 12.5291 379.703 11.3227 380.054 10.0124C380.8 7.22873 383.658 4.96913 386.432 4.96913C387.663 4.96913 388.692 5.42896 389.329 6.25962C390.007 7.14467 390.19 8.35111 389.839 9.66138" fill="white"/>
<path fill-rule="evenodd" clip-rule="evenodd" d="M356.761 3.34241C355.446 1.63164 353.384 0.687256 350.951 0.687256C345.977 0.687256 340.845 4.72685 339.515 9.69104C338.838 12.2275 339.218 14.6107 340.588 16.4006C341.903 18.1114 343.965 19.0558 346.398 19.0558C351.372 19.0558 356.504 15.0162 357.834 10.052C358.512 7.5155 358.131 5.13229 356.761 3.34241ZM353.567 9.69599C352.82 12.4797 349.958 14.7393 347.189 14.7393C345.958 14.7393 344.929 14.2795 344.291 13.4488C343.614 12.5638 343.431 11.3573 343.782 10.047C344.529 7.26333 347.392 5.00373 350.16 5.00373C351.387 5.00373 352.42 5.46356 353.058 6.29423C353.735 7.17928 353.913 8.38572 353.567 9.69599Z" fill="white"/>
<path d="M389.171 27.9557C389.171 27.9557 389.612 26.3834 389.265 25.6319C389.048 25.2116 388.539 24.9248 387.93 24.8754C387.436 24.8358 386.68 24.9347 385.864 25.6319C385.359 26.0571 384.934 26.7592 384.702 27.5503C384.474 28.3167 384.469 29.0287 384.682 29.4588C384.949 29.983 385.542 30.2945 386.269 30.2945C386.996 30.2945 387.698 30.0126 388.183 29.5429C388.588 29.1869 388.989 28.3909 388.989 28.3909H387.975C387.975 28.3909 387.293 29.4094 386.447 29.4094C385.938 29.4094 385.745 29.1375 385.621 28.8705C385.498 28.5194 385.631 27.9508 385.631 27.9508H389.171V27.9557ZM386.576 26.1313L386.586 26.1214C386.877 25.8346 387.288 25.6863 387.683 25.7258C388.054 25.7604 388.232 25.9582 388.316 26.0917C388.405 26.2252 388.479 26.6801 388.371 27.0707C388.079 27.0707 386.853 27.0707 385.923 27.0707C385.814 27.0707 386.442 26.2252 386.571 26.1313M336.805 27.8272C336.805 27.8272 337.245 26.3191 336.899 25.6022C336.682 25.2017 336.172 24.9248 335.564 24.8803C335.07 24.8408 334.313 24.9396 333.497 25.6071C332.993 26.0175 332.568 26.69 332.335 27.4465C332.108 28.1782 332.103 28.8655 332.316 29.2759C332.583 29.7802 333.176 30.0769 333.903 30.0769C334.63 30.0769 335.332 29.8099 335.816 29.355C336.222 29.0138 336.622 28.2475 336.622 28.2475H335.609C335.609 28.2475 334.926 29.2215 334.081 29.2215C333.571 29.2215 333.379 28.9595 333.255 28.7024C333.131 28.3661 333.265 27.8222 333.265 27.8222H336.805V27.8272ZM334.209 26.0769L334.219 26.067C334.511 25.7901 334.921 25.6516 335.322 25.6863C335.693 25.7209 335.871 25.9088 335.955 26.0373C336.044 26.1659 336.118 26.601 336.009 26.9767C335.717 26.9767 334.491 26.9767 333.562 26.9767C333.453 26.9767 334.081 26.1659 334.209 26.0769ZM348.785 25.0781C348.543 24.9446 348.202 24.8704 347.816 24.8704C347.46 24.8704 347.119 24.9396 346.882 25.0583C346.669 25.1621 346.298 25.4044 346.298 25.4094L346.303 25.3945L346.412 24.999H345.517L343.559 31.7036L343.52 31.8322H344.513L344.533 31.758L345.181 29.5528C345.24 29.6319 345.314 29.711 345.408 29.7802C345.502 29.8495 345.853 30.0868 346.442 30.0868C347.03 30.0868 347.579 29.8742 348.108 29.4588C348.721 28.9891 349.235 28.109 349.408 27.2091C349.616 26.2153 349.379 25.4193 348.776 25.083M347.584 28.6925C347.297 28.9693 346.907 29.1276 346.511 29.1177C346.17 29.1078 345.888 28.9595 345.769 28.732C345.611 28.4007 345.591 27.2141 346.467 26.2499C346.719 25.978 347.099 25.8049 347.48 25.7753C347.856 25.7505 348.153 25.889 348.271 26.1411C348.622 26.8976 348.108 28.1881 347.584 28.6925ZM364.336 25.0089C364.336 25.0089 364.262 25.266 364.212 25.4638C363.96 25.088 363.579 24.8853 363.07 24.8704C362.274 24.8457 361.443 25.444 361.216 25.6566C360.692 26.1856 360.296 27.0262 360.059 27.8272C359.653 29.2116 360.494 30.2697 361.389 30.2895C362.032 30.2994 362.585 29.9879 363.011 29.6715C362.877 29.978 362.744 30.784 361.967 31.0856C361.75 31.1696 361.512 31.2042 361.27 31.2042C361.062 31.2042 360.889 31.1597 360.746 31.1053C360.296 30.9323 360.469 30.4181 360.469 30.4181H359.485C359.485 30.4181 359.124 31.5207 360.177 31.9508C360.464 32.0695 360.825 32.1634 361.28 32.0992C363.07 31.9854 363.619 30.7691 364.148 29.177L365.325 25.0089H364.331H364.336ZM362.808 28.9941C362.491 29.2561 362.121 29.3847 361.799 29.3501C361.468 29.3303 361.221 29.1671 361.097 28.8853C360.978 28.5936 361.003 28.1585 361.161 27.6541C361.305 27.2091 361.532 26.7938 361.685 26.596C362.106 26.0373 362.58 25.9285 362.907 25.9335C363.283 25.9434 363.55 26.1214 363.579 26.1955V26.2054L363.589 26.2153C363.945 26.7394 363.579 28.3513 362.803 28.999M372.375 25.4638C372.004 24.9743 371.396 24.8704 370.951 24.8704C370.269 24.8704 368.608 25.1325 367.925 27.5454C367.658 28.4996 367.703 29.2215 368.059 29.6962C368.351 30.0769 368.855 30.2895 369.483 30.2895C370.165 30.2895 371.831 30.0275 372.514 27.6047C372.781 26.6554 372.736 25.9335 372.38 25.4638M371.515 27.5454C371.278 28.3909 370.605 29.3006 369.7 29.3006C369.399 29.3006 369.171 29.2017 369.023 29.0089C368.756 28.6529 368.796 28.0497 368.919 27.6047C369.156 26.7641 369.824 25.8593 370.729 25.8593C371.035 25.8593 371.263 25.9582 371.411 26.151C371.678 26.5021 371.634 27.1004 371.51 27.5454M325.482 28.9496C325.473 28.9842 325.468 29.0336 325.482 29.0583C325.507 29.088 325.616 29.1473 326.061 29.0732L326.224 29.0435L325.967 29.9928C325.967 29.9928 325.334 30.0917 325.013 30.0621C324.726 30.0324 324.578 29.8841 324.503 29.7703C324.385 29.5874 324.375 29.355 324.414 29.2067L325.418 25.4984H324.741L325.003 24.5293H325.67L326.051 23.1547H327.045L326.679 24.5293H327.445L327.183 25.4984H326.417L325.487 28.9446L325.482 28.9496ZM331.881 26.3191V26.3093L330.817 30.0769H329.824C329.824 30.0769 330.798 26.6306 330.798 26.6257C330.991 26.0571 330.768 25.9434 330.684 25.9038C330.432 25.7753 330.209 25.7406 329.962 25.7851C329.735 25.8247 329.473 25.9483 329.122 26.1807C328.919 26.3389 328.77 26.4576 328.657 26.8482L327.742 30.0769H326.748L328.711 23.1201H329.705L329.052 25.4341C329.052 25.4341 329.309 25.1968 329.834 25.0039C330.101 24.9149 330.338 24.8704 330.56 24.8704C330.842 24.8704 331.109 24.9298 331.337 25.0435C331.574 25.1374 331.742 25.2956 331.841 25.5181C331.979 25.8395 331.92 26.2005 331.871 26.3191M344.103 25.3451C344.316 25.622 344.36 26.0126 344.227 26.4971L344.207 26.5762H343.228C343.228 26.5762 343.337 26.1362 343.248 26.0175C343.139 25.8741 342.877 25.8 342.476 25.8C342.031 25.8 341.641 26.0472 341.473 26.2746C341.384 26.3983 341.344 26.5219 341.364 26.6257C341.379 26.6949 341.418 26.7493 341.488 26.7889C341.69 26.9224 342.012 27.0064 342.422 27.1152C342.422 27.1152 342.491 27.135 342.481 27.13C342.832 27.1894 343.233 27.2833 343.539 27.5157C343.91 27.7777 343.999 28.287 343.762 28.8408C343.535 29.3797 343.065 29.8396 342.506 30.0621C342.234 30.1708 341.898 30.2401 341.522 30.2747C341.196 30.2747 340.855 30.2747 340.583 30.2055C340.202 30.1115 339.93 29.9286 339.777 29.6665C339.604 29.3698 339.584 28.9842 339.722 28.4947L339.742 28.4156H340.687L340.657 28.5441C340.563 28.9644 340.721 29.2166 341.161 29.3649C341.31 29.4143 341.552 29.4143 341.784 29.4143C342.026 29.355 342.279 29.2907 342.417 29.2067C342.615 29.088 342.788 28.8705 342.842 28.6776C342.907 28.4403 342.818 28.2821 342.565 28.1881L342.155 28.0843C341.67 27.9656 341.166 27.842 340.879 27.6887C340.548 27.5503 340.212 27.2141 340.449 26.3834C340.746 25.3352 341.848 24.8556 342.748 24.8556C343.406 24.8556 343.861 25.0138 344.103 25.3303M352.296 25.9978C351.693 26.2648 351.332 26.685 351.109 27.4761L350.373 30.0769H349.379L350.813 25.0089H351.807L351.673 25.4885C351.673 25.4885 352.103 24.905 352.83 24.8704H353.404L353.112 25.8939C353.112 25.8939 352.835 25.7604 352.301 25.9978M354.996 25.0089L353.562 30.0769H352.568L354.002 25.0089H354.996ZM355.198 24.2919H354.205L354.536 23.1201H355.53L355.198 24.2919ZM359.831 26.2104V26.2203V26.2252L358.744 30.0769H357.75L358.744 26.5664C358.813 26.334 358.798 26.1411 358.699 26.0076C358.595 25.8643 358.392 25.7851 358.135 25.7851C357.834 25.7851 356.83 25.9038 356.42 27.4217L355.668 30.0818H354.674L356.103 25.0138H357.097L356.993 25.3846L357.433 25.1127C357.789 24.8902 358.264 24.8704 358.516 24.8754C358.842 24.8853 359.184 24.9446 359.327 25.0237C359.53 25.1523 359.945 25.4193 359.836 26.2203M376.469 23.13L376.578 23.1547L376.341 23.9953L376.252 23.9854C375.797 23.931 375.56 23.9854 375.431 24.4254L375.268 25.0039H376.044L375.782 25.9236H375.006L373.834 30.067H372.84L374.007 25.9236H373.354L373.616 24.999H374.274L374.482 24.2524C374.704 23.4563 375.466 23.13 375.644 23.1152C375.92 23.0657 376.187 23.0657 376.469 23.125M380.712 23.2536L378.808 29.9978L378.788 30.072H377.794L377.834 29.9385L379.738 23.1943L379.757 23.1201H380.751L380.712 23.2536ZM382.22 25.1424L380.845 29.9978L380.825 30.072H379.831L379.871 29.9385L381.246 25.083L381.265 25.0089H382.259L382.22 25.1424ZM381.602 24.2919H381.463L381.503 24.1584L381.775 23.1943L381.794 23.1201H382.788L382.749 23.2536L382.477 24.2178L382.457 24.2969H381.602V24.2919ZM385.839 23.1745L385.602 24.015L385.513 24.0052C385.058 23.9508 384.82 24.0052 384.692 24.4452L384.534 25.0039H385.31L385.048 25.9236H384.272L383.1 30.067H382.106L383.273 25.9236H382.62L382.882 24.999H383.54L383.743 24.2721C383.97 23.4761 384.726 23.1498 384.904 23.1349C385.181 23.0855 385.448 23.0855 385.725 23.1448L385.839 23.1695V23.1745Z" fill="white"/>
</g>
<defs>
<clipPath id="clip0_1372_9606">
<rect width="140.155" height="32.1239" fill="white" transform="translate(257.423)"/>
</clipPath>
</defs>
</svg>
