<svg width="198" height="46" viewBox="0 0 198 46" fill="none" xmlns="http://www.w3.org/2000/svg">
<g clip-path="url(#clip0_1372_12524)">
<path fill-rule="evenodd" clip-rule="evenodd" d="M3.87674 4.29584C6.4263 1.64849 10.0097 0 13.9772 0C20.4804 0 25.9497 4.42856 27.5353 10.4358C27.5353 10.4358 22.6248 10.5126 19.5234 10.0865C16.0867 9.61152 14.1239 9.19939 10.8898 7.94906C8.01192 6.83843 3.88372 4.29584 3.88372 4.29584M27.8636 12.1122C27.8147 11.7629 27.7588 11.4207 27.682 11.0784C27.682 11.0784 20.7877 11.1762 16.4569 10.5056C11.7629 9.77916 9.02477 9.29719 4.70797 7.31341C3.78593 6.88732 3.27602 6.57998 2.38192 6.13991C1.90694 6.83144 1.49481 7.57186 1.15254 8.34721C1.15254 8.34721 3.88372 9.26925 5.65794 9.74423C9.43689 10.7501 11.6512 11.0225 15.5279 11.4835C20.3057 12.0563 27.8566 12.1122 27.8566 12.1122M15.6606 13.4114L27.9754 13.4673C27.9684 13.2368 27.9544 13.0063 27.9335 12.7758C27.9335 12.7758 19.8307 12.8386 14.6827 12.3846C9.1016 11.8887 5.81161 11.3299 0.481973 10.1983C0.237494 11.0714 0.0698511 11.9795 0 12.9155L15.6606 13.4114ZM3.87674 23.3722C6.4263 26.0195 10.0097 27.668 13.9702 27.668C20.4734 27.668 25.9427 23.2395 27.5283 17.2323C27.5283 17.2323 22.6178 17.1554 19.5164 17.5815C16.0797 18.0565 14.1169 18.4686 10.8828 19.719C8.00494 20.8296 3.87674 23.3722 3.87674 23.3722ZM15.5349 16.1845C11.6512 16.6525 9.44387 16.9179 5.66493 17.9238C3.88372 18.3988 1.15953 19.3208 1.15953 19.3208C1.5018 20.0962 1.91392 20.8366 2.38891 21.5281C3.283 21.0811 3.79292 20.7807 4.71495 20.3546C9.02477 18.3708 11.7699 17.8889 16.4639 17.1624C20.7947 16.4919 27.689 16.5896 27.689 16.5896C27.7588 16.2474 27.8217 15.9051 27.8706 15.5558C27.8706 15.5558 20.3197 15.6117 15.5419 16.1845M0 14.7526C0.0698511 15.6886 0.237494 16.5966 0.481973 17.4698C5.8186 16.3382 9.1016 15.7794 14.6827 15.2834C19.8307 14.8294 27.9335 14.8923 27.9335 14.8923C27.9544 14.6618 27.9684 14.4382 27.9754 14.2077L15.6606 14.2566L0 14.7526Z" fill="#E42313"/>
<path d="M44.3691 26.8862C52.2762 26.8862 59.0099 21.2772 60.8889 14.2571C61.8528 10.6738 61.308 7.30696 59.3661 4.77835C57.5081 2.3615 54.5953 1.02734 51.1586 1.02734C44.1246 1.02734 36.8741 6.74117 34.9881 13.7612L29.2812 35.0658L36.448 31.3427L41.0232 14.2641C42.078 10.3315 46.1224 7.13233 50.041 7.13233C51.7803 7.13233 53.2332 7.78195 54.1343 8.95545C55.0912 10.2058 55.3497 11.9102 54.8537 13.7612C53.799 17.6938 49.7057 21.0048 45.836 20.893C41.9662 20.7812 41.0162 19.2096 41.0162 19.2096L39.4097 25.0212C39.4097 25.0212 40.4225 26.9002 44.3691 26.9002" fill="white"/>
<path fill-rule="evenodd" clip-rule="evenodd" d="M195.569 0.963867C194.242 0.963867 193.117 1.98369 193.117 3.36675C193.117 4.7498 194.242 5.7836 195.569 5.7836C196.896 5.7836 198.007 4.76377 198.007 3.36675C198.007 1.96972 196.882 0.963867 195.569 0.963867ZM195.569 5.38544C194.465 5.38544 193.606 4.53326 193.606 3.37373C193.606 2.2142 194.465 1.369 195.569 1.369C196.673 1.369 197.518 2.22817 197.518 3.37373C197.518 4.51929 196.659 5.38544 195.569 5.38544ZM196.68 2.78C196.68 2.22817 196.351 1.99068 195.695 1.99068H194.633V4.77075H195.052V3.56233H195.534L196.267 4.77075H196.742L195.953 3.54836C196.358 3.49946 196.673 3.28292 196.673 2.78M195.059 3.20609V2.34692H195.632C195.925 2.34692 196.24 2.40979 196.24 2.75206C196.24 3.17815 195.918 3.20609 195.562 3.20609H195.059Z" fill="white"/>
<path fill-rule="evenodd" clip-rule="evenodd" d="M68.7057 10.911C70.5427 8.52903 73.3927 6.96436 76.0959 6.96436H79.6583L79.8469 6.2449L80.9645 2.08177L81.2928 0.859375H77.2135C70.1795 0.859375 62.929 6.5732 61.043 13.5932C60.079 17.1766 60.6239 20.5434 62.5588 23.072C64.4168 25.4889 67.3296 26.823 70.7663 26.823H74.3287L74.5173 26.1036L75.6349 21.9404L75.9632 20.7181H71.8839C69.2784 20.7181 67.3925 19.2582 66.9384 16.988H66.9594H76.1867H76.9271L77.1227 16.2685L78.2403 12.1054L78.5686 10.883H68.7406L68.7057 10.911Z" fill="white"/>
<path fill-rule="evenodd" clip-rule="evenodd" d="M85.6439 20.7182L83.4366 20.7392L83.5763 20.6972L85.8325 12.0497L86.1608 10.8273H79.993L79.7974 11.5467L76.0324 25.6008L75.7041 26.8232H84.5403C91.5743 26.8232 98.8248 21.1094 100.711 14.0893C101.668 10.506 101.13 7.13914 99.1881 4.60354C97.33 2.1867 94.4172 0.852539 90.9805 0.852539H82.6683L82.4727 1.57201L81.3551 5.73513L81.0268 6.95753H89.8629C91.5882 6.95753 93.0272 7.60016 93.9213 8.75969C94.8782 10.01 95.1297 11.7214 94.6338 13.5864C93.579 17.519 89.5346 20.7182 85.616 20.7182" fill="white"/>
<path fill-rule="evenodd" clip-rule="evenodd" d="M117.894 9.21418C118.488 6.98593 118.146 4.8904 116.938 3.30477C115.778 1.78202 113.962 0.943807 111.824 0.943807L104.176 0.922852L102.548 7.02086H110.728C111.182 7.02086 111.538 7.16754 111.762 7.45393C111.999 7.76128 112.055 8.20832 111.922 8.71125C111.601 9.90571 110.344 10.9116 109.17 10.9116H109.128L101.654 10.9255L97.3652 26.9843H103.526L106.201 16.9607H107.221L110.33 26.9843H116.882L113.333 15.3122C113.333 15.3122 117.189 11.8615 117.894 9.21418Z" fill="white"/>
<path fill-rule="evenodd" clip-rule="evenodd" d="M154.664 13.614C153.707 17.1974 154.245 20.5642 156.18 23.0928C158.038 25.5097 160.951 26.8718 164.387 26.8718H165.896L167.537 20.7458H165.498C163.759 20.7458 162.306 20.0962 161.405 18.9227C160.448 17.6724 160.196 15.968 160.685 14.117L164.234 0.866211H158.066L154.65 13.614H154.664Z" fill="white"/>
<path fill-rule="evenodd" clip-rule="evenodd" d="M141.937 13.6209C140.98 17.2042 141.518 20.5711 143.453 23.0997C145.311 25.5165 148.224 26.8507 151.661 26.8507L151.43 26.8227L151.661 26.8786H153.169L154.811 20.7527H152.771C151.032 20.7527 149.579 20.1031 148.678 18.9296C147.721 17.6792 147.463 15.9749 147.959 14.1238L151.507 0.873047H145.339L141.923 13.6209H141.937Z" fill="white"/>
<path fill-rule="evenodd" clip-rule="evenodd" d="M191.573 4.67386C189.715 2.25701 186.802 0.922852 183.365 0.922852C176.338 0.922852 169.088 6.62969 167.209 13.6427C166.252 17.2261 166.79 20.5929 168.725 23.1215C170.583 25.5384 173.495 26.8725 176.932 26.8725C183.959 26.8725 191.21 21.1657 193.089 14.1527C194.046 10.5693 193.508 7.20247 191.573 4.67386ZM187.061 13.6497C186.006 17.5823 181.968 20.7745 178.05 20.7745C176.31 20.7745 174.858 20.1249 173.956 18.9514C172.999 17.7011 172.748 15.9967 173.244 14.1457C174.299 10.2131 178.336 7.02086 182.255 7.02086C183.994 7.02086 185.447 7.67047 186.348 8.84397C187.305 10.0943 187.563 11.7987 187.067 13.6497" fill="white"/>
<path fill-rule="evenodd" clip-rule="evenodd" d="M140.338 4.72269C138.48 2.30584 135.567 0.97168 132.13 0.97168C125.103 0.97168 117.852 6.67852 115.973 13.6916C115.017 17.2749 115.554 20.6418 117.489 23.1704C119.347 25.5872 122.26 26.9214 125.697 26.9214C132.724 26.9214 139.974 21.2145 141.853 14.2015C142.81 10.6181 142.272 7.2513 140.338 4.72269ZM135.825 13.6986C134.77 17.6312 130.726 20.8234 126.814 20.8234C125.075 20.8234 123.622 20.1738 122.721 19.0003C121.764 17.7499 121.506 16.0456 122.002 14.1945C123.056 10.2619 127.101 7.06968 131.012 7.06968C132.745 7.06968 134.205 7.7193 135.106 8.8928C136.063 10.1431 136.314 11.8475 135.825 13.6986Z" fill="white"/>
<path d="M186.125 39.4947C186.125 39.4947 186.747 37.2734 186.258 36.2117C185.95 35.6179 185.231 35.2128 184.372 35.1429C183.673 35.0871 182.604 35.2268 181.452 36.2117C180.739 36.8124 180.139 37.8043 179.81 38.9219C179.489 40.0046 179.482 41.0104 179.782 41.6181C180.16 42.3586 180.998 42.7986 182.025 42.7986C183.051 42.7986 184.043 42.4005 184.728 41.7369C185.301 41.2339 185.866 40.1093 185.866 40.1093H184.434C184.434 40.1093 183.471 41.5483 182.276 41.5483C181.557 41.5483 181.284 41.1641 181.11 40.7869C180.935 40.291 181.123 39.4877 181.123 39.4877H186.125V39.4947ZM182.458 36.9171L182.472 36.9032C182.884 36.498 183.464 36.2885 184.022 36.3444C184.546 36.3933 184.798 36.6727 184.916 36.8613C185.042 37.0499 185.147 37.6925 184.993 38.2443C184.581 38.2443 182.849 38.2443 181.536 38.2443C181.382 38.2443 182.269 37.0499 182.451 36.9171M112.146 39.313C112.146 39.313 112.767 37.1826 112.278 36.1697C111.971 35.6039 111.251 35.2128 110.392 35.1499C109.694 35.094 108.625 35.2337 107.472 36.1767C106.76 36.7565 106.159 37.7065 105.831 38.7752C105.51 39.809 105.503 40.7799 105.803 41.3597C106.18 42.0722 107.018 42.4913 108.045 42.4913C109.072 42.4913 110.064 42.1141 110.748 41.4714C111.321 40.9895 111.887 39.9068 111.887 39.9068H110.455C110.455 39.9068 109.491 41.2828 108.297 41.2828C107.577 41.2828 107.305 40.9126 107.13 40.5494C106.956 40.0744 107.144 39.3061 107.144 39.3061H112.146V39.313ZM108.478 36.8403L108.492 36.8263C108.904 36.4352 109.484 36.2396 110.05 36.2885C110.574 36.3374 110.825 36.6028 110.944 36.7844C111.07 36.966 111.175 37.5807 111.021 38.1116C110.609 38.1116 108.876 38.1116 107.563 38.1116C107.41 38.1116 108.297 36.966 108.478 36.8403ZM129.07 35.4293C128.728 35.2407 128.246 35.1359 127.701 35.1359C127.198 35.1359 126.716 35.2337 126.381 35.4014C126.081 35.5481 125.557 35.8903 125.557 35.8973L125.564 35.8764L125.718 35.3176H124.453L121.687 44.7894L121.631 44.971H123.035L123.063 44.8662L123.978 41.7508C124.062 41.8626 124.167 41.9744 124.3 42.0722C124.432 42.17 124.928 42.5052 125.759 42.5052C126.591 42.5052 127.366 42.2049 128.113 41.6181C128.98 40.9545 129.706 39.7112 129.951 38.4399C130.244 37.0359 129.909 35.9113 129.056 35.4363M127.373 40.5354C126.968 40.9266 126.416 41.1501 125.857 41.1362C125.375 41.1222 124.977 40.9126 124.81 40.5913C124.586 40.1233 124.558 38.4469 125.794 37.0848C126.151 36.7006 126.689 36.4561 127.226 36.4142C127.757 36.3793 128.176 36.5749 128.344 36.9311C128.84 37.9998 128.113 39.823 127.373 40.5354ZM151.039 35.3315C151.039 35.3315 150.934 35.6948 150.864 35.9742C150.508 35.4433 149.97 35.1569 149.25 35.1359C148.126 35.101 146.952 35.9462 146.631 36.2466C145.891 36.994 145.332 38.1815 144.996 39.313C144.424 41.2689 145.611 42.7637 146.875 42.7916C147.784 42.8056 148.566 42.3655 149.167 41.9185C148.978 42.3516 148.789 43.4901 147.693 43.9162C147.385 44.035 147.05 44.0839 146.708 44.0839C146.414 44.0839 146.17 44.021 145.967 43.9442C145.332 43.6997 145.576 42.9732 145.576 42.9732H144.186C144.186 42.9732 143.676 44.5309 145.164 45.1386C145.569 45.3063 146.079 45.439 146.722 45.3482C149.25 45.1875 150.026 43.4692 150.773 41.22L152.436 35.3315H151.032H151.039ZM148.88 40.9615C148.433 41.3317 147.909 41.5134 147.455 41.4645C146.987 41.4365 146.638 41.206 146.463 40.8079C146.296 40.3957 146.331 39.781 146.554 39.0686C146.757 38.4399 147.078 37.8532 147.295 37.5738C147.888 36.7844 148.559 36.6308 149.02 36.6377C149.551 36.6517 149.928 36.9032 149.97 37.008V37.0219L149.984 37.0359C150.487 37.7763 149.97 40.0535 148.873 40.9685M162.396 35.9742C161.873 35.2826 161.013 35.1359 160.385 35.1359C159.421 35.1359 157.074 35.5062 156.11 38.9149C155.733 40.263 155.795 41.2828 156.298 41.9534C156.711 42.4913 157.423 42.7916 158.31 42.7916C159.274 42.7916 161.628 42.4214 162.592 38.9987C162.969 37.6576 162.906 36.6377 162.403 35.9742M161.181 38.9149C160.846 40.1093 159.896 41.3946 158.617 41.3946C158.191 41.3946 157.87 41.2549 157.661 40.9825C157.283 40.4796 157.339 39.6274 157.514 38.9987C157.849 37.8112 158.792 36.533 160.07 36.533C160.503 36.533 160.825 36.6727 161.034 36.9451C161.412 37.441 161.349 38.2862 161.174 38.9149M96.1496 40.8987C96.1356 40.9476 96.1286 41.0174 96.1496 41.0523C96.1845 41.0942 96.3382 41.1781 96.9669 41.0733L97.1974 41.0314L96.8341 42.3725C96.8341 42.3725 95.94 42.5122 95.486 42.4703C95.0809 42.4284 94.8713 42.2189 94.7665 42.0582C94.5989 41.7997 94.5849 41.4714 94.6408 41.2619L96.0588 36.0231H95.1018L95.472 34.654H96.415L96.9529 32.7121H98.3569L97.84 34.654H98.9227L98.5525 36.0231H97.4698L96.1566 40.8917L96.1496 40.8987ZM105.188 37.1826V37.1686L103.687 42.4913H102.283C102.283 42.4913 103.659 37.6226 103.659 37.6157C103.931 36.8124 103.617 36.6517 103.498 36.5958C103.142 36.4142 102.827 36.3653 102.478 36.4282C102.157 36.4841 101.787 36.6587 101.291 36.987C101.004 37.2105 100.795 37.3782 100.634 37.93L99.3418 42.4913H97.9378L100.711 32.6632H102.115L101.193 35.9322C101.193 35.9322 101.556 35.597 102.296 35.3245C102.674 35.1988 103.009 35.1359 103.323 35.1359C103.721 35.1359 104.099 35.2198 104.42 35.3804C104.755 35.5131 104.993 35.7367 105.132 36.051C105.328 36.505 105.244 37.0149 105.174 37.1826M122.456 35.8065C122.756 36.1977 122.819 36.7495 122.63 37.434L122.602 37.5458H121.219C121.219 37.5458 121.373 36.9241 121.247 36.7565C121.093 36.5539 120.723 36.4491 120.157 36.4491C119.529 36.4491 118.977 36.7984 118.739 37.1197C118.614 37.2943 118.558 37.469 118.586 37.6157C118.607 37.7135 118.663 37.7903 118.76 37.8462C119.047 38.0348 119.501 38.1535 120.081 38.3072C120.081 38.3072 120.178 38.3351 120.164 38.3281C120.66 38.412 121.226 38.5447 121.659 38.873C122.183 39.2432 122.309 39.9627 121.974 40.745C121.652 41.5064 120.989 42.156 120.199 42.4703C119.815 42.624 119.34 42.7218 118.809 42.7707C118.348 42.7707 117.866 42.7707 117.482 42.6729C116.944 42.5402 116.56 42.2817 116.344 41.9115C116.099 41.4924 116.071 40.9476 116.267 40.256L116.295 40.1443H117.629L117.587 40.3259C117.454 40.9196 117.678 41.2759 118.299 41.4854C118.509 41.5553 118.851 41.5553 119.18 41.5553C119.522 41.4714 119.878 41.3806 120.074 41.2619C120.353 41.0942 120.597 40.7869 120.674 40.5145C120.765 40.1792 120.639 39.9557 120.283 39.823L119.703 39.6763C119.019 39.5086 118.306 39.334 117.901 39.1175C117.433 38.9219 116.958 38.4469 117.294 37.2734C117.713 35.7925 119.27 35.115 120.542 35.115C121.471 35.115 122.113 35.3385 122.456 35.7856M134.03 36.7286C133.178 37.1057 132.668 37.6995 132.353 38.8171L131.313 42.4913H129.909L131.934 35.3315H133.338L133.15 36.0091C133.15 36.0091 133.757 35.1848 134.784 35.1359H135.595L135.182 36.5819C135.182 36.5819 134.791 36.3933 134.037 36.7286M137.844 35.3315L135.818 42.4913H134.414L136.44 35.3315H137.844ZM138.13 34.3187H136.726L137.194 32.6632H138.598L138.13 34.3187ZM144.675 37.0289V37.0429V37.0499L143.138 42.4913H141.734L143.138 37.5318C143.236 37.2035 143.215 36.9311 143.076 36.7425C142.929 36.54 142.643 36.4282 142.279 36.4282C141.853 36.4282 140.435 36.5958 139.855 38.7403L138.794 42.4983H137.39L139.408 35.3385H140.812L140.666 35.8624L141.287 35.4782C141.79 35.1639 142.461 35.1359 142.817 35.1429C143.278 35.1569 143.76 35.2407 143.963 35.3525C144.249 35.5341 144.836 35.9113 144.682 37.0429M168.18 32.6772L168.334 32.7121L167.998 33.8996L167.873 33.8856C167.23 33.8088 166.895 33.8856 166.713 34.5073L166.483 35.3245H167.579L167.209 36.6238H166.112L164.457 42.4773H163.053L164.701 36.6238H163.779L164.15 35.3176H165.079L165.372 34.2628C165.686 33.1382 166.762 32.6772 167.014 32.6562C167.405 32.5864 167.782 32.5864 168.18 32.6702M174.173 32.8518L171.484 42.3795L171.456 42.4843H170.052L170.108 42.2957L172.797 32.768L172.825 32.6632H174.229L174.173 32.8518ZM176.304 35.5201L174.362 42.3795L174.334 42.4843H172.93L172.986 42.2957L174.928 35.4363L174.956 35.3315H176.36L176.304 35.5201ZM175.431 34.3187H175.235L175.291 34.1301L175.675 32.768L175.703 32.6632H177.107L177.051 32.8518L176.667 34.2139L176.639 34.3257H175.431V34.3187ZM181.417 32.7401L181.082 33.9275L180.956 33.9135C180.313 33.8367 179.978 33.9135 179.796 34.5352L179.573 35.3245H180.669L180.299 36.6238H179.203L177.547 42.4773H176.143L177.792 36.6238H176.87L177.24 35.3176H178.169L178.455 34.2907C178.776 33.1661 179.845 32.7051 180.097 32.6842C180.488 32.6143 180.865 32.6143 181.256 32.6981L181.417 32.7331V32.7401Z" fill="white"/>
</g>
<defs>
<clipPath id="clip0_1372_12524">
<rect width="198" height="45.3823" fill="white"/>
</clipPath>
</defs>
</svg>
