<svg width="726" height="109" viewBox="0 0 726 109" fill="none" xmlns="http://www.w3.org/2000/svg">
<path d="M725.156 91.0604C726.002 91.7703 726.113 93.0318 725.403 93.878L713.833 107.667C713.123 108.514 711.862 108.624 711.016 107.914C710.169 107.204 710.059 105.943 710.769 105.097L721.053 92.8392L708.795 82.5553C707.949 81.8454 707.839 80.5839 708.549 79.7377C709.259 78.8915 710.52 78.781 711.366 79.491L725.156 91.0604ZM0.765625 1.84746L1.53078 -0.000389099C220.294 90.5846 464.982 113.25 723.696 90.6001L723.87 92.5925L724.045 94.5849C464.902 117.272 219.527 94.5964 0.000473082 3.6953L0.765625 1.84746Z" fill="url(#paint0_linear_1138_5760)"/>
<defs>
<linearGradient id="paint0_linear_1138_5760" x1="719.64" y1="104.073" x2="-0.111157" y2="-11.5224" gradientUnits="userSpaceOnUse">
<stop stop-color="#233679"/>
<stop offset="0.485577" stop-color="#4064DF"/>
<stop offset="0.947115" stop-color="#6688FF"/>
</linearGradient>
</defs>
</svg>
