<svg width="360" height="78" viewBox="0 0 360 78" fill="none" xmlns="http://www.w3.org/2000/svg">
<mask id="path-1-inside-1_1400_6166" fill="white">
<path d="M0 0H360V78H0V0Z"/>
</mask>
<path d="M360 78V77H0V78V79H360V78Z" fill="white" fill-opacity="0.1" mask="url(#path-1-inside-1_1400_6166)"/>
<g clip-path="url(#clip0_1400_6166)">
<path fill-rule="evenodd" clip-rule="evenodd" d="M96.167 25.9789C97.9717 24.1049 100.508 22.938 103.317 22.938C107.92 22.938 111.791 26.0728 112.914 30.325C112.914 30.325 109.438 30.3794 107.243 30.0778C104.81 29.7416 103.42 29.4499 101.131 28.5648C99.0941 27.7786 96.1719 25.9789 96.1719 25.9789M113.146 31.5117C113.112 31.2645 113.072 31.0222 113.018 30.7799C113.018 30.7799 108.137 30.8491 105.072 30.3745C101.749 29.8602 99.811 29.5191 96.7554 28.1149C96.1027 27.8132 95.7418 27.5957 95.1089 27.2842C94.7727 27.7737 94.481 28.2978 94.2387 28.8466C94.2387 28.8466 96.172 29.4993 97.4278 29.8355C100.103 30.5475 101.67 30.7403 104.414 31.0667C107.796 31.4721 113.141 31.5117 113.141 31.5117M104.508 32.4313L113.225 32.4709C113.22 32.3077 113.21 32.1446 113.196 31.9814C113.196 31.9814 107.46 32.0259 103.816 31.7045C99.8654 31.3535 97.5366 30.9579 93.764 30.1569C93.591 30.775 93.4723 31.4177 93.4229 32.0803L104.508 32.4313ZM96.167 39.4821C97.9717 41.356 100.508 42.5229 103.312 42.5229C107.915 42.5229 111.786 39.3881 112.909 35.1359C112.909 35.1359 109.433 35.0815 107.238 35.3832C104.805 35.7194 103.416 36.0111 101.126 36.8961C99.0892 37.6823 96.167 39.4821 96.167 39.4821ZM104.419 34.3943C101.67 34.7255 100.108 34.9134 97.4328 35.6254C96.1719 35.9617 94.2436 36.6143 94.2436 36.6143C94.4859 37.1631 94.7776 37.6873 95.1138 38.1768C95.7467 37.8603 96.1077 37.6477 96.7603 37.3461C99.811 35.9419 101.754 35.6007 105.077 35.0865C108.142 34.6118 113.023 34.681 113.023 34.681C113.072 34.4388 113.116 34.1965 113.151 33.9493C113.151 33.9493 107.806 33.9888 104.424 34.3943M93.4229 33.3807C93.4723 34.0432 93.591 34.686 93.764 35.304C97.5416 34.503 99.8654 34.1075 103.816 33.7564C107.46 33.4351 113.196 33.4796 113.196 33.4796C113.21 33.3164 113.22 33.1582 113.225 32.995L104.508 33.0296L93.4229 33.3807Z" fill="#E42313"/>
<path d="M124.829 41.9691C130.426 41.9691 135.193 37.9987 136.523 33.0296C137.205 30.4931 136.82 28.1099 135.445 26.32C134.13 24.6092 132.068 23.6649 129.635 23.6649C124.656 23.6649 119.524 27.7094 118.189 32.6785L114.149 47.759L119.222 45.1236L122.461 33.0345C123.208 30.2508 126.07 27.9863 128.844 27.9863C130.075 27.9863 131.104 28.4461 131.742 29.2768C132.419 30.1618 132.602 31.3683 132.251 32.6785C131.504 35.4622 128.607 37.8059 125.868 37.7268C123.128 37.6477 122.456 36.5352 122.456 36.5352L121.319 40.6489C121.319 40.6489 122.036 41.979 124.829 41.979" fill="white"/>
<path fill-rule="evenodd" clip-rule="evenodd" d="M231.857 23.6204C230.917 23.6204 230.121 24.3422 230.121 25.3212C230.121 26.3002 230.917 27.032 231.857 27.032C232.796 27.032 233.582 26.3101 233.582 25.3212C233.582 24.3324 232.786 23.6204 231.857 23.6204ZM231.857 26.7502C231.075 26.7502 230.467 26.147 230.467 25.3262C230.467 24.5054 231.075 23.9071 231.857 23.9071C232.638 23.9071 233.236 24.5153 233.236 25.3262C233.236 26.1371 232.628 26.7502 231.857 26.7502ZM232.643 24.9059C232.643 24.5153 232.41 24.3472 231.946 24.3472H231.194V26.3151H231.491V25.4597H231.832L232.351 26.3151H232.687L232.129 25.4498C232.415 25.4152 232.638 25.2619 232.638 24.9059M231.496 25.2075V24.5994H231.901C232.109 24.5994 232.331 24.6439 232.331 24.8861C232.331 25.1877 232.104 25.2075 231.852 25.2075H231.496Z" fill="white"/>
<path fill-rule="evenodd" clip-rule="evenodd" d="M142.056 30.6612C143.356 28.9752 145.373 27.8676 147.287 27.8676H149.808L149.942 27.3584L150.733 24.4115L150.965 23.5462H148.078C143.099 23.5462 137.966 27.5907 136.632 32.5599C135.949 35.0964 136.335 37.4796 137.704 39.2695C139.02 40.9802 141.081 41.9246 143.514 41.9246H146.036L146.169 41.4153L146.96 38.4685L147.193 37.6032H144.305C142.461 37.6032 141.126 36.5698 140.805 34.9629H140.819H147.351H147.875L148.014 34.4536L148.805 31.5067L149.037 30.6414H142.08L142.056 30.6612Z" fill="white"/>
<path fill-rule="evenodd" clip-rule="evenodd" d="M154.046 37.6032L152.483 37.618L152.582 37.5884L154.179 31.4672L154.412 30.6019H150.046L149.907 31.1112L147.242 41.0593L147.01 41.9246H153.264C158.243 41.9246 163.376 37.8801 164.711 32.9109C165.388 30.3744 165.007 27.9912 163.633 26.1964C162.318 24.4856 160.256 23.5413 157.823 23.5413H151.939L151.801 24.0505L151.01 26.9974L150.777 27.8627H157.032C158.253 27.8627 159.272 28.3176 159.905 29.1383C160.582 30.0234 160.76 31.2348 160.409 32.5549C159.663 35.3386 156.8 37.6032 154.026 37.6032" fill="white"/>
<path fill-rule="evenodd" clip-rule="evenodd" d="M176.874 29.4597C177.295 27.8825 177.052 26.3991 176.197 25.2767C175.376 24.1989 174.091 23.6055 172.578 23.6055L167.164 23.5907L166.012 27.9072H171.801C172.123 27.9072 172.375 28.011 172.533 28.2137C172.701 28.4313 172.741 28.7477 172.647 29.1037C172.42 29.9492 171.53 30.6612 170.699 30.6612H170.669L165.379 30.6711L162.343 42.0383H166.704L168.597 34.9431H169.319L171.52 42.0383H176.157L173.646 33.7762C173.646 33.7762 176.375 31.3337 176.874 29.4597Z" fill="white"/>
<path fill-rule="evenodd" clip-rule="evenodd" d="M202.902 32.5747C202.224 35.1112 202.605 37.4944 203.975 39.2843C205.29 40.9951 207.352 41.9592 209.784 41.9592H210.852L212.014 37.623H210.571C209.339 37.623 208.311 37.1631 207.673 36.3325C206.996 35.4474 206.818 34.241 207.164 32.9307L209.676 23.5511H205.31L202.892 32.5747H202.902Z" fill="white"/>
<path fill-rule="evenodd" clip-rule="evenodd" d="M193.893 32.5797C193.216 35.1161 193.596 37.4994 194.966 39.2892C196.281 41 198.343 41.9444 200.776 41.9444L200.612 41.9246L200.776 41.9642H201.844L203.006 37.6279H201.562C200.331 37.6279 199.302 37.1681 198.664 36.3374C197.987 35.4524 197.804 34.2459 198.155 32.9357L200.667 23.5561H196.301L193.883 32.5797H193.893Z" fill="white"/>
<path fill-rule="evenodd" clip-rule="evenodd" d="M229.028 26.2459C227.713 24.5351 225.651 23.5907 223.218 23.5907C218.244 23.5907 213.112 27.6303 211.782 32.5945C211.104 35.131 211.485 37.5142 212.855 39.3041C214.17 41.0148 216.232 41.9592 218.664 41.9592C223.638 41.9592 228.771 37.9196 230.101 32.9554C230.778 30.4189 230.397 28.0357 229.028 26.2459ZM225.834 32.5994C225.087 35.3831 222.229 37.6427 219.455 37.6427C218.224 37.6427 217.196 37.1829 216.558 36.3522C215.881 35.4672 215.703 34.2608 216.054 32.9505C216.8 30.1668 219.658 27.9072 222.432 27.9072C223.663 27.9072 224.692 28.367 225.329 29.1977C226.007 30.0827 226.19 31.2892 225.839 32.5994" fill="white"/>
<path fill-rule="evenodd" clip-rule="evenodd" d="M192.761 26.2805C191.446 24.5697 189.384 23.6253 186.951 23.6253C181.977 23.6253 176.845 27.6649 175.515 32.6291C174.838 35.1656 175.218 37.5488 176.588 39.3387C177.903 41.0494 179.965 41.9938 182.398 41.9938C187.372 41.9938 192.504 37.9542 193.834 32.99C194.512 30.4535 194.131 28.0703 192.761 26.2805ZM189.567 32.634C188.82 35.4177 185.958 37.6773 183.189 37.6773C181.958 37.6773 180.929 37.2175 180.291 36.3869C179.614 35.5018 179.431 34.2954 179.782 32.9851C180.529 30.2014 183.392 27.9418 186.16 27.9418C187.387 27.9418 188.42 28.4016 189.058 29.2323C189.735 30.1173 189.913 31.3238 189.567 32.634Z" fill="white"/>
<path d="M225.171 50.8938C225.171 50.8938 225.612 49.3215 225.265 48.5699C225.048 48.1496 224.539 47.8629 223.93 47.8134C223.436 47.7739 222.68 47.8728 221.864 48.5699C221.359 48.9951 220.934 49.6972 220.702 50.4884C220.474 51.2547 220.469 51.9667 220.682 52.3969C220.949 52.921 221.542 53.2325 222.269 53.2325C222.996 53.2325 223.698 52.9507 224.183 52.481C224.588 52.125 224.989 51.3289 224.989 51.3289H223.975C223.975 51.3289 223.293 52.3475 222.447 52.3475C221.938 52.3475 221.745 52.0755 221.621 51.8085C221.498 51.4575 221.631 50.8888 221.631 50.8888H225.171V50.8938ZM222.576 49.0693L222.586 49.0594C222.877 48.7726 223.288 48.6243 223.683 48.6639C224.054 48.6985 224.232 48.8962 224.316 49.0297C224.405 49.1632 224.479 49.6181 224.371 50.0087C224.079 50.0087 222.853 50.0087 221.923 50.0087C221.814 50.0087 222.442 49.1632 222.571 49.0693M172.805 50.7652C172.805 50.7652 173.245 49.2572 172.899 48.5402C172.682 48.1397 172.172 47.8629 171.564 47.8184C171.07 47.7788 170.313 47.8777 169.497 48.5452C168.993 48.9556 168.568 49.628 168.335 50.3845C168.108 51.1163 168.103 51.8036 168.316 52.214C168.583 52.7183 169.176 53.015 169.903 53.015C170.63 53.015 171.332 52.748 171.816 52.2931C172.222 51.9519 172.622 51.1855 172.622 51.1855H171.609C171.609 51.1855 170.926 52.1596 170.081 52.1596C169.571 52.1596 169.379 51.8975 169.255 51.6404C169.131 51.3042 169.265 50.7603 169.265 50.7603H172.805V50.7652ZM170.209 49.0149L170.219 49.005C170.511 48.7281 170.921 48.5897 171.322 48.6243C171.693 48.6589 171.871 48.8468 171.955 48.9754C172.044 49.1039 172.118 49.539 172.009 49.9148C171.717 49.9148 170.491 49.9148 169.562 49.9148C169.453 49.9148 170.081 49.1039 170.209 49.0149ZM184.785 48.0161C184.543 47.8826 184.202 47.8085 183.816 47.8085C183.46 47.8085 183.119 47.8777 182.882 47.9964C182.669 48.1002 182.298 48.3425 182.298 48.3474L182.303 48.3326L182.412 47.937H181.517L179.559 54.6417L179.52 54.7702H180.513L180.533 54.6961L181.181 52.4908C181.24 52.57 181.314 52.6491 181.408 52.7183C181.502 52.7875 181.853 53.0248 182.442 53.0248C183.03 53.0248 183.579 52.8122 184.108 52.3969C184.721 51.9272 185.235 51.0471 185.408 50.1472C185.616 49.1534 185.379 48.3573 184.776 48.0211M183.584 51.6305C183.297 51.9074 182.907 52.0656 182.511 52.0557C182.17 52.0458 181.888 51.8975 181.769 51.6701C181.611 51.3388 181.591 50.1521 182.467 49.188C182.719 48.916 183.099 48.743 183.48 48.7133C183.856 48.6886 184.153 48.827 184.271 49.0792C184.622 49.8357 184.108 51.1262 183.584 51.6305ZM200.336 47.9469C200.336 47.9469 200.262 48.204 200.212 48.4018C199.96 48.026 199.579 47.8233 199.07 47.8085C198.274 47.7838 197.443 48.382 197.216 48.5946C196.692 49.1237 196.296 49.9642 196.059 50.7652C195.653 52.1497 196.494 53.2078 197.389 53.2276C198.032 53.2374 198.585 52.9259 199.011 52.6095C198.877 52.9161 198.744 53.722 197.967 54.0236C197.75 54.1077 197.512 54.1423 197.27 54.1423C197.062 54.1423 196.889 54.0978 196.746 54.0434C196.296 53.8703 196.469 53.3561 196.469 53.3561H195.485C195.485 53.3561 195.124 54.4587 196.177 54.8889C196.464 55.0076 196.825 55.1015 197.28 55.0372C199.07 54.9235 199.619 53.7072 200.148 52.1151L201.325 47.9469H200.331H200.336ZM198.808 51.9321C198.491 52.1942 198.121 52.3227 197.799 52.2881C197.468 52.2683 197.221 52.1052 197.097 51.8233C196.978 51.5316 197.003 51.0965 197.161 50.5922C197.305 50.1472 197.532 49.7319 197.685 49.5341C198.106 48.9754 198.58 48.8666 198.907 48.8715C199.283 48.8814 199.55 49.0594 199.579 49.1336V49.1435L199.589 49.1534C199.945 49.6775 199.579 51.2893 198.803 51.9371M208.375 48.4018C208.004 47.9123 207.396 47.8085 206.951 47.8085C206.269 47.8085 204.608 48.0705 203.925 50.4834C203.658 51.4377 203.703 52.1596 204.059 52.6342C204.351 53.0149 204.855 53.2276 205.483 53.2276C206.165 53.2276 207.831 52.9655 208.514 50.5427C208.781 49.5934 208.736 48.8715 208.38 48.4018M207.515 50.4834C207.278 51.3289 206.605 52.2387 205.7 52.2387C205.399 52.2387 205.171 52.1398 205.023 51.947C204.756 51.591 204.796 50.9877 204.919 50.5427C205.156 49.7022 205.824 48.7974 206.729 48.7974C207.035 48.7974 207.263 48.8962 207.411 49.0891C207.678 49.4401 207.634 50.0384 207.51 50.4834M161.482 51.8876C161.473 51.9222 161.468 51.9717 161.482 51.9964C161.507 52.0261 161.616 52.0854 162.061 52.0112L162.224 51.9816L161.967 52.9309C161.967 52.9309 161.334 53.0298 161.013 53.0001C160.726 52.9704 160.578 52.8221 160.503 52.7084C160.385 52.5255 160.375 52.2931 160.414 52.1447L161.418 48.4364H160.741L161.003 47.4673H161.67L162.051 46.0928H163.045L162.679 47.4673H163.445L163.183 48.4364H162.417L161.487 51.8827L161.482 51.8876ZM167.881 49.2572V49.2473L166.817 53.015H165.824C165.824 53.015 166.798 49.5687 166.798 49.5637C166.991 48.9951 166.768 48.8814 166.684 48.8419C166.432 48.7133 166.209 48.6787 165.962 48.7232C165.735 48.7627 165.473 48.8864 165.122 49.1187C164.919 49.277 164.77 49.3956 164.657 49.7862L163.742 53.015H162.748L164.711 46.0581H165.705L165.052 48.3721C165.052 48.3721 165.309 48.1348 165.834 47.942C166.101 47.853 166.338 47.8085 166.56 47.8085C166.842 47.8085 167.109 47.8678 167.337 47.9815C167.574 48.0755 167.742 48.2337 167.841 48.4562C167.979 48.7776 167.92 49.1385 167.871 49.2572M180.103 48.2831C180.316 48.56 180.36 48.9506 180.227 49.4352L180.207 49.5143H179.228C179.228 49.5143 179.337 49.0742 179.248 48.9556C179.139 48.8122 178.877 48.738 178.476 48.738C178.031 48.738 177.641 48.9852 177.473 49.2127C177.384 49.3363 177.344 49.4599 177.364 49.5637C177.379 49.633 177.418 49.6874 177.488 49.7269C177.69 49.8604 178.012 49.9445 178.422 50.0532C178.422 50.0532 178.491 50.073 178.481 50.0681C178.832 50.1274 179.233 50.2214 179.539 50.4537C179.91 50.7158 179.999 51.2251 179.762 51.7788C179.535 52.3178 179.065 52.7776 178.506 53.0001C178.234 53.1089 177.898 53.1781 177.522 53.2127C177.196 53.2127 176.855 53.2127 176.583 53.1435C176.202 53.0496 175.93 52.8666 175.777 52.6046C175.604 52.3079 175.584 51.9222 175.722 51.4327L175.742 51.3536H176.687L176.657 51.4822C176.563 51.9025 176.721 52.1546 177.161 52.303C177.31 52.3524 177.552 52.3524 177.784 52.3524C178.026 52.2931 178.279 52.2288 178.417 52.1447C178.615 52.0261 178.788 51.8085 178.842 51.6157C178.907 51.3783 178.818 51.2201 178.565 51.1262L178.155 51.0223C177.67 50.9037 177.166 50.7801 176.879 50.6268C176.548 50.4884 176.212 50.1521 176.449 49.3215C176.746 48.2732 177.848 47.7936 178.748 47.7936C179.406 47.7936 179.861 47.9519 180.103 48.2683M188.296 48.9358C187.693 49.2028 187.332 49.6231 187.109 50.4142L186.373 53.015H185.379L186.813 47.9469H187.807L187.673 48.4265C187.673 48.4265 188.103 47.8431 188.83 47.8085H189.404L189.112 48.832C189.112 48.832 188.835 48.6985 188.301 48.9358M190.996 47.9469L189.562 53.015H188.568L190.002 47.9469H190.996ZM191.198 47.23H190.205L190.536 46.0581H191.53L191.198 47.23ZM195.831 49.1484V49.1583V49.1632L194.744 53.015H193.75L194.744 49.5044C194.813 49.272 194.798 49.0792 194.699 48.9457C194.595 48.8023 194.392 48.7232 194.135 48.7232C193.834 48.7232 192.83 48.8419 192.42 50.3598L191.668 53.0199H190.674L192.103 47.9519H193.097L192.993 48.3227L193.433 48.0508C193.789 47.8283 194.264 47.8085 194.516 47.8134C194.842 47.8233 195.184 47.8826 195.327 47.9618C195.53 48.0903 195.945 48.3573 195.836 49.1583M212.469 46.068L212.578 46.0928L212.341 46.9333L212.252 46.9234C211.797 46.869 211.56 46.9234 211.431 47.3635L211.268 47.942H212.044L211.782 48.8616H211.006L209.834 53.0051H208.84L210.007 48.8616H209.354L209.616 47.937H210.274L210.482 47.1904C210.704 46.3944 211.466 46.068 211.644 46.0532C211.92 46.0038 212.187 46.0038 212.469 46.0631M216.712 46.1916L214.808 52.9358L214.788 53.01H213.794L213.834 52.8765L215.738 46.1323L215.757 46.0581H216.751L216.712 46.1916ZM218.22 48.0804L216.845 52.9358L216.825 53.01H215.831L215.871 52.8765L217.246 48.0211L217.265 47.9469H218.259L218.22 48.0804ZM217.602 47.23H217.463L217.503 47.0965L217.775 46.1323L217.794 46.0581H218.788L218.749 46.1916L218.477 47.1558L218.457 47.2349H217.602V47.23ZM221.839 46.1125L221.602 46.9531L221.513 46.9432C221.058 46.8888 220.82 46.9432 220.692 47.3833L220.534 47.942H221.31L221.048 48.8616H220.272L219.1 53.0051H218.106L219.273 48.8616H218.62L218.882 47.937H219.54L219.743 47.2102C219.97 46.4141 220.726 46.0878 220.904 46.073C221.181 46.0235 221.448 46.0235 221.725 46.0829L221.839 46.1076V46.1125Z" fill="white"/>
</g>
<rect x="287" y="28" width="33" height="4" rx="2" fill="white"/>
<rect x="287" y="37" width="33" height="4" rx="2" fill="white"/>
<rect x="287" y="46" width="33" height="4" rx="2" fill="white"/>
<defs>
<clipPath id="clip0_1400_6166">
<rect width="140.155" height="32.1239" fill="white" transform="translate(93.4229 22.938)"/>
</clipPath>
</defs>
</svg>
