<svg width="55" height="55" viewBox="0 0 55 55" fill="none" xmlns="http://www.w3.org/2000/svg">
<path d="M43.083 15.8613H12.083C11.673 15.8613 11.333 16.2013 11.333 16.6113C11.333 17.0213 11.673 17.3613 12.083 17.3613H43.083C43.493 17.3613 43.833 17.0213 43.833 16.6113C43.833 16.2013 43.493 15.8613 43.083 15.8613Z" fill="#747DA1" fill-opacity="0.8"/>
<path d="M43.083 34.8613H12.083C11.673 34.8613 11.333 35.2013 11.333 35.6113C11.333 36.0213 11.673 36.3613 12.083 36.3613H43.083C43.493 36.3613 43.833 36.0213 43.833 35.6113C43.833 35.2013 43.493 34.8613 43.083 34.8613Z" fill="#747DA1" fill-opacity="0.8"/>
<path d="M32.833 20.3313C32.833 19.9213 32.493 19.5813 32.083 19.5813C31.673 19.5813 31.333 19.9213 31.333 20.3313V31.9213C31.333 32.3313 31.673 32.6713 32.083 32.6713C32.493 32.6713 32.833 32.3313 32.833 31.9213V20.3313Z" fill="#747DA1" fill-opacity="0.8"/>
<path d="M38.833 20.3313C38.833 19.9213 38.493 19.5813 38.083 19.5813C37.673 19.5813 37.333 19.9213 37.333 20.3313V31.9213C37.333 32.3313 37.673 32.6713 38.083 32.6713C38.493 32.6713 38.833 32.3313 38.833 31.9213V20.3313Z" fill="#747DA1" fill-opacity="0.8"/>
<path d="M26.043 24.2013C26.4407 24.2013 26.763 23.879 26.763 23.4813C26.763 23.0837 26.4407 22.7613 26.043 22.7613C25.6454 22.7613 25.323 23.0837 25.323 23.4813C25.323 23.879 25.6454 24.2013 26.043 24.2013Z" fill="#747DA1" fill-opacity="0.8"/>
<path d="M14.383 25.0913C14.7807 25.0913 15.103 24.769 15.103 24.3713C15.103 23.9737 14.7807 23.6513 14.383 23.6513C13.9854 23.6513 13.663 23.9737 13.663 24.3713C13.663 24.769 13.9854 25.0913 14.383 25.0913Z" fill="#747DA1" fill-opacity="0.8"/>
<path d="M25.043 30.6413C25.4407 30.6413 25.763 30.319 25.763 29.9213C25.763 29.5237 25.4407 29.2013 25.043 29.2013C24.6454 29.2013 24.323 29.5237 24.323 29.9213C24.323 30.319 24.6454 30.6413 25.043 30.6413Z" fill="#747DA1" fill-opacity="0.8"/>
<path d="M19.103 22.9813C19.5007 22.9813 19.823 22.659 19.823 22.2613C19.823 21.8637 19.5007 21.5413 19.103 21.5413C18.7054 21.5413 18.383 21.8637 18.383 22.2613C18.383 22.659 18.7054 22.9813 19.103 22.9813Z" fill="#747DA1" fill-opacity="0.8"/>
<path d="M20.273 27.8113C20.6707 27.8113 20.993 27.489 20.993 27.0913C20.993 26.6937 20.6707 26.3713 20.273 26.3713C19.8754 26.3713 19.553 26.6937 19.553 27.0913C19.553 27.489 19.8754 27.8113 20.273 27.8113Z" fill="#747DA1" fill-opacity="0.8"/>
<path d="M17.493 31.6413C17.8907 31.6413 18.213 31.319 18.213 30.9213C18.213 30.5237 17.8907 30.2013 17.493 30.2013C17.0954 30.2013 16.773 30.5237 16.773 30.9213C16.773 31.319 17.0954 31.6413 17.493 31.6413Z" fill="#747DA1" fill-opacity="0.8"/>
</svg>
