<svg width="22" height="66" viewBox="0 0 22 66" fill="none" xmlns="http://www.w3.org/2000/svg">
<path d="M4.25574 4.58426C4.97705 6.03958 6.20328 6.76725 7.57377 7.31299C7.71803 7.42214 7.89836 7.53129 7.97049 7.67682C8.47541 8.8047 8.98033 10.0417 9.48525 11.1696C9.66557 11.6426 9.80984 12.0428 9.99016 12.5521C9.41312 11.7881 8.87213 11.1696 8.33115 10.5511C7.39344 9.42321 6.27541 8.5864 4.76066 8.3681C3.20984 8.07703 1.65902 8.22257 0.144262 8.65916C0.144262 8.69555 0.0721321 8.69555 0 8.76831C0.360657 9.35044 0.721313 9.93257 1.08197 10.4783C1.87541 11.497 2.81312 12.3702 4.11148 12.8068C5.91475 13.389 7.79016 13.5345 9.66557 13.207C9.8459 13.1707 9.99016 13.1343 10.1705 13.0979C11.1082 15.8266 11.8295 18.4826 12.2984 21.2841C11.9738 20.7747 11.6492 20.1562 11.3246 19.6468C10.4951 18.3007 9.52131 17.2092 8.00656 16.6998C6.81639 16.2996 5.6623 16.1177 4.43607 16.1177C4.03934 16.1177 3.64262 16.1541 3.17377 16.1541C3.42623 16.6634 3.57049 17.1728 3.75082 17.6094C4.32787 18.8828 5.04918 19.9743 6.23934 20.702C7.6459 21.6479 9.23279 22.0845 10.8918 22.2664C11.3967 22.3028 11.9738 22.3756 12.5148 22.412C12.9836 25.1771 13.2721 28.0149 13.3082 30.8528C13.2361 30.7437 13.2 30.6345 13.1639 30.489C12.9836 29.9796 12.7672 29.3975 12.5508 28.8517C11.9377 27.2145 10.8557 25.9411 9.23279 25.1771C8.11475 24.7041 6.92459 24.3766 5.73443 24.1947C5.51803 24.1947 5.33771 24.1583 5.08525 24.0856V24.3766C5.15738 24.6313 5.19344 24.9588 5.26557 25.2862C5.62623 26.9234 6.27541 28.4879 7.68197 29.5794C9.19672 30.78 10.8918 31.5441 12.7311 31.9443C12.9475 31.9807 13.1279 31.9807 13.3443 32.0535C13.3803 34.9641 13.1639 37.8384 12.659 40.6762C12.4426 39.7303 12.2984 38.8571 12.082 37.9475C11.7934 36.6741 11.1803 35.5826 10.2066 34.7094C8.98033 33.6907 7.57377 32.9994 6.05902 32.4537C5.91475 32.4537 5.73443 32.3445 5.48197 32.3081C5.51803 33.1449 5.5541 33.8362 5.62623 34.5639C5.77049 35.8737 6.13115 37.0743 6.99672 38.0567C8.40328 39.6939 10.1344 40.9673 12.2262 41.6586C12.2984 41.6586 12.3705 41.695 12.4426 41.7677C11.9377 44.4237 11.2164 47.0069 10.2787 49.5173C10.2426 49.0443 10.2787 48.6077 10.2787 48.1711C10.2787 46.6431 9.99016 45.2241 9.08852 44.0235C8.33115 43.0411 7.39344 42.2407 6.38361 41.6222C5.84262 41.2584 5.26558 40.9673 4.68853 40.6399C4.61639 40.8945 4.58033 41.1128 4.54426 41.2947C4.21967 43.1867 4.21967 45.0058 5.19344 46.6794C5.98689 48.062 7.06885 49.2262 8.33115 50.245C8.8 50.6088 9.26885 50.8999 9.77377 51.2273C8.83607 53.6286 7.79016 55.9571 6.52787 58.2129C6.52787 58.0673 6.52787 57.9946 6.52787 57.8854C6.6 57.2305 6.67213 56.5756 6.74426 55.9571C6.85246 54.7929 6.63607 53.665 6.09508 52.6463C5.4459 51.4456 4.54426 50.3905 3.49836 49.5173C3.10164 49.1899 2.74099 48.8988 2.3082 48.535C1.76721 49.8811 1.40656 51.1546 1.40656 52.5007C1.40656 53.2648 1.44262 54.0288 1.73115 54.7565C2.48853 56.7212 3.67869 58.4675 5.30164 59.9229C5.48197 60.032 5.4459 60.1412 5.37377 60.3231C4.29181 62.1059 3.13771 63.8159 1.91148 65.4895C1.91148 65.4895 2.12787 65.9624 3.64262 64.9801C3.96721 64.4344 4.36394 63.925 4.68853 63.3429C5.40984 62.215 6.09508 61.0871 6.74426 59.9592C6.88853 59.6682 7.03279 59.5954 7.35738 59.6682C9.34098 60.1048 11.3607 60.1048 13.3082 59.559C14.7508 59.1952 15.8328 58.2856 16.8066 57.2305C17.2033 56.7575 17.5639 56.139 17.9607 55.666C17.9967 55.5569 17.9967 55.5205 18.0689 55.4478C18.0328 55.4114 17.9607 55.3386 17.9246 55.3386C16.3377 54.8292 14.7148 54.5382 13.0557 54.6837C11.3607 54.7929 10.0262 55.5933 8.87213 56.7575C8.58361 57.0486 8.36721 57.2669 8.04262 57.5216C8.04262 57.4124 8.11475 57.3397 8.15082 57.2305C9.19672 55.1567 10.1344 52.9373 10.8918 50.718C10.9639 50.4997 11.0721 50.4269 11.2885 50.4269C13.2721 50.5724 15.1836 50.2086 17.023 49.4082C18.4295 48.7533 19.4033 47.6982 20.1607 46.4248C20.5213 45.8426 20.7738 45.1514 21.1344 44.4601C20.4852 44.4601 19.8721 44.3509 19.2951 44.3509C18.141 44.3145 16.9869 44.3873 15.9049 44.7148C14.3902 45.1877 13.3082 46.0973 12.4066 47.3343C12.1902 47.589 12.0098 47.8437 11.8295 48.1348C12.3705 45.6607 12.9475 43.223 13.5246 40.749C14.4262 40.5307 15.4 40.3488 16.3016 40.0213C17.7082 39.5484 19.0066 38.8571 20.0525 37.7292C20.9541 36.7469 21.8918 34.6003 22 33.2541H21.9639C19.9803 33.2905 18.1049 33.6543 16.4098 34.7094C15.4 35.3279 14.7148 36.3467 14.1738 37.4381C14.0295 37.6564 13.9213 37.9111 13.777 38.1658C13.9934 35.7281 14.1016 33.2905 13.9213 30.8528C15.1475 30.489 16.2656 30.016 17.3115 29.3247C18.7902 28.3424 20.0885 27.1781 20.6295 25.3954C20.918 24.4494 21.0984 23.4671 21.1344 22.4847C21.1344 22.3756 21.1344 22.3028 21.1344 22.0845C20.2328 22.412 19.4393 22.5939 18.6459 22.8849C17.5639 23.3579 16.518 23.9037 15.7246 24.8132C15.0033 25.5773 14.6066 26.5232 14.282 27.5056C14.1377 27.9786 14.0295 28.4152 13.8131 28.8517C13.8131 28.7062 13.8131 28.6698 13.777 28.5243C13.6328 26.1594 13.3082 23.8309 12.8393 21.5024C12.8033 21.2841 12.8393 21.1022 13.0557 20.993C14.8951 20.0834 16.4098 18.81 17.5639 17.0636C18.3574 15.863 18.5377 14.5168 18.5016 13.0979C18.5016 12.5521 18.3934 12.0792 18.3574 11.4243C17.6361 11.7881 17.023 12.0792 16.4459 12.4066C15.1836 13.1343 14.1016 14.0075 13.3443 15.3173C12.7672 16.2996 12.623 17.4275 12.5148 18.5553C12.5148 18.9192 12.5148 19.283 12.4066 19.5741C12.4066 19.4649 12.3705 19.3922 12.2984 19.283C11.7213 16.9181 11 14.5532 10.0984 12.2611C9.99016 12.0428 9.99016 11.8973 10.2426 11.7881C11.7934 10.6602 13.0197 9.24129 13.8492 7.49491C14.5344 6.11235 14.5344 4.69341 14.2459 3.23809C14.1377 2.72873 13.9934 2.21937 13.8492 1.67362C12.8393 2.25575 11.9377 2.98341 11.1443 3.8566C9.91803 5.16639 9.26885 6.6581 9.41311 8.55001C9.41311 9.24129 9.52131 9.93257 9.55738 10.733C9.48525 10.6238 9.44918 10.5875 9.44918 10.5147C8.94426 9.49597 8.47541 8.44087 7.97049 7.38576C7.93443 7.24022 7.89836 7.09469 7.93443 6.98554C7.97049 6.03959 7.93443 5.09363 7.71803 4.18405C7.50164 3.49277 7.24918 2.76511 6.7082 2.25575C6.09508 1.60085 5.33771 1.09149 4.58033 0.654895C4.18361 0.36383 3.75082 0.181915 3.31803 0C3.2459 0 3.20984 0.036383 3.1377 0.036383C3.1377 0.36383 3.2459 0.691278 3.2459 1.05511C3.31803 2.32851 3.60656 3.56554 4.18361 4.65703L4.25574 4.58426Z" fill="white" fill-opacity="0.3"/>
</svg>
