<svg width="137" height="133" viewBox="0 0 137 133" fill="none" xmlns="http://www.w3.org/2000/svg">
<path d="M17.6504 132.092C13.1076 134.02 7.87663 132.23 5.6741 127.822C5.53644 127.409 5.26112 126.996 5.12346 126.582C3.88454 123.552 2.3703 120.66 0.993719 117.629C-1.20881 112.946 0.305428 108.814 4.98581 106.61C6.6377 105.784 8.42726 104.957 10.0792 103.993C16.4114 100.55 21.7801 96.0043 25.4969 89.806C28.9383 84.1587 30.8655 77.8227 31.8291 71.2112C32.2421 68.3187 32.3798 65.4261 32.6551 62.3959H10.9051C5.53644 62.3959 2.3703 59.2279 2.3703 53.8561V7.98888C2.3703 4.95861 3.74688 2.34157 6.91302 0.826435C7.87663 0.413218 8.84023 0.137739 9.9415 0.137739H55.5064C57.7089 0.137739 59.7738 0.688696 61.5633 1.79061C61.9763 2.06609 62.3893 2.34157 62.6646 2.61705C63.0776 3.03026 63.3529 3.44348 63.6282 3.8567C64.4541 5.23409 64.8671 6.88696 64.8671 8.67757V35.399C64.7295 35.9499 64.7295 54.6825 64.5918 55.2334C63.9035 62.5336 63.4905 69.8338 62.3893 76.9962C59.7738 95.3156 50.5507 109.916 36.0965 121.211C30.4526 125.618 24.2579 129.199 17.6504 132.092ZM89.6456 132.23C85.1029 134.158 79.8718 132.367 77.6693 127.96C77.5317 127.547 77.2563 127.133 77.1187 126.72C75.8798 123.69 74.3655 120.797 72.9889 117.767C70.7864 113.084 72.3007 108.952 76.981 106.748C78.6329 105.921 80.4225 105.095 82.0744 104.131C88.4067 100.687 93.7753 96.142 97.4921 89.9437C100.934 84.2964 102.861 77.9604 103.824 71.3489C104.237 68.4564 104.375 65.5639 104.65 62.5336H82.9003C77.5317 62.5336 74.3655 59.3656 74.3655 53.9938V8.12662C74.3655 4.68313 75.7421 2.20383 78.9082 0.688696C79.8718 0.137739 80.9731 0 82.0744 0H127.639C129.842 0 131.907 0.550957 133.696 1.65287C134.109 1.92835 134.522 2.20383 134.797 2.47931C135.21 2.89252 135.486 3.30574 135.761 3.71896C136.587 5.09635 137 6.74922 137 8.53983V35.399C136.862 35.9499 136.862 54.6825 136.725 55.2334C135.899 62.5336 135.486 69.8338 134.384 77.134C131.769 95.4533 122.684 110.054 108.092 121.348C102.448 125.756 96.2532 129.337 89.6456 132.23Z" fill="#C9C9C9"/>
</svg>
