<svg width="28" height="28" viewBox="0 0 28 28" fill="none" xmlns="http://www.w3.org/2000/svg">
<path d="M25.0502 10.9091C25.0502 8.04039 22.879 5.71484 20.2008 5.71484H7.79963C5.12135 5.71484 2.9502 8.04039 2.9502 10.9091V17.0904C2.9502 19.9591 5.12135 22.2847 7.79963 22.2847H20.2001C22.8784 22.2847 25.0496 19.9591 25.0496 17.0904L25.0502 10.9091ZM17.7573 14.4626L12.1966 17.4097C11.9784 17.5361 11.2377 17.3669 11.2377 17.1016V11.0527C11.2377 10.784 11.9846 10.6148 12.2028 10.7478L17.5255 13.8496C17.7487 13.9859 17.9829 14.3316 17.7573 14.4626Z" fill="url(#paint0_linear_4037_6832)"/>
<defs>
<linearGradient id="paint0_linear_4037_6832" x1="-2.59302" y1="22.2847" x2="-19.1867" y2="22.2847" gradientUnits="userSpaceOnUse">
<stop stop-color="white"/>
<stop offset="1" stop-color="#4064DF"/>
</linearGradient>
</defs>
</svg>
