<svg width="31" height="20" viewBox="0 0 31 20" fill="none" xmlns="http://www.w3.org/2000/svg">
<path d="M0.621585 6.18508L6.4071 9.92062C6.63251 10.0635 6.89208 10.1384 7.15164 10.1384C7.37705 10.1384 7.60246 10.0839 7.80738 9.97505C8.24454 9.7369 8.51776 9.28102 8.51776 8.7775V8.04944H19.2623C21.0383 8.1447 22.6571 8.99524 23.709 10.3833C24.7541 11.7646 25.1229 13.5337 24.7199 15.2552C24.4945 16.235 23.9617 17.1808 23.1831 17.9905C23.0943 18.0857 23.026 18.1946 22.9713 18.3035C22.9577 18.3375 22.9372 18.3647 22.9235 18.3987C22.8962 18.4736 22.8757 18.5484 22.8757 18.6233C22.8757 18.7321 22.9098 18.8342 22.9577 18.9295C23.0738 19.1472 23.2924 19.3037 23.5587 19.3037C23.8251 19.3037 24.0437 19.1472 24.1598 18.9295H24.1735C25.0683 17.9973 25.7582 16.8338 26.0519 15.5614C27.097 11.091 23.8525 6.91313 19.2964 6.68859H7.15164V8.7775L1.36612 5.04196L7.15164 1.36085V3.44976H19.8497C26.5096 4.02132 30.9973 10.4241 29.0915 16.8882C28.9617 17.3441 28.709 17.936 28.5178 18.3647V18.3715C28.4836 18.4464 28.4631 18.5348 28.4631 18.6233C28.4631 18.7321 28.4973 18.8342 28.5451 18.9295C28.6612 19.1472 28.8798 19.3037 29.1462 19.3037C29.4126 19.3037 29.6311 19.1472 29.7473 18.9295C29.7473 18.9295 29.7473 18.9159 29.7541 18.9159C29.7609 18.9022 29.7678 18.8818 29.7746 18.8682C30.0068 18.3647 30.2322 17.8476 30.3962 17.2692C31.4139 13.8195 30.8402 10.1588 28.8251 7.21932C26.8033 4.26627 23.5724 2.40191 19.959 2.08891C19.918 2.08891 19.8839 2.08891 19.8429 2.08891H8.51776V1.36085C8.51776 0.864142 8.24454 0.408256 7.80738 0.170107C7.60246 0.0612384 7.37705 0 7.15164 0C6.89891 0 6.63934 0.0748469 6.41393 0.210932L0.628415 3.89204C0.239071 4.1438 0 4.57247 0 5.03516C0 5.49785 0.23224 5.93332 0.621585 6.18508Z" fill="#D3DCFE"/>
</svg>
