<svg width="46" height="29" viewBox="0 0 46 29" fill="none" xmlns="http://www.w3.org/2000/svg">
<path d="M44.312 19.28L35.842 13.79C35.512 13.58 35.132 13.47 34.752 13.47C34.422 13.47 34.092 13.55 33.792 13.71C33.152 14.06 32.752 14.73 32.752 15.47V16.54H17.022C14.422 16.4 12.052 15.15 10.512 13.11C8.98198 11.08 8.44198 8.48 9.03198 5.95C9.36198 4.51 10.142 3.12 11.282 1.93C11.412 1.79 11.512 1.63 11.592 1.47C11.612 1.42 11.642 1.38 11.662 1.33C11.702 1.22 11.732 1.11 11.732 1C11.732 0.84 11.682 0.690001 11.612 0.550001C11.442 0.230001 11.122 0 10.732 0C10.342 0 10.022 0.230001 9.85198 0.550001H9.83198C8.52198 1.92 7.51198 3.63 7.08198 5.5C5.55198 12.07 10.302 18.21 16.972 18.54H34.752V15.47L43.222 20.96L34.752 26.37V23.3H16.162C6.41198 22.46 -0.158016 13.05 2.63198 3.55C2.82198 2.88 3.19198 2.01 3.47198 1.38V1.37C3.52198 1.26 3.55198 1.13 3.55198 1C3.55198 0.84 3.50198 0.690001 3.43198 0.550001C3.26198 0.230001 2.94198 0 2.55198 0C2.16198 0 1.84198 0.230001 1.67198 0.550001C1.67198 0.550001 1.67198 0.57 1.66198 0.57C1.65198 0.59 1.64198 0.620001 1.63198 0.640001C1.29198 1.38 0.961984 2.14 0.721984 2.99C-0.768016 8.06 0.0719841 13.44 3.02198 17.76C5.98198 22.1 10.712 24.84 16.002 25.3C16.062 25.3 16.112 25.3 16.172 25.3H32.762V26.37C32.762 27.1 33.162 27.77 33.802 28.12C34.102 28.28 34.432 28.37 34.762 28.37C35.132 28.37 35.512 28.26 35.842 28.06L44.312 22.65C44.882 22.28 45.232 21.65 45.232 20.97C45.232 20.29 44.892 19.65 44.322 19.28H44.312Z" fill="#4064DF"/>
</svg>
