<svg width="60" height="60" viewBox="0 0 60 60" fill="none" xmlns="http://www.w3.org/2000/svg">
<path d="M11.1322 47.7672H31.8875C32.3043 47.7672 32.6422 47.4293 32.6422 47.0125C32.6422 46.5957 32.3043 46.2578 31.8875 46.2578H11.1322C10.2998 46.2578 9.62269 45.5807 9.62269 44.7483V13.8041C9.62269 12.9718 10.2998 12.2947 11.1322 12.2947H19.4344V24.7478C19.4344 25.035 19.5973 25.2972 19.8546 25.4245C20.1121 25.5517 20.4194 25.5218 20.6474 25.3474L23.38 23.2583L26.1244 25.5191C26.2638 25.6339 26.4341 25.6912 26.6043 25.6912C26.7745 25.6912 26.9447 25.6339 27.0841 25.5192L29.8293 23.2584L32.5611 25.3473C32.7892 25.5218 33.0967 25.5517 33.3539 25.4245C33.6113 25.2973 33.7742 25.035 33.7742 24.7478V12.2947H42.0764C42.9088 12.2947 43.5859 12.9718 43.5859 13.8041C43.5859 14.221 43.9238 14.5589 44.3406 14.5589C44.7574 14.5589 45.0953 14.221 45.0953 13.8041C45.0953 12.1395 43.741 10.7852 42.0764 10.7852H11.1322C9.46757 10.7852 8.11328 12.1395 8.11328 13.8041V44.7483C8.11328 46.4129 9.46757 47.7672 11.1322 47.7672ZM32.2648 23.2205L30.2704 21.6954C29.9916 21.4821 29.6028 21.4893 29.3321 21.7123L26.6044 23.9587L23.8773 21.7124C23.6065 21.4893 23.2179 21.4822 22.939 21.6953L20.9437 23.2207V12.2947H32.2648L32.2648 23.2205Z" fill="#747CA0"/>
<path d="M20.567 37.2012H11.8875C11.4707 37.2012 11.1328 37.5391 11.1328 37.9559C11.1328 38.3727 11.4707 38.7106 11.8875 38.7106H20.567C20.9839 38.7106 21.3218 38.3727 21.3218 37.9559C21.3217 37.5391 20.9839 37.2012 20.567 37.2012Z" fill="#747CA0"/>
<path d="M20.5661 41.3516H19.8114C19.3945 41.3516 19.0566 41.6895 19.0566 42.1063C19.0566 42.5231 19.3945 42.861 19.8114 42.861H20.5661C20.9829 42.861 21.3208 42.5231 21.3208 42.1063C21.3208 41.6895 20.983 41.3516 20.5661 41.3516Z" fill="#747CA0"/>
<path d="M11.8875 41.3516C11.4707 41.3516 11.1328 41.6895 11.1328 42.1063C11.1328 42.5231 11.4707 42.861 11.8875 42.861H16.7933C17.2102 42.861 17.5481 42.5231 17.5481 42.1063C17.5481 41.6895 17.2102 41.3516 16.7933 41.3516H11.8875Z" fill="#747CA0"/>
<path d="M49.4351 34.1821C49.0124 34.1821 48.6143 34.2896 48.2667 34.4786C47.8779 33.6363 47.0258 33.05 46.0388 33.05C45.6161 33.05 45.218 33.1575 44.8705 33.3465C44.4817 32.5042 43.6296 31.9179 42.6424 31.9179C42.3083 31.9179 41.9896 31.9853 41.699 32.1068V27.2008C41.699 25.8482 40.5987 24.7479 39.2462 24.7479C39.1259 24.7479 39.0078 24.7569 38.8922 24.7737C38.7524 24.2772 38.6801 23.7634 38.6801 23.2384C38.6801 20.1172 41.2194 17.5779 44.3406 17.5779C47.4619 17.5779 50.0012 20.1172 50.0012 23.2384C50.0012 26.3596 47.4619 28.8989 44.3406 28.8989C44.2327 28.8989 44.1242 28.8958 44.0179 28.8899C43.6021 28.8656 43.2454 29.1849 43.2221 29.6011C43.1987 30.0173 43.5171 30.3736 43.9333 30.3969C44.0676 30.4045 44.2046 30.4083 44.3406 30.4083C48.2941 30.4083 51.5106 27.1918 51.5106 23.2383C51.5106 19.2848 48.2941 16.0684 44.3406 16.0684C40.3871 16.0684 37.1707 19.2848 37.1707 23.2383C37.1707 24 37.2902 24.7436 37.5228 25.4573C37.0727 25.9023 36.7933 26.5194 36.7933 27.2007V39.2343C36.7933 39.7549 36.382 39.9191 36.2559 39.957C36.1299 39.9949 35.6963 40.0848 35.409 39.6506L33.7664 37.1673C32.7332 35.6052 30.6219 35.1752 29.0601 36.2083C28.7238 36.4308 28.4942 36.7708 28.4137 37.1659C28.3332 37.5609 28.4113 37.9638 28.6338 38.3L34.2983 46.864C36.0791 49.5563 39.0694 51.1636 42.2974 51.1636C47.5857 51.1636 51.8879 46.8614 51.8879 41.5731V36.6349C51.888 35.2824 50.7876 34.1821 49.4351 34.1821ZM50.3785 41.5731C50.3785 46.029 46.7533 49.6542 42.2974 49.6542C39.5775 49.6542 37.0579 48.2998 35.5574 46.0312L29.8928 37.4673C30.7605 36.8933 31.9335 37.1322 32.5075 38.0001L34.1501 40.4835C34.7143 41.3362 35.7114 41.6971 36.6908 41.4025C37.67 41.108 38.3027 40.2569 38.3027 39.2343V27.2008C38.3027 26.6805 38.726 26.2573 39.2462 26.2573C39.7664 26.2573 40.1896 26.6805 40.1896 27.2008V37.5784C40.1896 37.9952 40.5275 38.3331 40.9443 38.3331C41.3611 38.3331 41.699 37.9952 41.699 37.5784V34.3707C41.699 33.8506 42.1223 33.4273 42.6425 33.4273C43.1627 33.4273 43.5859 33.8506 43.5859 34.3707V37.5784C43.5859 37.9952 43.9238 38.3331 44.3407 38.3331C44.7575 38.3331 45.0954 37.9952 45.0954 37.5784V35.5029C45.0954 34.9827 45.5186 34.5595 46.0388 34.5595C46.559 34.5595 46.9823 34.9827 46.9823 35.5029V37.5784C46.9823 37.9952 47.3202 38.3331 47.737 38.3331C48.1538 38.3331 48.4917 37.9952 48.4917 37.5784V36.6349C48.4917 36.1148 48.9149 35.6915 49.4351 35.6915C49.9553 35.6915 50.3785 36.1148 50.3785 36.6349V41.5731H50.3785Z" fill="#4064DF"/>
<path d="M43.9631 25.88C44.1563 25.88 44.3495 25.8063 44.4968 25.6589L48.4591 21.6966C48.7539 21.4019 48.7539 20.924 48.4591 20.6292C48.1645 20.3345 47.6864 20.3345 47.3918 20.6292L43.9631 24.0579L42.4212 22.5161C42.1264 22.2213 41.6485 22.2213 41.3539 22.5161C41.0591 22.8108 41.0591 23.2887 41.3539 23.5834L43.4295 25.6589C43.5769 25.8063 43.77 25.88 43.9631 25.88Z" fill="#4064DF"/>
</svg>
