<svg width="227" height="109" viewBox="0 0 227 109" fill="none" xmlns="http://www.w3.org/2000/svg">
<path d="M54.1035 108.207C83.9841 108.207 108.207 83.9841 108.207 54.1035C108.207 24.223 83.9841 0 54.1035 0C24.223 0 0 24.223 0 54.1035C0 83.9841 24.223 108.207 54.1035 108.207Z" fill="#8497D5" fill-opacity="0.1"/>
<path d="M33.3945 66.5236V54.7012H34.9298L39.1675 63.59L43.381 54.7012H44.9308V66.5138H43.3229V58.4281L39.5501 66.5236H38.78L34.9976 58.4281V66.5236H33.3994H33.3945Z" fill="white"/>
<path d="M49.6827 66.7691C49.0337 66.7691 48.4913 66.6467 48.0506 66.4018C47.6099 66.157 47.2805 65.8337 47.0578 65.4321C46.835 65.0306 46.7188 64.5898 46.7188 64.1049C46.7188 63.6544 46.7962 63.2626 46.9561 62.9247C47.111 62.5867 47.3435 62.2978 47.6535 62.0578C47.9634 61.8178 48.3412 61.6268 48.7916 61.4799C49.179 61.3673 49.6246 61.2644 50.1137 61.1763C50.6077 61.0881 51.126 61.0049 51.6684 60.9314C52.2108 60.853 52.7532 60.7796 53.286 60.7012L52.6709 61.0441C52.6806 60.3486 52.5353 59.8344 52.235 59.4965C51.9348 59.1585 51.4214 58.992 50.6901 58.992C50.23 58.992 49.8086 59.0998 49.426 59.3153C49.0434 59.5307 48.7722 59.8883 48.6221 60.3878L47.0384 59.8932C47.2563 59.1341 47.668 58.5268 48.2782 58.0811C48.8885 57.6305 49.6972 57.4102 50.7094 57.4102C51.494 57.4102 52.1769 57.5473 52.7581 57.8166C53.3392 58.086 53.7654 58.517 54.0366 59.0998C54.1771 59.3887 54.2643 59.6973 54.2982 60.0205C54.3321 60.3437 54.3466 60.6914 54.3466 61.0636V66.5243H52.8452V64.4967L53.1358 64.7612C52.7726 65.4419 52.3125 65.9464 51.7507 66.2745C51.1889 66.6075 50.5012 66.7691 49.6827 66.7691ZM49.983 65.3636C50.4625 65.3636 50.879 65.2754 51.2228 65.104C51.5667 64.9326 51.8476 64.7122 52.0607 64.4429C52.2738 64.1735 52.4094 63.8944 52.4723 63.6054C52.5643 63.3409 52.6176 63.0471 52.6322 62.719C52.6467 62.3908 52.6515 62.1264 52.6515 61.9305L53.2036 62.1362C52.6661 62.2194 52.1817 62.2929 51.741 62.3566C51.3003 62.4202 50.908 62.4888 50.5496 62.5476C50.1961 62.6112 49.8813 62.6847 49.6052 62.7728C49.3728 62.8561 49.1645 62.954 48.9853 63.0667C48.8061 63.1793 48.6608 63.3214 48.5543 63.483C48.4477 63.6495 48.3945 63.8454 48.3945 64.0805C48.3945 64.3155 48.4526 64.5212 48.564 64.7171C48.6754 64.913 48.8497 65.0648 49.0822 65.1824C49.3146 65.295 49.6149 65.3538 49.9733 65.3538L49.983 65.3636Z" fill="white"/>
<path d="M59.9362 66.7694C59.1177 66.7694 58.4154 66.5637 57.8197 66.1523C57.2289 65.7409 56.7688 65.1826 56.4492 64.4725C56.1247 63.7624 55.9648 62.9641 55.9648 62.0777C55.9648 61.1912 56.1295 60.3881 56.454 59.6828C56.7785 58.9776 57.2386 58.4242 57.8391 58.0177C58.4348 57.6112 59.1468 57.4055 59.9701 57.4055C60.7934 57.4055 61.4956 57.6112 62.0623 58.0177C62.6289 58.4242 63.0551 58.9825 63.3457 59.6877C63.6363 60.393 63.7816 61.1912 63.7816 62.0777C63.7816 62.9641 63.6363 63.7624 63.3409 64.4676C63.0503 65.1728 62.6192 65.7312 62.0478 66.1474C61.4763 66.5637 60.774 66.7694 59.9362 66.7694ZM60.1735 65.2169C60.7304 65.2169 61.1857 65.0847 61.5392 64.8153C61.8928 64.546 62.1495 64.1787 62.3093 63.7085C62.4691 63.2384 62.5514 62.6947 62.5514 62.0826C62.5514 61.4704 62.4691 60.9268 62.3044 60.4566C62.1398 59.9865 61.8831 59.6192 61.5392 59.3547C61.1954 59.0902 60.7595 58.9629 60.2268 58.9629C59.665 58.9629 59.2 59.1049 58.8368 59.3792C58.4736 59.6583 58.2023 60.0354 58.028 60.5056C57.8536 60.9757 57.7665 61.4998 57.7665 62.0826C57.7665 62.6654 57.8536 63.1992 58.028 63.6693C58.2023 64.1444 58.4687 64.5166 58.8223 64.8006C59.1758 65.0798 59.6262 65.2169 60.1638 65.2169H60.1735ZM62.5514 66.5245V60.1481H62.3577V54.707H64.0625V66.5294H62.5514V66.5245Z" fill="white"/>
<path d="M70.2219 66.7691C69.3501 66.7691 68.5849 66.5781 67.9263 66.1913C67.2676 65.8044 66.7591 65.2656 66.391 64.5751C66.0278 63.8846 65.8438 63.0814 65.8438 62.1656C65.8438 61.1959 66.0229 60.3584 66.3813 59.6434C66.7397 58.9284 67.2434 58.3798 67.8875 57.9929C68.5317 57.6061 69.2823 57.4102 70.1347 57.4102C70.9871 57.4102 71.7862 57.6207 72.4158 58.037C73.0454 58.4533 73.5152 59.0508 73.8252 59.8246C74.1351 60.5984 74.261 61.5142 74.1932 62.5769H72.4981V61.955C72.4885 60.9265 72.2947 60.1674 71.917 59.6728C71.5392 59.1781 70.9677 58.9333 70.1977 58.9333C69.3501 58.9333 68.7109 59.2026 68.2798 59.7462C67.8488 60.2898 67.6405 61.0685 67.6405 62.0921C67.6405 63.1157 67.8536 63.8209 68.2798 64.3547C68.706 64.8885 69.3259 65.153 70.1299 65.153C70.6626 65.153 71.1179 65.0306 71.5053 64.7857C71.8928 64.5408 72.193 64.1931 72.411 63.7376L74.077 64.2715C73.738 65.0648 73.2198 65.6819 72.5272 66.1129C71.8346 66.5488 71.0646 66.7642 70.2122 66.7642L70.2219 66.7691ZM67.0981 62.572V61.2351H73.3554V62.572H67.0981Z" fill="white"/>
<path d="M29.3086 71.0343V69.3691H31.0037V71.0343H29.3086ZM29.3086 81.3531V72.4888H31.0037V81.3531H29.3086Z" fill="white"/>
<path d="M33.4297 81.3543V72.49H34.9456V75.0513H35.149V81.3543H33.4297ZM39.5901 81.3543V76.9956C39.5901 76.6528 39.561 76.2953 39.5029 75.9329C39.4448 75.5705 39.3383 75.2325 39.1784 74.9191C39.0186 74.6057 38.7958 74.3559 38.5052 74.1649C38.2147 73.9739 37.8369 73.876 37.372 73.876C37.0668 73.876 36.7811 73.9249 36.5099 74.0278C36.2387 74.1306 36.0014 74.2922 35.798 74.5175C35.5945 74.7428 35.4347 75.0366 35.3185 75.4039C35.2023 75.7713 35.1441 76.2169 35.1441 76.7409L34.0883 76.3394C34.0883 75.5362 34.2385 74.826 34.5339 74.209C34.8293 73.5919 35.2604 73.1119 35.8173 72.7691C36.3743 72.4263 37.0475 72.25 37.8369 72.25C38.4423 72.25 38.9508 72.348 39.3625 72.5438C39.7741 72.7397 40.1083 72.9993 40.365 73.3176C40.6217 73.636 40.8202 73.9886 40.9558 74.3657C41.0914 74.7428 41.1835 75.115 41.2319 75.4725C41.2803 75.8349 41.3045 76.1533 41.3045 76.4226V81.3494H39.5852L39.5901 81.3543Z" fill="white"/>
<path d="M46.8359 81.3517V69.5293H48.531V81.3517H46.8359Z" fill="white"/>
<path d="M49.9922 73.865V72.4839H55.9831V73.865H49.9922ZM55.9831 81.3531C55.431 81.4609 54.8885 81.5099 54.3607 81.4952C53.8279 81.4805 53.3581 81.3727 52.9416 81.1817C52.5251 80.9907 52.2103 80.6871 52.0021 80.2806C51.8132 79.9133 51.7115 79.5411 51.697 79.1591C51.6824 78.7771 51.6776 78.3461 51.6776 77.8662V70.0254H53.3823V77.7829C53.3823 78.1404 53.3823 78.449 53.392 78.7085C53.4017 78.973 53.455 79.1934 53.5567 79.3746C53.7504 79.7125 54.0604 79.9084 54.4866 79.9525C54.9128 80.0015 55.4116 79.9819 55.9831 79.8986V81.3531Z" fill="white"/>
<path d="M60.3038 81.5992C59.6548 81.5992 59.1124 81.4768 58.6717 81.2319C58.231 80.987 57.9016 80.6638 57.6789 80.2622C57.4561 79.8606 57.3398 79.4199 57.3398 78.935C57.3398 78.4845 57.4173 78.0927 57.5772 77.7547C57.7321 77.4168 57.9646 77.1279 58.2746 76.8879C58.5845 76.6479 58.9623 76.4569 59.4127 76.31C59.8001 76.1974 60.2457 76.0945 60.7348 76.0064C61.2288 75.9182 61.747 75.835 62.2895 75.7615C62.8319 75.6831 63.3743 75.6097 63.9071 75.5313L63.292 75.8741C63.3017 75.1787 63.1564 74.6645 62.8561 74.3265C62.5558 73.9886 62.0425 73.8221 61.3112 73.8221C60.8511 73.8221 60.4297 73.9299 60.0471 74.1453C59.6645 74.3608 59.3933 74.7183 59.2432 75.2179L57.6595 74.7281C57.8774 73.969 58.2891 73.3618 58.8993 72.9112C59.5095 72.4606 60.3183 72.2402 61.3305 72.2402C62.1151 72.2402 62.798 72.3774 63.3792 72.6467C63.9603 72.9161 64.3865 73.3471 64.6577 73.9299C64.7982 74.2188 64.8854 74.5273 64.9193 74.8506C64.9532 75.1738 64.9677 75.5215 64.9677 75.8937V81.3544H63.4663V79.3268L63.7569 79.5913C63.3937 80.272 62.9336 80.7765 62.3718 81.1046C61.81 81.4376 61.1223 81.5992 60.3038 81.5992ZM60.6041 80.1986C61.0835 80.1986 61.5001 80.1104 61.8439 79.939C62.1878 79.7676 62.4687 79.5472 62.6818 79.2778C62.8949 79.0085 63.0305 78.7293 63.0934 78.4404C63.1854 78.1759 63.2387 77.8821 63.2532 77.554C63.2678 77.2258 63.2726 76.9614 63.2726 76.7655L63.8247 76.9712C63.2871 77.0544 62.8028 77.1279 62.3621 77.1915C61.9214 77.2552 61.5291 77.3238 61.1707 77.3825C60.8172 77.4462 60.5024 77.5197 60.2263 77.6078C59.9939 77.6911 59.7856 77.789 59.6064 77.9017C59.4272 78.0143 59.2819 78.1563 59.1754 78.3179C59.0688 78.4796 59.0156 78.6804 59.0156 78.9154C59.0156 79.1505 59.0737 79.3562 59.1851 79.5521C59.2964 79.748 59.4708 79.8998 59.7033 80.0174C59.9357 80.1349 60.236 80.1888 60.5944 80.1888L60.6041 80.1986Z" fill="white"/>
<path d="M67.2344 81.3524V69.2852H68.9295V81.3524H67.2344Z" fill="white"/>
<path d="M72.5521 85.297L74.2471 80.6249L74.2714 82.0059L70.4453 72.4902H72.213L75.0705 79.8364H74.5523L77.2789 72.4902H78.9982L74.16 85.297H72.5424H72.5521Z" fill="white"/>
<path d="M39.0738 43.5313L50.4105 22.5968" stroke="#009347" stroke-width="11" stroke-miterlimit="10" stroke-linecap="round"/>
<path d="M48.7809 43.5313L60.1176 22.5968" stroke="white" stroke-width="11" stroke-miterlimit="10" stroke-linecap="round"/>
<path d="M58.4957 43.5313L69.8324 22.5968" stroke="#CF2837" stroke-width="11" stroke-miterlimit="10" stroke-linecap="round"/>
<g clip-path="url(#clip0_2519_13055)">
<mask id="mask0_2519_13055" style="mask-type:luminance" maskUnits="userSpaceOnUse" x="118" y="0" width="109" height="108">
<path d="M226.207 0H118.207V108H226.207V0Z" fill="white"/>
</mask>
<g mask="url(#mask0_2519_13055)">
<path d="M172.207 108C142.427 108 118.207 83.7604 118.207 54C118.207 24.2396 142.427 0 172.207 0C201.987 0 226.207 24.2199 226.207 54C226.207 83.7801 201.987 108 172.207 108Z" fill="#8497D5" fill-opacity="0.1"/>
<path d="M191.745 58.7983H151.078V60.9301H191.745V58.7983Z" fill="#E42313"/>
<path d="M151.39 54.3311C151.849 54.5606 152.603 54.7082 153.21 54.7082C154.112 54.7082 154.522 54.3311 154.522 53.8391C154.522 53.2324 154.079 52.9537 153.161 52.4453C151.455 51.5106 151.177 50.4284 151.177 49.7069C151.177 48.0999 152.308 46.7061 154.735 46.7061C155.456 46.7061 156.145 46.8864 156.473 47.0504L156.129 48.969C155.817 48.7886 155.358 48.641 154.751 48.641C153.931 48.641 153.554 49.0346 153.554 49.4773C153.554 49.9036 153.767 50.166 154.964 50.7891C156.424 51.5434 156.899 52.5601 156.899 53.5604C156.899 55.3969 155.424 56.6104 153.193 56.6104C152.292 56.6104 151.439 56.4136 151.078 56.2332L151.39 54.2983V54.3311Z" fill="white"/>
<path d="M161.379 52.9025L161.117 51.0496C161.035 50.4921 160.904 49.4426 160.805 48.8359H160.772C160.658 49.4426 160.51 50.5249 160.412 51.0496L160.1 52.9025H161.379ZM159.854 54.6243L159.493 56.5429H157.148L159.379 46.7861H162.314L164.232 56.5429H161.887L161.543 54.6243H159.838H159.854Z" fill="white"/>
<path d="M167.725 54.9029C167.856 54.9357 167.971 54.9357 168.118 54.9357C168.774 54.9357 169.397 54.5421 169.397 53.673C169.397 52.804 168.807 52.394 168.134 52.394H167.725V54.9029ZM167.725 50.7542H168.118C168.758 50.7542 169.2 50.2295 169.2 49.5408C169.2 48.9013 168.872 48.4093 168.233 48.4093C168.036 48.4093 167.856 48.4093 167.725 48.4749V50.7542ZM165.314 46.9499C165.986 46.8187 166.905 46.7695 167.889 46.7695C168.872 46.7695 169.905 46.8515 170.693 47.4582C171.299 47.9174 171.529 48.6061 171.529 49.2784C171.529 50.0819 171.086 50.9346 170.053 51.3937V51.4429C171.266 51.7709 171.873 52.722 171.873 53.7058C171.873 54.5093 171.594 55.1325 171.086 55.608C170.447 56.2475 169.332 56.6411 167.331 56.6411C166.544 56.6411 165.822 56.5919 165.281 56.5263V46.9499H165.314Z" fill="white"/>
<path d="M175.725 54.9029C175.856 54.9357 175.971 54.9357 176.118 54.9357C176.774 54.9357 177.397 54.5421 177.397 53.673C177.397 52.804 176.807 52.394 176.134 52.394H175.725V54.9029ZM175.725 50.7542H176.118C176.758 50.7542 177.2 50.2295 177.2 49.5408C177.2 48.9013 176.872 48.4093 176.233 48.4093C176.036 48.4093 175.856 48.4093 175.725 48.4749V50.7542ZM173.314 46.9499C173.986 46.8187 174.905 46.7695 175.889 46.7695C176.872 46.7695 177.905 46.8515 178.693 47.4582C179.299 47.9174 179.529 48.6061 179.529 49.2784C179.529 50.0819 179.086 50.9346 178.053 51.3937V51.4429C179.266 51.7709 179.873 52.722 179.873 53.7058C179.873 54.5093 179.594 55.1325 179.086 55.608C178.447 56.2475 177.332 56.6411 175.331 56.6411C174.544 56.6411 173.822 56.5919 173.281 56.5263V46.9499H173.314Z" fill="white"/>
<path d="M183.743 46.8027H181.316V56.5595H183.743V46.8027Z" fill="white"/>
<path d="M188.875 52.9025L188.613 51.0496C188.531 50.4921 188.4 49.4426 188.301 48.8359H188.268C188.154 49.4426 188.006 50.5249 187.908 51.0496L187.596 52.9025H188.875ZM187.35 54.6243L186.989 56.5429H184.645L186.875 46.7861H189.81L191.728 56.5429H189.384L189.039 54.6243H187.334H187.35Z" fill="white"/>
<path d="M192.533 47.1811H192.631C192.779 47.1811 192.844 47.1155 192.844 47.0335C192.844 46.9351 192.762 46.9023 192.648 46.9023C192.598 46.9023 192.566 46.9023 192.533 46.9023V47.1811ZM192.517 47.9026H192.074V46.6399C192.156 46.6399 192.385 46.5907 192.68 46.5907C192.992 46.5907 193.123 46.6235 193.222 46.6891C193.304 46.7383 193.353 46.8367 193.353 46.9679C193.353 47.0991 193.222 47.2138 193.041 47.2466C193.189 47.3122 193.271 47.4106 193.32 47.591C193.369 47.7714 193.402 47.8534 193.418 47.8862H192.926C192.926 47.8862 192.861 47.7386 192.844 47.6402C192.828 47.5254 192.762 47.4598 192.648 47.4598H192.533V47.8862L192.517 47.9026ZM192.664 46.2136C192.09 46.2136 191.664 46.6727 191.664 47.263C191.664 47.8534 192.09 48.3125 192.664 48.3125C193.254 48.3125 193.681 47.8534 193.681 47.2466C193.681 46.6399 193.254 46.2136 192.664 46.2136ZM192.68 45.8364C193.5 45.8364 194.14 46.4759 194.14 47.263C194.14 48.0501 193.484 48.7061 192.664 48.7061C191.844 48.7061 191.172 48.0665 191.172 47.263C191.172 46.4595 191.844 45.8364 192.664 45.8364H192.68Z" fill="white"/>
<path d="M147.103 33.9116L144.637 39.021L147.383 40.347L149.85 35.2376L147.103 33.9116Z" fill="#E42313"/>
<path d="M149.619 26.8805L147.75 28.3235L146.258 26.3722L152.456 21.584L153.965 23.5189L152.079 24.9783L157.605 32.1278L155.145 34.0464L149.619 26.8805Z" fill="white"/>
<path d="M161.248 25.7481C160.428 26.1252 159.69 26.7647 160.035 27.5846C160.313 28.2406 160.887 28.3061 161.199 28.1586C161.494 28.0274 161.838 27.7486 161.855 27.3387C161.855 27.2403 161.838 27.1255 161.773 26.9943L161.232 25.7317L161.248 25.7481ZM164.856 26.4204C165.118 27.0435 165.413 27.6502 165.757 28.1258L163.199 29.208L162.74 28.5357H162.707C162.429 29.372 161.789 29.9623 160.986 30.3067C159.543 30.9298 158.05 30.3559 157.46 28.9621C156.575 26.8959 158.444 25.125 160.494 24.2395L160.428 24.0919C160.248 23.6655 159.641 23.5344 158.903 23.8459C158.1 24.1903 157.575 24.6166 157.099 25.1741L155.902 23.7639C156.345 23.272 157.345 22.4029 158.772 21.7962C161.937 20.4516 163.068 22.2225 163.708 23.7147L164.839 26.3876L164.856 26.4204Z" fill="white"/>
<path d="M167.298 16.0453L164.234 16.6104L166.376 28.221L169.44 27.6559L167.298 16.0453Z" fill="white"/>
<path d="M175.055 22.6165C175.088 21.7966 174.957 20.9111 174.153 20.8783C173.366 20.8455 173.054 21.8294 173.022 22.5345L175.055 22.6165ZM172.956 24.3547C172.956 25.1254 173.71 25.6173 174.907 25.6501C175.695 25.6829 176.383 25.5681 176.908 25.4533L177.22 27.3391C176.482 27.5359 175.35 27.6506 174.268 27.6015C171.431 27.5031 169.906 25.9945 170.004 23.3544C170.103 20.4848 172.071 18.8942 174.399 18.9762C176.58 19.0582 177.957 20.37 177.843 23.1904C177.81 23.9119 177.761 24.2727 177.695 24.535L172.972 24.3547H172.956Z" fill="white"/>
<path d="M179.597 22.2382C179.892 21.402 180.154 20.5001 180.4 19.6802L182.925 20.5657L182.761 21.5167H182.794C183.532 21.074 184.5 20.9756 185.467 21.3036C187.451 21.9923 187.566 23.5829 186.976 25.2883L185.238 30.2568L182.302 29.2237L184.008 24.3208C184.205 23.7796 184.205 23.2057 183.614 22.9925C183.286 22.8778 182.991 22.9598 182.712 23.2057C182.581 23.3205 182.417 23.5665 182.302 23.8944L180.646 28.6498L177.711 27.6168L179.597 22.2218V22.2382Z" fill="white"/>
<path d="M194.631 23.9603L193.336 25.8296L194.943 26.9447L193.893 28.4533L192.286 27.3382L190.384 30.0931C189.859 30.8474 190.138 31.3065 190.548 31.6017C190.761 31.7493 190.941 31.8477 191.171 31.9788L189.99 33.6678C189.613 33.5038 189.039 33.1923 188.416 32.7659C187.744 32.2904 187.236 31.7493 187.022 31.1425C186.793 30.421 186.891 29.6667 187.678 28.5353L189.712 25.5837L188.777 24.9277L189.826 23.4191L190.761 24.0751L191.614 22.8452L194.615 23.9931L194.631 23.9603Z" fill="white"/>
<path d="M195.895 37.3748C195.928 37.4732 196.026 37.6208 196.092 37.752C196.682 38.6702 198.043 38.8014 200.437 37.2436C202.225 36.0794 203.045 34.8495 202.307 33.7181C202.225 33.5869 202.143 33.4721 202.028 33.3737L195.895 37.3748ZM201.946 29.7334C202.421 30.2417 203.094 31.0944 203.733 32.0783C204.734 33.6197 205.127 34.8659 205.012 36.0466C204.881 37.5716 203.881 38.8506 202.094 40.0149C200.257 41.2119 198.42 41.5891 196.912 41.0151C195.813 40.6052 194.764 39.6705 193.665 37.9651C193.157 37.1944 192.73 36.3909 192.484 35.899L201.946 29.7334Z" fill="white"/>
<path d="M202.437 41.8012C203.29 41.5389 204.159 41.2273 204.962 40.9321L205.749 43.4902L204.651 43.9985V44.0805C205.717 44.2609 206.323 44.9004 206.52 45.5071C206.619 45.8187 206.651 45.9663 206.668 46.1631L204.192 46.9338C204.159 46.737 204.11 46.5402 204.028 46.2778C203.913 45.9335 203.569 45.2448 202.683 45.1628C202.503 45.1464 202.175 45.1628 201.814 45.294L197.911 46.5074L196.977 43.523L202.437 41.834V41.8012Z" fill="white"/>
<path d="M209.389 50.6409C208.602 50.7557 207.946 50.1162 207.848 49.2471C207.749 48.4272 208.225 47.6893 209.028 47.6073C209.865 47.4925 210.488 48.1485 210.586 48.9683C210.684 49.8046 210.242 50.5425 209.389 50.6573M198.484 48.8536L206.815 47.8697L207.192 50.9689L198.862 51.9528L198.501 48.8536H198.484Z" fill="white"/>
<path d="M207.178 55.9862L203.8 56.2158C202.963 56.2814 202.209 56.3306 201.291 56.3798V56.4289C202.193 56.6257 202.881 56.8225 203.718 57.0357L206.997 57.9048L206.702 60.9548L198.602 57.5112L198.864 54.6416L207.473 52.6738L207.161 55.9862H207.178Z" fill="white"/>
<path d="M201.373 65.7097C202.144 65.9884 203.029 66.1524 203.308 65.3981C203.587 64.6602 202.751 64.0535 202.078 63.8075L201.373 65.7097ZM200.373 63.168C199.635 62.9384 198.946 63.496 198.52 64.5946C198.241 65.3325 198.126 66.0212 198.077 66.546L196.191 66.2508C196.241 65.4965 196.487 64.3814 196.864 63.3648C197.864 60.7083 199.783 59.7244 202.259 60.6591C204.948 61.6594 205.85 64.0207 205.03 66.2016C204.259 68.235 202.587 69.1368 199.947 68.1366C199.274 67.8906 198.946 67.7102 198.717 67.5626L200.373 63.1352V63.168Z" fill="white"/>
<path d="M200.29 70.137C200.995 70.6781 201.766 71.2193 202.471 71.6948L200.847 73.8265L199.995 73.3674V73.4002C200.175 74.2365 199.978 75.2039 199.339 76.0074C198.076 77.6636 196.518 77.3029 195.092 76.2042L190.91 73.0066L192.812 70.5305L196.928 73.6789C197.387 74.0397 197.928 74.2201 198.306 73.7281C198.519 73.4494 198.535 73.1542 198.388 72.8099C198.322 72.6623 198.125 72.4163 197.863 72.2031L193.862 69.1367L195.764 66.6606L200.306 70.137H200.29Z" fill="white"/>
<path d="M187.797 75.3134L185.184 77.0103L191.444 86.6507L194.057 84.9538L187.797 75.3134Z" fill="white"/>
<path d="M186.37 83.0751C186.665 83.9114 187.01 84.7805 187.321 85.584L184.796 86.4694L184.32 85.6168H184.288C183.992 86.4366 183.304 87.1254 182.336 87.4697C180.369 88.1584 179.27 86.9942 178.68 85.2888L176.941 80.3038L179.877 79.2708L181.582 84.1737C181.779 84.7149 182.123 85.174 182.713 84.9772C183.041 84.8624 183.222 84.6165 183.287 84.2557C183.32 84.0917 183.287 83.7802 183.173 83.4686L181.516 78.7132L184.468 77.6802L186.354 83.0751H186.37Z" fill="white"/>
<path d="M176.857 86.0774C176.89 86.9628 176.955 87.8975 177.021 88.7502L174.348 88.8322L174.168 87.8811H174.118C173.594 88.5698 172.725 89.0126 171.691 89.0454C169.593 89.111 168.92 87.6844 168.855 85.8642L168.707 80.6005L171.823 80.5021L171.97 85.6838C171.987 86.2577 172.183 86.7989 172.807 86.7825C173.151 86.7825 173.397 86.6021 173.577 86.2741C173.659 86.1102 173.725 85.8314 173.708 85.487L173.561 80.4529L176.676 80.3545L176.84 86.061L176.857 86.0774Z" fill="white"/>
<path d="M164.608 83.8305C165.002 82.4367 164.985 81.4692 164.28 81.2724C163.657 81.1084 163.149 82.1743 162.837 83.3385C162.542 84.4044 162.411 85.6506 163.067 85.831C163.821 86.0442 164.329 84.9127 164.625 83.8305M159.853 82.535C160.82 79.0751 163.428 78.9931 164.854 79.3866C167.379 80.0918 168.281 82.0759 167.576 84.6012C166.773 87.4708 164.51 88.2743 162.509 87.7332C160.033 87.0445 159.164 84.9619 159.836 82.535" fill="white"/>
<path d="M154.588 84.2557L155.867 81.1237C156.178 80.353 156.457 79.6479 156.818 78.8116H156.785C156.195 79.5167 155.736 80.0415 155.162 80.6974L152.931 83.2554L150.324 81.6648L156.998 75.9092L159.458 77.4178L157.425 86.0103L154.588 84.2721V84.2557Z" fill="white"/>
<path d="M149.408 74.4019C150.032 75.0578 150.884 75.5334 151.54 74.9266C152.065 74.4347 151.917 73.8772 151.688 73.6312C151.475 73.4016 151.097 73.1721 150.704 73.2869C150.605 73.3196 150.507 73.3852 150.409 73.4672L149.408 74.3855V74.4019ZM148.851 70.7616C149.359 70.3024 149.818 69.8105 150.163 69.335L152.048 71.3683L151.573 72.0242L151.606 72.057C152.475 72.057 153.246 72.4342 153.836 73.0901C154.902 74.2379 154.869 75.8449 153.754 76.8616C152.098 78.3866 149.818 77.2223 148.277 75.5826L148.162 75.6809C147.818 75.9925 147.9 76.5992 148.441 77.1895C149.031 77.8291 149.622 78.1898 150.294 78.4358L149.376 80.0264C148.769 79.764 147.621 79.1245 146.572 77.993C144.243 75.4678 145.539 73.7952 146.719 72.6965L148.851 70.7288V70.7616Z" fill="white"/>
<path d="M139.027 70.9078L141.028 69.8255L140.11 68.1038L141.733 67.2347L142.651 68.9564L145.603 67.3658C146.406 66.9231 146.374 66.3984 146.144 65.9556C146.013 65.7261 145.914 65.5621 145.75 65.3325L147.571 64.3486C147.833 64.6602 148.21 65.2013 148.571 65.8736C148.964 66.5951 149.178 67.3167 149.079 67.9562C148.964 68.7105 148.522 69.3336 147.308 69.9895L144.16 71.6785L144.701 72.6788L143.078 73.5479L142.536 72.5312L141.208 73.2363L139.06 70.8586L139.027 70.9078Z" fill="white"/>
<path d="M147.489 63.7593L139.47 66.2518L138.536 63.2674L146.554 60.7749L147.489 63.7429V63.7593ZM136.437 64.0053C137.191 63.7429 137.945 64.2513 138.208 65.1039C138.454 65.891 138.126 66.7109 137.355 66.9405C136.552 67.2193 135.83 66.6781 135.584 65.891C135.338 65.0875 135.633 64.2677 136.453 64.0217" fill="white"/>
<path d="M141.781 57.6919C143.224 57.5771 144.126 57.2492 144.06 56.5113C144.011 55.8718 142.83 55.757 141.633 55.8554C140.535 55.9373 139.321 56.2325 139.37 56.9212C139.436 57.7083 140.666 57.7903 141.781 57.7083M141.387 52.7726C144.978 52.4938 145.929 54.9207 146.044 56.4129C146.241 59.0201 144.683 60.5452 142.06 60.7583C139.075 60.9879 137.55 59.1185 137.403 57.0524C137.206 54.4779 138.862 52.9693 141.387 52.7726Z" fill="white"/>
<path d="M140.046 51.1813C139.176 50.9846 138.258 50.8206 137.422 50.673L138.012 48.0657L138.98 48.1149V48.0821C138.455 47.4098 138.242 46.4424 138.471 45.4421C138.93 43.4087 140.488 43.0972 142.243 43.4907L147.392 44.655L146.703 47.705L141.653 46.5735C141.079 46.4424 140.521 46.5079 140.373 47.1147C140.292 47.4426 140.406 47.7378 140.685 47.9838C140.816 48.0985 141.079 48.2297 141.407 48.3117L146.31 49.4104L145.621 52.444L140.046 51.1813Z" fill="white"/>
</g>
</g>
<defs>
<clipPath id="clip0_2519_13055">
<rect width="108" height="108" fill="white" transform="translate(118.207)"/>
</clipPath>
</defs>
</svg>
