<svg width="227" height="109" viewBox="0 0 227 109" fill="none" xmlns="http://www.w3.org/2000/svg">
<path d="M54.1035 108.207C83.9841 108.207 108.207 83.9841 108.207 54.1035C108.207 24.223 83.9841 0 54.1035 0C24.223 0 0 24.223 0 54.1035C0 83.9841 24.223 108.207 54.1035 108.207Z" fill="#8497D5" fill-opacity="0.1"/>
<path d="M33.3945 66.5236V54.7012H34.9298L39.1675 63.59L43.381 54.7012H44.9308V66.5138H43.3229V58.4281L39.5501 66.5236H38.78L34.9976 58.4281V66.5236H33.3994H33.3945Z" fill="white"/>
<path d="M49.6827 66.7691C49.0337 66.7691 48.4913 66.6467 48.0506 66.4018C47.6099 66.157 47.2805 65.8337 47.0578 65.4321C46.835 65.0306 46.7188 64.5898 46.7188 64.1049C46.7188 63.6544 46.7962 63.2626 46.9561 62.9247C47.111 62.5867 47.3435 62.2978 47.6535 62.0578C47.9634 61.8178 48.3412 61.6268 48.7916 61.4799C49.179 61.3673 49.6246 61.2644 50.1137 61.1763C50.6077 61.0881 51.126 61.0049 51.6684 60.9314C52.2108 60.853 52.7532 60.7796 53.286 60.7012L52.6709 61.0441C52.6806 60.3486 52.5353 59.8344 52.235 59.4965C51.9348 59.1585 51.4214 58.992 50.6901 58.992C50.23 58.992 49.8086 59.0998 49.426 59.3153C49.0434 59.5307 48.7722 59.8883 48.6221 60.3878L47.0384 59.8932C47.2563 59.1341 47.668 58.5268 48.2782 58.0811C48.8885 57.6305 49.6972 57.4102 50.7094 57.4102C51.494 57.4102 52.1769 57.5473 52.7581 57.8166C53.3392 58.086 53.7654 58.517 54.0366 59.0998C54.1771 59.3887 54.2643 59.6973 54.2982 60.0205C54.3321 60.3437 54.3466 60.6914 54.3466 61.0636V66.5243H52.8452V64.4967L53.1358 64.7612C52.7726 65.4419 52.3125 65.9464 51.7507 66.2745C51.1889 66.6075 50.5012 66.7691 49.6827 66.7691ZM49.983 65.3636C50.4625 65.3636 50.879 65.2754 51.2228 65.104C51.5667 64.9326 51.8476 64.7122 52.0607 64.4429C52.2738 64.1735 52.4094 63.8944 52.4723 63.6054C52.5643 63.3409 52.6176 63.0471 52.6322 62.719C52.6467 62.3908 52.6515 62.1264 52.6515 61.9305L53.2036 62.1362C52.6661 62.2194 52.1817 62.2929 51.741 62.3566C51.3003 62.4202 50.908 62.4888 50.5496 62.5476C50.1961 62.6112 49.8813 62.6847 49.6052 62.7728C49.3728 62.8561 49.1645 62.954 48.9853 63.0667C48.8061 63.1793 48.6608 63.3214 48.5543 63.483C48.4477 63.6495 48.3945 63.8454 48.3945 64.0805C48.3945 64.3155 48.4526 64.5212 48.564 64.7171C48.6754 64.913 48.8497 65.0648 49.0822 65.1824C49.3146 65.295 49.6149 65.3538 49.9733 65.3538L49.983 65.3636Z" fill="white"/>
<path d="M59.9362 66.7694C59.1177 66.7694 58.4154 66.5637 57.8197 66.1523C57.2289 65.7409 56.7688 65.1826 56.4492 64.4725C56.1247 63.7624 55.9648 62.9641 55.9648 62.0777C55.9648 61.1912 56.1295 60.3881 56.454 59.6828C56.7785 58.9776 57.2386 58.4242 57.8391 58.0177C58.4348 57.6112 59.1468 57.4055 59.9701 57.4055C60.7934 57.4055 61.4956 57.6112 62.0623 58.0177C62.6289 58.4242 63.0551 58.9825 63.3457 59.6877C63.6363 60.393 63.7816 61.1912 63.7816 62.0777C63.7816 62.9641 63.6363 63.7624 63.3409 64.4676C63.0503 65.1728 62.6192 65.7312 62.0478 66.1474C61.4763 66.5637 60.774 66.7694 59.9362 66.7694ZM60.1735 65.2169C60.7304 65.2169 61.1857 65.0847 61.5392 64.8153C61.8928 64.546 62.1495 64.1787 62.3093 63.7085C62.4691 63.2384 62.5514 62.6947 62.5514 62.0826C62.5514 61.4704 62.4691 60.9268 62.3044 60.4566C62.1398 59.9865 61.8831 59.6192 61.5392 59.3547C61.1954 59.0902 60.7595 58.9629 60.2268 58.9629C59.665 58.9629 59.2 59.1049 58.8368 59.3792C58.4736 59.6583 58.2023 60.0354 58.028 60.5056C57.8536 60.9757 57.7665 61.4998 57.7665 62.0826C57.7665 62.6654 57.8536 63.1992 58.028 63.6693C58.2023 64.1444 58.4687 64.5166 58.8223 64.8006C59.1758 65.0798 59.6262 65.2169 60.1638 65.2169H60.1735ZM62.5514 66.5245V60.1481H62.3577V54.707H64.0625V66.5294H62.5514V66.5245Z" fill="white"/>
<path d="M70.2219 66.7691C69.3501 66.7691 68.5849 66.5781 67.9263 66.1913C67.2676 65.8044 66.7591 65.2656 66.391 64.5751C66.0278 63.8846 65.8438 63.0814 65.8438 62.1656C65.8438 61.1959 66.0229 60.3584 66.3813 59.6434C66.7397 58.9284 67.2434 58.3798 67.8875 57.9929C68.5317 57.6061 69.2823 57.4102 70.1347 57.4102C70.9871 57.4102 71.7862 57.6207 72.4158 58.037C73.0454 58.4533 73.5152 59.0508 73.8252 59.8246C74.1351 60.5984 74.261 61.5142 74.1932 62.5769H72.4981V61.955C72.4885 60.9265 72.2947 60.1674 71.917 59.6728C71.5392 59.1781 70.9677 58.9333 70.1977 58.9333C69.3501 58.9333 68.7109 59.2026 68.2798 59.7462C67.8488 60.2898 67.6405 61.0685 67.6405 62.0921C67.6405 63.1157 67.8536 63.8209 68.2798 64.3547C68.706 64.8885 69.3259 65.153 70.1299 65.153C70.6626 65.153 71.1179 65.0306 71.5053 64.7857C71.8928 64.5408 72.193 64.1931 72.411 63.7376L74.077 64.2715C73.738 65.0648 73.2198 65.6819 72.5272 66.1129C71.8346 66.5488 71.0646 66.7642 70.2122 66.7642L70.2219 66.7691ZM67.0981 62.572V61.2351H73.3554V62.572H67.0981Z" fill="white"/>
<path d="M29.3086 71.0343V69.3691H31.0037V71.0343H29.3086ZM29.3086 81.3531V72.4888H31.0037V81.3531H29.3086Z" fill="white"/>
<path d="M33.4297 81.3543V72.49H34.9456V75.0513H35.149V81.3543H33.4297ZM39.5901 81.3543V76.9956C39.5901 76.6528 39.561 76.2953 39.5029 75.9329C39.4448 75.5705 39.3383 75.2325 39.1784 74.9191C39.0186 74.6057 38.7958 74.3559 38.5052 74.1649C38.2147 73.9739 37.8369 73.876 37.372 73.876C37.0668 73.876 36.7811 73.9249 36.5099 74.0278C36.2387 74.1306 36.0014 74.2922 35.798 74.5175C35.5945 74.7428 35.4347 75.0366 35.3185 75.4039C35.2023 75.7713 35.1441 76.2169 35.1441 76.7409L34.0883 76.3394C34.0883 75.5362 34.2385 74.826 34.5339 74.209C34.8293 73.5919 35.2604 73.1119 35.8173 72.7691C36.3743 72.4263 37.0475 72.25 37.8369 72.25C38.4423 72.25 38.9508 72.348 39.3625 72.5438C39.7741 72.7397 40.1083 72.9993 40.365 73.3176C40.6217 73.636 40.8202 73.9886 40.9558 74.3657C41.0914 74.7428 41.1835 75.115 41.2319 75.4725C41.2803 75.8349 41.3045 76.1533 41.3045 76.4226V81.3494H39.5852L39.5901 81.3543Z" fill="white"/>
<path d="M46.8359 81.3517V69.5293H48.531V81.3517H46.8359Z" fill="white"/>
<path d="M49.9922 73.865V72.4839H55.9831V73.865H49.9922ZM55.9831 81.3531C55.431 81.4609 54.8885 81.5099 54.3607 81.4952C53.8279 81.4805 53.3581 81.3727 52.9416 81.1817C52.5251 80.9907 52.2103 80.6871 52.0021 80.2806C51.8132 79.9133 51.7115 79.5411 51.697 79.1591C51.6824 78.7771 51.6776 78.3461 51.6776 77.8662V70.0254H53.3823V77.7829C53.3823 78.1404 53.3823 78.449 53.392 78.7085C53.4017 78.973 53.455 79.1934 53.5567 79.3746C53.7504 79.7125 54.0604 79.9084 54.4866 79.9525C54.9128 80.0015 55.4116 79.9819 55.9831 79.8986V81.3531Z" fill="white"/>
<path d="M60.3038 81.5992C59.6548 81.5992 59.1124 81.4768 58.6717 81.2319C58.231 80.987 57.9016 80.6638 57.6789 80.2622C57.4561 79.8606 57.3398 79.4199 57.3398 78.935C57.3398 78.4845 57.4173 78.0927 57.5772 77.7547C57.7321 77.4168 57.9646 77.1279 58.2746 76.8879C58.5845 76.6479 58.9623 76.4569 59.4127 76.31C59.8001 76.1974 60.2457 76.0945 60.7348 76.0064C61.2288 75.9182 61.747 75.835 62.2895 75.7615C62.8319 75.6831 63.3743 75.6097 63.9071 75.5313L63.292 75.8741C63.3017 75.1787 63.1564 74.6645 62.8561 74.3265C62.5558 73.9886 62.0425 73.8221 61.3112 73.8221C60.8511 73.8221 60.4297 73.9299 60.0471 74.1453C59.6645 74.3608 59.3933 74.7183 59.2432 75.2179L57.6595 74.7281C57.8774 73.969 58.2891 73.3618 58.8993 72.9112C59.5095 72.4606 60.3183 72.2402 61.3305 72.2402C62.1151 72.2402 62.798 72.3774 63.3792 72.6467C63.9603 72.9161 64.3865 73.3471 64.6577 73.9299C64.7982 74.2188 64.8854 74.5273 64.9193 74.8506C64.9532 75.1738 64.9677 75.5215 64.9677 75.8937V81.3544H63.4663V79.3268L63.7569 79.5913C63.3937 80.272 62.9336 80.7765 62.3718 81.1046C61.81 81.4376 61.1223 81.5992 60.3038 81.5992ZM60.6041 80.1986C61.0835 80.1986 61.5001 80.1104 61.8439 79.939C62.1878 79.7676 62.4687 79.5472 62.6818 79.2778C62.8949 79.0085 63.0305 78.7293 63.0934 78.4404C63.1854 78.1759 63.2387 77.8821 63.2532 77.554C63.2678 77.2258 63.2726 76.9614 63.2726 76.7655L63.8247 76.9712C63.2871 77.0544 62.8028 77.1279 62.3621 77.1915C61.9214 77.2552 61.5291 77.3238 61.1707 77.3825C60.8172 77.4462 60.5024 77.5197 60.2263 77.6078C59.9939 77.6911 59.7856 77.789 59.6064 77.9017C59.4272 78.0143 59.2819 78.1563 59.1754 78.3179C59.0688 78.4796 59.0156 78.6804 59.0156 78.9154C59.0156 79.1505 59.0737 79.3562 59.1851 79.5521C59.2964 79.748 59.4708 79.8998 59.7033 80.0174C59.9357 80.1349 60.236 80.1888 60.5944 80.1888L60.6041 80.1986Z" fill="white"/>
<path d="M67.2344 81.3524V69.2852H68.9295V81.3524H67.2344Z" fill="white"/>
<path d="M72.5521 85.297L74.2471 80.6249L74.2714 82.0059L70.4453 72.4902H72.213L75.0705 79.8364H74.5523L77.2789 72.4902H78.9982L74.16 85.297H72.5424H72.5521Z" fill="white"/>
<path d="M39.0699 43.5313L50.4066 22.5968" stroke="#009347" stroke-width="11" stroke-miterlimit="10" stroke-linecap="round"/>
<path d="M48.7809 43.5313L60.1176 22.5968" stroke="white" stroke-width="11" stroke-miterlimit="10" stroke-linecap="round"/>
<path d="M58.4918 43.5313L69.8285 22.5968" stroke="#CF2837" stroke-width="11" stroke-miterlimit="10" stroke-linecap="round"/>
<g clip-path="url(#clip0_4001_11171)">
<mask id="mask0_4001_11171" style="mask-type:luminance" maskUnits="userSpaceOnUse" x="118" y="0" width="109" height="108">
<path d="M226.207 0H118.207V108H226.207V0Z" fill="white"/>
</mask>
<g mask="url(#mask0_4001_11171)">
<path d="M172.207 108C142.427 108 118.207 83.7604 118.207 54C118.207 24.2396 142.427 0 172.207 0C201.987 0 226.207 24.2199 226.207 54C226.207 83.7801 201.987 108 172.207 108Z" fill="#8497D5" fill-opacity="0.1"/>
<path d="M191.745 58.7969H151.078V60.9286H191.745V58.7969Z" fill="#E42313"/>
<path d="M151.39 54.3301C151.849 54.5597 152.603 54.7072 153.21 54.7072C154.112 54.7072 154.522 54.3301 154.522 53.8382C154.522 53.2314 154.079 52.9527 153.161 52.4443C151.455 51.5097 151.177 50.4274 151.177 49.7059C151.177 48.0989 152.308 46.7051 154.735 46.7051C155.456 46.7051 156.145 46.8855 156.473 47.0494L156.129 48.968C155.817 48.7876 155.358 48.64 154.751 48.64C153.931 48.64 153.554 49.0336 153.554 49.4763C153.554 49.9027 153.767 50.165 154.964 50.7882C156.424 51.5425 156.899 52.5591 156.899 53.5594C156.899 55.396 155.424 56.6094 153.193 56.6094C152.292 56.6094 151.439 56.4126 151.078 56.2323L151.39 54.2973V54.3301Z" fill="white"/>
<path d="M161.379 52.9016L161.117 51.0486C161.035 50.4911 160.904 49.4416 160.805 48.8349H160.772C160.658 49.4416 160.51 50.5239 160.412 51.0486L160.1 52.9016H161.379ZM159.854 54.6233L159.493 56.5419H157.148L159.379 46.7852H162.314L164.232 56.5419H161.887L161.543 54.6233H159.838H159.854Z" fill="white"/>
<path d="M167.725 54.9009C167.856 54.9337 167.971 54.9337 168.118 54.9337C168.774 54.9337 169.397 54.5402 169.397 53.6711C169.397 52.802 168.807 52.3921 168.134 52.3921H167.725V54.9009ZM167.725 50.7523H168.118C168.758 50.7523 169.2 50.2275 169.2 49.5388C169.2 48.8993 168.872 48.4074 168.233 48.4074C168.036 48.4074 167.856 48.4074 167.725 48.473V50.7523ZM165.314 46.948C165.986 46.8168 166.905 46.7676 167.889 46.7676C168.872 46.7676 169.905 46.8496 170.693 47.4563C171.299 47.9154 171.529 48.6041 171.529 49.2765C171.529 50.08 171.086 50.9326 170.053 51.3918V51.441C171.266 51.7689 171.873 52.72 171.873 53.7039C171.873 54.5074 171.594 55.1305 171.086 55.606C170.447 56.2456 169.332 56.6391 167.331 56.6391C166.544 56.6391 165.822 56.5899 165.281 56.5243V46.948H165.314Z" fill="white"/>
<path d="M175.725 54.9009C175.856 54.9337 175.971 54.9337 176.118 54.9337C176.774 54.9337 177.397 54.5402 177.397 53.6711C177.397 52.802 176.807 52.3921 176.134 52.3921H175.725V54.9009ZM175.725 50.7523H176.118C176.758 50.7523 177.2 50.2275 177.2 49.5388C177.2 48.8993 176.872 48.4074 176.233 48.4074C176.036 48.4074 175.856 48.4074 175.725 48.473V50.7523ZM173.314 46.948C173.986 46.8168 174.905 46.7676 175.889 46.7676C176.872 46.7676 177.905 46.8496 178.693 47.4563C179.299 47.9154 179.529 48.6041 179.529 49.2765C179.529 50.08 179.086 50.9326 178.053 51.3918V51.441C179.266 51.7689 179.873 52.72 179.873 53.7039C179.873 54.5074 179.594 55.1305 179.086 55.606C178.447 56.2456 177.332 56.6391 175.331 56.6391C174.544 56.6391 173.822 56.5899 173.281 56.5243V46.948H173.314Z" fill="white"/>
<path d="M183.743 46.8027H181.316V56.5595H183.743V46.8027Z" fill="white"/>
<path d="M188.875 52.9016L188.613 51.0486C188.531 50.4911 188.4 49.4416 188.301 48.8349H188.268C188.154 49.4416 188.006 50.5239 187.908 51.0486L187.596 52.9016H188.875ZM187.35 54.6233L186.989 56.5419H184.645L186.875 46.7852H189.81L191.728 56.5419H189.384L189.039 54.6233H187.334H187.35Z" fill="white"/>
<path d="M192.533 47.1806H192.631C192.779 47.1806 192.844 47.115 192.844 47.033C192.844 46.9346 192.762 46.9018 192.648 46.9018C192.598 46.9018 192.566 46.9018 192.533 46.9018V47.1806ZM192.517 47.9021H192.074V46.6394C192.156 46.6394 192.385 46.5902 192.68 46.5902C192.992 46.5902 193.123 46.623 193.222 46.6886C193.304 46.7378 193.353 46.8362 193.353 46.9674C193.353 47.0986 193.222 47.2134 193.041 47.2462C193.189 47.3117 193.271 47.4101 193.32 47.5905C193.369 47.7709 193.402 47.8529 193.418 47.8857H192.926C192.926 47.8857 192.861 47.7381 192.844 47.6397C192.828 47.5249 192.762 47.4593 192.648 47.4593H192.533V47.8857L192.517 47.9021ZM192.664 46.2131C192.09 46.2131 191.664 46.6722 191.664 47.2626C191.664 47.8529 192.09 48.312 192.664 48.312C193.254 48.312 193.681 47.8529 193.681 47.2462C193.681 46.6394 193.254 46.2131 192.664 46.2131ZM192.68 45.8359C193.5 45.8359 194.14 46.4755 194.14 47.2626C194.14 48.0497 193.484 48.7056 192.664 48.7056C191.844 48.7056 191.172 48.0661 191.172 47.2626C191.172 46.4591 191.844 45.8359 192.664 45.8359H192.68Z" fill="white"/>
<path d="M147.103 33.9101L144.637 39.0195L147.383 40.3456L149.85 35.2361L147.103 33.9101Z" fill="#E42313"/>
<path d="M149.619 26.8786L147.75 28.3216L146.258 26.3702L152.456 21.582L153.965 23.517L152.079 24.9764L157.605 32.1259L155.145 34.0444L149.619 26.8786Z" fill="white"/>
<path d="M161.248 25.7476C160.428 26.1247 159.69 26.7643 160.035 27.5841C160.313 28.2401 160.887 28.3057 161.199 28.1581C161.494 28.0269 161.838 27.7481 161.855 27.3382C161.855 27.2398 161.838 27.125 161.773 26.9938L161.232 25.7312L161.248 25.7476ZM164.856 26.4199C165.118 27.043 165.413 27.6497 165.757 28.1253L163.199 29.2075L162.74 28.5352H162.707C162.429 29.3715 161.789 29.9618 160.986 30.3062C159.543 30.9293 158.05 30.3554 157.46 28.9616C156.575 26.8954 158.444 25.1245 160.494 24.239L160.428 24.0914C160.248 23.6651 159.641 23.5339 158.903 23.8454C158.1 24.1898 157.575 24.6161 157.099 25.1737L155.902 23.7634C156.345 23.2715 157.345 22.4024 158.772 21.7957C161.937 20.4511 163.068 22.222 163.708 23.7142L164.839 26.3871L164.856 26.4199Z" fill="white"/>
<path d="M167.298 16.0443L164.234 16.6094L166.376 28.22L169.44 27.6549L167.298 16.0443Z" fill="white"/>
<path d="M175.055 22.616C175.088 21.7961 174.957 20.9106 174.153 20.8778C173.366 20.845 173.054 21.8289 173.022 22.534L175.055 22.616ZM172.956 24.3542C172.956 25.1249 173.71 25.6168 174.907 25.6496C175.695 25.6824 176.383 25.5676 176.908 25.4528L177.22 27.3386C176.482 27.5354 175.35 27.6502 174.268 27.601C171.431 27.5026 169.906 25.994 170.004 23.3539C170.103 20.4843 172.071 18.8937 174.399 18.9757C176.58 19.0577 177.957 20.3695 177.843 23.1899C177.81 23.9114 177.761 24.2722 177.695 24.5346L172.972 24.3542H172.956Z" fill="white"/>
<path d="M179.597 22.2378C179.892 21.4015 180.154 20.4996 180.4 19.6797L182.925 20.5652L182.761 21.5163H182.794C183.532 21.0735 184.5 20.9751 185.467 21.3031C187.451 21.9918 187.566 23.5824 186.976 25.2878L185.238 30.2563L182.302 29.2233L184.008 24.3203C184.205 23.7792 184.205 23.2052 183.614 22.9921C183.286 22.8773 182.991 22.9593 182.712 23.2052C182.581 23.32 182.417 23.566 182.302 23.8939L180.646 28.6493L177.711 27.6163L179.597 22.2214V22.2378Z" fill="white"/>
<path d="M194.631 23.9588L193.336 25.8282L194.943 26.9432L193.893 28.4518L192.286 27.3368L190.384 30.0916C189.859 30.8459 190.138 31.3051 190.548 31.6002C190.761 31.7478 190.941 31.8462 191.171 31.9774L189.99 33.6664C189.613 33.5024 189.039 33.1908 188.416 32.7645C187.744 32.2889 187.236 31.7478 187.022 31.1411C186.793 30.4196 186.891 29.6653 187.678 28.5338L189.712 25.5822L188.777 24.9263L189.826 23.4177L190.761 24.0736L191.614 22.8438L194.615 23.9916L194.631 23.9588Z" fill="white"/>
<path d="M195.895 37.3738C195.928 37.4722 196.026 37.6198 196.092 37.751C196.682 38.6693 198.043 38.8005 200.437 37.2427C202.225 36.0784 203.045 34.8486 202.307 33.7171C202.225 33.5859 202.143 33.4711 202.028 33.3728L195.895 37.3738ZM201.946 29.7324C202.421 30.2408 203.094 31.0934 203.733 32.0773C204.734 33.6187 205.127 34.865 205.012 36.0456C204.881 37.5706 203.881 38.8496 202.094 40.0139C200.257 41.2109 198.42 41.5881 196.912 41.0142C195.813 40.6042 194.764 39.6695 193.665 37.9642C193.157 37.1935 192.73 36.39 192.484 35.898L201.946 29.7324Z" fill="white"/>
<path d="M202.437 41.8007C203.29 41.5384 204.159 41.2268 204.962 40.9316L205.749 43.4897L204.651 43.998V44.08C205.717 44.2604 206.323 44.8999 206.52 45.5067C206.619 45.8182 206.651 45.9658 206.668 46.1626L204.192 46.9333C204.159 46.7365 204.11 46.5397 204.028 46.2774C203.913 45.933 203.569 45.2443 202.683 45.1623C202.503 45.1459 202.175 45.1623 201.814 45.2935L197.911 46.5069L196.977 43.5225L202.437 41.8335V41.8007Z" fill="white"/>
<path d="M209.389 50.6404C208.602 50.7552 207.946 50.1157 207.848 49.2466C207.749 48.4267 208.225 47.6888 209.028 47.6068C209.865 47.492 210.488 48.148 210.586 48.9679C210.684 49.8042 210.242 50.5421 209.389 50.6568M198.484 48.8531L206.815 47.8692L207.192 50.9684L198.862 51.9523L198.501 48.8531H198.484Z" fill="white"/>
<path d="M207.178 55.9862L203.8 56.2158C202.963 56.2814 202.209 56.3306 201.291 56.3798V56.4289C202.193 56.6257 202.881 56.8225 203.718 57.0357L206.997 57.9048L206.702 60.9548L198.602 57.5112L198.864 54.6416L207.473 52.6738L207.161 55.9862H207.178Z" fill="white"/>
<path d="M201.373 65.7082C202.144 65.987 203.029 66.151 203.308 65.3966C203.587 64.6587 202.751 64.052 202.078 63.8061L201.373 65.7082ZM200.373 63.1665C199.635 62.937 198.946 63.4945 198.52 64.5932C198.241 65.3311 198.126 66.0198 198.077 66.5445L196.191 66.2493C196.241 65.495 196.487 64.38 196.864 63.3633C197.864 60.7069 199.783 59.723 202.259 60.6577C204.948 61.6579 205.85 64.0192 205.03 66.2001C204.259 68.2335 202.587 69.1354 199.947 68.1351C199.274 67.8891 198.946 67.7087 198.717 67.5612L200.373 63.1337V63.1665Z" fill="white"/>
<path d="M200.29 70.1365C200.995 70.6776 201.766 71.2188 202.471 71.6943L200.847 73.826L199.995 73.3669V73.3997C200.175 74.236 199.978 75.2035 199.339 76.007C198.076 77.6631 196.518 77.3024 195.092 76.2037L190.91 73.0061L192.812 70.5301L196.928 73.6785C197.387 74.0392 197.928 74.2196 198.306 73.7276C198.519 73.4489 198.535 73.1537 198.388 72.8094C198.322 72.6618 198.125 72.4158 197.863 72.2026L193.862 69.1362L195.764 66.6602L200.306 70.1365H200.29Z" fill="white"/>
<path d="M187.797 75.3129L185.184 77.0098L191.444 86.6502L194.057 84.9533L187.797 75.3129Z" fill="white"/>
<path d="M186.37 83.0746C186.665 83.9109 187.01 84.78 187.321 85.5835L184.796 86.469L184.32 85.6163H184.288C183.992 86.4362 183.304 87.1249 182.336 87.4692C180.369 88.1579 179.27 86.9937 178.68 85.2883L176.941 80.3033L179.877 79.2703L181.582 84.1733C181.779 84.7144 182.123 85.1735 182.713 84.9767C183.041 84.862 183.222 84.616 183.287 84.2552C183.32 84.0913 183.287 83.7797 183.173 83.4681L181.516 78.7128L184.468 77.6797L186.354 83.0746H186.37Z" fill="white"/>
<path d="M176.857 86.0764C176.89 86.9619 176.955 87.8965 177.021 88.7492L174.348 88.8312L174.168 87.8801H174.118C173.594 88.5689 172.725 89.0116 171.691 89.0444C169.593 89.11 168.92 87.6834 168.855 85.8632L168.707 80.5995L171.823 80.5011L171.97 85.6828C171.987 86.2568 172.183 86.7979 172.807 86.7815C173.151 86.7815 173.397 86.6011 173.577 86.2732C173.659 86.1092 173.725 85.8304 173.708 85.4861L173.561 80.4519L176.676 80.3535L176.84 86.06L176.857 86.0764Z" fill="white"/>
<path d="M164.608 83.8295C165.002 82.4357 164.985 81.4682 164.28 81.2714C163.657 81.1075 163.149 82.1733 162.837 83.3376C162.542 84.4034 162.411 85.6497 163.067 85.83C163.821 86.0432 164.329 84.9118 164.625 83.8295M159.853 82.5341C160.82 79.0741 163.428 78.9921 164.854 79.3857C167.379 80.0908 168.281 82.0749 167.576 84.6002C166.773 87.4698 164.51 88.2733 162.509 87.7322C160.033 87.0435 159.164 84.961 159.836 82.5341" fill="white"/>
<path d="M154.588 84.2547L155.867 81.1227C156.178 80.352 156.457 79.6469 156.818 78.8106H156.785C156.195 79.5157 155.736 80.0405 155.162 80.6964L152.931 83.2545L150.324 81.6639L156.998 75.9082L159.458 77.4168L157.425 86.0093L154.588 84.2711V84.2547Z" fill="white"/>
<path d="M149.408 74.4009C150.032 75.0568 150.884 75.5324 151.54 74.9257C152.065 74.4337 151.917 73.8762 151.688 73.6302C151.475 73.4007 151.097 73.1711 150.704 73.2859C150.605 73.3187 150.507 73.3843 150.409 73.4663L149.408 74.3845V74.4009ZM148.851 70.7606C149.359 70.3015 149.818 69.8095 150.163 69.334L152.048 71.3673L151.573 72.0232L151.606 72.056C152.475 72.056 153.246 72.4332 153.836 73.0891C154.902 74.2369 154.869 75.8439 153.754 76.8606C152.098 78.3856 149.818 77.2214 148.277 75.5816L148.162 75.68C147.818 75.9915 147.9 76.5982 148.441 77.1886C149.031 77.8281 149.622 78.1888 150.294 78.4348L149.376 80.0254C148.769 79.763 147.621 79.1235 146.572 77.9921C144.243 75.4668 145.539 73.7942 146.719 72.6956L148.851 70.7278V70.7606Z" fill="white"/>
<path d="M139.027 70.9068L141.028 69.8246L140.11 68.1028L141.733 67.2337L142.651 68.9555L145.603 67.3649C146.406 66.9221 146.374 66.3974 146.144 65.9546C146.013 65.7251 145.914 65.5611 145.75 65.3315L147.571 64.3477C147.833 64.6592 148.21 65.2003 148.571 65.8727C148.964 66.5942 149.178 67.3157 149.079 67.9552C148.964 68.7095 148.522 69.3326 147.308 69.9885L144.16 71.6775L144.701 72.6778L143.078 73.5469L142.536 72.5302L141.208 73.2353L139.06 70.8576L139.027 70.9068Z" fill="white"/>
<path d="M147.489 63.7579L139.47 66.2503L138.536 63.2659L146.554 60.7734L147.489 63.7415V63.7579ZM136.437 64.0038C137.191 63.7415 137.945 64.2498 138.208 65.1025C138.454 65.8896 138.126 66.7095 137.355 66.939C136.552 67.2178 135.83 66.6767 135.584 65.8896C135.338 65.0861 135.633 64.2662 136.453 64.0202" fill="white"/>
<path d="M141.781 57.6914C143.224 57.5766 144.126 57.2487 144.06 56.5108C144.011 55.8713 142.83 55.7565 141.633 55.8549C140.535 55.9369 139.321 56.232 139.37 56.9207C139.436 57.7078 140.666 57.7898 141.781 57.7078M141.387 52.7721C144.978 52.4933 145.929 54.9202 146.044 56.4124C146.241 59.0197 144.683 60.5447 142.06 60.7578C139.075 60.9874 137.55 59.118 137.403 57.0519C137.206 54.4774 138.862 52.9688 141.387 52.7721Z" fill="white"/>
<path d="M140.046 51.1799C139.176 50.9831 138.258 50.8191 137.422 50.6715L138.012 48.0643L138.98 48.1135V48.0807C138.455 47.4084 138.242 46.4409 138.471 45.4406C138.93 43.4073 140.488 43.0957 142.243 43.4893L147.392 44.6535L146.703 47.7035L141.653 46.5721C141.079 46.4409 140.521 46.5065 140.373 47.1132C140.292 47.4412 140.406 47.7363 140.685 47.9823C140.816 48.0971 141.079 48.2283 141.407 48.3102L146.31 49.4089L145.621 52.4425L140.046 51.1799Z" fill="white"/>
</g>
</g>
<defs>
<clipPath id="clip0_4001_11171">
<rect width="108" height="108" fill="white" transform="translate(118.207)"/>
</clipPath>
</defs>
</svg>
