<svg width="227" height="109" viewBox="0 0 227 109" fill="none" xmlns="http://www.w3.org/2000/svg">
<path d="M54.1035 108.207C83.9841 108.207 108.207 83.9841 108.207 54.1035C108.207 24.223 83.9841 0 54.1035 0C24.223 0 0 24.223 0 54.1035C0 83.9841 24.223 108.207 54.1035 108.207Z" fill="#8497D5" fill-opacity="0.1"/>
<path d="M33.3975 66.5236V54.7012H34.9327L39.1704 63.59L43.3839 54.7012H44.9337V66.5138H43.3258V58.4281L39.553 66.5236H38.783L35.0005 58.4281V66.5236H33.4023H33.3975Z" fill="white"/>
<path d="M49.6847 66.7691C49.0357 66.7691 48.4933 66.6467 48.0526 66.4018C47.6118 66.157 47.2825 65.8337 47.0597 65.4321C46.8369 65.0306 46.7207 64.5898 46.7207 64.1049C46.7207 63.6544 46.7982 63.2626 46.958 62.9247C47.113 62.5867 47.3455 62.2978 47.6554 62.0578C47.9654 61.8178 48.3431 61.6268 48.7935 61.4799C49.181 61.3673 49.6266 61.2644 50.1157 61.1763C50.6097 61.0881 51.1279 61.0049 51.6703 60.9314C52.2128 60.853 52.7552 60.7796 53.2879 60.7012L52.6729 61.0441C52.6825 60.3486 52.5372 59.8344 52.237 59.4965C51.9367 59.1585 51.4233 58.992 50.692 58.992C50.2319 58.992 49.8106 59.0998 49.428 59.3153C49.0454 59.5307 48.7742 59.8883 48.624 60.3878L47.0403 59.8932C47.2583 59.1341 47.6699 58.5268 48.2802 58.0811C48.8904 57.6305 49.6992 57.4102 50.7114 57.4102C51.496 57.4102 52.1789 57.5473 52.76 57.8166C53.3412 58.086 53.7674 58.517 54.0386 59.0998C54.1791 59.3887 54.2662 59.6973 54.3001 60.0205C54.334 60.3437 54.3486 60.6914 54.3486 61.0636V66.5243H52.8472V64.4967L53.1378 64.7612C52.7746 65.4419 52.3145 65.9464 51.7527 66.2745C51.1909 66.6075 50.5031 66.7691 49.6847 66.7691ZM49.9849 65.3636C50.4644 65.3636 50.8809 65.2754 51.2248 65.104C51.5686 64.9326 51.8495 64.7122 52.0626 64.4429C52.2757 64.1735 52.4113 63.8944 52.4743 63.6054C52.5663 63.3409 52.6196 63.0471 52.6341 62.719C52.6486 62.3908 52.6535 62.1264 52.6535 61.9305L53.2056 62.1362C52.668 62.2194 52.1837 62.2929 51.743 62.3566C51.3023 62.4202 50.91 62.4888 50.5516 62.5476C50.198 62.6112 49.8832 62.6847 49.6072 62.7728C49.3747 62.8561 49.1665 62.954 48.9873 63.0667C48.8081 63.1793 48.6628 63.3214 48.5562 63.483C48.4497 63.6495 48.3964 63.8454 48.3964 64.0805C48.3964 64.3155 48.4545 64.5212 48.5659 64.7171C48.6773 64.913 48.8517 65.0648 49.0841 65.1824C49.3166 65.295 49.6169 65.3538 49.9753 65.3538L49.9849 65.3636Z" fill="white"/>
<path d="M59.9381 66.7694C59.1196 66.7694 58.4174 66.5637 57.8217 66.1523C57.2308 65.7409 56.7707 65.1826 56.4511 64.4725C56.1266 63.7624 55.9668 62.9641 55.9668 62.0777C55.9668 61.1912 56.1315 60.3881 56.4559 59.6828C56.7804 58.9776 57.2405 58.4242 57.8411 58.0177C58.4368 57.6112 59.1487 57.4055 59.972 57.4055C60.7954 57.4055 61.4976 57.6112 62.0642 58.0177C62.6309 58.4242 63.0571 58.9825 63.3477 59.6877C63.6382 60.393 63.7835 61.1912 63.7835 62.0777C63.7835 62.9641 63.6382 63.7624 63.3428 64.4676C63.0522 65.1728 62.6212 65.7312 62.0497 66.1474C61.4782 66.5637 60.776 66.7694 59.9381 66.7694ZM60.1754 65.2169C60.7324 65.2169 61.1876 65.0847 61.5412 64.8153C61.8947 64.546 62.1514 64.1787 62.3112 63.7085C62.4711 63.2384 62.5534 62.6947 62.5534 62.0826C62.5534 61.4704 62.4711 60.9268 62.3064 60.4566C62.1417 59.9865 61.885 59.6192 61.5412 59.3547C61.1973 59.0902 60.7615 58.9629 60.2287 58.9629C59.6669 58.9629 59.202 59.1049 58.8387 59.3792C58.4755 59.6583 58.2043 60.0354 58.03 60.5056C57.8556 60.9757 57.7684 61.4998 57.7684 62.0826C57.7684 62.6654 57.8556 63.1992 58.03 63.6693C58.2043 64.1444 58.4707 64.5166 58.8242 64.8006C59.1778 65.0798 59.6282 65.2169 60.1657 65.2169H60.1754ZM62.5534 66.5245V60.1481H62.3597V54.707H64.0644V66.5294H62.5534V66.5245Z" fill="white"/>
<path d="M70.2239 66.7691C69.3521 66.7691 68.5869 66.5781 67.9282 66.1913C67.2696 65.8044 66.761 65.2656 66.393 64.5751C66.0297 63.8846 65.8457 63.0814 65.8457 62.1656C65.8457 61.1959 66.0249 60.3584 66.3833 59.6434C66.7417 58.9284 67.2454 58.3798 67.8895 57.9929C68.5336 57.6061 69.2843 57.4102 70.1367 57.4102C70.9891 57.4102 71.7882 57.6207 72.4178 58.037C73.0474 58.4533 73.5172 59.0508 73.8271 59.8246C74.1371 60.5984 74.263 61.5142 74.1952 62.5769H72.5001V61.955C72.4904 60.9265 72.2967 60.1674 71.9189 59.6728C71.5412 59.1781 70.9697 58.9333 70.1996 58.9333C69.3521 58.9333 68.7128 59.2026 68.2818 59.7462C67.8507 60.2898 67.6425 61.0685 67.6425 62.0921C67.6425 63.1157 67.8556 63.8209 68.2818 64.3547C68.708 64.8885 69.3279 65.153 70.1318 65.153C70.6646 65.153 71.1198 65.0306 71.5073 64.7857C71.8947 64.5408 72.195 64.1931 72.4129 63.7376L74.0789 64.2715C73.7399 65.0648 73.2217 65.6819 72.5292 66.1129C71.8366 66.5488 71.0665 66.7642 70.2142 66.7642L70.2239 66.7691ZM67.1001 62.572V61.2351H73.3573V62.572H67.1001Z" fill="white"/>
<path d="M29.3096 71.0343V69.3691H31.0046V71.0343H29.3096ZM29.3096 81.3531V72.4888H31.0046V81.3531H29.3096Z" fill="white"/>
<path d="M33.4316 81.3543V72.49H34.9475V75.0513H35.1509V81.3543H33.4316ZM39.592 81.3543V76.9956C39.592 76.6528 39.563 76.2953 39.5049 75.9329C39.4468 75.5705 39.3402 75.2325 39.1804 74.9191C39.0206 74.6057 38.7978 74.3559 38.5072 74.1649C38.2166 73.9739 37.8388 73.876 37.3739 73.876C37.0688 73.876 36.7831 73.9249 36.5118 74.0278C36.2406 74.1306 36.0033 74.2922 35.7999 74.5175C35.5965 74.7428 35.4367 75.0366 35.3204 75.4039C35.2042 75.7713 35.1461 76.2169 35.1461 76.7409L34.0903 76.3394C34.0903 75.5362 34.2404 74.826 34.5359 74.209C34.8313 73.5919 35.2623 73.1119 35.8193 72.7691C36.3762 72.4263 37.0494 72.25 37.8388 72.25C38.4442 72.25 38.9528 72.348 39.3644 72.5438C39.7761 72.7397 40.1103 72.9993 40.3669 73.3176C40.6236 73.636 40.8222 73.9886 40.9578 74.3657C41.0934 74.7428 41.1854 75.115 41.2338 75.4725C41.2823 75.8349 41.3065 76.1533 41.3065 76.4226V81.3494H39.5872L39.592 81.3543Z" fill="white"/>
<path d="M46.8369 81.3517V69.5293H48.532V81.3517H46.8369Z" fill="white"/>
<path d="M49.9941 73.865V72.4839H55.985V73.865H49.9941ZM55.985 81.3531C55.4329 81.4609 54.8905 81.5099 54.3626 81.4952C53.8299 81.4805 53.3601 81.3727 52.9436 81.1817C52.5271 80.9907 52.2123 80.6871 52.004 80.2806C51.8151 79.9133 51.7134 79.5411 51.6989 79.1591C51.6844 78.7771 51.6795 78.3461 51.6795 77.8662V70.0254H53.3843V77.7829C53.3843 78.1404 53.3843 78.449 53.394 78.7085C53.4037 78.973 53.4569 79.1934 53.5586 79.3746C53.7524 79.7125 54.0623 79.9084 54.4885 79.9525C54.9147 80.0015 55.4136 79.9819 55.985 79.8986V81.3531Z" fill="white"/>
<path d="M60.3058 81.5992C59.6568 81.5992 59.1144 81.4768 58.6736 81.2319C58.2329 80.987 57.9036 80.6638 57.6808 80.2622C57.458 79.8606 57.3418 79.4199 57.3418 78.935C57.3418 78.4845 57.4193 78.0927 57.5791 77.7547C57.7341 77.4168 57.9666 77.1279 58.2765 76.8879C58.5865 76.6479 58.9642 76.4569 59.4146 76.31C59.8021 76.1974 60.2476 76.0945 60.7368 76.0064C61.2308 75.9182 61.749 75.835 62.2914 75.7615C62.8339 75.6831 63.3763 75.6097 63.909 75.5313L63.2939 75.8741C63.3036 75.1787 63.1583 74.6645 62.8581 74.3265C62.5578 73.9886 62.0444 73.8221 61.3131 73.8221C60.853 73.8221 60.4317 73.9299 60.0491 74.1453C59.6665 74.3608 59.3953 74.7183 59.2451 75.2179L57.6614 74.7281C57.8794 73.969 58.291 73.3618 58.9013 72.9112C59.5115 72.4606 60.3203 72.2402 61.3325 72.2402C62.1171 72.2402 62.7999 72.3774 63.3811 72.6467C63.9623 72.9161 64.3885 73.3471 64.6597 73.9299C64.8001 74.2188 64.8873 74.5273 64.9212 74.8506C64.9551 75.1738 64.9696 75.5215 64.9696 75.8937V81.3544H63.4683V79.3268L63.7589 79.5913C63.3956 80.272 62.9356 80.7765 62.3738 81.1046C61.812 81.4376 61.1242 81.5992 60.3058 81.5992ZM60.606 80.1986C61.0855 80.1986 61.502 80.1104 61.8459 79.939C62.1897 79.7676 62.4706 79.5472 62.6837 79.2778C62.8968 79.0085 63.0324 78.7293 63.0954 78.4404C63.1874 78.1759 63.2407 77.8821 63.2552 77.554C63.2697 77.2258 63.2746 76.9614 63.2746 76.7655L63.8267 76.9712C63.2891 77.0544 62.8048 77.1279 62.3641 77.1915C61.9234 77.2552 61.5311 77.3238 61.1727 77.3825C60.8191 77.4462 60.5043 77.5197 60.2283 77.6078C59.9958 77.6911 59.7876 77.789 59.6084 77.9017C59.4292 78.0143 59.2839 78.1563 59.1773 78.3179C59.0708 78.4796 59.0175 78.6804 59.0175 78.9154C59.0175 79.1505 59.0756 79.3562 59.187 79.5521C59.2984 79.748 59.4728 79.8998 59.7052 80.0174C59.9377 80.1349 60.238 80.1888 60.5963 80.1888L60.606 80.1986Z" fill="white"/>
<path d="M67.2354 81.3524V69.2852H68.9304V81.3524H67.2354Z" fill="white"/>
<path d="M72.554 85.297L74.2491 80.6249L74.2733 82.0059L70.4473 72.4902H72.215L75.0724 79.8364H74.5542L77.2809 72.4902H79.0002L74.1619 85.297H72.5443H72.554Z" fill="white"/>
<path d="M39.0719 43.5313L50.4086 22.5968" stroke="#009347" stroke-width="11" stroke-miterlimit="10" stroke-linecap="round"/>
<path d="M48.7799 43.5313L60.1166 22.5968" stroke="white" stroke-width="11" stroke-miterlimit="10" stroke-linecap="round"/>
<path d="M58.4938 43.5313L69.8305 22.5968" stroke="#CF2837" stroke-width="11" stroke-miterlimit="10" stroke-linecap="round"/>
<g clip-path="url(#clip0_1400_8252)">
<mask id="mask0_1400_8252" style="mask-type:luminance" maskUnits="userSpaceOnUse" x="118" y="0" width="109" height="108">
<path d="M226.207 0H118.207V108H226.207V0Z" fill="white"/>
</mask>
<g mask="url(#mask0_1400_8252)">
<path d="M172.207 108C142.427 108 118.207 83.7604 118.207 54C118.207 24.2396 142.427 0 172.207 0C201.987 0 226.207 24.2199 226.207 54C226.207 83.7801 201.987 108 172.207 108Z" fill="#8497D5" fill-opacity="0.1"/>
<path d="M191.747 58.7969H151.08V60.9286H191.747V58.7969Z" fill="#E42313"/>
<path d="M151.392 54.3301C151.851 54.5597 152.605 54.7072 153.212 54.7072C154.114 54.7072 154.524 54.3301 154.524 53.8382C154.524 53.2314 154.081 52.9527 153.163 52.4443C151.457 51.5097 151.178 50.4274 151.178 49.7059C151.178 48.0989 152.31 46.7051 154.737 46.7051C155.458 46.7051 156.147 46.8855 156.475 47.0494L156.131 48.968C155.819 48.7876 155.36 48.64 154.753 48.64C153.933 48.64 153.556 49.0336 153.556 49.4763C153.556 49.9027 153.769 50.165 154.966 50.7882C156.426 51.5425 156.901 52.5591 156.901 53.5594C156.901 55.396 155.426 56.6094 153.195 56.6094C152.294 56.6094 151.441 56.4126 151.08 56.2323L151.392 54.2973V54.3301Z" fill="white"/>
<path d="M161.377 52.9016L161.115 51.0486C161.033 50.4911 160.902 49.4416 160.803 48.8349H160.77C160.656 49.4416 160.508 50.5239 160.41 51.0486L160.098 52.9016H161.377ZM159.852 54.6233L159.491 56.5419H157.146L159.377 46.7852H162.312L164.23 56.5419H161.885L161.541 54.6233H159.836H159.852Z" fill="white"/>
<path d="M167.724 54.9009C167.855 54.9337 167.97 54.9337 168.117 54.9337C168.773 54.9337 169.396 54.5402 169.396 53.6711C169.396 52.802 168.806 52.3921 168.134 52.3921H167.724V54.9009ZM167.724 50.7523H168.117C168.757 50.7523 169.199 50.2275 169.199 49.5388C169.199 48.8993 168.871 48.4074 168.232 48.4074C168.035 48.4074 167.855 48.4074 167.724 48.473V50.7523ZM165.313 46.948C165.985 46.8168 166.904 46.7676 167.888 46.7676C168.871 46.7676 169.904 46.8496 170.692 47.4563C171.298 47.9154 171.528 48.6041 171.528 49.2765C171.528 50.08 171.085 50.9326 170.052 51.3918V51.441C171.266 51.7689 171.872 52.72 171.872 53.7039C171.872 54.5074 171.593 55.1305 171.085 55.606C170.446 56.2456 169.331 56.6391 167.33 56.6391C166.543 56.6391 165.821 56.5899 165.28 56.5243V46.948H165.313Z" fill="white"/>
<path d="M175.726 54.9009C175.858 54.9337 175.972 54.9337 176.12 54.9337C176.776 54.9337 177.399 54.5402 177.399 53.6711C177.399 52.802 176.809 52.3921 176.136 52.3921H175.726V54.9009ZM175.726 50.7523H176.12C176.76 50.7523 177.202 50.2275 177.202 49.5388C177.202 48.8993 176.874 48.4074 176.235 48.4074C176.038 48.4074 175.858 48.4074 175.726 48.473V50.7523ZM173.316 46.948C173.988 46.8168 174.907 46.7676 175.89 46.7676C176.874 46.7676 177.907 46.8496 178.695 47.4563C179.301 47.9154 179.531 48.6041 179.531 49.2765C179.531 50.08 179.088 50.9326 178.055 51.3918V51.441C179.268 51.7689 179.875 52.72 179.875 53.7039C179.875 54.5074 179.596 55.1305 179.088 55.606C178.449 56.2456 177.333 56.6391 175.333 56.6391C174.546 56.6391 173.824 56.5899 173.283 56.5243V46.948H173.316Z" fill="white"/>
<path d="M183.744 46.8027H181.317V56.5595H183.744V46.8027Z" fill="white"/>
<path d="M188.877 52.9016L188.615 51.0486C188.533 50.4911 188.402 49.4416 188.303 48.8349H188.27C188.156 49.4416 188.008 50.5239 187.91 51.0486L187.598 52.9016H188.877ZM187.352 54.6233L186.991 56.5419H184.646L186.877 46.7852H189.812L191.73 56.5419H189.385L189.041 54.6233H187.336H187.352Z" fill="white"/>
<path d="M192.534 47.1806H192.632C192.78 47.1806 192.845 47.115 192.845 47.033C192.845 46.9346 192.763 46.9018 192.649 46.9018C192.599 46.9018 192.567 46.9018 192.534 46.9018V47.1806ZM192.517 47.9021H192.075V46.6394C192.157 46.6394 192.386 46.5902 192.681 46.5902C192.993 46.5902 193.124 46.623 193.223 46.6886C193.305 46.7378 193.354 46.8362 193.354 46.9674C193.354 47.0986 193.223 47.2134 193.042 47.2462C193.19 47.3117 193.272 47.4101 193.321 47.5905C193.37 47.7709 193.403 47.8529 193.419 47.8857H192.927C192.927 47.8857 192.862 47.7381 192.845 47.6397C192.829 47.5249 192.763 47.4593 192.649 47.4593H192.534V47.8857L192.517 47.9021ZM192.665 46.2131C192.091 46.2131 191.665 46.6722 191.665 47.2626C191.665 47.8529 192.091 48.312 192.665 48.312C193.255 48.312 193.682 47.8529 193.682 47.2462C193.682 46.6394 193.255 46.2131 192.665 46.2131ZM192.681 45.8359C193.501 45.8359 194.141 46.4755 194.141 47.2626C194.141 48.0497 193.485 48.7056 192.665 48.7056C191.845 48.7056 191.173 48.0661 191.173 47.2626C191.173 46.4591 191.845 45.8359 192.665 45.8359H192.681Z" fill="white"/>
<path d="M147.104 33.9101L144.638 39.0195L147.384 40.3456L149.851 35.2361L147.104 33.9101Z" fill="#E42313"/>
<path d="M149.62 26.8786L147.751 28.3216L146.259 26.3702L152.457 21.582L153.966 23.517L152.08 24.9764L157.606 32.1259L155.146 34.0444L149.62 26.8786Z" fill="white"/>
<path d="M161.246 25.7476C160.426 26.1247 159.688 26.7643 160.033 27.5841C160.311 28.2401 160.885 28.3057 161.197 28.1581C161.492 28.0269 161.836 27.7481 161.853 27.3382C161.853 27.2398 161.836 27.125 161.771 26.9938L161.23 25.7312L161.246 25.7476ZM164.854 26.4199C165.116 27.043 165.411 27.6497 165.756 28.1253L163.197 29.2075L162.738 28.5352H162.706C162.427 29.3715 161.787 29.9618 160.984 30.3062C159.541 30.9293 158.049 30.3554 157.458 28.9616C156.573 26.8954 158.442 25.1245 160.492 24.239L160.426 24.0914C160.246 23.6651 159.639 23.5339 158.901 23.8454C158.098 24.1898 157.573 24.6161 157.097 25.1737L155.9 23.7634C156.343 23.2715 157.343 22.4024 158.77 21.7957C161.935 20.4511 163.066 22.222 163.706 23.7142L164.837 26.3871L164.854 26.4199Z" fill="white"/>
<path d="M167.299 16.0443L164.235 16.6094L166.377 28.22L169.441 27.6549L167.299 16.0443Z" fill="white"/>
<path d="M175.053 22.616C175.086 21.7961 174.955 20.9106 174.151 20.8778C173.364 20.845 173.053 21.8289 173.02 22.534L175.053 22.616ZM172.954 24.3542C172.954 25.1249 173.708 25.6168 174.905 25.6496C175.693 25.6824 176.381 25.5676 176.906 25.4528L177.218 27.3386C176.48 27.5354 175.348 27.6502 174.266 27.601C171.429 27.5026 169.904 25.994 170.003 23.3539C170.101 20.4843 172.069 18.8937 174.397 18.9757C176.578 19.0577 177.956 20.3695 177.841 23.1899C177.808 23.9114 177.759 24.2722 177.693 24.5346L172.971 24.3542H172.954Z" fill="white"/>
<path d="M179.596 22.2378C179.891 21.4015 180.153 20.4996 180.399 19.6797L182.924 20.5652L182.761 21.5163H182.793C183.531 21.0735 184.499 20.9751 185.466 21.3031C187.45 21.9918 187.565 23.5824 186.975 25.2878L185.237 30.2563L182.301 29.2233L184.007 24.3203C184.204 23.7792 184.204 23.2052 183.613 22.9921C183.285 22.8773 182.99 22.9593 182.711 23.2052C182.58 23.32 182.416 23.566 182.301 23.8939L180.645 28.6493L177.71 27.6163L179.596 22.2214V22.2378Z" fill="white"/>
<path d="M194.633 23.9588L193.338 25.8282L194.945 26.9432L193.895 28.4518L192.288 27.3368L190.386 30.0916C189.861 30.8459 190.14 31.3051 190.55 31.6002C190.763 31.7478 190.943 31.8462 191.173 31.9774L189.992 33.6664C189.615 33.5024 189.041 33.1908 188.418 32.7645C187.746 32.2889 187.238 31.7478 187.024 31.1411C186.795 30.4196 186.893 29.6653 187.68 28.5338L189.714 25.5822L188.779 24.9263L189.828 23.4177L190.763 24.0736L191.616 22.8438L194.617 23.9916L194.633 23.9588Z" fill="white"/>
<path d="M195.895 37.3738C195.928 37.4722 196.026 37.6198 196.092 37.751C196.682 38.6693 198.043 38.8005 200.437 37.2427C202.225 36.0784 203.045 34.8486 202.307 33.7171C202.225 33.5859 202.143 33.4711 202.028 33.3728L195.895 37.3738ZM201.946 29.7324C202.421 30.2408 203.094 31.0934 203.733 32.0773C204.734 33.6187 205.127 34.865 205.012 36.0456C204.881 37.5706 203.881 38.8496 202.094 40.0139C200.257 41.2109 198.42 41.5881 196.912 41.0142C195.813 40.6042 194.764 39.6695 193.665 37.9642C193.157 37.1935 192.73 36.39 192.484 35.898L201.946 29.7324Z" fill="white"/>
<path d="M202.438 41.8007C203.291 41.5384 204.16 41.2268 204.963 40.9316L205.75 43.4897L204.652 43.998V44.08C205.718 44.2604 206.324 44.8999 206.521 45.5067C206.619 45.8182 206.652 45.9658 206.669 46.1626L204.193 46.9333C204.16 46.7365 204.111 46.5397 204.029 46.2774C203.914 45.933 203.569 45.2443 202.684 45.1623C202.504 45.1459 202.176 45.1623 201.815 45.2935L197.912 46.5069L196.978 43.5225L202.438 41.8335V41.8007Z" fill="white"/>
<path d="M209.391 50.6404C208.604 50.7552 207.948 50.1157 207.85 49.2466C207.751 48.4267 208.227 47.6888 209.03 47.6068C209.866 47.492 210.49 48.148 210.588 48.9679C210.686 49.8042 210.244 50.5421 209.391 50.6568M198.486 48.8531L206.816 47.8692L207.194 50.9684L198.863 51.9523L198.503 48.8531H198.486Z" fill="white"/>
<path d="M207.177 55.9862L203.799 56.2158C202.962 56.2814 202.208 56.3306 201.29 56.3798V56.4289C202.192 56.6257 202.88 56.8225 203.717 57.0357L206.996 57.9048L206.701 60.9548L198.601 57.5112L198.863 54.6416L207.472 52.6738L207.16 55.9862H207.177Z" fill="white"/>
<path d="M201.372 65.7082C202.143 65.987 203.028 66.151 203.307 65.3966C203.586 64.6587 202.75 64.052 202.077 63.8061L201.372 65.7082ZM200.372 63.1665C199.634 62.937 198.945 63.4945 198.519 64.5932C198.24 65.3311 198.125 66.0198 198.076 66.5445L196.19 66.2493C196.24 65.495 196.486 64.38 196.863 63.3633C197.863 60.7069 199.782 59.723 202.258 60.6577C204.947 61.6579 205.849 64.0192 205.029 66.2001C204.258 68.2335 202.586 69.1354 199.946 68.1351C199.273 67.8891 198.945 67.7087 198.716 67.5612L200.372 63.1337V63.1665Z" fill="white"/>
<path d="M200.29 70.1365C200.995 70.6776 201.766 71.2188 202.471 71.6943L200.847 73.826L199.995 73.3669V73.3997C200.175 74.236 199.978 75.2035 199.339 76.007C198.076 77.6631 196.518 77.3024 195.092 76.2037L190.91 73.0061L192.812 70.5301L196.928 73.6785C197.387 74.0392 197.928 74.2196 198.306 73.7276C198.519 73.4489 198.535 73.1537 198.388 72.8094C198.322 72.6618 198.125 72.4158 197.863 72.2026L193.862 69.1362L195.764 66.6602L200.306 70.1365H200.29Z" fill="white"/>
<path d="M187.799 75.3129L185.186 77.0098L191.446 86.6502L194.059 84.9533L187.799 75.3129Z" fill="white"/>
<path d="M186.368 83.0746C186.663 83.9109 187.008 84.78 187.319 85.5835L184.794 86.469L184.319 85.6163H184.286C183.991 86.4362 183.302 87.1249 182.334 87.4692C180.367 88.1579 179.268 86.9937 178.678 85.2883L176.939 80.3033L179.875 79.2703L181.58 84.1733C181.777 84.7144 182.121 85.1735 182.712 84.9767C183.039 84.862 183.22 84.616 183.285 84.2552C183.318 84.0913 183.285 83.7797 183.171 83.4681L181.514 78.7128L184.466 77.6797L186.352 83.0746H186.368Z" fill="white"/>
<path d="M176.857 86.0764C176.89 86.9619 176.955 87.8965 177.021 88.7492L174.348 88.8312L174.168 87.8801H174.118C173.594 88.5689 172.725 89.0116 171.691 89.0444C169.593 89.11 168.92 87.6834 168.855 85.8632L168.707 80.5995L171.823 80.5011L171.97 85.6828C171.987 86.2568 172.183 86.7979 172.807 86.7815C173.151 86.7815 173.397 86.6011 173.577 86.2732C173.659 86.1092 173.725 85.8304 173.708 85.4861L173.561 80.4519L176.676 80.3535L176.84 86.06L176.857 86.0764Z" fill="white"/>
<path d="M164.607 83.8295C165.001 82.4357 164.984 81.4682 164.279 81.2714C163.656 81.1075 163.148 82.1733 162.836 83.3376C162.541 84.4034 162.41 85.6497 163.066 85.83C163.82 86.0432 164.328 84.9118 164.624 83.8295M159.852 82.5341C160.819 79.0741 163.427 78.9921 164.853 79.3857C167.378 80.0908 168.28 82.0749 167.575 84.6002C166.772 87.4698 164.509 88.2733 162.508 87.7322C160.032 87.0435 159.163 84.961 159.835 82.5341" fill="white"/>
<path d="M154.589 84.2547L155.868 81.1227C156.179 80.352 156.458 79.6469 156.819 78.8106H156.786C156.196 79.5157 155.736 80.0405 155.163 80.6964L152.932 83.2545L150.325 81.6639L156.999 75.9082L159.459 77.4168L157.425 86.0093L154.589 84.2711V84.2547Z" fill="white"/>
<path d="M149.407 74.4009C150.031 75.0568 150.883 75.5324 151.539 74.9257C152.064 74.4337 151.916 73.8762 151.687 73.6302C151.474 73.4007 151.096 73.1711 150.703 73.2859C150.605 73.3187 150.506 73.3843 150.408 73.4663L149.407 74.3845V74.4009ZM148.85 70.7606C149.358 70.3015 149.817 69.8095 150.162 69.334L152.048 71.3673L151.572 72.0232L151.605 72.056C152.474 72.056 153.245 72.4332 153.835 73.0891C154.901 74.2369 154.868 75.8439 153.753 76.8606C152.097 78.3856 149.817 77.2214 148.276 75.5816L148.161 75.68C147.817 75.9915 147.899 76.5982 148.44 77.1886C149.03 77.8281 149.621 78.1888 150.293 78.4348L149.375 80.0254C148.768 79.763 147.62 79.1235 146.571 77.9921C144.242 75.4668 145.538 73.7942 146.718 72.6956L148.85 70.7278V70.7606Z" fill="white"/>
<path d="M139.027 70.9068L141.028 69.8246L140.11 68.1028L141.733 67.2337L142.651 68.9555L145.603 67.3649C146.406 66.9221 146.374 66.3974 146.144 65.9546C146.013 65.7251 145.914 65.5611 145.75 65.3315L147.571 64.3477C147.833 64.6592 148.21 65.2003 148.571 65.8727C148.964 66.5942 149.178 67.3157 149.079 67.9552C148.964 68.7095 148.522 69.3326 147.308 69.9885L144.16 71.6775L144.701 72.6778L143.078 73.5469L142.536 72.5302L141.208 73.2353L139.06 70.8576L139.027 70.9068Z" fill="white"/>
<path d="M147.489 63.7579L139.47 66.2503L138.536 63.2659L146.554 60.7734L147.489 63.7415V63.7579ZM136.437 64.0038C137.191 63.7415 137.945 64.2498 138.208 65.1025C138.454 65.8896 138.126 66.7095 137.355 66.939C136.552 67.2178 135.83 66.6767 135.584 65.8896C135.338 65.0861 135.633 64.2662 136.453 64.0202" fill="white"/>
<path d="M141.782 57.6914C143.225 57.5766 144.127 57.2487 144.061 56.5108C144.012 55.8713 142.831 55.7565 141.634 55.8549C140.536 55.9369 139.322 56.232 139.371 56.9207C139.437 57.7078 140.667 57.7898 141.782 57.7078M141.388 52.7721C144.979 52.4933 145.93 54.9202 146.045 56.4124C146.242 59.0197 144.684 60.5447 142.061 60.7578C139.076 60.9874 137.551 59.118 137.404 57.0519C137.207 54.4774 138.863 52.9688 141.388 52.7721Z" fill="white"/>
<path d="M140.044 51.1799C139.174 50.9831 138.256 50.8191 137.42 50.6715L138.01 48.0643L138.978 48.1135V48.0807C138.453 47.4084 138.24 46.4409 138.469 45.4406C138.929 43.4073 140.486 43.0957 142.241 43.4893L147.39 44.6535L146.701 47.7035L141.651 46.5721C141.077 46.4409 140.519 46.5065 140.372 47.1132C140.29 47.4412 140.404 47.7363 140.683 47.9823C140.814 48.0971 141.077 48.2283 141.405 48.3102L146.308 49.4089L145.619 52.4425L140.044 51.1799Z" fill="white"/>
</g>
</g>
<defs>
<clipPath id="clip0_1400_8252">
<rect width="108" height="108" fill="white" transform="translate(118.207)"/>
</clipPath>
</defs>
</svg>
