<svg width="360" height="90" viewBox="0 0 360 90" fill="none" xmlns="http://www.w3.org/2000/svg">
<g clip-path="url(#clip0_2667_21706)">
<path d="M77.1443 12.8572V5.92009H74.4837V4.62866H81.1808V5.92009H78.5202V12.8572H77.1443ZM81.8732 15.6001L83.0607 12.3372L83.0836 13.2972L80.3945 6.6858H81.8275L83.7344 11.5772H83.369L85.2246 6.6858H86.6005L83.1635 15.6001H81.8732ZM90.1867 13.0287C89.5853 13.0287 89.081 12.8858 88.6738 12.6001C88.2665 12.3144 87.9601 11.9258 87.7546 11.4344C87.549 10.9392 87.4463 10.3849 87.4463 9.77152C87.4463 9.15059 87.549 8.59438 87.7546 8.10295C87.9601 7.61152 88.2608 7.22488 88.6567 6.94295C89.0563 6.65723 89.5492 6.51438 90.1354 6.51438C90.7177 6.51438 91.222 6.65723 91.6481 6.94295C92.0784 7.22488 92.4117 7.61152 92.6472 8.10295C92.8834 8.59059 93.0012 9.14673 93.0012 9.77152C93.0012 10.3887 92.8856 10.9429 92.6529 11.4344C92.421 11.9258 92.0934 12.3144 91.6709 12.6001C91.2487 12.8858 90.7538 13.0287 90.1867 13.0287ZM87.2122 15.6001V6.6858H88.4283V11.0172H88.5996V15.6001H87.2122ZM89.9755 11.7944C90.3333 11.7944 90.6282 11.7049 90.8605 11.5258C91.0926 11.3467 91.2639 11.1049 91.374 10.8001C91.4882 10.4915 91.5453 10.1487 91.5453 9.77152C91.5453 9.39816 91.4882 9.05916 91.374 8.75437C91.2601 8.4458 91.0831 8.20202 90.8433 8.02295C90.6035 7.84009 90.299 7.74866 89.9298 7.74866C89.5796 7.74866 89.2942 7.83438 89.0734 8.0058C88.8526 8.17345 88.689 8.40959 88.5824 8.71438C88.4797 9.0153 88.4283 9.36773 88.4283 9.77152C88.4283 10.1715 88.4797 10.5239 88.5824 10.8287C88.689 11.1334 88.8546 11.3715 89.0791 11.5429C89.3075 11.7106 89.6063 11.7944 89.9755 11.7944ZM35.4472 29.4572C34.8458 29.4572 34.3415 29.3144 33.9342 29.0287C33.527 28.7429 33.2206 28.3544 33.015 27.8629C32.8095 27.3677 32.7067 26.8134 32.7067 26.2001C32.7067 25.5792 32.8095 25.0229 33.015 24.5315C33.2206 24.0401 33.5212 23.6534 33.9171 23.3715C34.3168 23.0858 34.8097 22.9429 35.3958 22.9429C35.9782 22.9429 36.4825 23.0858 36.9088 23.3715C37.3389 23.6534 37.6719 24.0401 37.9079 24.5315C38.1439 25.0192 38.2619 25.5753 38.2619 26.2001C38.2619 26.8172 38.1458 27.3715 37.9136 27.8629C37.6815 28.3544 37.3541 28.7429 36.9316 29.0287C36.5092 29.3144 36.0144 29.4572 35.4472 29.4572ZM32.4727 32.0287V23.1144H33.6887V27.4458H33.86V32.0287H32.4727ZM35.236 28.2229C35.5937 28.2229 35.8888 28.1334 36.1209 27.9544C36.3531 27.7753 36.5244 27.5334 36.6348 27.2287C36.7489 26.9201 36.806 26.5772 36.806 26.2001C36.806 25.8267 36.7489 25.4877 36.6348 25.1829C36.5206 24.8744 36.3436 24.6306 36.1038 24.4515C35.864 24.2687 35.5595 24.1772 35.1903 24.1772C34.8401 24.1772 34.5546 24.2629 34.3339 24.4344C34.1132 24.602 33.9494 24.8382 33.8429 25.1429C33.7401 25.4439 33.6887 25.7963 33.6887 26.2001C33.6887 26.6001 33.7401 26.9524 33.8429 27.2572C33.9494 27.562 34.115 27.8001 34.3396 27.9715C34.568 28.1392 34.8668 28.2229 35.236 28.2229ZM42.0154 29.4572C41.3988 29.4572 40.8602 29.3182 40.3996 29.0401C39.939 28.762 39.5813 28.3792 39.3263 27.8915C39.0751 27.4001 38.9495 26.8363 38.9495 26.2001C38.9495 25.5524 39.0788 24.9849 39.3377 24.4972C39.5965 24.0096 39.9562 23.6287 40.4168 23.3544C40.8773 23.0801 41.4102 22.9429 42.0154 22.9429C42.6358 22.9429 43.1762 23.082 43.6368 23.3601C44.0973 23.6382 44.4551 24.0229 44.7102 24.5144C44.9652 25.002 45.0927 25.5639 45.0927 26.2001C45.0927 26.8401 44.9632 27.4058 44.7045 27.8972C44.4494 28.3849 44.0916 28.7677 43.6311 29.0458C43.1705 29.3201 42.632 29.4572 42.0154 29.4572ZM42.0154 28.1658C42.5635 28.1658 42.9707 27.9829 43.2372 27.6172C43.5036 27.2515 43.6368 26.7792 43.6368 26.2001C43.6368 25.602 43.5016 25.1258 43.2315 24.7715C42.9612 24.4134 42.5558 24.2344 42.0154 24.2344C41.6461 24.2344 41.3417 24.3182 41.1019 24.4858C40.8659 24.6496 40.6908 24.8801 40.5766 25.1772C40.4624 25.4706 40.4053 25.8115 40.4053 26.2001C40.4053 26.7982 40.5404 27.2763 40.8107 27.6344C41.0847 27.9887 41.4863 28.1658 42.0154 28.1658ZM53.5272 29.2858V25.5372C53.5272 25.1144 53.4225 24.7849 53.2132 24.5487C53.0039 24.3087 52.7203 24.1887 52.3625 24.1887C52.1418 24.1887 51.9438 24.2401 51.7688 24.3429C51.5937 24.442 51.4547 24.5906 51.352 24.7887C51.2492 24.9829 51.1978 25.2153 51.1978 25.4858L50.5869 25.1258C50.5831 24.6992 50.6783 24.3239 50.8724 24.0001C51.0703 23.6724 51.3368 23.4172 51.6717 23.2344C52.0066 23.0515 52.3797 22.9601 52.7907 22.9601C53.4721 22.9601 53.9935 23.1658 54.3551 23.5772C54.7205 23.9849 54.9032 24.522 54.9032 25.1887V29.2858H53.5272ZM46.1108 29.2858V23.1144H47.3269V25.0287H47.4982V29.2858H46.1108ZM49.8276 29.2858V25.5544C49.8276 25.1239 49.7229 24.7887 49.5136 24.5487C49.3043 24.3087 49.0188 24.1887 48.6572 24.1887C48.307 24.1887 48.0254 24.3087 47.8122 24.5487C47.6029 24.7887 47.4982 25.101 47.4982 25.4858L46.8816 25.0744C46.8816 24.6744 46.9806 24.3144 47.1785 23.9944C47.3764 23.6744 47.6428 23.4229 47.9778 23.2401C48.3165 23.0534 48.6952 22.9601 49.1139 22.9601C49.5744 22.9601 49.9589 23.0592 50.2672 23.2572C50.5793 23.4515 50.8115 23.7182 50.9637 24.0572C51.1198 24.3924 51.1978 24.7715 51.1978 25.1944V29.2858H49.8276ZM59.1271 29.4572C58.5257 29.4572 58.0214 29.3144 57.6141 29.0287C57.2069 28.7429 56.9004 28.3544 56.6949 27.8629C56.4894 27.3677 56.3866 26.8134 56.3866 26.2001C56.3866 25.5792 56.4894 25.0229 56.6949 24.5315C56.9004 24.0401 57.2012 23.6534 57.597 23.3715C57.9966 23.0858 58.4896 22.9429 59.0757 22.9429C59.6581 22.9429 60.1624 23.0858 60.5887 23.3715C61.0188 23.6534 61.3519 24.0401 61.5878 24.5315C61.8238 25.0192 61.9418 25.5753 61.9418 26.2001C61.9418 26.8172 61.8257 27.3715 61.5935 27.8629C61.3614 28.3544 61.034 28.7429 60.6115 29.0287C60.189 29.3144 59.6942 29.4572 59.1271 29.4572ZM56.1525 32.0287V23.1144H57.3686V27.4458H57.5399V32.0287H56.1525ZM58.9158 28.2229C59.2737 28.2229 59.5686 28.1334 59.8008 27.9544C60.033 27.7753 60.2043 27.5334 60.3146 27.2287C60.4288 26.9201 60.4859 26.5772 60.4859 26.2001C60.4859 25.8267 60.4288 25.4877 60.3146 25.1829C60.2004 24.8744 60.0234 24.6306 59.7837 24.4515C59.5439 24.2687 59.2394 24.1772 58.8702 24.1772C58.52 24.1772 58.2346 24.2629 58.0138 24.4344C57.793 24.602 57.6294 24.8382 57.5228 25.1429C57.42 25.4439 57.3686 25.7963 57.3686 26.2001C57.3686 26.6001 57.42 26.9524 57.5228 27.2572C57.6294 27.562 57.795 27.8001 58.0195 27.9715C58.2478 28.1392 58.5467 28.2229 58.9158 28.2229ZM64.6961 29.4572C64.2508 29.4572 63.874 29.3734 63.5657 29.2058C63.2574 29.0344 63.0233 28.8077 62.8634 28.5258C62.7073 28.2439 62.6293 27.9334 62.6293 27.5944C62.6293 27.2972 62.6788 27.0306 62.7778 26.7944C62.8768 26.5544 63.029 26.3487 63.2345 26.1772C63.4401 26.002 63.7065 25.8592 64.0338 25.7487C64.2812 25.6687 64.5705 25.5963 64.9016 25.5315C65.2366 25.4667 65.5982 25.4077 65.9864 25.3544C66.3784 25.2972 66.7876 25.2363 67.2139 25.1715L66.7229 25.4515C66.7267 25.0249 66.6316 24.7106 66.4374 24.5087C66.2433 24.3067 65.916 24.2058 65.4554 24.2058C65.1776 24.2058 64.9093 24.2706 64.6504 24.4001C64.3916 24.5296 64.2108 24.7524 64.108 25.0687L62.852 24.6744C63.0042 24.1524 63.2935 23.7334 63.7198 23.4172C64.1499 23.101 64.7284 22.9429 65.4554 22.9429C66.0035 22.9429 66.485 23.0324 66.8999 23.2115C67.3186 23.3906 67.6288 23.6839 67.8305 24.0915C67.9409 24.3087 68.0075 24.5315 68.0303 24.7601C68.0532 24.9849 68.0646 25.2306 68.0646 25.4972V29.2858H66.8599V27.9487L67.0598 28.1658C66.7819 28.6115 66.4565 28.9392 66.0835 29.1487C65.7143 29.3544 65.2518 29.4572 64.6961 29.4572ZM64.9701 28.3601C65.2822 28.3601 65.5487 28.3049 65.7695 28.1944C65.9902 28.0839 66.1653 27.9487 66.2947 27.7887C66.428 27.6287 66.5174 27.4782 66.563 27.3372C66.6353 27.162 66.6753 26.962 66.6829 26.7372C66.6944 26.5087 66.7001 26.3239 66.7001 26.1829L67.1226 26.3087C66.7077 26.3734 66.3518 26.4306 66.0549 26.4801C65.758 26.5296 65.503 26.5772 65.2899 26.6229C65.0767 26.6649 64.8883 26.7124 64.7246 26.7658C64.5648 26.8229 64.4297 26.8896 64.3193 26.9658C64.2089 27.042 64.1232 27.1296 64.0624 27.2287C64.0053 27.3277 63.9767 27.4439 63.9767 27.5772C63.9767 27.7296 64.0148 27.8649 64.0909 27.9829C64.1671 28.0972 64.2774 28.1887 64.4221 28.2572C64.5705 28.3258 64.7532 28.3601 64.9701 28.3601ZM70.4667 32.0287V30.7372H70.7579C71.0928 30.7372 71.3307 30.6592 71.4716 30.5029C71.6124 30.3467 71.6828 30.1163 71.6828 29.8115V23.1144H73.0531V30.4287C73.0531 30.9277 72.9065 31.3182 72.6134 31.6001C72.3241 31.8858 71.9207 32.0287 71.4031 32.0287H70.4667ZM71.6828 22.1772V20.9144H73.0531V22.1772H71.6828ZM77.2446 29.4572C76.6205 29.4572 76.0724 29.322 75.6003 29.0515C75.1284 28.781 74.7592 28.4058 74.4927 27.9258C74.2301 27.4458 74.0988 26.8934 74.0988 26.2687C74.0988 25.5944 74.2283 25.0096 74.487 24.5144C74.7459 24.0153 75.1056 23.6287 75.5661 23.3544C76.0267 23.0801 76.5595 22.9429 77.1647 22.9429C77.8041 22.9429 78.3465 23.0934 78.7919 23.3944C79.241 23.6915 79.574 24.1124 79.791 24.6572C80.0079 25.202 80.0898 25.8439 80.0365 26.5829H78.672V26.0801C78.6682 25.4096 78.5502 24.9201 78.318 24.6115C78.0858 24.3029 77.7204 24.1487 77.2218 24.1487C76.6585 24.1487 76.2398 24.3239 75.9657 24.6744C75.6917 25.021 75.5547 25.5296 75.5547 26.2001C75.5547 26.8249 75.6917 27.3087 75.9657 27.6515C76.2398 27.9944 76.6394 28.1658 77.1647 28.1658C77.5035 28.1658 77.7947 28.0915 78.0382 27.9429C78.2857 27.7906 78.476 27.5715 78.6092 27.2858L79.968 27.6972C79.732 28.2534 79.3666 28.6858 78.8718 28.9944C78.3808 29.3029 77.8384 29.4572 77.2446 29.4572ZM75.1208 26.5829V25.5429H79.3628V26.5829H75.1208ZM83.5542 29.4572C82.9871 29.4572 82.4923 29.3144 82.0698 29.0287C81.6473 28.7429 81.32 28.3544 81.0878 27.8629C80.8556 27.3715 80.7395 26.8172 80.7395 26.2001C80.7395 25.5753 80.8556 25.0192 81.0878 24.5315C81.3237 24.0401 81.6568 23.6534 82.0869 23.3715C82.517 23.0858 83.0233 22.9429 83.6056 22.9429C84.1917 22.9429 84.6827 23.0858 85.0786 23.3715C85.4783 23.6534 85.7809 24.0401 85.9864 24.5315C86.1919 25.0229 86.2947 25.5792 86.2947 26.2001C86.2947 26.8134 86.1919 27.3677 85.9864 27.8629C85.7809 28.3544 85.4744 28.7429 85.0672 29.0287C84.6599 29.3144 84.1556 29.4572 83.5542 29.4572ZM83.7655 28.2229C84.1346 28.2229 84.4315 28.1392 84.6561 27.9715C84.8845 27.8001 85.0501 27.562 85.1528 27.2572C85.2594 26.9524 85.3127 26.6001 85.3127 26.2001C85.3127 25.7963 85.2594 25.4439 85.1528 25.1429C85.0501 24.8382 84.8883 24.602 84.6675 24.4344C84.4467 24.2629 84.1613 24.1772 83.8111 24.1772C83.4419 24.1772 83.1374 24.2687 82.8976 24.4515C82.6579 24.6306 82.4809 24.8744 82.3667 25.1829C82.2525 25.4877 82.1954 25.8267 82.1954 26.2001C82.1954 26.5772 82.2506 26.9201 82.361 27.2287C82.4752 27.5334 82.6483 27.7753 82.8805 27.9544C83.1127 28.1334 83.4076 28.2229 83.7655 28.2229ZM85.3127 29.2858V24.9544H85.1414V21.0572H86.5288V29.2858H85.3127ZM92.1662 29.2858V26.3144C92.1662 26.1201 92.1526 25.9049 92.1262 25.6687C92.0991 25.4324 92.0363 25.2058 91.9378 24.9887C91.8422 24.7677 91.698 24.5867 91.5039 24.4458C91.3134 24.3049 91.0546 24.2344 90.7273 24.2344C90.5521 24.2344 90.379 24.2629 90.2077 24.3201C90.0365 24.3772 89.8804 24.4763 89.7396 24.6172C89.6025 24.7544 89.4921 24.9449 89.4084 25.1887C89.3246 25.4287 89.2828 25.7372 89.2828 26.1144L88.4664 25.7658C88.4664 25.2401 88.5672 24.7639 88.769 24.3372C88.9745 23.9106 89.2752 23.5715 89.6711 23.3201C90.0669 23.0649 90.5541 22.9372 91.1326 22.9372C91.5895 22.9372 91.9663 23.0134 92.2632 23.1658C92.5601 23.3182 92.7956 23.5124 92.9712 23.7487C93.146 23.9849 93.2752 24.2363 93.3594 24.5029C93.4429 24.7696 93.4964 25.0229 93.5193 25.2629C93.5457 25.4992 93.5592 25.6915 93.5592 25.8401V29.2858H92.1662ZM87.8897 29.2858V23.1144H89.1173V25.0287H89.2828V29.2858H87.8897ZM97.4437 29.4572C96.8271 29.4572 96.2883 29.3182 95.828 29.0401C95.367 28.762 95.0094 28.3792 94.7546 27.8915C94.5034 27.4001 94.3778 26.8363 94.3778 26.2001C94.3778 25.5524 94.507 24.9849 94.7661 24.4972C95.0244 24.0096 95.3841 23.6287 95.8451 23.3544C96.3054 23.0801 96.8385 22.9429 97.4437 22.9429C98.0639 22.9429 98.6042 23.082 99.0652 23.3601C99.5255 23.6382 99.883 24.0229 100.139 24.5144C100.393 25.002 100.521 25.5639 100.521 26.2001C100.521 26.8401 100.391 27.4058 100.133 27.8972C99.8773 28.3849 99.5198 28.7677 99.0595 29.0458C98.5984 29.3201 98.0603 29.4572 97.4437 29.4572ZM97.4437 28.1658C97.9918 28.1658 98.3986 27.9829 98.6655 27.6172C98.9317 27.2515 99.0652 26.7792 99.0652 26.2001C99.0652 25.602 98.9296 25.1258 98.6598 24.7715C98.3893 24.4134 97.984 24.2344 97.4437 24.2344C97.0741 24.2344 96.77 24.3182 96.5302 24.4858C96.294 24.6496 96.1192 24.8801 96.005 25.1772C95.8908 25.4706 95.8337 25.8115 95.8337 26.2001C95.8337 26.7982 95.9686 27.2763 96.2391 27.6344C96.5131 27.9887 96.9142 28.1658 97.4437 28.1658ZM102.087 29.2858V23.0172C102.087 22.861 102.093 22.6896 102.104 22.5029C102.115 22.3124 102.148 22.1239 102.201 21.9372C102.255 21.7506 102.352 21.581 102.492 21.4287C102.668 21.2344 102.856 21.101 103.057 21.0287C103.263 20.9524 103.465 20.9106 103.663 20.9029C103.861 20.8915 104.034 20.8858 104.182 20.8858H104.953V22.0058H104.239C103.977 22.0058 103.781 22.0724 103.651 22.2058C103.526 22.3353 103.463 22.5067 103.463 22.7201V29.2858H102.087ZM101.093 24.1944V23.1144H104.953V24.1944H101.093ZM107.195 29.4572C106.749 29.4572 106.372 29.3734 106.064 29.2058C105.756 29.0344 105.522 28.8077 105.362 28.5258C105.206 28.2439 105.128 27.9334 105.128 27.5944C105.128 27.2972 105.177 27.0306 105.276 26.7944C105.375 26.5544 105.527 26.3487 105.733 26.1772C105.938 26.002 106.205 25.8592 106.532 25.7487C106.78 25.6687 107.069 25.5963 107.4 25.5315C107.735 25.4667 108.097 25.4077 108.485 25.3544C108.877 25.2972 109.286 25.2363 109.712 25.1715L109.221 25.4515C109.225 25.0249 109.13 24.7106 108.936 24.5087C108.742 24.3067 108.414 24.2058 107.954 24.2058C107.676 24.2058 107.408 24.2706 107.149 24.4001C106.89 24.5296 106.709 24.7524 106.606 25.0687L105.35 24.6744C105.502 24.1524 105.792 23.7334 106.218 23.4172C106.649 23.101 107.227 22.9429 107.954 22.9429C108.502 22.9429 108.984 23.0324 109.398 23.2115C109.817 23.3906 110.127 23.6839 110.329 24.0915C110.44 24.3087 110.506 24.5315 110.529 24.7601C110.552 24.9849 110.563 25.2306 110.563 25.4972V29.2858H109.358V27.9487L109.558 28.1658C109.281 28.6115 108.955 28.9392 108.582 29.1487C108.213 29.3544 107.75 29.4572 107.195 29.4572ZM107.469 28.3601C107.78 28.3601 108.047 28.3049 108.268 28.1944C108.488 28.0839 108.664 27.9487 108.793 27.7887C108.927 27.6287 109.016 27.4782 109.062 27.3372C109.134 27.162 109.174 26.962 109.181 26.7372C109.193 26.5087 109.199 26.3239 109.199 26.1829L109.621 26.3087C109.206 26.3734 108.85 26.4306 108.553 26.4801C108.256 26.5296 108.002 26.5772 107.788 26.6229C107.575 26.6649 107.387 26.7124 107.223 26.7658C107.063 26.8229 106.928 26.8896 106.818 26.9658C106.707 27.042 106.621 27.1296 106.561 27.2287C106.504 27.3277 106.475 27.4439 106.475 27.5772C106.475 27.7296 106.513 27.8649 106.589 27.9829C106.666 28.0972 106.776 28.1887 106.921 28.2572C107.069 28.3258 107.252 28.3601 107.469 28.3601ZM111.25 29.2858V29.0972L114.516 24.3201H111.581V23.1144H116.657V23.3087L113.403 28.0801H116.52V29.2858H111.25ZM119.947 29.4572C119.33 29.4572 118.792 29.3182 118.331 29.0401C117.871 28.762 117.513 28.3792 117.258 27.8915C117.007 27.4001 116.881 26.8363 116.881 26.2001C116.881 25.5524 117.011 24.9849 117.269 24.4972C117.528 24.0096 117.888 23.6287 118.348 23.3544C118.809 23.0801 119.342 22.9429 119.947 22.9429C120.568 22.9429 121.108 23.082 121.568 23.3601C122.03 23.6382 122.387 24.0229 122.642 24.5144C122.897 25.002 123.024 25.5639 123.024 26.2001C123.024 26.8401 122.895 27.4058 122.636 27.8972C122.381 28.3849 122.024 28.7677 121.563 29.0458C121.102 29.3201 120.564 29.4572 119.947 29.4572ZM119.947 28.1658C120.495 28.1658 120.903 27.9829 121.169 27.6172C121.436 27.2515 121.568 26.7792 121.568 26.2001C121.568 25.602 121.434 25.1258 121.163 24.7715C120.893 24.4134 120.488 24.2344 119.947 24.2344C119.578 24.2344 119.273 24.3182 119.034 24.4858C118.798 24.6496 118.622 24.8801 118.508 25.1772C118.394 25.4706 118.337 25.8115 118.337 26.2001C118.337 26.7982 118.473 27.2763 118.742 27.6344C119.016 27.9887 119.418 28.1658 119.947 28.1658ZM125.144 29.2858L123.26 23.1029L124.607 23.1144L125.812 27.0744L127.034 23.1144H128.193L129.409 27.0744L130.619 23.1144H131.967L130.083 29.2858H129.009L127.61 25.0401L126.217 29.2858H125.144ZM134.148 29.4572C133.702 29.4572 133.325 29.3734 133.017 29.2058C132.709 29.0344 132.475 28.8077 132.315 28.5258C132.159 28.2439 132.081 27.9334 132.081 27.5944C132.081 27.2972 132.13 27.0306 132.229 26.7944C132.328 26.5544 132.48 26.3487 132.686 26.1772C132.892 26.002 133.158 25.8592 133.485 25.7487C133.732 25.6687 134.022 25.5963 134.353 25.5315C134.688 25.4667 135.05 25.4077 135.438 25.3544C135.83 25.2972 136.239 25.2363 136.665 25.1715L136.174 25.4515C136.178 25.0249 136.083 24.7106 135.889 24.5087C135.695 24.3067 135.367 24.2058 134.907 24.2058C134.629 24.2058 134.36 24.2706 134.102 24.4001C133.843 24.5296 133.662 24.7524 133.56 25.0687L132.303 24.6744C132.455 24.1524 132.745 23.7334 133.171 23.4172C133.601 23.101 134.18 22.9429 134.907 22.9429C135.455 22.9429 135.936 23.0324 136.351 23.2115C136.77 23.3906 137.08 23.6839 137.282 24.0915C137.392 24.3087 137.459 24.5315 137.482 24.7601C137.505 24.9849 137.516 25.2306 137.516 25.4972V29.2858H136.311V27.9487L136.511 28.1658C136.233 28.6115 135.907 28.9392 135.535 29.1487C135.165 29.3544 134.703 29.4572 134.148 29.4572ZM134.422 28.3601C134.733 28.3601 135 28.3049 135.221 28.1944C135.441 28.0839 135.616 27.9487 135.746 27.7887C135.879 27.6287 135.969 27.4782 136.015 27.3372C136.087 27.162 136.127 26.962 136.134 26.7372C136.146 26.5087 136.152 26.3239 136.152 26.1829L136.574 26.3087C136.159 26.3734 135.803 26.4306 135.506 26.4801C135.21 26.5296 134.954 26.5772 134.741 26.6229C134.528 26.6649 134.34 26.7124 134.176 26.7658C134.016 26.8229 133.881 26.8896 133.771 26.9658C133.66 27.042 133.575 27.1296 133.514 27.2287C133.457 27.3277 133.428 27.4439 133.428 27.5772C133.428 27.7296 133.466 27.8649 133.542 27.9829C133.618 28.0972 133.729 28.1887 133.874 28.2572C134.022 28.3258 134.205 28.3601 134.422 28.3601Z" fill="white"/>
<mask id="mask0_2667_21706" style="mask-type:luminance" maskUnits="userSpaceOnUse" x="20" y="45" width="130" height="45">
<path d="M149.887 45H20V90H149.887V45Z" fill="white"/>
<path d="M20 45.7144H149.887V90.0001H20V45.7144Z" fill="black"/>
</mask>
<g mask="url(#mask0_2667_21706)">
<path d="M20 45.7143V46.4286H149.887V45.7143V45H20V45.7143Z" fill="#747DA1"/>
</g>
<path d="M47.8325 72.1429V70.5486H43.9844V69.7486L46.7363 63.9144H47.6783L44.9264 69.7486H47.8325V67.3486H48.6774V69.7486H49.5738V70.5486H48.6774V72.1429H47.8325ZM53.5743 72.3144C52.9995 72.3144 52.4819 72.2193 52.0213 72.0286C51.5646 71.8343 51.1858 71.5601 50.8852 71.2058C50.5883 70.8515 50.3942 70.4306 50.3028 69.9429L51.1592 69.8001C51.2962 70.3334 51.5855 70.7524 52.027 71.0572C52.4685 71.3581 52.9957 71.5086 53.6085 71.5086C54.012 71.5086 54.3736 71.4458 54.6933 71.3201C55.013 71.1906 55.2642 71.0077 55.4469 70.7715C55.6296 70.5353 55.721 70.2553 55.721 69.9315C55.721 69.7181 55.6829 69.5372 55.6068 69.3886C55.5306 69.2363 55.4298 69.1106 55.3042 69.0115C55.1786 68.9124 55.0416 68.8306 54.8931 68.7658C54.7447 68.6972 54.6 68.642 54.4592 68.6001L52.3753 67.9772C52.1241 67.9049 51.8919 67.8134 51.6788 67.7029C51.4656 67.5886 51.2791 67.4534 51.1192 67.2972C50.9632 67.1372 50.8413 66.9506 50.7539 66.7372C50.6663 66.5238 50.6225 66.2801 50.6225 66.0058C50.6225 65.541 50.7443 65.1391 50.9879 64.8001C51.2315 64.461 51.5646 64.2001 51.9871 64.0172C52.4096 63.8344 52.891 63.7449 53.4315 63.7486C53.9796 63.7486 54.4687 63.8458 54.8988 64.0401C55.3327 64.2343 55.6905 64.5124 55.9722 64.8743C56.2538 65.2324 56.4403 65.6572 56.5317 66.1486L55.6525 66.3086C55.5954 65.9506 55.464 65.6401 55.2585 65.3772C55.053 65.1144 54.7903 64.9124 54.4706 64.7715C54.1547 64.6267 53.8064 64.5524 53.4258 64.5486C53.0566 64.5486 52.7274 64.6115 52.4381 64.7372C52.1526 64.8591 51.9261 65.0267 51.7587 65.2401C51.5912 65.4534 51.5075 65.6972 51.5075 65.9715C51.5075 66.2496 51.5836 66.4724 51.7359 66.6401C51.8919 66.8077 52.0822 66.9391 52.3068 67.0344C52.5352 67.1296 52.7559 67.2077 52.9691 67.2686L54.5791 67.7429C54.7465 67.7886 54.9426 67.8553 55.1672 67.9429C55.3955 68.0267 55.6163 68.1486 55.8294 68.3086C56.0464 68.4649 56.2252 68.6706 56.3661 68.9258C56.5069 69.181 56.5774 69.5049 56.5774 69.8972C56.5774 70.2781 56.5012 70.6191 56.349 70.9201C56.2006 71.221 55.9893 71.4743 55.7153 71.6801C55.445 71.8858 55.1272 72.0422 54.7618 72.1486C54.4002 72.2594 54.0043 72.3144 53.5743 72.3144ZM57.5275 72.1429V63.9144H60.7019C60.7818 63.9144 60.8713 63.9181 60.9702 63.9258C61.073 63.9296 61.1757 63.941 61.2785 63.9601C61.7086 64.0248 62.0721 64.1753 62.369 64.4115C62.6697 64.6439 62.8962 64.9372 63.0484 65.2915C63.2045 65.6458 63.2825 66.0381 63.2825 66.4686C63.2825 67.0896 63.1188 67.6286 62.7915 68.0858C62.4642 68.5429 61.996 68.8306 61.387 68.9486L61.0958 69.0172H58.3667V72.1429H57.5275ZM62.506 72.1429L60.8846 68.7943L61.6896 68.4858L63.4709 72.1429H62.506ZM58.3667 68.2172H60.679C60.7475 68.2172 60.8275 68.2134 60.9188 68.2058C61.0102 68.1981 61.0997 68.1849 61.1871 68.1658C61.4688 68.1049 61.6991 67.9886 61.878 67.8172C62.0607 67.6458 62.1958 67.442 62.2833 67.2058C62.3747 66.9696 62.4204 66.7239 62.4204 66.4686C62.4204 66.2134 62.3747 65.9677 62.2833 65.7315C62.1958 65.4915 62.0607 65.2858 61.878 65.1144C61.6991 64.9429 61.4688 64.8267 61.1871 64.7658C61.0997 64.7467 61.0102 64.7353 60.9188 64.7315C60.8275 64.7239 60.7475 64.7201 60.679 64.7201H58.3667V68.2172ZM71.8563 72.1429L71.862 68.0915C71.862 67.6153 71.7288 67.242 71.4624 66.9715C71.1997 66.6972 70.8648 66.5601 70.4575 66.5601C70.2254 66.5601 69.9989 66.6134 69.7781 66.7201C69.5574 66.8267 69.3747 66.9981 69.23 67.2343C69.0892 67.4706 69.0188 67.7791 69.0188 68.1601L68.5221 68.0172C68.5106 67.5753 68.5963 67.1886 68.779 66.8572C68.9655 66.5258 69.2205 66.2686 69.544 66.0858C69.8714 65.8991 70.2406 65.8058 70.6516 65.8058C71.272 65.8058 71.7687 65.9981 72.1418 66.3829C72.5148 66.7638 72.7013 67.2801 72.7013 67.9315L72.6956 72.1429H71.8563ZM64.497 72.1429V65.9715H65.2506V67.4915H65.342V72.1429H64.497ZM68.1852 72.1429L68.1909 68.1486C68.1909 67.6572 68.0596 67.2706 67.797 66.9886C67.5381 66.7029 67.1956 66.5601 66.7693 66.5601C66.343 66.5601 65.9985 66.7067 65.7359 67.0001C65.4733 67.2896 65.342 67.6763 65.342 68.1601L64.8396 67.8858C64.8396 67.4896 64.9328 67.1353 65.1193 66.8229C65.3058 66.5067 65.5609 66.2591 65.8844 66.0801C66.2079 65.8972 66.5752 65.8058 66.9863 65.8058C67.3783 65.8058 67.7265 65.8896 68.0311 66.0572C68.3394 66.2249 68.5811 66.4686 68.7561 66.7886C68.9312 67.1086 69.0188 67.4972 69.0188 67.9544L69.0131 72.1429H68.1852ZM75.7826 72.1372L75.7883 71.3715L79.5051 68.0115C79.8248 67.722 80.0361 67.4477 80.1388 67.1886C80.2454 66.9258 80.2987 66.6515 80.2987 66.3658C80.2987 66.0267 80.2188 65.7201 80.0589 65.4458C79.899 65.1715 79.684 64.9543 79.4138 64.7943C79.1435 64.6306 78.8409 64.5486 78.506 64.5486C78.1558 64.5486 77.8437 64.6324 77.5696 64.8001C77.2956 64.9677 77.0786 65.1886 76.9188 65.4629C76.7627 65.7372 76.6866 66.0363 76.6904 66.3601H75.834C75.834 65.861 75.952 65.4134 76.188 65.0172C76.424 64.621 76.7437 64.3106 77.1471 64.0858C77.5506 63.8572 78.0073 63.7429 78.5174 63.7429C79.016 63.7429 79.4632 63.861 79.8591 64.0972C80.2587 64.3296 80.5727 64.6458 80.8011 65.0458C81.0333 65.442 81.1494 65.8838 81.1494 66.3715C81.1494 66.7143 81.1075 67.0172 81.0238 67.2801C80.9439 67.5391 80.8163 67.781 80.6413 68.0058C80.47 68.2267 80.2511 68.4553 79.9847 68.6915L76.6847 71.6744L76.5534 71.3315H81.1494V72.1372H75.7826ZM84.373 63.9144H85.2351L83.0427 72.1429H82.1806L84.373 63.9144ZM87.9264 72.1429V64.8515L86.3792 65.7829V64.8401L87.9264 63.9144H88.7771V72.1429H87.9264ZM90.4859 72.1372L90.4916 71.3715L94.2082 68.0115C94.5279 67.722 94.7392 67.4477 94.8419 67.1886C94.949 66.9258 95.0018 66.6515 95.0018 66.3658C95.0018 66.0267 94.9219 65.7201 94.762 65.4458C94.6021 65.1715 94.3873 64.9543 94.1168 64.7943C93.8471 64.6306 93.5445 64.5486 93.2091 64.5486C92.8594 64.5486 92.5468 64.6324 92.2727 64.8001C91.9987 64.9677 91.7817 65.1886 91.6219 65.4629C91.4663 65.7372 91.3899 66.0363 91.3935 66.3601H90.5373C90.5373 65.861 90.6553 65.4134 90.8913 65.0172C91.1273 64.621 91.447 64.3106 91.8502 64.0858C92.2542 63.8572 92.7109 63.7429 93.2205 63.7429C93.7193 63.7429 94.1668 63.861 94.5622 64.0972C94.9618 64.3296 95.2758 64.6458 95.5042 65.0458C95.7369 65.442 95.8525 65.8838 95.8525 66.3715C95.8525 66.7143 95.8111 67.0172 95.7269 67.2801C95.6469 67.5391 95.5199 67.781 95.3443 68.0058C95.1731 68.2267 94.9547 68.4553 94.6878 68.6915L91.3878 71.6744L91.2567 71.3315H95.8525V72.1372H90.4859ZM96.8837 68.9029V68.1829H100.309V68.9029H96.8837ZM104.419 72.3144C103.845 72.3144 103.327 72.2193 102.866 72.0286C102.41 71.8343 102.031 71.5601 101.73 71.2058C101.433 70.8515 101.239 70.4306 101.148 69.9429L102.004 69.8001C102.141 70.3334 102.43 70.7524 102.872 71.0572C103.314 71.3581 103.841 71.5086 104.454 71.5086C104.857 71.5086 105.219 71.4458 105.538 71.3201C105.858 71.1906 106.109 71.0077 106.292 70.7715C106.475 70.5353 106.566 70.2553 106.566 69.9315C106.566 69.7181 106.528 69.5372 106.452 69.3886C106.375 69.2363 106.275 69.1106 106.149 69.0115C106.024 68.9124 105.887 68.8306 105.738 68.7658C105.59 68.6972 105.445 68.642 105.304 68.6001L103.22 67.9772C102.969 67.9049 102.737 67.8134 102.524 67.7029C102.31 67.5886 102.124 67.4534 101.964 67.2972C101.808 67.1372 101.687 66.9506 101.599 66.7372C101.511 66.5238 101.468 66.2801 101.468 66.0058C101.468 65.541 101.59 65.1391 101.833 64.8001C102.076 64.461 102.41 64.2001 102.832 64.0172C103.255 63.8344 103.736 63.7449 104.277 63.7486C104.825 63.7486 105.314 63.8458 105.744 64.0401C106.178 64.2343 106.535 64.5124 106.817 64.8743C107.099 65.2324 107.285 65.6572 107.377 66.1486L106.498 66.3086C106.44 65.9506 106.309 65.6401 106.104 65.3772C105.898 65.1144 105.635 64.9124 105.316 64.7715C105 64.6267 104.651 64.5524 104.271 64.5486C103.902 64.5486 103.572 64.6115 103.283 64.7372C102.998 64.8591 102.771 65.0267 102.604 65.2401C102.436 65.4534 102.353 65.6972 102.353 65.9715C102.353 66.2496 102.429 66.4724 102.581 66.6401C102.737 66.8077 102.927 66.9391 103.152 67.0344C103.38 67.1296 103.601 67.2077 103.814 67.2686L105.424 67.7429C105.592 67.7886 105.787 67.8553 106.012 67.9429C106.241 68.0267 106.461 68.1486 106.675 68.3086C106.891 68.4649 107.071 68.6706 107.211 68.9258C107.352 69.181 107.422 69.5049 107.422 69.8972C107.422 70.2781 107.346 70.6191 107.194 70.9201C107.046 71.221 106.834 71.4743 106.56 71.6801C106.29 71.8858 105.972 72.0422 105.607 72.1486C105.245 72.2594 104.85 72.3144 104.419 72.3144ZM108.258 68.3886V67.6686H111.684V68.3886H108.258ZM112.939 72.1429V63.9144H116.113C116.193 63.9144 116.283 63.9181 116.382 63.9258C116.485 63.9296 116.587 63.941 116.69 63.9601C117.12 64.0248 117.484 64.1753 117.781 64.4115C118.082 64.6439 118.308 64.9372 118.46 65.2915C118.616 65.6458 118.694 66.0381 118.694 66.4686C118.694 66.8953 118.616 67.2858 118.46 67.6401C118.304 67.9944 118.076 68.2896 117.775 68.5258C117.478 68.7581 117.117 68.9067 116.69 68.9715C116.587 68.9867 116.485 68.9981 116.382 69.0058C116.283 69.0134 116.193 69.0172 116.113 69.0172H113.778V72.1429H112.939ZM113.778 68.2172H116.091C116.159 68.2172 116.239 68.2134 116.33 68.2058C116.422 68.1981 116.512 68.1849 116.599 68.1658C116.881 68.1049 117.111 67.9886 117.29 67.8172C117.472 67.6458 117.608 67.442 117.695 67.2058C117.786 66.9696 117.832 66.7239 117.832 66.4686C117.832 66.2134 117.786 65.9677 117.695 65.7315C117.608 65.4915 117.472 65.2858 117.29 65.1144C117.111 64.9429 116.881 64.8267 116.599 64.7658C116.512 64.7467 116.422 64.7353 116.33 64.7315C116.239 64.7239 116.159 64.7201 116.091 64.7201H113.778V68.2172ZM119.602 72.1429V63.9144H122.097C122.185 63.9144 122.333 63.9163 122.542 63.9201C122.756 63.9238 122.959 63.9391 123.153 63.9658C123.778 64.0534 124.299 64.2858 124.717 64.6629C125.136 65.0401 125.45 65.5201 125.659 66.1029C125.869 66.6858 125.973 67.3277 125.973 68.0286C125.973 68.7296 125.869 69.3715 125.659 69.9543C125.45 70.5372 125.136 71.0172 124.717 71.3944C124.299 71.7715 123.778 72.0036 123.153 72.0915C122.963 72.1144 122.759 72.1293 122.542 72.1372C122.325 72.1408 122.177 72.1429 122.097 72.1429H119.602ZM120.47 71.3372H122.097C122.253 71.3372 122.421 71.3334 122.599 71.3258C122.782 71.3144 122.938 71.2953 123.067 71.2686C123.547 71.1849 123.934 70.9906 124.226 70.6858C124.523 70.381 124.74 70.0001 124.877 69.5429C125.014 69.082 125.083 68.5772 125.083 68.0286C125.083 67.4763 125.014 66.9696 124.877 66.5086C124.74 66.0477 124.523 65.6667 124.226 65.3658C123.93 65.0649 123.543 64.8724 123.067 64.7886C122.938 64.762 122.781 64.7449 122.594 64.7372C122.411 64.7258 122.245 64.7201 122.097 64.7201H120.47V71.3372Z" fill="white" fill-opacity="0.8"/>
<mask id="mask1_2667_21706" style="mask-type:luminance" maskUnits="userSpaceOnUse" x="149" y="0" width="68" height="90">
<path d="M216.971 0.714355H149.887V90.0001H216.971V0.714355Z" fill="white"/>
<path d="M150.602 0.714355H216.259V90.0001H150.602V0.714355Z" fill="black"/>
</mask>
<g mask="url(#mask1_2667_21706)">
<path d="M216.258 0.714355H215.544V90.0001H216.258H216.971V0.714355H216.258ZM150.6 90.0001H151.314V0.714355H150.6H149.887V90.0001H150.6Z" fill="#747DA1"/>
</g>
<path d="M159.984 20V11.7715H161.223L164.067 17.6L166.91 11.7715H168.149V20H166.864V14.7257L164.341 20H163.792L161.275 14.7257V20H159.984ZM172.247 20.1715C171.631 20.1715 171.093 20.0324 170.632 19.7543C170.171 19.4762 169.814 19.0934 169.558 18.6057C169.307 18.1143 169.181 17.5505 169.181 16.9143C169.181 16.2667 169.311 15.6991 169.57 15.2115C169.829 14.7238 170.188 14.3429 170.649 14.0686C171.11 13.7943 171.642 13.6572 172.247 13.6572C172.868 13.6572 173.408 13.7962 173.869 14.0743C174.33 14.3524 174.687 14.7372 174.942 15.2286C175.198 15.7162 175.325 16.2781 175.325 16.9143C175.325 17.5543 175.195 18.12 174.936 18.6115C174.682 19.0991 174.324 19.482 173.863 19.76C173.403 20.0343 172.864 20.1715 172.247 20.1715ZM172.247 18.88C172.795 18.88 173.203 18.6972 173.469 18.3315C173.736 17.9657 173.869 17.4934 173.869 16.9143C173.869 16.3162 173.734 15.84 173.463 15.4857C173.194 15.1277 172.788 14.9486 172.247 14.9486C171.878 14.9486 171.574 15.0324 171.334 15.2C171.098 15.3638 170.923 15.5943 170.809 15.8915C170.694 16.1848 170.637 16.5257 170.637 16.9143C170.637 17.5124 170.773 17.9905 171.043 18.3486C171.317 18.7029 171.718 18.88 172.247 18.88ZM179.032 20.1715C178.396 20.1715 177.854 20.0305 177.405 19.7486C176.956 19.4629 176.611 19.0743 176.372 18.5829C176.135 18.0915 176.015 17.5352 176.012 16.9143C176.015 16.282 176.14 15.722 176.383 15.2343C176.631 14.7429 176.98 14.3581 177.434 14.08C177.887 13.7981 178.425 13.6572 179.049 13.6572C179.749 13.6572 180.342 13.8343 180.825 14.1886C181.312 14.5391 181.63 15.0191 181.778 15.6286L180.408 16C180.302 15.6686 180.125 15.4115 179.877 15.2286C179.629 15.042 179.348 14.9486 179.032 14.9486C178.675 14.9486 178.379 15.0343 178.147 15.2057C177.915 15.3734 177.744 15.6057 177.633 15.9029C177.523 16.2 177.468 16.5372 177.468 16.9143C177.468 17.501 177.599 17.9752 177.862 18.3372C178.124 18.6991 178.515 18.88 179.032 18.88C179.398 18.88 179.685 18.7962 179.894 18.6286C180.108 18.461 180.267 18.2191 180.374 17.9029L181.778 18.2172C181.588 18.8457 181.255 19.3295 180.779 19.6686C180.303 20.0038 179.721 20.1715 179.032 20.1715ZM187.64 22.1772C187.195 21.6591 186.815 21.0724 186.499 20.4172C186.183 19.7657 185.943 19.082 185.779 18.3657C185.616 17.6495 185.539 16.9372 185.551 16.2286C185.539 15.52 185.616 14.8077 185.779 14.0915C185.943 13.3715 186.183 12.6857 186.499 12.0343C186.815 11.3829 187.195 10.7981 187.64 10.28L188.657 11.0343C188.2 11.5867 187.834 12.1448 187.56 12.7086C187.291 13.2724 187.097 13.8477 186.978 14.4343C186.86 15.0172 186.8 15.6152 186.795 16.2286C186.8 16.842 186.86 17.442 186.978 18.0286C187.1 18.6115 187.296 19.1867 187.566 19.7543C187.837 20.3181 188.2 20.8724 188.657 21.4172L187.64 22.1772ZM189.697 20V11.7715H193.094C193.174 11.7715 193.277 11.7752 193.403 11.7829C193.528 11.7867 193.644 11.7981 193.751 11.8172C194.227 11.8895 194.619 12.0477 194.927 12.2915C195.239 12.5352 195.469 12.8438 195.618 13.2172C195.77 13.5867 195.846 13.9981 195.846 14.4515C195.846 14.901 195.77 15.3124 195.618 15.6857C195.466 16.0552 195.234 16.362 194.921 16.6057C194.613 16.8495 194.223 17.0077 193.751 17.08C193.644 17.0952 193.527 17.1067 193.397 17.1143C193.271 17.122 193.171 17.1257 193.094 17.1257H191.073V20H189.697ZM191.073 15.84H193.037C193.113 15.84 193.199 15.8362 193.294 15.8286C193.39 15.821 193.477 15.8057 193.557 15.7829C193.785 15.7257 193.964 15.6248 194.093 15.48C194.227 15.3352 194.32 15.1715 194.373 14.9886C194.43 14.8057 194.459 14.6267 194.459 14.4515C194.459 14.2762 194.43 14.0972 194.373 13.9143C194.32 13.7277 194.227 13.562 194.093 13.4172C193.964 13.2724 193.785 13.1715 193.557 13.1143C193.477 13.0915 193.39 13.0781 193.294 13.0743C193.199 13.0667 193.113 13.0629 193.037 13.0629H191.073V15.84ZM196.533 20V19.2229L198.726 17.2686C198.893 17.1162 199.009 16.9734 199.074 16.84C199.143 16.7067 199.177 16.581 199.177 16.4629C199.177 16.2077 199.099 15.9962 198.943 15.8286C198.791 15.661 198.589 15.5772 198.338 15.5772C198.163 15.5772 198.009 15.6172 197.875 15.6972C197.742 15.7772 197.637 15.8838 197.561 16.0172C197.485 16.1505 197.45 16.2952 197.458 16.4515H196.539C196.539 16.1048 196.615 15.8038 196.767 15.5486C196.919 15.2934 197.133 15.0952 197.407 14.9543C197.681 14.8134 197.997 14.7429 198.355 14.7429C198.686 14.7429 198.983 14.8172 199.245 14.9657C199.508 15.1105 199.716 15.3143 199.868 15.5772C200.02 15.8362 200.096 16.1352 200.096 16.4743C200.096 16.722 200.062 16.9295 199.993 17.0972C199.925 17.261 199.822 17.4134 199.685 17.5543C199.551 17.6952 199.386 17.8515 199.188 18.0229L197.647 19.4L197.555 19.16H200.096V20H196.533ZM201.924 22.1772L200.908 21.4172C201.365 20.8724 201.728 20.3181 201.999 19.7543C202.269 19.1867 202.463 18.6115 202.581 18.0286C202.703 17.442 202.766 16.842 202.769 16.2286C202.766 15.6152 202.704 15.0172 202.587 14.4343C202.469 13.8477 202.273 13.2724 201.999 12.7086C201.728 12.1448 201.365 11.5867 200.908 11.0343L201.924 10.28C202.37 10.7981 202.75 11.3829 203.066 12.0343C203.382 12.6857 203.622 13.3715 203.786 14.0915C203.949 14.8077 204.025 15.52 204.014 16.2286C204.025 16.9372 203.949 17.6495 203.786 18.3657C203.622 19.082 203.382 19.7657 203.066 20.4172C202.75 21.0724 202.37 21.6591 201.924 22.1772ZM175.689 36.4286L175.7 28.2H177.093V33.2286L179.348 30.2572H181.067L178.675 33.3429L181.272 36.4286H179.451L177.093 33.4572V36.4286H175.689ZM183.351 36.4286L180.948 28.2H182.392L184.031 34.1429L185.664 28.2115L187.108 28.2L188.747 34.1429L190.379 28.2H191.824L189.426 36.4286H188.067L186.383 30.5772L184.71 36.4286H183.351Z" fill="white"/>
<mask id="mask2_2667_21706" style="mask-type:luminance" maskUnits="userSpaceOnUse" x="150" y="45" width="67" height="45">
<path d="M216.259 45H150.602V90H216.259V45Z" fill="white"/>
<path d="M150.602 45.7144H216.259V90.0001H150.602V45.7144Z" fill="black"/>
</mask>
<g mask="url(#mask2_2667_21706)">
<path d="M150.602 45.7143V46.4286H216.259V45.7143V45H150.602V45.7143Z" fill="#747DA1"/>
</g>
<path d="M176.16 72.3144C175.654 72.3144 175.197 72.1965 174.79 71.9601C174.386 71.7236 174.067 71.4039 173.831 71.0001C173.594 70.5924 173.477 70.1353 173.477 69.6286V66.4286C173.477 65.922 173.594 65.4667 173.831 65.0629C174.067 64.6553 174.386 64.3334 174.79 64.0972C175.197 63.861 175.654 63.7429 176.16 63.7429C176.666 63.7429 177.121 63.861 177.524 64.0972C177.932 64.3334 178.253 64.6553 178.489 65.0629C178.726 65.4667 178.843 65.922 178.843 66.4286V69.6286C178.843 70.1353 178.726 70.5924 178.489 71.0001C178.253 71.4039 177.932 71.7236 177.524 71.9601C177.121 72.1965 176.666 72.3144 176.16 72.3144ZM176.16 71.5029C176.499 71.5029 176.807 71.421 177.085 71.2572C177.362 71.0896 177.584 70.8667 177.747 70.5886C177.911 70.3106 177.993 70.0039 177.993 69.6686V66.3886C177.993 66.0496 177.911 65.741 177.747 65.4629C177.584 65.1849 177.362 64.9639 177.085 64.8001C176.807 64.6324 176.499 64.5486 176.16 64.5486C175.821 64.5486 175.513 64.6324 175.235 64.8001C174.957 64.9639 174.736 65.1849 174.573 65.4629C174.409 65.741 174.327 66.0496 174.327 66.3886V69.6686C174.327 70.0039 174.409 70.3106 174.573 70.5886C174.736 70.8667 174.957 71.0896 175.235 71.2572C175.513 71.421 175.821 71.5029 176.16 71.5029ZM180.378 72.1429V71.1658H181.354V72.1429H180.378ZM183.328 72.1429L186.354 64.7315H182.546V63.9144H187.25V64.7315L184.23 72.1429H183.328ZM190.819 72.3144C190.392 72.3144 189.998 72.2265 189.637 72.0515C189.275 71.8765 188.967 71.6344 188.712 71.3258C188.456 71.0172 188.274 70.6629 188.164 70.2629L188.969 70.0458C189.041 70.3429 189.172 70.6001 189.363 70.8172C189.553 71.0306 189.775 71.1963 190.031 71.3143C190.289 71.4322 190.56 71.4915 190.841 71.4915C191.207 71.4915 191.534 71.4039 191.823 71.2286C192.116 71.0496 192.349 70.8134 192.52 70.5201C192.691 70.2267 192.777 69.9049 192.777 69.5544C192.777 69.1924 192.687 68.8667 192.509 68.5772C192.329 68.2839 192.093 68.0515 191.801 67.8801C191.507 67.7086 191.188 67.6229 190.841 67.6229C190.453 67.6229 190.118 67.7086 189.837 67.8801C189.555 68.0477 189.33 68.2591 189.163 68.5143L188.398 68.1944L188.649 63.9144H193.04V64.7201H189.02L189.437 64.3258L189.214 67.9772L189.003 67.6972C189.239 67.4267 189.524 67.2153 189.859 67.0629C190.194 66.9106 190.546 66.8344 190.916 66.8344C191.422 66.8344 191.878 66.9563 192.286 67.2001C192.693 67.4401 193.017 67.7658 193.257 68.1772C193.496 68.5886 193.616 69.0477 193.616 69.5544C193.616 70.0572 193.488 70.5181 193.234 70.9372C192.978 71.3524 192.64 71.6858 192.217 71.9372C191.795 72.1886 191.328 72.3144 190.819 72.3144Z" fill="white" fill-opacity="0.8"/>
<mask id="mask3_2667_21706" style="mask-type:luminance" maskUnits="userSpaceOnUse" x="216" y="0" width="462" height="45">
<path d="M678 0.714355H216.258V45.0001H678V0.714355Z" fill="white"/>
<path d="M216.973 0.714355H678.001V45.0001H216.973V0.714355Z" fill="black"/>
</mask>
<g mask="url(#mask3_2667_21706)">
<path d="M216.971 45.0001H217.685V0.714355H216.971H216.258V45.0001H216.971Z" fill="#747DA1"/>
</g>
<path d="M265.376 19.2858L262.973 11.0572H264.417L266.056 17L267.689 11.0686L269.133 11.0572L270.772 17L272.404 11.0572H273.849L271.451 19.2858H270.092L268.408 13.4343L266.735 19.2858H265.376ZM275.363 22.0286L276.55 18.7658L276.573 19.7258L273.884 13.1143H275.317L277.224 18.0058H276.858L278.714 13.1143H280.09L276.653 22.0286H275.363ZM282.962 19.4572C282.395 19.4572 281.901 19.3143 281.478 19.0286C281.056 18.7429 280.728 18.3543 280.496 17.8629C280.263 17.3715 280.148 16.8172 280.148 16.2C280.148 15.5753 280.263 15.0191 280.496 14.5315C280.732 14.04 281.065 13.6534 281.495 13.3715C281.925 13.0858 282.431 12.9429 283.014 12.9429C283.6 12.9429 284.091 13.0858 284.487 13.3715C284.886 13.6534 285.189 14.04 285.395 14.5315C285.6 15.0229 285.703 15.5791 285.703 16.2C285.703 16.8134 285.6 17.3677 285.395 17.8629C285.189 18.3543 284.882 18.7429 284.475 19.0286C284.068 19.3143 283.563 19.4572 282.962 19.4572ZM283.174 18.2229C283.543 18.2229 283.84 18.1391 284.064 17.9715C284.293 17.8 284.458 17.562 284.561 17.2572C284.667 16.9524 284.721 16.6 284.721 16.2C284.721 15.7963 284.667 15.4438 284.561 15.1429C284.458 14.8381 284.296 14.602 284.076 14.4343C283.855 14.2629 283.569 14.1772 283.219 14.1772C282.85 14.1772 282.546 14.2686 282.306 14.4515C282.066 14.6305 281.889 14.8743 281.775 15.1829C281.661 15.4877 281.604 15.8267 281.604 16.2C281.604 16.5772 281.659 16.92 281.769 17.2286C281.883 17.5334 282.056 17.7753 282.289 17.9543C282.521 18.1334 282.815 18.2229 283.174 18.2229ZM284.721 19.2858V14.9543H284.55V11.0572H285.937V19.2858H284.721ZM289.034 19.4572C288.588 19.4572 288.211 19.3734 287.903 19.2058C287.595 19.0343 287.361 18.8077 287.201 18.5258C287.045 18.2438 286.967 17.9334 286.967 17.5943C286.967 17.2972 287.016 17.0305 287.115 16.7943C287.214 16.5543 287.366 16.3486 287.572 16.1772C287.778 16.002 288.044 15.8591 288.371 15.7486C288.618 15.6686 288.908 15.5963 289.239 15.5315C289.574 15.4667 289.936 15.4077 290.324 15.3543C290.716 15.2972 291.125 15.2363 291.551 15.1715L291.06 15.4515C291.064 15.0248 290.969 14.7105 290.775 14.5086C290.581 14.3067 290.253 14.2058 289.793 14.2058C289.515 14.2058 289.246 14.2705 288.988 14.4C288.729 14.5295 288.548 14.7524 288.446 15.0686L287.189 14.6743C287.342 14.1524 287.631 13.7334 288.057 13.4172C288.487 13.101 289.066 12.9429 289.793 12.9429C290.341 12.9429 290.822 13.0324 291.237 13.2115C291.656 13.3905 291.966 13.6838 292.168 14.0915C292.278 14.3086 292.345 14.5315 292.368 14.76C292.391 14.9848 292.402 15.2305 292.402 15.4972V19.2858H291.197V17.9486L291.397 18.1658C291.119 18.6115 290.793 18.9391 290.421 19.1486C290.051 19.3543 289.589 19.4572 289.034 19.4572ZM289.308 18.36C289.62 18.36 289.886 18.3048 290.107 18.1943C290.327 18.0838 290.502 17.9486 290.632 17.7886C290.765 17.6286 290.855 17.4781 290.901 17.3372C290.973 17.162 291.013 16.962 291.02 16.7372C291.032 16.5086 291.038 16.3238 291.038 16.1829L291.46 16.3086C291.045 16.3734 290.689 16.4305 290.392 16.48C290.096 16.5295 289.84 16.5772 289.627 16.6229C289.414 16.6648 289.226 16.7124 289.062 16.7658C288.902 16.8229 288.767 16.8895 288.657 16.9658C288.546 17.042 288.461 17.1295 288.4 17.2286C288.343 17.3277 288.314 17.4438 288.314 17.5772C288.314 17.7295 288.352 17.8648 288.428 17.9829C288.504 18.0972 288.615 18.1886 288.76 18.2572C288.908 18.3258 289.091 18.36 289.308 18.36ZM292.746 22.0286V20.7372H293.037C293.373 20.7372 293.61 20.6591 293.751 20.5029C293.892 20.3467 293.962 20.1163 293.962 19.8115V13.1143H295.332V20.4286C295.332 20.9277 295.186 21.3181 294.893 21.6C294.604 21.8858 294.201 22.0286 293.682 22.0286H292.746ZM293.962 12.1772V10.9143H295.332V12.1772H293.962ZM300.986 19.2858V16.3143C300.986 16.12 300.973 15.9048 300.946 15.6686C300.919 15.4324 300.856 15.2058 300.758 14.9886C300.662 14.7677 300.518 14.5867 300.324 14.4458C300.133 14.3048 299.874 14.2343 299.547 14.2343C299.372 14.2343 299.199 14.2629 299.028 14.32C298.856 14.3772 298.7 14.4763 298.56 14.6172C298.423 14.7543 298.312 14.9448 298.228 15.1886C298.144 15.4286 298.103 15.7372 298.103 16.1143L297.286 15.7658C297.286 15.24 297.387 14.7638 297.589 14.3372C297.795 13.9105 298.095 13.5715 298.491 13.32C298.886 13.0648 299.374 12.9372 299.953 12.9372C300.409 12.9372 300.786 13.0134 301.083 13.1658C301.38 13.3181 301.616 13.5124 301.791 13.7486C301.966 13.9848 302.095 14.2363 302.179 14.5029C302.263 14.7695 302.316 15.0229 302.339 15.2629C302.366 15.4991 302.379 15.6915 302.379 15.84V19.2858H300.986ZM296.71 19.2858V13.1143H297.937V15.0286H298.103V19.2858H296.71ZM306.264 19.4572C305.647 19.4572 305.108 19.3181 304.648 19.04C304.187 18.762 303.829 18.3791 303.575 17.8915C303.323 17.4 303.198 16.8363 303.198 16.2C303.198 15.5524 303.327 14.9848 303.586 14.4972C303.844 14.0095 304.204 13.6286 304.665 13.3543C305.125 13.08 305.658 12.9429 306.264 12.9429C306.884 12.9429 307.424 13.082 307.885 13.36C308.345 13.6381 308.703 14.0229 308.958 14.5143C309.213 15.002 309.341 15.5638 309.341 16.2C309.341 16.84 309.211 17.4058 308.953 17.8972C308.697 18.3848 308.34 18.7677 307.879 19.0458C307.418 19.32 306.88 19.4572 306.264 19.4572ZM306.264 18.1658C306.812 18.1658 307.219 17.9829 307.485 17.6172C307.752 17.2515 307.885 16.7791 307.885 16.2C307.885 15.602 307.75 15.1258 307.48 14.7715C307.209 14.4134 306.804 14.2343 306.264 14.2343C305.894 14.2343 305.59 14.3181 305.35 14.4858C305.114 14.6495 304.939 14.88 304.825 15.1772C304.711 15.4705 304.654 15.8115 304.654 16.2C304.654 16.7981 304.789 17.2763 305.059 17.6343C305.333 17.9886 305.734 18.1658 306.264 18.1658ZM313.034 12.2286H311.995L312.874 10.1143H313.919L313.034 12.2286ZM312.606 19.4572C311.845 19.4572 311.226 19.2858 310.75 18.9429C310.275 18.6 309.985 18.1181 309.883 17.4972L311.287 17.28C311.36 17.5848 311.52 17.8248 311.767 18C312.014 18.1753 312.326 18.2629 312.703 18.2629C313.034 18.2629 313.29 18.1981 313.468 18.0686C313.651 17.9353 313.742 17.7543 313.742 17.5258C313.742 17.3848 313.708 17.2724 313.639 17.1886C313.575 17.101 313.43 17.0172 313.205 16.9372C312.981 16.8572 312.637 16.7563 312.172 16.6343C311.655 16.4972 311.244 16.3505 310.939 16.1943C310.635 16.0343 310.416 15.8458 310.282 15.6286C310.15 15.4115 310.082 15.1486 310.082 14.84C310.082 14.4553 310.184 14.12 310.385 13.8343C310.587 13.5486 310.869 13.3295 311.23 13.1772C311.592 13.021 312.018 12.9429 312.509 12.9429C312.989 12.9429 313.413 13.0172 313.782 13.1658C314.155 13.3143 314.456 13.5258 314.684 13.8C314.913 14.0743 315.054 14.3963 315.107 14.7658L313.702 15.0172C313.668 14.7543 313.548 14.5467 313.342 14.3943C313.141 14.242 312.871 14.1563 312.532 14.1372C312.208 14.1181 311.948 14.1677 311.75 14.2858C311.552 14.4 311.453 14.562 311.453 14.7715C311.453 14.8895 311.493 14.9905 311.573 15.0743C311.653 15.1581 311.812 15.242 312.052 15.3258C312.296 15.4095 312.657 15.5124 313.137 15.6343C313.628 15.76 314.02 15.9048 314.313 16.0686C314.61 16.2286 314.823 16.421 314.953 16.6458C315.086 16.8705 315.152 17.1429 315.152 17.4629C315.152 18.0838 314.926 18.5715 314.473 18.9258C314.024 19.28 313.402 19.4572 312.606 19.4572ZM319.4 12.2286H318.355L319.235 10.1143H320.279L319.4 12.2286ZM318.852 19.4572C318.217 19.4572 317.674 19.3163 317.225 19.0343C316.776 18.7486 316.431 18.36 316.191 17.8686C315.956 17.3772 315.836 16.821 315.832 16.2C315.836 15.5677 315.96 15.0077 316.203 14.52C316.451 14.0286 316.801 13.6438 317.253 13.3658C317.707 13.0838 318.245 12.9429 318.869 12.9429C319.57 12.9429 320.162 13.12 320.645 13.4743C321.132 13.8248 321.45 14.3048 321.598 14.9143L320.228 15.2858C320.122 14.9543 319.945 14.6972 319.697 14.5143C319.45 14.3277 319.168 14.2343 318.852 14.2343C318.494 14.2343 318.2 14.32 317.967 14.4915C317.735 14.6591 317.564 14.8915 317.453 15.1886C317.343 15.4858 317.288 15.8229 317.288 16.2C317.288 16.7867 317.419 17.261 317.682 17.6229C317.944 17.9848 318.335 18.1658 318.852 18.1658C319.217 18.1658 319.505 18.082 319.714 17.9143C319.928 17.7467 320.087 17.5048 320.194 17.1886L321.598 17.5029C321.408 18.1315 321.075 18.6153 320.599 18.9543C320.124 19.2895 319.541 19.4572 318.852 19.4572ZM327.461 21.12C327.016 20.602 326.635 20.0153 326.319 19.36C326.003 18.7086 325.763 18.0248 325.6 17.3086C325.436 16.5924 325.36 15.88 325.371 15.1715C325.36 14.4629 325.436 13.7505 325.6 13.0343C325.763 12.3143 326.003 11.6286 326.319 10.9772C326.635 10.3258 327.016 9.74097 327.461 9.2229L328.477 9.97719C328.02 10.5295 327.655 11.0877 327.381 11.6515C327.111 12.2153 326.916 12.7905 326.799 13.3772C326.68 13.96 326.62 14.5581 326.616 15.1715C326.62 15.7848 326.68 16.3848 326.799 16.9715C326.92 17.5543 327.116 18.1295 327.387 18.6972C327.656 19.261 328.02 19.8153 328.477 20.36L327.461 21.12ZM335.372 19.4572L333.025 17.12L333.888 16.2572L336.223 18.5943L335.372 19.4572ZM332.415 19.4572C331.592 19.4572 330.889 19.2781 330.302 18.92C329.716 18.5581 329.265 18.0553 328.949 17.4115C328.637 16.7677 328.481 16.021 328.481 15.1715C328.481 14.322 328.637 13.5753 328.949 12.9315C329.265 12.2877 329.716 11.7867 330.302 11.4286C330.889 11.0667 331.592 10.8858 332.415 10.8858C333.237 10.8858 333.941 11.0667 334.527 11.4286C335.117 11.7867 335.568 12.2877 335.88 12.9315C336.196 13.5753 336.354 14.322 336.354 15.1715C336.354 16.021 336.196 16.7677 335.88 17.4115C335.568 18.0553 335.117 18.5581 334.527 18.92C333.941 19.2781 333.237 19.4572 332.415 19.4572ZM332.415 18.16C332.967 18.1638 333.425 18.042 333.79 17.7943C334.16 17.5467 334.436 17.1981 334.618 16.7486C334.805 16.2991 334.898 15.7734 334.898 15.1715C334.898 14.5695 334.805 14.0477 334.618 13.6058C334.436 13.16 334.16 12.8134 333.79 12.5658C333.425 12.3181 332.967 12.1905 332.415 12.1829C331.863 12.1791 331.404 12.301 331.039 12.5486C330.673 12.7963 330.398 13.1448 330.211 13.5943C330.028 14.0438 329.937 14.5695 329.937 15.1715C329.937 15.7734 330.028 16.2972 330.211 16.7429C330.393 17.1848 330.667 17.5295 331.033 17.7772C331.403 18.0248 331.863 18.1524 332.415 18.16ZM337.267 21.12L336.25 20.36C336.707 19.8153 337.071 19.261 337.341 18.6972C337.611 18.1295 337.806 17.5543 337.923 16.9715C338.045 16.3848 338.108 15.7848 338.112 15.1715C338.108 14.5581 338.047 13.96 337.929 13.3772C337.811 12.7905 337.615 12.2153 337.341 11.6515C337.071 11.0877 336.707 10.5295 336.25 9.97719L337.267 9.2229C337.712 9.74097 338.093 10.3258 338.409 10.9772C338.725 11.6286 338.965 12.3143 339.128 13.0343C339.292 13.7505 339.368 14.4629 339.356 15.1715C339.368 15.88 339.292 16.5924 339.128 17.3086C338.965 18.0248 338.725 18.7086 338.409 19.36C338.093 20.0153 337.712 20.602 337.267 21.12ZM289.063 35.7143V27.3143H290.439V35.7143H289.063ZM293.999 27.4858H295.38L293.188 35.7143H291.806L293.999 27.4858ZM303.692 35.7143V31.9658C303.692 31.5429 303.587 31.2134 303.378 30.9772C303.168 30.7372 302.884 30.6172 302.527 30.6172C302.306 30.6172 302.108 30.6686 301.933 30.7715C301.758 30.8705 301.619 31.0191 301.516 31.2172C301.414 31.4115 301.362 31.6438 301.362 31.9143L300.751 31.5543C300.747 31.1277 300.843 30.7524 301.037 30.4286C301.234 30.101 301.501 29.8458 301.836 29.6629C302.171 29.48 302.544 29.3886 302.955 29.3886C303.636 29.3886 304.158 29.5943 304.519 30.0058C304.885 30.4134 305.068 30.9505 305.068 31.6172V35.7143H303.692ZM296.275 35.7143V29.5429H297.491V31.4572H297.663V35.7143H296.275ZM299.992 35.7143V31.9829C299.992 31.5524 299.887 31.2172 299.678 30.9772C299.468 30.7372 299.183 30.6172 298.822 30.6172C298.471 30.6172 298.189 30.7372 297.977 30.9772C297.767 31.2172 297.663 31.5295 297.663 31.9143L297.046 31.5029C297.046 31.1029 297.144 30.7429 297.343 30.4229C297.541 30.1029 297.807 29.8515 298.142 29.6686C298.48 29.482 298.859 29.3886 299.278 29.3886C299.739 29.3886 300.123 29.4877 300.432 29.6858C300.743 29.88 300.975 30.1467 301.128 30.4858C301.284 30.821 301.362 31.2 301.362 31.6229V35.7143H299.992ZM306.442 28.6058V27.3429H307.818V28.6058H306.442ZM306.442 35.7143V29.5429H307.818V35.7143H306.442ZM313.565 35.7143V32.7429C313.565 32.5486 313.552 32.3334 313.525 32.0972C313.498 31.861 313.435 31.6343 313.337 31.4172C313.241 31.1963 313.097 31.0153 312.903 30.8743C312.712 30.7334 312.453 30.6629 312.126 30.6629C311.951 30.6629 311.778 30.6915 311.607 30.7486C311.436 30.8058 311.279 30.9048 311.139 31.0458C311.002 31.1829 310.891 31.3734 310.808 31.6172C310.723 31.8572 310.682 32.1658 310.682 32.5429L309.866 32.1943C309.866 31.6686 309.966 31.1924 310.168 30.7658C310.374 30.3391 310.674 30 311.07 29.7486C311.466 29.4934 311.953 29.3658 312.532 29.3658C312.989 29.3658 313.365 29.442 313.662 29.5943C313.959 29.7467 314.195 29.941 314.37 30.1772C314.545 30.4134 314.674 30.6648 314.758 30.9315C314.842 31.1981 314.895 31.4515 314.918 31.6915C314.945 31.9277 314.958 32.12 314.958 32.2686V35.7143H313.565ZM309.289 35.7143V29.5429H310.516V31.4572H310.682V35.7143H309.289Z" fill="white"/>
<mask id="mask4_2667_21706" style="mask-type:luminance" maskUnits="userSpaceOnUse" x="216" y="45" width="462" height="45">
<path d="M678 45H216.258V90H678V45Z" fill="white"/>
<path d="M216.973 45.7144H678.001V90.0001H216.973V45.7144Z" fill="black"/>
</mask>
<g mask="url(#mask4_2667_21706)">
<path d="M216.971 45.7143V45H216.258V45.7143H216.971ZM216.971 45.7143V46.4286H678V45.7143V45H216.971V45.7143ZM216.971 90H217.685V45.7143H216.971H216.258V90H216.971Z" fill="#747DA1"/>
</g>
<path d="M230.951 64.2858L228.547 56.0572H229.991L231.63 62L233.263 56.0686L234.707 56.0572L236.346 62L237.979 56.0572H239.423L237.025 64.2858H235.666L233.982 58.4343L232.309 64.2858H230.951ZM240.938 67.0286L242.125 63.7658L242.148 64.7258L239.459 58.1143H240.892L242.799 63.0058H242.433L244.289 58.1143H245.665L242.228 67.0286H240.938ZM248.669 64.4572C247.907 64.4572 247.288 64.2858 246.813 63.9429C246.337 63.6 246.048 63.1181 245.945 62.4972L247.35 62.28C247.422 62.5848 247.582 62.8248 247.829 63C248.076 63.1753 248.389 63.2629 248.766 63.2629C249.097 63.2629 249.352 63.1981 249.531 63.0686C249.714 62.9353 249.805 62.7543 249.805 62.5258C249.805 62.3848 249.771 62.2724 249.702 62.1886C249.637 62.101 249.492 62.0172 249.268 61.9372C249.043 61.8572 248.699 61.7563 248.235 61.6343C247.717 61.4972 247.306 61.3505 247.002 61.1943C246.697 61.0343 246.478 60.8458 246.345 60.6286C246.212 60.4115 246.145 60.1486 246.145 59.84C246.145 59.4553 246.246 59.12 246.448 58.8343C246.649 58.5486 246.931 58.3295 247.293 58.1772C247.654 58.021 248.081 57.9429 248.572 57.9429C249.051 57.9429 249.475 58.0172 249.845 58.1658C250.217 58.3143 250.519 58.5258 250.747 58.8C250.975 59.0743 251.116 59.3963 251.169 59.7658L249.765 60.0172C249.731 59.7543 249.611 59.5467 249.405 59.3943C249.203 59.242 248.933 59.1563 248.594 59.1372C248.27 59.1181 248.01 59.1677 247.812 59.2858C247.614 59.4 247.515 59.562 247.515 59.7715C247.515 59.8895 247.555 59.9905 247.635 60.0743C247.715 60.1581 247.875 60.242 248.115 60.3258C248.358 60.4095 248.72 60.5124 249.2 60.6343C249.691 60.76 250.082 60.9048 250.376 61.0686C250.673 61.2286 250.885 61.421 251.015 61.6458C251.148 61.8705 251.215 62.1429 251.215 62.4629C251.215 63.0838 250.988 63.5715 250.536 63.9258C250.086 64.28 249.464 64.4572 248.669 64.4572ZM254.96 64.4572C254.344 64.4572 253.805 64.3181 253.345 64.04C252.884 63.762 252.526 63.3791 252.271 62.8915C252.02 62.4 251.894 61.8363 251.894 61.2C251.894 60.5524 252.024 59.9848 252.283 59.4972C252.542 59.0095 252.901 58.6286 253.362 58.3543C253.822 58.08 254.355 57.9429 254.96 57.9429C255.581 57.9429 256.122 58.082 256.582 58.36C257.042 58.6381 257.4 59.0229 257.655 59.5143C257.91 60.002 258.038 60.5638 258.038 61.2C258.038 61.84 257.909 62.4058 257.649 62.8972C257.395 63.3848 257.036 63.7677 256.576 64.0458C256.116 64.32 255.577 64.4572 254.96 64.4572ZM254.96 63.1658C255.508 63.1658 255.916 62.9829 256.182 62.6172C256.448 62.2515 256.582 61.7791 256.582 61.2C256.582 60.602 256.447 60.1258 256.176 59.7715C255.906 59.4134 255.501 59.2343 254.96 59.2343C254.591 59.2343 254.287 59.3181 254.047 59.4858C253.811 59.6495 253.636 59.88 253.522 60.1772C253.407 60.4705 253.35 60.8115 253.35 61.2C253.35 61.7981 253.485 62.2763 253.756 62.6343C254.03 62.9886 254.432 63.1658 254.96 63.1658ZM259.056 64.2858L259.068 56.0572H260.461V61.0858L262.716 58.1143H264.434L262.042 61.2L264.64 64.2858H262.819L260.461 61.3143V64.2858H259.056ZM267.595 64.4572C266.979 64.4572 266.44 64.3181 265.979 64.04C265.518 63.762 265.161 63.3791 264.906 62.8915C264.655 62.4 264.529 61.8363 264.529 61.2C264.529 60.5524 264.658 59.9848 264.917 59.4972C265.176 59.0095 265.535 58.6286 265.997 58.3543C266.457 58.08 266.99 57.9429 267.595 57.9429C268.215 57.9429 268.756 58.082 269.217 58.36C269.677 58.6381 270.034 59.0229 270.29 59.5143C270.545 60.002 270.672 60.5638 270.672 61.2C270.672 61.84 270.543 62.4058 270.284 62.8972C270.029 63.3848 269.671 63.7677 269.211 64.0458C268.75 64.32 268.212 64.4572 267.595 64.4572ZM267.595 63.1658C268.143 63.1658 268.55 62.9829 268.817 62.6172C269.083 62.2515 269.217 61.7791 269.217 61.2C269.217 60.602 269.081 60.1258 268.811 59.7715C268.541 59.4134 268.135 59.2343 267.595 59.2343C267.225 59.2343 266.921 59.3181 266.682 59.4858C266.445 59.6495 266.271 59.88 266.156 60.1772C266.042 60.4705 265.985 60.8115 265.985 61.2C265.985 61.7981 266.12 62.2763 266.39 62.6343C266.665 62.9886 267.066 63.1658 267.595 63.1658ZM274.366 57.2286H273.327L274.206 55.1143H275.251L274.366 57.2286ZM273.937 64.4572C273.177 64.4572 272.558 64.2858 272.082 63.9429C271.607 63.6 271.317 63.1181 271.214 62.4972L272.619 62.28C272.691 62.5848 272.851 62.8248 273.098 63C273.346 63.1753 273.658 63.2629 274.035 63.2629C274.366 63.2629 274.621 63.1981 274.8 63.0686C274.982 62.9353 275.074 62.7543 275.074 62.5258C275.074 62.3848 275.039 62.2724 274.971 62.1886C274.907 62.101 274.762 62.0172 274.537 61.9372C274.313 61.8572 273.968 61.7563 273.504 61.6343C272.986 61.4972 272.575 61.3505 272.27 61.1943C271.966 61.0343 271.747 60.8458 271.614 60.6286C271.481 60.4115 271.414 60.1486 271.414 59.84C271.414 59.4553 271.515 59.12 271.717 58.8343C271.919 58.5486 272.2 58.3295 272.562 58.1772C272.923 58.021 273.349 57.9429 273.84 57.9429C274.32 57.9429 274.745 58.0172 275.114 58.1658C275.487 58.3143 275.787 58.5258 276.016 58.8C276.244 59.0743 276.385 59.3963 276.438 59.7658L275.034 60.0172C274.999 59.7543 274.88 59.5467 274.674 59.3943C274.473 59.242 274.202 59.1563 273.863 59.1372C273.54 59.1181 273.279 59.1677 273.081 59.2858C272.883 59.4 272.784 59.562 272.784 59.7715C272.784 59.8895 272.824 59.9905 272.904 60.0743C272.984 60.1581 273.144 60.242 273.384 60.3258C273.628 60.4095 273.989 60.5124 274.468 60.6343C274.959 60.76 275.352 60.9048 275.645 61.0686C275.941 61.2286 276.155 61.421 276.284 61.6458C276.417 61.8705 276.484 62.1429 276.484 62.4629C276.484 63.0838 276.258 63.5715 275.804 63.9258C275.356 64.28 274.733 64.4572 273.937 64.4572ZM280.732 57.2286H279.687L280.567 55.1143H281.612L280.732 57.2286ZM280.184 64.4572C279.548 64.4572 279.006 64.3163 278.557 64.0343C278.107 63.7486 277.763 63.36 277.524 62.8686C277.287 62.3772 277.168 61.821 277.164 61.2C277.168 60.5677 277.291 60.0077 277.535 59.52C277.782 59.0286 278.132 58.6438 278.586 58.3658C279.038 58.0838 279.577 57.9429 280.201 57.9429C280.901 57.9429 281.493 58.12 281.977 58.4743C282.464 58.8248 282.782 59.3048 282.93 59.9143L281.56 60.2858C281.453 59.9543 281.276 59.6972 281.029 59.5143C280.782 59.3277 280.5 59.2343 280.184 59.2343C279.826 59.2343 279.531 59.32 279.299 59.4915C279.067 59.6591 278.895 59.8915 278.785 60.1886C278.675 60.4858 278.62 60.8229 278.62 61.2C278.62 61.7867 278.751 62.261 279.014 62.6229C279.276 62.9848 279.666 63.1658 280.184 63.1658C280.55 63.1658 280.836 63.082 281.046 62.9143C281.259 62.7467 281.419 62.5048 281.526 62.1886L282.93 62.5029C282.74 63.1315 282.407 63.6153 281.931 63.9543C281.455 64.2895 280.873 64.4572 280.184 64.4572ZM288.867 64.4572C288.265 64.4572 287.76 64.3143 287.354 64.0286C286.946 63.7429 286.64 63.3543 286.434 62.8629C286.229 62.3677 286.126 61.8134 286.126 61.2C286.126 60.5791 286.229 60.0229 286.434 59.5315C286.64 59.04 286.94 58.6534 287.337 58.3715C287.736 58.0858 288.229 57.9429 288.815 57.9429C289.398 57.9429 289.901 58.0858 290.328 58.3715C290.758 58.6534 291.091 59.04 291.327 59.5315C291.563 60.0191 291.681 60.5753 291.681 61.2C291.681 61.8172 291.565 62.3715 291.333 62.8629C291.1 63.3543 290.774 63.7429 290.351 64.0286C289.929 64.3143 289.433 64.4572 288.867 64.4572ZM285.892 67.0286V58.1143H287.108V62.4458H287.279V67.0286H285.892ZM288.655 63.2229C289.013 63.2229 289.308 63.1334 289.54 62.9543C289.772 62.7753 289.944 62.5334 290.054 62.2286C290.168 61.92 290.225 61.5772 290.225 61.2C290.225 60.8267 290.168 60.4877 290.054 60.1829C289.94 59.8743 289.763 59.6305 289.523 59.4515C289.283 59.2686 288.979 59.1772 288.61 59.1772C288.259 59.1772 287.974 59.2629 287.753 59.4343C287.532 59.602 287.369 59.8381 287.262 60.1429C287.16 60.4438 287.108 60.7963 287.108 61.2C287.108 61.6 287.16 61.9524 287.262 62.2572C287.369 62.562 287.534 62.8 287.759 62.9715C287.987 63.1391 288.286 63.2229 288.655 63.2229ZM295.435 64.4572C294.818 64.4572 294.28 64.3181 293.819 64.04C293.358 63.762 293.001 63.3791 292.745 62.8915C292.494 62.4 292.369 61.8363 292.369 61.2C292.369 60.5524 292.499 59.9848 292.757 59.4972C293.016 59.0095 293.376 58.6286 293.836 58.3543C294.297 58.08 294.829 57.9429 295.435 57.9429C296.055 57.9429 296.596 58.082 297.056 58.36C297.517 58.6381 297.875 59.0229 298.129 59.5143C298.385 60.002 298.512 60.5638 298.512 61.2C298.512 61.84 298.383 62.4058 298.124 62.8972C297.869 63.3848 297.511 63.7677 297.05 64.0458C296.59 64.32 296.051 64.4572 295.435 64.4572ZM295.435 63.1658C295.983 63.1658 296.39 62.9829 296.656 62.6172C296.923 62.2515 297.056 61.7791 297.056 61.2C297.056 60.602 296.921 60.1258 296.651 59.7715C296.381 59.4134 295.975 59.2343 295.435 59.2343C295.066 59.2343 294.761 59.3181 294.521 59.4858C294.286 59.6495 294.11 59.88 293.996 60.1772C293.882 60.4705 293.825 60.8115 293.825 61.2C293.825 61.7981 293.96 62.2763 294.23 62.6343C294.504 62.9886 294.906 63.1658 295.435 63.1658ZM302.014 64.4572C301.446 64.4572 300.952 64.3143 300.529 64.0286C300.107 63.7429 299.779 63.3543 299.547 62.8629C299.315 62.3715 299.199 61.8172 299.199 61.2C299.199 60.5753 299.315 60.0191 299.547 59.5315C299.783 59.04 300.116 58.6534 300.547 58.3715C300.976 58.0858 301.483 57.9429 302.065 57.9429C302.651 57.9429 303.142 58.0858 303.538 58.3715C303.938 58.6534 304.24 59.04 304.446 59.5315C304.652 60.0229 304.754 60.5791 304.754 61.2C304.754 61.8134 304.652 62.3677 304.446 62.8629C304.24 63.3543 303.934 63.7429 303.527 64.0286C303.119 64.3143 302.615 64.4572 302.014 64.4572ZM302.225 63.2229C302.594 63.2229 302.891 63.1391 303.116 62.9715C303.344 62.8 303.51 62.562 303.612 62.2572C303.719 61.9524 303.772 61.6 303.772 61.2C303.772 60.7963 303.719 60.4438 303.612 60.1429C303.51 59.8381 303.348 59.602 303.127 59.4343C302.906 59.2629 302.62 59.1772 302.271 59.1772C301.901 59.1772 301.597 59.2686 301.357 59.4515C301.117 59.6305 300.94 59.8743 300.826 60.1829C300.712 60.4877 300.655 60.8267 300.655 61.2C300.655 61.5772 300.71 61.92 300.821 62.2286C300.935 62.5334 301.107 62.7753 301.34 62.9543C301.572 63.1334 301.867 63.2229 302.225 63.2229ZM303.772 64.2858V59.9543H303.601V56.0572H304.988V64.2858H303.772ZM310.626 64.2858V61.3143C310.626 61.12 310.612 60.9048 310.586 60.6686C310.559 60.4324 310.496 60.2058 310.397 59.9886C310.302 59.7677 310.157 59.5867 309.963 59.4458C309.773 59.3048 309.514 59.2343 309.187 59.2343C309.011 59.2343 308.839 59.2629 308.667 59.32C308.496 59.3772 308.34 59.4763 308.199 59.6172C308.062 59.7543 307.952 59.9448 307.868 60.1886C307.784 60.4286 307.742 60.7372 307.742 61.1143L306.926 60.7658C306.926 60.24 307.027 59.7638 307.229 59.3372C307.434 58.9105 307.735 58.5715 308.131 58.32C308.526 58.0648 309.013 57.9372 309.592 57.9372C310.049 57.9372 310.426 58.0134 310.723 58.1658C311.02 58.3181 311.255 58.5124 311.431 58.7486C311.605 58.9848 311.735 59.2363 311.819 59.5029C311.902 59.7695 311.956 60.0229 311.979 60.2629C312.005 60.4991 312.019 60.6915 312.019 60.84V64.2858H310.626ZM306.349 64.2858V58.1143H307.577V60.0286H307.742V64.2858H306.349ZM315.903 64.4572C315.287 64.4572 314.748 64.3181 314.287 64.04C313.826 63.762 313.469 63.3791 313.214 62.8915C312.963 62.4 312.837 61.8363 312.837 61.2C312.837 60.5524 312.966 59.9848 313.226 59.4972C313.484 59.0095 313.844 58.6286 314.305 58.3543C314.765 58.08 315.298 57.9429 315.903 57.9429C316.523 57.9429 317.064 58.082 317.525 58.36C317.985 58.6381 318.342 59.0229 318.598 59.5143C318.853 60.002 318.981 60.5638 318.981 61.2C318.981 61.84 318.851 62.4058 318.592 62.8972C318.337 63.3848 317.979 63.7677 317.519 64.0458C317.058 64.32 316.52 64.4572 315.903 64.4572ZM315.903 63.1658C316.451 63.1658 316.858 62.9829 317.125 62.6172C317.391 62.2515 317.525 61.7791 317.525 61.2C317.525 60.602 317.389 60.1258 317.119 59.7715C316.849 59.4134 316.443 59.2343 315.903 59.2343C315.534 59.2343 315.229 59.3181 314.99 59.4858C314.753 59.6495 314.579 59.88 314.464 60.1772C314.35 60.4705 314.293 60.8115 314.293 61.2C314.293 61.7981 314.428 62.2763 314.699 62.6343C314.973 62.9886 315.374 63.1658 315.903 63.1658ZM322.246 64.4572C321.485 64.4572 320.866 64.2858 320.39 63.9429C319.915 63.6 319.625 63.1181 319.522 62.4972L320.927 62.28C320.999 62.5848 321.159 62.8248 321.406 63C321.654 63.1753 321.966 63.2629 322.343 63.2629C322.674 63.2629 322.929 63.1981 323.108 63.0686C323.29 62.9353 323.382 62.7543 323.382 62.5258C323.382 62.3848 323.347 62.2724 323.279 62.1886C323.215 62.101 323.07 62.0172 322.845 61.9372C322.621 61.8572 322.276 61.7563 321.812 61.6343C321.294 61.4972 320.883 61.3505 320.578 61.1943C320.274 61.0343 320.055 60.8458 319.922 60.6286C319.789 60.4115 319.722 60.1486 319.722 59.84C319.722 59.4553 319.823 59.12 320.025 58.8343C320.227 58.5486 320.508 58.3295 320.87 58.1772C321.231 58.021 321.657 57.9429 322.148 57.9429C322.628 57.9429 323.053 58.0172 323.422 58.1658C323.795 58.3143 324.095 58.5258 324.324 58.8C324.552 59.0743 324.693 59.3963 324.746 59.7658L323.342 60.0172C323.307 59.7543 323.188 59.5467 322.982 59.3943C322.781 59.242 322.51 59.1563 322.171 59.1372C321.848 59.1181 321.588 59.1677 321.389 59.2858C321.191 59.4 321.092 59.562 321.092 59.7715C321.092 59.8895 321.132 59.9905 321.212 60.0743C321.292 60.1581 321.452 60.242 321.692 60.3258C321.936 60.4095 322.297 60.5124 322.777 60.6343C323.268 60.76 323.66 60.9048 323.953 61.0686C324.25 61.2286 324.463 61.421 324.592 61.6458C324.726 61.8705 324.792 62.1429 324.792 62.4629C324.792 63.0838 324.566 63.5715 324.113 63.9258C323.664 64.28 323.041 64.4572 322.246 64.4572ZM325.244 64.2858V64.0972L328.509 59.32H325.575V58.1143H330.65V58.3086L327.396 63.08H330.513V64.2858H325.244ZM334.02 64.4572C333.397 64.4572 332.848 64.322 332.376 64.0515C331.904 63.781 331.535 63.4058 331.268 62.9258C331.006 62.4458 330.874 61.8934 330.874 61.2686C330.874 60.5943 331.004 60.0095 331.263 59.5143C331.522 59.0153 331.881 58.6286 332.342 58.3543C332.803 58.08 333.335 57.9429 333.94 57.9429C334.58 57.9429 335.122 58.0934 335.568 58.3943C336.017 58.6915 336.35 59.1124 336.567 59.6572C336.784 60.202 336.866 60.8438 336.812 61.5829H335.448V61.08C335.444 60.4095 335.326 59.92 335.094 59.6115C334.862 59.3029 334.496 59.1486 333.997 59.1486C333.434 59.1486 333.015 59.3238 332.741 59.6743C332.467 60.021 332.33 60.5295 332.33 61.2C332.33 61.8248 332.467 62.3086 332.741 62.6515C333.015 62.9943 333.415 63.1658 333.94 63.1658C334.279 63.1658 334.571 63.0915 334.814 62.9429C335.062 62.7905 335.252 62.5715 335.385 62.2858L336.744 62.6972C336.508 63.2534 336.143 63.6858 335.647 63.9943C335.156 64.3029 334.614 64.4572 334.02 64.4572ZM331.896 61.5829V60.5429H336.138V61.5829H331.896ZM341.956 64.2858V61.3143C341.956 61.12 341.942 60.9048 341.916 60.6686C341.888 60.4324 341.826 60.2058 341.727 59.9886C341.632 59.7677 341.487 59.5867 341.293 59.4458C341.103 59.3048 340.844 59.2343 340.517 59.2343C340.341 59.2343 340.169 59.2629 339.997 59.32C339.826 59.3772 339.67 59.4763 339.529 59.6172C339.392 59.7543 339.281 59.9448 339.198 60.1886C339.114 60.4286 339.072 60.7372 339.072 61.1143L338.256 60.7658C338.256 60.24 338.357 59.7638 338.559 59.3372C338.764 58.9105 339.065 58.5715 339.461 58.32C339.856 58.0648 340.343 57.9372 340.922 57.9372C341.379 57.9372 341.756 58.0134 342.053 58.1658C342.35 58.3181 342.585 58.5124 342.761 58.7486C342.935 58.9848 343.065 59.2363 343.149 59.5029C343.232 59.7695 343.286 60.0229 343.309 60.2629C343.335 60.4991 343.349 60.6915 343.349 60.84V64.2858H341.956ZM337.679 64.2858V58.1143H338.907V60.0286H339.072V64.2858H337.679ZM344.724 57.1772V55.9143H346.1V57.1772H344.724ZM344.724 64.2858V58.1143H346.1V64.2858H344.724ZM349.306 64.4572C348.861 64.4572 348.484 64.3734 348.176 64.2058C347.868 64.0343 347.633 63.8077 347.474 63.5258C347.317 63.2438 347.24 62.9334 347.24 62.5943C347.24 62.2972 347.289 62.0305 347.388 61.7943C347.486 61.5543 347.639 61.3486 347.845 61.1772C348.05 61.002 348.316 60.8591 348.644 60.7486C348.891 60.6686 349.181 60.5963 349.512 60.5315C349.847 60.4667 350.208 60.4077 350.597 60.3543C350.988 60.2972 351.397 60.2363 351.824 60.1715L351.333 60.4515C351.337 60.0248 351.242 59.7105 351.048 59.5086C350.854 59.3067 350.526 59.2058 350.066 59.2058C349.787 59.2058 349.519 59.2705 349.261 59.4C349.002 59.5295 348.821 59.7524 348.718 60.0686L347.462 59.6743C347.614 59.1524 347.903 58.7334 348.33 58.4172C348.76 58.101 349.338 57.9429 350.066 57.9429C350.614 57.9429 351.095 58.0324 351.51 58.2115C351.928 58.3905 352.239 58.6838 352.441 59.0915C352.551 59.3086 352.618 59.5315 352.641 59.76C352.663 59.9848 352.675 60.2305 352.675 60.4972V64.2858H351.47V62.9486L351.67 63.1658C351.392 63.6115 351.066 63.9391 350.694 64.1486C350.324 64.3543 349.862 64.4572 349.306 64.4572ZM349.58 63.36C349.892 63.36 350.158 63.3048 350.38 63.1943C350.6 63.0838 350.775 62.9486 350.905 62.7886C351.038 62.6286 351.128 62.4781 351.173 62.3372C351.245 62.162 351.285 61.962 351.293 61.7372C351.305 61.5086 351.31 61.3238 351.31 61.1829L351.733 61.3086C351.317 61.3734 350.962 61.4305 350.665 61.48C350.368 61.5295 350.113 61.5772 349.9 61.6229C349.687 61.6648 349.498 61.7124 349.335 61.7658C349.175 61.8229 349.039 61.8895 348.93 61.9658C348.819 62.042 348.733 62.1295 348.673 62.2286C348.615 62.3277 348.587 62.4438 348.587 62.5772C348.587 62.7295 348.625 62.8648 348.701 62.9829C348.777 63.0972 348.887 63.1886 349.032 63.2572C349.181 63.3258 349.363 63.36 349.58 63.36ZM358.879 66.12C358.434 65.602 358.053 65.0153 357.738 64.36C357.421 63.7086 357.182 63.0248 357.018 62.3086C356.854 61.5924 356.778 60.88 356.79 60.1715C356.778 59.4629 356.854 58.7505 357.018 58.0343C357.182 57.3143 357.421 56.6286 357.738 55.9772C358.053 55.3258 358.434 54.741 358.879 54.2229L359.896 54.9772C359.439 55.5295 359.074 56.0877 358.8 56.6515C358.529 57.2153 358.335 57.7905 358.217 58.3772C358.099 58.96 358.038 59.5581 358.034 60.1715C358.038 60.7848 358.099 61.3848 358.217 61.9715C358.339 62.5543 358.535 63.1295 358.805 63.6972C359.075 64.261 359.439 64.8153 359.896 65.36L358.879 66.12ZM360.936 64.2858V56.0572H362.312V59.52H366.206V56.0572H367.576V64.2858H366.206V60.8115H362.312V64.2858H360.936ZM369.634 66.12L368.617 65.36C369.074 64.8153 369.437 64.261 369.708 63.6972C369.978 63.1295 370.172 62.5543 370.29 61.9715C370.412 61.3848 370.474 60.7848 370.479 60.1715C370.474 59.5581 370.414 58.96 370.296 58.3772C370.178 57.7905 369.982 57.2153 369.708 56.6515C369.437 56.0877 369.074 55.5295 368.617 54.9772L369.634 54.2229C370.079 54.741 370.459 55.3258 370.776 55.9772C371.091 56.6286 371.331 57.3143 371.495 58.0343C371.658 58.7505 371.735 59.4629 371.723 60.1715C371.735 60.88 371.658 61.5924 371.495 62.3086C371.331 63.0248 371.091 63.7086 370.776 64.36C370.459 65.0153 370.079 65.602 369.634 66.12ZM304.968 80.7143V76.9658C304.968 76.5429 304.863 76.2136 304.654 75.9772C304.444 75.7372 304.161 75.6172 303.803 75.6172C303.582 75.6172 303.384 75.6686 303.209 75.7715C303.034 75.8708 302.895 76.0193 302.792 76.2172C302.69 76.4115 302.638 76.6436 302.638 76.9143L302.027 76.5543C302.023 76.1279 302.119 75.7522 302.313 75.4286C302.511 75.1008 302.777 74.8458 303.112 74.6629C303.447 74.48 303.82 74.3886 304.231 74.3886C304.912 74.3886 305.434 74.5943 305.796 75.0058C306.161 75.4136 306.344 75.9508 306.344 76.6172V80.7143H304.968ZM297.551 80.7143V74.5429H298.767V76.4572H298.939V80.7143H297.551ZM301.268 80.7143V76.9829C301.268 76.5522 301.163 76.2172 300.954 75.9772C300.744 75.7372 300.459 75.6172 300.098 75.6172C299.747 75.6172 299.465 75.7372 299.253 75.9772C299.043 76.2172 298.939 76.5293 298.939 76.9143L298.322 76.5029C298.322 76.1029 298.421 75.7429 298.619 75.4229C298.817 75.1029 299.083 74.8515 299.418 74.6686C299.756 74.4822 300.135 74.3886 300.554 74.3886C301.015 74.3886 301.399 74.4879 301.708 74.6858C302.02 74.88 302.251 75.1465 302.404 75.4858C302.56 75.8208 302.638 76.2 302.638 76.6229V80.7143H301.268Z" fill="white"/>
</g>
<defs>
<clipPath id="clip0_2667_21706">
<rect width="658" height="90" fill="white" transform="translate(20)"/>
</clipPath>
</defs>
</svg>
