<svg width="44" height="44" viewBox="0 0 44 44" fill="none" xmlns="http://www.w3.org/2000/svg">
<rect width="43.08" height="43.08" rx="10" fill="#4064DF" fill-opacity="0.1"/>
<path d="M28.7491 12.1025C28.7491 13.8492 24.899 15.7952 19.3748 15.7952C13.8507 15.7952 10 13.8492 10 12.1025C10 10.3558 13.8501 8.40918 19.3748 8.40918C24.8996 8.40918 28.7491 10.3558 28.7491 12.1025Z" fill="white" fill-opacity="0.4"/>
<path d="M29.3396 19.8302C29.0546 19.7919 28.7634 19.7722 28.4677 19.7722C24.8643 19.7722 21.9336 22.703 21.9336 26.3057C21.9336 26.7423 21.9764 27.1687 22.0586 27.581C22.6535 30.5754 25.3009 32.8398 28.4677 32.8398C32.0704 32.8398 35.0012 29.9085 35.0012 26.3057C35.0012 22.9987 32.5317 20.2578 29.3396 19.8302ZM29.9198 29.7147C29.6866 29.8296 29.4337 29.9107 29.1718 29.9597V30.6143C29.1718 31.0029 28.8563 31.3184 28.4677 31.3184C28.079 31.3184 27.7636 31.0029 27.7636 30.6143V29.9372C27.0595 29.7885 26.4122 29.4376 26.0095 28.9233C25.7701 28.6169 25.8236 28.1741 26.13 27.9347C26.4365 27.6948 26.8786 27.7488 27.1186 28.0553C27.5219 28.5707 28.6423 28.774 29.2974 28.4513C29.6556 28.2749 29.7587 28.0068 29.6427 27.5545C29.5627 27.2419 29.2805 27.1523 28.417 27.0245C27.5439 26.8949 26.348 26.7175 25.938 25.4664C25.7695 24.9612 25.8191 24.4041 26.0777 23.9005C26.3627 23.3474 26.8815 22.9097 27.4661 22.7294C27.5653 22.6985 27.6644 22.6731 27.7636 22.6528V21.9972C27.7636 21.6085 28.0784 21.2931 28.4677 21.2931C28.8569 21.2931 29.1718 21.6085 29.1718 21.9972V22.7154C29.5553 22.8258 29.944 23.0133 30.3406 23.2781C30.6644 23.4938 30.7518 23.9309 30.536 24.2542C30.3203 24.5781 29.8832 24.6654 29.5593 24.4497C29.2613 24.2509 28.9881 24.1196 28.7285 24.0543C28.5296 24.0041 28.3353 23.9794 28.1314 24.0194C28.0486 24.0306 27.9658 24.0492 27.8824 24.0751C27.6543 24.1455 27.443 24.3252 27.3298 24.5449C27.2707 24.6604 27.2127 24.8372 27.2752 25.0242C27.4019 25.4123 27.7833 25.507 28.6231 25.6309C29.4917 25.7599 30.6808 25.9356 31.0069 27.2047C31.2886 28.302 30.8824 29.2404 29.9198 29.7147Z" fill="white"/>
<path d="M20.5096 28.4728C20.1063 28.4937 19.6978 28.5041 19.2905 28.5041C16.522 28.5041 13.9078 28.0281 11.9298 27.1644C11.1605 26.8283 10.514 26.444 10 26.022V29.1949C10 30.919 13.8155 32.8398 19.2905 32.8398C20.6025 32.8398 21.8829 32.7261 23.0676 32.506C21.8554 31.4629 20.9502 30.0651 20.5096 28.4728Z" fill="white" fill-opacity="0.4"/>
<path d="M20.7949 22.7569C20.2309 22.8005 19.6574 22.8219 19.0794 22.8219C16.3738 22.8219 13.819 22.3465 11.886 21.4827C11.1342 21.1466 10.5023 20.7623 10 20.3403V23.5127C10 25.2368 13.7288 27.1582 19.0794 27.1582C19.3917 27.1582 19.704 27.1512 20.014 27.1373C19.9916 26.8859 19.9798 26.6317 19.9798 26.3745C19.9798 25.0766 20.273 23.8482 20.7949 22.7569Z" fill="white" fill-opacity="0.4"/>
<path d="M26.8018 15.8011C24.8064 16.6654 22.1685 17.1409 19.3748 17.1409C16.5812 17.1409 13.9433 16.6654 11.9473 15.8011C11.1711 15.465 10.5187 15.0807 10 14.6587V17.8317C10 19.5557 13.8501 21.4765 19.3748 21.4765C20.3213 21.4765 21.2527 21.4185 22.1488 21.3041C23.6469 19.4692 25.9225 18.296 28.4666 18.296C28.561 18.296 28.6553 18.2978 28.7491 18.3007V14.6587C28.2304 15.0807 27.578 15.465 26.8018 15.8011Z" fill="white" fill-opacity="0.4"/>
</svg>
