<svg width="50" height="50" viewBox="0 0 50 50" fill="none" xmlns="http://www.w3.org/2000/svg">
<mask id="mask0_4051_19844" style="mask-type:alpha" maskUnits="userSpaceOnUse" x="3" y="3" width="44" height="44">
<rect x="3.46094" y="3.46094" width="43.08" height="43.08" fill="#4064DF"/>
</mask>
<g mask="url(#mask0_4051_19844)">
<path fill-rule="evenodd" clip-rule="evenodd" d="M40.4989 29.3223C38.4073 28.1358 37.2511 26.6148 37.2293 24.9914C37.2341 23.3832 38.3562 21.839 40.4599 20.5983C40.6613 20.4663 40.8117 20.2632 40.8769 20.0118C40.9688 19.7755 40.902 19.5336 40.7882 19.3002L37.9122 14.4118C37.6496 13.9322 37.0617 13.8028 36.5973 14.0388C34.5255 15.2976 32.5879 15.514 31.2147 14.7351C29.8416 13.9562 29.036 12.1768 29.0184 9.73985C29.0115 9.24352 28.5699 8.78196 28.0555 8.82078L22.352 8.84266C21.8238 8.83143 21.3941 9.2912 21.401 9.78753C21.4156 12.2298 20.666 13.9853 19.2881 14.8147C17.9102 15.644 15.9795 15.4141 13.8932 14.2307C13.4248 13.965 12.8409 14.1263 12.5753 14.5946L9.77976 19.523C9.5141 19.9913 9.67533 20.5752 10.1437 20.8409C12.2353 22.0273 13.3915 23.5484 13.4133 25.1717C13.4085 26.7799 12.2864 28.3241 10.1827 29.5649C9.7532 29.8136 9.57372 30.4153 9.85975 30.866L12.7677 35.7725C12.8845 36.0005 13.0846 36.1562 13.336 36.2215C13.5874 36.2867 13.8142 36.2465 14.0476 36.1327C16.1513 34.892 18.057 34.6575 19.4621 35.4545C20.8672 36.2515 21.6408 38.0128 21.6265 40.4316C21.6432 40.6873 21.7624 40.9238 21.9154 41.088C21.9931 41.1742 22.0517 41.2074 22.1155 41.2437C22.2699 41.3312 22.4476 41.3899 22.6214 41.3688L28.2929 41.3288C28.8211 41.3401 29.2508 40.8803 29.2439 40.384C29.2293 37.9417 29.9789 36.1862 31.3568 35.3568C32.7347 34.5275 34.6654 34.7574 36.7517 35.9408C37.2201 36.2065 37.804 36.0452 38.0696 35.5769L40.8651 30.6485C41.1308 30.1801 40.9696 29.5963 40.5012 29.3306L40.4989 29.3223ZM28.9218 31.204C26.7211 32.467 24.0201 32.5037 21.8114 31.2508C20.7523 30.65 19.8712 29.7353 19.2334 28.677C18.2553 27.053 17.9889 25.1291 18.487 23.3083C18.9533 21.4694 20.1073 19.9433 21.7634 18.9833C23.9322 17.7022 26.615 17.6975 28.8291 18.9533C29.8882 19.5541 30.7873 20.4369 31.4252 21.4952C32.4033 23.1192 32.6697 25.0431 32.1715 26.8639C31.7053 28.7028 30.5512 30.2289 28.9271 31.207L28.9218 31.204Z" fill="#4064DF"/>
<ellipse cx="25.3223" cy="25.0868" rx="4.15522" ry="4.15521" transform="rotate(-15.4368 25.3223 25.0868)" fill="#4064DF"/>
</g>
</svg>
