<svg width="38" height="46" viewBox="0 0 38 46" fill="none" xmlns="http://www.w3.org/2000/svg">
<path d="M17.5869 28.283C17.9401 28.5991 18.504 28.5867 18.8511 28.2334L27.9731 19.1114C28.3077 18.7582 28.2953 18.1881 27.9421 17.8349C27.5827 17.4816 27.0187 17.4692 26.6469 17.8101L18.1942 26.2628L13.0135 21.0821C12.8276 20.8838 12.5921 20.7784 12.338 20.7722C12.3256 20.7722 12.3132 20.7722 12.3009 20.7722C12.0654 20.7722 11.8299 20.8714 11.6626 21.0449C11.4952 21.2184 11.3837 21.4663 11.3899 21.7204C11.3899 21.9745 11.5014 22.2161 11.6874 22.3835L17.5807 28.2768L17.5869 28.283Z" fill="white"/>
<path d="M38 22.4207V9.24592C38 8.78734 37.6716 8.40313 37.2192 8.32876C30.6813 7.40541 24.5959 4.61057 19.6259 0.241683C19.4524 0.086758 19.2293 0 19 0C18.7707 0 18.5538 0.086758 18.3803 0.235486C13.4041 4.61057 7.31246 7.41161 0.762231 8.33496C0.322244 8.40313 0 8.79354 0 9.25212V22.4269C0 34.9697 13.0013 42.4866 18.591 45.1327C18.8513 45.2567 19.1487 45.2629 19.3966 45.1327C24.9987 42.468 38.0124 34.9139 38 22.4207ZM18.5848 43.0877C12.332 39.9644 1.84671 33.123 1.8591 22.4269V10.0391L2.62133 9.89661C8.38454 8.83072 13.8441 6.32094 18.4175 2.65232L19 2.18754L19.5825 2.65232C24.1559 6.32713 29.6216 8.83072 35.3787 9.89661L36.1409 10.0391V22.4269C36.1409 33.092 25.6618 39.952 19.4152 43.0877L19 43.2984L18.5848 43.0877Z" fill="white"/>
</svg>
