<svg width="131" height="131" viewBox="0 0 131 131" fill="none" xmlns="http://www.w3.org/2000/svg">
<path d="M20.3555 111.192C48.227 92.1516 83.2304 82.2898 126.779 83.415C118.927 109.993 94.3148 129.403 65.1641 129.403C47.7344 129.403 31.9337 122.456 20.3555 111.192ZM6.75781 91.9346C42.5623 80.0539 82.8319 73.8012 128.706 74.6201C128.562 75.6082 128.394 76.59 128.205 77.5635C78.4621 75.7781 42.0364 85.2559 10.4385 98.8096C9.07914 96.6027 7.84741 94.3094 6.75781 91.9346ZM129.314 68.7188C129.301 68.9593 129.288 69.1994 129.272 69.4395C77.4948 68.983 36.7871 73.3363 2.80566 80.6221C1.94672 77.1522 1.37207 73.5761 1.10449 69.9082L129.314 68.7188ZM2.95703 49.1367C40.6522 57.6046 82.4376 62.1377 129.321 61.8018C129.343 62.2376 129.358 62.6751 129.372 63.1152L1.05566 61.124C1.31261 57.0129 1.95885 53.0065 2.95703 49.1367ZM10.9248 30.7803C37.3743 45.7415 76.5282 53.3335 128.357 53.748C128.496 54.4916 128.619 55.1988 128.729 55.9277C84.2795 56.4682 43.686 50.6337 6.28809 39.4746C7.61124 36.4517 9.16756 33.5484 10.9248 30.7803ZM65.1641 1C94.6845 1 119.556 20.902 127.069 48.002C84.1687 48.5895 48.143 39.3774 18.3691 21.2207C30.0918 8.77557 46.7236 1.00003 65.1641 1Z" fill="url(#paint0_linear_1400_6431)" fill-opacity="0.1" stroke="url(#paint1_linear_1400_6431)" stroke-width="2"/>
<defs>
<linearGradient id="paint0_linear_1400_6431" x1="-99.8152" y1="115.513" x2="-5.70964" y2="86.6614" gradientUnits="userSpaceOnUse">
<stop stop-color="#999999" stop-opacity="0.2"/>
<stop offset="0.447115" stop-color="#999999" stop-opacity="0.4"/>
<stop offset="1" stop-color="#999999" stop-opacity="0.2"/>
</linearGradient>
<linearGradient id="paint1_linear_1400_6431" x1="-99.8152" y1="115.513" x2="-5.70964" y2="86.6614" gradientUnits="userSpaceOnUse">
<stop stop-color="#999999" stop-opacity="0.2"/>
<stop offset="0.447115" stop-color="#999999" stop-opacity="0.4"/>
<stop offset="1" stop-color="#999999" stop-opacity="0.2"/>
</linearGradient>
</defs>
</svg>
