<svg width="55" height="55" viewBox="0 0 55 55" fill="none" xmlns="http://www.w3.org/2000/svg">
<path fill-rule="evenodd" clip-rule="evenodd" d="M39.2021 14.188L19.7951 14.1582L7.87012 30.3665H15.7942L11.9467 35.7357H19.592L15.8608 40.8423H35.2053L47.1298 24.6345H39.442L43.1991 19.5279H35.3128L37.9668 15.9212L39.2021 14.188ZM10.8074 28.881L20.5456 15.6449L36.3078 15.6691L27.2007 28.046L27.2 28.0469L26.6001 28.849L21.2479 28.881H10.8074ZM28.3938 28.9311L34.3155 21.0135H40.2618L35.0754 28.0628L30.5293 34.1941L24.0673 34.2501H14.8389L17.6062 30.3883L21.2522 30.3665H27.3376L28.3931 28.9321L28.3938 28.9311ZM36.2709 28.9447L38.3652 26.1201H44.1925L34.4539 39.3567H18.7862L21.4151 35.7587L24.0736 35.7357H31.2746L36.2709 28.9447Z" fill="#747DA1"/>
</svg>
