<svg width="768" height="78" viewBox="0 0 768 78" fill="none" xmlns="http://www.w3.org/2000/svg">
<mask id="path-1-inside-1_2667_22827" fill="white">
<path d="M0 0H768V78H0V0Z"/>
</mask>
<path d="M768 78V77H0V78V79H768V78Z" fill="white" fill-opacity="0.1" mask="url(#path-1-inside-1_2667_22827)"/>
<g clip-path="url(#clip0_2667_22827)">
<path fill-rule="evenodd" clip-rule="evenodd" d="M300.166 25.9783C301.971 24.1044 304.507 22.9375 307.316 22.9375C311.919 22.9375 315.79 26.0723 316.913 30.3245C316.913 30.3245 313.437 30.3789 311.242 30.0772C308.809 29.741 307.419 29.4493 305.13 28.5642C303.093 27.7781 300.171 25.9783 300.171 25.9783M317.145 31.5111C317.111 31.2639 317.071 31.0216 317.017 30.7794C317.017 30.7794 312.136 30.8486 309.071 30.3739C305.748 29.8597 303.81 29.5185 300.754 28.1143C300.102 27.8127 299.741 27.5951 299.108 27.2836C298.772 27.7731 298.48 28.2973 298.238 28.8461C298.238 28.8461 300.171 29.4987 301.427 29.835C304.102 30.547 305.669 30.7398 308.413 31.0661C311.795 31.4716 317.14 31.5111 317.14 31.5111M308.507 32.4308L317.224 32.4703C317.219 32.3072 317.209 32.144 317.195 31.9808C317.195 31.9808 311.459 32.0253 307.815 31.704C303.864 31.3529 301.536 30.9573 297.763 30.1564C297.59 30.7744 297.471 31.4172 297.422 32.0797L308.507 32.4308ZM300.166 39.4815C301.971 41.3555 304.507 42.5223 307.311 42.5223C311.914 42.5223 315.785 39.3876 316.908 35.1354C316.908 35.1354 313.432 35.081 311.237 35.3826C308.804 35.7188 307.415 36.0105 305.125 36.8956C303.088 37.6818 300.166 39.4815 300.166 39.4815ZM308.418 34.3937C305.669 34.725 304.107 34.9129 301.432 35.6249C300.171 35.9611 298.243 36.6138 298.243 36.6138C298.485 37.1626 298.777 37.6867 299.113 38.1762C299.746 37.8598 300.107 37.6472 300.759 37.3455C303.81 35.9413 305.753 35.6002 309.076 35.0859C312.141 34.6113 317.022 34.6805 317.022 34.6805C317.071 34.4382 317.116 34.1959 317.15 33.9487C317.15 33.9487 311.805 33.9883 308.423 34.3937M297.422 33.3801C297.471 34.0427 297.59 34.6854 297.763 35.3035C301.541 34.5025 303.864 34.1069 307.815 33.7559C311.459 33.4345 317.195 33.479 317.195 33.479C317.209 33.3158 317.219 33.1576 317.224 32.9945L308.507 33.0291L297.422 33.3801Z" fill="#E42313"/>
<path d="M328.828 41.9683C334.425 41.9683 339.192 37.9979 340.522 33.0288C341.204 30.4923 340.819 28.1091 339.444 26.3192C338.129 24.6084 336.067 23.6641 333.634 23.6641C328.655 23.6641 323.523 27.7086 322.188 32.6777L318.148 47.7582L323.221 45.1228L326.46 33.0337C327.207 30.25 330.069 27.9855 332.843 27.9855C334.074 27.9855 335.103 28.4453 335.741 29.276C336.418 30.161 336.601 31.3675 336.25 32.6777C335.503 35.4614 332.606 37.8051 329.867 37.726C327.128 37.6469 326.455 36.5344 326.455 36.5344L325.318 40.6481C325.318 40.6481 326.035 41.9782 328.828 41.9782" fill="white"/>
<path fill-rule="evenodd" clip-rule="evenodd" d="M435.857 23.6211C434.917 23.6211 434.121 24.343 434.121 25.322C434.121 26.301 434.917 27.0327 435.857 27.0327C436.796 27.0327 437.582 26.3109 437.582 25.322C437.582 24.3331 436.786 23.6211 435.857 23.6211ZM435.857 26.7509C435.075 26.7509 434.467 26.1477 434.467 25.3269C434.467 24.5061 435.075 23.9079 435.857 23.9079C436.638 23.9079 437.236 24.516 437.236 25.3269C437.236 26.1378 436.628 26.7509 435.857 26.7509ZM436.643 24.9066C436.643 24.516 436.41 24.3479 435.946 24.3479H435.194V26.3158H435.491V25.4604H435.832L436.351 26.3158H436.687L436.129 25.4505C436.415 25.4159 436.638 25.2626 436.638 24.9066M435.496 25.2083V24.6001H435.901C436.109 24.6001 436.331 24.6446 436.331 24.8869C436.331 25.1885 436.104 25.2083 435.852 25.2083H435.496Z" fill="white"/>
<path fill-rule="evenodd" clip-rule="evenodd" d="M346.055 30.6619C347.355 28.9758 349.372 27.8683 351.286 27.8683H353.807L353.941 27.359L354.732 24.4121L354.964 23.5469H352.077C347.098 23.5469 341.966 27.5914 340.631 32.5606C339.948 35.097 340.334 37.4802 341.703 39.2701C343.019 40.9809 345.081 41.9253 347.513 41.9253H350.035L350.168 41.416L350.959 38.4691L351.192 37.6039H348.304C346.46 37.6039 345.125 36.5705 344.804 34.9635H344.818H351.35H351.874L352.013 34.4543L352.804 31.5074L353.036 30.6421H346.079L346.055 30.6619Z" fill="white"/>
<path fill-rule="evenodd" clip-rule="evenodd" d="M358.044 37.6029L356.481 37.6178L356.58 37.5881L358.177 31.4669L358.41 30.6016H354.044L353.905 31.1109L351.24 41.0591L351.008 41.9244H357.263C362.242 41.9244 367.374 37.8798 368.709 32.9107C369.386 30.3742 369.006 27.991 367.631 26.1962C366.316 24.4854 364.254 23.541 361.821 23.541H355.937L355.799 24.0503L355.008 26.9972L354.775 27.8624H361.03C362.251 27.8624 363.27 28.3173 363.903 29.1381C364.58 30.0231 364.758 31.2345 364.407 32.5547C363.661 35.3384 360.798 37.6029 358.024 37.6029" fill="white"/>
<path fill-rule="evenodd" clip-rule="evenodd" d="M380.871 29.4589C381.292 27.8816 381.049 26.3983 380.194 25.2759C379.373 24.198 378.088 23.6047 376.575 23.6047L371.161 23.5898L370.009 27.9063H375.799C376.12 27.9063 376.372 28.0102 376.53 28.2129C376.698 28.4304 376.738 28.7469 376.644 29.1029C376.417 29.9484 375.527 30.6604 374.696 30.6604H374.666L369.376 30.6703L366.34 42.0375H370.701L372.595 34.9422H373.316L375.517 42.0375H380.155L377.643 33.7754C377.643 33.7754 380.372 31.3328 380.871 29.4589Z" fill="white"/>
<path fill-rule="evenodd" clip-rule="evenodd" d="M406.902 32.5743C406.224 35.1108 406.605 37.494 407.975 39.2839C409.29 40.9947 411.352 41.9589 413.784 41.9589H414.852L416.014 37.6226H414.571C413.339 37.6226 412.311 37.1628 411.673 36.3321C410.996 35.4471 410.818 34.2406 411.164 32.9303L413.676 23.5508H409.31L406.892 32.5743H406.902Z" fill="white"/>
<path fill-rule="evenodd" clip-rule="evenodd" d="M397.894 32.5802C397.217 35.1167 397.597 37.4999 398.967 39.2898C400.282 41.0006 402.344 41.9449 404.777 41.9449L404.613 41.9252L404.777 41.9647H405.845L407.007 37.6285H405.563C404.332 37.6285 403.303 37.1686 402.665 36.338C401.988 35.4529 401.805 34.2465 402.156 32.9362L404.668 23.5566H400.302L397.884 32.5802H397.894Z" fill="white"/>
<path fill-rule="evenodd" clip-rule="evenodd" d="M433.027 26.245C431.712 24.5342 429.65 23.5898 427.217 23.5898C422.243 23.5898 417.111 27.6294 415.781 32.5936C415.103 35.1301 415.484 37.5133 416.854 39.3032C418.169 41.014 420.231 41.9584 422.663 41.9584C427.637 41.9584 432.77 37.9188 434.1 32.9546C434.777 30.4181 434.396 28.0349 433.027 26.245ZM429.833 32.5986C429.086 35.3823 426.228 37.6419 423.454 37.6419C422.223 37.6419 421.195 37.1821 420.557 36.3514C419.88 35.4663 419.702 34.2599 420.053 32.9496C420.799 30.1659 423.657 27.9063 426.431 27.9063C427.662 27.9063 428.691 28.3662 429.328 29.1968C430.006 30.0819 430.189 31.2883 429.838 32.5986" fill="white"/>
<path fill-rule="evenodd" clip-rule="evenodd" d="M396.761 26.2802C395.446 24.5694 393.384 23.625 390.951 23.625C385.977 23.625 380.845 27.6646 379.515 32.6288C378.838 35.1653 379.218 37.5485 380.588 39.3384C381.903 41.0491 383.965 41.9935 386.398 41.9935C391.372 41.9935 396.504 37.9539 397.834 32.9897C398.512 30.4532 398.131 28.07 396.761 26.2802ZM393.567 32.6337C392.82 35.4174 389.958 37.677 387.189 37.677C385.958 37.677 384.929 37.2172 384.291 36.3865C383.614 35.5015 383.431 34.2951 383.782 32.9848C384.529 30.2011 387.392 27.9415 390.16 27.9415C391.387 27.9415 392.42 28.4013 393.058 29.232C393.735 30.117 393.913 31.3235 393.567 32.6337Z" fill="white"/>
<path d="M429.169 50.8941C429.169 50.8941 429.609 49.3218 429.263 48.5702C429.045 48.1499 428.536 47.8632 427.928 47.8137C427.433 47.7742 426.677 47.8731 425.861 48.5702C425.356 48.9954 424.931 49.6975 424.699 50.4887C424.471 51.255 424.466 51.967 424.679 52.3972C424.946 52.9213 425.539 53.2328 426.266 53.2328C426.993 53.2328 427.695 52.951 428.18 52.4813C428.585 52.1253 428.986 51.3292 428.986 51.3292H427.972C427.972 51.3292 427.29 52.3478 426.444 52.3478C425.935 52.3478 425.742 52.0758 425.618 51.8088C425.495 51.4578 425.628 50.8892 425.628 50.8892H429.169V50.8941ZM426.573 49.0696L426.583 49.0597C426.874 48.7729 427.285 48.6246 427.68 48.6642C428.051 48.6988 428.229 48.8966 428.313 49.0301C428.402 49.1636 428.476 49.6184 428.368 50.009C428.076 50.009 426.85 50.009 425.92 50.009C425.811 50.009 426.439 49.1635 426.568 49.0696M376.802 50.7655C376.802 50.7655 377.242 49.2575 376.896 48.5406C376.679 48.1401 376.169 47.8632 375.561 47.8187C375.067 47.7791 374.31 47.878 373.494 48.5455C372.99 48.9559 372.565 49.6283 372.332 50.3848C372.105 51.1166 372.1 51.8039 372.313 52.2143C372.58 52.7186 373.173 53.0153 373.9 53.0153C374.627 53.0153 375.329 52.7483 375.813 52.2934C376.219 51.9522 376.619 51.1858 376.619 51.1858H375.606C375.606 51.1858 374.923 52.1599 374.078 52.1599C373.569 52.1599 373.376 51.8978 373.252 51.6407C373.129 51.3045 373.262 50.7606 373.262 50.7606H376.802V50.7655ZM374.206 49.0152L374.216 49.0053C374.508 48.7284 374.918 48.59 375.319 48.6246C375.69 48.6592 375.868 48.8471 375.952 48.9757C376.041 49.1042 376.115 49.5393 376.006 49.9151C375.714 49.9151 374.488 49.9151 373.559 49.9151C373.45 49.9151 374.078 49.1042 374.206 49.0152ZM388.783 48.0164C388.54 47.8829 388.199 47.8088 387.813 47.8088C387.457 47.8088 387.116 47.878 386.879 47.9967C386.666 48.1005 386.296 48.3428 386.296 48.3477L386.3 48.3329L386.409 47.9373H385.514L383.556 54.642L383.517 54.7705H384.511L384.53 54.6964L385.178 52.4911C385.237 52.5703 385.312 52.6494 385.406 52.7186C385.499 52.7878 385.851 53.0251 386.439 53.0251C387.027 53.0251 387.576 52.8125 388.105 52.3972C388.718 51.9275 389.232 51.0474 389.406 50.1475C389.613 49.1537 389.376 48.3576 388.773 48.0214M387.581 51.6308C387.294 51.9077 386.904 52.0659 386.508 52.056C386.167 52.0461 385.885 51.8978 385.766 51.6704C385.608 51.3391 385.588 50.1524 386.464 49.1883C386.716 48.9163 387.096 48.7433 387.477 48.7136C387.853 48.6889 388.15 48.8273 388.268 49.0795C388.619 49.836 388.105 51.1265 387.581 51.6308ZM404.333 47.9472C404.333 47.9472 404.259 48.2043 404.209 48.4021C403.957 48.0263 403.576 47.8236 403.067 47.8088C402.271 47.7841 401.44 48.3823 401.213 48.5949C400.689 49.124 400.293 49.9645 400.056 50.7655C399.65 52.15 400.491 53.2081 401.386 53.2279C402.029 53.2378 402.582 52.9263 403.008 52.6098C402.874 52.9164 402.741 53.7223 401.964 54.0239C401.747 54.108 401.509 54.1426 401.267 54.1426C401.06 54.1426 400.886 54.0981 400.743 54.0437C400.293 53.8706 400.466 53.3564 400.466 53.3564H399.482C399.482 53.3564 399.121 54.459 400.174 54.8892C400.461 55.0079 400.822 55.1018 401.277 55.0375C403.067 54.9238 403.616 53.7075 404.145 52.1154L405.322 47.9472H404.328H404.333ZM402.805 51.9324C402.488 52.1945 402.118 52.323 401.796 52.2884C401.465 52.2686 401.218 52.1055 401.094 51.8236C400.975 51.5319 401 51.0968 401.158 50.5925C401.302 50.1475 401.529 49.7322 401.683 49.5344C402.103 48.9757 402.577 48.8669 402.904 48.8718C403.28 48.8817 403.547 49.0597 403.576 49.1339V49.1438L403.586 49.1537C403.942 49.6778 403.576 51.2897 402.8 51.9374M412.372 48.4021C412.002 47.9126 411.393 47.8088 410.948 47.8088C410.266 47.8088 408.605 48.0708 407.922 50.4837C407.655 51.438 407.7 52.1599 408.056 52.6345C408.348 53.0153 408.852 53.2279 409.48 53.2279C410.162 53.2279 411.828 52.9658 412.511 50.543C412.778 49.5937 412.733 48.8718 412.377 48.4021M411.512 50.4837C411.275 51.3292 410.602 52.239 409.697 52.239C409.396 52.239 409.168 52.1401 409.02 51.9473C408.753 51.5913 408.793 50.988 408.916 50.543C409.154 49.7025 409.821 48.7977 410.726 48.7977C411.032 48.7977 411.26 48.8966 411.408 49.0894C411.675 49.4404 411.631 50.0387 411.507 50.4837M365.479 51.8879C365.47 51.9225 365.465 51.972 365.479 51.9967C365.504 52.0264 365.613 52.0857 366.058 52.0115L366.221 51.9819L365.964 52.9312C365.964 52.9312 365.331 53.0301 365.01 53.0004C364.723 52.9708 364.575 52.8224 364.5 52.7087C364.382 52.5258 364.372 52.2934 364.412 52.145L365.415 48.4367H364.738L365 47.4676H365.667L366.048 46.0931H367.042L366.676 47.4676H367.442L367.18 48.4367H366.414L365.484 51.883L365.479 51.8879ZM371.878 49.2575V49.2476L370.815 53.0153H369.821C369.821 53.0153 370.795 49.569 370.795 49.564C370.988 48.9954 370.765 48.8817 370.681 48.8422C370.429 48.7136 370.206 48.679 369.959 48.7235C369.732 48.7631 369.47 48.8867 369.119 49.1191C368.916 49.2773 368.768 49.3959 368.654 49.7865L367.739 53.0153H366.745L368.708 46.0585H369.702L369.049 48.3724C369.049 48.3724 369.306 48.1351 369.831 47.9423C370.098 47.8533 370.335 47.8088 370.557 47.8088C370.839 47.8088 371.106 47.8681 371.334 47.9818C371.571 48.0758 371.739 48.234 371.838 48.4565C371.976 48.7779 371.917 49.1388 371.868 49.2575M384.1 48.2834C384.313 48.5603 384.357 48.9509 384.224 49.4355L384.204 49.5146H383.225C383.225 49.5146 383.334 49.0746 383.245 48.9559C383.136 48.8125 382.874 48.7383 382.473 48.7383C382.028 48.7383 381.638 48.9856 381.47 49.213C381.381 49.3366 381.341 49.4602 381.361 49.564C381.376 49.6333 381.415 49.6877 381.485 49.7272C381.687 49.8607 382.009 49.9448 382.419 50.0535C382.419 50.0535 382.488 50.0733 382.478 50.0684C382.829 50.1277 383.23 50.2217 383.537 50.454C383.907 50.7161 383.996 51.2254 383.759 51.7792C383.532 52.3181 383.062 52.7779 382.503 53.0004C382.231 53.1092 381.895 53.1784 381.519 53.213C381.193 53.213 380.852 53.213 380.58 53.1438C380.199 53.0499 379.927 52.8669 379.774 52.6049C379.601 52.3082 379.581 51.9225 379.719 51.433L379.739 51.3539H380.684L380.654 51.4825C380.56 51.9028 380.718 52.1549 381.158 52.3033C381.307 52.3527 381.549 52.3527 381.781 52.3527C382.024 52.2934 382.276 52.2291 382.414 52.145C382.612 52.0264 382.785 51.8088 382.839 51.616C382.904 51.3787 382.815 51.2204 382.562 51.1265L382.152 51.0227C381.668 50.904 381.163 50.7804 380.876 50.6271C380.545 50.4887 380.209 50.1524 380.446 49.3218C380.743 48.2736 381.846 47.7939 382.745 47.7939C383.403 47.7939 383.858 47.9522 384.1 48.2686M392.293 48.9361C391.69 49.2031 391.329 49.6234 391.106 50.4145L390.37 53.0153H389.376L390.81 47.9472H391.804L391.67 48.4268C391.67 48.4268 392.1 47.8434 392.827 47.8088H393.401L393.109 48.8323C393.109 48.8323 392.832 48.6988 392.298 48.9361M394.993 47.9472L393.559 53.0153H392.565L393.999 47.9472H394.993ZM395.195 47.2303H394.202L394.533 46.0585H395.527L395.195 47.2303ZM399.828 49.1487V49.1586V49.1636L398.741 53.0153H397.747L398.741 49.5047C398.81 49.2723 398.795 49.0795 398.696 48.946C398.592 48.8026 398.39 48.7235 398.132 48.7235C397.831 48.7235 396.827 48.8422 396.417 50.3601L395.665 53.0202H394.671L396.1 47.9522H397.094L396.99 48.323L397.43 48.0511C397.786 47.8286 398.261 47.8088 398.513 47.8137C398.84 47.8236 399.181 47.8829 399.324 47.9621C399.527 48.0906 399.942 48.3576 399.833 49.1586M416.466 46.0683L416.575 46.0931L416.338 46.9336L416.249 46.9237C415.794 46.8693 415.557 46.9237 415.428 47.3638L415.265 47.9423H416.041L415.779 48.8619H415.003L413.831 53.0054H412.837L414.004 48.8619H413.351L413.613 47.9373H414.271L414.479 47.1907C414.701 46.3947 415.463 46.0683 415.641 46.0535C415.918 46.0041 416.185 46.0041 416.466 46.0634M420.709 46.192L418.805 52.9361L418.785 53.0103H417.791L417.831 52.8768L419.735 46.1326L419.754 46.0585H420.748L420.709 46.192ZM422.217 48.0807L420.842 52.9361L420.822 53.0103H419.829L419.868 52.8768L421.243 48.0214L421.262 47.9472H422.256L422.217 48.0807ZM421.599 47.2303H421.46L421.5 47.0968L421.772 46.1326L421.791 46.0585H422.785L422.746 46.192L422.474 47.1561L422.454 47.2352H421.599V47.2303ZM425.836 46.1128L425.599 46.9534L425.51 46.9435C425.055 46.8891 424.817 46.9435 424.689 47.3836L424.531 47.9423H425.307L425.045 48.8619H424.269L423.097 53.0054H422.103L423.27 48.8619H422.617L422.879 47.9373H423.537L423.74 47.2105C423.967 46.4145 424.724 46.0881 424.902 46.0733C425.178 46.0238 425.445 46.0238 425.722 46.0832L425.836 46.1079V46.1128Z" fill="white"/>
</g>
<rect x="695" y="28" width="33" height="4" rx="2" fill="white"/>
<rect x="695" y="37" width="33" height="4" rx="2" fill="white"/>
<rect x="695" y="46" width="33" height="4" rx="2" fill="white"/>
<defs>
<clipPath id="clip0_2667_22827">
<rect width="140.155" height="32.1239" fill="white" transform="translate(297.422 22.9375)"/>
</clipPath>
</defs>
</svg>
