<svg width="768" height="78" viewBox="0 0 768 78" fill="none" xmlns="http://www.w3.org/2000/svg">
<mask id="path-1-inside-1_2638_14227" fill="white">
<path d="M0 0H768V78H0V0Z"/>
</mask>
<path d="M768 78V77H0V78V79H768V78Z" fill="white" fill-opacity="0.1" mask="url(#path-1-inside-1_2638_14227)"/>
<g clip-path="url(#clip0_2638_14227)">
<path fill-rule="evenodd" clip-rule="evenodd" d="M300.166 25.9789C301.971 24.1049 304.507 22.938 307.316 22.938C311.919 22.938 315.79 26.0728 316.913 30.325C316.913 30.325 313.437 30.3794 311.242 30.0778C308.809 29.7416 307.419 29.4499 305.13 28.5648C303.093 27.7786 300.171 25.9789 300.171 25.9789M317.145 31.5117C317.111 31.2645 317.071 31.0222 317.017 30.7799C317.017 30.7799 312.136 30.8491 309.071 30.3745C305.748 29.8602 303.81 29.5191 300.754 28.1149C300.102 27.8132 299.741 27.5957 299.108 27.2842C298.772 27.7737 298.48 28.2978 298.238 28.8466C298.238 28.8466 300.171 29.4993 301.427 29.8355C304.102 30.5475 305.669 30.7403 308.413 31.0667C311.795 31.4721 317.14 31.5117 317.14 31.5117M308.507 32.4313L317.224 32.4709C317.219 32.3077 317.209 32.1446 317.195 31.9814C317.195 31.9814 311.459 32.0259 307.815 31.7045C303.864 31.3535 301.536 30.9579 297.763 30.1569C297.59 30.775 297.471 31.4177 297.422 32.0803L308.507 32.4313ZM300.166 39.4821C301.971 41.356 304.507 42.5229 307.311 42.5229C311.914 42.5229 315.785 39.3881 316.908 35.1359C316.908 35.1359 313.432 35.0815 311.237 35.3832C308.804 35.7194 307.415 36.0111 305.125 36.8961C303.088 37.6823 300.166 39.4821 300.166 39.4821ZM308.418 34.3943C305.669 34.7255 304.107 34.9134 301.432 35.6254C300.171 35.9617 298.243 36.6143 298.243 36.6143C298.485 37.1631 298.777 37.6873 299.113 38.1768C299.746 37.8603 300.107 37.6477 300.759 37.3461C303.81 35.9419 305.753 35.6007 309.076 35.0865C312.141 34.6118 317.022 34.681 317.022 34.681C317.071 34.4388 317.116 34.1965 317.15 33.9493C317.15 33.9493 311.805 33.9888 308.423 34.3943M297.422 33.3807C297.471 34.0432 297.59 34.686 297.763 35.304C301.541 34.503 303.864 34.1075 307.815 33.7564C311.459 33.4351 317.195 33.4796 317.195 33.4796C317.209 33.3164 317.219 33.1582 317.224 32.995L308.507 33.0296L297.422 33.3807Z" fill="#E42313"/>
<path d="M328.828 41.9691C334.425 41.9691 339.192 37.9987 340.522 33.0296C341.204 30.4931 340.819 28.1099 339.444 26.32C338.129 24.6092 336.067 23.6649 333.634 23.6649C328.655 23.6649 323.523 27.7094 322.188 32.6785L318.148 47.759L323.221 45.1236L326.46 33.0345C327.207 30.2508 330.069 27.9863 332.843 27.9863C334.074 27.9863 335.103 28.4461 335.741 29.2768C336.418 30.1618 336.601 31.3683 336.25 32.6785C335.503 35.4622 332.606 37.8059 329.867 37.7268C327.128 37.6477 326.455 36.5352 326.455 36.5352L325.318 40.6489C325.318 40.6489 326.035 41.979 328.828 41.979" fill="white"/>
<path fill-rule="evenodd" clip-rule="evenodd" d="M435.855 23.6204C434.915 23.6204 434.119 24.3422 434.119 25.3212C434.119 26.3002 434.915 27.032 435.855 27.032C436.794 27.032 437.58 26.3101 437.58 25.3212C437.58 24.3324 436.784 23.6204 435.855 23.6204ZM435.855 26.7502C435.073 26.7502 434.465 26.147 434.465 25.3262C434.465 24.5054 435.073 23.9071 435.855 23.9071C436.636 23.9071 437.234 24.5153 437.234 25.3262C437.234 26.1371 436.626 26.7502 435.855 26.7502ZM436.641 24.9059C436.641 24.5153 436.408 24.3472 435.944 24.3472H435.192V26.3151H435.489V25.4597H435.83L436.349 26.3151H436.685L436.127 25.4498C436.413 25.4152 436.636 25.2619 436.636 24.9059M435.494 25.2075V24.5994H435.899C436.107 24.5994 436.329 24.6439 436.329 24.8861C436.329 25.1877 436.102 25.2075 435.85 25.2075H435.494Z" fill="white"/>
<path fill-rule="evenodd" clip-rule="evenodd" d="M346.055 30.6612C347.355 28.9752 349.372 27.8676 351.286 27.8676H353.807L353.941 27.3584L354.732 24.4115L354.964 23.5462H352.077C347.098 23.5462 341.966 27.5907 340.631 32.5599C339.948 35.0964 340.334 37.4796 341.703 39.2695C343.019 40.9802 345.081 41.9246 347.513 41.9246H350.035L350.168 41.4153L350.959 38.4685L351.192 37.6032H348.304C346.46 37.6032 345.125 36.5698 344.804 34.9629H344.818H351.35H351.874L352.013 34.4536L352.804 31.5067L353.036 30.6414H346.079L346.055 30.6612Z" fill="white"/>
<path fill-rule="evenodd" clip-rule="evenodd" d="M358.046 37.6032L356.483 37.618L356.582 37.5884L358.179 31.4672L358.412 30.6019H354.046L353.907 31.1112L351.242 41.0593L351.01 41.9246H357.264C362.243 41.9246 367.376 37.8801 368.711 32.9109C369.388 30.3744 369.007 27.9912 367.633 26.1964C366.318 24.4856 364.256 23.5413 361.823 23.5413H355.939L355.801 24.0505L355.01 26.9974L354.777 27.8627H361.032C362.253 27.8627 363.272 28.3176 363.905 29.1383C364.582 30.0234 364.76 31.2348 364.409 32.5549C363.663 35.3386 360.8 37.6032 358.026 37.6032" fill="white"/>
<path fill-rule="evenodd" clip-rule="evenodd" d="M380.873 29.4597C381.294 27.8825 381.051 26.3991 380.196 25.2767C379.375 24.1989 378.09 23.6055 376.577 23.6055L371.163 23.5907L370.011 27.9072H375.8C376.122 27.9072 376.374 28.011 376.532 28.2137C376.7 28.4313 376.74 28.7477 376.646 29.1037C376.419 29.9492 375.529 30.6612 374.698 30.6612H374.668L369.378 30.6711L366.342 42.0383H370.703L372.596 34.9431H373.318L375.519 42.0383H380.157L377.645 33.7762C377.645 33.7762 380.374 31.3337 380.873 29.4597Z" fill="white"/>
<path fill-rule="evenodd" clip-rule="evenodd" d="M406.902 32.5747C406.224 35.1112 406.605 37.4944 407.975 39.2843C409.29 40.9951 411.352 41.9592 413.784 41.9592H414.852L416.014 37.623H414.571C413.339 37.623 412.311 37.1631 411.673 36.3325C410.996 35.4474 410.818 34.241 411.164 32.9307L413.676 23.5511H409.31L406.892 32.5747H406.902Z" fill="white"/>
<path fill-rule="evenodd" clip-rule="evenodd" d="M397.892 32.5797C397.215 35.1161 397.595 37.4994 398.965 39.2892C400.28 41 402.342 41.9444 404.775 41.9444L404.611 41.9246L404.775 41.9642H405.843L407.005 37.6279H405.561C404.33 37.6279 403.301 37.1681 402.663 36.3374C401.986 35.4524 401.803 34.2459 402.154 32.9357L404.666 23.5561H400.3L397.882 32.5797H397.892Z" fill="white"/>
<path fill-rule="evenodd" clip-rule="evenodd" d="M433.027 26.2459C431.712 24.5351 429.65 23.5907 427.217 23.5907C422.243 23.5907 417.111 27.6303 415.781 32.5945C415.103 35.131 415.484 37.5142 416.854 39.3041C418.169 41.0148 420.231 41.9592 422.663 41.9592C427.637 41.9592 432.77 37.9196 434.1 32.9554C434.777 30.4189 434.396 28.0357 433.027 26.2459ZM429.833 32.5994C429.086 35.3831 426.228 37.6427 423.454 37.6427C422.223 37.6427 421.195 37.1829 420.557 36.3522C419.88 35.4672 419.702 34.2608 420.053 32.9505C420.799 30.1668 423.657 27.9072 426.431 27.9072C427.662 27.9072 428.691 28.367 429.328 29.1977C430.006 30.0827 430.189 31.2892 429.838 32.5994" fill="white"/>
<path fill-rule="evenodd" clip-rule="evenodd" d="M396.759 26.2805C395.444 24.5697 393.382 23.6253 390.95 23.6253C385.975 23.6253 380.843 27.6649 379.513 32.6291C378.836 35.1656 379.216 37.5488 380.586 39.3387C381.901 41.0494 383.963 41.9938 386.396 41.9938C391.37 41.9938 396.502 37.9542 397.832 32.99C398.51 30.4535 398.129 28.0703 396.759 26.2805ZM393.565 32.634C392.819 35.4177 389.956 37.6773 387.187 37.6773C385.956 37.6773 384.927 37.2175 384.289 36.3869C383.612 35.5018 383.429 34.2954 383.78 32.9851C384.527 30.2014 387.39 27.9418 390.158 27.9418C391.385 27.9418 392.418 28.4016 393.056 29.2323C393.733 30.1173 393.911 31.3238 393.565 32.634Z" fill="white"/>
<path d="M429.171 50.8938C429.171 50.8938 429.611 49.3215 429.264 48.5699C429.047 48.1496 428.538 47.8629 427.929 47.8134C427.435 47.7739 426.679 47.8728 425.863 48.5699C425.358 48.9951 424.933 49.6972 424.701 50.4884C424.473 51.2547 424.468 51.9667 424.681 52.3969C424.948 52.921 425.541 53.2325 426.268 53.2325C426.995 53.2325 427.697 52.9507 428.182 52.481C428.587 52.125 428.988 51.3289 428.988 51.3289H427.974C427.974 51.3289 427.292 52.3475 426.446 52.3475C425.937 52.3475 425.744 52.0755 425.62 51.8085C425.497 51.4575 425.63 50.8888 425.63 50.8888H429.171V50.8938ZM426.575 49.0693L426.585 49.0594C426.876 48.7726 427.287 48.6243 427.682 48.6639C428.053 48.6985 428.231 48.8962 428.315 49.0297C428.404 49.1632 428.478 49.6181 428.37 50.0087C428.078 50.0087 426.852 50.0087 425.922 50.0087C425.813 50.0087 426.441 49.1632 426.57 49.0693M376.804 50.7652C376.804 50.7652 377.244 49.2572 376.898 48.5402C376.681 48.1397 376.171 47.8629 375.563 47.8184C375.069 47.7788 374.312 47.8777 373.496 48.5452C372.992 48.9556 372.567 49.628 372.334 50.3845C372.107 51.1163 372.102 51.8036 372.315 52.214C372.582 52.7183 373.175 53.015 373.902 53.015C374.629 53.015 375.331 52.748 375.815 52.2931C376.221 51.9519 376.621 51.1855 376.621 51.1855H375.608C375.608 51.1855 374.925 52.1596 374.08 52.1596C373.571 52.1596 373.378 51.8975 373.254 51.6404C373.13 51.3042 373.264 50.7603 373.264 50.7603H376.804V50.7652ZM374.208 49.0149L374.218 49.005C374.51 48.7281 374.92 48.5897 375.321 48.6243C375.692 48.6589 375.87 48.8468 375.954 48.9754C376.043 49.1039 376.117 49.539 376.008 49.9148C375.716 49.9148 374.49 49.9148 373.561 49.9148C373.452 49.9148 374.08 49.1039 374.208 49.0149ZM388.785 48.0161C388.542 47.8826 388.201 47.8085 387.815 47.8085C387.459 47.8085 387.118 47.8777 386.881 47.9964C386.668 48.1002 386.297 48.3425 386.297 48.3474L386.302 48.3326L386.411 47.937H385.516L383.558 54.6417L383.519 54.7702H384.513L384.532 54.6961L385.18 52.4908C385.239 52.57 385.314 52.6491 385.407 52.7183C385.501 52.7875 385.852 53.0248 386.441 53.0248C387.029 53.0248 387.578 52.8122 388.107 52.3969C388.72 51.9272 389.234 51.0471 389.407 50.1472C389.615 49.1534 389.378 48.3573 388.775 48.0211M387.583 51.6305C387.296 51.9074 386.906 52.0656 386.51 52.0557C386.169 52.0458 385.887 51.8975 385.768 51.6701C385.61 51.3388 385.59 50.1521 386.466 49.188C386.718 48.916 387.098 48.743 387.479 48.7133C387.855 48.6886 388.152 48.827 388.27 49.0792C388.621 49.8357 388.107 51.1262 387.583 51.6305ZM404.335 47.9469C404.335 47.9469 404.261 48.204 404.211 48.4018C403.959 48.026 403.578 47.8233 403.069 47.8085C402.273 47.7838 401.442 48.382 401.215 48.5946C400.691 49.1237 400.295 49.9642 400.058 50.7652C399.652 52.1497 400.493 53.2078 401.388 53.2276C402.031 53.2374 402.584 52.9259 403.01 52.6095C402.876 52.9161 402.743 53.722 401.966 54.0236C401.749 54.1077 401.511 54.1423 401.269 54.1423C401.061 54.1423 400.888 54.0978 400.745 54.0434C400.295 53.8703 400.468 53.3561 400.468 53.3561H399.484C399.484 53.3561 399.123 54.4587 400.176 54.8889C400.463 55.0076 400.824 55.1015 401.279 55.0372C403.069 54.9235 403.618 53.7072 404.147 52.1151L405.324 47.9469H404.33H404.335ZM402.807 51.9321C402.49 52.1942 402.12 52.3227 401.798 52.2881C401.467 52.2683 401.22 52.1052 401.096 51.8233C400.977 51.5316 401.002 51.0965 401.16 50.5922C401.304 50.1472 401.531 49.7319 401.684 49.5341C402.105 48.9754 402.579 48.8666 402.906 48.8715C403.282 48.8814 403.549 49.0594 403.578 49.1336V49.1435L403.588 49.1534C403.944 49.6775 403.578 51.2893 402.802 51.9371M412.374 48.4018C412.003 47.9123 411.395 47.8085 410.95 47.8085C410.268 47.8085 408.607 48.0705 407.924 50.4834C407.657 51.4377 407.702 52.1596 408.058 52.6342C408.35 53.0149 408.854 53.2276 409.482 53.2276C410.164 53.2276 411.83 52.9655 412.513 50.5427C412.78 49.5934 412.735 48.8715 412.379 48.4018M411.514 50.4834C411.277 51.3289 410.604 52.2387 409.699 52.2387C409.398 52.2387 409.17 52.1398 409.022 51.947C408.755 51.591 408.795 50.9877 408.918 50.5427C409.156 49.7022 409.823 48.7974 410.728 48.7974C411.034 48.7974 411.262 48.8962 411.41 49.0891C411.677 49.4401 411.633 50.0384 411.509 50.4834M365.481 51.8876C365.472 51.9222 365.467 51.9717 365.481 51.9964C365.506 52.0261 365.615 52.0854 366.06 52.0112L366.223 51.9816L365.966 52.9309C365.966 52.9309 365.333 53.0298 365.012 53.0001C364.725 52.9704 364.577 52.8221 364.502 52.7084C364.384 52.5255 364.374 52.2931 364.413 52.1447L365.417 48.4364H364.74L365.002 47.4673H365.669L366.05 46.0928H367.044L366.678 47.4673H367.444L367.182 48.4364H366.416L365.486 51.8827L365.481 51.8876ZM371.88 49.2572V49.2473L370.816 53.015H369.823C369.823 53.015 370.797 49.5687 370.797 49.5637C370.99 48.9951 370.767 48.8814 370.683 48.8419C370.431 48.7133 370.208 48.6787 369.961 48.7232C369.734 48.7627 369.472 48.8864 369.121 49.1187C368.918 49.277 368.769 49.3956 368.656 49.7862L367.741 53.015H366.747L368.71 46.0581H369.704L369.051 48.3721C369.051 48.3721 369.308 48.1348 369.833 47.942C370.1 47.853 370.337 47.8085 370.559 47.8085C370.841 47.8085 371.108 47.8678 371.336 47.9815C371.573 48.0755 371.741 48.2337 371.84 48.4562C371.978 48.7776 371.919 49.1385 371.87 49.2572M384.102 48.2831C384.315 48.56 384.359 48.9506 384.226 49.4352L384.206 49.5143H383.227C383.227 49.5143 383.336 49.0742 383.247 48.9556C383.138 48.8122 382.876 48.738 382.475 48.738C382.03 48.738 381.64 48.9852 381.472 49.2127C381.383 49.3363 381.343 49.4599 381.363 49.5637C381.378 49.633 381.417 49.6874 381.487 49.7269C381.689 49.8604 382.011 49.9445 382.421 50.0532C382.421 50.0532 382.49 50.073 382.48 50.0681C382.831 50.1274 383.232 50.2214 383.538 50.4537C383.909 50.7158 383.998 51.2251 383.761 51.7788C383.534 52.3178 383.064 52.7776 382.505 53.0001C382.233 53.1089 381.897 53.1781 381.521 53.2127C381.195 53.2127 380.854 53.2127 380.582 53.1435C380.201 53.0496 379.929 52.8666 379.776 52.6046C379.603 52.3079 379.583 51.9222 379.721 51.4327L379.741 51.3536H380.686L380.656 51.4822C380.562 51.9025 380.72 52.1546 381.16 52.303C381.309 52.3524 381.551 52.3524 381.783 52.3524C382.025 52.2931 382.278 52.2288 382.416 52.1447C382.614 52.0261 382.787 51.8085 382.841 51.6157C382.906 51.3783 382.817 51.2201 382.564 51.1262L382.154 51.0223C381.669 50.9037 381.165 50.7801 380.878 50.6268C380.547 50.4884 380.211 50.1521 380.448 49.3215C380.745 48.2732 381.847 47.7936 382.747 47.7936C383.405 47.7936 383.86 47.9519 384.102 48.2683M392.295 48.9358C391.692 49.2028 391.331 49.6231 391.108 50.4142L390.372 53.015H389.378L390.812 47.9469H391.806L391.672 48.4265C391.672 48.4265 392.102 47.8431 392.829 47.8085H393.403L393.111 48.832C393.111 48.832 392.834 48.6985 392.3 48.9358M394.995 47.9469L393.561 53.015H392.567L394.001 47.9469H394.995ZM395.197 47.23H394.204L394.535 46.0581H395.529L395.197 47.23ZM399.83 49.1484V49.1583V49.1632L398.743 53.015H397.749L398.743 49.5044C398.812 49.272 398.797 49.0792 398.698 48.9457C398.594 48.8023 398.392 48.7232 398.134 48.7232C397.833 48.7232 396.829 48.8419 396.419 50.3598L395.667 53.0199H394.673L396.102 47.9519H397.096L396.992 48.3227L397.432 48.0508C397.788 47.8283 398.263 47.8085 398.515 47.8134C398.841 47.8233 399.183 47.8826 399.326 47.9618C399.529 48.0903 399.944 48.3573 399.835 49.1583M416.468 46.068L416.577 46.0928L416.34 46.9333L416.251 46.9234C415.796 46.869 415.559 46.9234 415.43 47.3635L415.267 47.942H416.043L415.781 48.8616H415.005L413.833 53.0051H412.839L414.006 48.8616H413.353L413.615 47.937H414.273L414.481 47.1904C414.703 46.3944 415.465 46.068 415.643 46.0532C415.919 46.0038 416.186 46.0038 416.468 46.0631M420.711 46.1916L418.807 52.9358L418.787 53.01H417.793L417.833 52.8765L419.737 46.1323L419.756 46.0581H420.75L420.711 46.1916ZM422.219 48.0804L420.844 52.9358L420.824 53.01H419.831L419.87 52.8765L421.245 48.0211L421.264 47.9469H422.258L422.219 48.0804ZM421.601 47.23H421.462L421.502 47.0965L421.774 46.1323L421.793 46.0581H422.787L422.748 46.1916L422.476 47.1558L422.456 47.2349H421.601V47.23ZM425.838 46.1125L425.601 46.9531L425.512 46.9432C425.057 46.8888 424.819 46.9432 424.691 47.3833L424.533 47.942H425.309L425.047 48.8616H424.271L423.099 53.0051H422.105L423.272 48.8616H422.619L422.881 47.937H423.539L423.742 47.2102C423.969 46.4141 424.725 46.0878 424.903 46.073C425.18 46.0235 425.447 46.0235 425.724 46.0829L425.838 46.1076V46.1125Z" fill="white"/>
</g>
<rect x="695" y="28" width="33" height="4" rx="2" fill="white"/>
<rect x="695" y="37" width="33" height="4" rx="2" fill="white"/>
<rect x="695" y="46" width="33" height="4" rx="2" fill="white"/>
<defs>
<clipPath id="clip0_2638_14227">
<rect width="140.155" height="32.1239" fill="white" transform="translate(297.422 22.938)"/>
</clipPath>
</defs>
</svg>
