<svg width="55" height="55" viewBox="0 0 55 55" fill="none" xmlns="http://www.w3.org/2000/svg">
<path fill-rule="evenodd" clip-rule="evenodd" d="M27.4657 33.0733L23.1907 28.7912L14.5998 37.3958C13.7944 38.2025 13.7944 39.5066 14.5998 40.3133L15.9421 41.6578C16.3345 42.0509 16.8465 42.2525 17.3616 42.2624C17.9005 42.2729 18.4427 42.0736 18.8548 41.6645L18.8582 41.6612L18.8616 41.6578V41.6645L27.4657 33.0733ZM17.3616 43.7626C16.4622 43.7525 15.566 43.4042 14.8806 42.7176L13.5383 41.3731C12.1482 39.9808 12.1482 37.7283 13.5383 36.336L23.1905 26.6681L29.587 33.0749C29.587 33.0749 20.1455 42.2188 19.2393 42.9844C18.333 43.75 17.3616 43.7626 17.3616 43.7626Z" fill="#747DA1"/>
<path fill-rule="evenodd" clip-rule="evenodd" d="M18.5588 13.2872C19.0951 13.1439 19.6491 13.0676 20.2054 13.0597C23.9437 13.1134 26.9639 16.1385 27.0109 19.8829C27.0041 20.7501 26.8229 21.6039 26.4806 22.3971L41.4943 37.4351C42.5346 38.4368 42.5748 40.0905 41.5748 41.1325L41.4943 41.2131C40.4943 42.2551 38.8432 42.2954 37.803 41.2938L22.7088 26.1751C21.9168 26.5179 21.0645 26.6994 20.1987 26.7062C16.4604 26.6524 13.4402 23.6273 13.3932 19.8829C13.4011 19.3257 13.4773 18.7708 13.6203 18.2336C13.7189 17.8635 13.8491 17.5019 14.0107 17.1536L14.2053 16.6965L18.2322 20.7299C18.9705 21.5097 20.2054 21.5366 20.9839 20.7972L21.051 20.7299C21.8296 19.9905 21.8631 18.7603 21.1249 17.9805L17.0241 13.8731L17.4805 13.6781C17.8282 13.5163 18.1893 13.3859 18.5588 13.2872ZM16.8705 12.3076C17.913 11.8265 19.0466 11.5761 20.1839 11.5598L20.2054 11.5595L20.227 11.5598C24.7785 11.6253 28.4536 15.3077 28.5107 19.8641L28.5109 19.8793L28.5108 19.8945C28.5053 20.6117 28.4029 21.3211 28.2089 22.0051L42.5465 36.366C44.1656 37.9371 44.2318 40.5303 42.6571 42.1711L42.6468 42.1818L42.5936 42.2351C42.592 42.2367 42.5952 42.2335 42.5936 42.2351L42.5651 42.2636C40.9953 43.8865 38.4022 43.9531 36.7626 42.3743L36.7519 42.3641L22.3157 27.9045C21.6334 28.0982 20.9257 28.2006 20.2103 28.2061L20.1937 28.2062L20.1771 28.206C15.6255 28.1405 11.9505 24.4581 11.8933 19.9017L11.8931 19.8816L11.8934 19.8615C11.9096 18.7233 12.1593 17.5888 12.6394 16.5452L13.6961 14.0634L19.3078 19.6842L19.3215 19.6987C19.481 19.8672 19.7579 19.8831 19.9413 19.7184L20.0036 19.656L20.018 19.6423C20.1943 19.4749 20.2038 19.1997 20.0443 19.0212L14.3966 13.3643L16.8705 12.3076Z" fill="#747DA1"/>
<path fill-rule="evenodd" clip-rule="evenodd" d="M39.5033 21.5175L38.5937 21.3049L31.999 27.9103L28.3156 24.221L34.8821 17.6438L34.6323 16.782L40.7609 11.5068L44.7473 15.4997L39.5033 21.5175ZM42.6971 15.5692L38.9655 19.8514L38.7642 19.8043C38.5293 19.7438 38.2809 19.7169 38.0393 19.7371L31.9991 25.7871L30.4352 24.221L36.4756 18.1708C36.4957 17.9422 36.4756 17.7137 36.4017 17.4985L36.3413 17.2901L40.6837 13.5525L42.6971 15.5692Z" fill="#747DA1"/>
</svg>
