<svg width="50" height="50" viewBox="0 0 50 50" fill="none" xmlns="http://www.w3.org/2000/svg">
<path d="M43.0287 16.9102H6.36328V38.4865H43.0287V16.9102Z" fill="#4064DF" fill-opacity="0.5"/>
<path d="M30.6836 27.5084V38.5006H18.7065V27.5084C18.7065 26.2083 19.7702 25.1445 21.0704 25.1445H28.3197C29.6198 25.1445 30.6836 26.2083 30.6836 27.5084Z" fill="#4064DF"/>
<path d="M6.1941 11.5131H18.1581V17.9351C18.1581 19.8919 16.569 21.4678 14.6254 21.4678H8.03269C6.0759 21.4678 4.5 19.8787 4.5 17.9351V13.2073C4.5 12.2617 5.26169 11.5 6.20725 11.5L6.1941 11.5131Z" fill="#4064DF"/>
<path d="M18.1562 11.5137H31.8275V17.9356C31.8275 19.8924 30.2384 21.4683 28.2948 21.4683H21.7021C19.7453 21.4683 18.1694 19.8793 18.1694 17.9356V11.5137H18.1562Z" fill="#4064DF"/>
<path d="M31.8281 11.5137H43.7921C44.7376 11.5137 45.4993 12.2754 45.4993 13.2209V17.9487C45.4993 19.9055 43.9103 21.4815 41.9666 21.4815H35.374C33.4172 21.4815 31.8412 19.8924 31.8412 17.9487V11.5268L31.8281 11.5137Z" fill="#4064DF"/>
</svg>
