<svg width="50" height="50" viewBox="0 0 50 50" fill="none" xmlns="http://www.w3.org/2000/svg">
<path d="M49.8601 25.7885L43.687 16.5335C43.226 15.8345 42.4488 15.4174 41.6086 15.4174H32.5V9.58398C32.5 8.20537 31.3786 7.08398 30 7.08398H2.5C1.12139 7.08398 0 8.20537 0 9.58398V36.2507C0 37.6293 1.12139 38.7507 2.5 38.7507H5.07529C5.47393 41.1116 7.52734 42.9174 10 42.9174C12.4727 42.9174 14.5261 41.1116 14.9247 38.7507H30H35.0753C35.4739 41.1116 37.5273 42.9174 40 42.9174C42.4727 42.9174 44.5261 41.1116 44.9247 38.7507H47.5C48.8786 38.7507 50 37.6293 50 36.2507V26.2507C50 26.0863 49.9512 25.9252 49.8601 25.7885ZM10 41.2507C8.16201 41.2507 6.6667 39.7554 6.6667 37.9174C6.6667 36.0794 8.16211 34.5841 10 34.5841C11.8379 34.5841 13.3333 36.0795 13.3333 37.9174C13.3333 39.7553 11.838 41.2507 10 41.2507ZM30.8333 36.2507C30.8333 36.7101 30.4594 37.084 30 37.084H14.9247C14.5261 34.723 12.4727 32.9173 10 32.9173C7.52734 32.9173 5.47393 34.723 5.07529 37.084H2.5C2.04063 37.084 1.6667 36.7101 1.6667 36.2507V9.58398C1.6667 9.12461 2.04063 8.75068 2.5 8.75068H30C30.4594 8.75068 30.8333 9.12461 30.8333 9.58398V36.2507ZM40 41.2507C38.162 41.2507 36.6667 39.7554 36.6667 37.9174C36.6667 36.0794 38.1621 34.5841 40 34.5841C41.8379 34.5841 43.3333 36.0795 43.3333 37.9174C43.3333 39.7553 41.838 41.2507 40 41.2507ZM48.3333 36.2507C48.3333 36.7101 47.9594 37.084 47.5 37.084H44.9247C44.5261 34.723 42.4727 32.9173 40 32.9173C37.5273 32.9173 35.4739 34.723 35.0753 37.084H32.3465C32.4398 36.8221 32.5 36.5442 32.5 36.2507V17.084H35V27.084C35 27.5043 35.3129 27.8587 35.73 27.9108L48.3333 29.4862V36.2507ZM48.3333 27.8067L36.6667 26.3483V17.084H41.6085C41.8872 17.084 42.1439 17.2215 42.2981 17.4547L48.3333 26.5029V27.8067Z" fill="#747CA0"/>
<path d="M7.50059 19.5846C7.96084 19.5846 8.33389 19.2114 8.33389 18.7513C8.33389 18.291 7.96074 17.918 7.50059 17.918H4.16729C3.70703 17.918 3.33398 18.2911 3.33398 18.7513V25.418C3.33398 25.8782 3.70713 26.2513 4.16729 26.2513C4.62744 26.2513 5.00059 25.8781 5.00059 25.418V22.918H7.50059C7.96084 22.918 8.33389 22.5448 8.33389 22.0847C8.33389 21.6245 7.96084 21.2513 7.50059 21.2513H5.00059V19.5846H7.50059Z" fill="#4064DF"/>
<path d="M15.8333 20.418C15.8333 19.0394 14.7119 17.918 13.3333 17.918H10.8333C10.373 17.918 10 18.2911 10 18.7513V25.418C10 25.8782 10.3731 26.2513 10.8333 26.2513C11.2935 26.2513 11.6666 25.8781 11.6666 25.418V22.918H12.6073L14.2769 25.8322C14.4307 26.1012 14.7118 26.2514 15.0008 26.2514C15.1412 26.2514 15.2836 26.216 15.4142 26.1411C15.8133 25.9124 15.9517 25.403 15.723 25.0038L14.3894 22.6757C15.2396 22.2761 15.8333 21.4179 15.8333 20.418ZM13.3333 21.2513H11.6666V19.5846H13.3333C13.7927 19.5846 14.1666 19.9585 14.1666 20.4179C14.1666 20.8772 13.7927 21.2513 13.3333 21.2513Z" fill="#4064DF"/>
<path d="M21.6666 19.5846C22.1269 19.5846 22.4999 19.2114 22.4999 18.7513C22.4999 18.291 22.1268 17.918 21.6666 17.918H18.3333C17.873 17.918 17.5 18.2911 17.5 18.7513V25.418C17.5 25.8782 17.8731 26.2513 18.3333 26.2513H21.6666C22.1269 26.2513 22.4999 25.8781 22.4999 25.418C22.4999 24.9577 22.1268 24.5847 21.6666 24.5847H19.1666V22.918H21.6666C22.1269 22.918 22.4999 22.5448 22.4999 22.0847C22.4999 21.6245 22.1268 21.2514 21.6666 21.2514H19.1666V19.5847L21.6666 19.5846Z" fill="#4064DF"/>
<path d="M28.3326 19.5846C28.7929 19.5846 29.1659 19.2114 29.1659 18.7513C29.1659 18.291 28.7928 17.918 28.3326 17.918H24.9993C24.5391 17.918 24.166 18.2911 24.166 18.7513V25.418C24.166 25.8782 24.5392 26.2513 24.9993 26.2513H28.3326C28.7929 26.2513 29.1659 25.8781 29.1659 25.418C29.1659 24.9577 28.7928 24.5847 28.3326 24.5847H25.8326V22.918H28.3326C28.7929 22.918 29.1659 22.5448 29.1659 22.0847C29.1659 21.6245 28.7928 21.2514 28.3326 21.2514H25.8326V19.5847L28.3326 19.5846Z" fill="#4064DF"/>
</svg>
