<svg width="60" height="60" viewBox="0 0 60 60" fill="none" xmlns="http://www.w3.org/2000/svg">
<g clip-path="url(#clip0_1843_9308)">
<path d="M59.8321 30.9454L52.4244 19.8394C51.8712 19.0006 50.9386 18.5001 49.9303 18.5001H39V11.5C39 9.84566 37.6543 8.5 36 8.5H3C1.34566 8.5 0 9.84566 0 11.5V43.5C0 45.1544 1.34566 46.5 3 46.5H6.09035C6.56871 49.3332 9.03281 51.5001 12 51.5001C14.9672 51.5001 17.4313 49.3332 17.9096 46.5H36H42.0904C42.5687 49.3332 45.0328 51.5001 48 51.5001C50.9672 51.5001 53.4313 49.3332 53.9096 46.5H57C58.6543 46.5 60 45.1544 60 43.5V31.5C60 31.3028 59.9414 31.1095 59.8321 30.9454ZM12 49.5C9.79441 49.5 8.00004 47.7057 8.00004 45.5001C8.00004 43.2945 9.79453 41.5001 12 41.5001C14.2055 41.5001 16 43.2946 16 45.5001C16 47.7055 14.2056 49.5 12 49.5ZM37 43.5C37 44.0513 36.5513 44.5 36 44.5H17.9096C17.4313 41.6669 14.9672 39.5 12 39.5C9.03281 39.5 6.56871 41.6669 6.09035 44.5H3C2.44875 44.5 2.00004 44.0513 2.00004 43.5V11.5C2.00004 10.9488 2.44875 10.5 3 10.5H36C36.5513 10.5 37 10.9488 37 11.5V43.5ZM48 49.5C45.7944 49.5 44 47.7057 44 45.5001C44 43.2945 45.7945 41.5001 48 41.5001C50.2055 41.5001 52 43.2946 52 45.5001C52 47.7055 50.2056 49.5 48 49.5ZM58 43.5C58 44.0513 57.5513 44.5 57 44.5H53.9096C53.4313 41.6669 50.9672 39.5 48 39.5C45.0328 39.5 42.5687 41.6669 42.0904 44.5H38.8158C38.9278 44.1857 39 43.8523 39 43.5V20.5H42V32.5C42 33.0044 42.3755 33.4296 42.876 33.4922L58 35.3827V43.5ZM58 33.3673L44 31.6172V20.5H49.9302C50.2646 20.5 50.5727 20.665 50.7578 20.9448L58 31.8027V33.3673Z" fill="#747CA0"/>
<path d="M8.99992 23.4999C9.55223 23.4999 9.99988 23.0521 9.99988 22.5C9.99988 21.9477 9.55211 21.5 8.99992 21.5H4.99996C4.44766 21.5 4 21.9478 4 22.5V30.5C4 31.0523 4.44777 31.5 4.99996 31.5C5.55215 31.5 5.99992 31.0522 5.99992 30.5V27.5H8.99992C9.55223 27.5 9.99988 27.0522 9.99988 26.5C9.99988 25.9479 9.55223 25.5 8.99992 25.5H5.99992V23.4999H8.99992Z" fill="#4064DF"/>
<path d="M19 24.5C19 22.8457 17.6543 21.5 16 21.5H13C12.4477 21.5 12 21.9478 12 22.5V30.5C12 31.0523 12.4478 31.5 13 31.5C13.5521 31.5 13.9999 31.0522 13.9999 30.5V27.5H15.1288L17.1322 30.9971C17.3168 31.3198 17.6542 31.5001 18.0009 31.5001C18.1695 31.5001 18.3403 31.4577 18.497 31.3678C18.9759 31.0933 19.142 30.4821 18.8677 30.003L17.2672 27.2093C18.2875 26.7297 19 25.6999 19 24.5ZM16 25.5H13.9999V23.4999H16C16.5512 23.4999 16.9999 23.9486 16.9999 24.4999C16.9999 25.0511 16.5512 25.5 16 25.5Z" fill="#4064DF"/>
<path d="M25.9999 23.4999C26.5522 23.4999 26.9999 23.0521 26.9999 22.5C26.9999 21.9477 26.5521 21.5 25.9999 21.5H22C21.4477 21.5 21 21.9478 21 22.5V30.5C21 31.0523 21.4478 31.5 22 31.5H25.9999C26.5522 31.5 26.9999 31.0522 26.9999 30.5C26.9999 29.9477 26.5521 29.5 25.9999 29.5H22.9999V27.5H25.9999C26.5522 27.5 26.9999 27.0522 26.9999 26.5C26.9999 25.9479 26.5521 25.5001 25.9999 25.5001H22.9999V23.5L25.9999 23.4999Z" fill="#4064DF"/>
<path d="M33.9999 23.4999C34.5522 23.4999 34.9999 23.0521 34.9999 22.5C34.9999 21.9477 34.5521 21.5 33.9999 21.5H30C29.4477 21.5 29 21.9478 29 22.5V30.5C29 31.0523 29.4478 31.5 30 31.5H33.9999C34.5522 31.5 34.9999 31.0522 34.9999 30.5C34.9999 29.9477 34.5521 29.5 33.9999 29.5H30.9999V27.5H33.9999C34.5522 27.5 34.9999 27.0522 34.9999 26.5C34.9999 25.9479 34.5521 25.5001 33.9999 25.5001H30.9999V23.5L33.9999 23.4999Z" fill="#4064DF"/>
</g>
<defs>
<clipPath id="clip0_1843_9308">
<rect width="60" height="60" fill="white"/>
</clipPath>
</defs>
</svg>
