<svg width="50" height="50" viewBox="0 0 50 50" fill="none" xmlns="http://www.w3.org/2000/svg">
<path d="M34.4648 10.0234C25.9218 10.0234 19.0273 16.9179 19.0273 25.4609C19.0273 34.004 25.9218 40.8984 34.4648 40.8984C43.0079 40.8984 49.9023 34.004 49.9023 25.5359C49.9023 17.0677 43.0079 10.0234 34.4648 10.0234Z" fill="#4064DF" fill-opacity="0.4"/>
<path d="M39.4098 24.3362C40.6515 24.3362 41.658 23.3297 41.658 22.088C41.658 20.8464 40.6515 19.8398 39.4098 19.8398C38.1682 19.8398 37.1617 20.8464 37.1617 22.088C37.1617 23.3297 38.1682 24.3362 39.4098 24.3362Z" fill="#060606"/>
<path d="M29.5177 24.3362C30.7593 24.3362 31.7659 23.3297 31.7659 22.088C31.7659 20.8464 30.7593 19.8398 29.5177 19.8398C28.2761 19.8398 27.2695 20.8464 27.2695 22.088C27.2695 23.3297 28.2761 24.3362 29.5177 24.3362Z" fill="#060606"/>
<path d="M34.4637 27.2589C30.7917 27.2589 28.6934 29.7319 28.6184 29.8817C28.0189 30.6311 28.1688 31.6803 28.8433 32.2798C29.5926 32.8793 30.6418 32.8044 31.2413 32.055C31.3163 31.98 32.4403 30.7061 34.4637 30.7061C36.4871 30.7061 37.6112 31.98 37.6861 32.055C37.9858 32.5046 38.5104 32.6545 39.035 32.6545C39.4097 32.6545 39.7844 32.5046 40.0842 32.2798C40.8335 31.6803 40.9085 30.6311 40.309 29.8817C40.234 29.7319 38.1357 27.2589 34.4637 27.2589Z" fill="#060606"/>
<path d="M34.1016 25.4609C34.1016 16.0532 26.5093 8.46094 17.1016 8.46094C7.6938 8.46094 0.101562 16.0532 0.101562 25.4609C0.101562 34.8687 7.6938 42.4609 17.1016 42.4609C26.5093 42.4609 34.1016 34.7862 34.1016 25.4609Z" fill="#4064DF"/>
<path d="M20.6508 29.0098C20.5682 29.0923 19.3304 30.4952 17.1022 30.4952C14.8741 30.4952 13.6362 29.0923 13.5537 29.0098C12.8935 28.1846 11.7381 28.102 10.9129 28.7622C10.0876 29.4224 10.0051 30.5778 10.6653 31.403C10.7478 31.4855 13.0585 34.2914 17.1022 34.2914C21.1459 34.2914 23.4566 31.5681 23.5391 31.403C24.1993 30.5778 24.0342 29.4224 23.2915 28.7622C22.4663 28.1846 21.3109 28.2671 20.6508 29.0098Z" fill="#060606"/>
<path d="M11.6554 24.1409C13.0227 24.1409 14.1311 23.0325 14.1311 21.6652C14.1311 20.2979 13.0227 19.1895 11.6554 19.1895C10.2881 19.1895 9.17969 20.2979 9.17969 21.6652C9.17969 23.0325 10.2881 24.1409 11.6554 24.1409Z" fill="#060606"/>
<path d="M22.5488 24.1409C23.9161 24.1409 25.0245 23.0325 25.0245 21.6652C25.0245 20.2979 23.9161 19.1895 22.5488 19.1895C21.1815 19.1895 20.0731 20.2979 20.0731 21.6652C20.0731 23.0325 21.1815 24.1409 22.5488 24.1409Z" fill="#060606"/>
</svg>
