<svg width="291" height="293" viewBox="0 0 291 293" fill="none" xmlns="http://www.w3.org/2000/svg">
<path d="M43.4854 249.664C106.473 205.91 185.76 183.38 284.541 186.218C267.372 247.253 211.588 292 145.416 292C105.644 292 69.6363 275.817 43.4854 249.664ZM13.3906 205.819C94.12 178.672 184.995 164.435 288.627 166.441C288.213 169.508 287.706 172.552 287.103 175.559C175.249 171.362 93.6168 192.87 22.8047 223.581C19.2797 217.912 16.1279 211.984 13.3906 205.819ZM289.869 153.145C289.805 154.526 289.726 155.897 289.624 157.275C173.013 156.169 81.5733 166.061 5.3584 182.615C3.15664 173.97 1.73044 165.03 1.14746 155.841L289.869 153.145ZM5.71289 108.932C90.3466 128.175 184.256 138.452 289.749 137.609C289.857 139.424 289.925 141.243 289.973 143.081L1.05371 138.565C1.59503 128.378 3.18599 118.469 5.71289 108.932ZM23.9727 67.499C82.9063 101.441 170.706 118.685 287.458 119.529C287.939 122.069 288.342 124.385 288.684 126.894C188.296 128.258 96.6891 114.978 12.3486 89.4873C15.5981 81.8034 19.509 74.4592 23.9727 67.499ZM145.416 1C212.416 1.00008 268.782 46.865 285.168 109.081C187.92 110.667 106.343 89.6448 39.0537 47.9502C65.4884 19.0916 103.364 1 145.416 1Z" fill="url(#paint0_linear_4001_6419)" fill-opacity="0.1" stroke="url(#paint1_linear_4001_6419)" stroke-width="2"/>
<defs>
<linearGradient id="paint0_linear_4001_6419" x1="-222.741" y1="259.545" x2="-12.4952" y2="195.526" gradientUnits="userSpaceOnUse">
<stop stop-color="#999999" stop-opacity="0.2"/>
<stop offset="0.447115" stop-color="#999999" stop-opacity="0.4"/>
<stop offset="1" stop-color="#999999" stop-opacity="0.2"/>
</linearGradient>
<linearGradient id="paint1_linear_4001_6419" x1="-222.741" y1="259.545" x2="-12.4952" y2="195.526" gradientUnits="userSpaceOnUse">
<stop stop-color="#999999" stop-opacity="0.2"/>
<stop offset="0.447115" stop-color="#999999" stop-opacity="0.4"/>
<stop offset="1" stop-color="#999999" stop-opacity="0.2"/>
</linearGradient>
</defs>
</svg>
