<svg width="400" height="403" viewBox="0 0 400 403" fill="none" xmlns="http://www.w3.org/2000/svg">
<path d="M59.1533 343.22C145.912 282.769 255.173 251.682 391.339 255.678C367.864 339.99 290.98 401.856 199.746 401.856C144.851 401.856 95.1673 379.431 59.1533 343.22ZM17.8857 282.763C129.027 245.3 254.16 225.669 396.89 228.479C396.296 232.95 395.557 237.388 394.672 241.768C240.773 235.941 128.538 265.579 31.1797 307.882C26.1877 299.874 21.7355 291.49 17.8857 282.763ZM398.562 210.186C398.466 212.339 398.343 214.472 398.18 216.622C237.676 215.076 111.891 228.711 7.08496 251.528C3.97227 239.386 1.96964 226.821 1.17578 213.9L398.562 210.186ZM7.57422 149.328C123.987 175.854 253.186 190.013 398.361 188.827C398.53 191.574 398.627 194.327 398.696 197.108L1.0498 190.888C1.78102 176.593 4.01065 162.694 7.57422 149.328ZM32.8076 92.3037C113.731 139.072 234.463 162.84 395.17 163.974C395.883 167.73 396.471 171.12 396.967 174.841C258.714 176.763 132.573 158.454 16.4561 123.279C21.0066 112.443 26.5103 102.096 32.8076 92.3037ZM199.746 1C292.119 1.00005 369.801 64.4091 392.193 150.348C258.157 152.608 145.746 123.607 53.0615 66.0078C89.4536 26.0603 141.711 1 199.746 1Z" fill="url(#paint0_linear_4001_5735)" fill-opacity="0.1" stroke="url(#paint1_linear_4001_5735)" stroke-width="2"/>
<defs>
<linearGradient id="paint0_linear_4001_5735" x1="-305.961" y1="356.858" x2="-17.1167" y2="268.99" gradientUnits="userSpaceOnUse">
<stop stop-color="#999999" stop-opacity="0.2"/>
<stop offset="0.447115" stop-color="#999999" stop-opacity="0.4"/>
<stop offset="1" stop-color="#999999" stop-opacity="0.2"/>
</linearGradient>
<linearGradient id="paint1_linear_4001_5735" x1="-305.961" y1="356.858" x2="-17.1167" y2="268.99" gradientUnits="userSpaceOnUse">
<stop stop-color="#999999" stop-opacity="0.2"/>
<stop offset="0.447115" stop-color="#999999" stop-opacity="0.4"/>
<stop offset="1" stop-color="#999999" stop-opacity="0.2"/>
</linearGradient>
</defs>
</svg>
