<svg width="41" height="41" viewBox="0 0 41 41" fill="none" xmlns="http://www.w3.org/2000/svg">
<path fill-rule="evenodd" clip-rule="evenodd" d="M5.62067 6.22831C9.31715 2.39005 14.5125 0 20.2648 0C29.6934 0 37.6231 6.42073 39.922 15.1302C39.922 15.1302 32.8025 15.2416 28.3059 14.6239C23.3233 13.9352 20.4775 13.3377 15.7885 11.5249C11.6161 9.91467 5.6308 6.22831 5.6308 6.22831M40.398 17.5608C40.3271 17.0544 40.2461 16.5582 40.1347 16.062C40.1347 16.062 30.139 16.2037 23.86 15.2315C17.0544 14.1783 13.0845 13.4795 6.82583 10.6033C5.48902 9.98556 4.74972 9.53995 3.45342 8.90193C2.76476 9.90454 2.16725 10.978 1.67101 12.1022C1.67101 12.1022 5.6308 13.439 8.20315 14.1276C13.682 15.586 16.8924 15.9809 22.5131 16.6493C29.4402 17.4798 40.3878 17.5608 40.3878 17.5608M22.7055 19.4445L40.56 19.5255C40.5499 19.1913 40.5296 18.8571 40.4992 18.5229C40.4992 18.5229 28.7515 18.6141 21.2877 17.9558C13.1959 17.2367 8.42595 16.4265 0.698786 14.7859C0.34433 16.0518 0.101273 17.3684 0 18.7255L22.7055 19.4445ZM5.62067 33.8861C9.31715 37.7243 14.5125 40.1144 20.2547 40.1144C29.6832 40.1144 37.6129 33.6937 39.9118 24.9841C39.9118 24.9841 32.7923 24.8727 28.2958 25.4905C23.3131 26.1792 20.4674 26.7767 15.7784 28.5895C11.6059 30.1997 5.62067 33.8861 5.62067 33.8861ZM22.5232 23.465C16.8924 24.1436 13.6922 24.5284 8.21327 25.9868C5.6308 26.6754 1.68114 28.0122 1.68114 28.0122C2.17738 29.1364 2.77489 30.2099 3.46355 31.2125C4.75985 30.5643 5.49915 30.1288 6.83595 29.5111C13.0845 26.6349 17.0646 25.9361 23.8701 24.8829C30.1491 23.9107 40.1448 24.0524 40.1448 24.0524C40.2461 23.5562 40.3372 23.06 40.4081 22.5536C40.4081 22.5536 29.4604 22.6346 22.5333 23.465M0 21.3889C0.101273 22.746 0.34433 24.0626 0.698786 25.3285C8.43607 23.6878 13.1959 22.8777 21.2877 22.1586C28.7515 21.5003 40.4992 21.5915 40.4992 21.5915C40.5296 21.2573 40.5499 20.9332 40.56 20.599L22.7055 20.6699L0 21.3889Z" fill="#E42313"/>
</svg>
