<svg width="124" height="370" viewBox="0 0 124 370" fill="none" xmlns="http://www.w3.org/2000/svg">
<mask id="path-1-inside-1_2638_13159" fill="white">
<path d="M100.013 25.8551C95.9475 34.063 89.0361 38.167 81.3115 41.245C80.4984 41.8606 79.482 42.4762 79.0754 43.297C76.2295 49.6581 73.3836 56.6349 70.5377 62.9961C69.5213 65.6637 68.7082 67.9208 67.6918 70.7936C70.9443 66.4845 73.9934 62.9961 77.0426 59.5077C82.3279 53.1465 88.6295 48.4269 97.1672 47.1958C105.908 45.5542 114.649 46.375 123.187 48.8373C123.187 49.0425 123.593 49.0425 124 49.4529C121.967 52.7361 119.934 56.0193 117.902 59.0973C113.43 64.8429 108.144 69.7676 100.826 72.23C90.6623 75.5132 80.0918 76.334 69.5213 74.4872C68.5049 74.282 67.6918 74.0768 66.6754 73.8716C61.3902 89.2615 57.3246 104.241 54.682 120.041C56.5115 117.169 58.341 113.68 60.1705 110.807C64.8459 103.215 70.3344 97.0591 78.8721 94.1863C85.5803 91.9291 92.0852 90.9031 98.9967 90.9031C101.233 90.9031 103.469 91.1083 106.111 91.1083C104.689 93.9811 103.875 96.8539 102.859 99.3163C99.6066 106.498 95.541 112.654 88.8328 116.758C80.9049 122.093 71.9607 124.556 62.6098 125.582C59.7639 125.787 56.5115 126.197 53.4623 126.403C50.8197 141.998 49.1934 158.003 48.9902 174.009C49.3967 173.393 49.6 172.777 49.8033 171.957C50.8197 169.084 52.0393 165.801 53.259 162.723C56.7148 153.489 62.8131 146.307 71.9607 141.998C78.2623 139.33 84.9705 137.483 91.6787 136.457C92.8984 136.457 93.9147 136.252 95.3377 135.842V137.483C94.9311 138.92 94.7279 140.766 94.3213 142.613C92.2885 151.847 88.6295 160.671 80.7016 166.827C72.1639 173.598 62.6098 177.907 52.2426 180.165C51.0229 180.37 50.0066 180.37 48.7869 180.78C48.5836 197.196 49.8033 213.407 52.6492 229.412C53.8689 224.077 54.682 219.152 55.9016 214.022C57.5279 206.84 60.9836 200.685 66.4721 195.76C73.3836 190.014 81.3115 186.115 89.8492 183.037C90.6623 183.037 91.6787 182.422 93.1016 182.217C92.8984 186.936 92.6951 190.835 92.2885 194.939C91.4754 202.326 89.4426 209.098 84.5639 214.638C76.6361 223.872 66.8787 231.054 55.0885 234.953C54.682 234.953 54.2754 235.158 53.8689 235.568C56.7148 250.548 60.7803 265.117 66.0656 279.276C66.2689 276.608 66.0656 274.146 66.0656 271.683C66.0656 263.065 67.6918 255.062 72.7738 248.291C77.0426 242.75 82.3279 238.236 88.0197 234.748C91.0689 232.696 94.3213 231.054 97.5738 229.207C97.9803 230.644 98.1836 231.875 98.3869 232.901C100.216 243.571 100.216 253.831 94.7279 263.27C90.2557 271.068 84.1574 277.634 77.0426 283.38C74.4 285.432 71.7574 287.073 68.9115 288.92C74.1967 302.463 80.0918 315.596 87.2066 328.318C87.2066 327.497 87.2066 327.087 87.2066 326.471C86.8 322.778 86.3934 319.084 85.9869 315.596C85.3771 309.03 86.5967 302.668 89.6459 296.923C93.3049 290.151 98.3869 284.201 104.282 279.276C106.518 277.429 108.551 275.787 110.99 273.735C114.039 281.328 116.072 288.51 116.072 296.102C116.072 300.411 115.869 304.72 114.243 308.824C109.974 319.905 103.266 329.755 94.118 337.963C93.1016 338.578 93.3049 339.194 93.7115 340.22C99.8098 350.275 106.315 359.919 113.226 369.358C113.226 369.358 112.007 372.026 103.469 366.485C101.639 363.407 99.4033 360.534 97.5738 357.251C93.5082 350.89 89.6459 344.529 85.9869 338.168C85.1738 336.526 84.3607 336.116 82.5312 336.526C71.3508 338.989 59.9672 338.989 48.9902 335.911C40.859 333.859 34.7607 328.729 29.2721 322.778C27.0361 320.11 25.0033 316.622 22.7672 313.954C22.5639 313.339 22.5639 313.134 22.1574 312.723C22.3607 312.518 22.7672 312.108 22.9705 312.108C31.9148 309.235 41.0623 307.593 50.4131 308.414C59.9672 309.03 67.4885 313.544 73.9934 320.11C75.6197 321.752 76.8393 322.983 78.6689 324.419C78.6689 323.804 78.2623 323.393 78.059 322.778C72.1639 311.082 66.8787 298.564 62.6098 286.047C62.2033 284.816 61.5934 284.406 60.3738 284.406C49.1934 285.227 38.4197 283.174 28.0525 278.66C20.1246 274.967 14.6361 269.016 10.3672 261.834C8.33443 258.551 6.91148 254.652 4.87869 250.753C8.53771 250.753 11.9934 250.137 15.2459 250.137C21.7508 249.932 28.2557 250.343 34.3541 252.189C42.8918 254.857 48.9902 259.987 54.0721 266.964C55.2918 268.4 56.3082 269.837 57.3246 271.478C54.2754 257.525 51.023 243.776 47.7705 229.823C42.6885 228.592 37.2 227.566 32.118 225.719C24.1902 223.051 16.8721 219.152 10.977 212.791C5.89508 207.251 0.609836 195.144 0 187.552H0.203279C11.3836 187.757 21.9541 189.809 31.5082 195.76C37.2 199.248 41.0623 204.994 44.1115 211.15C44.9246 212.381 45.5344 213.817 46.3475 215.254C45.1279 201.505 44.518 187.757 45.5344 174.009C38.623 171.957 32.3213 169.289 26.4262 165.39C18.0918 159.85 10.7738 153.284 7.72459 143.229C6.09836 137.894 5.08197 132.353 4.87869 126.813C4.87869 126.197 4.87869 125.787 4.87869 124.556C9.96066 126.403 14.4328 127.429 18.9049 129.07C25.0033 131.738 30.8984 134.816 35.3705 139.946C39.4361 144.255 41.6721 149.59 43.5016 155.13C44.3148 157.798 44.9246 160.26 46.1443 162.723C46.1443 161.902 46.1443 161.697 46.3475 160.876C47.1607 147.538 48.9902 134.405 51.6328 121.273C51.8361 120.041 51.6328 119.015 50.4131 118.4C40.0459 113.27 31.5082 106.088 25.0033 96.2383C20.5311 89.4667 19.5148 81.8744 19.718 73.8716C19.718 70.7936 20.3279 68.126 20.5311 64.4325C24.5967 66.4845 28.0525 68.126 31.3049 69.9728C38.4197 74.0768 44.518 79.0016 48.7869 86.3887C52.0393 91.9291 52.8525 98.2903 53.4623 104.651C53.4623 106.703 53.4623 108.755 54.0721 110.397C54.0721 109.781 54.2754 109.371 54.682 108.755C57.9344 95.4175 62 82.0796 67.082 69.152C67.6918 67.9208 67.6918 67.1 66.2689 66.4845C57.5279 60.1233 50.6164 52.1205 45.941 42.271C42.0787 34.4734 42.0787 26.4707 43.7049 18.2627C44.3148 15.3899 45.1279 12.5171 45.941 9.43915C51.6328 12.7223 56.7148 16.8263 61.1869 21.7511C68.0984 29.1382 71.7574 37.5514 70.9443 48.2217C70.9443 52.1205 70.3344 56.0193 70.1311 60.5337C70.5377 59.9181 70.741 59.7129 70.741 59.3025C73.5869 53.5569 76.2295 47.6061 79.0754 41.6554C79.2787 40.8346 79.482 40.0138 79.2787 39.3982C79.0754 34.063 79.2787 28.7278 80.4984 23.5979C81.718 19.6991 83.141 15.5951 86.1902 12.7223C89.6459 9.02875 93.9148 6.15597 98.1836 3.69358C100.42 2.05199 102.859 1.02599 105.298 0C105.705 0 105.908 0.205199 106.315 0.205199C106.315 2.05199 105.705 3.89878 105.705 5.95077C105.298 13.1327 103.672 20.1095 100.42 26.2655L100.013 25.8551Z"/>
</mask>
<path d="M100.013 25.8551C95.9475 34.063 89.0361 38.167 81.3115 41.245C80.4984 41.8606 79.482 42.4762 79.0754 43.297C76.2295 49.6581 73.3836 56.6349 70.5377 62.9961C69.5213 65.6637 68.7082 67.9208 67.6918 70.7936C70.9443 66.4845 73.9934 62.9961 77.0426 59.5077C82.3279 53.1465 88.6295 48.4269 97.1672 47.1958C105.908 45.5542 114.649 46.375 123.187 48.8373C123.187 49.0425 123.593 49.0425 124 49.4529C121.967 52.7361 119.934 56.0193 117.902 59.0973C113.43 64.8429 108.144 69.7676 100.826 72.23C90.6623 75.5132 80.0918 76.334 69.5213 74.4872C68.5049 74.282 67.6918 74.0768 66.6754 73.8716C61.3902 89.2615 57.3246 104.241 54.682 120.041C56.5115 117.169 58.341 113.68 60.1705 110.807C64.8459 103.215 70.3344 97.0591 78.8721 94.1863C85.5803 91.9291 92.0852 90.9031 98.9967 90.9031C101.233 90.9031 103.469 91.1083 106.111 91.1083C104.689 93.9811 103.875 96.8539 102.859 99.3163C99.6066 106.498 95.541 112.654 88.8328 116.758C80.9049 122.093 71.9607 124.556 62.6098 125.582C59.7639 125.787 56.5115 126.197 53.4623 126.403C50.8197 141.998 49.1934 158.003 48.9902 174.009C49.3967 173.393 49.6 172.777 49.8033 171.957C50.8197 169.084 52.0393 165.801 53.259 162.723C56.7148 153.489 62.8131 146.307 71.9607 141.998C78.2623 139.33 84.9705 137.483 91.6787 136.457C92.8984 136.457 93.9147 136.252 95.3377 135.842V137.483C94.9311 138.92 94.7279 140.766 94.3213 142.613C92.2885 151.847 88.6295 160.671 80.7016 166.827C72.1639 173.598 62.6098 177.907 52.2426 180.165C51.0229 180.37 50.0066 180.37 48.7869 180.78C48.5836 197.196 49.8033 213.407 52.6492 229.412C53.8689 224.077 54.682 219.152 55.9016 214.022C57.5279 206.84 60.9836 200.685 66.4721 195.76C73.3836 190.014 81.3115 186.115 89.8492 183.037C90.6623 183.037 91.6787 182.422 93.1016 182.217C92.8984 186.936 92.6951 190.835 92.2885 194.939C91.4754 202.326 89.4426 209.098 84.5639 214.638C76.6361 223.872 66.8787 231.054 55.0885 234.953C54.682 234.953 54.2754 235.158 53.8689 235.568C56.7148 250.548 60.7803 265.117 66.0656 279.276C66.2689 276.608 66.0656 274.146 66.0656 271.683C66.0656 263.065 67.6918 255.062 72.7738 248.291C77.0426 242.75 82.3279 238.236 88.0197 234.748C91.0689 232.696 94.3213 231.054 97.5738 229.207C97.9803 230.644 98.1836 231.875 98.3869 232.901C100.216 243.571 100.216 253.831 94.7279 263.27C90.2557 271.068 84.1574 277.634 77.0426 283.38C74.4 285.432 71.7574 287.073 68.9115 288.92C74.1967 302.463 80.0918 315.596 87.2066 328.318C87.2066 327.497 87.2066 327.087 87.2066 326.471C86.8 322.778 86.3934 319.084 85.9869 315.596C85.3771 309.03 86.5967 302.668 89.6459 296.923C93.3049 290.151 98.3869 284.201 104.282 279.276C106.518 277.429 108.551 275.787 110.99 273.735C114.039 281.328 116.072 288.51 116.072 296.102C116.072 300.411 115.869 304.72 114.243 308.824C109.974 319.905 103.266 329.755 94.118 337.963C93.1016 338.578 93.3049 339.194 93.7115 340.22C99.8098 350.275 106.315 359.919 113.226 369.358C113.226 369.358 112.007 372.026 103.469 366.485C101.639 363.407 99.4033 360.534 97.5738 357.251C93.5082 350.89 89.6459 344.529 85.9869 338.168C85.1738 336.526 84.3607 336.116 82.5312 336.526C71.3508 338.989 59.9672 338.989 48.9902 335.911C40.859 333.859 34.7607 328.729 29.2721 322.778C27.0361 320.11 25.0033 316.622 22.7672 313.954C22.5639 313.339 22.5639 313.134 22.1574 312.723C22.3607 312.518 22.7672 312.108 22.9705 312.108C31.9148 309.235 41.0623 307.593 50.4131 308.414C59.9672 309.03 67.4885 313.544 73.9934 320.11C75.6197 321.752 76.8393 322.983 78.6689 324.419C78.6689 323.804 78.2623 323.393 78.059 322.778C72.1639 311.082 66.8787 298.564 62.6098 286.047C62.2033 284.816 61.5934 284.406 60.3738 284.406C49.1934 285.227 38.4197 283.174 28.0525 278.66C20.1246 274.967 14.6361 269.016 10.3672 261.834C8.33443 258.551 6.91148 254.652 4.87869 250.753C8.53771 250.753 11.9934 250.137 15.2459 250.137C21.7508 249.932 28.2557 250.343 34.3541 252.189C42.8918 254.857 48.9902 259.987 54.0721 266.964C55.2918 268.4 56.3082 269.837 57.3246 271.478C54.2754 257.525 51.023 243.776 47.7705 229.823C42.6885 228.592 37.2 227.566 32.118 225.719C24.1902 223.051 16.8721 219.152 10.977 212.791C5.89508 207.251 0.609836 195.144 0 187.552H0.203279C11.3836 187.757 21.9541 189.809 31.5082 195.76C37.2 199.248 41.0623 204.994 44.1115 211.15C44.9246 212.381 45.5344 213.817 46.3475 215.254C45.1279 201.505 44.518 187.757 45.5344 174.009C38.623 171.957 32.3213 169.289 26.4262 165.39C18.0918 159.85 10.7738 153.284 7.72459 143.229C6.09836 137.894 5.08197 132.353 4.87869 126.813C4.87869 126.197 4.87869 125.787 4.87869 124.556C9.96066 126.403 14.4328 127.429 18.9049 129.07C25.0033 131.738 30.8984 134.816 35.3705 139.946C39.4361 144.255 41.6721 149.59 43.5016 155.13C44.3148 157.798 44.9246 160.26 46.1443 162.723C46.1443 161.902 46.1443 161.697 46.3475 160.876C47.1607 147.538 48.9902 134.405 51.6328 121.273C51.8361 120.041 51.6328 119.015 50.4131 118.4C40.0459 113.27 31.5082 106.088 25.0033 96.2383C20.5311 89.4667 19.5148 81.8744 19.718 73.8716C19.718 70.7936 20.3279 68.126 20.5311 64.4325C24.5967 66.4845 28.0525 68.126 31.3049 69.9728C38.4197 74.0768 44.518 79.0016 48.7869 86.3887C52.0393 91.9291 52.8525 98.2903 53.4623 104.651C53.4623 106.703 53.4623 108.755 54.0721 110.397C54.0721 109.781 54.2754 109.371 54.682 108.755C57.9344 95.4175 62 82.0796 67.082 69.152C67.6918 67.9208 67.6918 67.1 66.2689 66.4845C57.5279 60.1233 50.6164 52.1205 45.941 42.271C42.0787 34.4734 42.0787 26.4707 43.7049 18.2627C44.3148 15.3899 45.1279 12.5171 45.941 9.43915C51.6328 12.7223 56.7148 16.8263 61.1869 21.7511C68.0984 29.1382 71.7574 37.5514 70.9443 48.2217C70.9443 52.1205 70.3344 56.0193 70.1311 60.5337C70.5377 59.9181 70.741 59.7129 70.741 59.3025C73.5869 53.5569 76.2295 47.6061 79.0754 41.6554C79.2787 40.8346 79.482 40.0138 79.2787 39.3982C79.0754 34.063 79.2787 28.7278 80.4984 23.5979C81.718 19.6991 83.141 15.5951 86.1902 12.7223C89.6459 9.02875 93.9148 6.15597 98.1836 3.69358C100.42 2.05199 102.859 1.02599 105.298 0C105.705 0 105.908 0.205199 106.315 0.205199C106.315 2.05199 105.705 3.89878 105.705 5.95077C105.298 13.1327 103.672 20.1095 100.42 26.2655L100.013 25.8551Z" fill="#4064DF" fill-opacity="0.02" stroke="#4064DF" stroke-opacity="0.15" stroke-width="2" mask="url(#path-1-inside-1_2638_13159)"/>
</svg>
