<svg width="258" height="255" viewBox="0 0 258 255" fill="none" xmlns="http://www.w3.org/2000/svg">
<mask id="path-1-inside-1_2639_13282" fill="white">
<path fill-rule="evenodd" clip-rule="evenodd" d="M35.7528 39.5923C59.2659 15.1931 92.3131 0 128.903 0C188.878 0 239.318 40.8154 253.942 96.1803C253.942 96.1803 208.655 96.8884 180.052 92.9614C148.358 88.5837 130.256 84.7854 100.43 73.2618C73.8891 63.0257 35.8172 39.5923 35.8172 39.5923M256.969 111.631C256.518 108.412 256.003 105.258 255.294 102.103C255.294 102.103 191.712 103.004 151.772 96.824C108.482 90.1288 83.23 85.6867 43.4187 67.4034C34.9154 63.4764 30.2127 60.6438 21.967 56.588C17.5865 62.9614 13.7858 69.7854 10.6292 76.9313C10.6292 76.9313 35.8172 85.4292 52.1798 89.8069C87.0307 99.0772 107.452 101.588 143.204 105.837C187.267 111.116 256.905 111.631 256.905 111.631M144.428 123.605L258 124.12C257.936 121.996 257.807 119.871 257.613 117.747C257.613 117.747 182.887 118.326 135.41 114.142C83.9386 109.571 53.597 104.421 4.44494 93.9914C2.19026 102.039 0.644195 110.408 0 119.034L144.428 123.605ZM35.7528 215.408C59.2659 239.807 92.3131 255 128.839 255C188.813 255 239.254 214.185 253.877 158.82C253.877 158.82 208.59 158.112 179.988 162.039C148.294 166.416 130.192 170.215 100.366 181.738C73.8247 191.974 35.7528 215.408 35.7528 215.408ZM143.269 149.163C107.452 153.476 87.0951 155.923 52.2442 165.193C35.8172 169.571 10.6936 178.069 10.6936 178.069C13.8502 185.215 17.6509 192.039 22.0315 198.412C30.2772 194.292 34.9798 191.524 43.4831 187.597C83.23 169.313 108.547 164.871 151.837 158.176C191.777 151.996 255.359 152.897 255.359 152.897C256.003 149.742 256.583 146.588 257.034 143.369C257.034 143.369 187.396 143.884 143.333 149.163M0 135.966C0.644195 144.592 2.19026 152.961 4.44494 161.009C53.6614 150.579 83.9386 145.429 135.41 140.858C182.887 136.674 257.613 137.253 257.613 137.253C257.807 135.129 257.936 133.069 258 130.944L144.428 131.395L0 135.966Z"/>
</mask>
<path fill-rule="evenodd" clip-rule="evenodd" d="M35.7528 39.5923C59.2659 15.1931 92.3131 0 128.903 0C188.878 0 239.318 40.8154 253.942 96.1803C253.942 96.1803 208.655 96.8884 180.052 92.9614C148.358 88.5837 130.256 84.7854 100.43 73.2618C73.8891 63.0257 35.8172 39.5923 35.8172 39.5923M256.969 111.631C256.518 108.412 256.003 105.258 255.294 102.103C255.294 102.103 191.712 103.004 151.772 96.824C108.482 90.1288 83.23 85.6867 43.4187 67.4034C34.9154 63.4764 30.2127 60.6438 21.967 56.588C17.5865 62.9614 13.7858 69.7854 10.6292 76.9313C10.6292 76.9313 35.8172 85.4292 52.1798 89.8069C87.0307 99.0772 107.452 101.588 143.204 105.837C187.267 111.116 256.905 111.631 256.905 111.631M144.428 123.605L258 124.12C257.936 121.996 257.807 119.871 257.613 117.747C257.613 117.747 182.887 118.326 135.41 114.142C83.9386 109.571 53.597 104.421 4.44494 93.9914C2.19026 102.039 0.644195 110.408 0 119.034L144.428 123.605ZM35.7528 215.408C59.2659 239.807 92.3131 255 128.839 255C188.813 255 239.254 214.185 253.877 158.82C253.877 158.82 208.59 158.112 179.988 162.039C148.294 166.416 130.192 170.215 100.366 181.738C73.8247 191.974 35.7528 215.408 35.7528 215.408ZM143.269 149.163C107.452 153.476 87.0951 155.923 52.2442 165.193C35.8172 169.571 10.6936 178.069 10.6936 178.069C13.8502 185.215 17.6509 192.039 22.0315 198.412C30.2772 194.292 34.9798 191.524 43.4831 187.597C83.23 169.313 108.547 164.871 151.837 158.176C191.777 151.996 255.359 152.897 255.359 152.897C256.003 149.742 256.583 146.588 257.034 143.369C257.034 143.369 187.396 143.884 143.333 149.163M0 135.966C0.644195 144.592 2.19026 152.961 4.44494 161.009C53.6614 150.579 83.9386 145.429 135.41 140.858C182.887 136.674 257.613 137.253 257.613 137.253C257.807 135.129 257.936 133.069 258 130.944L144.428 131.395L0 135.966Z" fill="#4064DF" fill-opacity="0.1"/>
<path d="M253.942 96.1803L253.957 97.1801L255.235 97.1602L254.908 95.9249L253.942 96.1803ZM180.052 92.9614L179.916 93.952L179.916 93.9521L180.052 92.9614ZM100.43 73.2618L100.79 72.329L100.79 72.3288L100.43 73.2618ZM255.294 102.103L256.27 101.884L256.092 101.092L255.28 101.103L255.294 102.103ZM151.772 96.824L151.925 95.8358L151.925 95.8358L151.772 96.824ZM43.4187 67.4034L42.9995 68.3113L43.0014 68.3122L43.4187 67.4034ZM21.967 56.588L22.4084 55.6907L21.6326 55.3091L21.1429 56.0216L21.967 56.588ZM10.6292 76.9313L9.71448 76.5273L9.27206 77.5288L10.3095 77.8789L10.6292 76.9313ZM52.1798 89.8069L51.9213 90.7729L51.9227 90.7733L52.1798 89.8069ZM143.204 105.837L143.323 104.844L143.322 104.844L143.204 105.837ZM144.428 123.605L144.397 124.605L144.41 124.605L144.424 124.605L144.428 123.605ZM258 124.12L257.995 125.12L259.031 125.125L259 124.09L258 124.12ZM257.613 117.747L258.609 117.656L258.526 116.74L257.606 116.747L257.613 117.747ZM135.41 114.142L135.321 115.138L135.322 115.138L135.41 114.142ZM4.44494 93.9914L4.6525 93.0132L3.73506 92.8185L3.48203 93.7216L4.44494 93.9914ZM0 119.034L-0.997223 118.96L-1.07496 120.001L-0.0316318 120.034L0 119.034ZM35.7528 215.408L35.2286 214.556L34.1708 215.207L35.0327 216.102L35.7528 215.408ZM253.877 158.82L254.844 159.075L255.17 157.84L253.893 157.82L253.877 158.82ZM179.988 162.039L179.852 161.048L179.851 161.048L179.988 162.039ZM100.366 181.738L100.725 182.671L100.726 182.671L100.366 181.738ZM52.2442 165.193L51.9871 164.227L51.9867 164.227L52.2442 165.193ZM10.6936 178.069L10.3732 177.121L9.33683 177.472L9.7789 178.473L10.6936 178.069ZM22.0315 198.412L21.2073 198.978L21.7002 199.695L22.4784 199.307L22.0315 198.412ZM43.4831 187.597L43.0652 186.688L43.0639 186.689L43.4831 187.597ZM151.837 158.176L151.99 159.164L151.99 159.164L151.837 158.176ZM255.359 152.897L255.345 153.897L256.173 153.909L256.339 153.097L255.359 152.897ZM257.034 143.369L258.024 143.508L258.185 142.361L257.026 142.369L257.034 143.369ZM0 135.966L-0.0316318 134.966L-1.07496 134.999L-0.997223 136.04L0 135.966ZM4.44494 161.009L3.48203 161.278L3.73499 162.181L4.65225 161.987L4.44494 161.009ZM135.41 140.858L135.322 139.862L135.321 139.862L135.41 140.858ZM257.613 137.253L257.606 138.253L258.526 138.26L258.609 137.344L257.613 137.253ZM258 130.944L259 130.975L259.031 129.94L257.996 129.944L258 130.944ZM144.428 131.395L144.424 130.395L144.411 130.395L144.397 130.395L144.428 131.395ZM35.7528 39.5923L36.4729 40.2862C59.8052 16.0746 92.5957 1 128.903 1V0V-1C92.0305 -1 58.7266 14.3117 35.0327 38.8984L35.7528 39.5923ZM128.903 0V1C188.413 1 238.465 41.499 252.975 96.4356L253.942 96.1803L254.908 95.9249C240.172 40.1319 189.343 -1 128.903 -1V0ZM253.942 96.1803C253.926 95.1804 253.926 95.1804 253.925 95.1804C253.925 95.1804 253.925 95.1804 253.924 95.1804C253.923 95.1804 253.921 95.1805 253.918 95.1805C253.913 95.1806 253.905 95.1807 253.894 95.1809C253.872 95.1812 253.84 95.1817 253.797 95.1823C253.711 95.1835 253.582 95.1852 253.413 95.1873C253.076 95.1915 252.577 95.1972 251.931 95.203C250.639 95.2147 248.761 95.227 246.417 95.2295C241.731 95.2346 235.183 95.2004 227.744 95.0437C212.854 94.73 194.43 93.9259 180.188 91.9707L180.052 92.9614L179.916 93.9521C194.278 95.9238 212.798 96.7292 227.702 97.0432C235.159 97.2003 241.722 97.2346 246.42 97.2295C248.769 97.227 250.652 97.2147 251.949 97.203C252.597 97.1971 253.099 97.1914 253.438 97.1872C253.608 97.185 253.738 97.1833 253.825 97.1821C253.868 97.1814 253.901 97.181 253.923 97.1806C253.935 97.1805 253.943 97.1804 253.949 97.1803C253.951 97.1802 253.953 97.1802 253.955 97.1802C253.956 97.1802 253.956 97.1801 253.957 97.1801C253.957 97.1801 253.957 97.1801 253.942 96.1803ZM180.052 92.9614L180.189 91.9708C148.547 87.6003 130.525 83.8171 100.79 72.329L100.43 73.2618L100.07 74.1946C129.988 85.7537 148.169 89.5671 179.916 93.952L180.052 92.9614ZM100.43 73.2618L100.79 72.3288C87.5878 67.2371 71.485 58.8483 58.6568 51.7146C52.2485 48.1509 46.668 44.9064 42.6898 42.553C40.7009 41.3764 39.1128 40.4227 38.0224 39.7634C37.4772 39.4338 37.0564 39.1778 36.7722 39.0043C36.6301 38.9176 36.5222 38.8515 36.4498 38.8072C36.4137 38.7851 36.3865 38.7683 36.3683 38.7572C36.3592 38.7516 36.3525 38.7475 36.348 38.7447C36.3457 38.7433 36.344 38.7423 36.3429 38.7416C36.3424 38.7413 36.342 38.741 36.3417 38.7409C36.3415 38.7407 36.3414 38.7407 35.8172 39.5923C35.2931 40.4439 35.2932 40.444 35.2936 40.4442C35.2939 40.4444 35.2944 40.4447 35.295 40.4451C35.2962 40.4458 35.298 40.4469 35.3004 40.4484C35.3051 40.4513 35.3122 40.4557 35.3215 40.4614C35.3402 40.4729 35.368 40.4899 35.4047 40.5124C35.478 40.5574 35.5871 40.6241 35.7303 40.7115C36.0168 40.8864 36.4399 41.1438 36.9876 41.4749C38.0829 42.1372 39.6765 43.0942 41.6715 44.2744C45.6612 46.6346 51.2575 49.8883 57.6848 53.4625C70.5277 60.6045 86.7313 69.0504 100.07 74.1948L100.43 73.2618ZM256.969 111.631L257.96 111.492C257.507 108.26 256.987 105.075 256.27 101.884L255.294 102.103L254.319 102.322C255.019 105.44 255.53 108.564 255.979 111.77L256.969 111.631ZM255.294 102.103C255.28 101.103 255.28 101.103 255.28 101.103C255.279 101.103 255.278 101.103 255.278 101.103C255.276 101.103 255.273 101.103 255.269 101.103C255.261 101.103 255.25 101.104 255.235 101.104C255.204 101.104 255.159 101.105 255.098 101.105C254.977 101.107 254.797 101.109 254.56 101.112C254.086 101.117 253.384 101.123 252.477 101.13C250.663 101.142 248.027 101.153 244.737 101.147C238.159 101.135 228.971 101.055 218.537 100.781C197.657 100.234 171.829 98.9157 151.925 95.8358L151.772 96.824L151.619 97.8123C171.656 100.913 197.589 102.233 218.485 102.781C228.939 103.055 238.143 103.135 244.734 103.147C248.029 103.153 250.672 103.142 252.491 103.13C253.401 103.123 254.105 103.117 254.581 103.112C254.82 103.109 255.001 103.107 255.123 103.105C255.184 103.105 255.23 103.104 255.261 103.104C255.277 103.103 255.289 103.103 255.297 103.103C255.3 103.103 255.303 103.103 255.305 103.103C255.306 103.103 255.307 103.103 255.308 103.103C255.308 103.103 255.309 103.103 255.294 102.103ZM151.772 96.824L151.925 95.8358C108.659 89.1442 83.5181 84.7186 43.8361 66.4947L43.4187 67.4034L43.0014 68.3122C82.9418 86.6548 108.305 91.1133 151.619 97.8123L151.772 96.824ZM43.4187 67.4034L43.838 66.4956C35.3213 62.5624 30.7535 59.7954 22.4084 55.6907L21.967 56.588L21.5257 57.4853C29.6719 61.4922 34.5094 64.3904 42.9995 68.3113L43.4187 67.4034ZM21.967 56.588L21.1429 56.0216C16.7267 62.4469 12.8958 69.3254 9.71448 76.5273L10.6292 76.9313L11.5439 77.3354C14.6758 70.2455 18.4463 63.4759 22.7912 57.1544L21.967 56.588ZM10.6292 76.9313C10.3095 77.8789 10.3097 77.8789 10.3099 77.879C10.3101 77.879 10.3104 77.8791 10.3108 77.8793C10.3116 77.8795 10.3127 77.8799 10.3143 77.8805C10.3174 77.8815 10.322 77.8831 10.3282 77.8851C10.3404 77.8893 10.3587 77.8954 10.3829 77.9036C10.4313 77.9199 10.5032 77.9441 10.5977 77.9758C10.7866 78.0392 11.0656 78.1328 11.4264 78.2534C12.1481 78.4947 13.197 78.8441 14.5067 79.277C17.1259 80.1428 20.7888 81.3428 24.9635 82.6798C33.3087 85.3524 43.7154 88.5775 51.9213 90.7729L52.1798 89.8069L52.4382 88.8408C44.2816 86.6586 33.9131 83.4459 25.5735 80.7751C21.406 79.4404 17.7492 78.2424 15.1344 77.378C13.827 76.9459 12.7802 76.5972 12.0605 76.3566C11.7006 76.2363 11.4225 76.143 11.2345 76.0799C11.1405 76.0483 11.069 76.0242 11.021 76.0081C10.9971 76 10.979 75.9939 10.9669 75.9899C10.9609 75.9878 10.9563 75.9863 10.9533 75.9853C10.9518 75.9848 10.9507 75.9844 10.95 75.9842C10.9496 75.984 10.9493 75.9839 10.9491 75.9839C10.949 75.9838 10.9489 75.9838 10.6292 76.9313ZM52.1798 89.8069L51.9227 90.7733C86.8453 100.063 107.324 102.58 143.086 106.83L143.204 105.837L143.322 104.844C107.579 100.596 87.2161 98.0918 52.4368 88.8405L52.1798 89.8069ZM143.204 105.837L143.086 106.83C165.161 109.475 193.622 110.924 216.544 111.713C228.009 112.107 238.096 112.337 245.317 112.468C248.928 112.533 251.822 112.574 253.814 112.598C254.81 112.611 255.581 112.619 256.102 112.624C256.363 112.626 256.562 112.628 256.695 112.629C256.762 112.63 256.812 112.63 256.846 112.63C256.863 112.631 256.876 112.631 256.884 112.631C256.889 112.631 256.892 112.631 256.894 112.631C256.895 112.631 256.896 112.631 256.897 112.631C256.897 112.631 256.897 112.631 256.905 111.631C256.912 110.631 256.912 110.631 256.912 110.631C256.911 110.631 256.91 110.631 256.909 110.631C256.907 110.631 256.904 110.631 256.9 110.631C256.891 110.631 256.879 110.631 256.862 110.631C256.829 110.63 256.779 110.63 256.712 110.629C256.58 110.628 256.382 110.626 256.122 110.624C255.602 110.619 254.833 110.611 253.839 110.599C251.85 110.574 248.96 110.533 245.354 110.468C238.141 110.337 228.065 110.108 216.613 109.714C193.701 108.926 165.311 107.478 143.323 104.844L143.204 105.837ZM144.428 123.605L144.424 124.605L257.995 125.12L258 124.12L258.005 123.12L144.433 122.605L144.428 123.605ZM258 124.12L259 124.09C258.935 121.945 258.804 119.801 258.609 117.656L257.613 117.747L256.618 117.837C256.809 119.942 256.937 122.046 257 124.15L258 124.12ZM257.613 117.747C257.606 116.747 257.605 116.747 257.605 116.747C257.604 116.747 257.604 116.747 257.602 116.747C257.6 116.747 257.597 116.747 257.592 116.747C257.583 116.747 257.57 116.747 257.552 116.747C257.516 116.747 257.462 116.748 257.391 116.748C257.248 116.749 257.036 116.751 256.757 116.752C256.199 116.756 255.374 116.76 254.306 116.764C252.172 116.771 249.069 116.777 245.197 116.772C237.453 116.761 226.633 116.703 214.331 116.514C189.719 116.135 159.198 115.234 135.498 113.145L135.41 114.142L135.322 115.138C159.098 117.233 189.679 118.135 214.3 118.513C226.614 118.702 237.443 118.761 245.194 118.772C249.07 118.777 252.176 118.771 254.313 118.763C255.382 118.76 256.209 118.755 256.768 118.752C257.048 118.751 257.261 118.749 257.404 118.748C257.476 118.748 257.53 118.747 257.566 118.747C257.585 118.747 257.598 118.747 257.607 118.747C257.612 118.747 257.615 118.747 257.618 118.747C257.619 118.747 257.62 118.747 257.62 118.747C257.621 118.747 257.621 118.747 257.613 117.747ZM135.41 114.142L135.498 113.146C84.0755 108.579 53.7746 103.436 4.6525 93.0132L4.44494 93.9914L4.23738 94.9696C53.4194 105.405 83.8016 110.563 135.321 115.138L135.41 114.142ZM4.44494 93.9914L3.48203 93.7216C1.21078 101.828 -0.347744 110.262 -0.997223 118.96L0 119.034L0.997223 119.109C1.63613 110.553 3.16975 102.249 5.40786 94.2612L4.44494 93.9914ZM0 119.034L-0.0316318 120.034L144.397 124.605L144.428 123.605L144.46 122.606L0.0316318 118.035L0 119.034ZM35.7528 215.408L35.0327 216.102C58.7264 240.688 92.0303 256 128.839 256V255V254C92.596 254 59.8054 238.926 36.4729 214.714L35.7528 215.408ZM128.839 255V256C189.278 256 240.108 214.868 254.844 159.075L253.877 158.82L252.91 158.564C238.4 213.501 188.349 254 128.839 254V255ZM253.877 158.82C253.893 157.82 253.893 157.82 253.892 157.82C253.892 157.82 253.891 157.82 253.891 157.82C253.889 157.82 253.887 157.82 253.884 157.82C253.879 157.82 253.87 157.82 253.859 157.819C253.837 157.819 253.804 157.819 253.76 157.818C253.673 157.817 253.544 157.815 253.374 157.813C253.034 157.809 252.533 157.803 251.884 157.797C250.588 157.785 248.704 157.773 246.355 157.77C241.657 157.765 235.095 157.8 227.637 157.957C212.733 158.271 194.213 159.076 179.852 161.048L179.988 162.039L180.124 163.029C194.365 161.074 212.79 160.27 227.679 159.956C235.119 159.8 241.666 159.765 246.353 159.77C248.696 159.773 250.575 159.785 251.866 159.797C252.512 159.803 253.012 159.808 253.349 159.813C253.518 159.815 253.646 159.817 253.732 159.818C253.775 159.818 253.808 159.819 253.829 159.819C253.84 159.819 253.848 159.819 253.854 159.819C253.856 159.82 253.858 159.82 253.86 159.82C253.86 159.82 253.861 159.82 253.861 159.82C253.861 159.82 253.862 159.82 253.877 158.82ZM179.988 162.039L179.851 161.048C148.105 165.433 129.923 169.246 100.005 180.805L100.366 181.738L100.726 182.671C130.46 171.183 148.483 167.4 180.125 163.029L179.988 162.039ZM100.366 181.738L100.006 180.805C86.6669 185.95 70.4633 194.396 57.6204 201.538C51.1931 205.112 45.5968 208.365 41.6071 210.726C39.6121 211.906 38.0185 212.863 36.9232 213.525C36.3755 213.856 35.9524 214.114 35.6659 214.288C35.5227 214.376 35.4136 214.443 35.3402 214.488C35.3036 214.51 35.2758 214.527 35.2571 214.539C35.2478 214.544 35.2407 214.549 35.236 214.552C35.2336 214.553 35.2318 214.554 35.2306 214.555C35.23 214.555 35.2295 214.556 35.2292 214.556C35.2288 214.556 35.2286 214.556 35.7528 215.408C36.277 216.259 36.2771 216.259 36.2773 216.259C36.2776 216.259 36.278 216.259 36.2785 216.258C36.2796 216.258 36.2813 216.257 36.2835 216.255C36.288 216.253 36.2948 216.248 36.3039 216.243C36.322 216.232 36.3493 216.215 36.3854 216.193C36.4577 216.148 36.5657 216.082 36.7078 215.996C36.992 215.822 37.4127 215.566 37.9579 215.237C39.0483 214.577 40.6364 213.624 42.6254 212.447C46.6036 210.094 52.1841 206.849 58.5924 203.285C71.4206 196.152 87.5233 187.763 100.725 182.671L100.366 181.738ZM143.269 149.163L143.149 148.17C107.326 152.484 86.9102 154.937 51.9871 164.227L52.2442 165.193L52.5013 166.16C87.2801 156.908 107.578 154.468 143.388 150.156L143.269 149.163ZM52.2442 165.193L51.9867 164.227C43.748 166.422 33.3408 169.648 25.0035 172.32C20.8327 173.657 17.1758 174.857 14.5615 175.723C13.2543 176.156 12.2076 176.506 11.4876 176.747C11.1275 176.867 10.8492 176.961 10.6607 177.024C10.5664 177.056 10.4947 177.08 10.4464 177.097C10.4223 177.105 10.4041 177.111 10.3918 177.115C10.3857 177.117 10.3811 177.119 10.378 177.12C10.3764 177.12 10.3752 177.121 10.3744 177.121C10.3741 177.121 10.3737 177.121 10.3735 177.121C10.3733 177.121 10.3732 177.121 10.6936 178.069C11.014 179.016 11.0141 179.016 11.0143 179.016C11.0145 179.016 11.0147 179.016 11.0151 179.016C11.0159 179.015 11.017 179.015 11.0185 179.014C11.0215 179.013 11.026 179.012 11.032 179.01C11.044 179.006 11.0621 179 11.086 178.992C11.1338 178.976 11.2051 178.951 11.2989 178.92C11.4865 178.857 11.7639 178.763 12.1229 178.643C12.841 178.403 13.8855 178.054 15.1903 177.622C17.8 176.757 21.4506 175.559 25.6141 174.225C33.9454 171.554 44.3134 168.342 52.5017 166.159L52.2442 165.193ZM10.6936 178.069L9.7789 178.473C12.9602 185.675 16.7911 192.553 21.2073 198.978L22.0315 198.412L22.8556 197.846C18.5107 191.524 14.7402 184.755 11.6084 177.665L10.6936 178.069ZM22.0315 198.412L22.4784 199.307C30.7892 195.154 35.408 192.427 43.9024 188.504L43.4831 187.597L43.0639 186.689C34.5515 190.62 29.7651 193.43 21.5845 197.517L22.0315 198.412ZM43.4831 187.597L43.901 188.505C83.5182 170.281 108.723 165.856 151.99 159.164L151.837 158.176L151.684 157.188C108.37 163.887 82.9418 168.345 43.0652 186.688L43.4831 187.597ZM151.837 158.176L151.99 159.164C171.893 156.084 197.721 154.766 218.601 154.219C229.036 153.945 238.223 153.865 244.802 153.853C248.091 153.847 250.728 153.858 252.542 153.87C253.449 153.877 254.15 153.883 254.624 153.888C254.861 153.891 255.042 153.893 255.163 153.895C255.223 153.895 255.269 153.896 255.299 153.896C255.314 153.896 255.326 153.897 255.333 153.897C255.337 153.897 255.34 153.897 255.342 153.897C255.343 153.897 255.344 153.897 255.344 153.897C255.344 153.897 255.345 153.897 255.359 152.897C255.373 151.897 255.373 151.897 255.372 151.897C255.372 151.897 255.371 151.897 255.37 151.897C255.368 151.897 255.365 151.897 255.361 151.897C255.353 151.897 255.341 151.897 255.326 151.896C255.295 151.896 255.249 151.895 255.188 151.895C255.066 151.893 254.884 151.891 254.646 151.888C254.169 151.883 253.465 151.877 252.556 151.87C250.736 151.858 248.094 151.847 244.798 151.853C238.207 151.865 229.003 151.945 218.549 152.219C197.653 152.767 171.72 154.087 151.684 157.188L151.837 158.176ZM255.359 152.897L256.339 153.097C256.985 149.93 257.569 146.754 258.024 143.508L257.034 143.369L256.043 143.23C255.596 146.422 255.021 149.555 254.379 152.697L255.359 152.897ZM257.034 143.369C257.026 142.369 257.026 142.369 257.025 142.369C257.025 142.369 257.024 142.369 257.023 142.369C257.021 142.369 257.018 142.369 257.013 142.369C257.005 142.369 256.992 142.369 256.975 142.37C256.941 142.37 256.891 142.37 256.824 142.371C256.691 142.372 256.492 142.374 256.231 142.376C255.71 142.381 254.939 142.389 253.943 142.402C251.951 142.426 249.057 142.467 245.446 142.532C238.225 142.663 228.138 142.893 216.673 143.287C193.75 144.076 165.29 145.525 143.214 148.17L143.333 149.163L143.452 150.156C165.439 147.522 193.829 146.074 216.742 145.286C228.194 144.892 238.27 144.663 245.482 144.532C249.089 144.467 251.979 144.426 253.968 144.401C254.962 144.389 255.731 144.381 256.251 144.376C256.511 144.374 256.708 144.372 256.841 144.371C256.908 144.37 256.958 144.37 256.991 144.369C257.008 144.369 257.02 144.369 257.029 144.369C257.033 144.369 257.036 144.369 257.038 144.369C257.039 144.369 257.04 144.369 257.04 144.369C257.041 144.369 257.041 144.369 257.034 143.369ZM0 135.966L-0.997223 136.04C-0.347744 144.738 1.21078 153.172 3.48203 161.278L4.44494 161.009L5.40786 160.739C3.16975 152.751 1.63613 144.447 0.997223 135.891L0 135.966ZM4.44494 161.009L4.65225 161.987C53.8391 151.564 84.0757 146.421 135.498 141.854L135.41 140.858L135.321 139.862C83.8015 144.437 53.4837 149.595 4.23764 160.03L4.44494 161.009ZM135.41 140.858L135.498 141.854C159.198 139.766 189.719 138.865 214.331 138.486C226.633 138.297 237.453 138.239 245.197 138.228C249.069 138.223 252.172 138.229 254.306 138.236C255.374 138.24 256.199 138.244 256.757 138.248C257.036 138.249 257.248 138.251 257.391 138.252C257.462 138.252 257.516 138.253 257.552 138.253C257.57 138.253 257.583 138.253 257.592 138.253C257.597 138.253 257.6 138.253 257.602 138.253C257.604 138.253 257.604 138.253 257.605 138.253C257.605 138.253 257.606 138.253 257.613 137.253C257.621 136.253 257.621 136.253 257.62 136.253C257.62 136.253 257.619 136.253 257.618 136.253C257.615 136.253 257.612 136.253 257.607 136.253C257.598 136.253 257.585 136.253 257.566 136.253C257.53 136.253 257.476 136.252 257.404 136.252C257.261 136.251 257.048 136.249 256.768 136.248C256.209 136.245 255.382 136.24 254.313 136.236C252.176 136.229 249.07 136.223 245.194 136.228C237.443 136.239 226.614 136.298 214.3 136.487C189.679 136.865 159.098 137.767 135.322 139.862L135.41 140.858ZM257.613 137.253L258.609 137.344C258.804 135.201 258.934 133.12 259 130.975L258 130.944L257 130.914C256.937 133.017 256.809 135.057 256.618 137.163L257.613 137.253ZM258 130.944L257.996 129.944L144.424 130.395L144.428 131.395L144.432 132.395L258.004 131.944L258 130.944ZM144.428 131.395L144.397 130.395L-0.0316318 134.966L0 135.966L0.0316318 136.965L144.46 132.394L144.428 131.395Z" fill="#4064DF" fill-opacity="0.8" mask="url(#path-1-inside-1_2639_13282)"/>
</svg>
