<svg width="50" height="50" viewBox="0 0 50 50" fill="none" xmlns="http://www.w3.org/2000/svg">
<path fill-rule="evenodd" clip-rule="evenodd" d="M34.3318 39.9918C34.0605 39.6747 34.0977 39.1978 34.4147 38.9265C34.7317 38.6552 35.2087 38.6922 35.48 39.0093L38.4443 42.459L44.2053 35.5797C44.4734 35.2594 44.9504 35.217 45.2707 35.4851C45.5911 35.7531 45.6335 36.2301 45.3654 36.5504L39.0322 44.1129L39.0317 44.1125C38.7336 44.4683 38.1824 44.4738 37.878 44.1189L34.3318 39.9918ZM30.4857 43.7895C32.0481 47.4928 35.6941 50 39.8458 50C45.4537 50 50 45.4539 50 39.8464C50 35.6946 47.4922 32.0483 43.788 30.4865L43.9513 29.965L47.4815 29.1737C47.8529 29.1251 48.1397 28.8074 48.1397 28.4226V19.7172H48.1369C48.1372 19.3706 47.8973 19.0581 47.5448 18.9803L43.9544 18.1757C43.5447 16.7938 42.9842 15.4441 42.298 14.1815L44.2536 11.0964C44.4597 10.801 44.431 10.3915 44.1673 10.1279L38.0112 3.97212L38.0109 3.97242C37.7659 3.72697 37.3752 3.67505 37.0702 3.86859L33.9557 5.84242C32.6932 5.15657 31.345 4.59606 29.9634 4.18636L29.1725 0.658182C29.1238 0.286768 28.8061 0 28.4214 0H19.7153V0.00282827C19.3687 0.00252524 19.0562 0.242424 18.9784 0.594848L18.1734 4.18636C16.7916 4.59606 15.4435 5.15636 14.1809 5.84232L11.094 3.88586C10.7986 3.6798 10.3891 3.70848 10.1256 3.97202L3.96946 10.1279L3.96977 10.1282C3.7243 10.3732 3.67237 10.7638 3.86592 11.0689L5.83957 14.1827C5.15347 15.4452 4.59303 16.7938 4.18331 18.1755L0.603915 18.9777C0.259451 19.0476 0.000142761 19.3521 0.000142761 19.7172V28.4088C-0.00672632 28.7609 0.234904 29.0807 0.591995 29.1596L4.1824 29.9642C4.59212 31.3463 5.15246 32.6956 5.83876 33.9584L3.8832 37.0435C3.67712 37.3389 3.70581 37.7484 3.96946 38.012L10.1256 44.1678L10.1259 44.1675C10.3709 44.4129 10.7616 44.4648 11.0666 44.2713L14.1811 42.2975C15.4438 42.9834 16.7916 43.5437 18.1734 43.9534L18.9643 47.4816C19.013 47.853 19.3307 48.1398 19.7154 48.1398H28.4215V48.137C28.7681 48.1373 29.0806 47.8974 29.1584 47.5449L29.9636 43.9529L30.4857 43.7895ZM42.3575 30.006L42.616 29.1288L42.6186 29.1295C42.6899 28.8675 42.9006 28.6528 43.1843 28.5902L46.6245 27.8192V20.3207L43.2479 19.5639C42.9548 19.5246 42.6996 19.3146 42.6174 19.0114C42.2089 17.5084 41.5503 15.8815 40.7686 14.5466C40.626 14.3089 40.6198 14.0013 40.7783 13.7513L42.6676 10.7706L37.3685 5.47182L34.395 7.35626C34.1645 7.50667 33.86 7.52576 33.6047 7.3797C32.1917 6.57101 30.7082 5.95333 29.1276 5.52333L29.1283 5.52081C28.8663 5.44949 28.6516 5.23879 28.589 4.95515L27.8178 1.51515H20.319L19.5619 4.89283C19.5226 5.18586 19.3126 5.44111 19.0093 5.52333C17.5071 5.93141 15.8803 6.5904 14.5459 7.37162C14.3082 7.51414 14.0006 7.5204 13.7506 7.36192L10.7683 5.47192L5.46925 10.7707L7.3536 13.7436C7.50401 13.974 7.5231 14.2786 7.37703 14.5338C6.568 15.9474 5.95059 17.4302 5.52036 19.0113L5.51784 19.0106C5.44652 19.2726 5.2358 19.4873 4.95215 19.5499L1.50942 20.3214V27.8186L4.88891 28.576C5.18196 28.6153 5.43722 28.8253 5.51945 29.1285C5.92776 30.6315 6.58648 32.2584 7.36825 33.5933C7.51078 33.831 7.51704 34.1386 7.35855 34.3886L5.46925 37.3692L10.7683 42.668L13.7418 40.7835C13.9723 40.6331 14.2768 40.614 14.5321 40.7601C15.9451 41.5687 17.4287 42.1866 19.0092 42.6165L19.0085 42.619C19.2705 42.6903 19.4852 42.901 19.5478 43.1846L20.3189 46.6246H27.8178L28.5746 43.2483C28.6139 42.9552 28.8239 42.7 29.1272 42.6178L30.005 42.3592C29.6 40.7688 29.5869 39.0834 29.9678 37.4847C23.1849 40.4725 15.3122 37.8979 11.532 31.661C8.02808 25.8799 8.94692 18.4683 13.7067 13.7088C19.4293 7.98646 28.7075 7.98646 34.4301 13.7088C38.6882 17.9667 39.9255 24.427 37.4841 29.969C39.0827 29.5883 40.7672 29.6012 42.3575 30.006ZM35.4098 30.7106C38.4268 25.5696 37.5864 19.0073 33.3588 14.7801C28.228 9.6496 19.9089 9.6496 14.7781 14.7801C10.7716 18.7864 9.76384 24.9487 12.3579 30.0326L15.3415 27.0492C16.0005 26.3903 16.2826 25.5693 16.1691 24.6453C15.6167 20.151 18.7197 16.0035 23.218 15.2997C24.943 15.0298 26.7356 15.2975 28.3258 16.1022C28.8588 16.3492 28.923 16.9796 28.5667 17.3358L23.4859 22.4163L25.7222 24.6524L30.803 19.572L30.8041 19.5731C31.1618 19.2157 31.7737 19.3018 32.0105 19.7614C32.8358 21.3642 33.1121 23.177 32.8393 24.9204C32.1354 29.4185 27.9877 32.5213 23.4932 31.969C22.569 31.8554 21.748 32.1376 21.089 32.7965L18.1055 35.7799C21.0153 37.2644 24.4361 37.6163 27.6226 36.7233C28.7165 36.4168 29.7522 35.9726 30.7096 35.4107C31.2069 34.3884 31.8707 33.462 32.6659 32.6669C33.4609 31.8716 34.3873 31.2079 35.4098 30.7106ZM13.1513 31.3818L16.4129 28.1204C17.3988 27.1345 17.8426 25.8461 17.6725 24.4617C17.0555 19.4432 21.8848 15.4629 26.7012 17.0588L21.8791 21.8806C21.5833 22.1764 21.5833 22.6561 21.8791 22.9519L25.1866 26.2593C25.4824 26.5551 25.9621 26.5551 26.258 26.2593L31.0801 21.4375C32.6761 26.2535 28.6955 31.0826 23.6768 30.4657C22.2922 30.2955 21.0038 30.7392 20.0178 31.725L16.7563 34.9865C15.3318 34.0306 14.1071 32.8061 13.1513 31.3818ZM45.9545 33.738C42.5809 30.3645 37.1107 30.3645 33.737 33.738C30.3634 37.1114 30.3634 42.5813 33.737 45.9547C37.1107 49.3282 42.5809 49.3282 45.9545 45.9547C49.3281 42.5813 49.3281 37.1114 45.9545 33.738Z" fill="#4064DF"/>
</svg>
