<svg width="730" height="1022" viewBox="0 0 730 1022" fill="none" xmlns="http://www.w3.org/2000/svg">
<mask id="path-1-inside-1_2663_17016" fill="white">
<path fill-rule="evenodd" clip-rule="evenodd" d="M158.393 121.18C262.562 12.9622 408.969 -54.4238 571.072 -54.4238C836.773 -54.4238 1060.24 126.605 1125.02 372.164C1125.02 372.164 924.389 375.305 797.674 357.887C657.261 338.471 577.065 321.624 444.928 270.514C327.346 225.114 158.679 121.18 158.679 121.18M1138.43 440.692C1136.44 426.415 1134.15 412.424 1131.01 398.433C1131.01 398.433 849.33 402.43 672.386 375.019C480.602 345.324 368.728 325.622 192.355 244.53C154.683 227.113 133.849 214.549 97.3191 196.561C77.9124 224.828 61.0742 255.095 47.0899 286.789C47.0899 286.789 158.679 324.48 231.169 343.896C385.566 385.013 476.036 396.149 634.429 414.994C829.638 438.408 1138.15 440.692 1138.15 440.692M639.852 493.801L1143 496.086C1142.71 486.663 1142.14 477.24 1141.29 467.818C1141.29 467.818 810.231 470.388 599.897 451.828C371.867 431.555 237.447 408.712 19.6921 362.456C9.70337 398.147 2.85393 435.267 0 473.528L639.852 493.801ZM158.393 900.973C262.562 1009.19 408.969 1076.58 570.786 1076.58C836.488 1076.58 1059.95 895.548 1124.73 649.988C1124.73 649.988 924.103 646.847 797.389 664.265C656.975 683.681 576.78 700.528 444.643 751.638C327.061 797.038 158.393 900.973 158.393 900.973ZM634.715 607.158C476.036 626.289 385.852 637.139 231.454 678.256C158.679 697.673 47.3753 735.363 47.3753 735.363C61.3596 767.057 78.1978 797.324 97.6045 825.592C134.135 807.318 154.969 795.04 192.64 777.622C368.728 696.53 480.888 676.829 672.672 647.133C849.616 619.722 1131.3 623.719 1131.3 623.719C1134.15 609.728 1136.72 595.737 1138.72 581.46C1138.72 581.46 830.209 583.745 635 607.158M0 548.624C2.85393 586.885 9.70337 624.005 19.6921 659.697C237.733 613.44 371.867 590.597 599.897 570.324C810.231 551.765 1141.29 554.335 1141.29 554.335C1142.14 544.912 1142.71 535.775 1143 526.352L639.852 528.351L0 548.624Z"/>
</mask>
<path fill-rule="evenodd" clip-rule="evenodd" d="M158.393 121.18C262.562 12.9622 408.969 -54.4238 571.072 -54.4238C836.773 -54.4238 1060.24 126.605 1125.02 372.164C1125.02 372.164 924.389 375.305 797.674 357.887C657.261 338.471 577.065 321.624 444.928 270.514C327.346 225.114 158.679 121.18 158.679 121.18M1138.43 440.692C1136.44 426.415 1134.15 412.424 1131.01 398.433C1131.01 398.433 849.33 402.43 672.386 375.019C480.602 345.324 368.728 325.622 192.355 244.53C154.683 227.113 133.849 214.549 97.3191 196.561C77.9124 224.828 61.0742 255.095 47.0899 286.789C47.0899 286.789 158.679 324.48 231.169 343.896C385.566 385.013 476.036 396.149 634.429 414.994C829.638 438.408 1138.15 440.692 1138.15 440.692M639.852 493.801L1143 496.086C1142.71 486.663 1142.14 477.24 1141.29 467.818C1141.29 467.818 810.231 470.388 599.897 451.828C371.867 431.555 237.447 408.712 19.6921 362.456C9.70337 398.147 2.85393 435.267 0 473.528L639.852 493.801ZM158.393 900.973C262.562 1009.19 408.969 1076.58 570.786 1076.58C836.488 1076.58 1059.95 895.548 1124.73 649.988C1124.73 649.988 924.103 646.847 797.389 664.265C656.975 683.681 576.78 700.528 444.643 751.638C327.061 797.038 158.393 900.973 158.393 900.973ZM634.715 607.158C476.036 626.289 385.852 637.139 231.454 678.256C158.679 697.673 47.3753 735.363 47.3753 735.363C61.3596 767.057 78.1978 797.324 97.6045 825.592C134.135 807.318 154.969 795.04 192.64 777.622C368.728 696.53 480.888 676.829 672.672 647.133C849.616 619.722 1131.3 623.719 1131.3 623.719C1134.15 609.728 1136.72 595.737 1138.72 581.46C1138.72 581.46 830.209 583.745 635 607.158M0 548.624C2.85393 586.885 9.70337 624.005 19.6921 659.697C237.733 613.44 371.867 590.597 599.897 570.324C810.231 551.765 1141.29 554.335 1141.29 554.335C1142.14 544.912 1142.71 535.775 1143 526.352L639.852 528.351L0 548.624Z" fill="#4064DF" fill-opacity="0.05"/>
<path d="M1125.02 372.164L1125.04 373.164L1126.31 373.144L1125.99 371.909L1125.02 372.164ZM797.674 357.887L797.537 358.878L797.538 358.878L797.674 357.887ZM444.928 270.514L445.289 269.581L445.288 269.581L444.928 270.514ZM1131.01 398.433L1131.99 398.214L1131.81 397.422L1131 397.433L1131.01 398.433ZM672.386 375.019L672.54 374.031L672.539 374.031L672.386 375.019ZM192.355 244.53L191.935 245.438L191.937 245.439L192.355 244.53ZM97.3191 196.561L97.7609 195.663L96.9845 195.281L96.4947 195.995L97.3191 196.561ZM47.0899 286.789L46.175 286.386L45.7333 287.387L46.7699 287.737L47.0899 286.789ZM231.169 343.896L230.91 344.862L230.911 344.862L231.169 343.896ZM634.429 414.994L634.548 414.001L634.547 414.001L634.429 414.994ZM639.852 493.801L639.82 494.801L639.834 494.801L639.847 494.801L639.852 493.801ZM1143 496.086L1143 497.086L1144.03 497.09L1144 496.055L1143 496.086ZM1141.29 467.818L1142.28 467.727L1142.2 466.811L1141.28 466.818L1141.29 467.818ZM599.897 451.828L599.808 452.824L599.809 452.824L599.897 451.828ZM19.6921 362.456L19.8999 361.478L18.982 361.283L18.7291 362.186L19.6921 362.456ZM0 473.528L-0.99723 473.454L-1.07487 474.495L-0.0316679 474.528L0 473.528ZM158.393 900.973L157.869 900.121L156.812 900.772L157.673 901.666L158.393 900.973ZM1124.73 649.988L1125.7 650.243L1126.03 649.009L1124.75 648.989L1124.73 649.988ZM797.389 664.265L797.253 663.274L797.252 663.274L797.389 664.265ZM444.643 751.638L445.003 752.571L445.003 752.571L444.643 751.638ZM231.454 678.256L231.197 677.29L231.196 677.29L231.454 678.256ZM47.3753 735.363L47.0545 734.416L46.0191 734.767L46.4604 735.767L47.3753 735.363ZM97.6045 825.592L96.7801 826.158L97.273 826.876L98.0519 826.486L97.6045 825.592ZM192.64 777.622L192.222 776.714L192.221 776.714L192.64 777.622ZM672.672 647.133L672.825 648.121H672.825L672.672 647.133ZM1131.3 623.719L1131.28 624.719L1132.11 624.731L1132.28 623.919L1131.3 623.719ZM1138.72 581.46L1139.71 581.599L1139.87 580.452L1138.71 580.46L1138.72 581.46ZM0 548.624L-0.0316679 547.624L-1.07487 547.657L-0.99723 548.698L0 548.624ZM19.6921 659.697L18.7291 659.966L18.982 660.87L19.8997 660.675L19.6921 659.697ZM599.897 570.324L599.809 569.328L599.808 569.328L599.897 570.324ZM1141.29 554.335L1141.28 555.335L1142.2 555.342L1142.28 554.425L1141.29 554.335ZM1143 526.352L1144 526.383L1144.03 525.348L1143 525.352L1143 526.352ZM639.852 528.351L639.848 527.351L639.834 527.351L639.82 527.351L639.852 528.351ZM158.393 121.18L159.114 121.873C263.102 13.8433 409.252 -53.4238 571.072 -53.4238V-54.4238V-55.4238C408.686 -55.4238 262.022 12.081 157.673 120.486L158.393 121.18ZM571.072 -54.4238V-53.4238C836.307 -53.4238 1059.38 127.287 1124.05 372.419L1125.02 372.164L1125.99 371.909C1061.09 125.922 837.239 -55.4238 571.072 -55.4238V-54.4238ZM1125.02 372.164C1125 371.164 1125 371.164 1125 371.164C1125 371.164 1125 371.164 1125 371.164C1124.99 371.164 1124.98 371.164 1124.97 371.165C1124.94 371.165 1124.91 371.165 1124.86 371.166C1124.76 371.168 1124.62 371.17 1124.43 371.172C1124.04 371.178 1123.47 371.186 1122.72 371.195C1121.22 371.214 1119.01 371.239 1116.14 371.265C1110.41 371.317 1102.08 371.371 1091.69 371.382C1070.91 371.405 1041.88 371.253 1008.89 370.557C942.896 369.165 861.108 365.597 797.81 356.896L797.674 357.887L797.538 358.878C860.955 367.595 942.84 371.165 1008.84 372.557C1041.85 373.253 1070.9 373.405 1091.69 373.382C1102.09 373.371 1110.42 373.317 1116.16 373.265C1119.03 373.239 1121.25 373.214 1122.75 373.195C1123.5 373.185 1124.07 373.178 1124.45 373.172C1124.65 373.17 1124.79 373.167 1124.89 373.166C1124.94 373.165 1124.97 373.165 1125 373.164C1125.01 373.164 1125.02 373.164 1125.03 373.164C1125.03 373.164 1125.03 373.164 1125.03 373.164C1125.04 373.164 1125.04 373.164 1125.02 372.164ZM797.674 357.887L797.811 356.897C657.45 337.488 577.334 320.656 445.289 269.581L444.928 270.514L444.567 271.446C576.796 322.593 657.071 339.454 797.537 358.878L797.674 357.887ZM444.928 270.514L445.288 269.581C386.566 246.907 315.054 209.602 258.197 177.948C229.774 162.124 205.024 147.718 187.38 137.268C178.558 132.043 171.513 127.808 166.674 124.879C164.254 123.414 162.386 122.276 161.123 121.505C160.491 121.119 160.011 120.824 159.689 120.627C159.528 120.528 159.406 120.453 159.325 120.403C159.285 120.378 159.254 120.359 159.234 120.347C159.223 120.341 159.216 120.336 159.211 120.333C159.208 120.331 159.206 120.33 159.205 120.329C159.204 120.329 159.203 120.328 158.679 121.18C158.154 122.031 158.155 122.031 158.156 122.032C158.157 122.033 158.159 122.034 158.162 122.036C158.167 122.039 158.175 122.044 158.185 122.05C158.206 122.063 158.237 122.082 158.278 122.107C158.359 122.157 158.481 122.232 158.643 122.331C158.966 122.53 159.448 122.825 160.08 123.211C161.345 123.984 163.216 125.124 165.638 126.59C170.482 129.522 177.533 133.761 186.361 138.989C204.016 149.446 228.782 163.861 257.224 179.695C314.096 211.358 385.708 248.72 444.568 271.447L444.928 270.514ZM1138.43 440.692L1139.42 440.553C1137.42 426.263 1135.14 412.242 1131.99 398.214L1131.01 398.433L1130.04 398.652C1133.17 412.606 1135.45 426.568 1137.44 440.831L1138.43 440.692ZM1131.01 398.433C1131 397.433 1131 397.433 1131 397.433C1130.99 397.433 1130.99 397.433 1130.99 397.433C1130.98 397.433 1130.97 397.434 1130.95 397.434C1130.91 397.434 1130.86 397.435 1130.8 397.436C1130.66 397.438 1130.46 397.44 1130.19 397.444C1129.65 397.45 1128.85 397.46 1127.8 397.471C1125.69 397.494 1122.58 397.523 1118.56 397.551C1110.51 397.607 1098.82 397.656 1084.24 397.629C1055.07 397.576 1014.34 397.219 968.08 396.006C875.549 393.579 760.945 387.726 672.54 374.031L672.386 375.019L672.233 376.007C760.772 389.723 875.481 395.578 968.028 398.005C1014.31 399.219 1055.06 399.576 1084.23 399.629C1098.82 399.656 1110.52 399.607 1118.57 399.551C1122.6 399.523 1125.71 399.494 1127.82 399.471C1128.87 399.46 1129.67 399.45 1130.21 399.444C1130.48 399.44 1130.69 399.438 1130.82 399.436C1130.89 399.435 1130.94 399.434 1130.98 399.434C1130.99 399.433 1131.01 399.433 1131.01 399.433C1131.02 399.433 1131.02 399.433 1131.02 399.433C1131.03 399.433 1131.03 399.433 1131.01 398.433ZM672.386 375.019L672.539 374.031C480.779 344.339 369.017 324.654 192.773 243.622L192.355 244.53L191.937 245.439C368.44 326.59 480.425 346.308 672.233 376.007L672.386 375.019ZM192.355 244.53L192.775 243.623C155.09 226.199 134.391 213.701 97.7609 195.663L97.3191 196.561L96.8773 197.458C133.308 215.397 154.277 228.026 191.935 245.438L192.355 244.53ZM97.3191 196.561L96.4947 195.995C77.0523 224.314 60.1839 254.635 46.175 286.386L47.0899 286.789L48.0048 287.193C61.9644 255.555 78.7724 225.342 98.1435 197.126L97.3191 196.561ZM47.0899 286.789C46.7699 287.737 46.7703 287.737 46.7712 287.737C46.7721 287.737 46.7733 287.738 46.7751 287.738C46.7785 287.74 46.7836 287.741 46.7904 287.744C46.804 287.748 46.8243 287.755 46.8513 287.764C46.9054 287.782 46.986 287.81 47.0928 287.846C47.3064 287.918 47.6243 288.025 48.042 288.165C48.8775 288.446 50.112 288.861 51.7089 289.395C54.9027 290.464 59.5459 292.012 65.3441 293.931C76.9405 297.769 93.1574 303.088 111.64 309.014C148.601 320.864 194.64 335.147 230.91 344.862L231.169 343.896L231.427 342.93C195.207 333.229 149.206 318.958 112.251 307.109C93.7752 301.186 77.5643 295.868 65.9725 292.032C60.1766 290.114 55.5355 288.567 52.3437 287.498C50.7477 286.964 49.5141 286.55 48.6795 286.269C48.2622 286.129 47.9447 286.022 47.7316 285.95C47.625 285.914 47.5445 285.887 47.4907 285.869C47.4638 285.86 47.4436 285.853 47.4301 285.849C47.4233 285.846 47.4183 285.845 47.4149 285.844C47.4132 285.843 47.412 285.843 47.4111 285.842C47.4103 285.842 47.4099 285.842 47.0899 286.789ZM231.169 343.896L230.911 344.862C385.381 385.998 475.909 397.141 634.311 415.987L634.429 414.994L634.547 414.001C476.163 395.157 385.752 384.027 231.426 342.93L231.169 343.896ZM634.429 414.994L634.31 415.987C731.959 427.699 857.924 434.125 959.458 437.623C1010.23 439.372 1054.9 440.389 1086.88 440.969C1102.86 441.259 1115.68 441.44 1124.5 441.548C1128.91 441.602 1132.32 441.638 1134.63 441.661C1135.78 441.672 1136.66 441.68 1137.25 441.685C1137.54 441.687 1137.77 441.689 1137.92 441.69C1137.99 441.691 1138.05 441.691 1138.08 441.692C1138.1 441.692 1138.12 441.692 1138.13 441.692C1138.13 441.692 1138.14 441.692 1138.14 441.692C1138.14 441.692 1138.14 441.692 1138.15 440.692C1138.16 439.692 1138.15 439.692 1138.15 439.692C1138.15 439.692 1138.15 439.692 1138.14 439.692C1138.13 439.692 1138.12 439.692 1138.1 439.692C1138.06 439.691 1138.01 439.691 1137.93 439.69C1137.78 439.689 1137.56 439.687 1137.27 439.685C1136.68 439.68 1135.8 439.672 1134.65 439.661C1132.34 439.638 1128.93 439.602 1124.52 439.548C1115.71 439.44 1102.9 439.259 1086.91 438.969C1054.94 438.39 1010.28 437.372 959.527 435.624C858.003 432.126 732.108 425.703 634.548 414.001L634.429 414.994ZM639.852 493.801L639.847 494.801L1143 497.086L1143 496.086L1143 495.086L639.856 492.801L639.852 493.801ZM1143 496.086L1144 496.055C1143.71 486.613 1143.14 477.17 1142.28 467.727L1141.29 467.818L1140.29 467.908C1141.15 477.311 1141.72 486.713 1142 496.116L1143 496.086ZM1141.29 467.818C1141.28 466.818 1141.28 466.818 1141.28 466.818C1141.27 466.818 1141.27 466.818 1141.27 466.818C1141.25 466.818 1141.24 466.818 1141.22 466.818C1141.18 466.819 1141.12 466.819 1141.04 466.82C1140.88 466.821 1140.64 466.822 1140.32 466.825C1139.69 466.829 1138.75 466.835 1137.51 466.842C1135.04 466.856 1131.38 466.875 1126.65 466.892C1117.19 466.926 1103.43 466.954 1086.28 466.929C1051.96 466.88 1004.01 466.622 949.483 465.783C840.432 464.105 705.114 460.108 599.985 450.832L599.897 451.828L599.809 452.824C705.014 462.107 840.392 466.105 949.452 467.783C1003.99 468.621 1051.95 468.88 1086.27 468.929C1103.44 468.954 1117.19 468.926 1126.66 468.892C1131.39 468.875 1135.05 468.856 1137.52 468.842C1138.76 468.835 1139.71 468.829 1140.34 468.825C1140.66 468.822 1140.89 468.821 1141.05 468.82C1141.13 468.819 1141.19 468.818 1141.23 468.818C1141.26 468.818 1141.27 468.818 1141.28 468.818C1141.29 468.818 1141.29 468.818 1141.29 468.818C1141.29 468.818 1141.3 468.818 1141.29 467.818ZM599.897 451.828L599.985 450.832C372.005 430.563 237.625 407.728 19.8999 361.478L19.6921 362.456L19.4843 363.434C237.269 409.697 371.73 432.547 599.808 452.824L599.897 451.828ZM19.6921 362.456L18.7291 362.186C8.72384 397.937 1.86197 435.122 -0.99723 473.454L0 473.528L0.99723 473.603C3.84589 435.412 10.6829 398.358 20.6551 362.725L19.6921 362.456ZM0 473.528L-0.0316679 474.528L639.82 494.801L639.852 493.801L639.883 492.802L0.0316679 472.529L0 473.528ZM158.393 900.973L157.673 901.666C262.022 1010.07 408.685 1077.58 570.786 1077.58V1076.58V1075.58C409.252 1075.58 263.102 1008.31 159.114 900.279L158.393 900.973ZM570.786 1076.58V1077.58C836.953 1077.58 1060.8 896.23 1125.7 650.243L1124.73 649.988L1123.77 649.733C1059.1 894.865 836.022 1075.58 570.786 1075.58V1076.58ZM1124.73 649.988C1124.75 648.989 1124.75 648.989 1124.75 648.988C1124.75 648.988 1124.74 648.988 1124.74 648.988C1124.73 648.988 1124.73 648.988 1124.71 648.988C1124.69 648.988 1124.65 648.987 1124.6 648.986C1124.51 648.985 1124.36 648.983 1124.17 648.98C1123.79 648.975 1123.21 648.967 1122.46 648.957C1120.96 648.939 1118.74 648.913 1115.88 648.888C1110.14 648.836 1101.8 648.781 1091.41 648.77C1070.61 648.747 1041.57 648.899 1008.56 649.595C942.554 650.987 860.67 654.557 797.253 663.274L797.389 664.265L797.525 665.256C860.822 656.555 942.611 652.987 1008.6 651.595C1041.59 650.899 1070.62 650.747 1091.41 650.77C1101.8 650.781 1110.13 650.836 1115.86 650.887C1118.72 650.913 1120.94 650.939 1122.44 650.957C1123.19 650.967 1123.76 650.974 1124.14 650.98C1124.33 650.983 1124.48 650.985 1124.57 650.986C1124.62 650.987 1124.66 650.987 1124.68 650.988C1124.7 650.988 1124.7 650.988 1124.71 650.988C1124.71 650.988 1124.72 650.988 1124.72 650.988C1124.72 650.988 1124.72 650.988 1124.73 649.988ZM797.389 664.265L797.252 663.274C656.786 682.698 576.511 699.56 444.282 750.706L444.643 751.638L445.003 752.571C577.049 701.496 657.165 684.665 797.526 665.256L797.389 664.265ZM444.643 751.638L444.283 750.706C385.423 773.432 313.81 810.794 256.938 842.457C228.497 858.291 203.731 872.706 186.075 883.163C177.247 888.392 170.197 892.63 165.353 895.563C162.93 897.029 161.06 898.168 159.795 898.941C159.162 899.328 158.681 899.622 158.358 899.821C158.196 899.92 158.074 899.995 157.992 900.045C157.951 900.07 157.92 900.089 157.9 900.102C157.89 900.108 157.882 900.113 157.877 900.116C157.874 900.118 157.872 900.119 157.871 900.12C157.869 900.121 157.869 900.121 158.393 900.973C158.918 901.824 158.918 901.824 158.92 901.823C158.921 901.822 158.923 901.821 158.925 901.819C158.93 901.816 158.938 901.812 158.948 901.805C158.969 901.793 158.999 901.774 159.04 901.749C159.121 901.699 159.243 901.624 159.404 901.525C159.726 901.328 160.206 901.034 160.838 900.648C162.1 899.876 163.969 898.738 166.388 897.274C171.227 894.344 178.272 890.109 187.094 884.884C204.738 874.434 229.488 860.028 257.911 844.204C314.768 812.55 386.28 775.245 445.003 752.571L444.643 751.638ZM634.715 607.158L634.595 606.166C475.91 625.297 385.667 636.154 231.197 677.29L231.454 678.256L231.711 679.223C386.037 638.125 476.162 627.281 634.834 608.151L634.715 607.158ZM231.454 678.256L231.196 677.29C194.783 687.005 148.744 701.288 111.818 713.139C93.3532 719.065 77.1629 724.384 65.5888 728.221C59.8017 730.14 55.1685 731.689 51.982 732.758C50.3887 733.292 49.157 733.706 48.3236 733.987C47.9069 734.128 47.5897 734.235 47.3767 734.307C47.2702 734.343 47.1897 734.37 47.1358 734.388C47.1089 734.398 47.0886 734.404 47.075 734.409C47.0682 734.411 47.0631 734.413 47.0597 734.414C47.058 734.415 47.0567 734.415 47.0559 734.415C47.055 734.416 47.0545 734.416 47.3753 735.363C47.696 736.31 47.6964 736.31 47.6973 736.31C47.6981 736.31 47.6993 736.309 47.701 736.309C47.7044 736.307 47.7094 736.306 47.7162 736.303C47.7296 736.299 47.7498 736.292 47.7766 736.283C47.8303 736.265 47.9106 736.238 48.0169 736.202C48.2295 736.13 48.5462 736.023 48.9625 735.883C49.795 735.602 51.0257 735.188 52.618 734.654C55.8026 733.586 60.4336 732.038 66.2183 730.12C77.7878 726.284 93.9718 720.967 112.429 715.043C149.349 703.194 195.349 688.924 231.712 679.222L231.454 678.256ZM47.3753 735.363L46.4604 735.767C60.4693 767.517 77.3377 797.838 96.7801 826.158L97.6045 825.592L98.4289 825.026C79.0578 796.81 62.2498 766.598 48.2902 734.959L47.3753 735.363ZM97.6045 825.592L98.0519 826.486C134.647 808.179 155.397 795.943 193.06 778.53L192.64 777.622L192.221 776.714C154.54 794.136 133.622 806.456 97.1571 824.697L97.6045 825.592ZM192.64 777.622L193.059 778.53C369.017 697.498 481.064 677.813 672.825 648.121L672.672 647.133L672.519 646.145C480.711 675.844 368.44 695.562 192.222 776.714L192.64 777.622ZM672.672 647.133L672.825 648.121C761.231 634.426 875.834 628.573 968.366 626.147C1014.62 624.933 1055.36 624.576 1084.52 624.523C1099.11 624.496 1110.8 624.545 1118.84 624.601C1122.87 624.629 1125.98 624.658 1128.08 624.681C1129.13 624.692 1129.94 624.702 1130.47 624.709C1130.74 624.712 1130.94 624.715 1131.08 624.716C1131.15 624.717 1131.2 624.718 1131.23 624.718C1131.25 624.719 1131.26 624.719 1131.27 624.719C1131.28 624.719 1131.28 624.719 1131.28 624.719C1131.28 624.719 1131.28 624.719 1131.3 623.719C1131.31 622.719 1131.31 622.719 1131.31 622.719C1131.31 622.719 1131.3 622.719 1131.3 622.719C1131.29 622.719 1131.28 622.719 1131.26 622.719C1131.23 622.718 1131.18 622.717 1131.11 622.717C1130.97 622.715 1130.77 622.712 1130.5 622.709C1129.96 622.702 1129.16 622.692 1128.1 622.681C1126 622.659 1122.88 622.629 1118.86 622.601C1110.81 622.545 1099.11 622.496 1084.52 622.523C1055.34 622.577 1014.59 622.934 968.313 624.147C875.767 626.575 761.057 632.429 672.519 646.145L672.672 647.133ZM1131.3 623.719L1132.28 623.919C1135.14 609.916 1137.71 595.903 1139.71 581.599L1138.72 581.46L1137.73 581.322C1135.73 595.571 1133.17 609.541 1130.32 623.519L1131.3 623.719ZM1138.72 581.46C1138.71 580.46 1138.71 580.46 1138.71 580.46C1138.71 580.46 1138.7 580.46 1138.7 580.46C1138.69 580.461 1138.67 580.461 1138.66 580.461C1138.62 580.461 1138.56 580.461 1138.49 580.462C1138.34 580.463 1138.11 580.465 1137.82 580.468C1137.23 580.473 1136.35 580.48 1135.2 580.492C1132.89 580.514 1129.48 580.55 1125.07 580.604C1116.25 580.712 1103.43 580.893 1087.45 581.183C1055.47 581.763 1010.8 582.781 960.029 584.53C858.495 588.028 732.53 594.453 634.881 606.165L635 607.158L635.119 608.151C732.679 596.45 858.574 590.026 960.097 586.529C1010.86 584.78 1055.51 583.763 1087.48 583.183C1103.47 582.893 1116.28 582.712 1125.09 582.604C1129.5 582.55 1132.91 582.514 1135.22 582.492C1136.37 582.48 1137.25 582.473 1137.84 582.468C1138.13 582.465 1138.35 582.463 1138.5 582.462C1138.58 582.461 1138.63 582.461 1138.67 582.461C1138.69 582.461 1138.7 582.46 1138.71 582.46C1138.72 582.46 1138.72 582.46 1138.72 582.46C1138.73 582.46 1138.73 582.46 1138.72 581.46ZM0 548.624L-0.99723 548.698C1.86197 587.031 8.72384 624.215 18.7291 659.966L19.6921 659.697L20.6551 659.427C10.6829 623.794 3.84589 586.74 0.99723 548.549L0 548.624ZM19.6921 659.697L19.8997 660.675C237.91 614.425 372.005 591.589 599.985 571.32L599.897 570.324L599.808 569.328C371.73 589.606 237.555 612.456 19.4846 658.718L19.6921 659.697ZM599.897 570.324L599.985 571.321C705.114 562.044 840.432 558.047 949.483 556.369C1004.01 555.531 1051.96 555.272 1086.28 555.223C1103.43 555.198 1117.19 555.226 1126.65 555.26C1131.38 555.277 1135.04 555.296 1137.51 555.31C1138.75 555.317 1139.69 555.323 1140.32 555.328C1140.64 555.33 1140.88 555.332 1141.04 555.333C1141.12 555.333 1141.18 555.334 1141.22 555.334C1141.24 555.334 1141.25 555.334 1141.27 555.334C1141.27 555.334 1141.27 555.334 1141.28 555.334C1141.28 555.334 1141.28 555.335 1141.29 554.335C1141.3 553.335 1141.29 553.335 1141.29 553.335C1141.29 553.335 1141.29 553.334 1141.28 553.334C1141.27 553.334 1141.26 553.334 1141.23 553.334C1141.19 553.334 1141.13 553.333 1141.05 553.333C1140.89 553.332 1140.66 553.33 1140.34 553.328C1139.71 553.323 1138.76 553.317 1137.52 553.31C1135.05 553.296 1131.39 553.277 1126.66 553.26C1117.19 553.226 1103.44 553.198 1086.27 553.223C1051.95 553.272 1003.99 553.531 949.452 554.37C840.392 556.047 705.014 560.045 599.809 569.328L599.897 570.324ZM1141.29 554.335L1142.28 554.425C1143.14 544.984 1143.71 535.826 1144 526.383L1143 526.352L1142 526.322C1141.72 535.723 1141.15 544.84 1140.29 554.244L1141.29 554.335ZM1143 526.352L1143 525.352L639.848 527.351L639.852 528.351L639.856 529.351L1143 527.352L1143 526.352ZM639.852 528.351L639.82 527.351L-0.0316679 547.624L0 548.624L0.0316679 549.623L639.883 529.35L639.852 528.351Z" fill="#4064DF" fill-opacity="0.3" mask="url(#path-1-inside-1_2663_17016)"/>
</svg>
