<svg width="308" height="305" viewBox="0 0 308 305" fill="none" xmlns="http://www.w3.org/2000/svg">
<mask id="path-1-inside-1_2653_16290" fill="white">
<path fill-rule="evenodd" clip-rule="evenodd" d="M42.6326 47.3555C70.6703 18.1722 110.077 0 153.708 0C225.223 0 285.37 48.8185 302.807 115.039C302.807 115.039 248.806 115.886 214.699 111.189C176.906 105.953 155.321 101.41 119.755 87.6269C88.1074 75.3837 42.7094 47.3555 42.7094 47.3555M306.417 133.519C305.88 129.669 305.265 125.896 304.42 122.123C304.42 122.123 228.603 123.201 180.977 115.809C129.357 107.801 99.2457 102.488 51.7737 80.6198C41.634 75.9227 36.0265 72.5347 26.1941 67.6837C20.9706 75.3067 16.4385 83.4688 12.6746 92.0159C12.6746 92.0159 42.7095 102.18 62.2206 107.416C103.778 118.504 128.128 121.507 170.761 126.589C223.303 132.903 306.34 133.519 306.34 133.519M172.22 147.841L307.646 148.457C307.569 145.916 307.416 143.375 307.185 140.834C307.185 140.834 218.079 141.527 161.466 136.522C100.091 131.055 63.9105 124.895 5.30027 112.421C2.61173 122.046 0.768156 132.056 0 142.374L172.22 147.841ZM42.6326 257.645C70.6703 286.828 110.077 305 153.631 305C225.146 305 285.293 256.182 302.73 189.961C302.73 189.961 248.729 189.114 214.623 193.811C176.829 199.047 155.244 203.59 119.679 217.373C88.0306 229.616 42.6326 257.645 42.6326 257.645ZM170.838 178.411C128.128 183.57 103.855 186.496 62.2974 197.584C42.7094 202.82 12.7514 212.984 12.7514 212.984C16.5153 221.531 21.0475 229.693 26.2709 237.316C36.1033 232.388 41.7108 229.077 51.8505 224.38C99.2457 202.512 129.434 197.199 181.054 189.191C228.68 181.799 304.497 182.877 304.497 182.877C305.265 179.104 305.956 175.331 306.494 171.481C306.494 171.481 223.456 172.097 170.915 178.411M0 162.626C0.768156 172.944 2.61173 182.954 5.30027 192.579C63.9874 180.105 100.091 173.945 161.466 168.478C218.079 163.473 307.185 164.166 307.185 164.166C307.416 161.625 307.569 159.161 307.646 156.62L172.22 157.159L0 162.626Z"/>
</mask>
<path fill-rule="evenodd" clip-rule="evenodd" d="M42.6326 47.3555C70.6703 18.1722 110.077 0 153.708 0C225.223 0 285.37 48.8185 302.807 115.039C302.807 115.039 248.806 115.886 214.699 111.189C176.906 105.953 155.321 101.41 119.755 87.6269C88.1074 75.3837 42.7094 47.3555 42.7094 47.3555M306.417 133.519C305.88 129.669 305.265 125.896 304.42 122.123C304.42 122.123 228.603 123.201 180.977 115.809C129.357 107.801 99.2457 102.488 51.7737 80.6198C41.634 75.9227 36.0265 72.5347 26.1941 67.6837C20.9706 75.3067 16.4385 83.4688 12.6746 92.0159C12.6746 92.0159 42.7095 102.18 62.2206 107.416C103.778 118.504 128.128 121.507 170.761 126.589C223.303 132.903 306.34 133.519 306.34 133.519M172.22 147.841L307.646 148.457C307.569 145.916 307.416 143.375 307.185 140.834C307.185 140.834 218.079 141.527 161.466 136.522C100.091 131.055 63.9105 124.895 5.30027 112.421C2.61173 122.046 0.768156 132.056 0 142.374L172.22 147.841ZM42.6326 257.645C70.6703 286.828 110.077 305 153.631 305C225.146 305 285.293 256.182 302.73 189.961C302.73 189.961 248.729 189.114 214.623 193.811C176.829 199.047 155.244 203.59 119.679 217.373C88.0306 229.616 42.6326 257.645 42.6326 257.645ZM170.838 178.411C128.128 183.57 103.855 186.496 62.2974 197.584C42.7094 202.82 12.7514 212.984 12.7514 212.984C16.5153 221.531 21.0475 229.693 26.2709 237.316C36.1033 232.388 41.7108 229.077 51.8505 224.38C99.2457 202.512 129.434 197.199 181.054 189.191C228.68 181.799 304.497 182.877 304.497 182.877C305.265 179.104 305.956 175.331 306.494 171.481C306.494 171.481 223.456 172.097 170.915 178.411M0 162.626C0.768156 172.944 2.61173 182.954 5.30027 192.579C63.9874 180.105 100.091 173.945 161.466 168.478C218.079 163.473 307.185 164.166 307.185 164.166C307.416 161.625 307.569 159.161 307.646 156.62L172.22 157.159L0 162.626Z" fill="#4064DF" fill-opacity="0.06"/>
<path d="M302.807 115.039L302.823 116.039L304.099 116.019L303.774 114.784L302.807 115.039ZM214.699 111.189L214.562 112.18L214.563 112.18L214.699 111.189ZM119.755 87.6269L120.117 86.6944L120.116 86.6942L119.755 87.6269ZM304.42 122.123L305.396 121.905L305.218 121.112L304.406 121.123L304.42 122.123ZM180.977 115.809L181.131 114.821L181.131 114.821L180.977 115.809ZM51.7737 80.6198L51.3534 81.5272L51.3553 81.5281L51.7737 80.6198ZM26.1941 67.6837L26.6366 66.7869L25.8592 66.4033L25.3692 67.1184L26.1941 67.6837ZM12.6746 92.0159L11.7594 91.6129L11.319 92.6129L12.354 92.9631L12.6746 92.0159ZM62.2206 107.416L61.9614 108.382L61.9628 108.382L62.2206 107.416ZM170.761 126.589L170.88 125.596L170.879 125.596L170.761 126.589ZM172.22 147.841L172.189 148.841L172.202 148.841L172.216 148.841L172.22 147.841ZM307.646 148.457L307.642 149.457L308.677 149.462L308.646 148.427L307.646 148.457ZM307.185 140.834L308.181 140.744L308.098 139.827L307.178 139.834L307.185 140.834ZM161.466 136.522L161.378 137.518L161.378 137.518L161.466 136.522ZM5.30027 112.421L5.50844 111.443L4.58981 111.247L4.33714 112.152L5.30027 112.421ZM0 142.374L-0.99724 142.3L-1.07471 143.341L-0.0317286 143.374L0 142.374ZM42.6326 257.645L42.1073 256.794L41.0535 257.444L41.9115 258.337L42.6326 257.645ZM302.73 189.961L303.697 190.215L304.022 188.981L302.746 188.961L302.73 189.961ZM214.623 193.811L214.486 192.82L214.485 192.82L214.623 193.811ZM119.679 217.373L120.039 218.306L120.04 218.306L119.679 217.373ZM62.2974 197.584L62.0396 196.618L62.0392 196.618L62.2974 197.584ZM12.7514 212.984L12.4301 212.037L11.3962 212.388L11.8362 213.387L12.7514 212.984ZM26.2709 237.316L25.446 237.882L25.9391 238.601L26.719 238.21L26.2709 237.316ZM51.8505 224.38L51.4315 223.472L51.4302 223.473L51.8505 224.38ZM181.054 189.191L181.208 190.179H181.208L181.054 189.191ZM304.497 182.877L304.483 183.877L305.311 183.888L305.477 183.076L304.497 182.877ZM306.494 171.481L307.484 171.619L307.645 170.472L306.487 170.481L306.494 171.481ZM0 162.626L-0.0317286 161.626L-1.07471 161.659L-0.99724 162.7L0 162.626ZM5.30027 192.579L4.33714 192.848L4.58975 193.752L5.50818 193.557L5.30027 192.579ZM161.466 168.478L161.378 167.482L161.378 167.482L161.466 168.478ZM307.185 164.166L307.178 165.166L308.098 165.173L308.181 164.256L307.185 164.166ZM307.646 156.62L308.646 156.65L308.677 155.615L307.642 155.62L307.646 156.62ZM172.22 157.159L172.217 156.159L172.203 156.159L172.189 156.159L172.22 157.159ZM42.6326 47.3555L43.3538 48.0483C71.211 19.0528 110.36 1 153.708 1V0V-1C109.793 -1 70.1297 17.2915 41.9115 46.6627L42.6326 47.3555ZM153.708 0V1C224.756 1 284.515 49.4998 301.84 115.294L302.807 115.039L303.774 114.784C286.224 48.1372 225.69 -1 153.708 -1V0ZM302.807 115.039C302.791 114.039 302.791 114.039 302.791 114.039C302.79 114.039 302.79 114.039 302.789 114.039C302.787 114.039 302.785 114.039 302.782 114.039C302.775 114.039 302.766 114.04 302.753 114.04C302.727 114.04 302.688 114.041 302.637 114.042C302.534 114.043 302.381 114.045 302.18 114.048C301.777 114.053 301.181 114.059 300.411 114.066C298.87 114.08 296.63 114.095 293.835 114.098C288.245 114.104 280.437 114.063 271.564 113.876C253.808 113.5 231.829 112.539 214.836 110.198L214.699 111.189L214.563 112.18C231.676 114.537 253.751 115.5 271.522 115.875C280.413 116.063 288.236 116.104 293.837 116.098C296.638 116.095 298.883 116.08 300.429 116.066C301.202 116.059 301.8 116.052 302.205 116.047C302.407 116.045 302.561 116.043 302.665 116.041C302.717 116.041 302.756 116.04 302.783 116.04C302.796 116.039 302.806 116.039 302.812 116.039C302.816 116.039 302.818 116.039 302.82 116.039C302.821 116.039 302.821 116.039 302.822 116.039C302.822 116.039 302.823 116.039 302.807 115.039ZM214.699 111.189L214.837 110.199C177.096 104.97 155.59 100.442 120.117 86.6944L119.755 87.6269L119.394 88.5593C155.052 102.378 176.717 106.936 214.562 112.18L214.699 111.189ZM119.755 87.6269L120.116 86.6942C104.361 80.5992 85.1497 70.56 69.8516 62.0267C62.2083 57.7632 55.5525 53.8817 50.8077 51.0662C48.4354 49.6585 46.5412 48.5175 45.2405 47.7287C44.5902 47.3343 44.0882 47.0279 43.7491 46.8203C43.5796 46.7165 43.4507 46.6374 43.3644 46.5844C43.3212 46.5578 43.2887 46.5378 43.267 46.5244C43.2562 46.5178 43.2481 46.5128 43.2427 46.5094C43.24 46.5078 43.238 46.5065 43.2367 46.5057C43.236 46.5053 43.2355 46.505 43.2352 46.5048C43.2349 46.5046 43.2348 46.5046 42.7094 47.3555C42.1841 48.2064 42.1843 48.2065 42.1847 48.2067C42.1851 48.207 42.1857 48.2073 42.1864 48.2078C42.1878 48.2087 42.19 48.21 42.1928 48.2117C42.1984 48.2152 42.2068 48.2204 42.2179 48.2272C42.2401 48.2409 42.2732 48.2612 42.3169 48.2881C42.4043 48.3419 42.5342 48.4216 42.7049 48.5261C43.0463 48.7351 43.5506 49.0429 44.2034 49.4388C45.509 50.2306 47.4088 51.3749 49.7871 52.7862C54.5434 55.6086 61.2151 59.4993 68.8773 63.7733C84.1902 72.3149 103.502 82.4115 119.395 88.5595L119.755 87.6269ZM306.417 133.519L307.408 133.381C306.868 129.517 306.249 125.715 305.396 121.905L304.42 122.123L303.444 122.342C304.281 126.078 304.891 129.821 305.427 133.658L306.417 133.519ZM304.42 122.123C304.406 121.123 304.406 121.123 304.405 121.123C304.405 121.123 304.404 121.123 304.403 121.123C304.4 121.123 304.397 121.123 304.392 121.123C304.383 121.124 304.37 121.124 304.352 121.124C304.315 121.125 304.261 121.125 304.189 121.126C304.044 121.128 303.829 121.131 303.546 121.134C302.98 121.14 302.144 121.148 301.062 121.155C298.899 121.17 295.754 121.183 291.831 121.176C283.986 121.162 273.028 121.066 260.585 120.739C235.685 120.084 204.877 118.507 181.131 114.821L180.977 115.809L180.824 116.797C204.703 120.504 235.617 122.083 260.532 122.738C272.996 123.065 283.97 123.162 291.828 123.176C295.757 123.183 298.907 123.17 301.076 123.155C302.161 123.148 303 123.14 303.568 123.133C303.852 123.13 304.068 123.128 304.214 123.126C304.286 123.125 304.341 123.124 304.378 123.124C304.397 123.124 304.411 123.123 304.42 123.123C304.425 123.123 304.428 123.123 304.431 123.123C304.432 123.123 304.433 123.123 304.433 123.123C304.434 123.123 304.434 123.123 304.42 122.123ZM180.977 115.809L181.131 114.821C129.535 106.817 99.5347 101.52 52.1921 79.7115L51.7737 80.6198L51.3553 81.5281C98.9567 103.456 129.18 108.785 180.824 116.797L180.977 115.809ZM51.7737 80.6198L52.194 79.7124C42.0411 75.0092 36.5685 71.687 26.6366 66.7869L26.1941 67.6837L25.7517 68.5805C35.4845 73.3824 41.227 76.8363 51.3534 81.5272L51.7737 80.6198ZM26.1941 67.6837L25.3692 67.1184C20.1101 74.7934 15.548 83.0099 11.7594 91.6129L12.6746 92.0159L13.5898 92.4189C17.3291 83.9277 21.8311 75.8201 27.019 68.2489L26.1941 67.6837ZM12.6746 92.0159C12.354 92.9631 12.3541 92.9632 12.3544 92.9633C12.3546 92.9633 12.355 92.9635 12.3555 92.9636C12.3564 92.9639 12.3578 92.9644 12.3596 92.965C12.3633 92.9663 12.3689 92.9682 12.3762 92.9706C12.3908 92.9756 12.4126 92.9829 12.4414 92.9927C12.499 93.0121 12.5848 93.0411 12.6973 93.079C12.9225 93.1549 13.2552 93.2668 13.6853 93.411C14.5457 93.6995 15.7962 94.1173 17.3577 94.635C20.4805 95.6705 24.8477 97.1056 29.8251 98.7045C39.7755 101.901 52.1812 105.757 61.9614 108.382L62.2206 107.416L62.4798 106.45C52.7489 103.839 40.3816 99.995 30.4367 96.8004C25.4665 95.2038 21.1055 93.7706 17.9871 92.7367C16.4279 92.2197 15.1796 91.8026 14.3211 91.5147C13.8919 91.3708 13.5602 91.2592 13.3359 91.1837C13.2238 91.1459 13.1385 91.1171 13.0813 91.0978C13.0526 91.0881 13.0311 91.0808 13.0167 91.076C13.0095 91.0735 13.004 91.0717 13.0004 91.0705C12.9986 91.0699 12.9973 91.0694 12.9964 91.0691C12.996 91.069 12.9956 91.0688 12.9954 91.0688C12.9952 91.0687 12.9951 91.0687 12.6746 92.0159ZM62.2206 107.416L61.9628 108.382C103.592 119.49 128.001 122.499 170.643 127.582L170.761 126.589L170.879 125.596C128.256 120.515 103.964 117.519 62.4784 106.45L62.2206 107.416ZM170.761 126.589L170.642 127.582C196.957 130.744 230.887 132.478 258.219 133.421C271.89 133.893 283.917 134.168 292.527 134.324C296.832 134.402 300.283 134.451 302.658 134.48C303.845 134.495 304.763 134.505 305.385 134.511C305.696 134.514 305.933 134.516 306.092 134.517C306.172 134.518 306.232 134.518 306.272 134.519C306.292 134.519 306.307 134.519 306.318 134.519C306.323 134.519 306.327 134.519 306.329 134.519C306.33 134.519 306.331 134.519 306.332 134.519C306.333 134.519 306.333 134.519 306.34 133.519C306.348 132.519 306.348 132.519 306.347 132.519C306.346 132.519 306.345 132.519 306.344 132.519C306.342 132.519 306.338 132.519 306.333 132.519C306.323 132.519 306.308 132.519 306.288 132.519C306.248 132.519 306.188 132.518 306.109 132.517C305.951 132.516 305.715 132.514 305.405 132.511C304.785 132.505 303.868 132.495 302.682 132.481C300.311 132.451 296.864 132.403 292.563 132.325C283.961 132.168 271.945 131.894 258.288 131.423C230.966 130.48 197.107 128.748 170.88 125.596L170.761 126.589ZM172.22 147.841L172.216 148.841L307.642 149.457L307.646 148.457L307.651 147.457L172.225 146.841L172.22 147.841ZM307.646 148.457L308.646 148.427C308.568 145.866 308.414 143.305 308.181 140.744L307.185 140.834L306.19 140.925C306.418 143.446 306.571 145.967 306.647 148.488L307.646 148.457ZM307.185 140.834C307.178 139.834 307.177 139.834 307.177 139.834C307.176 139.834 307.175 139.834 307.174 139.834C307.171 139.834 307.167 139.835 307.162 139.835C307.151 139.835 307.135 139.835 307.113 139.835C307.07 139.835 307.006 139.836 306.921 139.836C306.751 139.837 306.498 139.839 306.165 139.841C305.499 139.845 304.515 139.85 303.242 139.854C300.697 139.864 296.997 139.871 292.379 139.864C283.145 139.851 270.242 139.781 255.571 139.555C226.222 139.103 189.823 138.025 161.554 135.526L161.466 136.522L161.378 137.518C189.723 140.024 226.183 141.103 255.54 141.555C270.223 141.781 283.135 141.851 292.377 141.864C296.998 141.871 300.701 141.864 303.25 141.854C304.524 141.85 305.51 141.845 306.177 141.841C306.51 141.839 306.764 141.837 306.935 141.836C307.02 141.836 307.085 141.835 307.128 141.835C307.15 141.835 307.166 141.835 307.177 141.834C307.182 141.834 307.186 141.834 307.189 141.834C307.19 141.834 307.191 141.834 307.192 141.834C307.193 141.834 307.193 141.834 307.185 140.834ZM161.466 136.522L161.555 135.526C100.228 130.064 64.0886 123.911 5.50844 111.443L5.30027 112.421L5.0921 113.399C63.7324 125.88 99.9533 132.047 161.378 137.518L161.466 136.522ZM5.30027 112.421L4.33714 112.152C1.63212 121.836 -0.223833 131.911 -0.99724 142.3L0 142.374L0.99724 142.449C1.76014 132.201 3.59134 122.256 6.26341 112.69L5.30027 112.421ZM0 142.374L-0.0317286 143.374L172.189 148.841L172.22 147.841L172.252 146.842L0.0317286 141.375L0 142.374ZM42.6326 257.645L41.9115 258.337C70.1295 287.708 109.793 306 153.631 306V305V304C110.361 304 71.2112 285.947 43.3538 256.952L42.6326 257.645ZM153.631 305V306C225.613 306 286.148 256.863 303.697 190.215L302.73 189.961L301.763 189.706C284.438 255.5 224.679 304 153.631 304V305ZM302.73 189.961C302.746 188.961 302.746 188.961 302.745 188.961C302.745 188.961 302.744 188.961 302.743 188.961C302.741 188.961 302.739 188.961 302.736 188.961C302.729 188.961 302.719 188.961 302.706 188.96C302.679 188.96 302.64 188.959 302.588 188.959C302.485 188.957 302.33 188.955 302.128 188.953C301.723 188.948 301.125 188.941 300.352 188.934C298.807 188.92 296.561 188.905 293.761 188.902C288.159 188.896 280.336 188.937 271.445 189.125C253.674 189.5 231.6 190.463 214.486 192.82L214.623 193.811L214.759 194.802C231.752 192.461 253.731 191.499 271.487 191.124C280.36 190.937 288.168 190.896 293.758 190.902C296.553 190.905 298.793 190.92 300.334 190.934C301.104 190.941 301.7 190.947 302.103 190.952C302.304 190.955 302.457 190.957 302.56 190.958C302.611 190.959 302.65 190.96 302.676 190.96C302.689 190.96 302.699 190.96 302.705 190.961C302.708 190.961 302.711 190.961 302.712 190.961C302.713 190.961 302.714 190.961 302.714 190.961C302.714 190.961 302.714 190.961 302.73 189.961ZM214.623 193.811L214.485 192.82C176.64 198.064 154.975 202.622 119.317 216.441L119.679 217.373L120.04 218.306C155.514 204.558 177.019 200.03 214.76 194.801L214.623 193.811ZM119.679 217.373L119.318 216.44C103.425 222.589 84.1134 232.685 68.8005 241.227C61.1383 245.501 54.4666 249.391 49.7103 252.214C47.332 253.625 45.4322 254.769 44.1266 255.561C43.4738 255.957 42.9695 256.265 42.6281 256.474C42.4574 256.578 42.3275 256.658 42.2401 256.712C42.1964 256.739 42.1633 256.759 42.1411 256.773C42.13 256.78 42.1216 256.785 42.116 256.788C42.1132 256.79 42.111 256.791 42.1096 256.792C42.1088 256.793 42.1083 256.793 42.1079 256.793C42.1075 256.793 42.1073 256.794 42.6326 257.645C43.158 258.495 43.1581 258.495 43.1584 258.495C43.1587 258.495 43.1592 258.495 43.1599 258.494C43.1612 258.493 43.1632 258.492 43.1659 258.491C43.1712 258.487 43.1794 258.482 43.1902 258.476C43.2119 258.462 43.2444 258.442 43.2876 258.416C43.3739 258.363 43.5028 258.283 43.6723 258.18C44.0114 257.972 44.5133 257.666 45.1637 257.271C46.4644 256.483 48.3586 255.341 50.7309 253.934C55.4757 251.118 62.1315 247.237 69.7748 242.973C85.0729 234.44 104.284 224.401 120.039 218.306L119.679 217.373ZM170.838 178.411L170.718 177.418C128.002 182.578 103.669 185.51 62.0396 196.618L62.2974 197.584L62.5552 198.55C104.04 187.481 128.255 184.562 170.958 179.404L170.838 178.411ZM62.2974 197.584L62.0392 196.618C52.2199 199.243 39.8138 203.099 29.8728 206.296C24.9001 207.895 20.5401 209.33 17.4231 210.365C15.8646 210.883 14.6168 211.301 13.7583 211.589C13.3291 211.733 12.9973 211.845 12.7726 211.921C12.6603 211.959 12.5748 211.988 12.5173 212.008C12.4885 212.017 12.4668 212.025 12.4522 212.03C12.4449 212.032 12.4394 212.034 12.4357 212.035C12.4339 212.036 12.4325 212.036 12.4315 212.037C12.4311 212.037 12.4307 212.037 12.4305 212.037C12.4302 212.037 12.4301 212.037 12.7514 212.984C13.0727 213.931 13.0728 213.931 13.073 213.931C13.0732 213.931 13.0735 213.931 13.074 213.931C13.0748 213.93 13.0762 213.93 13.078 213.929C13.0816 213.928 13.087 213.926 13.0941 213.924C13.1085 213.919 13.13 213.912 13.1586 213.902C13.2156 213.883 13.3007 213.854 13.4126 213.816C13.6363 213.741 13.9672 213.629 14.3955 213.485C15.2519 213.197 16.4975 212.78 18.0537 212.263C21.166 211.229 25.5197 209.796 30.485 208.2C40.4201 205.005 52.787 201.161 62.5557 198.55L62.2974 197.584ZM12.7514 212.984L11.8362 213.387C15.6248 221.99 20.187 230.207 25.446 237.882L26.2709 237.316L27.0958 236.751C21.908 229.18 17.4059 221.072 13.6666 212.581L12.7514 212.984ZM26.2709 237.316L26.719 238.21C36.6166 233.25 42.1402 229.98 52.2708 225.288L51.8505 224.38L51.4302 223.473C41.2815 228.174 35.5901 231.527 25.8228 236.422L26.2709 237.316ZM51.8505 224.38L52.2695 225.288C99.5347 203.48 129.611 198.183 181.208 190.179L181.054 189.191L180.901 188.203C129.257 196.214 98.9567 201.544 51.4315 223.472L51.8505 224.38ZM181.054 189.191L181.208 190.179C204.954 186.493 235.762 184.916 260.661 184.261C273.105 183.934 284.062 183.838 291.908 183.824C295.831 183.817 298.976 183.83 301.139 183.845C302.221 183.852 303.057 183.86 303.623 183.866C303.906 183.869 304.121 183.872 304.265 183.874C304.338 183.875 304.392 183.875 304.428 183.876C304.447 183.876 304.46 183.876 304.469 183.877C304.474 183.877 304.477 183.877 304.479 183.877C304.48 183.877 304.481 183.877 304.482 183.877C304.482 183.877 304.483 183.877 304.497 182.877C304.511 181.877 304.511 181.877 304.51 181.877C304.51 181.877 304.509 181.877 304.507 181.877C304.505 181.877 304.501 181.877 304.497 181.877C304.487 181.877 304.474 181.876 304.455 181.876C304.418 181.876 304.363 181.875 304.29 181.874C304.145 181.872 303.929 181.87 303.645 181.867C303.076 181.86 302.237 181.852 301.153 181.845C298.984 181.83 295.834 181.817 291.904 181.824C284.046 181.838 273.073 181.935 260.609 182.262C235.694 182.917 204.78 184.496 180.901 188.203L181.054 189.191ZM304.497 182.877L305.477 183.076C306.247 179.291 306.943 175.496 307.484 171.619L306.494 171.481L305.504 171.342C304.97 175.165 304.283 178.917 303.517 182.677L304.497 182.877ZM306.494 171.481C306.487 170.481 306.486 170.481 306.486 170.481C306.485 170.481 306.484 170.481 306.483 170.481C306.48 170.481 306.476 170.481 306.471 170.481C306.461 170.481 306.446 170.481 306.426 170.481C306.385 170.482 306.325 170.482 306.246 170.483C306.087 170.484 305.85 170.486 305.539 170.489C304.917 170.495 303.999 170.505 302.811 170.52C300.436 170.549 296.985 170.598 292.68 170.676C284.07 170.832 272.043 171.107 258.373 171.579C231.041 172.522 197.111 174.256 170.795 177.418L170.915 178.411L171.034 179.404C197.26 176.252 231.12 174.52 258.442 173.577C272.099 173.106 284.115 172.832 292.717 172.675C297.017 172.597 300.464 172.549 302.836 172.519C304.021 172.505 304.938 172.495 305.558 172.489C305.869 172.486 306.104 172.484 306.263 172.483C306.342 172.482 306.402 172.481 306.442 172.481C306.462 172.481 306.477 172.481 306.487 172.481C306.492 172.481 306.495 172.481 306.498 172.481C306.499 172.481 306.5 172.481 306.501 172.481C306.501 172.481 306.501 172.481 306.494 171.481ZM0 162.626L-0.99724 162.7C-0.223833 173.089 1.63212 183.164 4.33714 192.848L5.30027 192.579L6.26341 192.31C3.59134 182.744 1.76014 172.799 0.99724 162.551L0 162.626ZM5.30027 192.579L5.50818 193.557C64.1656 181.089 100.228 174.936 161.555 169.474L161.466 168.478L161.378 167.482C99.9532 172.953 63.8091 179.12 5.09236 191.601L5.30027 192.579ZM161.466 168.478L161.554 169.474C189.823 166.975 226.222 165.897 255.571 165.445C270.242 165.219 283.145 165.149 292.379 165.136C296.997 165.129 300.697 165.136 303.242 165.146C304.515 165.15 305.499 165.155 306.165 165.159C306.498 165.161 306.751 165.163 306.921 165.164C307.006 165.164 307.07 165.165 307.113 165.165C307.135 165.165 307.151 165.165 307.162 165.165C307.167 165.165 307.171 165.166 307.174 165.166C307.175 165.166 307.176 165.166 307.177 165.166C307.177 165.166 307.178 165.166 307.185 164.166C307.193 163.166 307.193 163.166 307.192 163.166C307.191 163.166 307.19 163.166 307.189 163.166C307.186 163.166 307.182 163.166 307.177 163.166C307.166 163.165 307.15 163.165 307.128 163.165C307.085 163.165 307.02 163.164 306.935 163.164C306.764 163.163 306.51 163.161 306.177 163.159C305.51 163.155 304.524 163.15 303.25 163.146C300.701 163.136 296.998 163.129 292.377 163.136C283.135 163.149 270.223 163.219 255.54 163.445C226.183 163.897 189.723 164.976 161.378 167.482L161.466 168.478ZM307.185 164.166L308.181 164.256C308.413 161.696 308.568 159.212 308.646 156.65L307.646 156.62L306.647 156.589C306.571 159.109 306.418 161.553 306.19 164.075L307.185 164.166ZM307.646 156.62L307.642 155.62L172.217 156.159L172.22 157.159L172.224 158.159L307.65 157.62L307.646 156.62ZM172.22 157.159L172.189 156.159L-0.0317286 161.626L0 162.626L0.0317286 163.625L172.252 158.158L172.22 157.159Z" fill="#4064DF" fill-opacity="0.8" mask="url(#path-1-inside-1_2653_16290)"/>
</svg>
