<svg width="33" height="21" viewBox="0 0 33 21" fill="none" xmlns="http://www.w3.org/2000/svg">
<path d="M31.75 0H0.75C0.34 0 0 0.34 0 0.75C0 1.16 0.34 1.5 0.75 1.5H31.75C32.16 1.5 32.5 1.16 32.5 0.75C32.5 0.34 32.16 0 31.75 0Z" fill="white"/>
<path d="M31.75 19H0.75C0.34 19 0 19.34 0 19.75C0 20.16 0.34 20.5 0.75 20.5H31.75C32.16 20.5 32.5 20.16 32.5 19.75C32.5 19.34 32.16 19 31.75 19Z" fill="white"/>
<path d="M21.5 4.47C21.5 4.06 21.16 3.72 20.75 3.72C20.34 3.72 20 4.06 20 4.47V16.06C20 16.47 20.34 16.81 20.75 16.81C21.16 16.81 21.5 16.47 21.5 16.06V4.47Z" fill="white"/>
<path d="M27.5 4.47C27.5 4.06 27.16 3.72 26.75 3.72C26.34 3.72 26 4.06 26 4.47V16.06C26 16.47 26.34 16.81 26.75 16.81C27.16 16.81 27.5 16.47 27.5 16.06V4.47Z" fill="white"/>
<path d="M14.71 8.34C15.1076 8.34 15.43 8.01764 15.43 7.62C15.43 7.22235 15.1076 6.9 14.71 6.9C14.3124 6.9 13.99 7.22235 13.99 7.62C13.99 8.01764 14.3124 8.34 14.71 8.34Z" fill="white"/>
<path d="M3.05 9.23C3.44764 9.23 3.77 8.90765 3.77 8.51C3.77 8.11236 3.44764 7.79 3.05 7.79C2.65235 7.79 2.33 8.11236 2.33 8.51C2.33 8.90765 2.65235 9.23 3.05 9.23Z" fill="white"/>
<path d="M13.71 14.78C14.1076 14.78 14.43 14.4576 14.43 14.06C14.43 13.6624 14.1076 13.34 13.71 13.34C13.3124 13.34 12.99 13.6624 12.99 14.06C12.99 14.4576 13.3124 14.78 13.71 14.78Z" fill="white"/>
<path d="M7.77 7.12C8.16764 7.12 8.49 6.79765 8.49 6.4C8.49 6.00236 8.16764 5.68 7.77 5.68C7.37235 5.68 7.05 6.00236 7.05 6.4C7.05 6.79765 7.37235 7.12 7.77 7.12Z" fill="white"/>
<path d="M8.94 11.95C9.33764 11.95 9.66 11.6276 9.66 11.23C9.66 10.8324 9.33764 10.51 8.94 10.51C8.54235 10.51 8.22 10.8324 8.22 11.23C8.22 11.6276 8.54235 11.95 8.94 11.95Z" fill="white"/>
<path d="M6.16 15.78C6.55764 15.78 6.88 15.4576 6.88 15.06C6.88 14.6624 6.55764 14.34 6.16 14.34C5.76235 14.34 5.44 14.6624 5.44 15.06C5.44 15.4576 5.76235 15.78 6.16 15.78Z" fill="white"/>
</svg>
