<svg width="28" height="28" viewBox="0 0 28 28" fill="none" xmlns="http://www.w3.org/2000/svg">
<path d="M25.0492 10.9091C25.0492 8.04039 22.8781 5.71484 20.1998 5.71484H7.79865C5.12037 5.71484 2.94922 8.04039 2.94922 10.9091V17.0904C2.94922 19.9591 5.12037 22.2847 7.79865 22.2847H20.1992C22.8775 22.2847 25.0486 19.9591 25.0486 17.0904L25.0492 10.9091ZM17.7563 14.4626L12.1957 17.4097C11.9774 17.5361 11.2367 17.3669 11.2367 17.1016V11.0527C11.2367 10.784 11.9836 10.6148 12.2018 10.7478L17.5246 13.8496C17.7477 13.9859 17.9819 14.3316 17.7563 14.4626Z" fill="url(#paint0_linear_4001_4556)"/>
<defs>
<linearGradient id="paint0_linear_4001_4556" x1="-2.594" y1="22.2847" x2="-19.1876" y2="22.2847" gradientUnits="userSpaceOnUse">
<stop stop-color="white"/>
<stop offset="1" stop-color="#4064DF"/>
</linearGradient>
</defs>
</svg>
