<svg width="59" height="18" viewBox="0 0 59 18" fill="none" xmlns="http://www.w3.org/2000/svg">
<path fill-rule="evenodd" clip-rule="evenodd" d="M8.02003 4.89302C6.16489 6.43082 4.07024 8.16716 0 8.16716V6.06764C3.22799 6.06764 4.79012 4.78406 6.58947 3.29256L6.60725 3.27782C8.46427 1.73848 10.5615 0 14.64 0C18.7174 0 20.8119 1.73758 22.667 3.27646L22.6867 3.29281C24.484 4.78373 26.0463 6.06764 29.28 6.06764C32.5137 6.06764 34.076 4.78373 35.8733 3.29281L35.893 3.27646C37.7481 1.73757 39.8427 0 43.92 0C47.9973 0 50.0919 1.73757 51.947 3.27646L51.9667 3.29281C53.764 4.78373 55.3263 6.06764 58.56 6.06764V8.16716C54.4827 8.16716 52.3881 6.42959 50.533 4.89071L50.5133 4.87435C48.716 3.38343 47.1537 2.09953 43.92 2.09953C40.6863 2.09953 39.124 3.38343 37.3267 4.87435L37.307 4.89071C35.4519 6.42959 33.3573 8.16716 29.28 8.16716C25.2027 8.16716 23.1081 6.42959 21.253 4.8907L21.2333 4.87435C19.436 3.38343 17.8737 2.09953 14.64 2.09953C11.406 2.09953 9.84081 3.38375 8.04224 4.87461L8.02003 4.89302ZM8.02003 14.1309C6.16489 15.6687 4.07024 17.4051 0 17.4051V15.3056C3.22799 15.3056 4.79012 14.022 6.58947 12.5305L6.60726 12.5157C8.46427 10.9764 10.5615 9.23792 14.64 9.23792C18.7174 9.23792 20.8119 10.9755 22.667 12.5144L22.6867 12.5307C24.484 14.0217 26.0463 15.3056 29.28 15.3056C32.5137 15.3056 34.076 14.0217 35.8733 12.5307L35.893 12.5144C37.7481 10.9755 39.8427 9.23792 43.92 9.23792C47.9973 9.23792 50.0919 10.9755 51.947 12.5144L51.9667 12.5307C53.764 14.0217 55.3263 15.3056 58.56 15.3056V17.4051C54.4827 17.4051 52.3881 15.6675 50.533 14.1286L50.5133 14.1123C48.716 12.6214 47.1537 11.3375 43.92 11.3375C40.6863 11.3375 39.124 12.6214 37.3267 14.1123L37.307 14.1286C35.4519 15.6675 33.3573 17.4051 29.28 17.4051C25.2027 17.4051 23.1081 15.6675 21.253 14.1286L21.2333 14.1123C19.436 12.6214 17.8737 11.3375 14.64 11.3375C11.406 11.3375 9.84081 12.6217 8.04224 14.1125L8.02003 14.1309Z" fill="#4064DF"/>
</svg>
