<svg width="31" height="20" viewBox="0 0 31 20" fill="none" xmlns="http://www.w3.org/2000/svg">
<path d="M30.2677 13.1186L24.4822 9.38308C24.2568 9.24019 23.9973 9.16534 23.7377 9.16534C23.5123 9.16534 23.2869 9.21978 23.082 9.32865C22.6448 9.5668 22.3716 10.0227 22.3716 10.5262V11.2543H11.627C9.85108 11.159 8.23223 10.3085 7.18032 8.92039C6.13523 7.53912 5.76638 5.77002 6.16939 4.04854C6.3948 3.06872 6.92758 2.12293 7.70627 1.31322C7.79507 1.21796 7.86338 1.1091 7.91802 1.00023C7.93168 0.966206 7.95217 0.938988 7.96584 0.904967C7.99316 0.83012 8.01365 0.755273 8.01365 0.680426C8.01365 0.571558 7.9795 0.469495 7.93168 0.374235C7.81556 0.156499 7.59698 0 7.33059 0C7.0642 0 6.84562 0.156499 6.7295 0.374235H6.71584C5.82103 1.30642 5.13114 2.46995 4.83742 3.74234C3.79234 8.21275 7.03687 12.3906 11.5929 12.6151H23.7377V10.5262L29.5232 14.2617L23.7377 17.9428V15.8539H11.0396C4.37977 15.2824 -0.107935 8.87956 1.7978 2.41551C1.92758 1.95963 2.18032 1.36766 2.37157 0.938989V0.932185C2.40573 0.857338 2.42622 0.768882 2.42622 0.680426C2.42622 0.571558 2.39207 0.469495 2.34425 0.374235C2.22813 0.156499 2.00955 0 1.74316 0C1.47676 0 1.25819 0.156499 1.14207 0.374235C1.14207 0.374235 1.14207 0.387843 1.13523 0.387843C1.1284 0.401451 1.12157 0.421865 1.11474 0.435474C0.882503 0.938989 0.657093 1.45611 0.493158 2.03447C-0.524601 5.48424 0.0491694 9.14493 2.0642 12.0844C4.08605 15.0374 7.31693 16.9018 10.9303 17.2148C10.9713 17.2148 11.0055 17.2148 11.0464 17.2148H22.3784V17.9428C22.3784 18.4396 22.6516 18.8954 23.0888 19.1336C23.2937 19.2425 23.5191 19.3037 23.7445 19.3037C23.9973 19.3037 24.2568 19.2288 24.4822 19.0928L30.2677 15.4117C30.6571 15.1599 30.8962 14.7312 30.8962 14.2685C30.8962 13.8059 30.6639 13.3704 30.2746 13.1186H30.2677Z" fill="#4064DF"/>
</svg>
