<svg width="227" height="109" viewBox="0 0 227 109" fill="none" xmlns="http://www.w3.org/2000/svg">
<path d="M54.1035 108.207C83.9841 108.207 108.207 83.9841 108.207 54.1035C108.207 24.223 83.9841 0 54.1035 0C24.223 0 0 24.223 0 54.1035C0 83.9841 24.223 108.207 54.1035 108.207Z" fill="#8497D5" fill-opacity="0.1"/>
<path d="M33.397 66.5255V54.7031H34.9322L39.1699 63.592L43.3834 54.7031H44.9332V66.5157H43.3253V58.4301L39.5525 66.5255H38.7825L35 58.4301V66.5255H33.4018H33.397Z" fill="white"/>
<path d="M49.6847 66.7731C49.0357 66.7731 48.4933 66.6506 48.0526 66.4057C47.6118 66.1609 47.2825 65.8376 47.0597 65.4361C46.8369 65.0345 46.7207 64.5937 46.7207 64.1089C46.7207 63.6583 46.7982 63.2665 46.958 62.9286C47.113 62.5906 47.3455 62.3017 47.6554 62.0617C47.9654 61.8217 48.3431 61.6308 48.7935 61.4838C49.181 61.3712 49.6266 61.2683 50.1157 61.1802C50.6097 61.092 51.1279 61.0088 51.6703 60.9353C52.2128 60.857 52.7552 60.7835 53.2879 60.7051L52.6729 61.048C52.6825 60.3525 52.5372 59.8383 52.237 59.5004C51.9367 59.1624 51.4233 58.9959 50.692 58.9959C50.2319 58.9959 49.8106 59.1037 49.428 59.3192C49.0454 59.5347 48.7742 59.8922 48.624 60.3917L47.0403 59.8971C47.2583 59.138 47.6699 58.5307 48.2802 58.085C48.8904 57.6344 49.6992 57.4141 50.7114 57.4141C51.496 57.4141 52.1789 57.5512 52.76 57.8206C53.3412 58.0899 53.7674 58.5209 54.0386 59.1037C54.1791 59.3926 54.2662 59.7012 54.3001 60.0244C54.334 60.3476 54.3486 60.6953 54.3486 61.0675V66.5282H52.8472V64.5006L53.1378 64.7651C52.7746 65.4459 52.3145 65.9503 51.7527 66.2784C51.1909 66.6114 50.5031 66.7731 49.6847 66.7731ZM49.9849 65.3675C50.4644 65.3675 50.8809 65.2793 51.2248 65.1079C51.5686 64.9365 51.8495 64.7161 52.0626 64.4468C52.2757 64.1774 52.4113 63.8983 52.4743 63.6093C52.5663 63.3449 52.6196 63.051 52.6341 62.7229C52.6486 62.3948 52.6535 62.1303 52.6535 61.9344L53.2056 62.1401C52.668 62.2233 52.1837 62.2968 51.743 62.3605C51.3023 62.4241 50.91 62.4927 50.5516 62.5515C50.198 62.6151 49.8832 62.6886 49.6072 62.7768C49.3747 62.86 49.1665 62.958 48.9873 63.0706C48.8081 63.1832 48.6628 63.3253 48.5562 63.4869C48.4497 63.6534 48.3964 63.8493 48.3964 64.0844C48.3964 64.3194 48.4545 64.5251 48.5659 64.721C48.6773 64.9169 48.8517 65.0687 49.0841 65.1863C49.3166 65.2989 49.6169 65.3577 49.9753 65.3577L49.9849 65.3675Z" fill="white"/>
<path d="M59.9376 66.7733C59.1192 66.7733 58.4169 66.5676 57.8212 66.1562C57.2304 65.7449 56.7703 65.1865 56.4506 64.4764C56.1261 63.7663 55.9663 62.968 55.9663 62.0816C55.9663 61.1951 56.131 60.392 56.4555 59.6867C56.7799 58.9815 57.24 58.4281 57.8406 58.0216C58.4363 57.6151 59.1482 57.4094 59.9715 57.4094C60.7949 57.4094 61.4971 57.6151 62.0637 58.0216C62.6304 58.4281 63.0566 58.9864 63.3472 59.6916C63.6378 60.3969 63.783 61.1951 63.783 62.0816C63.783 62.968 63.6378 63.7663 63.3423 64.4715C63.0517 65.1767 62.6207 65.7351 62.0492 66.1513C61.4777 66.5676 60.7755 66.7733 59.9376 66.7733ZM60.1749 65.2208C60.7319 65.2208 61.1871 65.0886 61.5407 64.8192C61.8942 64.5499 62.1509 64.1826 62.3108 63.7124C62.4706 63.2423 62.5529 62.6987 62.5529 62.0865C62.5529 61.4743 62.4706 60.9307 62.3059 60.4605C62.1412 59.9904 61.8846 59.6231 61.5407 59.3586C61.1968 59.0941 60.761 58.9668 60.2282 58.9668C59.6664 58.9668 59.2015 59.1088 58.8383 59.3831C58.475 59.6622 58.2038 60.0393 58.0295 60.5095C57.8551 60.9797 57.7679 61.5037 57.7679 62.0865C57.7679 62.6693 57.8551 63.2031 58.0295 63.6732C58.2038 64.1483 58.4702 64.5205 58.8237 64.8045C59.1773 65.0837 59.6277 65.2208 60.1653 65.2208H60.1749ZM62.5529 66.5284V60.152H62.3592V54.7109H64.0639V66.5333H62.5529V66.5284Z" fill="white"/>
<path d="M70.2239 66.7731C69.3521 66.7731 68.5869 66.5821 67.9282 66.1952C67.2696 65.8083 66.761 65.2695 66.393 64.579C66.0297 63.8885 65.8457 63.0853 65.8457 62.1695C65.8457 61.1998 66.0249 60.3623 66.3833 59.6473C66.7417 58.9323 67.2454 58.3838 67.8895 57.9969C68.5336 57.61 69.2843 57.4141 70.1367 57.4141C70.9891 57.4141 71.7882 57.6247 72.4178 58.0409C73.0474 58.4572 73.5172 59.0547 73.8271 59.8285C74.1371 60.6023 74.263 61.5181 74.1952 62.5809H72.5001V61.9589C72.4904 60.9304 72.2967 60.1713 71.9189 59.6767C71.5412 59.182 70.9697 58.9372 70.1996 58.9372C69.3521 58.9372 68.7128 59.2065 68.2818 59.7501C67.8507 60.2938 67.6425 61.0724 67.6425 62.096C67.6425 63.1196 67.8556 63.8248 68.2818 64.3586C68.708 64.8924 69.3279 65.1569 70.1318 65.1569C70.6646 65.1569 71.1198 65.0345 71.5073 64.7896C71.8947 64.5447 72.195 64.197 72.4129 63.7415L74.0789 64.2754C73.7399 65.0687 73.2217 65.6858 72.5292 66.1168C71.8366 66.5527 71.0665 66.7682 70.2142 66.7682L70.2239 66.7731ZM67.1001 62.576V61.239H73.3573V62.576H67.1001Z" fill="white"/>
<path d="M29.3096 71.0362V69.3711H31.0046V71.0362H29.3096ZM29.3096 81.3551V72.4908H31.0046V81.3551H29.3096Z" fill="white"/>
<path d="M33.4312 81.3543V72.49H34.947V75.0513H35.1504V81.3543H33.4312ZM39.5916 81.3543V76.9956C39.5916 76.6528 39.5625 76.2953 39.5044 75.9329C39.4463 75.5705 39.3397 75.2325 39.1799 74.9191C39.0201 74.6057 38.7973 74.3559 38.5067 74.1649C38.2161 73.9739 37.8384 73.876 37.3734 73.876C37.0683 73.876 36.7826 73.9249 36.5114 74.0278C36.2401 74.1306 36.0028 74.2922 35.7994 74.5175C35.596 74.7428 35.4362 75.0366 35.32 75.4039C35.2037 75.7713 35.1456 76.2169 35.1456 76.7409L34.0898 76.3394C34.0898 75.5362 34.2399 74.826 34.5354 74.209C34.8308 73.5919 35.2618 73.1119 35.8188 72.7691C36.3757 72.4263 37.0489 72.25 37.8384 72.25C38.4437 72.25 38.9523 72.348 39.3639 72.5438C39.7756 72.7397 40.1098 72.9993 40.3664 73.3176C40.6231 73.636 40.8217 73.9886 40.9573 74.3657C41.0929 74.7428 41.1849 75.115 41.2334 75.4725C41.2818 75.8349 41.306 76.1533 41.306 76.4226V81.3494H39.5867L39.5916 81.3543Z" fill="white"/>
<path d="M46.8369 81.3536V69.5312H48.532V81.3536H46.8369Z" fill="white"/>
<path d="M49.9946 73.8669V72.4858H55.9855V73.8669H49.9946ZM55.9855 81.3551C55.4334 81.4628 54.891 81.5118 54.3631 81.4971C53.8304 81.4824 53.3606 81.3747 52.9441 81.1837C52.5276 80.9927 52.2128 80.6891 52.0045 80.2826C51.8156 79.9153 51.7139 79.543 51.6994 79.1611C51.6849 78.7791 51.68 78.3481 51.68 77.8681V70.0273H53.3848V77.7849C53.3848 78.1424 53.3848 78.4509 53.3945 78.7105C53.4042 78.9749 53.4574 79.1953 53.5591 79.3765C53.7529 79.7145 54.0628 79.9104 54.489 79.9544C54.9152 80.0034 55.414 79.9838 55.9855 79.9006V81.3551Z" fill="white"/>
<path d="M60.3053 81.6012C59.6563 81.6012 59.1139 81.4787 58.6732 81.2339C58.2324 80.989 57.9031 80.6658 57.6803 80.2642C57.4575 79.8626 57.3413 79.4218 57.3413 78.937C57.3413 78.4864 57.4188 78.0946 57.5786 77.7567C57.7336 77.4188 57.9661 77.1298 58.276 76.8899C58.586 76.6499 58.9637 76.4589 59.4141 76.312C59.8016 76.1993 60.2472 76.0965 60.7363 76.0083C61.2303 75.9202 61.7485 75.8369 62.2909 75.7634C62.8334 75.6851 63.3758 75.6116 63.9085 75.5333L63.2935 75.8761C63.3031 75.1807 63.1578 74.6664 62.8576 74.3285C62.5573 73.9906 62.0439 73.8241 61.3126 73.8241C60.8525 73.8241 60.4312 73.9318 60.0486 74.1473C59.666 74.3628 59.3948 74.7203 59.2446 75.2198L57.661 74.7301C57.8789 73.971 58.2905 73.3637 58.9008 72.9131C59.511 72.4626 60.3198 72.2422 61.332 72.2422C62.1166 72.2422 62.7995 72.3793 63.3806 72.6487C63.9618 72.918 64.388 73.349 64.6592 73.9318C64.7997 74.2208 64.8868 74.5293 64.9207 74.8525C64.9546 75.1758 64.9692 75.5235 64.9692 75.8957V81.3563H63.4678V79.3288L63.7584 79.5932C63.3952 80.274 62.9351 80.7784 62.3733 81.1065C61.8115 81.4396 61.1238 81.6012 60.3053 81.6012ZM60.6055 80.2005C61.085 80.2005 61.5015 80.1124 61.8454 79.941C62.1892 79.7695 62.4701 79.5492 62.6832 79.2798C62.8963 79.0104 63.0319 78.7313 63.0949 78.4423C63.1869 78.1779 63.2402 77.884 63.2547 77.5559C63.2692 77.2278 63.2741 76.9633 63.2741 76.7674L63.8262 76.9731C63.2886 77.0564 62.8043 77.1298 62.3636 77.1935C61.9229 77.2572 61.5306 77.3257 61.1722 77.3845C60.8186 77.4482 60.5038 77.5216 60.2278 77.6098C59.9953 77.693 59.7871 77.791 59.6079 77.9036C59.4287 78.0163 59.2834 78.1583 59.1768 78.3199C59.0703 78.4815 59.017 78.6823 59.017 78.9174C59.017 79.1525 59.0751 79.3582 59.1865 79.5541C59.2979 79.75 59.4723 79.9018 59.7047 80.0193C59.9372 80.1368 60.2375 80.1907 60.5959 80.1907L60.6055 80.2005Z" fill="white"/>
<path d="M67.2358 81.3563V69.2891H68.9309V81.3563H67.2358Z" fill="white"/>
<path d="M72.554 85.299L74.2491 80.6268L74.2733 82.0079L70.4473 72.4922H72.215L75.0724 79.8383H74.5542L77.2809 72.4922H79.0002L74.1619 85.299H72.5443H72.554Z" fill="white"/>
<path d="M39.0719 43.5333L50.4086 22.5987" stroke="#009347" stroke-width="11" stroke-miterlimit="10" stroke-linecap="round"/>
<path d="M48.7804 43.5333L60.1171 22.5987" stroke="white" stroke-width="11" stroke-miterlimit="10" stroke-linecap="round"/>
<path d="M58.4943 43.5333L69.831 22.5987" stroke="#CF2837" stroke-width="11" stroke-miterlimit="10" stroke-linecap="round"/>
<g clip-path="url(#clip0_4037_6682)">
<mask id="mask0_4037_6682" style="mask-type:luminance" maskUnits="userSpaceOnUse" x="118" y="0" width="109" height="108">
<path d="M226.207 0H118.207V108H226.207V0Z" fill="white"/>
</mask>
<g mask="url(#mask0_4037_6682)">
<path d="M172.207 108C142.427 108 118.207 83.7604 118.207 54C118.207 24.2396 142.427 0 172.207 0C201.987 0 226.207 24.2199 226.207 54C226.207 83.7801 201.987 108 172.207 108Z" fill="#8497D5" fill-opacity="0.1"/>
<path d="M191.747 58.8008H151.08V60.9325H191.747V58.8008Z" fill="#E42313"/>
<path d="M151.392 54.332C151.851 54.5616 152.605 54.7092 153.212 54.7092C154.114 54.7092 154.524 54.3321 154.524 53.8401C154.524 53.2334 154.081 52.9546 153.163 52.4463C151.457 51.5116 151.178 50.4294 151.178 49.7078C151.178 48.1009 152.31 46.707 154.737 46.707C155.458 46.707 156.147 46.8874 156.475 47.0514L156.131 48.9699C155.819 48.7896 155.36 48.642 154.753 48.642C153.933 48.642 153.556 49.0355 153.556 49.4783C153.556 49.9046 153.769 50.167 154.966 50.7901C156.426 51.5444 156.901 52.5611 156.901 53.5614C156.901 55.3979 155.426 56.6114 153.195 56.6114C152.294 56.6114 151.441 56.4146 151.08 56.2342L151.392 54.2993V54.332Z" fill="white"/>
<path d="M161.377 52.9055L161.115 51.0525C161.033 50.495 160.902 49.4455 160.803 48.8388H160.77C160.656 49.4455 160.508 50.5278 160.41 51.0525L160.098 52.9055H161.377ZM159.852 54.6273L159.491 56.5458H157.146L159.377 46.7891H162.312L164.23 56.5458H161.885L161.541 54.6273H159.836H159.852Z" fill="white"/>
<path d="M167.724 54.9029C167.855 54.9357 167.97 54.9357 168.117 54.9357C168.773 54.9357 169.396 54.5421 169.396 53.673C169.396 52.804 168.806 52.394 168.134 52.394H167.724V54.9029ZM167.724 50.7542H168.117C168.757 50.7542 169.199 50.2295 169.199 49.5408C169.199 48.9013 168.871 48.4093 168.232 48.4093C168.035 48.4093 167.855 48.4093 167.724 48.4749V50.7542ZM165.313 46.9499C165.985 46.8187 166.904 46.7695 167.888 46.7695C168.871 46.7695 169.904 46.8515 170.692 47.4582C171.298 47.9174 171.528 48.6061 171.528 49.2784C171.528 50.0819 171.085 50.9346 170.052 51.3937V51.4429C171.266 51.7709 171.872 52.722 171.872 53.7058C171.872 54.5093 171.593 55.1325 171.085 55.608C170.446 56.2475 169.331 56.6411 167.33 56.6411C166.543 56.6411 165.821 56.5919 165.28 56.5263V46.9499H165.313Z" fill="white"/>
<path d="M175.726 54.9029C175.858 54.9357 175.972 54.9357 176.12 54.9357C176.776 54.9357 177.399 54.5421 177.399 53.673C177.399 52.804 176.809 52.394 176.136 52.394H175.726V54.9029ZM175.726 50.7542H176.12C176.76 50.7542 177.202 50.2295 177.202 49.5408C177.202 48.9013 176.874 48.4093 176.235 48.4093C176.038 48.4093 175.858 48.4093 175.726 48.4749V50.7542ZM173.316 46.9499C173.988 46.8187 174.907 46.7695 175.89 46.7695C176.874 46.7695 177.907 46.8515 178.695 47.4582C179.301 47.9174 179.531 48.6061 179.531 49.2784C179.531 50.0819 179.088 50.9346 178.055 51.3937V51.4429C179.268 51.7709 179.875 52.722 179.875 53.7058C179.875 54.5093 179.596 55.1325 179.088 55.608C178.449 56.2475 177.333 56.6411 175.333 56.6411C174.546 56.6411 173.824 56.5919 173.283 56.5263V46.9499H173.316Z" fill="white"/>
<path d="M183.744 46.8047H181.317V56.5614H183.744V46.8047Z" fill="white"/>
<path d="M188.877 52.9055L188.615 51.0525C188.533 50.495 188.402 49.4455 188.303 48.8388H188.27C188.156 49.4455 188.008 50.5278 187.91 51.0525L187.598 52.9055H188.877ZM187.352 54.6273L186.991 56.5458H184.646L186.877 46.7891H189.812L191.73 56.5458H189.385L189.041 54.6273H187.336H187.352Z" fill="white"/>
<path d="M192.534 47.1806H192.632C192.78 47.1806 192.845 47.115 192.845 47.033C192.845 46.9346 192.763 46.9018 192.649 46.9018C192.599 46.9018 192.567 46.9018 192.534 46.9018V47.1806ZM192.517 47.9021H192.075V46.6394C192.157 46.6394 192.386 46.5902 192.681 46.5902C192.993 46.5902 193.124 46.623 193.223 46.6886C193.305 46.7378 193.354 46.8362 193.354 46.9674C193.354 47.0986 193.223 47.2134 193.042 47.2462C193.19 47.3117 193.272 47.4101 193.321 47.5905C193.37 47.7709 193.403 47.8529 193.419 47.8857H192.927C192.927 47.8857 192.862 47.7381 192.845 47.6397C192.829 47.5249 192.763 47.4593 192.649 47.4593H192.534V47.8857L192.517 47.9021ZM192.665 46.2131C192.091 46.2131 191.665 46.6722 191.665 47.2626C191.665 47.8529 192.091 48.312 192.665 48.312C193.255 48.312 193.682 47.8529 193.682 47.2462C193.682 46.6394 193.255 46.2131 192.665 46.2131ZM192.681 45.8359C193.501 45.8359 194.141 46.4755 194.141 47.2626C194.141 48.0497 193.485 48.7056 192.665 48.7056C191.845 48.7056 191.173 48.0661 191.173 47.2626C191.173 46.4591 191.845 45.8359 192.665 45.8359H192.681Z" fill="white"/>
<path d="M147.104 33.914L144.638 39.0234L147.384 40.3495L149.851 35.2401L147.104 33.914Z" fill="#E42313"/>
<path d="M149.62 26.8825L147.751 28.3255L146.259 26.3741L152.457 21.5859L153.966 23.5209L152.08 24.9803L157.606 32.1298L155.146 34.0483L149.62 26.8825Z" fill="white"/>
<path d="M161.246 25.7495C160.426 26.1267 159.688 26.7662 160.033 27.5861C160.311 28.242 160.885 28.3076 161.197 28.16C161.492 28.0288 161.836 27.7501 161.853 27.3401C161.853 27.2417 161.836 27.127 161.771 26.9958L161.23 25.7331L161.246 25.7495ZM164.854 26.4219C165.116 27.045 165.411 27.6517 165.756 28.1272L163.197 29.2095L162.738 28.5372H162.706C162.427 29.3735 161.787 29.9638 160.984 30.3081C159.541 30.9313 158.049 30.3573 157.458 28.9635C156.573 26.8974 158.442 25.1264 160.492 24.2409L160.426 24.0933C160.246 23.667 159.639 23.5358 158.901 23.8474C158.098 24.1917 157.573 24.6181 157.097 25.1756L155.9 23.7654C156.343 23.2735 157.343 22.4044 158.77 21.7976C161.935 20.453 163.066 22.224 163.706 23.7162L164.837 26.3891L164.854 26.4219Z" fill="white"/>
<path d="M167.299 16.0482L164.235 16.6133L166.377 28.2239L169.441 27.6588L167.299 16.0482Z" fill="white"/>
<path d="M175.053 22.616C175.086 21.7961 174.955 20.9106 174.151 20.8778C173.364 20.845 173.053 21.8289 173.02 22.534L175.053 22.616ZM172.954 24.3542C172.954 25.1249 173.708 25.6168 174.905 25.6496C175.693 25.6824 176.381 25.5676 176.906 25.4528L177.218 27.3386C176.48 27.5354 175.348 27.6502 174.266 27.601C171.429 27.5026 169.904 25.994 170.003 23.3539C170.101 20.4843 172.069 18.8937 174.397 18.9757C176.578 19.0577 177.956 20.3695 177.841 23.1899C177.808 23.9114 177.759 24.2722 177.693 24.5346L172.971 24.3542H172.954Z" fill="white"/>
<path d="M179.596 22.2378C179.891 21.4015 180.153 20.4996 180.399 19.6797L182.924 20.5652L182.761 21.5163H182.793C183.531 21.0735 184.499 20.9751 185.466 21.3031C187.45 21.9918 187.565 23.5824 186.975 25.2878L185.237 30.2563L182.301 29.2233L184.007 24.3203C184.204 23.7792 184.204 23.2052 183.613 22.9921C183.285 22.8773 182.99 22.9593 182.711 23.2052C182.58 23.32 182.416 23.566 182.301 23.8939L180.645 28.6493L177.71 27.6163L179.596 22.2214V22.2378Z" fill="white"/>
<path d="M194.633 23.9627L193.338 25.8321L194.945 26.9471L193.895 28.4557L192.288 27.3407L190.386 30.0955C189.861 30.8498 190.14 31.309 190.55 31.6041C190.763 31.7517 190.943 31.8501 191.173 31.9813L189.992 33.6703C189.615 33.5063 189.041 33.1947 188.418 32.7684C187.746 32.2928 187.238 31.7517 187.024 31.145C186.795 30.4235 186.893 29.6692 187.68 28.5377L189.714 25.5861L188.779 24.9302L189.828 23.4216L190.763 24.0775L191.616 22.8477L194.617 23.9955L194.633 23.9627Z" fill="white"/>
<path d="M195.895 37.3758C195.928 37.4742 196.026 37.6218 196.092 37.7529C196.682 38.6712 198.043 38.8024 200.437 37.2446C202.225 36.0804 203.045 34.8505 202.307 33.7191C202.225 33.5879 202.143 33.4731 202.028 33.3747L195.895 37.3758ZM201.946 29.7344C202.421 30.2427 203.094 31.0954 203.733 32.0793C204.734 33.6207 205.127 34.8669 205.012 36.0476C204.881 37.5726 203.881 38.8516 202.094 40.0159C200.257 41.2129 198.42 41.5901 196.912 41.0161C195.813 40.6062 194.764 39.6715 193.665 37.9661C193.157 37.1954 192.73 36.3919 192.484 35.9L201.946 29.7344Z" fill="white"/>
<path d="M202.438 41.8027C203.291 41.5403 204.16 41.2288 204.963 40.9336L205.75 43.4917L204.652 44V44.082C205.718 44.2624 206.324 44.9019 206.521 45.5086C206.619 45.8202 206.652 45.9677 206.669 46.1645L204.193 46.9352C204.16 46.7384 204.111 46.5417 204.029 46.2793C203.914 45.935 203.569 45.2462 202.684 45.1642C202.504 45.1479 202.176 45.1642 201.815 45.2954L197.912 46.5089L196.978 43.5245L202.438 41.8355V41.8027Z" fill="white"/>
<path d="M209.391 50.6404C208.604 50.7552 207.948 50.1157 207.85 49.2466C207.751 48.4267 208.227 47.6888 209.03 47.6068C209.866 47.492 210.49 48.148 210.588 48.9679C210.686 49.8042 210.244 50.5421 209.391 50.6568M198.486 48.8531L206.816 47.8692L207.194 50.9684L198.863 51.9523L198.503 48.8531H198.486Z" fill="white"/>
<path d="M207.177 55.9882L203.799 56.2177C202.962 56.2833 202.208 56.3325 201.29 56.3817V56.4309C202.192 56.6277 202.88 56.8244 203.717 57.0376L206.996 57.9067L206.701 60.9567L198.601 57.5132L198.863 54.6435L207.472 52.6758L207.16 55.9882H207.177Z" fill="white"/>
<path d="M201.372 65.7121C202.143 65.9909 203.028 66.1549 203.307 65.4006C203.586 64.6626 202.75 64.0559 202.077 63.81L201.372 65.7121ZM200.372 63.1704C199.634 62.9409 198.945 63.4984 198.519 64.5971C198.24 65.335 198.125 66.0237 198.076 66.5484L196.19 66.2532C196.24 65.4989 196.486 64.3839 196.863 63.3672C197.863 60.7108 199.782 59.7269 202.258 60.6616C204.947 61.6618 205.849 64.0231 205.029 66.2041C204.258 68.2374 202.586 69.1393 199.946 68.139C199.273 67.893 198.945 67.7127 198.716 67.5651L200.372 63.1376V63.1704Z" fill="white"/>
<path d="M200.29 70.1365C200.995 70.6776 201.766 71.2188 202.471 71.6943L200.847 73.826L199.995 73.3669V73.3997C200.175 74.236 199.978 75.2035 199.339 76.007C198.076 77.6631 196.518 77.3024 195.092 76.2037L190.91 73.0061L192.812 70.5301L196.928 73.6785C197.387 74.0392 197.928 74.2196 198.306 73.7276C198.519 73.4489 198.535 73.1537 198.388 72.8094C198.322 72.6618 198.125 72.4158 197.863 72.2026L193.862 69.1362L195.764 66.6602L200.306 70.1365H200.29Z" fill="white"/>
<path d="M187.799 75.3148L185.186 77.0117L191.446 86.6522L194.059 84.9553L187.799 75.3148Z" fill="white"/>
<path d="M186.368 83.0746C186.663 83.9109 187.008 84.78 187.319 85.5835L184.794 86.469L184.319 85.6163H184.286C183.991 86.4362 183.302 87.1249 182.334 87.4692C180.367 88.1579 179.268 86.9937 178.678 85.2883L176.939 80.3033L179.875 79.2703L181.58 84.1733C181.777 84.7144 182.121 85.1735 182.712 84.9767C183.039 84.862 183.22 84.616 183.285 84.2552C183.318 84.0913 183.285 83.7797 183.171 83.4681L181.514 78.7128L184.466 77.6797L186.352 83.0746H186.368Z" fill="white"/>
<path d="M176.857 86.0783C176.89 86.9638 176.955 87.8985 177.021 88.7512L174.348 88.8332L174.168 87.8821H174.118C173.594 88.5708 172.725 89.0136 171.691 89.0464C169.593 89.1119 168.92 87.6853 168.855 85.8652L168.707 80.6014L171.823 80.5031L171.97 85.6848C171.987 86.2587 172.183 86.7998 172.807 86.7834C173.151 86.7834 173.397 86.6031 173.577 86.2751C173.659 86.1111 173.725 85.8324 173.708 85.488L173.561 80.4539L176.676 80.3555L176.84 86.0619L176.857 86.0783Z" fill="white"/>
<path d="M164.607 83.8315C165.001 82.4376 164.984 81.4702 164.279 81.2734C163.656 81.1094 163.148 82.1753 162.836 83.3395C162.541 84.4054 162.41 85.6516 163.066 85.832C163.82 86.0452 164.328 84.9137 164.624 83.8315M159.852 82.536C160.819 79.0761 163.427 78.9941 164.853 79.3876C167.378 80.0927 168.28 82.0769 167.575 84.6022C166.772 87.4718 164.509 88.2753 162.508 87.7341C160.032 87.0454 159.163 84.9629 159.835 82.536" fill="white"/>
<path d="M154.589 84.2567L155.868 81.1247C156.179 80.354 156.458 79.6489 156.819 78.8126H156.786C156.196 79.5177 155.736 80.0424 155.163 80.6983L152.932 83.2564L150.325 81.6658L156.999 75.9102L159.459 77.4188L157.425 86.0113L154.589 84.2731V84.2567Z" fill="white"/>
<path d="M149.407 74.4029C150.031 75.0588 150.883 75.5343 151.539 74.9276C152.064 74.4357 151.916 73.8782 151.687 73.6322C151.474 73.4026 151.096 73.173 150.703 73.2878C150.605 73.3206 150.506 73.3862 150.408 73.4682L149.407 74.3865V74.4029ZM148.85 70.7626C149.358 70.3034 149.817 69.8115 150.162 69.3359L152.048 71.3693L151.572 72.0252L151.605 72.058C152.474 72.058 153.245 72.4351 153.835 73.091C154.901 74.2389 154.868 75.8459 153.753 76.8626C152.097 78.3876 149.817 77.2233 148.276 75.5835L148.161 75.6819C147.817 75.9935 147.899 76.6002 148.44 77.1905C149.03 77.83 149.621 78.1908 150.293 78.4368L149.375 80.0274C148.768 79.765 147.62 79.1255 146.571 77.994C144.242 75.4687 145.538 73.7962 146.718 72.6975L148.85 70.7298V70.7626Z" fill="white"/>
<path d="M139.027 70.9068L141.028 69.8246L140.11 68.1028L141.733 67.2337L142.651 68.9555L145.603 67.3649C146.406 66.9221 146.374 66.3974 146.144 65.9546C146.013 65.7251 145.914 65.5611 145.75 65.3315L147.571 64.3477C147.833 64.6592 148.21 65.2003 148.571 65.8727C148.964 66.5942 149.178 67.3157 149.079 67.9552C148.964 68.7095 148.522 69.3326 147.308 69.9885L144.16 71.6775L144.701 72.6778L143.078 73.5469L142.536 72.5302L141.208 73.2353L139.06 70.8576L139.027 70.9068Z" fill="white"/>
<path d="M147.489 63.7618L139.47 66.2542L138.536 63.2698L146.554 60.7773L147.489 63.7454V63.7618ZM136.437 64.0077C137.191 63.7454 137.945 64.2537 138.208 65.1064C138.454 65.8935 138.126 66.7134 137.355 66.9429C136.552 67.2217 135.83 66.6806 135.584 65.8935C135.338 65.09 135.633 64.2701 136.453 64.0241" fill="white"/>
<path d="M141.782 57.6914C143.225 57.5766 144.127 57.2487 144.061 56.5108C144.012 55.8713 142.831 55.7565 141.634 55.8549C140.536 55.9369 139.322 56.232 139.371 56.9207C139.437 57.7078 140.667 57.7898 141.782 57.7078M141.388 52.7721C144.979 52.4933 145.93 54.9202 146.045 56.4124C146.242 59.0197 144.684 60.5447 142.061 60.7578C139.076 60.9874 137.551 59.118 137.404 57.0519C137.207 54.4774 138.863 52.9688 141.388 52.7721Z" fill="white"/>
<path d="M140.044 51.1818C139.174 50.9851 138.256 50.8211 137.42 50.6735L138.01 48.0662L138.978 48.1154V48.0826C138.453 47.4103 138.24 46.4428 138.469 45.4426C138.929 43.4092 140.486 43.0977 142.241 43.4912L147.39 44.6555L146.701 47.7055L141.651 46.574C141.077 46.4428 140.519 46.5084 140.372 47.1152C140.29 47.4431 140.404 47.7383 140.683 47.9842C140.814 48.099 141.077 48.2302 141.405 48.3122L146.308 49.4109L145.619 52.4445L140.044 51.1818Z" fill="white"/>
</g>
</g>
<defs>
<clipPath id="clip0_4037_6682">
<rect width="108" height="108" fill="white" transform="translate(118.207)"/>
</clipPath>
</defs>
</svg>
