<svg width="28" height="28" viewBox="0 0 28 28" fill="none" xmlns="http://www.w3.org/2000/svg">
<path d="M10.2765 5.07394C9.31993 5.11907 8.66654 5.27226 8.09567 5.49593C7.50467 5.72626 7.00375 6.03515 6.50534 6.53553C6.0064 7.03628 5.70002 7.5381 5.47132 8.12964C5.24998 8.70194 5.09985 9.35569 5.05778 10.3128C5.0157 11.2718 5.00617 11.5777 5.01085 14.019C5.01552 16.4599 5.02631 16.7663 5.07198 17.7255C5.11765 18.6819 5.2703 19.3349 5.49397 19.9062C5.72465 20.4972 6.03319 20.9979 6.53375 21.4965C7.03413 21.9951 7.53632 22.3013 8.12822 22.5302C8.69998 22.7513 9.35391 22.9018 10.3108 22.9437C11.2697 22.986 11.5759 22.9953 14.0165 22.9906C16.4582 22.986 16.7644 22.9752 17.7232 22.9297C18.6798 22.884 19.3324 22.7308 19.904 22.5077C20.495 22.2765 20.9959 21.9685 21.4943 21.4679C21.9928 20.9675 22.2991 20.4653 22.5278 19.8734C22.7492 19.3017 22.8998 18.6477 22.9414 17.6914C22.9833 16.732 22.9932 16.4254 22.9885 13.9846C22.9838 11.5435 22.9728 11.2377 22.9274 10.279C22.8819 9.32189 22.7287 8.66904 22.5054 8.09763C22.2743 7.50663 21.9661 7.00625 21.4658 6.50731C20.9654 6.0089 20.4632 5.70198 19.8713 5.47382C19.2992 5.25248 18.6456 5.10163 17.6887 5.06028C16.73 5.01749 16.424 5.00814 13.9825 5.01281C11.5415 5.01749 11.2355 5.02791 10.2766 5.07394M10.3815 21.3257C9.50494 21.2876 9.02901 21.1419 8.71185 21.0198C8.29183 20.8573 7.99211 20.6624 7.67656 20.3494C7.36173 20.0351 7.16629 19.7362 7.00231 19.3171C6.87915 19 6.73081 18.5246 6.68982 17.6481C6.64523 16.7005 6.63498 16.4162 6.63066 14.0157C6.62599 11.616 6.6348 11.3315 6.67615 10.3832C6.71373 9.50744 6.86027 9.03079 6.98199 8.71399C7.14453 8.29344 7.33872 7.99425 7.65247 7.6787C7.96676 7.36333 8.26558 7.16843 8.68506 7.00445C9.00204 6.88057 9.47725 6.73349 10.3534 6.69196C11.3015 6.64701 11.5856 6.63748 13.9854 6.63281C16.3857 6.62813 16.6701 6.63658 17.6184 6.6783C18.4942 6.71641 18.9709 6.86151 19.2875 6.98413C19.7079 7.14667 20.0076 7.34032 20.3228 7.65461C20.638 7.9689 20.8334 8.26719 20.9974 8.68756C21.1211 9.00364 21.2683 9.47957 21.3097 10.3554C21.3548 11.3035 21.3651 11.5877 21.3694 13.9877C21.3741 16.3882 21.3653 16.6725 21.3237 17.6202C21.2856 18.4967 21.1401 18.9728 21.0179 19.2903C20.8553 19.71 20.661 20.0097 20.347 20.3253C20.0331 20.6396 19.7343 20.8355 19.3145 20.9995C18.9982 21.123 18.5223 21.2705 17.6466 21.312C16.6986 21.3566 16.4145 21.3669 14.0138 21.3712C11.614 21.3758 11.3299 21.3669 10.3816 21.3257M17.7101 9.19621C17.7112 9.79153 18.1954 10.2736 18.7907 10.2725C19.3864 10.2714 19.8684 9.78757 19.8675 9.19207C19.8663 8.59676 19.3822 8.11436 18.7866 8.11543C18.1909 8.11651 17.7088 8.60071 17.7099 9.19603M9.38376 14.0105C9.38861 16.5601 11.4594 18.6224 14.0084 18.6174C16.5576 18.6123 18.621 16.5423 18.6161 13.9927C18.6111 11.4441 16.5401 9.38068 13.9906 9.38554C11.4416 9.39057 9.37872 11.4615 9.38376 14.0105ZM11.003 14.0073C11.0002 12.3526 12.3395 11.0082 13.9938 11.0054C15.6485 11.0021 16.9931 12.3409 16.9963 13.996C16.9995 15.651 15.6602 16.995 14.0051 16.9983C12.3506 17.0015 11.0061 15.6625 11.003 14.0075" fill="url(#paint0_linear_4037_6828)"/>
<defs>
<linearGradient id="paint0_linear_4037_6828" x1="0.499999" y1="22.9917" x2="-13" y2="22.9917" gradientUnits="userSpaceOnUse">
<stop stop-color="white"/>
<stop offset="1" stop-color="#4064DF"/>
</linearGradient>
</defs>
</svg>
