<svg width="474" height="77" viewBox="0 0 474 77" fill="none" xmlns="http://www.w3.org/2000/svg">
<path d="M472.628 59.3704C473.475 60.0803 473.585 61.3418 472.875 62.188L461.306 75.9775C460.596 76.8237 459.334 76.9341 458.488 76.2242C457.642 75.5142 457.531 74.2527 458.241 73.4065L468.525 61.1492L456.268 50.8653C455.422 50.1554 455.311 48.8939 456.021 48.0477C456.731 47.2015 457.993 47.0911 458.839 47.801L472.628 59.3704ZM0.765625 1.84808L1.53078 0.000236511C143.763 58.8954 302.879 73.6435 471.169 58.9102L471.343 60.9025L471.517 62.8949C302.799 77.6659 142.996 62.9071 0.000473082 3.69593L0.765625 1.84808Z" fill="url(#paint0_linear_1372_12650)"/>
<defs>
<linearGradient id="paint0_linear_1372_12650" x1="468.59" y1="68.3739" x2="0.195039" y2="-6.85264" gradientUnits="userSpaceOnUse">
<stop stop-color="#233679"/>
<stop offset="0.485577" stop-color="#4064DF"/>
<stop offset="0.947115" stop-color="#6688FF"/>
</linearGradient>
</defs>
</svg>
