<svg width="40" height="40" viewBox="0 0 40 40" fill="none" xmlns="http://www.w3.org/2000/svg">
<path d="M27.9443 1.64147C25.8744 0.749086 23.5696 0.197246 21.0927 0H18.8739C9.30103 0.504074 1.24764 8.06405 0.139072 17.5886C-0.683919 24.658 2.18081 31.4723 7.80233 35.8168C13.3896 40.1343 20.6638 41.1829 27.2607 38.6209C32.6225 36.5389 36.8358 32.1635 38.8202 26.617C40.7579 21.202 40.2925 15.2998 37.5436 10.4248C37.0725 9.58976 36.8234 9.43747 36.3333 9.68642C36.109 9.79993 36.0522 9.91626 36.0286 9.99381C35.9178 10.3602 36.2804 10.9991 36.5446 11.4656C36.6452 11.6431 36.7408 11.8112 36.8139 11.9657C40.7017 20.1697 38.1512 29.9421 30.75 35.2026C28.014 37.1469 24.7788 38.3124 21.3941 38.5726C17.9992 38.8333 14.6229 38.1697 11.6295 36.6524L11.4119 36.5423L11.3827 35.996L20.8117 26.5597L20.8476 26.5361C20.8965 26.504 21.0697 26.372 21.2372 26.2439C21.457 26.0758 21.7308 25.8674 21.9556 25.7055C22.3177 25.4453 22.5363 25.288 22.8 25.4077C23.4763 25.7139 23.2261 26.4928 23.0918 26.9109C23.0518 27.0351 22.9973 27.2048 22.9962 27.2672C22.9984 27.3391 23.0603 27.5459 23.1064 27.6409L26.2949 30.8362C26.5659 31.0182 26.8638 31.0121 27.1196 30.8171L33.382 24.5507C33.577 24.3282 33.7125 24.0292 33.2791 23.5043C32.7417 22.853 31.0513 21.1211 30.3969 20.6282C30.2198 20.4951 30.0096 20.4001 29.8859 20.3973H29.8854C29.8005 20.3973 29.5312 20.4793 29.3704 20.5282C28.982 20.6462 28.7706 20.7058 28.5755 20.6597C28.3647 20.6097 27.8532 20.1613 27.8858 19.8089L27.8948 19.7117L27.9454 19.6285C28.3423 18.9761 28.4018 18.7272 28.0409 18.2714C26.8981 17.2003 25.7839 16.0393 24.7063 14.9165C23.5162 13.6763 22.2856 12.3934 21.0219 11.2402C18.6018 9.03118 15.7315 8.27366 12.7212 9.05029C10.3725 9.65664 8.85131 11.2267 7.24074 12.889C7.01138 13.1256 6.77472 13.37 6.53524 13.6122C6.35142 13.9252 6.37615 14.2231 6.61113 14.5198C6.93943 14.9351 8.12445 16.1214 8.5039 16.4141C8.72651 16.5861 8.94463 16.6322 9.21221 16.5642C9.29878 16.5423 9.48317 16.386 9.61809 16.2725C9.79854 16.1202 9.98461 15.9623 10.1943 15.8601C11.3158 15.3105 12.5385 15.4852 13.5481 16.3388C13.882 16.6209 15.7276 18.3877 15.967 18.9761C16.2515 19.6752 16.1615 20.3737 15.7129 20.9424L15.6972 20.962L15.6792 20.98L5.21418 31.4206L4.92636 31.0087C2.91835 28.1343 1.70804 24.925 1.42584 21.7286C1.12677 18.3394 1.73334 14.9615 3.18032 11.9595C4.54972 9.11885 6.64655 6.64006 9.24425 4.79067C11.815 2.96038 14.8028 1.80219 17.8834 1.44141C21.1501 1.05872 24.5067 1.5864 27.5901 2.96712C27.793 3.05816 28.0977 3.22899 28.4198 3.41051C28.7807 3.61337 29.3845 3.95279 29.5453 3.98595C29.8556 4.05001 30.1664 3.93987 30.3368 3.70553C30.4239 3.58584 30.5425 3.33577 30.3553 3.00477C30.2654 2.8463 29.6566 2.38044 27.942 1.64091L27.9443 1.64147ZM14.3475 15.2419C12.9297 14.0315 10.8919 13.8606 9.27742 14.8176L8.99916 14.9823L8.05024 14.0545L9.81203 12.2242C11.0982 11.0098 12.7009 10.2669 14.3244 10.1332C16.1109 9.98594 17.8907 10.5001 19.3354 11.5808L19.3591 11.5982L19.3799 11.619L26.4961 18.6681L26.5203 18.7058C26.7604 19.0733 26.5248 19.4302 26.4124 19.6016C26.3837 19.6448 26.3477 19.6993 26.3371 19.7263C26.2241 19.9989 26.2128 20.1348 26.2882 20.3473C26.4208 20.5996 27.5024 21.7173 27.8003 21.9533C28.1787 22.2534 28.385 22.1967 28.8364 22.0736C29.0258 22.0219 29.2411 21.9629 29.493 21.9292L29.6982 21.9016L31.9271 24.1073L26.6974 29.3402L24.5331 27.175V26.9997C24.5354 26.7041 24.6096 26.4467 24.6748 26.2197C24.7748 25.8724 24.8232 25.6769 24.7147 25.4318C24.5494 25.1896 23.3329 23.95 23.1345 23.8033C22.6864 23.4757 22.316 23.7033 21.5773 24.3006C21.3007 24.5243 21.014 24.7558 20.7127 24.9036L20.4429 25.0357L16.9722 21.5819L17.1076 21.3099C17.5945 20.3315 17.6085 19.2234 17.1459 18.2703C16.8243 17.6066 15.1272 15.9101 14.3475 15.2436V15.2419ZM16.0351 22.5883L19.4552 26.0107L9.84351 35.6313L9.554 35.4313C8.39597 34.6305 7.34418 33.7353 6.42787 32.7715L6.14455 32.4737L16.0351 22.5883Z" fill="white"/>
<path d="M33.663 5.59539C33.2437 5.59539 32.9024 5.93706 32.9024 6.35684C32.9024 6.77662 33.2437 7.11829 33.663 7.11829C34.0824 7.11829 34.4236 6.77662 34.4236 6.35684C34.4236 5.93706 34.0824 5.59539 33.663 5.59539Z" fill="white"/>
</svg>
