<svg width="200" height="192" viewBox="0 0 200 192" fill="none" xmlns="http://www.w3.org/2000/svg">
<path d="M30.4219 163.228C73.5007 134.893 127.676 120.269 195.131 122.045C183.228 161.544 145.141 190.498 99.9424 190.498C72.8466 190.498 48.3077 180.079 30.4219 163.228ZM9.65723 134.734C64.9232 117.108 127.113 107.852 198.003 109.122C197.744 110.891 197.436 112.649 197.075 114.387C120.405 111.687 64.3843 125.697 15.7871 145.712C13.5042 142.2 11.4535 138.536 9.65723 134.734ZM198.893 100.44C198.858 101.11 198.818 101.776 198.769 102.443C118.885 101.739 56.1873 108.179 3.90137 118.956C2.47024 113.538 1.53153 107.943 1.125 102.197L198.893 100.44ZM4.1416 71.5947C62.1811 84.1214 126.56 90.817 198.849 90.2871C198.904 91.2407 198.943 92.1976 198.972 93.1631L1.05664 90.2207C1.43978 83.8239 2.49117 77.5972 4.1416 71.5947ZM16.5723 44.5508C57.0962 66.6624 117.334 77.8935 197.312 78.4658C197.592 79.8829 197.833 81.1994 198.04 82.5918C129.361 83.4465 66.6698 74.8112 8.93652 58.2578C11.0889 53.4779 13.6565 48.9006 16.5723 44.5508ZM99.9424 1C145.711 1.00009 184.196 30.6831 195.568 70.9512C129.142 71.9203 73.3941 58.2688 27.374 31.2588C45.4658 12.6542 71.2847 1 99.9424 1Z" fill="url(#paint0_linear_4037_8613)" fill-opacity="0.1" stroke="url(#paint1_linear_4037_8613)" stroke-width="2"/>
<defs>
<linearGradient id="paint0_linear_4037_8613" x1="-153.086" y1="169.632" x2="-9.87357" y2="123.776" gradientUnits="userSpaceOnUse">
<stop stop-color="#999999" stop-opacity="0.2"/>
<stop offset="0.447115" stop-color="#999999" stop-opacity="0.4"/>
<stop offset="1" stop-color="#999999" stop-opacity="0.2"/>
</linearGradient>
<linearGradient id="paint1_linear_4037_8613" x1="-153.086" y1="169.632" x2="-9.87357" y2="123.776" gradientUnits="userSpaceOnUse">
<stop stop-color="#999999" stop-opacity="0.2"/>
<stop offset="0.447115" stop-color="#999999" stop-opacity="0.4"/>
<stop offset="1" stop-color="#999999" stop-opacity="0.2"/>
</linearGradient>
</defs>
</svg>
