<svg width="18" height="14" viewBox="0 0 18 14" fill="none" xmlns="http://www.w3.org/2000/svg">
<path d="M-0.000135755 1.00256C0.0157653 1.29666 0.206578 3.89012 2.14015 5.63469C3.58396 6.94145 5.64156 7.4695 8.25252 7.20881L8.42743 7.1921V12.8102H-0.000135755V13.9999H17.9999V12.8102H9.5723V7.1921L9.74722 7.20881C12.3582 7.4695 14.4126 6.9381 15.8596 5.63469C17.7932 3.88678 17.984 1.29666 17.9999 1.0059C18.0253 0.708455 17.8409 0.437746 17.5705 0.367562C12.4599 -0.959246 10.1702 1.54398 9.14933 3.87675L9.00623 4.20762L8.86312 3.87675C7.83273 1.54398 5.53979 -0.959246 0.432373 0.370904C0.162055 0.437746 -0.0223972 0.711797 -0.000135755 1.00256ZM9.69951 5.81182C10.0907 4.14746 11.5536 0.38093 16.6483 1.38356L16.8073 1.41364L16.7755 1.58074C16.5211 2.93094 15.443 6.0725 10.9048 6.0725C10.5645 6.0725 10.2052 6.05579 9.83626 6.01903L9.65181 6.00232L9.69633 5.81516L9.69951 5.81182ZM1.34509 1.38356C6.43979 0.384273 7.90269 4.14746 8.29386 5.81182L8.33838 5.99898L8.15393 6.01569C7.7882 6.05245 7.42884 6.06916 7.08856 6.06916C2.55039 6.0725 1.4723 2.93094 1.21789 1.58074L1.18608 1.41364L1.34509 1.38356Z" fill="#747DA2"/>
</svg>
