<svg width="40" height="40" viewBox="0 0 40 40" fill="none" xmlns="http://www.w3.org/2000/svg">
<path fill-rule="evenodd" clip-rule="evenodd" d="M5.54307 6.21055C9.18851 2.38324 14.3121 0 19.985 0C29.2834 0 37.1036 6.40242 39.3708 15.0871C39.3708 15.0871 32.3496 15.1982 27.9151 14.5822C23.0012 13.8955 20.1948 13.2997 15.5705 11.492C11.4557 9.88639 5.55306 6.21055 5.55306 6.21055M39.8402 17.5107C39.7703 17.0058 39.6904 16.511 39.5805 16.0162C39.5805 16.0162 29.7228 16.1575 23.5306 15.1881C16.819 14.1378 12.9039 13.4411 6.73159 10.5731C5.41323 9.95708 4.68414 9.51275 3.40574 8.87655C2.72659 9.87629 2.13733 10.9467 1.64794 12.0677C1.64794 12.0677 5.55306 13.4007 8.08989 14.0874C13.4931 15.5415 16.6592 15.9354 22.2022 16.6019C29.0337 17.4299 39.8302 17.5107 39.8302 17.5107M22.392 19.389L40 19.4698C39.99 19.1366 39.97 18.8033 39.9401 18.4701C39.9401 18.4701 28.3546 18.561 20.9938 17.9046C13.0137 17.1876 8.30961 16.3797 0.689139 14.7438C0.339576 16.0061 0.0998752 17.3189 0 18.6721L22.392 19.389ZM5.54307 33.7894C9.18851 37.6168 14.3121 40 19.975 40C29.2734 40 37.0936 33.5976 39.3608 24.9129C39.3608 24.9129 32.3396 24.8018 27.9051 25.4178C22.9913 26.1045 20.1848 26.7003 15.5605 28.508C11.4457 30.1136 5.54307 33.7894 5.54307 33.7894ZM22.2122 23.3981C16.6592 24.0747 13.5031 24.4585 8.09988 25.9126C5.55306 26.5993 1.65793 27.9323 1.65793 27.9323C2.14732 29.0533 2.73658 30.1237 3.41573 31.1235C4.69413 30.4772 5.42322 30.0429 6.74157 29.4269C12.9039 26.5589 16.829 25.8622 23.5406 24.8119C29.7328 23.8425 39.5905 23.9838 39.5905 23.9838C39.6904 23.489 39.7803 22.9942 39.8502 22.4893C39.8502 22.4893 29.0537 22.5701 22.2222 23.3981M0 21.3279C0.0998752 22.6811 0.339576 23.9939 0.689139 25.2562C8.3196 23.6203 13.0137 22.8124 20.9938 22.0954C28.3546 21.439 39.9401 21.5299 39.9401 21.5299C39.97 21.1967 39.99 20.8735 40 20.5403L22.392 20.611L0 21.3279Z" fill="#E42313"/>
</svg>
