<svg width="22" height="24" viewBox="0 0 22 24" fill="none" xmlns="http://www.w3.org/2000/svg">
<path d="M2.36684 23.0035C3.56119 23.5965 5.00497 23.5167 6.43217 22.7774C8.8141 21.5431 11.199 20.0986 13.5056 18.7008C15.5289 17.4748 17.6207 16.2074 19.7117 15.0808C20.8571 14.2587 21.4999 13.0079 21.4765 11.6432C21.4532 10.2725 20.7644 9.03973 19.5874 8.25681C17.4217 7.1363 15.2636 5.81384 13.1756 4.53358C10.9127 3.14632 8.57296 1.71234 6.23851 0.547378C5.24535 0.0515516 4.49332 -0.0840848 3.46323 0.0470304C1.70448 0.270831 0.229059 1.9467 0.104726 3.86218C-0.0700946 6.54477 0.00977941 9.3841 0.0873936 12.1307C0.157472 14.6347 0.230564 17.2231 0.112259 19.706C0.390314 21.2478 1.18982 22.4173 2.36684 23.0028V23.0035ZM1.76778 3.89534L1.76929 3.87725C1.85067 2.85998 2.73984 1.86908 3.71039 1.7131C4.26424 1.62418 4.77514 1.69652 5.31919 1.94142L5.34557 1.95348L5.37044 1.96855C7.44417 3.24579 9.6136 4.45823 11.7122 5.63073C13.8153 6.80625 15.99 8.0217 18.0766 9.30648C18.1527 9.3532 18.2288 9.39841 18.3041 9.44287C18.8067 9.73976 19.3267 10.0472 19.6062 10.7359C19.9694 11.6311 19.7999 12.665 19.1737 13.3695L19.13 13.4185L19.0742 13.4532C16.3532 15.1441 13.5214 16.762 10.7823 18.3256C8.99946 19.3436 7.15631 20.3963 5.36365 21.458L5.33879 21.4716C4.97181 21.6584 4.5845 21.7519 4.2017 21.7519C3.8189 21.7519 3.41802 21.6524 3.06085 21.455C2.32539 21.0466 1.84087 20.2787 1.76477 19.4008L1.76326 19.3617L1.76703 3.89459L1.76778 3.89534Z" fill="white"/>
</svg>
