<svg width="320" height="257" viewBox="0 0 320 257" fill="none" xmlns="http://www.w3.org/2000/svg">
<g clip-path="url(#clip0_1419_6315)">
<mask id="mask0_1419_6315" style="mask-type:luminance" maskUnits="userSpaceOnUse" x="0" y="0" width="320" height="257">
<path d="M309.116 0.212891H10.8844C4.87309 0.212891 0 5.08843 0 11.1027V245.778C0 251.793 4.87309 256.668 10.8844 256.668H309.116C315.127 256.668 320 251.793 320 245.778V11.1027C320 5.08843 315.127 0.212891 309.116 0.212891Z" fill="white"/>
</mask>
<g mask="url(#mask0_1419_6315)">
<path d="M309.116 0.212891H10.8844C4.87309 0.212891 0 5.08843 0 11.1027V245.778C0 251.793 4.87309 256.668 10.8844 256.668H309.116C315.127 256.668 320 251.793 320 245.778V11.1027C320 5.08843 315.127 0.212891 309.116 0.212891Z" fill="#0A0A0A"/>
<g filter="url(#filter0_f_1419_6315)">
<path d="M339.592 6.36119C339.592 44.552 306.82 75.5119 266.394 75.5119C225.969 75.5119 193.197 44.552 193.197 6.36119C193.197 -31.8296 225.969 -62.7891 266.394 -62.7891C306.82 -62.7891 339.592 -31.8296 339.592 6.36119Z" fill="#4064DF" fill-opacity="0.2"/>
</g>
<g filter="url(#filter1_f_1419_6315)">
<path d="M258.503 199.928C258.503 230.15 232.676 254.65 200.816 254.65C168.956 254.65 143.129 230.15 143.129 199.928C143.129 169.706 168.956 145.207 200.816 145.207C232.676 145.207 258.503 169.706 258.503 199.928Z" fill="#4064DF" fill-opacity="0.2"/>
</g>
<g filter="url(#filter2_f_1419_6315)">
<path d="M78.3671 165.897C78.3671 207.996 44.2555 242.126 2.17673 242.126C-39.9021 242.126 -74.0137 207.996 -74.0137 165.897C-74.0137 123.797 -39.9021 89.668 2.17673 89.668C44.2555 89.668 78.3671 123.797 78.3671 165.897Z" fill="#4064DF" fill-opacity="0.48"/>
</g>
<path d="M36.8252 217.797H291.89" stroke="#4064DF" stroke-opacity="0.2" stroke-width="0.85" stroke-miterlimit="3.86"/>
<path d="M36.8252 203.637H291.89" stroke="#4064DF" stroke-opacity="0.2" stroke-width="0.85" stroke-miterlimit="3.86"/>
<path d="M36.8252 189.479H291.89" stroke="#4064DF" stroke-opacity="0.2" stroke-width="0.85" stroke-miterlimit="3.86"/>
<path d="M36.8252 175.324H291.89" stroke="#4064DF" stroke-opacity="0.2" stroke-width="0.85" stroke-miterlimit="3.86"/>
<path d="M36.8252 161.162H291.89" stroke="#4064DF" stroke-opacity="0.2" stroke-width="0.85" stroke-miterlimit="3.86"/>
<path d="M36.8252 147.002H291.89" stroke="#4064DF" stroke-opacity="0.2" stroke-width="0.85" stroke-miterlimit="3.86"/>
<path d="M36.8252 132.846H291.89" stroke="#4064DF" stroke-opacity="0.2" stroke-width="0.85" stroke-miterlimit="3.86"/>
<path d="M36.8252 118.686H291.89" stroke="#4064DF" stroke-opacity="0.2" stroke-width="0.85" stroke-miterlimit="3.86"/>
<path d="M36.8252 104.527H291.89" stroke="#4064DF" stroke-opacity="0.2" stroke-width="0.85" stroke-miterlimit="3.86"/>
<path d="M36.8252 90.3672H291.89" stroke="#4064DF" stroke-opacity="0.2" stroke-width="0.85" stroke-miterlimit="3.86"/>
<path d="M36.8252 76.207H291.89" stroke="#4064DF" stroke-opacity="0.2" stroke-width="0.85" stroke-miterlimit="3.86"/>
<path d="M36.8252 62.0488H291.89" stroke="#4064DF" stroke-opacity="0.2" stroke-width="0.85" stroke-miterlimit="3.86"/>
<path d="M36.8252 47.8887H291.89" stroke="#4064DF" stroke-opacity="0.2" stroke-width="0.85" stroke-miterlimit="3.86"/>
<path d="M36.8252 33.7305H291.89" stroke="#4064DF" stroke-opacity="0.2" stroke-width="0.85" stroke-miterlimit="3.86"/>
<path d="M37.1836 33.7578V217.824" stroke="#4064DF" stroke-opacity="0.2" stroke-width="0.85" stroke-miterlimit="3.86"/>
<path d="M51.3535 33.7578V217.824" stroke="#4064DF" stroke-opacity="0.2" stroke-width="0.85" stroke-miterlimit="3.86"/>
<path d="M65.5234 33.7578V217.824" stroke="#4064DF" stroke-opacity="0.2" stroke-width="0.85" stroke-miterlimit="3.86"/>
<path d="M79.6943 33.7578V217.824" stroke="#4064DF" stroke-opacity="0.2" stroke-width="0.85" stroke-miterlimit="3.86"/>
<path d="M93.8643 33.7578V217.824" stroke="#4064DF" stroke-opacity="0.2" stroke-width="0.85" stroke-miterlimit="3.86"/>
<path d="M108.034 33.7578V217.824" stroke="#4064DF" stroke-opacity="0.2" stroke-width="0.85" stroke-miterlimit="3.86"/>
<path d="M122.205 33.7578V217.824" stroke="#4064DF" stroke-opacity="0.2" stroke-width="0.85" stroke-miterlimit="3.86"/>
<path d="M136.374 33.7578V217.824" stroke="#4064DF" stroke-opacity="0.2" stroke-width="0.85" stroke-miterlimit="3.86"/>
<path d="M150.544 33.7578V217.824" stroke="#4064DF" stroke-opacity="0.2" stroke-width="0.85" stroke-miterlimit="3.86"/>
<path d="M164.714 33.7578V217.824" stroke="#4064DF" stroke-opacity="0.2" stroke-width="0.85" stroke-miterlimit="3.86"/>
<path d="M178.884 33.7578V217.824" stroke="#4064DF" stroke-opacity="0.2" stroke-width="0.85" stroke-miterlimit="3.86"/>
<path d="M193.054 33.7578V217.824" stroke="#4064DF" stroke-opacity="0.2" stroke-width="0.85" stroke-miterlimit="3.86"/>
<path d="M207.223 33.7578V217.824" stroke="#4064DF" stroke-opacity="0.2" stroke-width="0.85" stroke-miterlimit="3.86"/>
<path d="M221.395 33.7578V217.824" stroke="#4064DF" stroke-opacity="0.2" stroke-width="0.85" stroke-miterlimit="3.86"/>
<path d="M235.564 33.7578V217.824" stroke="#4064DF" stroke-opacity="0.2" stroke-width="0.85" stroke-miterlimit="3.86"/>
<path d="M249.735 33.7578V217.824" stroke="#4064DF" stroke-opacity="0.2" stroke-width="0.85" stroke-miterlimit="3.86"/>
<path d="M263.904 33.7578V217.824" stroke="#4064DF" stroke-opacity="0.2" stroke-width="0.85" stroke-miterlimit="3.86"/>
<path d="M278.075 33.7578V217.824" stroke="#4064DF" stroke-opacity="0.2" stroke-width="0.85" stroke-miterlimit="3.86"/>
<path d="M292.245 33.7578V217.824" stroke="#4064DF" stroke-opacity="0.2" stroke-width="0.85" stroke-miterlimit="3.86"/>
<path d="M36.3525 217.553H292.197" stroke="#4064DF" stroke-width="2"/>
<path d="M36.7598 217.961V33.3184" stroke="#4064DF" stroke-width="2"/>
<path d="M293.225 73.1165C293.167 72.5175 292.634 72.0798 292.036 72.138L282.286 73.0871C281.687 73.1453 281.25 73.6778 281.308 74.2768C281.366 74.8752 281.899 75.3135 282.497 75.2552L291.163 74.4113L292.007 83.0823C292.065 83.6807 292.597 84.119 293.195 84.0607C293.794 84.0025 294.232 83.47 294.173 82.871L293.225 73.1165ZM37.1445 186.611V187.7C118.291 187.7 182.244 159.259 225.899 130.829C247.727 116.614 264.487 102.398 275.793 91.731C281.447 86.3977 285.738 81.9503 288.619 78.8331C290.059 77.2748 291.146 76.0486 291.876 75.21C292.24 74.7908 292.515 74.4684 292.7 74.2501C292.792 74.1412 292.862 74.0579 292.909 74.0013C292.933 73.9735 292.951 73.9517 292.962 73.937C292.968 73.9299 292.973 73.924 292.977 73.9201C292.978 73.9185 292.979 73.9169 292.98 73.9158C292.981 73.9147 292.982 73.9136 292.141 73.2221C291.3 72.5301 291.3 72.5306 291.3 72.5306C291.299 72.5311 291.299 72.5322 291.298 72.5339C291.295 72.5366 291.291 72.5415 291.286 72.548C291.275 72.5605 291.259 72.5801 291.237 72.6068C291.193 72.6591 291.127 72.7386 291.038 72.8442C290.86 73.0544 290.591 73.3691 290.234 73.7802C289.518 74.6029 288.445 75.8128 287.02 77.3548C284.17 80.4388 279.914 84.8497 274.3 90.1465C263.07 100.74 246.412 114.871 224.712 129.004C181.31 157.268 117.765 185.522 37.1445 185.522V186.611Z" fill="url(#paint0_linear_1419_6315)"/>
<path d="M293.94 172.576C294.401 172.963 294.461 173.65 294.074 174.111L287.778 181.619C287.392 182.08 286.706 182.14 286.245 181.753C285.784 181.367 285.724 180.68 286.111 180.219L291.708 173.545L285.037 167.946C284.576 167.559 284.516 166.872 284.903 166.412C285.289 165.951 285.975 165.891 286.436 166.277L293.94 172.576ZM37.1439 141.256L37.5604 140.25C114.966 172.318 201.56 180.349 293.146 172.326L293.241 173.411L293.336 174.496C201.516 182.538 114.548 174.502 36.7275 142.262L37.1439 141.256Z" fill="url(#paint1_linear_1419_6315)"/>
<path d="M228.073 242.547V236.667H228.8V241.858H231.526V242.547H228.073ZM233.306 242.67C232.977 242.67 232.701 242.61 232.478 242.49C232.258 242.368 232.09 242.207 231.976 242.008C231.864 241.81 231.809 241.592 231.809 241.355C231.809 241.124 231.852 240.924 231.939 240.755C232.029 240.583 232.154 240.442 232.315 240.33C232.475 240.216 232.667 240.126 232.89 240.061C233.1 240.004 233.334 239.955 233.592 239.914C233.853 239.87 234.117 239.83 234.384 239.795C234.651 239.76 234.9 239.726 235.131 239.693L234.87 239.844C234.878 239.452 234.799 239.162 234.633 238.974C234.47 238.787 234.187 238.692 233.784 238.692C233.518 238.692 233.284 238.754 233.082 238.876C232.884 238.996 232.743 239.192 232.662 239.465L231.972 239.256C232.078 238.869 232.283 238.566 232.588 238.346C232.893 238.125 233.294 238.015 233.792 238.015C234.192 238.015 234.535 238.087 234.821 238.231C235.109 238.373 235.316 238.588 235.441 238.876C235.504 239.013 235.543 239.161 235.56 239.321C235.576 239.479 235.584 239.645 235.584 239.819V242.547H234.939V241.49L235.09 241.588C234.924 241.945 234.691 242.214 234.392 242.397C234.096 242.579 233.734 242.67 233.306 242.67ZM233.417 242.062C233.678 242.062 233.904 242.015 234.094 241.923C234.288 241.828 234.443 241.703 234.56 241.551C234.677 241.396 234.753 241.227 234.788 241.045C234.829 240.908 234.851 240.758 234.854 240.592C234.859 240.423 234.862 240.293 234.862 240.203L235.115 240.314C234.878 240.347 234.645 240.378 234.417 240.408C234.188 240.438 233.972 240.47 233.768 240.506C233.564 240.538 233.38 240.578 233.217 240.624C233.097 240.662 232.984 240.711 232.878 240.771C232.775 240.831 232.69 240.908 232.625 241.004C232.563 241.096 232.531 241.212 232.531 241.351C232.531 241.471 232.561 241.585 232.621 241.694C232.683 241.803 232.779 241.891 232.906 241.959C233.037 242.027 233.207 242.062 233.417 242.062ZM238.943 242.547C238.682 242.599 238.424 242.62 238.168 242.609C237.915 242.601 237.689 242.55 237.49 242.458C237.292 242.362 237.14 242.215 237.037 242.017C236.95 241.842 236.903 241.667 236.894 241.49C236.889 241.31 236.886 241.107 236.886 240.881V236.912H237.613V240.849C237.613 241.028 237.614 241.182 237.617 241.31C237.622 241.438 237.651 241.548 237.703 241.641C237.801 241.815 237.956 241.917 238.168 241.947C238.383 241.977 238.641 241.969 238.943 241.923V242.547ZM235.992 238.738V238.137H238.943V238.738H235.992ZM240.928 242.67C240.599 242.67 240.323 242.61 240.099 242.49C239.879 242.368 239.712 242.207 239.598 242.008C239.486 241.81 239.43 241.592 239.43 241.355C239.43 241.124 239.474 240.924 239.561 240.755C239.65 240.583 239.776 240.442 239.936 240.33C240.097 240.216 240.289 240.126 240.512 240.061C240.721 240.004 240.955 239.955 241.214 239.914C241.475 239.87 241.739 239.83 242.006 239.795C242.272 239.76 242.521 239.726 242.752 239.693L242.491 239.844C242.499 239.452 242.42 239.162 242.254 238.974C242.091 238.787 241.808 238.692 241.406 238.692C241.139 238.692 240.905 238.754 240.703 238.876C240.505 238.996 240.365 239.192 240.283 239.465L239.593 239.256C239.699 238.869 239.905 238.566 240.21 238.346C240.515 238.125 240.916 238.015 241.414 238.015C241.814 238.015 242.157 238.087 242.442 238.231C242.731 238.373 242.937 238.588 243.063 238.876C243.125 239.013 243.165 239.161 243.181 239.321C243.198 239.479 243.206 239.645 243.206 239.819V242.547H242.561V241.49L242.712 241.588C242.546 241.945 242.313 242.214 242.014 242.397C241.717 242.579 241.355 242.67 240.928 242.67ZM241.038 242.062C241.299 242.062 241.525 242.015 241.716 241.923C241.909 241.828 242.064 241.703 242.181 241.551C242.298 241.396 242.374 241.227 242.41 241.045C242.45 240.908 242.472 240.758 242.475 240.592C242.48 240.423 242.483 240.293 242.483 240.203L242.736 240.314C242.499 240.347 242.267 240.378 242.038 240.408C241.81 240.438 241.593 240.47 241.389 240.506C241.185 240.538 241.002 240.578 240.838 240.624C240.719 240.662 240.605 240.711 240.499 240.771C240.396 240.831 240.312 240.908 240.246 241.004C240.184 241.096 240.153 241.212 240.153 241.351C240.153 241.471 240.183 241.585 240.243 241.694C240.305 241.803 240.4 241.891 240.528 241.959C240.659 242.027 240.829 242.062 241.038 242.062ZM247.248 242.662C246.965 242.662 246.721 242.617 246.517 242.527C246.316 242.437 246.149 242.318 246.016 242.168C245.882 242.018 245.777 241.852 245.701 241.67C245.625 241.487 245.57 241.301 245.538 241.11C245.508 240.919 245.493 240.741 245.493 240.575V238.137H246.228V240.347C246.228 240.553 246.247 240.753 246.285 240.947C246.323 241.14 246.387 241.314 246.477 241.469C246.569 241.624 246.691 241.747 246.844 241.837C246.999 241.927 247.192 241.972 247.423 241.972C247.606 241.972 247.772 241.94 247.921 241.878C248.071 241.815 248.199 241.723 248.305 241.6C248.411 241.475 248.493 241.317 248.55 241.126C248.607 240.936 248.636 240.714 248.636 240.461L249.113 240.608C249.113 241.033 249.036 241.399 248.881 241.706C248.728 242.014 248.512 242.251 248.232 242.417C247.954 242.58 247.626 242.662 247.248 242.662ZM248.718 242.547V241.367H248.636V238.137H249.366V242.547H248.718ZM251.603 237.222V236.422H252.403V237.222H251.603ZM249.938 242.547V242.417L252.611 238.799H250.158V238.137H253.783V238.276L251.113 241.886H253.644V242.547H249.938ZM255.012 244.508L255.865 242.188L255.877 242.874L253.951 238.137H254.714L256.225 241.947H255.963L257.379 238.137H258.118L255.718 244.508H255.012ZM261.417 242.547C261.156 242.599 260.897 242.62 260.641 242.609C260.388 242.601 260.163 242.55 259.964 242.458C259.765 242.362 259.614 242.215 259.511 242.017C259.424 241.842 259.376 241.667 259.368 241.49C259.363 241.31 259.36 241.107 259.36 240.881V236.912H260.086V240.849C260.086 241.028 260.088 241.182 260.091 241.31C260.096 241.438 260.124 241.548 260.176 241.641C260.274 241.815 260.429 241.917 260.641 241.947C260.856 241.977 261.115 241.969 261.417 241.923V242.547ZM258.466 238.738V238.137H261.417V238.738H258.466ZM262.145 242.547L262.149 236.667H262.884V240.261L264.732 238.137H265.675L263.728 240.342L265.904 242.547H264.887L262.884 240.424V242.547H262.145ZM267.945 242.67C267.507 242.67 267.129 242.571 266.81 242.372C266.494 242.173 266.251 241.898 266.079 241.547C265.908 241.196 265.822 240.793 265.822 240.338C265.822 239.876 265.909 239.47 266.084 239.121C266.258 238.773 266.504 238.502 266.822 238.309C267.14 238.113 267.515 238.015 267.945 238.015C268.386 238.015 268.765 238.114 269.083 238.313C269.402 238.509 269.646 238.782 269.814 239.133C269.986 239.482 270.071 239.884 270.071 240.338C270.071 240.798 269.986 241.204 269.814 241.555C269.643 241.904 269.398 242.177 269.08 242.376C268.761 242.572 268.383 242.67 267.945 242.67ZM267.945 241.98C268.402 241.98 268.742 241.828 268.965 241.523C269.188 241.218 269.3 240.823 269.3 240.338C269.3 239.84 269.187 239.444 268.961 239.15C268.735 238.853 268.397 238.705 267.945 238.705C267.637 238.705 267.384 238.774 267.186 238.913C266.987 239.052 266.838 239.244 266.74 239.489C266.643 239.734 266.594 240.017 266.594 240.338C266.594 240.834 266.708 241.231 266.936 241.531C267.165 241.83 267.501 241.98 267.945 241.98ZM271.586 242.547L270.239 238.133L270.961 238.137L271.945 241.363L272.937 238.137H273.578L274.566 241.363L275.554 238.137H276.272L274.925 242.547H274.321L273.255 239.195L272.19 242.547H271.586ZM277.852 242.67C277.523 242.67 277.246 242.61 277.023 242.49C276.803 242.368 276.635 242.207 276.521 242.008C276.41 241.81 276.354 241.592 276.354 241.355C276.354 241.124 276.397 240.924 276.484 240.755C276.574 240.583 276.699 240.442 276.86 240.33C277.02 240.216 277.212 240.126 277.435 240.061C277.645 240.004 277.879 239.955 278.137 239.914C278.399 239.87 278.663 239.83 278.929 239.795C279.196 239.76 279.445 239.726 279.676 239.693L279.415 239.844C279.423 239.452 279.344 239.162 279.178 238.974C279.015 238.787 278.732 238.692 278.329 238.692C278.062 238.692 277.828 238.754 277.627 238.876C277.428 238.996 277.289 239.192 277.207 239.465L276.517 239.256C276.623 238.869 276.829 238.566 277.133 238.346C277.438 238.125 277.839 238.015 278.337 238.015C278.737 238.015 279.08 238.087 279.366 238.231C279.654 238.373 279.861 238.588 279.986 238.876C280.049 239.013 280.089 239.161 280.105 239.321C280.121 239.479 280.129 239.645 280.129 239.819V242.547H279.484V241.49L279.635 241.588C279.469 241.945 279.237 242.214 278.937 242.397C278.641 242.579 278.279 242.67 277.852 242.67ZM277.962 242.062C278.223 242.062 278.449 242.015 278.639 241.923C278.832 241.828 278.988 241.703 279.105 241.551C279.222 241.396 279.298 241.227 279.333 241.045C279.374 240.908 279.396 240.758 279.398 240.592C279.404 240.423 279.407 240.293 279.407 240.203L279.66 240.314C279.423 240.347 279.191 240.378 278.962 240.408C278.733 240.438 278.517 240.47 278.313 240.506C278.109 240.538 277.925 240.578 277.762 240.624C277.642 240.662 277.529 240.711 277.423 240.771C277.32 240.831 277.235 240.908 277.17 241.004C277.107 241.096 277.076 241.212 277.076 241.351C277.076 241.471 277.106 241.585 277.166 241.694C277.229 241.803 277.324 241.891 277.452 241.959C277.582 242.027 277.752 242.062 277.962 242.062ZM284.166 242.547V240.338C284.166 240.129 284.147 239.927 284.109 239.734C284.073 239.541 284.01 239.368 283.917 239.215C283.827 239.06 283.705 238.937 283.55 238.848C283.397 238.758 283.204 238.713 282.97 238.713C282.788 238.713 282.622 238.744 282.472 238.807C282.325 238.867 282.198 238.959 282.092 239.084C281.986 239.21 281.903 239.368 281.844 239.558C281.786 239.746 281.758 239.968 281.758 240.224L281.28 240.077C281.28 239.65 281.357 239.283 281.509 238.978C281.664 238.671 281.88 238.435 282.158 238.272C282.438 238.106 282.767 238.023 283.145 238.023C283.431 238.023 283.675 238.068 283.876 238.158C284.078 238.248 284.245 238.367 284.378 238.517C284.511 238.664 284.616 238.83 284.693 239.015C284.769 239.198 284.822 239.384 284.851 239.574C284.884 239.762 284.9 239.941 284.9 240.11V242.547H284.166ZM281.023 242.547V238.137H281.676V239.317H281.758V242.547H281.023ZM285.88 237.357V236.606H286.607V237.357H285.88ZM285.88 242.547V238.137H286.607V242.547H285.88ZM288.921 242.67C288.592 242.67 288.315 242.61 288.092 242.49C287.872 242.368 287.705 242.207 287.591 242.008C287.479 241.81 287.423 241.592 287.423 241.355C287.423 241.124 287.466 240.924 287.554 240.755C287.643 240.583 287.769 240.442 287.929 240.33C288.09 240.216 288.282 240.126 288.505 240.061C288.714 240.004 288.948 239.955 289.207 239.914C289.468 239.87 289.732 239.83 289.999 239.795C290.265 239.76 290.514 239.726 290.745 239.693L290.484 239.844C290.492 239.452 290.413 239.162 290.247 238.974C290.084 238.787 289.801 238.692 289.398 238.692C289.132 238.692 288.898 238.754 288.696 238.876C288.498 238.996 288.358 239.192 288.276 239.465L287.586 239.256C287.692 238.869 287.898 238.566 288.203 238.346C288.508 238.125 288.909 238.015 289.407 238.015C289.807 238.015 290.149 238.087 290.435 238.231C290.724 238.373 290.93 238.588 291.056 238.876C291.118 239.013 291.158 239.161 291.174 239.321C291.191 239.479 291.199 239.645 291.199 239.819V242.547H290.554V241.49L290.705 241.588C290.539 241.945 290.306 242.214 290.007 242.397C289.71 242.579 289.348 242.67 288.921 242.67ZM289.031 242.062C289.292 242.062 289.518 242.015 289.709 241.923C289.902 241.828 290.057 241.703 290.174 241.551C290.291 241.396 290.367 241.227 290.403 241.045C290.443 240.908 290.465 240.758 290.468 240.592C290.473 240.423 290.476 240.293 290.476 240.203L290.729 240.314C290.492 240.347 290.26 240.378 290.031 240.408C289.803 240.438 289.586 240.47 289.382 240.506C289.178 240.538 288.995 240.578 288.831 240.624C288.712 240.662 288.598 240.711 288.492 240.771C288.389 240.831 288.305 240.908 288.239 241.004C288.177 241.096 288.146 241.212 288.146 241.351C288.146 241.471 288.176 241.585 288.235 241.694C288.298 241.803 288.393 241.891 288.521 241.959C288.652 242.027 288.822 242.062 289.031 242.062Z" fill="white"/>
<path d="M21.0361 20.5602V14.6797H21.7627V17.4403L24.3341 14.6797H25.2484L22.579 17.5342L25.4565 20.5602H24.5178L21.7627 17.6853V20.5602H21.0361ZM27.414 20.6827C26.9759 20.6827 26.5977 20.5833 26.2793 20.3846C25.9637 20.1859 25.7202 19.9109 25.5487 19.5597C25.3773 19.2085 25.2916 18.8056 25.2916 18.3509C25.2916 17.8881 25.3787 17.4825 25.5528 17.134C25.727 16.7855 25.9732 16.5146 26.2916 16.3213C26.61 16.1253 26.9841 16.0273 27.414 16.0273C27.8549 16.0273 28.2344 16.1267 28.5528 16.3254C28.8712 16.5214 29.1147 16.795 29.2834 17.1462C29.4549 17.4947 29.5406 17.8963 29.5406 18.3509C29.5406 18.811 29.4549 19.2167 29.2834 19.5679C29.112 19.9163 28.8671 20.1899 28.5487 20.3887C28.2304 20.5847 27.8521 20.6827 27.414 20.6827ZM27.414 19.9926C27.8712 19.9926 28.2113 19.8401 28.4344 19.5352C28.6576 19.2303 28.7691 18.8355 28.7691 18.3509C28.7691 17.8527 28.6562 17.4566 28.4304 17.1626C28.2045 16.8658 27.8657 16.7174 27.414 16.7174C27.1066 16.7174 26.8535 16.7869 26.6549 16.9257C26.4562 17.0646 26.3079 17.2565 26.21 17.5015C26.112 17.7465 26.063 18.0297 26.063 18.3509C26.063 18.8464 26.1773 19.2439 26.4059 19.5434C26.6344 19.8428 26.9705 19.9926 27.414 19.9926ZM31.8775 20.6786C31.3523 20.6786 30.921 20.5643 30.5836 20.3356C30.2489 20.1042 30.0435 19.7816 29.9673 19.3678L30.7101 19.2493C30.77 19.4889 30.9074 19.6795 31.1224 19.8211C31.3374 19.9599 31.604 20.0293 31.9224 20.0293C32.2244 20.0293 32.4612 19.9667 32.6326 19.8415C32.804 19.7162 32.8897 19.5461 32.8897 19.331C32.8897 19.2058 32.8612 19.105 32.804 19.0288C32.7469 18.9499 32.6285 18.8764 32.4489 18.8083C32.2721 18.7402 32.004 18.6586 31.6448 18.5633C31.2557 18.4598 30.9496 18.3523 30.7265 18.2407C30.5033 18.129 30.3442 17.9997 30.2489 17.8527C30.1537 17.7057 30.1061 17.5274 30.1061 17.3178C30.1061 17.0591 30.1768 16.8332 30.3183 16.6399C30.4598 16.4438 30.6571 16.2927 30.9101 16.1866C31.1659 16.0804 31.4625 16.0273 31.7999 16.0273C32.1346 16.0273 32.434 16.0804 32.6979 16.1866C32.9619 16.2927 33.1741 16.4438 33.3346 16.6399C33.4979 16.8332 33.5945 17.0591 33.6244 17.3178L32.8816 17.4525C32.8462 17.2157 32.7319 17.0292 32.5387 16.893C32.3482 16.7569 32.102 16.6848 31.7999 16.6766C31.5142 16.6657 31.2816 16.7161 31.102 16.8277C30.9251 16.9393 30.8367 17.0904 30.8367 17.281C30.8367 17.3872 30.8693 17.4784 30.9346 17.5546C31.0027 17.6308 31.1265 17.703 31.3061 17.771C31.4884 17.8391 31.7523 17.9167 32.0979 18.0038C32.487 18.1018 32.7931 18.2094 33.0163 18.3264C33.2421 18.4408 33.4027 18.5769 33.4979 18.7348C33.5931 18.89 33.6408 19.0819 33.6408 19.3106C33.6408 19.7353 33.4843 20.0702 33.1714 20.3152C32.8584 20.5575 32.4272 20.6786 31.8775 20.6786ZM33.9695 20.5602V20.4295L36.643 16.8114H34.1899V16.1498H37.8144V16.2887L35.145 19.8986H37.6756V20.5602H33.9695ZM41.0124 20.5602C40.7511 20.6119 40.4926 20.6323 40.2368 20.6215C39.9838 20.6133 39.7579 20.5629 39.5593 20.4704C39.3607 20.3751 39.2096 20.2281 39.1062 20.0293C39.0192 19.8551 38.9715 19.6795 38.9634 19.5025C38.9579 19.3228 38.9552 19.12 38.9552 18.8941V14.9247H39.6817V18.8614C39.6817 19.0411 39.6831 19.1949 39.6858 19.3228C39.6913 19.4508 39.7198 19.5611 39.7715 19.6536C39.8695 19.8279 40.0246 19.93 40.2368 19.9599C40.4518 19.9898 40.7103 19.9817 41.0124 19.9354V20.5602ZM38.0613 16.7501V16.1498H41.0124V16.7501H38.0613ZM42.2367 22.5204L43.0898 20.2008L43.102 20.8869L41.1755 16.1498H41.9388L43.449 19.9599H43.1878L44.6041 16.1498H45.3429L42.9429 22.5204H42.2367Z" fill="white"/>
<path d="M24.6666 38.8784V34.4792L23.708 35.0596V34.3553L24.6666 33.782H25.3069V38.8784H24.6666ZM28.2306 38.9846C27.9004 38.9846 27.6056 38.9103 27.3463 38.7616C27.0892 38.6106 26.8852 38.4065 26.7343 38.1493C26.5857 37.8898 26.5114 37.5949 26.5114 37.2645V35.3958C26.5114 35.0655 26.5857 34.7706 26.7343 34.511C26.8852 34.2515 27.0892 34.0474 27.3463 33.8988C27.6056 33.7501 27.9004 33.6758 28.2306 33.6758C28.5607 33.6758 28.8555 33.7501 29.115 33.8988C29.3744 34.0474 29.5784 34.2515 29.7269 34.511C29.8755 34.7706 29.9498 35.0655 29.9498 35.3958V37.2645C29.9498 37.5949 29.8755 37.8898 29.7269 38.1493C29.5784 38.4065 29.3744 38.6106 29.115 38.7616C28.8555 38.9103 28.5607 38.9846 28.2306 38.9846ZM28.2306 38.3794C28.4311 38.3794 28.6127 38.331 28.7754 38.2343C28.9381 38.1375 29.0678 38.0078 29.1645 37.845C29.2612 37.6798 29.3095 37.4981 29.3095 37.2999V35.3569C29.3095 35.1564 29.2612 34.9747 29.1645 34.8119C29.0678 34.6491 28.9381 34.5193 28.7754 34.4226C28.6127 34.3258 28.4311 34.2774 28.2306 34.2774C28.0325 34.2774 27.8509 34.3258 27.6859 34.4226C27.5231 34.5193 27.3934 34.6491 27.2967 34.8119C27.2 34.9747 27.1517 35.1564 27.1517 35.3569V37.2999C27.1517 37.4981 27.2 37.6798 27.2967 37.845C27.3934 38.0078 27.5231 38.1375 27.6859 38.2343C27.8509 38.331 28.0325 38.3794 28.2306 38.3794Z" fill="#ACACAC"/>
<path d="M26.8287 51.4688C27.1541 51.4688 27.4477 51.5466 27.7095 51.7023C27.9713 51.8581 28.1788 52.0704 28.3321 52.3394C28.4877 52.6084 28.5655 52.9139 28.5655 53.256V54.9515C28.5655 55.3076 28.4889 55.6228 28.3356 55.8962C28.1823 56.17 27.9701 56.3846 27.6989 56.5403C27.43 56.696 27.1211 56.7739 26.7721 56.7739C26.4938 56.7739 26.2332 56.7162 25.9903 56.6007C25.7498 56.4848 25.5457 56.3209 25.3783 56.1085L25.8488 55.6909C25.9525 55.8374 26.0858 55.9555 26.2485 56.0448C26.4113 56.1325 26.5857 56.176 26.7721 56.176C26.9985 56.176 27.1977 56.1216 27.3699 56.0132C27.5444 55.9043 27.68 55.7628 27.7767 55.5885C27.8757 55.4138 27.9253 55.2248 27.9253 55.0223V53.9993L28.0632 54.155C27.917 54.3673 27.7295 54.5371 27.5008 54.6645C27.272 54.7919 27.0232 54.8556 26.7544 54.8556C26.4384 54.8556 26.1554 54.7816 25.9054 54.6329C25.6554 54.4843 25.4573 54.2836 25.3111 54.0311C25.1649 53.7763 25.0918 53.4908 25.0918 53.1746C25.0918 52.8585 25.1708 52.5718 25.3288 52.3146C25.4868 52.0551 25.6967 51.8498 25.9585 51.6988C26.2226 51.5455 26.5126 51.4688 26.8287 51.4688ZM26.8287 52.0775C26.6258 52.0775 26.4407 52.127 26.2733 52.2261C26.1082 52.3229 25.9761 52.455 25.8771 52.6225C25.7781 52.7877 25.7285 52.9718 25.7285 53.1746C25.7285 53.3776 25.7769 53.5628 25.8736 53.7303C25.9726 53.8955 26.1046 54.0276 26.2698 54.1267C26.4372 54.2258 26.6223 54.2753 26.8251 54.2753C27.0279 54.2753 27.213 54.2258 27.3805 54.1267C27.5479 54.0276 27.68 53.8955 27.7767 53.7303C27.8757 53.5628 27.9253 53.3776 27.9253 53.1746C27.9253 52.9741 27.8757 52.7913 27.7767 52.6261C27.68 52.4586 27.5479 52.3252 27.3805 52.2261C27.2154 52.127 27.0314 52.0775 26.8287 52.0775Z" fill="#ACACAC"/>
<path d="M26.8618 74.5607C26.5364 74.5607 26.2487 74.496 25.9987 74.3664C25.7487 74.2341 25.553 74.0511 25.4115 73.8175C25.27 73.5839 25.1992 73.3117 25.1992 73.0002C25.1992 72.6959 25.2712 72.4209 25.415 72.1753C25.5612 71.9298 25.7806 71.7414 26.073 71.6091L26.0623 71.8394C25.8242 71.7234 25.6414 71.5606 25.5141 71.351C25.3867 71.1386 25.323 70.9034 25.323 70.6464C25.323 70.3584 25.3891 70.1106 25.5211 69.9032C25.6532 69.6957 25.8348 69.5351 26.0659 69.4218C26.297 69.3086 26.5623 69.252 26.8618 69.252C27.1613 69.252 27.4267 69.3086 27.6577 69.4218C27.8889 69.5351 28.0705 69.6957 28.2025 69.9032C28.3346 70.1106 28.4006 70.3584 28.4006 70.6464C28.4006 70.9034 28.3404 71.137 28.2202 71.3472C28.0999 71.5546 27.9148 71.719 27.6648 71.8394L27.6507 71.6129C27.9431 71.7403 28.1624 71.9276 28.3086 72.1753C28.4572 72.4209 28.5315 72.6959 28.5315 73.0002C28.5315 73.3117 28.4596 73.5839 28.3157 73.8175C28.1742 74.0511 27.9773 74.2341 27.7249 74.3664C27.475 74.496 27.1872 74.5607 26.8618 74.5607ZM26.8618 73.9591C27.1589 73.9591 27.3995 73.878 27.5834 73.7152C27.7698 73.5496 27.8629 73.3117 27.8629 73.0002C27.8629 72.6861 27.7709 72.4481 27.587 72.2853C27.4054 72.1198 27.1637 72.0376 26.8618 72.0376C26.5623 72.0376 26.3206 72.1198 26.1366 72.2853C25.9551 72.4481 25.8643 72.6861 25.8643 73.0002C25.8643 73.3117 25.9562 73.5496 26.1402 73.7152C26.3241 73.878 26.5647 73.9591 26.8618 73.9591ZM26.8618 71.4321C27.1212 71.4321 27.3311 71.3673 27.4915 71.2377C27.6518 71.1054 27.732 70.9083 27.732 70.6464C27.732 70.3845 27.6518 70.1885 27.4915 70.0589C27.3311 69.9266 27.1212 69.8607 26.8618 69.8607C26.6048 69.8607 26.3949 69.9266 26.2321 70.0589C26.0718 70.1885 25.9916 70.3845 25.9916 70.6464C25.9916 70.9083 26.0718 71.1054 26.2321 71.2377C26.3949 71.3673 26.6048 71.4321 26.8618 71.4321Z" fill="#ACACAC"/>
<path d="M25.8151 92.2449L27.6475 87.7539H25.334V87.1484H28.3231V87.7539L26.4943 92.2449H25.8151Z" fill="#ACACAC"/>
<path d="M26.899 110.14C26.5759 110.14 26.2823 110.062 26.0182 109.906C25.7564 109.75 25.5477 109.538 25.392 109.269C25.2387 108.998 25.1621 108.692 25.1621 108.352V106.657C25.1621 106.301 25.2387 105.986 25.392 105.712C25.5477 105.436 25.7599 105.221 26.0288 105.068C26.3 104.912 26.6089 104.834 26.9556 104.834C27.2362 104.834 27.4968 104.892 27.7373 105.008C27.9802 105.121 28.1842 105.285 28.3493 105.499L27.8788 105.917C27.7774 105.768 27.6454 105.651 27.4827 105.563C27.3199 105.476 27.1442 105.432 26.9556 105.432C26.7315 105.432 26.5322 105.487 26.3578 105.595C26.1856 105.701 26.05 105.843 25.951 106.02C25.8519 106.195 25.8024 106.383 25.8024 106.586V107.609L25.6644 107.453C25.813 107.241 26.0016 107.071 26.2304 106.943C26.4591 106.816 26.7068 106.752 26.9733 106.752C27.2892 106.752 27.5722 106.827 27.8222 106.975C28.0745 107.124 28.2726 107.326 28.4165 107.58C28.5627 107.833 28.6359 108.117 28.6359 108.434C28.6359 108.75 28.5568 109.036 28.3988 109.293C28.2408 109.551 28.0298 109.756 27.7656 109.909C27.5039 110.063 27.215 110.14 26.899 110.14ZM26.899 109.531C27.1018 109.531 27.2869 109.482 27.4544 109.385C27.6218 109.286 27.7538 109.155 27.8505 108.989C27.9496 108.822 27.9991 108.637 27.9991 108.434C27.9991 108.231 27.9496 108.045 27.8505 107.878C27.7538 107.711 27.6218 107.578 27.4544 107.481C27.2892 107.382 27.1053 107.333 26.9025 107.333C26.6997 107.333 26.5145 107.382 26.3471 107.481C26.182 107.578 26.05 107.711 25.951 107.878C25.8519 108.045 25.8024 108.231 25.8024 108.434C25.8024 108.634 25.8507 108.818 25.9474 108.986C26.0465 109.151 26.1785 109.283 26.3436 109.382C26.511 109.481 26.6962 109.531 26.899 109.531Z" fill="#ACACAC"/>
<path d="M26.8145 127.929C26.5527 127.929 26.3086 127.875 26.0822 127.766C25.8582 127.658 25.6659 127.509 25.5056 127.32C25.3476 127.129 25.2344 126.91 25.166 126.662L25.7709 126.499C25.8134 126.667 25.8888 126.812 25.9973 126.934C26.1058 127.055 26.2319 127.149 26.3758 127.218C26.522 127.284 26.6741 127.317 26.8321 127.317C27.0396 127.317 27.2259 127.267 27.391 127.168C27.5585 127.067 27.6905 126.933 27.7872 126.768C27.8839 126.601 27.9323 126.418 27.9323 126.219C27.9323 126.014 27.8816 125.829 27.7802 125.664C27.6811 125.496 27.5478 125.365 27.3804 125.268C27.213 125.171 27.0302 125.122 26.8321 125.122C26.6081 125.122 26.4159 125.17 26.2555 125.264C26.0975 125.356 25.9725 125.469 25.8806 125.604L25.3217 125.391L25.4773 122.727H28.2117V123.324H25.7815L26.061 123.063L25.9301 125.197L25.7921 125.016C25.9336 124.865 26.1022 124.749 26.298 124.666C26.4961 124.583 26.6977 124.542 26.9029 124.542C27.2189 124.542 27.5019 124.616 27.7519 124.765C28.0018 124.912 28.1999 125.112 28.3462 125.367C28.4923 125.619 28.5655 125.904 28.5655 126.219C28.5655 126.534 28.4853 126.82 28.3249 127.08C28.1645 127.337 27.9511 127.543 27.6847 127.699C27.4205 127.852 27.1304 127.929 26.8145 127.929Z" fill="#ACACAC"/>
<path d="M27.4531 145.61V144.672H25.1113V144.074L26.7916 140.514H27.5062L25.8259 144.074H27.4531V142.64H28.0898V144.074H28.6204V144.672H28.0898V145.61H27.4531Z" fill="#ACACAC"/>
<path d="M26.7668 163.498C26.5145 163.498 26.2798 163.452 26.0628 163.36C25.8459 163.266 25.6584 163.133 25.5004 162.964C25.3447 162.792 25.2304 162.587 25.1572 162.352L25.7621 162.178C25.8399 162.414 25.9697 162.593 26.1512 162.716C26.3328 162.839 26.5368 162.899 26.7632 162.897C26.9708 162.892 27.15 162.844 27.3009 162.755C27.4542 162.663 27.5721 162.538 27.6546 162.38C27.7395 162.221 27.782 162.039 27.782 161.831C27.782 161.515 27.6877 161.259 27.499 161.063C27.3104 160.865 27.0628 160.766 26.7561 160.766C26.6712 160.766 26.5817 160.777 26.4873 160.801C26.3953 160.825 26.3093 160.858 26.2291 160.901L25.9248 160.401L27.8138 158.692L27.8952 158.904H25.3589V158.303H28.3621V158.908L26.7526 160.451L26.7455 160.228C27.0828 160.204 27.3776 160.26 27.6299 160.394C27.8822 160.529 28.078 160.721 28.2171 160.971C28.3586 161.221 28.4293 161.508 28.4293 161.831C28.4293 162.157 28.3562 162.445 28.21 162.695C28.0638 162.945 27.8657 163.142 27.6157 163.286C27.3658 163.427 27.0828 163.498 26.7668 163.498Z" fill="#ACACAC"/>
<path d="M25.1729 181.185L25.1764 180.619L27.4368 178.584C27.6254 178.414 27.7516 178.254 27.8153 178.103C27.8813 177.949 27.9143 177.792 27.9143 177.632C27.9143 177.436 27.8695 177.259 27.7799 177.101C27.6903 176.943 27.5677 176.818 27.412 176.726C27.2587 176.634 27.0842 176.588 26.8885 176.588C26.6857 176.588 26.5053 176.636 26.3473 176.733C26.1892 176.827 26.0643 176.953 25.9723 177.112C25.8827 177.27 25.839 177.442 25.8414 177.629H25.1976C25.1976 177.307 25.2719 177.024 25.4205 176.779C25.569 176.531 25.7707 176.338 26.0254 176.199C26.2824 176.057 26.5737 175.986 26.8991 175.986C27.2151 175.986 27.4981 176.059 27.7481 176.206C27.998 176.349 28.1949 176.547 28.3388 176.797C28.485 177.044 28.5582 177.325 28.5582 177.639C28.5582 177.86 28.5299 178.053 28.4733 178.216C28.419 178.379 28.3341 178.53 28.2186 178.669C28.103 178.806 27.9579 178.952 27.7835 179.108L25.9051 180.796L25.8237 180.583H28.5582V181.185H25.1729Z" fill="#ACACAC"/>
<path d="M26.8102 198.978V194.578L25.8516 195.159V194.454L26.8102 193.881H27.4505V198.978H26.8102Z" fill="#ACACAC"/>
<path d="M26.8647 216.871C26.5346 216.871 26.2398 216.797 25.9803 216.649C25.7233 216.498 25.5193 216.294 25.3684 216.036C25.2198 215.777 25.1455 215.482 25.1455 215.151V213.283C25.1455 212.953 25.2198 212.657 25.3684 212.398C25.5193 212.139 25.7233 211.934 25.9803 211.786C26.2398 211.637 26.5346 211.562 26.8647 211.562C27.1949 211.562 27.4897 211.637 27.749 211.786C28.0085 211.934 28.2124 212.139 28.361 212.398C28.5096 212.657 28.5839 212.953 28.5839 213.283V215.151C28.5839 215.482 28.5096 215.777 28.361 216.036C28.2124 216.294 28.0085 216.498 27.749 216.649C27.4897 216.797 27.1949 216.871 26.8647 216.871ZM26.8647 216.266C27.0652 216.266 27.2467 216.218 27.4095 216.121C27.5722 216.025 27.7019 215.894 27.7986 215.732C27.8953 215.567 27.9436 215.385 27.9436 215.187V213.244C27.9436 213.044 27.8953 212.862 27.7986 212.699C27.7019 212.536 27.5722 212.406 27.4095 212.31C27.2467 212.213 27.0652 212.164 26.8647 212.164C26.6666 212.164 26.485 212.213 26.3199 212.31C26.1572 212.406 26.0275 212.536 25.9308 212.699C25.8342 212.862 25.7858 213.044 25.7858 213.244V215.187C25.7858 215.385 25.8342 215.567 25.9308 215.732C26.0275 215.894 26.1572 216.025 26.3199 216.121C26.485 216.218 26.6666 216.266 26.8647 216.266Z" fill="#ACACAC"/>
<path d="M40.3872 230.031C40.057 230.031 39.7622 229.957 39.5028 229.809C39.2457 229.658 39.0417 229.454 38.8908 229.196C38.7423 228.937 38.668 228.642 38.668 228.311V226.443C38.668 226.113 38.7423 225.818 38.8908 225.558C39.0417 225.299 39.2457 225.095 39.5028 224.946C39.7622 224.797 40.057 224.723 40.3872 224.723C40.7173 224.723 41.0121 224.797 41.2715 224.946C41.5309 225.095 41.7349 225.299 41.8835 225.558C42.0321 225.818 42.1063 226.113 42.1063 226.443V228.311C42.1063 228.642 42.0321 228.937 41.8835 229.196C41.7349 229.454 41.5309 229.658 41.2715 229.809C41.0121 229.957 40.7173 230.031 40.3872 230.031ZM40.3872 229.427C40.5876 229.427 40.7692 229.378 40.9319 229.281C41.0946 229.185 41.2243 229.055 41.321 228.892C41.4177 228.727 41.4661 228.545 41.4661 228.347V226.404C41.4661 226.204 41.4177 226.022 41.321 225.859C41.2243 225.696 41.0946 225.567 40.9319 225.47C40.7692 225.373 40.5876 225.324 40.3872 225.324C40.1891 225.324 40.0075 225.373 39.8424 225.47C39.6797 225.567 39.5499 225.696 39.4533 225.859C39.3566 226.022 39.3082 226.204 39.3082 226.404V228.347C39.3082 228.545 39.3566 228.727 39.4533 228.892C39.5499 229.055 39.6797 229.185 39.8424 229.281C40.0075 229.378 40.1891 229.427 40.3872 229.427Z" fill="#ACACAC"/>
<path d="M64.9086 229.925V225.526L63.9502 226.106V225.401L64.9086 224.828H65.5491V229.925H64.9086Z" fill="#ACACAC"/>
<path d="M87.5996 229.922L87.6034 229.356L89.8636 227.32C90.0524 227.151 90.1787 226.99 90.2423 226.839C90.3082 226.686 90.3414 226.529 90.3414 226.369C90.3414 226.173 90.2968 225.996 90.207 225.838C90.1172 225.68 89.9947 225.555 89.8391 225.463C89.6856 225.371 89.5114 225.324 89.3155 225.324C89.1125 225.324 88.9324 225.373 88.774 225.47C88.6162 225.564 88.491 225.69 88.3991 225.848C88.3098 226.007 88.2663 226.179 88.2684 226.365H87.6246C87.6246 226.044 87.6987 225.761 87.8472 225.515C87.9958 225.268 88.1977 225.074 88.4524 224.935C88.7093 224.793 89.0004 224.723 89.3259 224.723C89.6421 224.723 89.9251 224.796 90.1748 224.942C90.4252 225.086 90.6222 225.283 90.7659 225.533C90.9123 225.781 90.9852 226.062 90.9852 226.376C90.9852 226.597 90.9569 226.79 90.9003 226.952C90.8459 227.115 90.761 227.267 90.6456 227.405C90.5302 227.543 90.3849 227.689 90.2102 227.844L88.3321 229.533L88.2505 229.32H90.9852V229.922H87.5996Z" fill="#ACACAC"/>
<path d="M113.947 230.024C113.694 230.024 113.46 229.978 113.242 229.886C113.026 229.792 112.838 229.659 112.68 229.49C112.525 229.317 112.41 229.113 112.337 228.877L112.942 228.704C113.02 228.94 113.149 229.119 113.331 229.242C113.513 229.364 113.716 229.425 113.943 229.422C114.151 229.418 114.33 229.37 114.481 229.28C114.634 229.188 114.752 229.064 114.834 228.905C114.919 228.747 114.962 228.564 114.962 228.357C114.962 228.041 114.868 227.785 114.679 227.589C114.49 227.39 114.243 227.291 113.936 227.291C113.851 227.291 113.762 227.303 113.667 227.327C113.575 227.351 113.489 227.383 113.409 227.426L113.105 226.927L114.994 225.217L115.075 225.43H112.539V224.828H115.542V225.434L113.933 226.977L113.925 226.753C114.263 226.73 114.557 226.786 114.81 226.92C115.062 227.055 115.258 227.247 115.397 227.497C115.539 227.747 115.609 228.034 115.609 228.357C115.609 228.683 115.536 228.971 115.39 229.221C115.244 229.47 115.045 229.668 114.796 229.811C114.546 229.953 114.263 230.024 113.947 230.024Z" fill="#ACACAC"/>
<path d="M139.558 229.925V228.987H137.216V228.389L138.896 224.828H139.611L137.93 228.389H139.558V226.955H140.194V228.389H140.725V228.987H140.194V229.925H139.558Z" fill="#ACACAC"/>
<path d="M163.673 230.031C163.411 230.031 163.167 229.977 162.941 229.868C162.717 229.76 162.525 229.611 162.364 229.422C162.206 229.231 162.093 229.011 162.024 228.764L162.63 228.601C162.672 228.769 162.747 228.914 162.856 229.037C162.964 229.157 163.091 229.251 163.234 229.32C163.381 229.386 163.532 229.419 163.691 229.419C163.898 229.419 164.084 229.369 164.25 229.27C164.417 229.169 164.549 229.035 164.646 228.87C164.742 228.703 164.791 228.52 164.791 228.322C164.791 228.116 164.74 227.931 164.639 227.766C164.54 227.598 164.406 227.466 164.239 227.369C164.072 227.273 163.889 227.224 163.691 227.224C163.467 227.224 163.274 227.272 163.114 227.366C162.956 227.458 162.831 227.571 162.739 227.706L162.18 227.493L162.336 224.828H165.07V225.427H162.64L162.92 225.165L162.788 227.298L162.651 227.118C162.792 226.967 162.961 226.85 163.156 226.768C163.354 226.685 163.556 226.644 163.762 226.644C164.077 226.644 164.36 226.718 164.611 226.867C164.86 227.013 165.058 227.214 165.205 227.468C165.351 227.721 165.424 228.005 165.424 228.322C165.424 228.635 165.344 228.922 165.184 229.181C165.023 229.439 164.81 229.645 164.543 229.801C164.279 229.955 163.989 230.031 163.673 230.031Z" fill="#ACACAC"/>
<path d="M188.713 230.032C188.389 230.032 188.096 229.954 187.832 229.798C187.57 229.642 187.361 229.43 187.206 229.161C187.052 228.89 186.976 228.584 186.976 228.245V226.549C186.976 226.193 187.052 225.878 187.206 225.604C187.361 225.328 187.574 225.114 187.843 224.96C188.114 224.804 188.423 224.727 188.769 224.727C189.05 224.727 189.31 224.784 189.551 224.9C189.794 225.013 189.998 225.177 190.163 225.392L189.692 225.81C189.591 225.661 189.459 225.543 189.296 225.456C189.133 225.369 188.958 225.324 188.769 225.324C188.545 225.324 188.346 225.379 188.171 225.487C187.999 225.593 187.864 225.735 187.765 225.912C187.666 226.087 187.616 226.276 187.616 226.478V227.501L187.478 227.346C187.626 227.133 187.815 226.963 188.044 226.836C188.273 226.709 188.521 226.645 188.787 226.645C189.103 226.645 189.386 226.719 189.636 226.868C189.888 227.016 190.086 227.218 190.23 227.473C190.376 227.726 190.449 228.01 190.449 228.326C190.449 228.642 190.37 228.929 190.213 229.186C190.054 229.443 189.844 229.648 189.579 229.802C189.317 229.955 189.028 230.032 188.713 230.032ZM188.713 229.423C188.915 229.423 189.101 229.375 189.268 229.278C189.435 229.179 189.568 229.047 189.664 228.882C189.763 228.714 189.813 228.529 189.813 228.326C189.813 228.123 189.763 227.938 189.664 227.77C189.568 227.603 189.435 227.471 189.268 227.374C189.103 227.275 188.919 227.225 188.716 227.225C188.514 227.225 188.328 227.275 188.161 227.374C187.995 227.471 187.864 227.603 187.765 227.77C187.666 227.938 187.616 228.123 187.616 228.326C187.616 228.527 187.665 228.711 187.761 228.878C187.86 229.043 187.992 229.175 188.157 229.274C188.325 229.373 188.51 229.423 188.713 229.423Z" fill="#ACACAC"/>
<path d="M212.596 229.925L214.429 225.434H212.115V224.828H215.105V225.434L213.275 229.925H212.596Z" fill="#ACACAC"/>
<path d="M238.184 230.031C237.859 230.031 237.571 229.967 237.321 229.837C237.071 229.705 236.875 229.522 236.734 229.288C236.592 229.055 236.521 228.782 236.521 228.471C236.521 228.167 236.593 227.892 236.738 227.646C236.883 227.401 237.103 227.212 237.395 227.08L237.385 227.31C237.146 227.195 236.964 227.032 236.837 226.822C236.709 226.609 236.646 226.375 236.646 226.117C236.646 225.83 236.711 225.582 236.844 225.374C236.975 225.166 237.157 225.006 237.388 224.893C237.619 224.779 237.885 224.723 238.184 224.723C238.483 224.723 238.749 224.779 238.98 224.893C239.211 225.006 239.393 225.166 239.525 225.374C239.657 225.582 239.723 225.83 239.723 226.117C239.723 226.375 239.663 226.608 239.542 226.818C239.422 227.026 239.237 227.19 238.987 227.31L238.973 227.084C239.265 227.211 239.485 227.398 239.631 227.646C239.78 227.892 239.854 228.167 239.854 228.471C239.854 228.782 239.782 229.055 239.638 229.288C239.497 229.522 239.3 229.705 239.047 229.837C238.797 229.967 238.51 230.031 238.184 230.031ZM238.184 229.43C238.481 229.43 238.722 229.349 238.906 229.186C239.092 229.021 239.185 228.782 239.185 228.471C239.185 228.157 239.093 227.919 238.91 227.756C238.728 227.591 238.486 227.508 238.184 227.508C237.885 227.508 237.643 227.591 237.459 227.756C237.277 227.919 237.187 228.157 237.187 228.471C237.187 228.782 237.278 229.021 237.462 229.186C237.646 229.349 237.887 229.43 238.184 229.43ZM238.184 226.903C238.444 226.903 238.653 226.838 238.814 226.708C238.974 226.576 239.054 226.379 239.054 226.117C239.054 225.855 238.974 225.66 238.814 225.53C238.653 225.398 238.444 225.331 238.184 225.331C237.927 225.331 237.717 225.398 237.554 225.53C237.394 225.66 237.314 225.855 237.314 226.117C237.314 226.379 237.394 226.576 237.554 226.708C237.717 226.838 237.927 226.903 238.184 226.903Z" fill="#ACACAC"/>
<path d="M263.067 224.727C263.393 224.727 263.686 224.804 263.948 224.96C264.21 225.116 264.417 225.328 264.57 225.597C264.726 225.866 264.804 226.172 264.804 226.514V228.209C264.804 228.565 264.727 228.88 264.574 229.154C264.421 229.428 264.208 229.642 263.937 229.798C263.669 229.954 263.359 230.032 263.011 230.032C262.732 230.032 262.471 229.974 262.229 229.858C261.988 229.743 261.784 229.579 261.617 229.366L262.087 228.949C262.191 229.095 262.324 229.213 262.487 229.302C262.65 229.39 262.824 229.434 263.011 229.434C263.237 229.434 263.436 229.379 263.608 229.271C263.783 229.163 263.918 229.021 264.015 228.846C264.114 228.671 264.164 228.483 264.164 228.28V227.257L264.302 227.413C264.155 227.625 263.968 227.795 263.739 227.922C263.51 228.05 263.262 228.113 262.993 228.113C262.676 228.113 262.393 228.039 262.144 227.891C261.894 227.742 261.696 227.542 261.549 227.289C261.403 227.034 261.33 226.749 261.33 226.432C261.33 226.116 261.409 225.83 261.567 225.572C261.725 225.313 261.935 225.108 262.197 224.956C262.461 224.803 262.751 224.727 263.067 224.727ZM263.067 225.335C262.864 225.335 262.679 225.385 262.512 225.484C262.347 225.581 262.214 225.713 262.115 225.88C262.016 226.045 261.967 226.229 261.967 226.432C261.967 226.636 262.015 226.821 262.112 226.988C262.211 227.153 262.343 227.285 262.508 227.384C262.675 227.483 262.86 227.533 263.063 227.533C263.266 227.533 263.451 227.483 263.619 227.384C263.786 227.285 263.918 227.153 264.015 226.988C264.114 226.821 264.164 226.636 264.164 226.432C264.164 226.232 264.114 226.049 264.015 225.884C263.918 225.716 263.786 225.583 263.619 225.484C263.454 225.385 263.27 225.335 263.067 225.335Z" fill="#ACACAC"/>
<path d="M287.642 229.925V225.526L286.684 226.107V225.402L287.642 224.829H288.282V229.925H287.642ZM291.206 230.031C290.876 230.031 290.581 229.957 290.322 229.809C290.065 229.658 289.861 229.454 289.71 229.196C289.561 228.937 289.487 228.642 289.487 228.311V226.443C289.487 226.113 289.561 225.818 289.71 225.558C289.861 225.299 290.065 225.095 290.322 224.946C290.581 224.797 290.876 224.723 291.206 224.723C291.536 224.723 291.831 224.797 292.09 224.946C292.35 225.095 292.554 225.299 292.703 225.558C292.851 225.818 292.925 226.113 292.925 226.443V228.311C292.925 228.642 292.851 228.937 292.703 229.196C292.554 229.454 292.35 229.658 292.09 229.809C291.831 229.957 291.536 230.031 291.206 230.031ZM291.206 229.427C291.407 229.427 291.588 229.378 291.751 229.281C291.914 229.185 292.044 229.055 292.14 228.892C292.237 228.727 292.285 228.545 292.285 228.347V226.404C292.285 226.204 292.237 226.022 292.14 225.859C292.044 225.696 291.914 225.567 291.751 225.47C291.588 225.373 291.407 225.324 291.206 225.324C291.008 225.324 290.827 225.373 290.661 225.47C290.499 225.567 290.369 225.696 290.272 225.859C290.176 226.022 290.127 226.204 290.127 226.404V228.347C290.127 228.545 290.176 228.727 290.272 228.892C290.369 229.055 290.499 229.185 290.661 229.281C290.827 229.378 291.008 229.427 291.206 229.427Z" fill="#ACACAC"/>
<path d="M260.28 64.5898H188.658C183.309 64.5898 178.972 68.9289 178.972 74.2813C178.972 79.6337 183.309 83.9728 188.658 83.9728H260.28C265.63 83.9728 269.967 79.6337 269.967 74.2813C269.967 68.9289 265.63 64.5898 260.28 64.5898Z" fill="#C92626"/>
<path d="M191.239 77.8196V70.763H192.111V77.8196H191.239ZM197.151 77.8196V75.1684C197.151 74.9169 197.128 74.6751 197.083 74.4432C197.04 74.2112 196.963 74.0038 196.852 73.8208C196.745 73.6346 196.598 73.4876 196.412 73.3798C196.229 73.272 195.997 73.2181 195.716 73.2181C195.497 73.2181 195.298 73.2556 195.118 73.3308C194.942 73.4027 194.79 73.5137 194.663 73.664C194.536 73.8143 194.436 74.0038 194.364 74.2325C194.296 74.4579 194.261 74.7241 194.261 75.0312L193.688 74.8548C193.688 74.3419 193.78 73.9025 193.963 73.5366C194.149 73.1674 194.408 72.8849 194.741 72.6888C195.078 72.4895 195.473 72.3899 195.927 72.3899C196.269 72.3899 196.562 72.4438 196.803 72.5516C197.045 72.6594 197.246 72.8032 197.406 72.9829C197.566 73.1593 197.691 73.3586 197.783 73.5807C197.874 73.7996 197.938 74.0234 197.974 74.2521C198.013 74.4775 198.033 74.6915 198.033 74.894V77.8196H197.151ZM193.38 77.8196V72.5271H194.163V73.9433H194.261V77.8196H193.38ZM202.877 77.8196V75.1684C202.877 74.9169 202.854 74.6751 202.808 74.4432C202.766 74.2112 202.689 74.0038 202.578 73.8208C202.47 73.6346 202.323 73.4876 202.137 73.3798C201.954 73.272 201.723 73.2181 201.442 73.2181C201.223 73.2181 201.024 73.2556 200.844 73.3308C200.668 73.4027 200.516 73.5137 200.389 73.664C200.261 73.8143 200.162 74.0038 200.09 74.2325C200.021 74.4579 199.987 74.7241 199.987 75.0312L199.414 74.8548C199.414 74.3419 199.505 73.9025 199.688 73.5366C199.874 73.1674 200.134 72.8849 200.467 72.6888C200.803 72.4895 201.198 72.3899 201.652 72.3899C201.995 72.3899 202.287 72.4438 202.529 72.5516C202.771 72.6594 202.972 72.8032 203.132 72.9829C203.292 73.1593 203.417 73.3586 203.509 73.5807C203.6 73.7996 203.664 74.0234 203.7 74.2521C203.739 74.4775 203.758 74.6915 203.758 74.894V77.8196H202.877ZM199.105 77.8196V72.5271H199.889V73.9433H199.987V77.8196H199.105ZM204.934 71.5911V70.6895H205.806V71.5911H204.934ZM204.934 77.8196V72.5271H205.806V77.8196H204.934ZM211.274 77.9666C210.778 77.9666 210.36 77.8441 210.02 77.5991C209.681 77.3508 209.423 77.0159 209.246 76.5945C209.073 76.1698 208.987 75.6944 208.987 75.1684C208.987 74.6359 209.073 74.159 209.246 73.7375C209.423 73.3161 209.681 72.9845 210.02 72.7427C210.363 72.501 210.783 72.3801 211.279 72.3801C211.769 72.3801 212.19 72.5026 212.543 72.7476C212.899 72.9894 213.171 73.321 213.361 73.7424C213.55 74.1639 213.645 74.6392 213.645 75.1684C213.645 75.6977 213.55 76.173 213.361 76.5945C213.171 77.0159 212.899 77.3508 212.543 77.5991C212.19 77.8441 211.767 77.9666 211.274 77.9666ZM208.84 80.1718V72.5271H209.619V76.423H209.717V80.1718H208.84ZM211.166 77.1678C211.516 77.1678 211.805 77.0796 212.033 76.9032C212.262 76.7268 212.433 76.4883 212.548 76.1877C212.662 75.8839 212.719 75.5441 212.719 75.1684C212.719 74.796 212.662 74.4595 212.548 74.159C212.437 73.8584 212.263 73.6199 212.028 73.4435C211.797 73.2671 211.501 73.1789 211.142 73.1789C210.799 73.1789 210.515 73.2638 210.29 73.4337C210.064 73.6003 209.896 73.8339 209.785 74.1345C209.674 74.4318 209.619 74.7764 209.619 75.1684C209.619 75.5539 209.672 75.8986 209.78 76.2024C209.891 76.503 210.061 76.7399 210.29 76.913C210.518 77.0829 210.81 77.1678 211.166 77.1678ZM214.523 77.8196V72.5271H215.301V73.8061L215.174 73.6395C215.236 73.4762 215.316 73.3259 215.414 73.1887C215.515 73.0515 215.628 72.9388 215.752 72.8505C215.889 72.7395 216.044 72.6545 216.217 72.5957C216.39 72.5369 216.567 72.5026 216.746 72.4928C216.926 72.4797 217.094 72.4912 217.251 72.5271V73.3455C217.068 73.2965 216.867 73.2834 216.648 73.3063C216.429 73.3291 216.227 73.4092 216.041 73.5464C215.871 73.6673 215.739 73.8143 215.644 73.9874C215.553 74.1606 215.489 74.3484 215.453 74.551C215.417 74.7503 215.399 74.9545 215.399 75.1635V77.8196H214.523ZM220.138 77.9666C219.613 77.9666 219.159 77.8473 218.777 77.6089C218.398 77.3704 218.106 77.0404 217.9 76.619C217.694 76.1975 217.591 75.714 217.591 75.1684C217.591 74.6131 217.696 74.1263 217.905 73.7081C218.114 73.2899 218.409 72.9649 218.791 72.7329C219.173 72.4977 219.622 72.3801 220.138 72.3801C220.667 72.3801 221.123 72.4993 221.505 72.7378C221.887 72.9731 222.179 73.3014 222.382 73.7228C222.587 74.141 222.69 74.6229 222.69 75.1684C222.69 75.7206 222.587 76.2073 222.382 76.6288C222.176 77.0469 221.882 77.3753 221.5 77.6138C221.118 77.849 220.664 77.9666 220.138 77.9666ZM220.138 77.1384C220.687 77.1384 221.095 76.9555 221.363 76.5896C221.631 76.2237 221.764 75.75 221.764 75.1684C221.764 74.5706 221.629 74.0953 221.358 73.7424C221.087 73.3863 220.68 73.2083 220.138 73.2083C219.769 73.2083 219.466 73.2916 219.227 73.4582C218.989 73.6248 218.811 73.8551 218.693 74.1492C218.576 74.4432 218.517 74.7829 218.517 75.1684C218.517 75.763 218.654 76.24 218.929 76.5994C219.203 76.9587 219.606 77.1384 220.138 77.1384ZM225.65 77.9666C225.157 77.9666 224.734 77.8441 224.381 77.5991C224.028 77.3508 223.756 77.0159 223.563 76.5945C223.374 76.173 223.279 75.6977 223.279 75.1684C223.279 74.6392 223.374 74.1639 223.563 73.7424C223.756 73.321 224.028 72.9894 224.381 72.7476C224.734 72.5026 225.155 72.3801 225.645 72.3801C226.144 72.3801 226.564 72.501 226.903 72.7427C227.243 72.9845 227.499 73.3161 227.672 73.7375C227.849 74.159 227.937 74.6359 227.937 75.1684C227.937 75.6944 227.849 76.1698 227.672 76.5945C227.499 77.0159 227.243 77.3508 226.903 77.5991C226.564 77.8441 226.146 77.9666 225.65 77.9666ZM225.757 77.1678C226.113 77.1678 226.406 77.0829 226.634 76.913C226.863 76.7399 227.031 76.503 227.139 76.2024C227.25 75.8986 227.305 75.5539 227.305 75.1684C227.305 74.7764 227.25 74.4318 227.139 74.1345C227.031 73.8339 226.864 73.6003 226.639 73.4337C226.414 73.2638 226.128 73.1789 225.782 73.1789C225.423 73.1789 225.126 73.2671 224.89 73.4435C224.659 73.6199 224.486 73.8584 224.371 74.159C224.26 74.4595 224.205 74.796 224.205 75.1684C224.205 75.5441 224.262 75.8839 224.376 76.1877C224.49 76.4883 224.662 76.7268 224.89 76.9032C225.122 77.0796 225.411 77.1678 225.757 77.1678ZM227.305 77.8196V73.9237H227.207V70.763H228.084V77.8196H227.305ZM231.268 77.9568C230.929 77.9568 230.636 77.9029 230.391 77.7951C230.15 77.6873 229.949 77.5435 229.789 77.3638C229.629 77.1842 229.503 76.9849 229.412 76.766C229.32 76.5471 229.255 76.3233 229.216 76.0946C229.18 75.8659 229.162 75.652 229.162 75.4527V72.5271H230.044V75.1782C230.044 75.4265 230.066 75.6667 230.112 75.8986C230.158 76.1306 230.235 76.3397 230.342 76.5259C230.453 76.7121 230.6 76.8591 230.783 76.9669C230.969 77.0747 231.201 77.1286 231.479 77.1286C231.697 77.1286 231.897 77.091 232.076 77.0159C232.256 76.9408 232.409 76.8297 232.537 76.6827C232.664 76.5324 232.762 76.3429 232.831 76.1142C232.899 75.8855 232.933 75.6193 232.933 75.3155L233.506 75.4919C233.506 76.0015 233.413 76.4409 233.227 76.8101C233.044 77.1793 232.785 77.4635 232.449 77.6628C232.115 77.8588 231.722 77.9568 231.268 77.9568ZM233.031 77.8196V76.4034H232.933V72.5271H233.81V77.8196H233.031ZM237.214 77.9666C236.679 77.9666 236.223 77.8473 235.848 77.6089C235.475 77.3671 235.191 77.0355 234.995 76.6141C234.8 76.1926 234.698 75.7124 234.692 75.1733C234.698 74.6212 234.801 74.1361 235 73.7179C235.203 73.2965 235.492 72.9682 235.867 72.7329C236.243 72.4977 236.695 72.3801 237.224 72.3801C237.782 72.3801 238.262 72.5173 238.664 72.7917C239.069 73.0662 239.34 73.4419 239.477 73.9188L238.615 74.1786C238.504 73.8715 238.323 73.633 238.071 73.4631C237.823 73.2932 237.537 73.2083 237.214 73.2083C236.852 73.2083 236.553 73.2932 236.318 73.4631C236.083 73.6297 235.908 73.8617 235.794 74.159C235.68 74.453 235.621 74.7911 235.617 75.1733C235.624 75.7614 235.76 76.2367 236.024 76.5994C236.292 76.9587 236.689 77.1384 237.214 77.1384C237.56 77.1384 237.848 77.06 238.076 76.9032C238.305 76.7431 238.478 76.5128 238.595 76.2122L239.477 76.4426C239.294 76.9359 239.009 77.3132 238.62 77.5746C238.231 77.8359 237.763 77.9666 237.214 77.9666ZM242.429 77.9666C241.91 77.9666 241.456 77.8522 241.068 77.6236C240.683 77.3916 240.382 77.0698 240.167 76.6582C239.951 76.2433 239.843 75.7598 239.843 75.2076C239.843 74.6294 239.949 74.1296 240.162 73.7081C240.374 73.2834 240.669 72.9567 241.048 72.728C241.43 72.4961 241.878 72.3801 242.39 72.3801C242.923 72.3801 243.375 72.5026 243.747 72.7476C244.123 72.9927 244.403 73.3422 244.589 73.7963C244.779 74.2504 244.86 74.7911 244.834 75.4184H243.953V75.1047C243.943 74.4546 243.811 73.9695 243.556 73.6493C243.301 73.3259 242.923 73.1642 242.42 73.1642C241.881 73.1642 241.471 73.3373 241.19 73.6836C240.909 74.0299 240.769 74.5265 240.769 75.1733C240.769 75.7973 240.909 76.2808 241.19 76.6239C241.471 76.9669 241.871 77.1384 242.39 77.1384C242.74 77.1384 243.043 77.0584 243.301 76.8983C243.559 76.7382 243.762 76.5079 243.909 76.2073L244.746 76.4965C244.54 76.9636 244.23 77.3263 243.816 77.5844C243.404 77.8392 242.942 77.9666 242.429 77.9666ZM240.475 75.4184V74.7176H244.384V75.4184H240.475ZM249.352 77.8196V75.1684C249.352 74.9169 249.329 74.6751 249.283 74.4432C249.241 74.2112 249.164 74.0038 249.053 73.8208C248.945 73.6346 248.798 73.4876 248.612 73.3798C248.429 73.272 248.198 73.2181 247.917 73.2181C247.698 73.2181 247.499 73.2556 247.319 73.3308C247.143 73.4027 246.991 73.5137 246.864 73.664C246.736 73.8143 246.637 74.0038 246.565 74.2325C246.496 74.4579 246.462 74.7241 246.462 75.0312L245.889 74.8548C245.889 74.3419 245.98 73.9025 246.163 73.5366C246.349 73.1674 246.609 72.8849 246.942 72.6888C247.278 72.4895 247.674 72.3899 248.127 72.3899C248.47 72.3899 248.763 72.4438 249.004 72.5516C249.246 72.6594 249.447 72.8032 249.607 72.9829C249.767 73.1593 249.892 73.3586 249.984 73.5807C250.075 73.7996 250.139 74.0234 250.175 74.2521C250.214 74.4775 250.234 74.6915 250.234 74.894V77.8196H249.352ZM245.58 77.8196V72.5271H246.364V73.9433H246.462V77.8196H245.58ZM253.492 77.9666C252.956 77.9666 252.501 77.8473 252.125 77.6089C251.753 77.3671 251.469 77.0355 251.273 76.6141C251.077 76.1926 250.976 75.7124 250.969 75.1733C250.976 74.6212 251.079 74.1361 251.278 73.7179C251.48 73.2965 251.769 72.9682 252.145 72.7329C252.52 72.4977 252.973 72.3801 253.502 72.3801C254.06 72.3801 254.54 72.5173 254.942 72.7917C255.346 73.0662 255.618 73.4419 255.755 73.9188L254.893 74.1786C254.782 73.8715 254.6 73.633 254.349 73.4631C254.101 73.2932 253.815 73.2083 253.492 73.2083C253.129 73.2083 252.831 73.2932 252.595 73.4631C252.36 73.6297 252.186 73.8617 252.071 74.159C251.957 74.453 251.898 74.7911 251.895 75.1733C251.902 75.7614 252.037 76.2367 252.302 76.5994C252.569 76.9587 252.966 77.1384 253.492 77.1384C253.838 77.1384 254.125 77.06 254.354 76.9032C254.582 76.7431 254.755 76.5128 254.873 76.2122L255.755 76.4426C255.572 76.9359 255.286 77.3132 254.898 77.5746C254.509 77.8359 254.04 77.9666 253.492 77.9666ZM256.513 71.5911V70.6895H257.385V71.5911H256.513ZM256.513 77.8196V72.5271H257.385V77.8196H256.513Z" fill="white"/>
<path d="M282.589 145.752H244.43C239.08 145.752 234.743 150.091 234.743 155.443C234.743 160.796 239.08 165.135 244.43 165.135H282.589C287.939 165.135 292.276 160.796 292.276 155.443C292.276 150.091 287.939 145.752 282.589 145.752Z" fill="#4064DF"/>
<path d="M245.691 158.983V151.926H248.478C248.547 151.926 248.629 151.93 248.723 151.936C248.818 151.939 248.909 151.949 248.998 151.966C249.38 152.024 249.7 152.155 249.958 152.358C250.219 152.56 250.415 152.817 250.545 153.127C250.676 153.434 250.741 153.775 250.741 154.151C250.741 154.524 250.674 154.865 250.54 155.175C250.41 155.482 250.214 155.739 249.953 155.945C249.695 156.147 249.376 156.278 248.998 156.337C248.909 156.35 248.818 156.36 248.723 156.366C248.629 156.373 248.547 156.376 248.478 156.376H246.563V158.983H245.691ZM246.563 155.548H248.449C248.511 155.548 248.581 155.544 248.66 155.538C248.741 155.531 248.818 155.52 248.89 155.504C249.115 155.451 249.298 155.357 249.438 155.219C249.582 155.079 249.687 154.916 249.752 154.729C249.817 154.54 249.85 154.347 249.85 154.151C249.85 153.955 249.817 153.764 249.752 153.578C249.687 153.388 249.582 153.223 249.438 153.083C249.298 152.942 249.115 152.848 248.89 152.799C248.818 152.779 248.741 152.768 248.66 152.764C248.581 152.758 248.511 152.754 248.449 152.754H246.563V155.548ZM253.767 159.13C253.248 159.13 252.794 159.016 252.405 158.787C252.02 158.555 251.72 158.233 251.504 157.822C251.289 157.407 251.181 156.923 251.181 156.371C251.181 155.793 251.287 155.293 251.499 154.871C251.712 154.447 252.007 154.12 252.386 153.891C252.768 153.659 253.215 153.543 253.728 153.543C254.26 153.543 254.712 153.666 255.085 153.911C255.46 154.156 255.741 154.506 255.927 154.96C256.116 155.414 256.198 155.954 256.172 156.582H255.29V156.268C255.281 155.618 255.148 155.133 254.894 154.813C254.639 154.489 254.26 154.328 253.757 154.328C253.218 154.328 252.809 154.501 252.528 154.847C252.247 155.193 252.107 155.69 252.107 156.337C252.107 156.961 252.247 157.444 252.528 157.787C252.809 158.13 253.209 158.302 253.728 158.302C254.077 158.302 254.381 158.222 254.639 158.062C254.897 157.902 255.099 157.671 255.246 157.371L256.084 157.66C255.878 158.127 255.568 158.49 255.153 158.748C254.742 159.003 254.28 159.13 253.767 159.13ZM251.813 156.582V155.881H255.721V156.582H251.813ZM259.143 159.13C258.65 159.13 258.227 159.007 257.874 158.762C257.522 158.514 257.249 158.179 257.056 157.758C256.867 157.336 256.772 156.861 256.772 156.332C256.772 155.803 256.867 155.327 257.056 154.906C257.249 154.484 257.522 154.153 257.874 153.911C258.227 153.666 258.648 153.543 259.138 153.543C259.638 153.543 260.057 153.664 260.397 153.906C260.736 154.148 260.993 154.479 261.166 154.901C261.342 155.322 261.43 155.799 261.43 156.332C261.43 156.858 261.342 157.333 261.166 157.758C260.993 158.179 260.736 158.514 260.397 158.762C260.057 159.007 259.639 159.13 259.143 159.13ZM259.251 158.331C259.606 158.331 259.899 158.246 260.127 158.076C260.356 157.903 260.524 157.666 260.632 157.366C260.743 157.062 260.798 156.717 260.798 156.332C260.798 155.94 260.743 155.595 260.632 155.298C260.524 154.997 260.358 154.764 260.132 154.597C259.907 154.427 259.621 154.342 259.275 154.342C258.916 154.342 258.619 154.43 258.384 154.607C258.152 154.783 257.979 155.022 257.864 155.322C257.753 155.623 257.698 155.959 257.698 156.332C257.698 156.707 257.755 157.047 257.869 157.351C257.984 157.652 258.155 157.89 258.384 158.067C258.615 158.243 258.904 158.331 259.251 158.331ZM260.798 158.983V155.087H260.7V151.926H261.577V158.983H260.798ZM262.754 158.983V153.69H263.532V154.969L263.405 154.803C263.467 154.64 263.547 154.489 263.645 154.352C263.746 154.215 263.859 154.102 263.983 154.014C264.12 153.903 264.275 153.818 264.448 153.759C264.621 153.7 264.798 153.666 264.977 153.656C265.157 153.643 265.325 153.655 265.482 153.69V154.509C265.299 154.46 265.098 154.447 264.879 154.47C264.661 154.493 264.458 154.573 264.272 154.71C264.102 154.831 263.97 154.978 263.875 155.151C263.784 155.324 263.72 155.512 263.684 155.714C263.648 155.914 263.63 156.118 263.63 156.327V158.983H262.754ZM268.369 159.13C267.844 159.13 267.39 159.011 267.008 158.772C266.629 158.534 266.337 158.204 266.131 157.782C265.925 157.361 265.823 156.877 265.823 156.332C265.823 155.776 265.927 155.29 266.136 154.871C266.345 154.453 266.641 154.128 267.023 153.896C267.405 153.661 267.854 153.543 268.369 153.543C268.898 153.543 269.354 153.663 269.736 153.901C270.118 154.136 270.41 154.465 270.613 154.886C270.818 155.304 270.921 155.786 270.921 156.332C270.921 156.884 270.818 157.371 270.613 157.792C270.407 158.21 270.113 158.539 269.731 158.777C269.349 159.012 268.895 159.13 268.369 159.13ZM268.369 158.302C268.918 158.302 269.326 158.119 269.594 157.753C269.862 157.387 269.996 156.913 269.996 156.332C269.996 155.734 269.86 155.259 269.589 154.906C269.318 154.55 268.912 154.372 268.369 154.372C268.001 154.372 267.697 154.455 267.458 154.622C267.22 154.788 267.042 155.018 266.925 155.313C266.807 155.607 266.748 155.946 266.748 156.332C266.748 156.926 266.885 157.403 267.16 157.763C267.434 158.122 267.837 158.302 268.369 158.302ZM271.901 158.983V151.779H272.773V158.983H271.901ZM274.145 158.983V151.779H275.017V158.983H274.145ZM278.544 159.13C278.018 159.13 277.564 159.011 277.182 158.772C276.803 158.534 276.511 158.204 276.305 157.782C276.1 157.361 275.997 156.877 275.997 156.332C275.997 155.776 276.101 155.29 276.31 154.871C276.519 154.453 276.815 154.128 277.197 153.896C277.579 153.661 278.028 153.543 278.544 153.543C279.073 153.543 279.528 153.663 279.91 153.901C280.292 154.136 280.584 154.465 280.787 154.886C280.993 155.304 281.095 155.786 281.095 156.332C281.095 156.884 280.993 157.371 280.787 157.792C280.581 158.21 280.287 158.539 279.905 158.777C279.523 159.012 279.069 159.13 278.544 159.13ZM278.544 158.302C279.092 158.302 279.5 158.119 279.768 157.753C280.036 157.387 280.17 156.913 280.17 156.332C280.17 155.734 280.034 155.259 279.763 154.906C279.492 154.55 279.086 154.372 278.544 154.372C278.175 154.372 277.871 154.455 277.633 154.622C277.394 154.788 277.216 155.018 277.099 155.313C276.981 155.607 276.922 155.946 276.922 156.332C276.922 156.926 277.06 157.403 277.334 157.763C277.608 158.122 278.011 158.302 278.544 158.302Z" fill="white"/>
</g>
</g>
<defs>
<filter id="filter0_f_1419_6315" x="-170.803" y="-426.789" width="874.395" height="866.301" filterUnits="userSpaceOnUse" color-interpolation-filters="sRGB">
<feFlood flood-opacity="0" result="BackgroundImageFix"/>
<feBlend mode="normal" in="SourceGraphic" in2="BackgroundImageFix" result="shape"/>
<feGaussianBlur stdDeviation="182" result="effect1_foregroundBlur_1419_6315"/>
</filter>
<filter id="filter1_f_1419_6315" x="-220.871" y="-218.793" width="843.374" height="837.443" filterUnits="userSpaceOnUse" color-interpolation-filters="sRGB">
<feFlood flood-opacity="0" result="BackgroundImageFix"/>
<feBlend mode="normal" in="SourceGraphic" in2="BackgroundImageFix" result="shape"/>
<feGaussianBlur stdDeviation="182" result="effect1_foregroundBlur_1419_6315"/>
</filter>
<filter id="filter2_f_1419_6315" x="-438.014" y="-274.332" width="880.381" height="880.457" filterUnits="userSpaceOnUse" color-interpolation-filters="sRGB">
<feFlood flood-opacity="0" result="BackgroundImageFix"/>
<feBlend mode="normal" in="SourceGraphic" in2="BackgroundImageFix" result="shape"/>
<feGaussianBlur stdDeviation="182" result="effect1_foregroundBlur_1419_6315"/>
</filter>
<linearGradient id="paint0_linear_1419_6315" x1="32.526" y1="191.651" x2="295.229" y2="84.692" gradientUnits="userSpaceOnUse">
<stop stop-color="#631313"/>
<stop offset="0.485577" stop-color="#C92626"/>
<stop offset="1" stop-color="#EA3030"/>
</linearGradient>
<linearGradient id="paint1_linear_1419_6315" x1="291.742" y1="177.479" x2="36.827" y2="136.559" gradientUnits="userSpaceOnUse">
<stop stop-color="#233679"/>
<stop offset="0.485577" stop-color="#4064DF"/>
<stop offset="0.947115" stop-color="#6688FF"/>
</linearGradient>
<clipPath id="clip0_1419_6315">
<rect width="320" height="257" fill="white"/>
</clipPath>
</defs>
</svg>
