<svg width="35" height="22" viewBox="0 0 35 22" fill="none" xmlns="http://www.w3.org/2000/svg">
<path d="M0.703604 7.02831L7.25253 11.2731C7.50769 11.4355 7.8015 11.5205 8.09531 11.5205C8.35047 11.5205 8.60562 11.4587 8.83758 11.335C9.33242 11.0644 9.64169 10.5463 9.64169 9.97417V9.14685H21.804C23.8143 9.2551 25.6468 10.2216 26.8375 11.7989C28.0204 13.3685 28.438 15.3788 27.9818 17.3349C27.7266 18.4483 27.1235 19.5231 26.2421 20.4432C26.1416 20.5514 26.0643 20.6751 26.0024 20.7988C25.987 20.8375 25.9638 20.8684 25.9483 20.9071C25.9174 20.9921 25.8942 21.0772 25.8942 21.1622C25.8942 21.286 25.9328 21.4019 25.987 21.5102C26.1184 21.7576 26.3658 21.9354 26.6674 21.9354C26.9689 21.9354 27.2163 21.7576 27.3478 21.5102H27.3632C28.3761 20.4509 29.157 19.1287 29.4895 17.6829C30.6725 12.603 26.9998 7.85562 21.8427 7.60047H8.09531V9.97417L1.54638 5.72935L8.09531 1.54638V3.92008H22.4689C30.0076 4.56956 35.0874 11.8453 32.9302 19.1906C32.7833 19.7086 32.4972 20.3813 32.2807 20.8684V20.8762C32.2421 20.9612 32.2189 21.0617 32.2189 21.1622C32.2189 21.286 32.2575 21.4019 32.3117 21.5102C32.4431 21.7576 32.6905 21.9354 32.9921 21.9354C33.2936 21.9354 33.541 21.7576 33.6725 21.5102C33.6725 21.5102 33.6725 21.4947 33.6802 21.4947C33.6879 21.4792 33.6957 21.4561 33.7034 21.4406C33.9663 20.8684 34.2214 20.2808 34.407 19.6236C35.5591 15.7035 34.9096 11.5437 32.6287 8.20356C30.34 4.84791 26.6828 2.72936 22.5926 2.3737C22.5463 2.3737 22.5076 2.3737 22.4612 2.3737H9.64169V1.54638C9.64169 0.981953 9.33242 0.463915 8.83758 0.193298C8.60562 0.0695872 8.35047 0 8.09531 0C7.80923 0 7.51542 0.085051 7.26027 0.239689L0.711336 4.42265C0.270617 4.70873 0 5.19584 0 5.72161C0 6.24738 0.262885 6.74223 0.703604 7.02831Z" fill="#747DA1"/>
</svg>
