<svg width="100" height="85" viewBox="0 0 100 85" fill="none" xmlns="http://www.w3.org/2000/svg">
<path d="M30.5996 2.19141V84.4004H15.7266V18.415L1.26074 27.2549L0.5 27.7207V11.5449L0.743164 11.3994L15.9697 2.2627L16.0879 2.19141H30.5996ZM71.1523 0.5C76.4184 0.500024 81.1665 1.68351 85.3838 4.06055H85.3828C89.5962 6.39756 92.9128 9.65709 95.3262 13.832L95.5498 14.2217C97.8193 18.2762 98.9473 22.9159 98.9473 28.126C98.9472 32.04 98.4152 35.3593 97.332 38.0674C96.2546 40.7611 94.64 43.2375 92.4961 45.4971C90.4141 47.7305 87.8261 50.2041 84.7354 52.918L84.7363 52.9189L64.8994 70.4854H98.9473V84.2871H42.0605V71.7197L42.2275 71.5713L76.9668 40.6104L77.46 40.165C79.8736 37.9495 81.5403 35.8733 82.4902 33.9395C83.5157 31.8519 84.0175 29.8593 84.0176 27.957C84.0176 25.3241 83.4515 23.0028 82.332 20.9805L82.3301 20.9766C81.2067 18.9112 79.6523 17.2859 77.6621 16.0918L77.6592 16.0889C75.7168 14.9018 73.459 14.3018 70.8701 14.3018C68.1315 14.3018 65.7224 14.9393 63.6279 16.2031L63.626 16.2051C61.5569 17.4393 59.9457 19.0868 58.7861 21.1523C57.6282 23.2151 57.0857 25.4378 57.1582 27.8291L57.1738 28.3438H42.1729V27.8438C42.1729 22.3537 43.3942 17.5434 45.8535 13.4316L45.8545 13.4287C48.3465 9.32658 51.7613 6.14333 56.0889 3.88379L56.0908 3.88281C60.4584 1.62249 65.4835 0.5 71.1523 0.5Z" fill="url(#paint0_linear_1419_6395)" stroke="url(#paint1_linear_1419_6395)"/>
<defs>
<linearGradient id="paint0_linear_1419_6395" x1="6.61826" y1="-7.94496" x2="159.879" y2="77.9669" gradientUnits="userSpaceOnUse">
<stop stop-color="#4064DF" stop-opacity="0.8"/>
<stop offset="0.513774" stop-color="#4064DF" stop-opacity="0.2"/>
<stop offset="0.822298" stop-color="#4064DF" stop-opacity="0.2"/>
<stop offset="1" stop-color="#4064DF" stop-opacity="0.2"/>
</linearGradient>
<linearGradient id="paint1_linear_1419_6395" x1="1.78939" y1="0.403199" x2="103.845" y2="59.6454" gradientUnits="userSpaceOnUse">
<stop stop-color="#6A8BFD" stop-opacity="0.9"/>
<stop offset="0.513774" stop-color="#4064DF" stop-opacity="0.5"/>
<stop offset="0.822298" stop-color="#4064DF" stop-opacity="0.5"/>
<stop offset="1" stop-color="#4064DF" stop-opacity="0.5"/>
</linearGradient>
</defs>
</svg>
