<svg width="50" height="50" viewBox="0 0 50 50" fill="none" xmlns="http://www.w3.org/2000/svg">
<g clip-path="url(#clip0_2659_13991)">
<path d="M33.334 13.541C27.0163 13.541 21.8757 18.6816 21.8757 24.9993C21.8757 31.317 27.0163 36.4576 33.334 36.4576C36.1319 36.4576 38.8246 35.4378 40.9194 33.5868C41.3507 33.2066 41.3913 32.5482 41.0101 32.117C40.6299 31.6868 39.9715 31.6472 39.5402 32.0264C37.8268 33.5399 35.6226 34.3743 33.334 34.3743C28.1642 34.3743 23.959 30.1691 23.959 24.9993C23.959 19.8295 28.1642 15.6243 33.334 15.6243C38.5038 15.6243 42.709 19.8295 42.709 24.9993V40.6243C42.709 41.1993 42.2423 41.666 41.6673 41.666H8.33398C7.75898 41.666 7.29229 41.1993 7.29229 40.6243V17.7076C7.29229 17.1326 7.75898 16.6659 8.33398 16.6659H21.8757C22.4518 16.6659 22.9174 16.2003 22.9174 15.6242C22.9174 15.0481 22.4518 14.5825 21.8757 14.5825H8.33398C6.61104 14.5825 5.20898 15.9846 5.20898 17.7075V40.6243C5.20898 42.3473 6.61104 43.7493 8.33398 43.7493H41.6673C43.3902 43.7493 44.7923 42.3473 44.7923 40.6243V24.9993C44.7924 18.6816 39.6518 13.541 33.334 13.541Z" fill="#4064DF"/>
<path d="M48.9583 8.3333H6.25C5.67393 8.3333 5.2083 8.79893 5.2083 9.375C5.2083 9.95107 5.67393 10.4167 6.25 10.4167H47.9167V44.7917C47.9167 46.5146 46.5146 47.9167 44.7917 47.9167H5.2083C3.48535 47.9167 2.0833 46.5146 2.0833 44.7917V5.2083C2.0833 3.48535 3.48535 2.0833 5.2083 2.0833H44.7854C45.3083 2.08955 47.9166 2.26768 47.9166 5.2083C47.9166 5.78438 48.3822 6.25 48.9583 6.25C49.5344 6.25 50 5.78438 50 5.2083C50 1.08857 46.5927 0 44.7917 0H5.2083C2.33643 0 0 2.33643 0 5.2083V44.7916C0 47.6636 2.33643 50 5.2083 50H44.7916C47.6636 50 50 47.6636 50 44.7917V9.375C50 8.79893 49.5344 8.3333 48.9583 8.3333Z" fill="#747CA0"/>
<path d="M8.33398 4.16602H6.25068C5.67461 4.16602 5.20898 4.63164 5.20898 5.20771C5.20898 5.78369 5.67461 6.24932 6.25068 6.24932H8.33398C8.91006 6.24932 9.37568 5.78369 9.37568 5.20762C9.37568 4.63164 8.91006 4.16602 8.33398 4.16602Z" fill="#747CA0"/>
<path d="M14.584 4.16602H12.5007C11.9246 4.16602 11.459 4.63164 11.459 5.20771C11.459 5.78369 11.9246 6.24932 12.5007 6.24932H14.584C15.1601 6.24932 15.6257 5.78369 15.6257 5.20762C15.6257 4.63164 15.1601 4.16602 14.584 4.16602Z" fill="#747CA0"/>
<path d="M44.791 4.16602H42.7077C42.1316 4.16602 41.666 4.63164 41.666 5.20771C41.666 5.78379 42.1316 6.24941 42.7077 6.24941H44.791C45.3671 6.24941 45.8327 5.78379 45.8327 5.20771C45.8326 4.63164 45.367 4.16602 44.791 4.16602Z" fill="#747CA0"/>
<path d="M37.1946 26.3469C36.7872 25.9395 36.1289 25.9395 35.7216 26.3469L34.3747 27.6938V19.7917C34.3747 19.2156 33.9091 18.75 33.333 18.75C32.757 18.75 32.2913 19.2156 32.2913 19.7917V27.6938L30.9445 26.3469C30.5371 25.9395 29.8788 25.9395 29.4715 26.3469C29.0642 26.7542 29.0642 27.4125 29.4715 27.8198L32.5954 30.9438C32.6912 31.0406 32.8069 31.1167 32.935 31.1698C33.062 31.2229 33.1975 31.25 33.3329 31.25C33.4684 31.25 33.6037 31.2229 33.7309 31.1698C33.859 31.1167 33.9746 31.0406 34.0704 30.9438L37.1944 27.8198C37.6018 27.4125 37.6018 26.7542 37.1946 26.3469Z" fill="#4064DF"/>
</g>
<defs>
<clipPath id="clip0_2659_13991">
<rect width="50" height="50" fill="white"/>
</clipPath>
</defs>
</svg>
