<svg width="60" height="60" viewBox="0 0 60 60" fill="none" xmlns="http://www.w3.org/2000/svg">
<g clip-path="url(#clip0_1843_9272)">
<path d="M30.4648 57.6691H2.53125C1.86017 57.6685 1.21677 57.4016 0.742222 56.9271C0.267676 56.4526 0.000744538 55.8092 0 55.1381L0 20.584C0.000682506 19.9129 0.267586 19.2694 0.74214 18.7949C1.21669 18.3203 1.86013 18.0534 2.53125 18.0527H7.77187C8.08268 18.0527 8.38075 18.1762 8.60052 18.396C8.82028 18.6157 8.94375 18.9138 8.94375 19.2246C8.94375 19.5354 8.82028 19.8335 8.60052 20.0532C8.38075 20.273 8.08268 20.3965 7.77187 20.3965H2.53125C2.48152 20.3965 2.43383 20.4162 2.39867 20.4514C2.3635 20.4866 2.34375 20.5343 2.34375 20.584V55.1381C2.34375 55.1879 2.3635 55.2355 2.39867 55.2707C2.43383 55.3059 2.48152 55.3256 2.53125 55.3256H30.4648C30.5145 55.3256 30.5622 55.3059 30.5973 55.2707C30.6325 55.2355 30.6523 55.1879 30.6523 55.1381V20.584C30.6523 20.5343 30.6325 20.4866 30.5973 20.4514C30.5622 20.4162 30.5145 20.3965 30.4648 20.3965H25.2241C24.9133 20.3965 24.6153 20.273 24.3955 20.0532C24.1757 19.8335 24.0523 19.5354 24.0523 19.2246C24.0523 18.9138 24.1757 18.6157 24.3955 18.396C24.6153 18.1762 24.9133 18.0527 25.2241 18.0527H30.4648C31.1359 18.0534 31.7794 18.3202 32.2539 18.7948C32.7285 19.2694 32.9954 19.9128 32.996 20.584V55.1381C32.9953 55.8092 32.7284 56.4526 32.2539 56.9271C31.7793 57.4017 31.1359 57.6685 30.4648 57.6691Z" fill="#747CA0"/>
<path d="M20.2594 22.5464H12.736C11.8597 22.539 11.0218 22.1857 10.4047 21.5634C9.78763 20.9412 9.44141 20.1003 9.44141 19.224C9.44141 18.3476 9.78763 17.5068 10.4047 16.8845C11.0218 16.2622 11.8597 15.9089 12.736 15.9016H13.2317C13.4732 15.2282 13.9167 14.6459 14.5017 14.2342C15.0867 13.8225 15.7846 13.6016 16.4999 13.6016C17.2153 13.6016 17.9132 13.8225 18.4982 14.2342C19.0832 14.6459 19.5267 15.2282 19.7682 15.9016H20.2604C21.1367 15.9089 21.9746 16.2622 22.5917 16.8845C23.2087 17.5068 23.555 18.3476 23.555 19.224C23.555 20.1003 23.2087 20.9412 22.5917 21.5634C21.9746 22.1857 21.1367 22.539 20.2604 22.5464H20.2594ZM12.736 18.2453C12.4791 18.2493 12.234 18.3542 12.0537 18.5373C11.8734 18.7204 11.7724 18.967 11.7724 19.224C11.7724 19.4809 11.8734 19.7276 12.0537 19.9107C12.234 20.0938 12.4791 20.1986 12.736 20.2026H20.2594C20.5164 20.1986 20.7614 20.0938 20.9417 19.9107C21.122 19.7276 21.223 19.4809 21.223 19.224C21.223 18.967 21.122 18.7204 20.9417 18.5373C20.7614 18.3542 20.5164 18.2493 20.2594 18.2453H18.7993C18.4885 18.2453 18.1904 18.1219 17.9706 17.9021C17.7509 17.6823 17.6274 17.3843 17.6274 17.0735C17.6274 16.7743 17.5086 16.4874 17.297 16.2758C17.0855 16.0643 16.7985 15.9454 16.4994 15.9454C16.2002 15.9454 15.9133 16.0643 15.7017 16.2758C15.4902 16.4874 15.3713 16.7743 15.3713 17.0735C15.3713 17.3843 15.2478 17.6823 15.0281 17.9021C14.8083 18.1219 14.5102 18.2453 14.1994 18.2453H12.736Z" fill="#747CA0"/>
<path d="M8.89743 32.8092C8.74351 32.8092 8.5911 32.7789 8.4489 32.7199C8.3067 32.661 8.1775 32.5747 8.06868 32.4658L6.29563 30.6928C6.08048 30.4721 5.96094 30.1755 5.96291 29.8673C5.96489 29.559 6.08822 29.264 6.30618 29.0461C6.52415 28.8281 6.8192 28.7048 7.12742 28.7029C7.43565 28.701 7.73222 28.8206 7.9529 29.0357L8.89743 29.98L12.028 26.8495C12.248 26.6313 12.5456 26.5091 12.8555 26.5098C13.1654 26.5104 13.4625 26.6338 13.6816 26.8529C13.9008 27.072 14.0242 27.369 14.025 27.6789C14.0257 27.9888 13.9036 28.2864 13.6855 28.5065L9.72712 32.4658C9.61818 32.5748 9.48883 32.6612 9.34646 32.7201C9.2041 32.779 9.05151 32.8093 8.89743 32.8092Z" fill="#4064DF"/>
<path d="M26.2129 30.8301H16.8379C16.5271 30.8301 16.229 30.7066 16.0092 30.4868C15.7895 30.2671 15.666 29.969 15.666 29.6582C15.666 29.3474 15.7895 29.0493 16.0092 28.8296C16.229 28.6098 16.5271 28.4863 16.8379 28.4863H26.2129C26.5237 28.4863 26.8218 28.6098 27.0415 28.8296C27.2613 29.0493 27.3848 29.3474 27.3848 29.6582C27.3848 29.969 27.2613 30.2671 27.0415 30.4868C26.8218 30.7066 26.5237 30.8301 26.2129 30.8301Z" fill="#747CA0"/>
<path d="M8.89743 41.0123C8.74353 41.0123 8.59112 40.9821 8.44893 40.9232C8.30673 40.8643 8.17752 40.778 8.06868 40.6692L6.29563 38.8959C6.08048 38.6752 5.96094 38.3786 5.96291 38.0704C5.96489 37.7622 6.08822 37.4671 6.30618 37.2492C6.52415 37.0313 6.8192 36.908 7.12742 36.906C7.43565 36.9041 7.73222 37.0237 7.9529 37.2389L8.89743 38.1832L12.028 35.0526C12.248 34.8344 12.5456 34.7123 12.8555 34.7129C13.1654 34.7135 13.4625 34.8369 13.6816 35.056C13.9008 35.2751 14.0242 35.5721 14.025 35.882C14.0257 36.1919 13.9036 36.4895 13.6855 36.7097L9.72712 40.6692C9.61816 40.7781 9.4888 40.8645 9.34644 40.9234C9.20407 40.9822 9.05149 41.0125 8.89743 41.0123Z" fill="#4064DF"/>
<path d="M26.2129 39.0312H16.8379C16.5271 39.0312 16.229 38.9078 16.0092 38.688C15.7895 38.4682 15.666 38.1702 15.666 37.8594C15.666 37.5486 15.7895 37.2505 16.0092 37.0307C16.229 36.811 16.5271 36.6875 16.8379 36.6875H26.2129C26.5237 36.6875 26.8218 36.811 27.0415 37.0307C27.2613 37.2505 27.3848 37.5486 27.3848 37.8594C27.3848 38.1702 27.2613 38.4682 27.0415 38.688C26.8218 38.9078 26.5237 39.0312 26.2129 39.0312Z" fill="#747CA0"/>
<path d="M8.89743 49.2137C8.74351 49.2137 8.5911 49.1834 8.4489 49.1245C8.3067 49.0656 8.1775 48.9792 8.06868 48.8704L6.29563 47.0971C6.08048 46.8764 5.96094 46.5798 5.96291 46.2716C5.96489 45.9633 6.08822 45.6683 6.30618 45.4504C6.52415 45.2324 6.8192 45.1091 7.12742 45.1072C7.43565 45.1053 7.73222 45.2249 7.9529 45.44L8.89743 46.3843L12.028 43.2538C12.248 43.0356 12.5456 42.9134 12.8555 42.9141C13.1654 42.9147 13.4625 43.0381 13.6816 43.2572C13.9008 43.4763 14.0242 43.7733 14.025 44.0832C14.0257 44.3931 13.9036 44.6907 13.6855 44.9108L9.72712 48.8704C9.61818 48.9793 9.48883 49.0657 9.34646 49.1247C9.2041 49.1836 9.05151 49.2138 8.89743 49.2137Z" fill="#4064DF"/>
<path d="M26.2129 47.2344H16.8379C16.5271 47.2344 16.229 47.1109 16.0092 46.8911C15.7895 46.6714 15.666 46.3733 15.666 46.0625C15.666 45.7517 15.7895 45.4536 16.0092 45.2339C16.229 45.0141 16.5271 44.8906 16.8379 44.8906H26.2129C26.5237 44.8906 26.8218 45.0141 27.0415 45.2339C27.2613 45.4536 27.3848 45.7517 27.3848 46.0625C27.3848 46.3733 27.2613 46.6714 27.0415 46.8911C26.8218 47.1109 26.5237 47.2344 26.2129 47.2344Z" fill="#747CA0"/>
<path d="M58.8281 43.7565H36.9438C36.633 43.7565 36.335 43.633 36.1152 43.4132C35.8954 43.1935 35.772 42.8954 35.772 42.5846C35.772 42.2738 35.8954 41.9757 36.1152 41.756C36.335 41.5362 36.633 41.4127 36.9438 41.4127H57.6562V4.68359H14.4141V11.3192C14.4141 11.63 14.2906 11.9281 14.0708 12.1479C13.8511 12.3676 13.553 12.4911 13.2422 12.4911C12.9314 12.4911 12.6333 12.3676 12.4135 12.1479C12.1938 11.9281 12.0703 11.63 12.0703 11.3192V3.51172C12.0703 3.20092 12.1938 2.90285 12.4135 2.68308C12.6333 2.46331 12.9314 2.33984 13.2422 2.33984H58.8281C59.1389 2.33984 59.437 2.46331 59.6568 2.68308C59.8765 2.90285 60 3.20092 60 3.51172V42.5846C60 42.8954 59.8765 43.1935 59.6568 43.4132C59.437 43.633 59.1389 43.7565 58.8281 43.7565Z" fill="#747CA0"/>
<path d="M30.7441 16.2056C30.4333 16.2056 30.1353 16.0822 29.9155 15.8624C29.6957 15.6426 29.5723 15.3446 29.5723 15.0337V3.50391C29.5723 3.19311 29.6957 2.89503 29.9155 2.67527C30.1353 2.4555 30.4333 2.33203 30.7441 2.33203H41.3309C41.6417 2.33203 41.9397 2.4555 42.1595 2.67527C42.3793 2.89503 42.5027 3.19311 42.5027 3.50391V15.0337C42.5028 15.2341 42.4514 15.431 42.3536 15.6059C42.2559 15.7807 42.1149 15.9276 41.9442 16.0324C41.7735 16.1372 41.5788 16.1966 41.3787 16.2047C41.1785 16.2129 40.9796 16.1696 40.8009 16.0791L36.0375 13.6643L31.2741 16.0784C31.1098 16.1617 30.9283 16.2053 30.7441 16.2056ZM31.916 4.67578V13.1252L35.5085 11.3051C35.6727 11.2218 35.8542 11.1785 36.0383 11.1785C36.2224 11.1785 36.4039 11.2218 36.5681 11.3051L40.159 13.1252V4.67578H31.916Z" fill="#747CA0"/>
</g>
<defs>
<clipPath id="clip0_1843_9272">
<rect width="60" height="60" fill="white"/>
</clipPath>
</defs>
</svg>
