<svg width="380" height="46" viewBox="0 0 380 46" fill="none" xmlns="http://www.w3.org/2000/svg">
<rect width="380" height="46" rx="23" fill="#4064DF" fill-opacity="0.1"/>
<rect width="60" height="10" rx="5" transform="matrix(-1 0 0 1 90 18)" fill="#4064DF"/>
<rect width="10" height="10" rx="5" transform="matrix(-1 0 0 1 110 18)" fill="white" fill-opacity="0.8"/>
<rect width="10" height="10" rx="5" transform="matrix(-1 0 0 1 130 18)" fill="white" fill-opacity="0.8"/>
<rect width="10" height="10" rx="5" transform="matrix(-1 0 0 1 150 18)" fill="white" fill-opacity="0.8"/>
<rect width="10" height="10" rx="5" transform="matrix(-1 0 0 1 170 18)" fill="white" fill-opacity="0.8"/>
<rect width="10" height="10" rx="5" transform="matrix(-1 0 0 1 190 18)" fill="white" fill-opacity="0.8"/>
<rect width="10" height="10" rx="5" transform="matrix(-1 0 0 1 210 18)" fill="white" fill-opacity="0.8"/>
<rect width="10" height="10" rx="5" transform="matrix(-1 0 0 1 230 18)" fill="white" fill-opacity="0.8"/>
<rect width="10" height="10" rx="5" transform="matrix(-1 0 0 1 250 18)" fill="white" fill-opacity="0.8"/>
<rect width="10" height="10" rx="5" transform="matrix(-1 0 0 1 270 18)" fill="white" fill-opacity="0.8"/>
<rect width="10" height="10" rx="5" transform="matrix(-1 0 0 1 290 18)" fill="white" fill-opacity="0.8"/>
<rect width="10" height="10" rx="5" transform="matrix(-1 0 0 1 310 18)" fill="white" fill-opacity="0.8"/>
<rect width="10" height="10" rx="5" transform="matrix(-1 0 0 1 330 18)" fill="white" fill-opacity="0.8"/>
<rect width="10" height="10" rx="5" transform="matrix(-1 0 0 1 350 18)" fill="white" fill-opacity="0.8"/>
</svg>
