<svg width="55" height="55" viewBox="0 0 55 55" fill="none" xmlns="http://www.w3.org/2000/svg">
<path d="M26.4064 31.8813C26.6798 32.1259 27.1162 32.1163 27.3847 31.843L34.4438 24.7839C34.7028 24.5105 34.6932 24.0693 34.4198 23.796C34.1417 23.5226 33.7053 23.513 33.4176 23.7768L26.8764 30.318L22.8673 26.3089C22.7234 26.1554 22.5412 26.0739 22.3445 26.0691C22.335 26.0691 22.3254 26.0691 22.3158 26.0691C22.1335 26.0691 21.9513 26.1458 21.8218 26.2801C21.6923 26.4144 21.606 26.6062 21.6108 26.8028C21.6108 26.9994 21.6971 27.1865 21.841 27.3159L26.4064 31.8813Z" fill="#747DA1" fill-opacity="0.8"/>
<path d="M42.2034 27.3446V17.1492C42.2034 16.7943 41.9492 16.497 41.5992 16.4394C36.5398 15.7249 31.8306 13.5621 27.9845 10.1812C27.8502 10.0613 27.6776 9.99414 27.5001 9.99414C27.3227 9.99414 27.1549 10.0613 27.0206 10.1764C23.1697 13.5621 18.4557 15.7297 13.3867 16.4442C13.0462 16.497 12.7969 16.7991 12.7969 17.154V27.3494C12.7969 37.0556 22.858 42.8727 27.1836 44.9204C27.3851 45.0163 27.6152 45.0211 27.8071 44.9204C32.1423 42.8583 42.213 37.0125 42.2034 27.3446ZM27.1788 43.3379C22.3401 40.9209 14.226 35.6265 14.2356 27.3494V17.763L14.8254 17.6527C19.2853 16.8279 23.5102 14.8856 27.0494 12.0467L27.5001 11.687L27.9509 12.0467C31.4901 14.8904 35.7198 16.8279 40.1749 17.6527L40.7647 17.763V27.3494C40.7647 35.6026 32.6554 40.9113 27.8214 43.3379L27.5001 43.5009L27.1788 43.3379Z" fill="#747DA1" fill-opacity="0.8"/>
</svg>
