<svg width="55" height="55" viewBox="0 0 55 55" fill="none" xmlns="http://www.w3.org/2000/svg">
<path d="M41.1445 18.7851V12.9751H26.7145V18.7651C26.1245 18.9551 25.6845 19.5151 25.6845 20.1751V22.3151C25.6845 23.3451 26.4345 24.2051 27.4045 24.3751V25.2251C27.4045 26.3751 26.4745 27.3151 25.3145 27.3151H24.2845C24.1045 26.3351 23.2445 25.5951 22.2145 25.5951H20.0745C19.4145 25.5951 18.8545 26.0251 18.6645 26.6151H12.8945V41.0451H18.6945C18.9045 41.6151 19.4445 42.0251 20.0845 42.0251H22.2245C22.9645 42.0251 23.6145 41.6451 23.9845 41.0651H25.3145C34.0645 41.0651 41.1445 33.9751 41.1445 25.2351V24.0851C41.7245 23.7051 42.1045 23.0551 42.1045 22.3251V20.1851C42.1045 19.5451 41.6945 19.0051 41.1345 18.7951L41.1445 18.7851ZM18.2045 39.9051H14.0245V27.7451H18.1945V39.9051H18.2045ZM23.1945 39.9151C23.1945 40.4451 22.7645 40.8751 22.2245 40.8751H20.0845C19.8945 40.8751 19.7345 40.7151 19.7345 40.5251V27.0651C19.7345 26.8751 19.8945 26.7151 20.0845 26.7151H22.2245C22.7545 26.7151 23.1945 27.1451 23.1945 27.6851V39.9151ZM27.8545 14.1051H40.0145V18.6351H27.8545V14.1051ZM40.0245 25.2251C40.0245 25.4151 40.0245 25.6051 40.0145 25.7851C39.7245 33.4551 33.5645 39.6251 25.8845 39.9051C25.6945 39.9051 25.5145 39.9151 25.3245 39.9151H24.7545V28.4451H25.3245C27.1045 28.4451 28.5445 27.0051 28.5445 25.2251V24.6551H40.0245V25.2251ZM40.9845 22.3151C40.9845 22.8451 40.5545 23.2751 40.0245 23.2751H27.7945C27.2645 23.2751 26.8245 22.8451 26.8245 22.3151V20.1751C26.8245 19.9851 26.9845 19.8251 27.1745 19.8251H40.6345C40.8245 19.8251 40.9845 19.9851 40.9845 20.1751V22.3151Z" fill="#747DA1" fill-opacity="0.8"/>
</svg>
