<svg width="118" height="119" viewBox="0 0 118 119" fill="none" xmlns="http://www.w3.org/2000/svg">
<path d="M59 119C91.5845 119 118 92.5845 118 60C118 27.4152 91.5845 1 59 1C26.4152 1 0 27.4152 0 60C0 92.5845 26.4152 119 59 119Z" fill="#8497D5" fill-opacity="0.1"/>
<path d="M41.623 74.3535V64.2501H42.9335L46.5507 71.846L50.1473 64.2501H51.4701V74.3449H50.0977V67.435L46.8773 74.3535H46.22L42.9914 67.435V74.3535H41.6272H41.623Z" fill="white"/>
<path d="M55.5251 74.5622C54.9711 74.5622 54.5081 74.4579 54.1319 74.2485C53.7557 74.0391 53.4747 73.7629 53.2845 73.4196C53.0943 73.0772 52.9951 72.7001 52.9951 72.2857C52.9951 71.9007 53.0612 71.5662 53.1977 71.2772C53.33 70.9884 53.5283 70.7415 53.793 70.5364C54.0576 70.3313 54.38 70.1681 54.7644 70.0425C55.0952 69.9463 55.4755 69.8583 55.893 69.783C56.3147 69.7077 56.757 69.6366 57.22 69.5738C57.683 69.5068 58.146 69.4441 58.6008 69.3771L58.0757 69.67C58.084 69.0757 57.96 68.6363 57.7037 68.3475C57.4474 68.0587 57.0092 67.9165 56.385 67.9165C55.9922 67.9165 55.6326 68.0085 55.306 68.1927C54.9794 68.3768 54.7479 68.6823 54.6198 69.1092L53.268 68.6865C53.454 68.0378 53.8054 67.5189 54.3262 67.1379C54.8471 66.7529 55.5375 66.5646 56.4015 66.5646C57.0712 66.5646 57.6541 66.6818 58.1501 66.9119C58.6462 67.1422 59.01 67.5104 59.2415 68.0085C59.3614 68.2554 59.4358 68.5191 59.4648 68.7953C59.4937 69.0716 59.5061 69.3687 59.5061 69.6868V74.3536H58.2245V72.6203L58.4726 72.8469C58.1626 73.4283 57.7698 73.8593 57.2903 74.1399C56.8108 74.4248 56.2237 74.5622 55.5251 74.5622ZM55.7814 73.3614C56.1906 73.3614 56.5462 73.2858 56.8397 73.1398C57.1332 72.993 57.373 72.8045 57.5549 72.5749C57.7368 72.3447 57.8525 72.1058 57.9062 71.859C57.9848 71.6331 58.0303 71.3818 58.0426 71.1014C58.0551 70.821 58.0592 70.595 58.0592 70.4276L58.5305 70.6033C58.0716 70.6745 57.6582 70.7373 57.282 70.7917C56.9058 70.8461 56.5709 70.9047 56.2651 70.9549C55.9632 71.0093 55.6946 71.0721 55.4589 71.1474C55.2605 71.2186 55.0828 71.3023 54.9298 71.3985C54.7768 71.4948 54.6528 71.6158 54.5619 71.754C54.4709 71.8964 54.4254 72.0641 54.4254 72.2648C54.4254 72.4656 54.4751 72.6419 54.5701 72.8088C54.6653 72.9764 54.814 73.1059 55.0125 73.2067C55.2109 73.3031 55.4672 73.3527 55.7732 73.3527L55.7814 73.3614Z" fill="white"/>
<path d="M64.2766 74.5629C63.578 74.5629 62.9786 74.3866 62.4701 74.0355C61.9657 73.6837 61.573 73.2066 61.3002 72.5994C61.0231 71.9928 60.8867 71.3107 60.8867 70.5532C60.8867 69.7956 61.0273 69.1092 61.3043 68.5066C61.5813 67.9039 61.974 67.431 62.4866 67.0836C62.9951 66.7362 63.6027 66.5604 64.3056 66.5604C65.0083 66.5604 65.6077 66.7362 66.0914 67.0836C66.5751 67.431 66.9389 67.9081 67.1869 68.5107C67.4349 69.1134 67.559 69.7956 67.559 70.5532C67.559 71.3107 67.4349 71.9928 67.1827 72.5958C66.9347 73.198 66.5668 73.675 66.079 74.0312C65.5912 74.3866 64.9917 74.5629 64.2766 74.5629ZM64.4792 73.2361C64.9546 73.2361 65.3432 73.1232 65.6449 72.8929C65.9467 72.6627 66.1658 72.3483 66.3023 71.9468C66.4387 71.5453 66.5089 71.0805 66.5089 70.5573C66.5089 70.0342 66.4387 69.5696 66.2981 69.1678C66.1576 68.766 65.9384 68.4521 65.6449 68.2261C65.3514 68.0001 64.9794 67.8913 64.5246 67.8913C64.0451 67.8913 63.6482 68.0127 63.3382 68.247C63.0281 68.4856 62.7967 68.8079 62.6478 69.2097C62.499 69.6115 62.4246 70.0593 62.4246 70.5573C62.4246 71.0554 62.499 71.5115 62.6478 71.913C62.7967 72.3195 63.024 72.6375 63.3258 72.88C63.6276 73.1189 64.012 73.2361 64.4709 73.2361H64.4792ZM66.5089 68.9042H66.3436V64.2543H67.7987V74.3571H66.5089V68.9042Z" fill="white"/>
<path d="M73.0576 74.5622C72.3129 74.5622 71.6603 74.3996 71.0979 74.0686C70.5356 73.7384 70.1016 73.2779 69.7874 72.6879C69.4774 72.0972 69.3203 71.4111 69.3203 70.6284C69.3203 69.7998 69.4732 69.0841 69.7791 68.4731C70.0851 67.862 70.515 67.3933 71.0648 67.0626C71.615 66.732 72.2553 66.5646 72.9828 66.5646C73.7102 66.5646 74.3923 66.7446 74.9298 67.1003C75.4672 67.456 75.8687 67.9667 76.1328 68.6279C76.3976 69.2892 76.5048 70.0718 76.4472 70.98H75.0003V70.4485C74.9924 69.5696 74.8269 68.9209 74.5045 68.4982C74.1815 68.0755 73.6937 67.8662 73.0367 67.8662C72.3129 67.8662 71.7675 68.0964 71.3998 68.5609C71.0317 69.0255 70.854 69.691 70.854 70.5657C70.854 71.4404 71.0358 72.0432 71.3998 72.4994C71.7632 72.9556 72.2928 73.1815 72.9792 73.1815C73.4339 73.1815 73.8224 73.0772 74.1527 72.8678C74.4837 72.6584 74.7398 72.3612 74.9262 71.972L76.3479 72.4282C76.0587 73.1059 75.6162 73.6333 75.0255 74.0017C74.434 74.3744 73.7764 74.5586 73.049 74.5586L73.0576 74.5622ZM70.3909 70.9758V69.8332H75.732V70.9758H70.3909Z" fill="white"/>
<path d="M38.1348 78.208V76.7848H39.5816V78.208H38.1348ZM38.1348 87.0263V79.4506H39.5816V87.0263H38.1348Z" fill="white"/>
<path d="M41.6523 87.0263V79.4505H42.9463V81.64H43.1199V87.0263H41.6523ZM46.9108 87.0263V83.3014C46.9108 83.0085 46.886 82.7027 46.8364 82.3933C46.7868 82.0832 46.6958 81.7947 46.5594 81.5271C46.423 81.2587 46.2328 81.0457 45.9847 80.8824C45.7367 80.719 45.4143 80.6356 45.0174 80.6356C44.757 80.6356 44.5131 80.6773 44.2816 80.7651C44.05 80.8529 43.8475 80.991 43.6739 81.1838C43.5003 81.376 43.3638 81.6271 43.2646 81.9408C43.1654 82.2552 43.1158 82.6358 43.1158 83.0834L42.2146 82.7402C42.2146 82.0537 42.3427 81.4472 42.5949 80.9198C42.8471 80.3924 43.215 79.9823 43.6904 79.6894C44.1658 79.3966 44.7404 79.2455 45.4143 79.2455C45.931 79.2455 46.3651 79.3297 46.7165 79.4966C47.0679 79.6642 47.3531 79.8858 47.5722 80.1578C47.7913 80.4305 47.9608 80.7313 48.0766 81.0536C48.1923 81.376 48.2708 81.694 48.3122 81.9998C48.3535 82.3092 48.3742 82.5811 48.3742 82.8114V87.022H46.9067L46.9108 87.0263Z" fill="white"/>
<path d="M53.0957 87.0264V76.923H54.5426V87.0264H53.0957Z" fill="white"/>
<path d="M55.791 80.627V79.447H60.9047V80.627H55.791ZM60.9047 87.0263C60.4335 87.1184 59.9704 87.1602 59.5198 87.1472C59.0651 87.135 58.6641 87.0429 58.3086 86.8795C57.9531 86.7162 57.6843 86.4572 57.5065 86.1097C57.3454 85.796 57.2585 85.4779 57.2462 85.1513C57.2337 84.8246 57.2296 84.4562 57.2296 84.0461V77.346H58.6847V83.9749C58.6847 84.2807 58.6848 84.544 58.693 84.7663C58.7013 84.9923 58.7468 85.1808 58.8336 85.3355C58.999 85.624 59.2635 85.7916 59.6273 85.8291C59.9911 85.8708 60.4169 85.8542 60.9047 85.783V87.0263Z" fill="white"/>
<path d="M64.5915 87.2357C64.0375 87.2357 63.5745 87.1307 63.1984 86.9213C62.8222 86.7119 62.5411 86.4363 62.3509 86.0931C62.1607 85.7499 62.0615 85.3729 62.0615 84.9585C62.0615 84.5735 62.1276 84.2389 62.2641 83.9497C62.3964 83.6612 62.5948 83.4144 62.8594 83.2093C63.124 83.0043 63.4464 82.8409 63.8309 82.7157C64.1616 82.6193 64.5419 82.5315 64.9594 82.456C65.3811 82.3804 65.8234 82.3092 66.2864 82.2466C66.7494 82.1797 67.2124 82.1171 67.6672 82.0502L67.1421 82.343C67.1504 81.7487 67.0264 81.3091 66.7701 81.0206C66.5138 80.7313 66.0756 80.5896 65.4514 80.5896C65.0587 80.5896 64.699 80.6817 64.3724 80.8651C64.0458 81.0493 63.8143 81.3551 63.6862 81.7818L62.3344 81.3638C62.5204 80.7148 62.8718 80.196 63.3926 79.8111C63.9135 79.4261 64.6039 79.2376 65.4679 79.2376C66.1376 79.2376 66.7205 79.3549 67.2165 79.5851C67.7126 79.8147 68.0764 80.1831 68.3079 80.6817C68.4278 80.9285 68.5022 81.1918 68.5312 81.4681C68.5601 81.7444 68.5725 82.0415 68.5725 82.3596V87.0263H67.2909V85.2937L67.539 85.5197C67.229 86.101 66.8362 86.532 66.3567 86.8126C65.8772 87.0976 65.2901 87.2357 64.5915 87.2357ZM64.8478 86.0384C65.2571 86.0384 65.6126 85.9629 65.9061 85.8168C66.1996 85.67 66.4394 85.4815 66.6213 85.2513C66.8032 85.0218 66.9189 84.7829 66.9726 84.5361C67.0512 84.3102 67.0967 84.0591 67.109 83.7784C67.1215 83.4978 67.1256 83.2719 67.1256 83.1043L67.5969 83.2806C67.138 83.3518 66.7246 83.4144 66.3484 83.4691C65.9722 83.523 65.6374 83.582 65.3315 83.6317C65.0297 83.6864 64.761 83.749 64.5253 83.8245C64.3269 83.8957 64.1492 83.9792 63.9962 84.0756C63.8433 84.172 63.7192 84.2929 63.6283 84.4311C63.5373 84.5692 63.4918 84.7412 63.4918 84.9419C63.4918 85.1426 63.5415 85.3189 63.6365 85.4859C63.7317 85.6535 63.8805 85.783 64.0789 85.8837C64.2773 85.9838 64.5336 86.0298 64.8396 86.0298L64.8478 86.0384Z" fill="white"/>
<path d="M70.5068 87.0263V76.7136H71.9536V87.0263H70.5068Z" fill="white"/>
<path d="M75.0461 90.3951L76.493 86.4025L76.5139 87.5825L73.248 79.4506H74.7569L77.196 85.7291H76.7535L79.0811 79.4506H80.5482L76.4189 90.3951H75.0382H75.0461Z" fill="white"/>
<path d="M49.4416 27.77C51.4266 24.1 56.0106 22.734 59.6806 24.7191C63.3505 26.7041 64.7164 31.2881 62.7315 34.9581L53.0546 52.8482C51.0695 56.5181 46.4855 57.8841 42.8156 55.8991C39.1456 53.914 37.7797 49.3301 39.7647 45.6601L49.4416 27.77Z" fill="#009347"/>
<path d="M57.3556 27.77C59.3407 24.1 63.9246 22.734 67.5946 24.7191C71.2645 26.7041 72.6304 31.2881 70.6455 34.9581L60.9686 52.8482C58.9836 56.5181 54.3996 57.8841 50.7296 55.8991C47.0597 53.914 45.6938 49.3301 47.6787 45.6601L57.3556 27.77Z" fill="white"/>
<path d="M66.0773 27.77C68.0624 24.1 72.6463 22.734 76.3163 24.7191C79.9862 26.7041 81.3521 31.2881 79.3672 34.9581L69.6903 52.8482C67.7053 56.5181 63.1213 57.8841 59.4513 55.8991C55.7814 53.914 54.4154 49.3301 56.4004 45.6601L66.0773 27.77Z" fill="#CF2837"/>
</svg>
