<svg width="51" height="40" viewBox="0 0 51 40" fill="none" xmlns="http://www.w3.org/2000/svg">
<path d="M0 39.2V0H2.24731V39.2H0Z" fill="white"/>
<path d="M17.0768 40C14.8295 40 12.9656 39.6089 11.4853 38.8267C10.0049 38.0444 8.89908 37.0133 8.16781 35.7333C7.43654 34.4533 7.07091 33.0667 7.07091 31.5733C7.07091 29.8844 7.43654 28.4889 8.16781 27.3867C8.91691 26.2667 9.88896 25.3867 11.084 24.7467C12.279 24.1067 13.5631 23.6444 14.9365 23.36C16.613 23.0222 18.4055 22.7289 20.314 22.48C22.2402 22.2133 24.0149 21.9911 25.638 21.8133C27.261 21.6356 28.4738 21.4933 29.2764 21.3867L28.4738 21.92C28.563 18.5244 27.9388 16 26.6011 14.3467C25.2812 12.6756 22.9447 11.84 19.5916 11.84C17.166 11.84 15.2129 12.3822 13.7326 13.4667C12.27 14.5333 11.2445 16.1778 10.6559 18.4L8.19456 17.76C8.83665 15.0933 10.1476 13.0667 12.1274 11.68C14.125 10.2933 16.6487 9.6 19.6986 9.6C22.374 9.6 24.6035 10.1422 26.3871 11.2267C28.1706 12.3111 29.3835 13.7778 30.0255 15.6267C30.2752 16.3378 30.4536 17.2 30.5606 18.2133C30.6676 19.2267 30.7211 20.2133 30.7211 21.1733V39.2H28.6344V31.3067L29.7045 31.36C28.9376 34.0978 27.4126 36.2222 25.1296 37.7333C22.8467 39.2444 20.1624 40 17.0768 40ZM16.9698 37.76C19.0565 37.76 20.8936 37.3867 22.481 36.64C24.0862 35.8933 25.3793 34.8178 26.3603 33.4133C27.3591 31.9911 27.9923 30.2933 28.2598 28.32C28.4025 27.3244 28.4738 26.2578 28.4738 25.12C28.4738 23.9822 28.4738 23.1644 28.4738 22.6667L29.651 23.5733C28.7057 23.6622 27.3948 23.7867 25.7182 23.9467C24.0595 24.0889 22.3027 24.2844 20.4477 24.5333C18.5928 24.7644 16.9163 25.0667 15.4181 25.44C14.5441 25.6533 13.6434 25.9911 12.7159 26.4533C11.7885 26.9156 11.0037 27.5644 10.3616 28.4C9.73736 29.2356 9.42523 30.3111 9.42523 31.6267C9.42523 32.5511 9.6571 33.4844 10.1208 34.4267C10.5846 35.3689 11.3604 36.16 12.4484 36.8C13.5542 37.44 15.0613 37.76 16.9698 37.76Z" fill="white"/>
<path d="M51 39.2C49.5553 39.52 48.1284 39.6356 46.7194 39.5467C45.3104 39.4756 44.053 39.1467 42.9471 38.56C41.8413 37.9556 41.012 37.0489 40.4591 35.84C40.031 34.8978 39.7902 33.9467 39.7367 32.9867C39.6832 32.0089 39.6564 30.8978 39.6564 29.6533V2.4H41.9038V29.6533C41.9038 30.8978 41.9127 31.9022 41.9305 32.6667C41.9662 33.4311 42.1535 34.1511 42.4923 34.8267C43.1344 36.1067 44.1511 36.8978 45.5423 37.2C46.9334 37.4844 48.7527 37.44 51 37.0667V39.2ZM32.861 12.64V10.4H51V12.64H32.861Z" fill="white"/>
</svg>
