<svg width="768" height="78" viewBox="0 0 768 78" fill="none" xmlns="http://www.w3.org/2000/svg">
<mask id="path-1-inside-1_2655_17143" fill="white">
<path d="M0 0H768V78H0V0Z"/>
</mask>
<path d="M768 78V77H0V78V79H768V78Z" fill="white" fill-opacity="0.1" mask="url(#path-1-inside-1_2655_17143)"/>
<g clip-path="url(#clip0_2655_17143)">
<path fill-rule="evenodd" clip-rule="evenodd" d="M300.166 25.9789C301.971 24.1049 304.507 22.938 307.316 22.938C311.919 22.938 315.79 26.0728 316.913 30.325C316.913 30.325 313.437 30.3794 311.242 30.0778C308.809 29.7416 307.419 29.4499 305.13 28.5648C303.093 27.7786 300.171 25.9789 300.171 25.9789M317.145 31.5117C317.111 31.2645 317.071 31.0222 317.017 30.7799C317.017 30.7799 312.136 30.8491 309.071 30.3745C305.748 29.8602 303.81 29.5191 300.754 28.1149C300.102 27.8132 299.741 27.5957 299.108 27.2842C298.772 27.7737 298.48 28.2978 298.238 28.8466C298.238 28.8466 300.171 29.4993 301.427 29.8355C304.102 30.5475 305.669 30.7403 308.413 31.0667C311.795 31.4721 317.14 31.5117 317.14 31.5117M308.507 32.4313L317.224 32.4709C317.219 32.3077 317.209 32.1446 317.195 31.9814C317.195 31.9814 311.459 32.0259 307.815 31.7045C303.864 31.3535 301.536 30.9579 297.763 30.1569C297.59 30.775 297.471 31.4177 297.422 32.0803L308.507 32.4313ZM300.166 39.4821C301.971 41.356 304.507 42.5229 307.311 42.5229C311.914 42.5229 315.785 39.3881 316.908 35.1359C316.908 35.1359 313.432 35.0815 311.237 35.3832C308.804 35.7194 307.415 36.0111 305.125 36.8961C303.088 37.6823 300.166 39.4821 300.166 39.4821ZM308.418 34.3943C305.669 34.7255 304.107 34.9134 301.432 35.6254C300.171 35.9617 298.243 36.6143 298.243 36.6143C298.485 37.1631 298.777 37.6873 299.113 38.1768C299.746 37.8603 300.107 37.6477 300.759 37.3461C303.81 35.9419 305.753 35.6007 309.076 35.0865C312.141 34.6118 317.022 34.681 317.022 34.681C317.071 34.4388 317.116 34.1965 317.15 33.9493C317.15 33.9493 311.805 33.9888 308.423 34.3943M297.422 33.3807C297.471 34.0432 297.59 34.686 297.763 35.304C301.541 34.503 303.864 34.1075 307.815 33.7564C311.459 33.4351 317.195 33.4796 317.195 33.4796C317.209 33.3164 317.219 33.1582 317.224 32.995L308.507 33.0296L297.422 33.3807Z" fill="#E42313"/>
<path d="M328.828 41.9691C334.425 41.9691 339.192 37.9988 340.522 33.0296C341.204 30.4931 340.819 28.1099 339.444 26.32C338.129 24.6093 336.067 23.6649 333.634 23.6649C328.655 23.6649 323.523 27.7094 322.188 32.6786L318.148 47.759L323.221 45.1237L326.46 33.0346C327.207 30.2509 330.069 27.9863 332.843 27.9863C334.074 27.9863 335.103 28.4461 335.741 29.2768C336.418 30.1619 336.601 31.3683 336.25 32.6786C335.503 35.4623 332.606 37.8059 329.867 37.7268C327.128 37.6477 326.455 36.5352 326.455 36.5352L325.318 40.649C325.318 40.649 326.035 41.979 328.828 41.979" fill="white"/>
<path fill-rule="evenodd" clip-rule="evenodd" d="M435.857 23.6204C434.917 23.6204 434.121 24.3423 434.121 25.3213C434.121 26.3003 434.917 27.032 435.857 27.032C436.796 27.032 437.582 26.3102 437.582 25.3213C437.582 24.3324 436.786 23.6204 435.857 23.6204ZM435.857 26.7502C435.075 26.7502 434.467 26.147 434.467 25.3262C434.467 24.5054 435.075 23.9072 435.857 23.9072C436.638 23.9072 437.236 24.5153 437.236 25.3262C437.236 26.1371 436.628 26.7502 435.857 26.7502ZM436.643 24.9059C436.643 24.5153 436.41 24.3472 435.946 24.3472H435.194V26.3151H435.491V25.4597H435.832L436.351 26.3151H436.687L436.129 25.4498C436.415 25.4152 436.638 25.2619 436.638 24.9059M435.496 25.2076V24.5994H435.901C436.109 24.5994 436.331 24.6439 436.331 24.8862C436.331 25.1878 436.104 25.2076 435.852 25.2076H435.496Z" fill="white"/>
<path fill-rule="evenodd" clip-rule="evenodd" d="M346.055 30.6612C347.355 28.9752 349.372 27.8676 351.286 27.8676H353.807L353.941 27.3584L354.732 24.4115L354.964 23.5462H352.077C347.098 23.5462 341.966 27.5908 340.631 32.5599C339.948 35.0964 340.334 37.4796 341.703 39.2695C343.019 40.9802 345.081 41.9246 347.513 41.9246H350.035L350.168 41.4153L350.959 38.4685L351.192 37.6032H348.304C346.46 37.6032 345.125 36.5698 344.804 34.9629H344.818H351.35H351.874L352.013 34.4536L352.804 31.5067L353.036 30.6415H346.079L346.055 30.6612Z" fill="white"/>
<path fill-rule="evenodd" clip-rule="evenodd" d="M358.044 37.6032L356.481 37.618L356.58 37.5884L358.177 31.4672L358.41 30.6019H354.044L353.905 31.1112L351.24 41.0594L351.008 41.9246H357.263C362.242 41.9246 367.374 37.8801 368.709 32.911C369.386 30.3745 369.006 27.9913 367.631 26.1964C366.316 24.4857 364.254 23.5413 361.821 23.5413H355.937L355.799 24.0506L355.008 26.9974L354.775 27.8627H361.03C362.251 27.8627 363.27 28.3176 363.903 29.1384C364.58 30.0234 364.758 31.2348 364.407 32.555C363.661 35.3387 360.798 37.6032 358.024 37.6032" fill="white"/>
<path fill-rule="evenodd" clip-rule="evenodd" d="M380.871 29.4597C381.292 27.8825 381.049 26.3991 380.194 25.2768C379.373 24.1989 378.088 23.6055 376.575 23.6055L371.161 23.5907L370.009 27.9072H375.799C376.12 27.9072 376.372 28.011 376.53 28.2137C376.698 28.4313 376.738 28.7477 376.644 29.1037C376.417 29.9492 375.527 30.6612 374.696 30.6612H374.666L369.376 30.6711L366.34 42.0383H370.701L372.595 34.9431H373.316L375.517 42.0383H380.155L377.643 33.7762C377.643 33.7762 380.372 31.3337 380.871 29.4597Z" fill="white"/>
<path fill-rule="evenodd" clip-rule="evenodd" d="M406.902 32.5747C406.224 35.1112 406.605 37.4944 407.975 39.2843C409.29 40.9951 411.352 41.9592 413.784 41.9592H414.852L416.014 37.623H414.571C413.339 37.623 412.311 37.1631 411.673 36.3325C410.996 35.4474 410.818 34.241 411.164 32.9307L413.676 23.5512H409.31L406.892 32.5747H406.902Z" fill="white"/>
<path fill-rule="evenodd" clip-rule="evenodd" d="M397.894 32.5797C397.217 35.1162 397.597 37.4994 398.967 39.2892C400.282 41 402.344 41.9444 404.777 41.9444L404.613 41.9246L404.777 41.9642H405.845L407.007 37.6279H405.563C404.332 37.6279 403.303 37.1681 402.665 36.3374C401.988 35.4524 401.805 34.2459 402.156 32.9357L404.668 23.5561H400.302L397.884 32.5797H397.894Z" fill="white"/>
<path fill-rule="evenodd" clip-rule="evenodd" d="M433.027 26.2459C431.712 24.5351 429.65 23.5907 427.217 23.5907C422.243 23.5907 417.111 27.6303 415.781 32.5945C415.103 35.131 415.484 37.5142 416.854 39.3041C418.169 41.0148 420.231 41.9592 422.663 41.9592C427.637 41.9592 432.77 37.9196 434.1 32.9554C434.777 30.419 434.396 28.0357 433.027 26.2459ZM429.833 32.5994C429.086 35.3832 426.228 37.6428 423.454 37.6428C422.223 37.6428 421.195 37.1829 420.557 36.3523C419.88 35.4672 419.702 34.2608 420.053 32.9505C420.799 30.1668 423.657 27.9072 426.431 27.9072C427.662 27.9072 428.691 28.367 429.328 29.1977C430.006 30.0827 430.189 31.2892 429.838 32.5994" fill="white"/>
<path fill-rule="evenodd" clip-rule="evenodd" d="M396.761 26.2805C395.446 24.5697 393.384 23.6253 390.951 23.6253C385.977 23.6253 380.845 27.6649 379.515 32.6291C378.838 35.1656 379.218 37.5488 380.588 39.3387C381.903 41.0495 383.965 41.9939 386.398 41.9939C391.372 41.9939 396.504 37.9543 397.834 32.9901C398.512 30.4536 398.131 28.0704 396.761 26.2805ZM393.567 32.6341C392.82 35.4178 389.958 37.6774 387.189 37.6774C385.958 37.6774 384.929 37.2175 384.291 36.3869C383.614 35.5018 383.431 34.2954 383.782 32.9851C384.529 30.2014 387.392 27.9418 390.16 27.9418C391.387 27.9418 392.42 28.4016 393.058 29.2323C393.735 30.1174 393.913 31.3238 393.567 32.6341Z" fill="white"/>
<path d="M429.169 50.8938C429.169 50.8938 429.609 49.3215 429.263 48.5699C429.045 48.1497 428.536 47.8629 427.928 47.8134C427.433 47.7739 426.677 47.8728 425.861 48.5699C425.356 48.9952 424.931 49.6973 424.699 50.4884C424.471 51.2548 424.466 51.9667 424.679 52.3969C424.946 52.921 425.539 53.2325 426.266 53.2325C426.993 53.2325 427.695 52.9507 428.18 52.481C428.585 52.125 428.986 51.3289 428.986 51.3289H427.972C427.972 51.3289 427.29 52.3475 426.444 52.3475C425.935 52.3475 425.742 52.0755 425.618 51.8085C425.495 51.4575 425.628 50.8889 425.628 50.8889H429.169V50.8938ZM426.573 49.0693L426.583 49.0594C426.874 48.7727 427.285 48.6243 427.68 48.6639C428.051 48.6985 428.229 48.8963 428.313 49.0298C428.402 49.1633 428.476 49.6181 428.368 50.0088C428.076 50.0088 426.85 50.0088 425.92 50.0088C425.811 50.0088 426.439 49.1633 426.568 49.0693M376.802 50.7653C376.802 50.7653 377.242 49.2572 376.896 48.5403C376.679 48.1398 376.169 47.8629 375.561 47.8184C375.067 47.7788 374.31 47.8777 373.494 48.5452C372.99 48.9556 372.565 49.628 372.332 50.3845C372.105 51.1163 372.1 51.8036 372.313 52.214C372.58 52.7183 373.173 53.015 373.9 53.015C374.627 53.015 375.329 52.748 375.813 52.2931C376.219 51.9519 376.619 51.1855 376.619 51.1855H375.606C375.606 51.1855 374.923 52.1596 374.078 52.1596C373.569 52.1596 373.376 51.8975 373.252 51.6404C373.129 51.3042 373.262 50.7603 373.262 50.7603H376.802V50.7653ZM374.206 49.0149L374.216 49.005C374.508 48.7282 374.918 48.5897 375.319 48.6243C375.69 48.6589 375.868 48.8468 375.952 48.9754C376.041 49.1039 376.115 49.539 376.006 49.9148C375.714 49.9148 374.488 49.9148 373.559 49.9148C373.45 49.9148 374.078 49.1039 374.206 49.0149ZM388.783 48.0162C388.54 47.8827 388.199 47.8085 387.813 47.8085C387.457 47.8085 387.116 47.8777 386.879 47.9964C386.666 48.1002 386.296 48.3425 386.296 48.3474L386.3 48.3326L386.409 47.937H385.514L383.556 54.6417L383.517 54.7702H384.511L384.53 54.6961L385.178 52.4909C385.237 52.57 385.312 52.6491 385.406 52.7183C385.499 52.7875 385.851 53.0249 386.439 53.0249C387.027 53.0249 387.576 52.8122 388.105 52.3969C388.718 51.9272 389.232 51.0471 389.406 50.1472C389.613 49.1534 389.376 48.3573 388.773 48.0211M387.581 51.6305C387.294 51.9074 386.904 52.0656 386.508 52.0557C386.167 52.0459 385.885 51.8975 385.766 51.6701C385.608 51.3388 385.588 50.1521 386.464 49.188C386.716 48.916 387.096 48.743 387.477 48.7133C387.853 48.6886 388.15 48.827 388.268 49.0792C388.619 49.8357 388.105 51.1262 387.581 51.6305ZM404.333 47.9469C404.333 47.9469 404.259 48.204 404.209 48.4018C403.957 48.026 403.576 47.8233 403.067 47.8085C402.271 47.7838 401.44 48.382 401.213 48.5947C400.689 49.1237 400.293 49.9643 400.056 50.7653C399.65 52.1497 400.491 53.2078 401.386 53.2276C402.029 53.2375 402.582 52.926 403.008 52.6095C402.874 52.9161 402.741 53.722 401.964 54.0236C401.747 54.1077 401.509 54.1423 401.267 54.1423C401.06 54.1423 400.886 54.0978 400.743 54.0434C400.293 53.8703 400.466 53.3561 400.466 53.3561H399.482C399.482 53.3561 399.121 54.4587 400.174 54.8889C400.461 55.0076 400.822 55.1015 401.277 55.0372C403.067 54.9235 403.616 53.7072 404.145 52.1151L405.322 47.9469H404.328H404.333ZM402.805 51.9321C402.488 52.1942 402.118 52.3227 401.796 52.2881C401.465 52.2684 401.218 52.1052 401.094 51.8234C400.975 51.5316 401 51.0965 401.158 50.5922C401.302 50.1472 401.529 49.7319 401.683 49.5341C402.103 48.9754 402.577 48.8666 402.904 48.8715C403.28 48.8814 403.547 49.0594 403.576 49.1336V49.1435L403.586 49.1534C403.942 49.6775 403.576 51.2894 402.8 51.9371M412.372 48.4018C412.002 47.9123 411.393 47.8085 410.948 47.8085C410.266 47.8085 408.605 48.0705 407.922 50.4834C407.655 51.4377 407.7 52.1596 408.056 52.6342C408.348 53.015 408.852 53.2276 409.48 53.2276C410.162 53.2276 411.828 52.9655 412.511 50.5428C412.778 49.5934 412.733 48.8715 412.377 48.4018M411.512 50.4834C411.275 51.3289 410.602 52.2387 409.697 52.2387C409.396 52.2387 409.168 52.1398 409.02 51.947C408.753 51.591 408.793 50.9878 408.916 50.5428C409.154 49.7022 409.821 48.7974 410.726 48.7974C411.032 48.7974 411.26 48.8963 411.408 49.0891C411.675 49.4401 411.631 50.0384 411.507 50.4834M365.479 51.8876C365.47 51.9222 365.465 51.9717 365.479 51.9964C365.504 52.0261 365.613 52.0854 366.058 52.0112L366.221 51.9816L365.964 52.9309C365.964 52.9309 365.331 53.0298 365.01 53.0001C364.723 52.9705 364.575 52.8221 364.5 52.7084C364.382 52.5255 364.372 52.2931 364.412 52.1447L365.415 48.4364H364.738L365 47.4673H365.667L366.048 46.0928H367.042L366.676 47.4673H367.442L367.18 48.4364H366.414L365.484 51.8827L365.479 51.8876ZM371.878 49.2572V49.2473L370.815 53.015H369.821C369.821 53.015 370.795 49.5687 370.795 49.5638C370.988 48.9951 370.765 48.8814 370.681 48.8419C370.429 48.7133 370.206 48.6787 369.959 48.7232C369.732 48.7628 369.47 48.8864 369.119 49.1188C368.916 49.277 368.768 49.3956 368.654 49.7863L367.739 53.015H366.745L368.708 46.0582H369.702L369.049 48.3722C369.049 48.3722 369.306 48.1348 369.831 47.942C370.098 47.853 370.335 47.8085 370.557 47.8085C370.839 47.8085 371.106 47.8678 371.334 47.9815C371.571 48.0755 371.739 48.2337 371.838 48.4562C371.976 48.7776 371.917 49.1385 371.868 49.2572M384.1 48.2832C384.313 48.56 384.357 48.9507 384.224 49.4352L384.204 49.5143H383.225C383.225 49.5143 383.334 49.0743 383.245 48.9556C383.136 48.8122 382.874 48.738 382.473 48.738C382.028 48.738 381.638 48.9853 381.47 49.2127C381.381 49.3363 381.341 49.4599 381.361 49.5638C381.376 49.633 381.415 49.6874 381.485 49.7269C381.687 49.8604 382.009 49.9445 382.419 50.0533C382.419 50.0533 382.488 50.073 382.478 50.0681C382.829 50.1274 383.23 50.2214 383.537 50.4538C383.907 50.7158 383.996 51.2251 383.759 51.7789C383.532 52.3178 383.062 52.7776 382.503 53.0001C382.231 53.1089 381.895 53.1781 381.519 53.2127C381.193 53.2127 380.852 53.2127 380.58 53.1435C380.199 53.0496 379.927 52.8666 379.774 52.6046C379.601 52.3079 379.581 51.9222 379.719 51.4328L379.739 51.3536H380.684L380.654 51.4822C380.56 51.9025 380.718 52.1546 381.158 52.303C381.307 52.3524 381.549 52.3524 381.781 52.3524C382.024 52.2931 382.276 52.2288 382.414 52.1447C382.612 52.0261 382.785 51.8085 382.839 51.6157C382.904 51.3784 382.815 51.2201 382.562 51.1262L382.152 51.0224C381.668 50.9037 381.163 50.7801 380.876 50.6268C380.545 50.4884 380.209 50.1521 380.446 49.3215C380.743 48.2733 381.846 47.7937 382.745 47.7937C383.403 47.7937 383.858 47.9519 384.1 48.2683M392.293 48.9358C391.69 49.2028 391.329 49.6231 391.106 50.4142L390.37 53.015H389.376L390.81 47.9469H391.804L391.67 48.4265C391.67 48.4265 392.1 47.8431 392.827 47.8085H393.401L393.109 48.832C393.109 48.832 392.832 48.6985 392.298 48.9358M394.993 47.9469L393.559 53.015H392.565L393.999 47.9469H394.993ZM395.195 47.23H394.202L394.533 46.0582H395.527L395.195 47.23ZM399.828 49.1484V49.1583V49.1633L398.741 53.015H397.747L398.741 49.5044C398.81 49.272 398.795 49.0792 398.696 48.9457C398.592 48.8023 398.39 48.7232 398.132 48.7232C397.831 48.7232 396.827 48.8419 396.417 50.3598L395.665 53.0199H394.671L396.1 47.9519H397.094L396.99 48.3227L397.43 48.0508C397.786 47.8283 398.261 47.8085 398.513 47.8134C398.84 47.8233 399.181 47.8827 399.324 47.9618C399.527 48.0903 399.942 48.3573 399.833 49.1583M416.466 46.0681L416.575 46.0928L416.338 46.9333L416.249 46.9234C415.794 46.869 415.557 46.9234 415.428 47.3635L415.265 47.942H416.041L415.779 48.8617H415.003L413.831 53.0051H412.837L414.004 48.8617H413.351L413.613 47.937H414.271L414.479 47.1904C414.701 46.3944 415.463 46.0681 415.641 46.0532C415.918 46.0038 416.185 46.0038 416.466 46.0631M420.709 46.1917L418.805 52.9359L418.785 53.01H417.791L417.831 52.8765L419.735 46.1323L419.754 46.0582H420.748L420.709 46.1917ZM422.217 48.0804L420.842 52.9359L420.822 53.01H419.829L419.868 52.8765L421.243 48.0211L421.262 47.9469H422.256L422.217 48.0804ZM421.599 47.23H421.46L421.5 47.0965L421.772 46.1323L421.791 46.0582H422.785L422.746 46.1917L422.474 47.1558L422.454 47.2349H421.599V47.23ZM425.836 46.1126L425.599 46.9531L425.51 46.9432C425.055 46.8888 424.817 46.9432 424.689 47.3833L424.531 47.942H425.307L425.045 48.8617H424.269L423.097 53.0051H422.103L423.27 48.8617H422.617L422.879 47.937H423.537L423.74 47.2102C423.967 46.4142 424.724 46.0878 424.902 46.073C425.178 46.0236 425.445 46.0236 425.722 46.0829L425.836 46.1076V46.1126Z" fill="white"/>
</g>
<rect x="695" y="28" width="33" height="4" rx="2" fill="white"/>
<rect x="695" y="37" width="33" height="4" rx="2" fill="white"/>
<rect x="695" y="46" width="33" height="4" rx="2" fill="white"/>
<defs>
<clipPath id="clip0_2655_17143">
<rect width="140.155" height="32.1239" fill="white" transform="translate(297.422 22.938)"/>
</clipPath>
</defs>
</svg>
