<svg width="60" height="60" viewBox="0 0 60 60" fill="none" xmlns="http://www.w3.org/2000/svg">
<path d="M56.2999 11.8673C56.2994 11.277 56.0647 10.7111 55.6474 10.2936C55.23 9.87617 54.6642 9.64133 54.0739 9.64062H18.7999C18.21 9.64204 17.6447 9.87717 17.2279 10.2945C16.811 10.7119 16.5766 11.2774 16.5759 11.8673L16.5952 17.946C15.2849 18.2105 14.1197 18.9525 13.3257 20.0278C12.5317 21.1032 12.1657 22.4353 12.2986 23.7653C12.4315 25.0954 13.054 26.3287 14.045 27.2257C15.0361 28.1227 16.3252 28.6194 17.6619 28.6194C18.9986 28.6194 20.2876 28.1227 21.2787 27.2257C22.2698 26.3287 22.8922 25.0954 23.0252 23.7653C23.1581 22.4353 22.792 21.1032 21.9981 20.0278C21.2041 18.9525 20.0388 18.2105 18.7286 17.946L18.7092 11.8673C18.7092 11.8425 18.7191 11.8188 18.7366 11.8013C18.7541 11.7838 18.7778 11.774 18.8026 11.774H54.0739C54.0986 11.774 54.1224 11.7838 54.1399 11.8013C54.1574 11.8188 54.1672 11.8425 54.1672 11.8673V38.0993C54.1672 38.124 54.1574 38.1478 54.1399 38.1653C54.1224 38.1828 54.0986 38.1926 54.0739 38.1926H39.4039L40.3652 37.2093C40.7082 36.8698 40.9803 36.4654 41.1654 36.0198C41.3506 35.5741 41.4452 35.096 41.4437 34.6134C41.4422 34.1308 41.3447 33.6533 41.1568 33.2088C40.969 32.7642 40.6945 32.3615 40.3494 32.0242C40.0043 31.6868 39.5955 31.4214 39.1469 31.2436C38.6982 31.0658 38.2186 30.9791 37.7361 30.9885C37.2536 30.9979 36.7778 31.1033 36.3364 31.2985C35.895 31.4936 35.4969 31.7747 35.1652 32.1253L30.8052 36.588L29.0719 33.2546C28.6489 32.4372 28.0091 31.7521 27.2225 31.2743C26.4359 30.7965 25.5329 30.5445 24.6126 30.546L12.6992 30.528C7.73789 30.528 3.69922 34.5646 3.69922 39.528V48.1373C3.69992 48.7276 3.93475 49.2936 4.35217 49.711C4.7696 50.1284 5.33555 50.3632 5.92589 50.364H24.1999C24.7902 50.3632 25.356 50.1284 25.7734 49.711C26.1907 49.2935 26.4254 48.7276 26.4259 48.1373V43.8433C26.8162 44.3805 27.3191 44.8261 27.8994 45.149C28.4797 45.4718 29.1235 45.6642 29.7858 45.7126C30.4481 45.7611 31.113 45.6644 31.7341 45.4294C32.3552 45.1944 32.9175 44.8267 33.3819 44.352L37.3152 40.326H54.0739C54.6642 40.3253 55.2302 40.0904 55.6476 39.673C56.065 39.2556 56.2999 38.6896 56.3006 38.0993L56.2999 11.8673ZM29.7666 43.5686C29.3865 43.5116 29.0253 43.3655 28.7124 43.1423C28.3996 42.919 28.144 42.6249 27.9666 42.284C27.9666 42.284 26.3112 39.104 26.3106 39.104C26.2137 38.9205 26.0658 38.769 25.8846 38.6678C25.7035 38.5666 25.4969 38.5202 25.2899 38.534C25.0725 38.5513 24.8653 38.6337 24.6954 38.7705C24.5255 38.9072 24.4007 39.0919 24.3372 39.3006C24.309 39.3963 24.2947 39.4955 24.2946 39.5953V48.1373C24.2946 48.1619 24.2848 48.1854 24.2674 48.2028C24.25 48.2202 24.2265 48.23 24.2019 48.23H10.9726V39.5933C10.9726 39.3104 10.8602 39.0391 10.6601 38.839C10.4601 38.639 10.1888 38.5266 9.90589 38.5266C9.62299 38.5266 9.35168 38.639 9.15164 38.839C8.9516 39.0391 8.83922 39.3104 8.83922 39.5933V48.23H5.92589C5.90125 48.23 5.87761 48.2202 5.86012 48.2029C5.84264 48.1855 5.83273 48.1619 5.83255 48.1373V39.528C5.83449 37.7074 6.55857 35.962 7.8459 34.6746C9.13323 33.3873 10.8787 32.6632 12.6992 32.6613L24.6112 32.68C25.1414 32.679 25.6617 32.8241 26.1148 33.0994C26.568 33.3747 26.9365 33.7696 27.1799 34.2406L29.5932 38.878C29.671 39.0276 29.7832 39.1566 29.9205 39.2545C30.0578 39.3524 30.2164 39.4163 30.3832 39.441C30.55 39.4657 30.7203 39.4505 30.8801 39.3967C31.0399 39.3429 31.1847 39.2519 31.3026 39.1313L36.6912 33.6146C36.9701 33.33 37.3505 33.1677 37.7489 33.1632C38.1474 33.1587 38.5313 33.3124 38.8166 33.5906C39.0964 33.8722 39.2555 34.2518 39.26 34.6488C39.2645 35.0457 39.114 35.4288 38.8406 35.7166L31.8586 42.8606C31.5895 43.1348 31.2594 43.3416 30.8953 43.464C30.5312 43.5865 30.1433 43.6212 29.7632 43.5653L29.7666 43.5686ZM20.9199 23.2273C20.92 23.8712 20.7292 24.5008 20.3714 25.0362C20.0137 25.5717 19.5053 25.9891 18.9103 26.2355C18.3154 26.4819 17.6607 26.5464 17.0291 26.4207C16.3976 26.295 15.8175 25.9848 15.3622 25.5294C14.907 25.0739 14.597 24.4937 14.4716 23.8621C14.3461 23.2304 14.4109 22.5758 14.6575 21.981C14.9042 21.3861 15.3218 20.8778 15.8574 20.5203C16.393 20.1628 17.0226 19.9722 17.6666 19.9726C18.5292 19.974 19.3561 20.3174 19.9659 20.9275C20.5758 21.5376 20.9188 22.3647 20.9199 23.2273Z" fill="#747CA0"/>
<path d="M31.7073 17.356H46.4953C46.7782 17.356 47.0495 17.2436 47.2495 17.0436C47.4496 16.8435 47.562 16.5722 47.562 16.2893C47.562 16.0064 47.4496 15.7351 47.2495 15.5351C47.0495 15.335 46.7782 15.2227 46.4953 15.2227H31.7073C31.4244 15.2227 31.1531 15.335 30.953 15.5351C30.753 15.7351 30.6406 16.0064 30.6406 16.2893C30.6406 16.5722 30.753 16.8435 30.953 17.0436C31.1531 17.2436 31.4244 17.356 31.7073 17.356Z" fill="#4064DF"/>
<path d="M31.596 22.5513H46.6066C46.8895 22.5513 47.1608 22.4389 47.3609 22.2389C47.5609 22.0388 47.6733 21.7675 47.6733 21.4846C47.6733 21.2017 47.5609 20.9304 47.3609 20.7304C47.1608 20.5303 46.8895 20.418 46.6066 20.418H31.596C31.3131 20.418 31.0418 20.5303 30.8417 20.7304C30.6417 20.9304 30.5293 21.2017 30.5293 21.4846C30.5293 21.7675 30.6417 22.0388 30.8417 22.2389C31.0418 22.4389 31.3131 22.5513 31.596 22.5513Z" fill="#4064DF"/>
<path d="M46.6065 25.4082H38.1272C37.8443 25.4082 37.573 25.5206 37.373 25.7206C37.1729 25.9207 37.0605 26.192 37.0605 26.4749C37.0605 26.7578 37.1729 27.0291 37.373 27.2291C37.573 27.4292 37.8443 27.5415 38.1272 27.5415H46.6065C46.8894 27.5415 47.1608 27.4292 47.3608 27.2291C47.5608 27.0291 47.6732 26.7578 47.6732 26.4749C47.6732 26.192 47.5608 25.9207 47.3608 25.7206C47.1608 25.5206 46.8894 25.4082 46.6065 25.4082Z" fill="#4064DF"/>
</svg>
