<svg width="132" height="132" viewBox="0 0 132 132" fill="none" xmlns="http://www.w3.org/2000/svg">
<path d="M36.2961 78.88H37.4173C38.9591 78.88 39.9402 78.18 39.9402 77.06C39.9402 75.94 39.2394 75.38 37.8378 75.38C36.9969 75.38 36.7165 75.38 36.4362 75.52L36.2961 78.88ZM32.2315 72.86C33.3528 72.72 35.1748 72.58 37.2772 72.58C39.6598 72.58 41.3417 72.86 42.463 73.7C43.4441 74.4 44.0047 75.38 44.0047 76.78C44.0047 78.6 42.6032 79.86 41.3417 80.28V80.42C42.3228 80.84 42.8835 81.68 43.3039 82.94C43.7244 84.34 44.285 86.44 44.5654 87H40.3606C40.0803 86.58 39.8 85.46 39.2394 83.78C38.8189 82.1 38.2583 81.68 36.9969 81.68H36.2961V87H32.2315V72.86Z" fill="#747DA1"/>
<path d="M56.0583 81.12H50.5921V83.78H56.7591V87H46.3874V72.58H56.3386V75.8H50.5921V78.04H56.0583V81.12Z" fill="#747DA1"/>
<path d="M66.4299 80.7L65.7291 78.18C65.4488 77.34 65.1685 76.22 65.0284 75.38C64.748 76.22 64.6079 77.48 64.3276 78.18L63.6268 80.7H66.4299ZM63.0661 83.64L62.2252 87H58.0205L62.5055 72.72H67.9717L72.4567 87H67.9717L66.9906 83.64H63.0661Z" fill="#747DA1"/>
<path d="M85.3512 86.58C84.7906 86.86 83.389 87.14 81.4268 87.14C75.6803 87.14 73.1575 83.78 73.1575 80C73.1575 74.96 77.0819 72.3 81.7071 72.3C83.5291 72.3 84.9307 72.58 85.6315 73L84.7906 76.08C84.0898 75.8 83.1087 75.52 81.9874 75.52C79.6047 75.52 77.5024 76.78 77.5024 79.72C77.5024 82.38 79.1843 83.92 81.9874 83.92C82.9685 83.92 84.0898 83.78 84.7906 83.5L85.3512 86.58Z" fill="#747DA1"/>
<path d="M91.6583 72.58V77.9H96.7039V72.58H100.769V87H96.7039V81.26H91.6583V87H87.5937V72.58H91.6583Z" fill="#747DA1"/>
<path d="M49.3307 45.84C51.1528 47.52 53.115 49.34 54.937 51.16C56.7591 52.98 58.4409 54.94 60.1228 56.9C60.1228 56.9 60.263 56.76 60.263 56.62C62.3654 52.7 64.8882 49.34 67.6913 45.98C71.4756 41.36 75.4 37.16 79.7449 33.1C81.0063 31.84 82.2677 30.72 83.6693 29.46C83.8095 29.32 83.9496 29.18 84.0898 29.04C85.4913 32.12 87.1732 35.06 89.2756 37.72C89.2756 37.86 89.1354 37.86 88.9953 38C87.1732 39.54 85.211 40.8 83.5291 42.48C80.3055 45.84 77.0819 49.2 73.9984 52.7C71.3354 55.92 68.6724 59.28 66.1496 62.5C64.3276 64.88 62.6457 67.4 60.9638 69.92C60.8236 70.2 60.6835 70.34 60.5433 70.62C55.6378 64.18 49.8913 58.44 43.5843 53.4C45.4063 50.88 47.3685 48.36 49.3307 45.84Z" fill="#747DA1"/>
<path d="M39.0992 101.14C38.8189 101.28 38.1181 101.42 37.4173 101.42C34.1937 101.42 32.9323 98.9 32.9323 95.96C32.9323 91.9 35.315 90.08 37.6976 90.08C38.5386 90.08 39.0992 90.22 39.2394 90.36L38.8189 92.46C38.5386 92.32 38.2583 92.18 37.8378 92.18C36.5764 92.18 35.5953 93.16 35.5953 95.68C35.5953 98.06 36.5764 99.04 37.8378 99.04C38.1181 99.04 38.5386 99.04 38.8189 98.9L39.0992 101.14Z" fill="#747DA1"/>
<path d="M42.1827 95.68C42.1827 98.34 42.6031 99.18 43.3039 99.18C44.0047 99.18 44.285 97.92 44.285 95.54C44.285 93.58 44.0047 92.18 43.1638 92.18C42.6032 92.32 42.1827 93.3 42.1827 95.68ZM46.948 95.54C46.948 99.74 45.4063 101.42 43.1638 101.42C40.3606 101.42 39.3795 98.48 39.3795 95.68C39.3795 92.88 40.5008 90.08 43.3039 90.08C46.3874 90.08 46.948 93.44 46.948 95.54Z" fill="#747DA1"/>
<path d="M55.2173 97.78C55.2173 96.94 55.0772 95.54 55.0772 94.42C54.937 95.54 54.6567 96.94 54.3764 97.64L53.5354 101.14H51.7134L51.0126 97.64C50.8724 96.94 50.5921 95.54 50.452 94.42C50.452 95.54 50.3118 96.94 50.3118 97.78L50.0315 101.28H47.789L48.6299 90.08H51.4331L52.1339 93.58C52.4142 94.98 52.6945 96.24 52.8346 97.5C52.9748 96.24 53.2551 94.98 53.5354 93.58L54.2362 90.08H57.0394L57.7402 101.28H55.4976L55.2173 97.78Z" fill="#747DA1"/>
<path d="M61.8047 95.26C61.9449 95.26 61.9449 95.26 62.085 95.26C63.0661 95.26 63.4866 94.56 63.4866 93.72C63.4866 92.88 63.0661 92.18 62.2252 92.18C62.085 92.18 61.9449 92.18 61.8047 92.32V95.26ZM59.1417 90.36C59.8425 90.22 60.6835 90.08 61.6646 90.08C63.0661 90.08 64.1874 90.22 65.0284 90.92C65.7291 91.48 66.0094 92.46 66.0094 93.44C66.0094 94.7 65.589 95.68 64.8882 96.24C64.1874 96.94 62.926 97.22 62.085 97.22H61.6646V101.14H59.1417V90.36Z" fill="#747DA1"/>
<path d="M67.2709 90.22H69.7937V99.18H72.5969V101.28H67.2709V90.22Z" fill="#747DA1"/>
<path d="M76.3811 90.22H73.8583V101.42H76.3811V90.22Z" fill="#747DA1"/>
<path d="M81.8472 97.08L81.5669 94.98C81.4268 94.28 81.2866 93.16 81.2866 92.46C81.1465 93.16 81.0063 94.42 80.8661 94.98L80.5858 97.08H81.8472ZM80.3055 99.18L79.885 101.42H77.3622L79.7449 90.22H82.8284L84.9307 101.42H82.4079L81.9874 99.18H80.3055Z" fill="#747DA1"/>
<path d="M86.052 101.28V90.08H88.4346L89.9764 94C90.2567 94.7 90.8173 96.1 91.0976 96.94C90.9575 95.96 90.8173 93.86 90.8173 91.76V89.94H93.0598V101.14H90.6772L89.2756 97.5C88.9953 96.66 88.4346 95.12 88.1543 94.42C88.1543 95.4 88.2945 97.22 88.2945 99.46V101.42C88.2945 101.28 86.052 101.28 86.052 101.28Z" fill="#747DA1"/>
<path d="M96.2835 92.6H94.3213V90.22H100.769V92.6H98.8063V101.28H96.2835V92.6Z" fill="#747DA1"/>
<path d="M36.4362 27.08C30.1291 27.08 25.0835 32.12 25.0835 38.42V93.58C25.0835 99.88 30.1291 104.92 36.4362 104.92H96.5638C102.871 104.92 107.917 99.88 107.917 93.58V38.42C107.917 32.12 102.871 27.08 96.5638 27.08H36.4362ZM96.5638 108H36.4362C28.4472 108 22 101.56 22 93.58V38.42C22 30.44 28.4472 24 36.4362 24H96.5638C104.553 24 111 30.44 111 38.42V93.58C110.86 101.56 104.413 108 96.5638 108Z" fill="#747DA1"/>
</svg>
