<svg width="51" height="50" viewBox="0 0 51 50" fill="none" xmlns="http://www.w3.org/2000/svg">
<path d="M25.0547 0.5C31.6145 0.5 37.7788 3.0478 42.418 7.67676C47.0562 12.3049 49.6093 18.4555 49.6094 25C49.6094 25.3068 49.6017 25.6132 49.5898 25.9189C49.3985 25.8539 49.2079 25.7864 49.0186 25.7148C49.0261 25.4782 49.0322 25.2399 49.0322 25C49.032 11.8053 38.2755 1.07422 25.0547 1.07422C11.8338 1.07427 1.07715 11.8051 1.07715 25C1.07736 38.1947 11.8347 48.9257 25.0547 48.9258C29.4827 48.9258 33.6335 47.7179 37.1973 45.6201C37.3483 45.7613 37.5038 45.8978 37.6611 46.0322C33.8917 48.2914 29.5677 49.5 25.0537 49.5C18.494 49.4999 12.3297 46.9523 7.69141 42.3242C3.05306 37.6959 0.5 31.5455 0.5 25C0.500102 18.4547 3.05317 12.304 7.69141 7.67578C12.3297 3.04766 18.4949 0.500023 25.0547 0.5Z" fill="white" stroke="white"/>
</svg>
