<svg width="14" height="9" viewBox="0 0 14 9" fill="none" xmlns="http://www.w3.org/2000/svg">
<path d="M4.79578 8.29651C5.06912 8.54108 5.50552 8.53149 5.77408 8.25815L12.8332 1.19904C13.0921 0.925693 13.0826 0.484499 12.8092 0.211151C12.5311 -0.0621979 12.0947 -0.0717895 11.8069 0.191968L5.26574 6.73315L1.25663 2.72404C1.11277 2.57058 0.930534 2.48905 0.733915 2.48426C0.724324 2.48426 0.714733 2.48426 0.705142 2.48426C0.52291 2.48426 0.340677 2.56099 0.211196 2.69526C0.0817154 2.82954 -0.0046054 3.02136 0.000190182 3.21798C0.000190182 3.4146 0.0865114 3.60163 0.230379 3.73111L4.79098 8.29171L4.79578 8.29651Z" fill="white"/>
</svg>
