<svg width="42" height="42" viewBox="0 0 42 42" fill="none" xmlns="http://www.w3.org/2000/svg">
<path d="M39.9635 15.1296C40.4757 16.9147 40.75 18.8003 40.75 20.75C40.75 31.9829 31.9829 40.75 20.75 40.75C18.8003 40.75 16.9147 40.4757 15.1296 39.9635M1.53653 26.3704C1.02432 24.5853 0.75 22.6997 0.75 20.75C0.75 9.51712 9.51712 0.75 20.75 0.75C22.6997 0.75 24.5853 1.02432 26.3704 1.53653M8.76517 32.7348L32.7348 8.76517M38.5217 6.36814C38.5217 8.24029 37.004 9.75797 35.1319 9.75797C33.2597 9.75797 31.742 8.24029 31.742 6.36814C31.742 4.49598 33.2597 2.97831 35.1319 2.97831C37.004 2.97831 38.5217 4.49598 38.5217 6.36814ZM9.75797 35.1319C9.75797 37.004 8.24029 38.5217 6.36814 38.5217C4.49598 38.5217 2.97831 37.004 2.97831 35.1319C2.97831 33.2597 4.49598 31.742 6.36814 31.742C8.24029 31.742 9.75797 33.2597 9.75797 35.1319Z" stroke="#4064DF" stroke-width="1.5" stroke-miterlimit="10" stroke-linecap="round" stroke-linejoin="round"/>
</svg>
