<svg width="24" height="28" viewBox="0 0 24 28" fill="none" xmlns="http://www.w3.org/2000/svg">
<path d="M1.25394 4.45542C3.90793 4.57898 6.6337 3.89587 8.99271 2.71145C9.73725 2.33763 11.1285 1.24843 11.8668 1.25C12.7201 1.25158 13.3976 1.93468 14.1043 2.30929C16.177 3.40872 18.5029 4.28858 20.873 4.46015C21.1782 4.48218 22.4133 4.37279 22.5285 4.53727C22.4898 7.39877 22.7091 10.387 22.5695 13.2367C22.3163 18.408 19.3981 22.934 14.6264 25.0235C14.0239 25.2871 12.3904 25.9262 11.791 25.8955C11.3391 25.8726 10.1923 25.4532 9.72226 25.273C5.04761 23.4881 1.73821 19.1761 1.25 14.1874L1.25315 4.45542H1.25394Z" stroke="white" stroke-width="2.5" stroke-linecap="round" stroke-linejoin="round"/>
</svg>
