<svg width="491" height="487" viewBox="0 0 491 487" fill="none" xmlns="http://www.w3.org/2000/svg">
<mask id="path-1-inside-1_2638_13037" fill="white">
<path fill-rule="evenodd" clip-rule="evenodd" d="M68.0412 75.6135C112.789 29.0159 175.681 0 245.316 0C359.454 0 455.447 77.9495 483.276 183.685C483.276 183.685 397.091 185.038 342.658 177.538C282.34 169.177 247.891 161.924 191.128 139.916C140.618 120.367 68.1638 75.6135 68.1638 75.6135M489.038 213.193C488.18 207.046 487.2 201.021 485.851 194.997C485.851 194.997 364.848 196.718 288.838 184.915C206.453 172.128 158.395 163.645 82.6302 128.727C66.4474 121.227 57.4979 115.818 41.8055 108.072C33.4689 120.244 26.2357 133.276 20.2285 146.924C20.2285 146.924 68.1638 163.153 99.3034 171.514C165.628 189.218 204.491 194.013 272.533 202.128C356.389 212.21 488.916 213.193 488.916 213.193M274.862 236.062L491 237.045C490.877 232.988 490.632 228.931 490.264 224.873C490.264 224.873 348.052 225.98 257.698 217.988C159.744 209.259 102.001 199.423 8.45918 179.505C4.16829 194.874 1.22597 210.857 0 227.332L274.862 236.062ZM68.0412 411.387C112.789 457.984 175.681 487 245.194 487C359.331 487 455.324 409.051 483.154 303.315C483.154 303.315 396.968 301.962 342.535 309.462C282.218 317.823 247.768 325.077 191.006 347.084C140.496 366.633 68.0412 411.387 68.0412 411.387ZM272.655 284.872C204.491 293.11 165.751 297.782 99.426 315.486C68.1638 323.847 20.3511 340.076 20.3511 340.076C26.3583 353.724 33.5915 366.756 41.9281 378.928C57.6205 371.059 66.57 365.773 82.7528 358.273C158.395 323.355 206.576 314.872 288.961 302.085C364.971 290.282 485.974 292.003 485.974 292.003C487.2 285.979 488.303 279.954 489.161 273.807C489.161 273.807 356.634 274.79 272.778 284.872M0 259.668C1.22597 276.143 4.16829 292.126 8.45918 307.495C102.123 287.577 159.744 277.741 257.698 269.012C348.052 261.02 490.264 262.127 490.264 262.127C490.632 258.069 490.877 254.135 491 250.078L274.862 250.938L0 259.668Z"/>
</mask>
<path fill-rule="evenodd" clip-rule="evenodd" d="M68.0412 75.6135C112.789 29.0159 175.681 0 245.316 0C359.454 0 455.447 77.9495 483.276 183.685C483.276 183.685 397.091 185.038 342.658 177.538C282.34 169.177 247.891 161.924 191.128 139.916C140.618 120.367 68.1638 75.6135 68.1638 75.6135M489.038 213.193C488.18 207.046 487.2 201.021 485.851 194.997C485.851 194.997 364.848 196.718 288.838 184.915C206.453 172.128 158.395 163.645 82.6302 128.727C66.4474 121.227 57.4979 115.818 41.8055 108.072C33.4689 120.244 26.2357 133.276 20.2285 146.924C20.2285 146.924 68.1638 163.153 99.3034 171.514C165.628 189.218 204.491 194.013 272.533 202.128C356.389 212.21 488.916 213.193 488.916 213.193M274.862 236.062L491 237.045C490.877 232.988 490.632 228.931 490.264 224.873C490.264 224.873 348.052 225.98 257.698 217.988C159.744 209.259 102.001 199.423 8.45918 179.505C4.16829 194.874 1.22597 210.857 0 227.332L274.862 236.062ZM68.0412 411.387C112.789 457.984 175.681 487 245.194 487C359.331 487 455.324 409.051 483.154 303.315C483.154 303.315 396.968 301.962 342.535 309.462C282.218 317.823 247.768 325.077 191.006 347.084C140.496 366.633 68.0412 411.387 68.0412 411.387ZM272.655 284.872C204.491 293.11 165.751 297.782 99.426 315.486C68.1638 323.847 20.3511 340.076 20.3511 340.076C26.3583 353.724 33.5915 366.756 41.9281 378.928C57.6205 371.059 66.57 365.773 82.7528 358.273C158.395 323.355 206.576 314.872 288.961 302.085C364.971 290.282 485.974 292.003 485.974 292.003C487.2 285.979 488.303 279.954 489.161 273.807C489.161 273.807 356.634 274.79 272.778 284.872M0 259.668C1.22597 276.143 4.16829 292.126 8.45918 307.495C102.123 287.577 159.744 277.741 257.698 269.012C348.052 261.02 490.264 262.127 490.264 262.127C490.632 258.069 490.877 254.135 491 250.078L274.862 250.938L0 259.668Z" fill="#4064DF" fill-opacity="0.1"/>
<path d="M483.276 183.685L483.292 184.685L484.568 184.665L484.243 183.431L483.276 183.685ZM342.658 177.538L342.521 178.529L342.521 178.529L342.658 177.538ZM191.128 139.916L191.49 138.983L191.489 138.983L191.128 139.916ZM485.851 194.997L486.827 194.778L486.649 193.985L485.837 193.997L485.851 194.997ZM288.838 184.915L288.991 183.927H288.991L288.838 184.915ZM82.6302 128.727L82.2097 129.635L82.2117 129.636L82.6302 128.727ZM41.8055 108.072L42.2481 107.175L41.4705 106.791L40.9805 107.507L41.8055 108.072ZM20.2285 146.924L19.3132 146.521L18.8731 147.521L19.9078 147.871L20.2285 146.924ZM99.3034 171.514L99.0441 172.479L99.0455 172.48L99.3034 171.514ZM272.533 202.128L272.652 201.135L272.651 201.135L272.533 202.128ZM274.862 236.062L274.83 237.061L274.844 237.062L274.857 237.062L274.862 236.062ZM491 237.045L490.995 238.045L492.031 238.05L492 237.015L491 237.045ZM490.264 224.873L491.26 224.783L491.177 223.866L490.257 223.873L490.264 224.873ZM257.698 217.988L257.61 218.984L257.61 218.984L257.698 217.988ZM8.45918 179.505L8.66744 178.527L7.74863 178.331L7.49601 179.236L8.45918 179.505ZM0 227.332L-0.997243 227.258L-1.07468 228.299L-0.0317431 228.332L0 227.332ZM68.0412 411.387L67.5157 410.536L66.4625 411.186L67.3199 412.079L68.0412 411.387ZM483.154 303.315L484.121 303.569L484.446 302.335L483.17 302.315L483.154 303.315ZM342.535 309.462L342.399 308.471L342.398 308.471L342.535 309.462ZM191.006 347.084L191.367 348.017L191.367 348.017L191.006 347.084ZM99.426 315.486L99.1681 314.52L99.1676 314.52L99.426 315.486ZM20.3511 340.076L20.0296 339.129L18.9961 339.48L19.4358 340.479L20.3511 340.076ZM41.9281 378.928L41.1031 379.493L41.5962 380.213L42.3763 379.822L41.9281 378.928ZM82.7528 358.273L82.3337 357.365L82.3323 357.365L82.7528 358.273ZM288.961 302.085L289.114 303.073H289.114L288.961 302.085ZM485.974 292.003L485.959 293.003L486.788 293.015L486.953 292.203L485.974 292.003ZM489.161 273.807L490.151 273.945L490.312 272.798L489.154 272.807L489.161 273.807ZM0 259.668L-0.0317431 258.668L-1.07468 258.701L-0.997243 259.742L0 259.668ZM8.45918 307.495L7.49601 307.764L7.74856 308.668L8.66718 308.473L8.45918 307.495ZM257.698 269.012L257.61 268.016L257.61 268.016L257.698 269.012ZM490.264 262.127L490.257 263.127L491.177 263.134L491.26 262.217L490.264 262.127ZM491 250.078L492 250.108L492.031 249.074L490.996 249.078L491 250.078ZM274.862 250.938L274.858 249.938L274.844 249.938L274.83 249.939L274.862 250.938ZM68.0412 75.6135L68.7625 76.3061C113.33 29.8964 175.965 1 245.316 1V0V-1C175.397 -1 112.248 28.1354 67.3199 74.9208L68.0412 75.6135ZM245.316 0V1C358.986 1 454.592 78.6305 482.309 183.94L483.276 183.685L484.243 183.431C456.302 77.2685 359.921 -1 245.316 -1V0ZM483.276 183.685C483.261 182.686 483.26 182.686 483.26 182.686C483.259 182.686 483.258 182.686 483.257 182.686C483.254 182.686 483.251 182.686 483.245 182.686C483.235 182.686 483.219 182.686 483.199 182.686C483.157 182.687 483.095 182.688 483.013 182.689C482.849 182.691 482.604 182.695 482.283 182.699C481.639 182.707 480.688 182.718 479.458 182.729C476.997 182.751 473.421 182.775 468.958 182.78C460.034 182.789 447.567 182.724 433.401 182.424C405.057 181.825 369.951 180.289 342.794 176.547L342.658 177.538L342.521 178.529C369.798 182.287 405.001 183.824 433.358 184.424C447.543 184.724 460.024 184.789 468.96 184.78C473.429 184.775 477.011 184.751 479.476 184.729C480.709 184.718 481.662 184.707 482.308 184.699C482.631 184.695 482.876 184.691 483.042 184.689C483.124 184.688 483.187 184.687 483.229 184.686C483.25 184.686 483.265 184.686 483.276 184.686C483.281 184.685 483.285 184.685 483.288 184.685C483.289 184.685 483.29 184.685 483.291 184.685C483.292 184.685 483.292 184.685 483.276 183.685ZM342.658 177.538L342.795 176.547C282.53 168.194 248.16 160.955 191.49 138.983L191.128 139.916L190.767 140.848C247.621 162.892 282.151 170.161 342.521 178.529L342.658 177.538ZM191.128 139.916L191.489 138.983C166.303 129.235 135.612 113.188 111.192 99.5605C98.988 92.7499 88.3606 86.5494 80.7845 82.0518C76.9966 79.803 73.9718 77.9801 71.8945 76.7197C70.8558 76.0895 70.054 75.5999 69.5121 75.2681C69.2412 75.1021 69.0352 74.9756 68.8971 74.8907C68.8281 74.8482 68.776 74.8161 68.7412 74.7947C68.7239 74.784 68.7108 74.776 68.7021 74.7706C68.6978 74.7679 68.6946 74.7659 68.6924 74.7646C68.6914 74.764 68.6906 74.7635 68.69 74.7631C68.6895 74.7628 68.6893 74.7627 68.1638 75.6135C67.6383 76.4643 67.6386 76.4645 67.6392 76.4648C67.6398 76.4652 67.6407 76.4657 67.6418 76.4664C67.6441 76.4678 67.6474 76.4699 67.6519 76.4727C67.6608 76.4782 67.6741 76.4864 67.6918 76.4973C67.7271 76.519 67.7797 76.5514 67.8493 76.5942C67.9884 76.6798 68.1955 76.807 68.4676 76.9736C69.0117 77.3069 69.8159 77.7979 70.857 78.4296C72.9393 79.693 75.9696 81.5192 79.7636 83.7715C87.3512 88.276 97.9944 94.4857 110.218 101.307C134.652 114.943 165.444 131.047 190.767 140.848L191.128 139.916ZM489.038 213.193L490.029 213.055C489.169 206.894 488.184 200.84 486.827 194.778L485.851 194.997L484.875 195.215C486.215 201.203 487.192 207.198 488.048 213.331L489.038 213.193ZM485.851 194.997C485.837 193.997 485.836 193.997 485.835 193.997C485.835 193.997 485.833 193.997 485.831 193.997C485.828 193.997 485.822 193.997 485.815 193.997C485.801 193.997 485.779 193.998 485.75 193.998C485.691 193.999 485.604 194 485.489 194.001C485.258 194.004 484.915 194.008 484.463 194.013C483.559 194.023 482.223 194.036 480.496 194.048C477.042 194.072 472.021 194.093 465.758 194.081C453.233 194.058 435.741 193.905 415.874 193.382C376.13 192.337 326.93 189.818 288.991 183.927L288.838 184.915L288.685 185.903C326.756 191.815 376.062 194.336 415.822 195.382C435.708 195.904 453.217 196.058 465.755 196.081C472.024 196.093 477.05 196.072 480.51 196.048C482.24 196.036 483.578 196.023 484.484 196.013C484.937 196.008 485.282 196.004 485.514 196.001C485.63 196 485.718 195.999 485.776 195.998C485.806 195.997 485.828 195.997 485.843 195.997C485.85 195.997 485.856 195.997 485.859 195.997C485.861 195.997 485.863 195.997 485.864 195.997C485.865 195.997 485.865 195.997 485.851 194.997ZM288.838 184.915L288.991 183.927C206.631 171.144 158.684 162.677 83.0488 127.819L82.6302 128.727L82.2117 129.636C158.106 164.613 206.275 173.113 288.685 185.903L288.838 184.915ZM82.6302 128.727L83.0507 127.82C66.8546 120.314 58.0401 114.97 42.2481 107.175L41.8055 108.072L41.3629 108.969C56.9557 116.665 66.0402 122.141 82.2097 129.635L82.6302 128.727ZM41.8055 108.072L40.9805 107.507C32.6083 119.731 25.345 132.818 19.3132 146.521L20.2285 146.924L21.1437 147.327C27.1264 133.735 34.3295 120.757 42.6305 108.637L41.8055 108.072ZM20.2285 146.924C19.9078 147.871 19.908 147.871 19.9084 147.871C19.9087 147.871 19.9093 147.871 19.91 147.872C19.9115 147.872 19.9137 147.873 19.9167 147.874C19.9226 147.876 19.9313 147.879 19.9429 147.883C19.9662 147.891 20.0009 147.902 20.0469 147.918C20.1387 147.949 20.2754 147.995 20.455 148.056C20.8141 148.177 21.3447 148.355 22.031 148.586C23.4035 149.046 25.3987 149.713 27.8901 150.539C32.8728 152.192 39.8409 154.483 47.7826 157.035C63.6617 162.139 83.4496 168.292 99.0441 172.479L99.3034 171.514L99.5627 170.548C84.0176 166.374 64.268 160.233 48.3946 155.131C40.46 152.581 33.498 150.292 28.5198 148.641C26.0307 147.815 24.0376 147.149 22.667 146.689C21.9818 146.459 21.4521 146.281 21.0938 146.16C20.9147 146.1 20.7784 146.054 20.687 146.023C20.6413 146.008 20.6068 145.996 20.5837 145.988C20.5722 145.984 20.5635 145.981 20.5577 145.979C20.5549 145.979 20.5527 145.978 20.5513 145.977C20.5505 145.977 20.55 145.977 20.5497 145.977C20.5493 145.977 20.5491 145.977 20.2285 146.924ZM99.3034 171.514L99.0455 172.48C165.442 190.203 204.364 195.005 272.414 203.121L272.533 202.128L272.651 201.135C204.619 193.021 165.814 188.233 99.5613 170.547L99.3034 171.514ZM272.533 202.128L272.413 203.121C314.386 208.167 368.517 210.934 412.136 212.441C433.949 213.194 453.141 213.632 466.88 213.882C473.75 214.007 479.256 214.085 483.045 214.131C484.94 214.154 486.405 214.17 487.397 214.18C487.893 214.184 488.271 214.188 488.525 214.19C488.651 214.191 488.747 214.192 488.812 214.192C488.844 214.193 488.868 214.193 488.884 214.193C488.892 214.193 488.898 214.193 488.902 214.193C488.904 214.193 488.906 214.193 488.907 214.193C488.908 214.193 488.908 214.193 488.916 213.193C488.923 212.193 488.923 212.193 488.922 212.193C488.921 212.193 488.919 212.193 488.917 212.193C488.913 212.193 488.907 212.193 488.899 212.193C488.883 212.193 488.859 212.193 488.828 212.192C488.764 212.192 488.668 212.191 488.542 212.19C488.289 212.188 487.912 212.185 487.417 212.18C486.427 212.17 484.963 212.155 483.07 212.131C479.284 212.085 473.782 212.007 466.916 211.882C453.186 211.632 434.005 211.195 412.205 210.442C368.596 208.936 314.536 206.17 272.652 201.135L272.533 202.128ZM274.862 236.062L274.857 237.062L490.995 238.045L491 237.045L491.005 236.045L274.866 235.062L274.862 236.062ZM491 237.045L492 237.015C491.876 232.938 491.63 228.86 491.26 224.783L490.264 224.873L489.269 224.964C489.635 229.001 489.878 233.038 490 237.075L491 237.045ZM490.264 224.873C490.257 223.873 490.256 223.873 490.255 223.873C490.254 223.873 490.252 223.873 490.25 223.873C490.246 223.873 490.24 223.873 490.231 223.874C490.214 223.874 490.188 223.874 490.154 223.874C490.085 223.875 489.983 223.875 489.847 223.876C489.575 223.878 489.171 223.881 488.639 223.884C487.577 223.89 486.005 223.898 483.974 223.905C479.91 223.92 474.004 223.932 466.633 223.921C451.893 223.9 431.298 223.789 407.88 223.428C361.037 222.705 302.925 220.984 257.786 216.992L257.698 217.988L257.61 218.984C302.825 222.983 360.997 224.705 407.849 225.427C431.278 225.789 451.883 225.9 466.631 225.921C474.005 225.932 479.914 225.92 483.981 225.905C486.014 225.898 487.587 225.89 488.651 225.884C489.183 225.881 489.588 225.878 489.861 225.876C489.997 225.875 490.099 225.875 490.168 225.874C490.203 225.874 490.229 225.874 490.246 225.873C490.255 225.873 490.261 225.873 490.266 225.873C490.268 225.873 490.269 225.873 490.271 225.873C490.272 225.873 490.272 225.873 490.264 224.873ZM257.698 217.988L257.787 216.992C159.881 208.267 102.179 198.438 8.66744 178.527L8.45918 179.505L8.25092 180.483C101.822 200.407 159.606 210.25 257.61 218.984L257.698 217.988ZM8.45918 179.505L7.49601 179.236C3.18866 194.664 0.233972 210.712 -0.997243 227.258L0 227.332L0.997243 227.406C2.21796 211.002 5.14792 195.084 9.42234 179.774L8.45918 179.505ZM0 227.332L-0.0317431 228.332L274.83 237.061L274.862 236.062L274.894 235.062L0.0317431 226.333L0 227.332ZM68.0412 411.387L67.3199 412.079C112.248 458.864 175.397 488 245.194 488V487V486C175.965 486 113.33 457.104 68.7625 410.694L68.0412 411.387ZM245.194 487V488C359.799 488 456.179 409.731 484.121 303.569L483.154 303.315L482.187 303.06C454.47 408.37 358.864 486 245.194 486V487ZM483.154 303.315C483.17 302.315 483.169 302.315 483.168 302.315C483.168 302.315 483.167 302.315 483.165 302.315C483.163 302.315 483.159 302.315 483.153 302.314C483.143 302.314 483.127 302.314 483.106 302.314C483.064 302.313 483.002 302.312 482.919 302.311C482.754 302.309 482.508 302.305 482.185 302.301C481.54 302.293 480.586 302.282 479.353 302.271C476.888 302.249 473.306 302.225 468.838 302.22C459.902 302.211 447.42 302.276 433.236 302.576C404.878 303.176 369.676 304.713 342.399 308.471L342.535 309.462L342.672 310.453C369.828 306.711 404.935 305.175 433.278 304.576C447.444 304.276 459.911 304.211 468.836 304.22C473.298 304.225 476.875 304.249 479.335 304.271C480.565 304.282 481.517 304.293 482.16 304.301C482.482 304.305 482.727 304.309 482.891 304.311C482.973 304.312 483.035 304.313 483.076 304.314C483.097 304.314 483.112 304.314 483.123 304.314C483.128 304.314 483.132 304.314 483.134 304.314C483.136 304.314 483.137 304.314 483.137 304.314C483.138 304.314 483.138 304.314 483.154 303.315ZM342.535 309.462L342.398 308.471C282.028 316.839 247.499 324.108 190.644 346.152L191.006 347.084L191.367 348.017C248.038 326.045 282.407 318.806 342.673 310.453L342.535 309.462ZM191.006 347.084L190.645 346.152C165.321 355.953 134.53 372.057 110.095 385.693C97.8718 392.514 87.2286 398.724 79.641 403.228C75.847 405.481 72.8167 407.307 70.7344 408.57C69.6933 409.202 68.8891 409.693 68.345 410.026C68.0729 410.193 67.8658 410.32 67.7267 410.406C67.6571 410.449 67.6045 410.481 67.5692 410.503C67.5515 410.514 67.5382 410.522 67.5293 410.527C67.5248 410.53 67.5215 410.532 67.5192 410.534C67.5181 410.534 67.5172 410.535 67.5166 410.535C67.516 410.536 67.5157 410.536 68.0412 411.387C68.5667 412.237 68.5669 412.237 68.5674 412.237C68.568 412.237 68.5688 412.236 68.5698 412.235C68.572 412.234 68.5752 412.232 68.5795 412.229C68.5882 412.224 68.6013 412.216 68.6186 412.205C68.6534 412.184 68.7055 412.152 68.7745 412.109C68.9126 412.024 69.1186 411.898 69.3895 411.732C69.9314 411.4 70.7332 410.91 71.7719 410.28C73.8492 409.02 76.874 407.197 80.6619 404.948C88.238 400.451 98.8654 394.25 111.07 387.439C135.49 373.812 166.18 357.765 191.367 348.017L191.006 347.084ZM272.655 284.872L272.535 283.879C204.365 292.118 165.565 296.796 99.1681 314.52L99.426 315.486L99.6839 316.453C165.936 298.767 204.618 294.102 272.775 285.865L272.655 284.872ZM99.426 315.486L99.1676 314.52C83.5112 318.707 63.7229 324.861 47.859 329.965C39.9248 332.517 32.9681 334.808 27.9949 336.461C25.5082 337.287 23.5173 337.954 22.1479 338.415C21.4632 338.645 20.9338 338.824 20.5755 338.945C20.3964 339.005 20.26 339.051 20.1684 339.082C20.1226 339.098 20.0879 339.11 20.0647 339.117C20.0531 339.121 20.0444 339.124 20.0385 339.126C20.0356 339.127 20.0334 339.128 20.0319 339.129C20.0312 339.129 20.0306 339.129 20.0302 339.129C20.0298 339.129 20.0296 339.129 20.3511 340.076C20.6725 341.023 20.6726 341.023 20.673 341.023C20.6733 341.023 20.6739 341.023 20.6746 341.022C20.676 341.022 20.6782 341.021 20.6811 341.02C20.6868 341.018 20.6954 341.015 20.7069 341.012C20.7299 341.004 20.7644 340.992 20.81 340.977C20.9012 340.946 21.0371 340.9 21.2158 340.839C21.5731 340.719 22.1015 340.54 22.7853 340.31C24.1527 339.851 26.1414 339.184 28.6257 338.359C33.5943 336.707 40.5447 334.419 48.4714 331.869C64.3294 326.767 84.0785 320.626 99.6843 316.453L99.426 315.486ZM20.3511 340.076L19.4358 340.479C25.4676 354.182 32.7309 367.269 41.1031 379.493L41.9281 378.928L42.7531 378.363C34.4521 366.243 27.249 353.265 21.2663 339.673L20.3511 340.076ZM41.9281 378.928L42.3763 379.822C58.1339 371.921 66.9995 366.676 83.1733 359.18L82.7528 358.273L82.3323 357.365C66.1405 364.869 57.107 370.198 41.4799 378.034L41.9281 378.928ZM82.7528 358.273L83.1719 359.181C158.684 324.323 206.753 315.856 289.114 303.073L288.961 302.085L288.807 301.097C206.398 313.887 158.106 322.387 82.3337 357.365L82.7528 358.273ZM288.961 302.085L289.114 303.073C327.053 297.182 376.253 294.663 415.997 293.618C435.863 293.095 453.355 292.942 465.881 292.919C472.144 292.907 477.164 292.928 480.619 292.952C482.346 292.964 483.682 292.977 484.585 292.987C485.037 292.992 485.381 292.996 485.612 292.999C485.727 293 485.814 293.001 485.872 293.002C485.901 293.002 485.923 293.003 485.938 293.003C485.945 293.003 485.95 293.003 485.954 293.003C485.956 293.003 485.957 293.003 485.958 293.003C485.959 293.003 485.959 293.003 485.974 292.003C485.988 291.003 485.987 291.003 485.986 291.003C485.985 291.003 485.984 291.003 485.982 291.003C485.978 291.003 485.973 291.003 485.965 291.003C485.95 291.003 485.928 291.003 485.899 291.002C485.84 291.001 485.753 291 485.637 290.999C485.405 290.996 485.06 290.992 484.607 290.987C483.701 290.977 482.363 290.964 480.633 290.952C477.173 290.928 472.146 290.907 465.877 290.919C453.339 290.942 435.83 291.096 415.945 291.618C376.185 292.664 326.878 295.185 288.807 301.097L288.961 302.085ZM485.974 292.003L486.953 292.203C488.182 286.166 489.29 280.12 490.151 273.945L489.161 273.807L488.171 273.669C487.316 279.789 486.217 285.792 484.994 291.804L485.974 292.003ZM489.161 273.807C489.154 272.807 489.153 272.807 489.152 272.807C489.151 272.807 489.15 272.807 489.147 272.807C489.143 272.807 489.137 272.807 489.129 272.807C489.113 272.807 489.089 272.807 489.057 272.808C488.993 272.808 488.897 272.809 488.77 272.81C488.516 272.812 488.138 272.816 487.643 272.82C486.651 272.83 485.185 272.846 483.29 272.869C479.501 272.916 473.995 272.993 467.125 273.118C453.387 273.368 434.195 273.806 412.381 274.559C368.762 276.066 314.631 278.833 272.658 283.879L272.778 284.872L272.897 285.865C314.781 280.83 368.841 278.064 412.45 276.558C434.25 275.805 453.431 275.368 467.162 275.118C474.027 274.993 479.529 274.915 483.315 274.869C485.208 274.845 486.672 274.83 487.662 274.82C488.157 274.816 488.534 274.812 488.787 274.81C488.913 274.809 489.009 274.808 489.073 274.808C489.105 274.807 489.129 274.807 489.145 274.807C489.153 274.807 489.159 274.807 489.163 274.807C489.165 274.807 489.166 274.807 489.167 274.807C489.168 274.807 489.169 274.807 489.161 273.807ZM0 259.668L-0.997243 259.742C0.233972 276.288 3.18866 292.336 7.49601 307.764L8.45918 307.495L9.42234 307.226C5.14792 291.916 2.21796 275.998 0.997243 259.594L0 259.668ZM8.45918 307.495L8.66718 308.473C102.301 288.562 159.881 278.733 257.787 270.008L257.698 269.012L257.61 268.016C159.606 276.75 101.945 286.593 8.25118 306.517L8.45918 307.495ZM257.698 269.012L257.786 270.008C302.925 266.016 361.037 264.295 407.88 263.572C431.298 263.211 451.893 263.1 466.633 263.079C474.004 263.068 479.91 263.08 483.974 263.095C486.005 263.102 487.577 263.11 488.639 263.116C489.171 263.119 489.575 263.122 489.847 263.124C489.983 263.125 490.085 263.125 490.154 263.126C490.188 263.126 490.214 263.126 490.231 263.126C490.24 263.127 490.246 263.127 490.25 263.127C490.252 263.127 490.254 263.127 490.255 263.127C490.256 263.127 490.257 263.127 490.264 262.127C490.272 261.127 490.272 261.127 490.271 261.127C490.269 261.127 490.268 261.127 490.266 261.127C490.261 261.127 490.255 261.127 490.246 261.127C490.229 261.126 490.203 261.126 490.168 261.126C490.099 261.125 489.997 261.125 489.861 261.124C489.588 261.122 489.183 261.119 488.651 261.116C487.587 261.11 486.014 261.102 483.981 261.095C479.914 261.08 474.005 261.068 466.631 261.079C451.883 261.1 431.278 261.211 407.849 261.573C360.997 262.295 302.825 264.017 257.61 268.016L257.698 269.012ZM490.264 262.127L491.26 262.217C491.63 258.141 491.876 254.187 492 250.108L491 250.078L490 250.048C489.879 254.084 489.635 257.998 489.269 262.036L490.264 262.127ZM491 250.078L490.996 249.078L274.858 249.938L274.862 250.938L274.866 251.938L491.004 251.078L491 250.078ZM274.862 250.938L274.83 249.939L-0.0317431 258.668L0 259.668L0.0317431 260.667L274.894 251.938L274.862 250.938Z" fill="#4064DF" fill-opacity="0.8" mask="url(#path-1-inside-1_2638_13037)"/>
</svg>
