<svg width="45" height="45" viewBox="0 0 45 45" fill="none" xmlns="http://www.w3.org/2000/svg">
<path d="M32.5 20H26.775L28.325 7.6C28.3667 7.24167 28.175 6.89167 27.8417 6.74167C27.5083 6.59167 27.1167 6.675 26.875 6.94167L11.875 23.6083C11.6583 23.85 11.6 24.2 11.7333 24.5083C11.875 24.8083 12.175 25 12.5 25H18.225L16.675 37.4C16.6333 37.7583 16.825 38.1083 17.1583 38.2583C17.2667 38.3083 17.3833 38.3333 17.5 38.3333C17.7333 38.3333 17.9583 38.2333 18.1167 38.0583L33.1167 21.3917C33.3333 21.15 33.3917 20.8 33.2583 20.4917C33.125 20.1917 32.825 20 32.5 20ZM18.6583 34.9667L19.9917 24.2667C20.025 24.0333 19.95 23.7917 19.7917 23.6083C19.625 23.4333 19.4083 23.3333 19.1667 23.3333H14.375L26.35 10.0333L25.0167 20.7333C24.9833 20.9667 25.0583 21.2083 25.2167 21.3917C25.3667 21.5667 25.5917 21.6667 25.8333 21.6667H30.625L18.6583 34.9667ZM45 22.5C45 10.0917 34.9083 0 22.5 0C10.0917 0 0 10.0917 0 22.5C0 34.9083 10.0917 45 22.5 45C34.9083 45 45 34.9083 45 22.5ZM22.5 43.3333C11.0083 43.3333 1.66667 33.9917 1.66667 22.5C1.66667 11.0083 11.0083 1.66667 22.5 1.66667C33.9917 1.66667 43.3333 11.0083 43.3333 22.5C43.3333 33.9917 33.9917 43.3333 22.5 43.3333Z" fill="white"/>
</svg>
