<svg width="28" height="28" viewBox="0 0 28 28" fill="none" xmlns="http://www.w3.org/2000/svg">
<path d="M25.0492 10.9094C25.0492 8.04063 22.8781 5.71509 20.1998 5.71509H7.79865C5.12037 5.71509 2.94922 8.04063 2.94922 10.9094V17.0906C2.94922 19.9594 5.12037 22.2849 7.79865 22.2849H20.1992C22.8775 22.2849 25.0486 19.9594 25.0486 17.0906L25.0492 10.9094ZM17.7563 14.4629L12.1957 17.41C11.9774 17.5364 11.2367 17.3672 11.2367 17.1018V11.0529C11.2367 10.7843 11.9836 10.6151 12.2018 10.7481L17.5246 13.8499C17.7477 13.9862 17.9819 14.3318 17.7563 14.4629Z" fill="url(#paint0_linear_2655_17452)"/>
<defs>
<linearGradient id="paint0_linear_2655_17452" x1="-2.594" y1="22.2849" x2="-19.1876" y2="22.2849" gradientUnits="userSpaceOnUse">
<stop stop-color="white"/>
<stop offset="1" stop-color="#4064DF"/>
</linearGradient>
</defs>
</svg>
