<svg width="24" height="15" viewBox="0 0 24 15" fill="none" xmlns="http://www.w3.org/2000/svg">
<path d="M0.96622 2.91963C1.49985 2.91963 1.93244 2.44964 1.93244 1.86987C1.93244 1.29011 1.49985 0.82012 0.96622 0.82012C0.432591 0.82012 0 1.29011 0 1.86987C0 2.44964 0.432591 2.91963 0.96622 2.91963Z" fill="#D3DCFE"/>
<path d="M0.96622 11.6462C1.49985 11.6462 1.93244 11.1762 1.93244 10.5965C1.93244 10.0167 1.49985 9.54671 0.96622 9.54671C0.432591 9.54671 0 10.0167 0 10.5965C0 11.1762 0.432591 11.6462 0.96622 11.6462Z" fill="#D3DCFE"/>
<path d="M12.2891 5.37999C12.8227 5.37999 13.2553 4.91 13.2553 4.33023C13.2553 3.75047 12.8227 3.28048 12.2891 3.28048C11.7555 3.28048 11.3229 3.75047 11.3229 4.33023C11.3229 4.91 11.7555 5.37999 12.2891 5.37999Z" fill="#D3DCFE"/>
<path d="M12.2891 14.1066C12.8227 14.1066 13.2553 13.6366 13.2553 13.0568C13.2553 12.4771 12.8227 12.0071 12.2891 12.0071C11.7555 12.0071 11.3229 12.4771 11.3229 13.0568C11.3229 13.6366 11.7555 14.1066 12.2891 14.1066Z" fill="#D3DCFE"/>
<path d="M22.8571 2.09951C23.3908 2.09951 23.8234 1.62952 23.8234 1.04975C23.8234 0.469991 23.3908 0 22.8571 0C22.3235 0 21.8909 0.469991 21.8909 1.04975C21.8909 1.62952 22.3235 2.09951 22.8571 2.09951Z" fill="#D3DCFE"/>
<path d="M17.2901 8.19134C17.8237 8.19134 18.2563 7.72135 18.2563 7.14158C18.2563 6.56182 17.8237 6.09183 17.2901 6.09183C16.7564 6.09183 16.3238 6.56182 16.3238 7.14158C16.3238 7.72135 16.7564 8.19134 17.2901 8.19134Z" fill="#D3DCFE"/>
<path d="M6.58049 8.19114C7.11412 8.19114 7.54671 7.72115 7.54671 7.14139C7.54671 6.56163 7.11412 6.09164 6.58049 6.09164C6.04686 6.09164 5.61427 6.56163 5.61427 7.14139C5.61427 7.72115 6.04686 8.19114 6.58049 8.19114Z" fill="#D3DCFE"/>
<path d="M22.8571 10.8261C23.3908 10.8261 23.8234 10.3561 23.8234 9.77635C23.8234 9.19658 23.3908 8.72659 22.8571 8.72659C22.3235 8.72659 21.8909 9.19658 21.8909 9.77635C21.8909 10.3561 22.3235 10.8261 22.8571 10.8261Z" fill="#D3DCFE"/>
</svg>
