<svg width="112" height="169" viewBox="0 0 112 169" fill="none" xmlns="http://www.w3.org/2000/svg">
<path d="M54.8164 167.49C46.6451 167.49 38.9277 165.901 31.6644 162.723C24.401 159.546 18.0834 155.044 12.7115 149.218C7.41532 143.392 3.59449 136.507 1.24902 128.563L27.6922 121.413C29.5837 127.92 33.0263 132.951 38.0198 136.507C43.089 139.988 48.6501 141.69 54.7029 141.614C60.0747 141.614 64.8792 140.366 69.1161 137.869C73.3531 135.372 76.6821 132.005 79.1032 127.768C81.5244 123.456 82.7349 118.651 82.7349 113.355C82.7349 105.26 80.1247 98.488 74.9041 93.0405C69.6836 87.593 62.9498 84.8692 54.7029 84.8692C52.2061 84.8692 49.7471 85.2097 47.326 85.8906C44.9805 86.5715 42.7107 87.5173 40.5166 88.7279L28.0327 67.1647L82.9619 20.1798L85.3452 26.7623H7.60447V1H107.816V26.8758L63.6686 69.321L63.4416 61.2633C73.3531 61.9442 81.7892 64.7058 88.7499 69.548C95.7863 74.3903 101.158 80.6322 104.866 88.2739C108.649 95.9156 110.54 104.276 110.54 113.355C110.54 123.645 108.005 132.876 102.936 141.047C97.9426 149.218 91.2089 155.687 82.7349 160.454C74.3367 165.145 65.0305 167.49 54.8164 167.49Z" fill="#4064DF" fill-opacity="0.2"/>
<path d="M108.316 0.5V27.0889L108.163 27.2363L72.0576 61.9482C78.4367 63.3105 84.0974 65.7034 89.0322 69.1357H89.0332C96.1393 74.0259 101.568 80.3335 105.313 88.0518C109.133 95.7668 111.04 104.204 111.04 113.355C111.04 123.73 108.483 133.051 103.362 141.307C98.3235 149.552 91.5276 156.082 82.9805 160.89H82.9785C74.5011 165.625 65.1104 167.99 54.8164 167.99C46.5783 167.99 38.7924 166.388 31.4639 163.182C24.1372 159.976 17.7625 155.433 12.3438 149.557L12.3418 149.555C6.9922 143.67 3.13521 136.717 0.769531 128.704L0.625 128.214L1.11816 128.08L27.5615 120.931L28.0352 120.803L28.1719 121.273C30.0346 127.681 33.4145 132.611 38.3027 136.095C43.2883 139.518 48.7485 141.189 54.6963 141.114H54.7031L55.6885 141.1C60.5813 140.956 64.9689 139.733 68.8623 137.438C73.0249 134.986 76.2913 131.681 78.6689 127.521C81.0439 123.289 82.2353 118.571 82.2354 113.355C82.2354 105.378 79.6674 98.7339 74.543 93.3867C69.4261 88.0474 62.8277 85.3692 54.7031 85.3691C52.2537 85.3691 49.841 85.7022 47.4648 86.3701C45.1559 87.0405 42.9203 87.9729 40.7578 89.166L40.3291 89.4023L40.084 88.9785L27.5996 67.415L27.3916 67.0557L27.708 66.7852L73.9121 27.2627H7.10449V0.5H108.316Z" stroke="#4064DF" stroke-opacity="0.6"/>
</svg>
