<svg width="191" height="135" viewBox="0 0 191 135" fill="none" xmlns="http://www.w3.org/2000/svg">
<path d="M79.0303 3.15039V24.1133H28.8164L27.0176 53.8838C29.0069 52.7055 31.1371 51.7321 33.4082 50.9648C37.8108 49.4775 42.0758 48.7305 46.2002 48.7305C54.2274 48.7305 61.3532 50.574 67.5625 54.2744L68.1455 54.6191C74.1271 58.2237 78.8252 63.09 82.2334 69.2119C85.8137 75.5372 87.5986 82.7203 87.5986 90.7471C87.5986 98.7885 85.512 106.096 81.3369 112.657L81.3359 112.658C77.1692 119.146 71.6611 124.325 64.8203 128.191L64.8213 128.192C58.0298 132.065 50.5826 134 42.4902 134C35.942 134 29.8324 132.66 24.168 129.977L24.1641 129.975C18.5082 127.236 13.6244 123.484 9.5166 118.722L9.51367 118.719C5.46064 113.95 2.54203 108.409 0.756836 102.102L0.619141 101.613L1.10938 101.482L21.6025 96.0049L22.0977 95.873L22.2178 96.3711C23.0239 99.7107 24.4881 102.579 26.6074 104.986L27.0225 105.435C29.1183 107.642 31.5153 109.365 34.2148 110.607C37.156 111.934 40.1786 112.595 43.2852 112.595C47.3222 112.595 51.0033 111.615 54.3389 109.66C57.6827 107.7 60.3306 105.08 62.2891 101.797C64.243 98.4623 65.2216 94.7826 65.2217 90.7471C65.2217 86.7128 64.2145 83.0642 62.2041 79.79L62.1982 79.7812C60.24 76.4408 57.5945 73.8244 54.2559 71.9248L54.25 71.9209C50.9134 69.9651 47.2618 68.9864 43.2852 68.9863C38.4563 68.9863 34.4819 69.8586 31.3369 71.5732C28.1908 73.3211 25.8008 75.1713 24.1436 77.1143L23.9277 77.3682L23.6104 77.2666L5.41406 71.4365L5.04492 71.3184L5.06738 70.9316L8.9541 3.62109L8.98145 3.15039H79.0303ZM143.444 0.5C152.526 0.500061 160.533 2.45894 167.448 6.39258C174.419 10.2653 179.874 15.6911 183.806 22.6611C187.74 29.636 189.7 37.6729 189.7 46.7568V87.7432C189.7 96.8271 187.74 104.864 183.806 111.839C179.874 118.808 174.42 124.262 167.451 128.193L167.45 128.194C160.534 132.07 152.527 134 143.444 134C134.362 134 126.325 132.07 119.351 128.195L119.349 128.193C112.379 124.262 106.925 118.808 102.993 111.839L102.992 111.836C99.1175 104.862 97.1875 96.8258 97.1875 87.7432V46.7568C97.1875 37.6742 99.1175 29.6384 102.992 22.6641L102.993 22.6611C106.925 15.6912 112.38 10.2653 119.351 6.39258C126.325 2.45902 134.362 0.5 143.444 0.5ZM143.444 21.5518C139.054 21.5518 135.079 22.6188 131.51 24.749L131.505 24.752C127.929 26.8283 125.106 29.6516 123.029 33.2275L123.028 33.2305C120.958 36.7391 119.917 40.7139 119.917 45.167V89.2451C119.917 93.6365 120.956 97.6113 123.027 101.181C125.103 104.698 127.927 107.523 131.505 109.659C135.075 111.732 139.051 112.771 143.444 112.771C147.837 112.771 151.813 111.732 155.383 109.659C158.961 107.523 161.785 104.698 163.86 101.181C165.932 97.6113 166.971 93.6365 166.971 89.2451V45.167C166.971 40.7139 165.931 36.7391 163.86 33.2305L163.858 33.2275C161.782 29.6516 158.959 26.8283 155.383 24.752L155.378 24.749C151.809 22.6189 147.834 21.5518 143.444 21.5518Z" fill="url(#paint0_linear_1400_6104)" stroke="url(#paint1_linear_1400_6104)"/>
<defs>
<linearGradient id="paint0_linear_1400_6104" x1="6.98288" y1="0.00901232" x2="180.343" y2="122.02" gradientUnits="userSpaceOnUse">
<stop stop-color="#4064DF" stop-opacity="0.8"/>
<stop offset="0.513774" stop-color="#4064DF" stop-opacity="0.2"/>
<stop offset="0.822298" stop-color="#4064DF" stop-opacity="0.2"/>
<stop offset="1" stop-color="#4064DF" stop-opacity="0.2"/>
</linearGradient>
<linearGradient id="paint1_linear_1400_6104" x1="6.98288" y1="0.00901232" x2="180.343" y2="122.02" gradientUnits="userSpaceOnUse">
<stop stop-color="#6A8BFD" stop-opacity="0.9"/>
<stop offset="0.513774" stop-color="#4064DF" stop-opacity="0.5"/>
<stop offset="0.822298" stop-color="#4064DF" stop-opacity="0.5"/>
<stop offset="1" stop-color="#4064DF" stop-opacity="0.5"/>
</linearGradient>
</defs>
</svg>
