<svg width="50" height="50" viewBox="0 0 50 50" fill="none" xmlns="http://www.w3.org/2000/svg">
<g clip-path="url(#clip0_2659_13942)">
<path d="M25.3873 48.0566H2.10938C1.55014 48.0561 1.01397 47.8337 0.618519 47.4383C0.223063 47.0428 0.000620449 46.5067 0 45.9475L0 17.1523C0.000568755 16.5931 0.222988 16.0569 0.61845 15.6614C1.01391 15.266 1.55011 15.0435 2.10938 15.043H6.47656C6.73556 15.043 6.98396 15.1459 7.1671 15.329C7.35024 15.5121 7.45312 15.7605 7.45312 16.0195C7.45312 16.2785 7.35024 16.5269 7.1671 16.7101C6.98396 16.8932 6.73556 16.9961 6.47656 16.9961H2.10938C2.06793 16.9961 2.02819 17.0126 1.99889 17.0419C1.96959 17.0712 1.95312 17.1109 1.95312 17.1523V45.9475C1.95312 45.9889 1.96959 46.0286 1.99889 46.0579C2.02819 46.0872 2.06793 46.1037 2.10938 46.1037H25.3873C25.4287 46.1037 25.4685 46.0872 25.4978 46.0579C25.5271 46.0286 25.5436 45.9889 25.5436 45.9475V17.1523C25.5436 17.1109 25.5271 17.0712 25.4978 17.0419C25.4685 17.0126 25.4287 16.9961 25.3873 16.9961H21.0201C20.7611 16.9961 20.5127 16.8932 20.3296 16.7101C20.1464 16.5269 20.0436 16.2785 20.0436 16.0195C20.0436 15.7605 20.1464 15.5121 20.3296 15.329C20.5127 15.1459 20.7611 15.043 21.0201 15.043H25.3873C25.9466 15.0435 26.4828 15.2659 26.8783 15.6614C27.2738 16.0568 27.4962 16.5931 27.4967 17.1523V45.9475C27.4961 46.5067 27.2737 47.0429 26.8782 47.4383C26.4827 47.8337 25.9466 48.0561 25.3873 48.0566Z" fill="#747CA0"/>
<path d="M16.8822 18.7899H10.6127C9.88242 18.7838 9.18415 18.4894 8.66993 17.9708C8.15571 17.4523 7.86719 16.7516 7.86719 16.0213C7.86719 15.291 8.15571 14.5903 8.66993 14.0717C9.18415 13.5532 9.88242 13.2588 10.6127 13.2526H11.0258C11.227 12.6915 11.5966 12.2062 12.0841 11.8631C12.5716 11.5201 13.1532 11.3359 13.7493 11.3359C14.3454 11.3359 14.927 11.5201 15.4145 11.8631C15.902 12.2062 16.2716 12.6915 16.4728 13.2526H16.883C17.6133 13.2588 18.3115 13.5532 18.8257 14.0717C19.34 14.5903 19.6285 15.291 19.6285 16.0213C19.6285 16.7516 19.34 17.4523 18.8257 17.9708C18.3115 18.4894 17.6133 18.7838 16.883 18.7899H16.8822ZM10.6127 15.2058C10.3986 15.2091 10.1944 15.2964 10.0441 15.449C9.89389 15.6016 9.80968 15.8071 9.80968 16.0213C9.80968 16.2354 9.89389 16.441 10.0441 16.5935C10.1944 16.7461 10.3986 16.8335 10.6127 16.8368H16.8822C17.0963 16.8335 17.3005 16.7461 17.4508 16.5935C17.601 16.441 17.6852 16.2354 17.6852 16.0213C17.6852 15.8071 17.601 15.6016 17.4508 15.449C17.3005 15.2964 17.0963 15.2091 16.8822 15.2058H15.6654C15.4064 15.2058 15.158 15.1029 14.9749 14.9197C14.7917 14.7366 14.6889 14.4882 14.6889 14.2292C14.6889 13.9799 14.5898 13.7408 14.4135 13.5645C14.2372 13.3882 13.9981 13.2892 13.7488 13.2892C13.4995 13.2892 13.2604 13.3882 13.0841 13.5645C12.9078 13.7408 12.8088 13.9799 12.8088 14.2292C12.8088 14.4882 12.7059 14.7366 12.5227 14.9197C12.3396 15.1029 12.0912 15.2058 11.8322 15.2058H10.6127Z" fill="#747CA0"/>
<path d="M7.4142 27.3413C7.28593 27.3413 7.15892 27.316 7.04042 27.2669C6.92193 27.2179 6.81426 27.1459 6.72357 27.0552L5.24603 25.5776C5.06674 25.3937 4.96712 25.1466 4.96877 24.8897C4.97042 24.6329 5.07319 24.387 5.25483 24.2054C5.43647 24.0238 5.68234 23.921 5.93919 23.9194C6.19605 23.9178 6.44319 24.0175 6.62709 24.1968L7.4142 24.9837L10.023 22.3749C10.2064 22.1931 10.4543 22.0913 10.7126 22.0918C10.9708 22.0923 11.2184 22.1951 11.401 22.3777C11.5837 22.5603 11.6865 22.8078 11.6872 23.0661C11.6878 23.3243 11.586 23.5723 11.4042 23.7558L8.10561 27.0552C8.01483 27.146 7.90703 27.218 7.78839 27.2671C7.66975 27.3162 7.5426 27.3414 7.4142 27.3413Z" fill="#4064DF"/>
<path d="M21.8438 25.6914H14.0312C13.7722 25.6914 13.5239 25.5885 13.3407 25.4054C13.1576 25.2222 13.0547 24.9738 13.0547 24.7148C13.0547 24.4558 13.1576 24.2075 13.3407 24.0243C13.5239 23.8412 13.7722 23.7383 14.0312 23.7383H21.8438C22.1028 23.7383 22.3511 23.8412 22.5343 24.0243C22.7174 24.2075 22.8203 24.4558 22.8203 24.7148C22.8203 24.9738 22.7174 25.2222 22.5343 25.4054C22.3511 25.5885 22.1028 25.6914 21.8438 25.6914Z" fill="#747CA0"/>
<path d="M7.4142 34.1773C7.28595 34.1773 7.15894 34.152 7.04045 34.103C6.92195 34.0539 6.81427 33.982 6.72357 33.8913L5.24603 32.4136C5.06674 32.2297 4.96712 31.9825 4.96877 31.7256C4.97042 31.4688 5.07319 31.2229 5.25483 31.0413C5.43647 30.8597 5.68234 30.757 5.93919 30.7554C6.19605 30.7537 6.44319 30.8534 6.62709 31.0327L7.4142 31.8196L10.023 29.2108C10.2064 29.029 10.4543 28.9272 10.7126 28.9277C10.9708 28.9283 11.2184 29.0311 11.401 29.2137C11.5837 29.3963 11.6865 29.6438 11.6872 29.902C11.6878 30.1603 11.586 30.4083 11.4042 30.5917L8.10561 33.8913C8.01481 33.9821 7.90701 34.0541 7.78837 34.1031C7.66973 34.1522 7.54258 34.1774 7.4142 34.1773Z" fill="#4064DF"/>
<path d="M21.8438 32.5273H14.0312C13.7722 32.5273 13.5239 32.4245 13.3407 32.2413C13.1576 32.0582 13.0547 31.8098 13.0547 31.5508C13.0547 31.2918 13.1576 31.0434 13.3407 30.8602C13.5239 30.6771 13.7722 30.5742 14.0312 30.5742H21.8438C22.1028 30.5742 22.3511 30.6771 22.5343 30.8602C22.7174 31.0434 22.8203 31.2918 22.8203 31.5508C22.8203 31.8098 22.7174 32.0582 22.5343 32.2413C22.3511 32.4245 22.1028 32.5273 21.8438 32.5273Z" fill="#747CA0"/>
<path d="M7.4142 41.0114C7.28593 41.0114 7.15892 40.9862 7.04042 40.9371C6.92193 40.888 6.81426 40.816 6.72357 40.7253L5.24603 39.2476C5.06674 39.0636 4.96712 38.8165 4.96877 38.5596C4.97042 38.3028 5.07319 38.0569 5.25483 37.8753C5.43647 37.6937 5.68234 37.5909 5.93919 37.5893C6.19605 37.5877 6.44319 37.6874 6.62709 37.8667L7.4142 38.6536L10.023 36.0448C10.2064 35.863 10.4543 35.7612 10.7126 35.7617C10.9708 35.7622 11.2184 35.8651 11.401 36.0476C11.5837 36.2302 11.6865 36.4777 11.6872 36.736C11.6878 36.9943 11.586 37.2422 11.4042 37.4257L8.10561 40.7253C8.01483 40.8161 7.90703 40.8881 7.78839 40.9372C7.66975 40.9863 7.5426 41.0115 7.4142 41.0114Z" fill="#4064DF"/>
<path d="M21.8438 39.3613H14.0312C13.7722 39.3613 13.5239 39.2584 13.3407 39.0753C13.1576 38.8922 13.0547 38.6438 13.0547 38.3848C13.0547 38.1258 13.1576 37.8774 13.3407 37.6942C13.5239 37.5111 13.7722 37.4082 14.0312 37.4082H21.8438C22.1028 37.4082 22.3511 37.5111 22.5343 37.6942C22.7174 37.8774 22.8203 38.1258 22.8203 38.3848C22.8203 38.6438 22.7174 38.8922 22.5343 39.0753C22.3511 39.2584 22.1028 39.3613 21.8438 39.3613Z" fill="#747CA0"/>
<path d="M49.0234 36.4631H30.7865C30.5275 36.4631 30.2791 36.3602 30.096 36.1771C29.9128 35.9939 29.81 35.7455 29.81 35.4865C29.81 35.2275 29.9128 34.9791 30.096 34.796C30.2791 34.6129 30.5275 34.51 30.7865 34.51H48.0469V3.90234H12.0117V9.43203C12.0117 9.69103 11.9088 9.93942 11.7257 10.1226C11.5425 10.3057 11.2942 10.4086 11.0352 10.4086C10.7762 10.4086 10.5278 10.3057 10.3446 10.1226C10.1615 9.93942 10.0586 9.69103 10.0586 9.43203V2.92578C10.0586 2.66678 10.1615 2.41839 10.3446 2.23525C10.5278 2.05211 10.7762 1.94922 11.0352 1.94922H49.0234C49.2824 1.94922 49.5308 2.05211 49.714 2.23525C49.8971 2.41839 50 2.66678 50 2.92578V35.4865C50 35.7455 49.8971 35.9939 49.714 36.1771C49.5308 36.3602 49.2824 36.4631 49.0234 36.4631Z" fill="#747CA0"/>
<path d="M25.6191 13.5047C25.3601 13.5047 25.1117 13.4018 24.9286 13.2187C24.7455 13.0355 24.6426 12.7871 24.6426 12.5281V2.91992C24.6426 2.66092 24.7455 2.41253 24.9286 2.22939C25.1117 2.04625 25.3601 1.94336 25.6191 1.94336H34.4414C34.7004 1.94336 34.9488 2.04625 35.1319 2.22939C35.3151 2.41253 35.418 2.66092 35.418 2.91992V12.5281C35.418 12.6951 35.3752 12.8592 35.2937 13.0049C35.2122 13.1506 35.0948 13.273 34.9525 13.3603C34.8103 13.4477 34.648 13.4971 34.4812 13.504C34.3144 13.5108 34.1487 13.4747 33.9998 13.3992L30.0303 11.3869L26.0607 13.3986C25.9239 13.4681 25.7726 13.5044 25.6191 13.5047ZM26.5957 3.89648V10.9377L29.5895 9.4209C29.7263 9.35154 29.8775 9.3154 30.031 9.3154C30.1844 9.3154 30.3356 9.35154 30.4725 9.4209L33.4648 10.9377V3.89648H26.5957Z" fill="#747CA0"/>
</g>
<defs>
<clipPath id="clip0_2659_13942">
<rect width="50" height="50" fill="white"/>
</clipPath>
</defs>
</svg>
