<svg width="50" height="50" viewBox="0 0 50 50" fill="none" xmlns="http://www.w3.org/2000/svg">
<path d="M37.7049 36.168H12.8477V42.4174H37.7049V36.168Z" fill="#4064DF"/>
<path d="M28.2383 42.4897V28.0996H21.9411V42.4897H28.2383Z" fill="#4064DF"/>
<path d="M20.3555 21.9727H29.853V25.4263C29.853 26.2177 29.2109 26.855 28.4134 26.855H21.8055C21.008 26.855 20.3658 26.2177 20.3658 25.4263V21.9727H20.3555Z" fill="#4064DF"/>
<path d="M44.0039 34.5742V43.9997H40.5239C39.7264 43.9997 39.0842 43.3625 39.0842 42.571V36.0132C39.0842 35.2218 39.7264 34.5845 40.5239 34.5845H44.0039V34.5742Z" fill="#4064DF"/>
<path d="M10.9219 36.0132V42.571C10.9219 43.3625 10.2797 43.9997 9.48222 43.9997H6.0022L6.0022 34.5742H9.48222C10.2797 34.5742 10.9219 35.2115 10.9219 36.003V36.0132Z" fill="#4064DF"/>
<path d="M39.6009 21.0686L25.2769 12.8457L10.6836 21.0686V32.9097H39.6009V21.0686Z" fill="#4064DF" fill-opacity="0.5"/>
<path d="M24.8413 6.12334L8.49768 16.0114C8.24911 16.1656 8.09375 16.4328 8.09375 16.7206V21.7777C8.09375 22.4253 8.80839 22.8262 9.36768 22.487L24.8413 13.1231C25.1106 12.9586 25.4421 12.9586 25.7113 13.1231L41.185 22.487C41.7443 22.8262 42.459 22.4253 42.459 21.7777V16.7206C42.459 16.4328 42.3036 16.1656 42.055 16.0114L25.7113 6.12334C25.4421 5.95889 25.1106 5.95889 24.8413 6.12334Z" fill="#4064DF"/>
</svg>
