<svg width="28" height="28" viewBox="0 0 28 28" fill="none" xmlns="http://www.w3.org/2000/svg">
<path d="M10.2784 5.07223C9.32188 5.11736 8.66849 5.27055 8.09763 5.49422C7.50662 5.72455 7.0057 6.03344 6.5073 6.53383C6.00835 7.03457 5.70197 7.53639 5.47327 8.12793C5.25194 8.70023 5.1018 9.35398 5.05973 10.3111C5.01766 11.2701 5.00813 11.5759 5.0128 14.0173C5.01748 16.4582 5.02826 16.7646 5.07393 17.7238C5.1196 18.6802 5.27225 19.3332 5.49592 19.9045C5.72661 20.4955 6.03514 20.9962 6.53571 21.4948C7.03609 21.9934 7.53827 22.2996 8.13017 22.5285C8.70193 22.7496 9.35586 22.9001 10.3128 22.942C11.2716 22.9842 11.5778 22.9936 14.0184 22.9889C16.4601 22.9842 16.7663 22.9735 17.7252 22.928C18.6817 22.8823 19.3344 22.7291 19.906 22.506C20.497 22.2748 20.9979 21.9668 21.4963 21.4662C21.9947 20.9658 22.3011 20.4636 22.5298 19.8717C22.7511 19.3 22.9018 18.646 22.9433 17.6897C22.9852 16.7303 22.9951 16.4237 22.9904 13.9829C22.9858 11.5418 22.9748 11.2359 22.9293 10.2773C22.8838 9.32018 22.7306 8.66733 22.5073 8.09593C22.2763 7.50492 21.9681 7.00454 21.4677 6.5056C20.9673 6.00719 20.4651 5.70027 19.8732 5.47211C19.3011 5.25077 18.6476 5.09992 17.6907 5.05857C16.732 5.01578 16.4259 5.00643 13.9844 5.0111C11.5435 5.01578 11.2375 5.0262 10.2786 5.07223M10.3834 21.324C9.5069 21.2859 9.03097 21.1402 8.7138 21.0181C8.29379 20.8556 7.99406 20.6607 7.67851 20.3477C7.36368 20.0334 7.16824 19.7345 7.00426 19.3154C6.8811 18.9983 6.73277 18.5229 6.69177 17.6463C6.64718 16.6988 6.63693 16.4145 6.63262 14.014C6.62794 11.6142 6.63675 11.3298 6.67811 10.3815C6.71568 9.50573 6.86222 9.02909 6.98395 8.71228C7.14649 8.29173 7.34067 7.99254 7.65442 7.67699C7.96871 7.36162 8.26754 7.16672 8.68701 7.00274C9.004 6.87886 9.47921 6.73178 10.3554 6.69025C11.3035 6.6453 11.5875 6.63577 13.9873 6.6311C16.3877 6.62642 16.6721 6.63487 17.6204 6.67659C18.4962 6.7147 18.9728 6.8598 19.2894 6.98243C19.7098 7.14496 20.0095 7.33861 20.3247 7.6529C20.6399 7.96719 20.8354 8.26548 20.9993 8.68585C21.123 9.00194 21.2703 9.47787 21.3116 10.3537C21.3568 11.3018 21.367 11.586 21.3713 13.986C21.376 16.3865 21.3672 16.6708 21.3257 17.6185C21.2876 18.495 21.1421 18.9711 21.0198 19.2886C20.8573 19.7083 20.6629 20.008 20.349 20.3236C20.0351 20.6379 19.7362 20.8338 19.3164 20.9978C19.0001 21.1213 18.5242 21.2688 17.6486 21.3103C16.7005 21.3549 16.4164 21.3651 14.0157 21.3695C11.6159 21.3741 11.3319 21.3651 10.3836 21.324M17.7121 9.1945C17.7131 9.78982 18.1973 10.2719 18.7927 10.2708C19.3883 10.2697 19.8704 9.78586 19.8695 9.19037C19.8682 8.59505 19.3842 8.11265 18.7885 8.11373C18.1928 8.1148 17.7108 8.599 17.7119 9.19432M9.38571 14.0088C9.39057 16.5584 11.4613 18.6207 14.0103 18.6156C16.5595 18.6106 18.6229 16.5406 18.6181 13.991C18.613 11.4424 16.5421 9.37898 13.9925 9.38383C11.4435 9.38886 9.38068 11.4598 9.38571 14.0088ZM11.005 14.0056C11.0021 12.3509 12.3414 11.0065 13.9958 11.0036C15.6505 11.0004 16.995 12.3392 16.9983 13.9943C17.0015 15.6493 15.6622 16.9933 14.0071 16.9966C12.3526 16.9998 11.008 15.6608 11.005 14.0058" fill="url(#paint0_linear_2655_16884)"/>
<defs>
<linearGradient id="paint0_linear_2655_16884" x1="0.501953" y1="22.99" x2="-12.998" y2="22.99" gradientUnits="userSpaceOnUse">
<stop stop-color="white"/>
<stop offset="1" stop-color="#4064DF"/>
</linearGradient>
</defs>
</svg>
