<svg width="132" height="132" viewBox="0 0 132 132" fill="none" xmlns="http://www.w3.org/2000/svg">
<path d="M25.5429 49.1978H105.429V61.8746H25.5429V49.1978ZM25.5429 68.3844H105.429V66.3287H25.5429V68.3844ZM25.5429 74.7228H105.429V70.4401H25.5429V74.7228ZM42.5143 81.0613V91.6824H44.5714V83.9735L52.9714 91.6824H54.6857V81.0613H52.6286V88.7702L44.2286 81.0613H42.5143ZM105.429 91.6824V89.798H97.7143V81.0613H95.6571V91.6824H105.429ZM63.4286 91.6824H64.9714L70.8 81.0613H68.5714L64.2857 89.1128L60 81.0613H57.6L63.4286 91.6824ZM84.3429 81.0613C82.4571 81.0613 80.9143 81.4039 80.0571 82.2604C79.3714 82.9457 78.8571 83.9735 78.8571 85.344V87.571C78.8571 88.9415 79.2 89.9694 80.0571 90.6546C80.9143 91.5111 82.4571 91.8538 84.3429 91.8538H91.2V85.5153H84.6857V87.3997H89.1429V89.798H83.8286C82.8 89.798 81.9429 89.6267 81.4286 89.1128C81.0857 88.7702 80.9143 88.085 80.9143 87.3997V85.5153C80.9143 84.6588 81.0857 84.1448 81.4286 83.8022C81.9429 83.2883 82.8 83.117 83.8286 83.117H91.2V81.2326L84.3429 81.0613ZM27.6 89.798H33.0857C34.1143 89.798 34.9714 89.6267 35.4857 89.1128C35.8286 88.7702 36 88.085 36 87.2284V85.344C36 84.4875 35.8286 83.9735 35.4857 83.4596C34.9714 82.9457 34.1143 82.7744 33.0857 82.7744H27.6V89.798ZM38.0571 87.571C38.0571 88.9415 37.7143 89.9694 36.8571 90.6546C36 91.5111 34.4571 91.8538 32.5714 91.8538H25.5429V81.2326H32.5714C34.4571 81.2326 36 81.5752 36.8571 82.4318C37.5429 83.117 38.0571 84.1448 38.0571 85.5153C38.0571 85.1727 38.0571 87.571 38.0571 87.571ZM74.7429 85.1727H72.3429V87.571H74.7429V85.1727ZM38.9143 118.407V127.829H41.1429V118.407H38.9143ZM42.6857 127.486C43.2 127.829 44.2286 128 45.4286 128C48 128 49.2 126.63 49.2 125.088C49.2 123.717 48.3429 122.861 46.8 122.347C45.6 121.833 45.0857 121.662 45.0857 120.976C45.0857 120.462 45.6 120.12 46.4571 120.12C47.3143 120.12 48 120.462 48.3429 120.634L48.8571 118.921C48.3429 118.578 47.4857 118.407 46.4571 118.407C44.2286 118.407 42.8571 119.606 42.8571 121.319C42.8571 122.689 43.8857 123.546 45.4286 124.06C46.6286 124.403 46.9714 124.745 46.9714 125.43C46.9714 126.116 46.4571 126.458 45.4286 126.458C44.5714 126.458 43.7143 126.116 43.0286 125.944L42.6857 127.486ZM54.6857 118.235C51.9429 118.235 50.0571 120.291 50.0571 123.203C50.0571 126.116 51.7714 128 54.5143 128C57.2571 128 59.1429 126.116 59.1429 123.032C59.1429 120.462 57.6 118.235 54.6857 118.235ZM54.6857 119.948C56.2286 119.948 56.9143 121.319 56.9143 123.032C56.9143 124.916 56.0571 126.287 54.6857 126.287C53.3143 126.287 52.4571 124.916 52.4571 123.203C52.4571 121.49 53.1429 119.948 54.6857 119.948ZM63.7714 128C63.9429 128 64.2857 128 64.8 128C66.1714 128 67.3714 127.486 68.2286 126.801C69.2571 125.944 69.7714 124.574 69.7714 122.689C69.7714 120.634 68.5714 118.749 66.3429 118.749C64.2857 118.749 62.9143 120.291 62.9143 122.004C62.9143 123.717 64.2857 124.916 65.8286 124.916C66.6857 124.916 67.2 124.745 67.7143 124.231C67.5429 124.916 67.2 125.602 66.5143 125.944C66 126.287 65.3143 126.458 64.8 126.458C64.4571 126.458 64.1143 126.458 63.9429 126.458L63.7714 128ZM66.3429 120.12C67.3714 120.12 67.7143 121.148 67.7143 122.004C67.7143 122.347 67.7143 122.347 67.5429 122.518C67.3714 122.861 66.8571 123.203 66.3429 123.203C65.4857 123.203 64.9714 122.518 64.9714 121.833C65.1429 120.805 65.4857 120.12 66.3429 120.12ZM74.2286 118.578C71.8286 118.578 70.8 120.634 70.8 123.375C70.8 125.944 71.8286 128 74.2286 128C76.6286 128 77.6571 126.116 77.6571 123.203C77.6571 120.805 76.6286 118.578 74.2286 118.578ZM74.2286 120.12C75.0857 120.12 75.6 121.148 75.6 123.203C75.6 125.259 75.0857 126.287 74.4 126.287C73.7143 126.287 73.0286 125.259 73.0286 123.203C72.8571 121.148 73.3714 120.12 74.2286 120.12ZM81.9429 118.578C79.5429 118.578 78.5143 120.634 78.5143 123.375C78.5143 125.944 79.5429 128 81.9429 128C84.3429 128 85.3714 126.116 85.3714 123.203C85.3714 120.805 84.3429 118.578 81.9429 118.578ZM81.9429 120.12C82.8 120.12 83.3143 121.148 83.3143 123.203C83.3143 125.259 82.8 126.287 82.1143 126.287C81.4286 126.287 80.7429 125.259 80.7429 123.203C80.7429 121.148 81.2571 120.12 81.9429 120.12ZM89.1429 127.829H91.2V118.749H89.4857L87.0857 119.948L87.4286 121.49L89.1429 120.634V127.829ZM8.74286 78.6629C9.08571 79.0056 9.42857 79.8621 9.6 80.5473C10.1143 82.7744 8.91429 84.3161 6.68571 84.8301C4.11429 85.5153 2.4 84.3162 1.88571 82.0891C1.71429 81.2326 1.71429 80.7187 1.88571 80.2047H0.857143C0.685714 80.5474 0.685714 81.4039 0.857143 82.4318C1.37143 85.344 3.77143 86.8858 6.68571 86.2006C9.77143 85.5153 10.9714 83.2883 10.4571 80.7187C10.2857 79.5195 9.94286 78.6629 9.6 78.3203C9.6 78.3203 8.74286 78.8343 8.74286 78.6629ZM3.94286 72.6671L4.28571 76.2646L1.37143 76.4359L1.02857 72.4958H0L0.342857 77.6351L9.77143 76.9499L9.42857 71.8106H8.4L8.74286 75.922L5.31429 76.2646L4.97143 72.6671C4.97143 72.6671 4.11429 72.6671 3.94286 72.6671ZM9.42857 70.6114V69.4123L5.31429 69.2409V68.0418C5.48571 67.0139 5.82857 66.5 7.2 66.1574C8.4 65.9861 9.25714 65.8148 9.42857 65.6435V64.4443C9.08571 64.6156 8.05714 64.7869 6.85714 65.1295C5.82857 65.3008 5.14286 65.6435 4.8 66.5C4.45714 65.4721 3.77143 64.6156 2.4 64.6156C1.71429 64.6156 1.02857 64.7869 0.514286 65.3008C0.342857 65.8148 0 66.6713 0 67.8705C0 68.727 0 69.5836 0 70.2688C0.171429 70.2688 9.42857 70.6114 9.42857 70.6114ZM1.02857 69.0696C1.02857 68.8983 1.02857 68.3844 1.02857 67.8705C1.02857 66.5 1.71429 65.8148 2.91429 65.8148C3.94286 65.8148 4.62857 66.6713 4.62857 68.0418V69.2409C4.45714 69.2409 1.02857 69.0696 1.02857 69.0696ZM10.1143 61.7033L10.2857 60.5042L2.05714 59.1337L2.57143 56.2214L1.54286 56.0501L0.342857 62.9025L1.37143 63.0738L1.88571 60.1616L10.1143 61.7033ZM1.88571 54.5084L10.9714 56.9067L11.3143 55.7075L2.22857 53.3092L1.88571 54.5084ZM11.8286 53.9944L12.1714 52.7953L8.05714 51.4248L9.25714 47.9986L8.57143 47.656L7.37143 51.0822L4.45714 50.0543L5.82857 46.4568L4.62857 46.1142L2.91429 50.9109L11.8286 53.9944ZM5.65714 44.0585L14.2286 47.9986L14.7429 46.9707L6.17143 43.0306C6 42.8593 5.65714 44.0585 5.65714 44.0585ZM17.4857 39.0905C17.4857 39.6045 17.1429 40.2897 16.8 40.9749C15.6 43.0306 13.7143 43.3733 11.6571 42.1741C9.6 40.9749 9.08571 38.9192 10.1143 37.0348C10.4571 36.3496 10.9714 35.8357 11.4857 35.493L10.8 34.8078C10.4571 34.9791 9.94286 35.493 9.25714 36.5209C7.71429 39.0905 8.57143 41.8315 11.1429 43.2019C13.8857 44.7437 16.2857 43.8872 17.6571 41.4889C18.1714 40.461 18.5143 39.6045 18.5143 39.0905C18.3429 39.2618 17.4857 39.0905 17.4857 39.0905ZM20.0571 32.9234L22.9714 33.9513L23.8286 32.9234L14.4 29.6685L13.3714 30.6964L18.8571 39.0905L19.5429 38.0627L17.8286 35.493L20.0571 32.9234ZM17.3143 34.8078L15.7714 32.4095C15.4286 31.8955 15.0857 31.3816 14.7429 31.039C15.2571 31.2103 15.7714 31.5529 16.4571 31.7242L19.2 32.7521L17.3143 34.8078ZM24 32.5808L28.9714 27.7841L28.2857 27.0989L24.5143 30.6964L22.9714 21.617L22.2857 21.1031L17.6571 25.5571L18.3429 26.2423L21.7714 22.9875L23.3143 32.0669L24 32.5808ZM24 19.9039L30 27.2702L30.8571 26.585L24.8571 19.2187C24.8571 19.0474 24 19.9039 24 19.9039ZM30.1714 15.1072C28.1143 16.4777 27.6 19.2187 29.1429 21.617C30.6857 24.0153 33.2571 24.7006 35.3143 23.3301C37.3714 21.9596 38.0571 19.5613 36.3429 16.8203C34.9714 14.422 32.4 13.7368 30.1714 15.1072ZM30.6857 15.9638C32.4 14.9359 34.2857 15.9638 35.3143 17.5056C36.5143 19.2187 36.5143 21.4457 34.9714 22.4735C33.4286 23.5014 31.5429 22.6448 30.3429 20.9318C29.1429 19.2187 28.9714 16.9916 30.6857 15.9638ZM40.9714 20.0752L39.4286 16.3064C38.7429 14.9359 38.4 13.9081 37.7143 12.7089C38.5714 13.3941 39.6 14.2507 40.6286 14.9359L45.2571 18.1908L46.4571 17.6769L42.6857 8.94011L41.6571 9.45404L43.2 13.0515C43.7143 14.422 44.2286 15.4499 44.9143 16.649C44.0571 15.9638 43.2 15.2786 42.1714 14.5933L37.5429 11.3384L36.1714 11.8524L39.9429 20.4178L40.9714 20.0752ZM51.4286 10.6532L47.8286 11.6811L46.9714 8.7688L50.7429 7.74095L50.5714 6.71309L45.6 8.08357L48.1714 17.163L53.3143 15.7925L52.9714 14.7646L49.0286 15.7925L48.1714 12.5376L51.7714 11.5097L51.4286 10.6532ZM57.0857 14.9359C57.7714 14.9359 58.4571 14.9359 59.3143 14.7646C61.2 14.5933 62.5714 14.0794 63.4286 13.0515C64.2857 12.0237 64.6286 10.8245 64.4571 9.28273C64.2857 7.74095 63.7714 6.71309 62.7429 6.02786C61.8857 5.34262 60.5143 5 58.8 5.17131C57.7714 5.17131 56.9143 5.34262 56.2286 5.51393L57.0857 14.9359ZM57.4286 6.54178C57.7714 6.37047 58.2857 6.37047 58.8 6.37047C61.3714 6.19916 62.7429 7.39833 62.9143 9.62535C63.0857 12.195 61.8857 13.7368 59.3143 13.9081C58.8 13.9081 58.4571 13.9081 58.1143 13.9081L57.4286 6.54178ZM66.1714 5L66 14.422H67.2L67.3714 5H66.1714ZM71.3143 14.2507C71.8286 14.5933 72.6857 15.1072 73.5429 15.2786C75.7714 15.6212 76.9714 14.5933 77.3143 13.0515C77.4857 11.6811 76.8 10.8245 75.2571 9.96797C74.0571 9.28273 73.5429 8.7688 73.7143 7.91226C73.8857 7.22702 74.4 6.54178 75.7714 6.71309C76.6286 6.8844 77.1429 7.22702 77.4857 7.39833L78 6.54178C77.6571 6.19916 76.9714 5.85655 75.9429 5.85655C74.0571 5.51393 72.6857 6.54178 72.5143 7.91226C72.3429 9.28273 73.2 10.1393 74.5714 10.9958C75.7714 11.6811 76.1143 12.195 76.1143 13.0515C75.9429 14.0794 75.0857 14.5933 73.8857 14.422C73.0286 14.2507 72.3429 13.9081 71.8286 13.3941L71.3143 14.2507ZM80.4 6.71309L78.1714 15.9638L79.3714 16.3064L81.6 7.05571L80.4 6.71309ZM80.7429 15.9638C81.0857 16.4777 81.9429 16.9916 82.8 17.3343C84.8571 18.0195 86.4 17.163 86.7429 15.7925C87.2571 14.422 86.7429 13.5655 85.3714 12.3663C84.3429 11.5097 84 10.9958 84.3429 10.1393C84.5143 9.45404 85.2 8.94011 86.4 9.28273C87.2571 9.62535 87.7714 9.96797 87.9429 10.3106L88.6286 9.45404C88.2857 9.11142 87.7714 8.59749 86.7429 8.42618C85.0286 7.91226 83.4857 8.42618 82.9714 9.96797C82.6286 11.1671 83.1429 12.3663 84.5143 13.2228C85.7143 14.0794 85.8857 14.5933 85.7143 15.4499C85.3714 16.3064 84.5143 16.8203 83.3143 16.3064C82.4571 15.9638 81.9429 15.4499 81.4286 14.9359L80.7429 15.9638ZM88.8 19.5613L90 20.0752L93.6 12.5376L96.1714 13.7368L96.6857 12.7089L90.3429 9.62535L89.8286 10.4819L92.4 11.8524L88.8 19.5613ZM100.114 19.7326L97.0286 17.8482L98.5714 15.2786L101.829 17.3343L102.343 16.4777L98.0571 13.5655L93.0857 21.617L97.5429 24.3579L98.0571 23.5014L94.6286 21.2744L96.3429 18.3621L99.6 20.4178L100.114 19.7326ZM104.743 30.3538L105.6 31.039L111.257 23.5014L110.057 22.4735L105.771 24.8719C104.743 25.5571 103.714 26.071 102.857 26.585C103.371 25.7284 103.714 24.7006 104.229 23.5014L105.943 19.0474L104.743 18.0195L98.0571 24.7006L98.9143 25.3858L101.829 22.4735C102.857 21.4457 103.886 20.2465 104.743 19.39C104.229 20.4178 103.714 21.617 103.2 22.9875L101.486 27.4415L102.171 28.1267L106.457 25.7284C107.657 25.0432 108.686 24.3579 109.714 23.844C108.857 24.7006 108 25.8997 107.143 27.0989L104.743 30.3538ZM111.943 33.9513L110.4 36.6922L111.257 37.7201L116.4 29.1546L115.371 27.9554L106.114 31.5529L106.971 32.5808L109.886 31.3816L111.943 33.9513ZM110.743 31.039L113.486 30.0111C114 29.8398 114.514 29.4972 115.029 29.3259C114.686 29.8398 114.343 30.3538 114 30.8677L112.457 33.266L110.743 31.039ZM116.743 47.9986C116.4 47.1421 116.229 46.2855 116.057 45.2577C117.257 46.4568 119.143 46.6281 121.371 45.429C123.771 44.0585 124.8 41.6602 123.6 39.4331C122.4 37.2061 119.829 36.5209 117.086 37.8914C114.343 39.2618 113.829 41.8315 114.857 43.8872C115.029 44.0585 115.029 44.2298 115.029 44.4011C115.2 45.6003 115.543 46.7994 115.714 48.1699C115.543 48.1699 116.743 47.9986 116.743 47.9986ZM115.714 43.5446C114.857 41.8315 115.886 40.1184 117.6 39.0905C119.486 38.0627 121.543 38.0627 122.571 39.9471C123.6 41.6602 122.229 43.5446 120.514 44.4011C118.629 45.429 116.571 45.2577 115.714 43.5446ZM126.343 45.7716L121.029 47.656C118.286 48.6838 117.771 50.3969 118.286 52.11C118.971 53.9944 120.514 55.0223 123.257 54.1657L128.4 52.4526L128.229 51.2535L122.914 52.9666C120.857 53.6518 119.829 53.1379 119.314 51.7674C118.971 50.5682 119.486 49.3691 121.371 48.6838L126.686 46.7994L126.343 45.7716ZM123.771 60.8468L121.029 62.3886L121.2 63.759L129.943 58.7911L129.6 57.4206L119.657 56.0501L119.829 57.2493L122.914 57.5919L123.771 60.8468ZM124.114 57.5919L127.029 57.9345C127.543 57.9345 128.229 58.1058 128.743 58.1058C128.229 58.2772 127.714 58.6198 127.2 58.9624L124.629 60.3329L124.114 57.5919ZM121.371 64.6156L121.714 69.9262H122.743L122.4 65.9861L130.8 65.4721L130.629 64.273L121.371 64.6156ZM130.971 71.1253L121.543 70.954V72.1532L130.971 72.3245V71.1253ZM121.371 75.7507L121.2 76.9499L129.6 77.8064L129.257 80.7187L130.286 80.89L130.971 73.8663L129.943 73.695L129.6 76.6072L121.371 75.7507ZM122.743 84.8301L119.657 85.1727L119.314 86.3719L129.257 85.1727L129.6 83.8022L121.029 78.6629L120.686 79.8621L123.429 81.4039L122.743 84.8301ZM124.286 82.0891L126.686 83.6309C127.2 83.9735 127.714 84.1448 128.229 84.4875C127.714 84.4875 127.029 84.4875 126.343 84.6588L123.429 85.0014L124.286 82.0891ZM132 83.117L129.943 84.4875L129.771 85.5153L131.657 84.6588C131.657 84.4875 132 83.117 132 83.117ZM121.029 88.5989L119.143 88.085C114.686 101.104 105.429 112.068 93.6 118.749V120.976C106.286 113.781 116.229 102.304 121.029 88.5989ZM7.54286 89.2841L5.65714 89.798C10.9714 105.216 22.1143 117.893 36.3429 125.259V123.203C22.9714 116.008 12.5143 103.845 7.54286 89.2841ZM11.8286 87.9137L9.94286 88.4276C14.5714 101.961 24.1714 113.267 36.3429 120.291V118.064C25.0286 111.383 16.2857 100.591 11.8286 87.9137ZM123.429 89.2841C118.286 104.188 107.486 116.522 93.6 123.717V125.773C108.343 118.407 119.829 105.558 125.143 89.798L123.429 89.2841Z" fill="#747DA1"/>
</svg>
