<svg width="50" height="50" viewBox="0 0 50 50" fill="none" xmlns="http://www.w3.org/2000/svg">
<path d="M25.0195 30.1973V41.4755H18.5766V33.1426C18.5766 31.5227 19.8897 30.1973 21.5219 30.1973H25.0195Z" fill="#4064DF"/>
<path d="M31.4609 33.1426V41.4755H25.018V30.1973H28.5156C30.1355 30.1973 31.4609 31.5104 31.4609 33.1426Z" fill="#4064DF"/>
<path d="M14.4779 20.8828H11.2871C10.833 20.8828 10.4648 21.2509 10.4648 21.7051V24.7118C10.4648 25.1659 10.833 25.534 11.2871 25.534H14.4779C14.932 25.534 15.3001 25.1659 15.3001 24.7118V21.7051C15.3001 21.2509 14.932 20.8828 14.4779 20.8828Z" fill="#4064DF"/>
<path d="M14.4779 30.1973H11.2871C10.833 30.1973 10.4648 30.5654 10.4648 31.0195V34.0262C10.4648 34.4803 10.833 34.8485 11.2871 34.8485H14.4779C14.932 34.8485 15.3001 34.4803 15.3001 34.0262V31.0195C15.3001 30.5654 14.932 30.1973 14.4779 30.1973Z" fill="#4064DF"/>
<path d="M26.6146 20.8828H23.4238C22.9697 20.8828 22.6016 21.2509 22.6016 21.7051V24.7118C22.6016 25.1659 22.9697 25.534 23.4238 25.534H26.6146C27.0687 25.534 27.4369 25.1659 27.4369 24.7118V21.7051C27.4369 21.2509 27.0687 20.8828 26.6146 20.8828Z" fill="#4064DF"/>
<path d="M38.7514 20.8828H35.5605C35.1064 20.8828 34.7383 21.2509 34.7383 21.7051V24.7118C34.7383 25.1659 35.1064 25.534 35.5605 25.534H38.7514C39.2055 25.534 39.5736 25.1659 39.5736 24.7118V21.7051C39.5736 21.2509 39.2055 20.8828 38.7514 20.8828Z" fill="#4064DF"/>
<path d="M38.7514 30.1973H35.5605C35.1064 30.1973 34.7383 30.5654 34.7383 31.0195V34.0262C34.7383 34.4803 35.1064 34.8485 35.5605 34.8485H38.7514C39.2055 34.8485 39.5736 34.4803 39.5736 34.0262V31.0195C39.5736 30.5654 39.2055 30.1973 38.7514 30.1973Z" fill="#4064DF"/>
<path d="M29.0806 13.2852H28.1602V14.5615H29.1174C29.7187 14.5615 30.0133 14.3406 30.0133 13.911C30.0133 13.6901 29.9397 13.5306 29.7801 13.4324C29.6206 13.3342 29.3874 13.2852 29.0806 13.2852Z" fill="#4064DF"/>
<path d="M29.4861 12.5872C29.6088 12.5504 29.6947 12.4645 29.7561 12.354C29.8052 12.2681 29.8297 12.1822 29.8297 12.0718C29.8297 11.8509 29.7561 11.7036 29.5966 11.63C29.4371 11.5563 29.2039 11.5195 28.8725 11.5195H28.1484V12.6486H28.9584C29.1793 12.6486 29.3511 12.624 29.4739 12.5872H29.4861Z" fill="#4064DF"/>
<path d="M23.9258 13.5189H25.2266L24.5762 11.7148L23.9258 13.5189Z" fill="#4064DF"/>
<path d="M32.1614 8.5H17.8642C16.6615 8.5 15.6797 9.48179 15.6797 10.6845V15.6302C15.6797 16.8329 16.6615 17.8147 17.8642 17.8147H32.1614C33.3641 17.8147 34.3459 16.8329 34.3459 15.6302V10.6845C34.3459 9.48179 33.3641 8.5 32.1614 8.5ZM22.2577 15.127C22.184 15.1884 22.0736 15.2252 21.9263 15.2252H19.7787C19.5823 15.2252 19.4473 15.1884 19.3614 15.1025C19.2755 15.0166 19.2387 14.8816 19.2387 14.6852V11.3104C19.2387 11.1263 19.2755 10.9913 19.3614 10.9054C19.4473 10.8195 19.5455 10.7704 19.6805 10.7704C19.8155 10.7704 19.9259 10.8195 19.9996 10.9054C20.0732 10.9913 20.1223 11.1263 20.1223 11.3104V14.5012H21.9263C22.0736 14.5012 22.184 14.538 22.2577 14.5993C22.3313 14.673 22.3681 14.7589 22.3681 14.8571C22.3681 14.9552 22.3313 15.0534 22.2577 15.1148V15.127ZM26.5039 15.1761C26.418 15.262 26.3198 15.2989 26.1971 15.2989C26.1234 15.2989 26.0621 15.2866 26.013 15.262C25.9639 15.2375 25.9148 15.2007 25.8903 15.1639C25.8534 15.1148 25.8166 15.0534 25.7798 14.9675C25.743 14.8816 25.7062 14.7957 25.6817 14.7343L25.473 14.1821H23.6935L23.4849 14.7466C23.399 14.9675 23.3376 15.1148 23.2763 15.1884C23.2149 15.262 23.129 15.2989 22.994 15.2989C22.8836 15.2989 22.7854 15.262 22.6995 15.1761C22.6135 15.0902 22.5768 15.0043 22.5768 14.8939C22.5768 14.8325 22.5767 14.7712 22.6013 14.7098C22.6258 14.6484 22.6504 14.5625 22.6995 14.4398L23.8162 11.5926C23.8531 11.5067 23.8899 11.4085 23.9267 11.2981C23.9758 11.1876 24.0249 11.0895 24.074 11.0158C24.1231 10.9422 24.1967 10.8808 24.2703 10.8317C24.3439 10.7827 24.4544 10.7581 24.5771 10.7581C24.6998 10.7581 24.798 10.7827 24.8839 10.8317C24.9698 10.8808 25.0312 10.9422 25.0803 11.0158C25.1294 11.0895 25.1785 11.1631 25.203 11.249C25.2398 11.3349 25.2767 11.4454 25.338 11.5926L26.4793 14.4153C26.5653 14.6362 26.6143 14.7834 26.6143 14.8816C26.6143 14.9798 26.5775 15.078 26.4916 15.1639L26.5039 15.1761ZM30.7256 14.6484C30.6028 14.8448 30.431 14.9921 30.2224 15.078C30.0874 15.1393 29.9401 15.1761 29.756 15.2007C29.5842 15.2252 29.3756 15.2375 29.1547 15.2375H27.817C27.6207 15.2375 27.4857 15.1884 27.3998 15.1025C27.3139 15.0166 27.277 14.8816 27.277 14.6852V11.384C27.277 11.1876 27.3139 11.0526 27.3998 10.9667C27.4857 10.8808 27.6207 10.844 27.8047 10.844H29.2283C29.437 10.844 29.621 10.8563 29.7683 10.8808C29.9156 10.9054 30.0628 10.9545 30.1856 11.0281C30.2837 11.0895 30.3819 11.1631 30.4556 11.2613C30.5415 11.3594 30.5905 11.4576 30.6396 11.5804C30.6765 11.6908 30.701 11.8135 30.701 11.9485C30.701 12.3903 30.4801 12.7094 30.0383 12.9058C30.6151 13.0898 30.8974 13.4457 30.8974 13.9735C30.8974 14.2189 30.836 14.4398 30.7133 14.6362L30.7256 14.6484Z" fill="#4064DF"/>
<path d="M39.5493 13.1641H32.5541V16.4408H17.0051V13.1641H10.4762C8.27947 13.1641 6.5 14.7472 6.5 16.6985V41.5008H43.501V16.6985C43.501 14.7472 41.7215 13.1641 39.5248 13.1641H39.5493Z" fill="#4064DF" fill-opacity="0.5"/>
</svg>
