<svg width="360" height="78" viewBox="0 0 360 78" fill="none" xmlns="http://www.w3.org/2000/svg">
<mask id="path-1-inside-1_2659_15261" fill="white">
<path d="M0 0H360V78H0V0Z"/>
</mask>
<path d="M360 78V77H0V78V79H360V78Z" fill="white" fill-opacity="0.1" mask="url(#path-1-inside-1_2659_15261)"/>
<g clip-path="url(#clip0_2659_15261)">
<path fill-rule="evenodd" clip-rule="evenodd" d="M96.166 25.9783C97.9707 24.1044 100.507 22.9375 103.316 22.9375C107.919 22.9375 111.79 26.0723 112.913 30.3245C112.913 30.3245 109.437 30.3789 107.242 30.0772C104.809 29.741 103.419 29.4493 101.13 28.5642C99.0931 27.7781 96.171 25.9783 96.171 25.9783M113.145 31.5111C113.111 31.2639 113.071 31.0216 113.017 30.7794C113.017 30.7794 108.136 30.8486 105.071 30.3739C101.748 29.8597 99.8101 29.5185 96.7544 28.1143C96.1018 27.8127 95.7408 27.5951 95.1079 27.2836C94.7717 27.7731 94.48 28.2973 94.2377 28.8461C94.2377 28.8461 96.171 29.4987 97.4269 29.835C100.102 30.547 101.669 30.7398 104.413 31.0661C107.795 31.4716 113.14 31.5111 113.14 31.5111M104.507 32.4308L113.224 32.4703C113.219 32.3072 113.209 32.144 113.195 31.9808C113.195 31.9808 107.459 32.0253 103.815 31.704C99.8645 31.3529 97.5356 30.9573 93.763 30.1564C93.59 30.7744 93.4713 31.4172 93.4219 32.0797L104.507 32.4308ZM96.166 39.4815C97.9707 41.3555 100.507 42.5223 103.311 42.5223C107.914 42.5223 111.785 39.3876 112.908 35.1354C112.908 35.1354 109.432 35.081 107.237 35.3826C104.804 35.7188 103.415 36.0105 101.125 36.8956C99.0882 37.6818 96.166 39.4815 96.166 39.4815ZM104.418 34.3937C101.669 34.725 100.107 34.9129 97.4318 35.6249C96.171 35.9611 94.2426 36.6138 94.2426 36.6138C94.4849 37.1626 94.7766 37.6867 95.1129 38.1762C95.7458 37.8598 96.1067 37.6472 96.7594 37.3455C99.8101 35.9413 101.753 35.6002 105.076 35.0859C108.141 34.6113 113.022 34.6805 113.022 34.6805C113.071 34.4382 113.116 34.1959 113.15 33.9487C113.15 33.9487 107.805 33.9883 104.423 34.3937M93.4219 33.3801C93.4713 34.0427 93.59 34.6854 93.763 35.3035C97.5406 34.5025 99.8645 34.1069 103.815 33.7559C107.459 33.4345 113.195 33.479 113.195 33.479C113.209 33.3158 113.219 33.1576 113.224 32.9945L104.507 33.0291L93.4219 33.3801Z" fill="#E42313"/>
<path d="M124.828 41.9683C130.425 41.9683 135.192 37.9979 136.522 33.0288C137.204 30.4923 136.819 28.1091 135.444 26.3192C134.129 24.6084 132.067 23.6641 129.634 23.6641C124.655 23.6641 119.523 27.7086 118.188 32.6777L114.148 47.7582L119.221 45.1228L122.46 33.0337C123.207 30.25 126.069 27.9855 128.843 27.9855C130.074 27.9855 131.103 28.4453 131.741 29.276C132.418 30.161 132.601 31.3675 132.25 32.6777C131.503 35.4614 128.606 37.8051 125.867 37.726C123.128 37.6469 122.455 36.5344 122.455 36.5344L121.318 40.6481C121.318 40.6481 122.035 41.9782 124.828 41.9782" fill="white"/>
<path fill-rule="evenodd" clip-rule="evenodd" d="M231.855 23.6211C230.915 23.6211 230.119 24.343 230.119 25.322C230.119 26.301 230.915 27.0327 231.855 27.0327C232.794 27.0327 233.58 26.3109 233.58 25.322C233.58 24.3331 232.784 23.6211 231.855 23.6211ZM231.855 26.7509C231.073 26.7509 230.465 26.1477 230.465 25.3269C230.465 24.5061 231.073 23.9079 231.855 23.9079C232.636 23.9079 233.234 24.516 233.234 25.3269C233.234 26.1378 232.626 26.7509 231.855 26.7509ZM232.641 24.9066C232.641 24.516 232.408 24.3479 231.944 24.3479H231.192V26.3158H231.489V25.4604H231.83L232.349 26.3158H232.685L232.127 25.4505C232.413 25.4159 232.636 25.2626 232.636 24.9066M231.494 25.2083V24.6001H231.899C232.107 24.6001 232.329 24.6446 232.329 24.8869C232.329 25.1885 232.102 25.2083 231.85 25.2083H231.494Z" fill="white"/>
<path fill-rule="evenodd" clip-rule="evenodd" d="M142.055 30.6619C143.355 28.9758 145.372 27.8683 147.286 27.8683H149.807L149.941 27.359L150.732 24.4121L150.964 23.5469H148.077C143.098 23.5469 137.966 27.5914 136.631 32.5606C135.948 35.097 136.334 37.4802 137.703 39.2701C139.019 40.9809 141.081 41.9253 143.513 41.9253H146.035L146.168 41.416L146.959 38.4691L147.192 37.6039H144.304C142.46 37.6039 141.125 36.5705 140.804 34.9635H140.818H147.35H147.874L148.013 34.4543L148.804 31.5074L149.036 30.6421H142.079L142.055 30.6619Z" fill="white"/>
<path fill-rule="evenodd" clip-rule="evenodd" d="M154.046 37.6029L152.483 37.6178L152.582 37.5881L154.179 31.4669L154.412 30.6016H150.046L149.907 31.1109L147.242 41.0591L147.01 41.9244H153.264C158.243 41.9244 163.376 37.8798 164.711 32.9107C165.388 30.3742 165.007 27.991 163.633 26.1962C162.318 24.4854 160.256 23.541 157.823 23.541H151.939L151.801 24.0503L151.01 26.9972L150.777 27.8624H157.032C158.253 27.8624 159.272 28.3173 159.905 29.1381C160.582 30.0231 160.76 31.2345 160.409 32.5547C159.663 35.3384 156.8 37.6029 154.026 37.6029" fill="white"/>
<path fill-rule="evenodd" clip-rule="evenodd" d="M176.873 29.4589C177.294 27.8816 177.051 26.3983 176.196 25.2759C175.375 24.198 174.09 23.6047 172.577 23.6047L167.163 23.5898L166.011 27.9063H171.8C172.122 27.9063 172.374 28.0102 172.532 28.2129C172.7 28.4304 172.74 28.7469 172.646 29.1029C172.419 29.9484 171.529 30.6604 170.698 30.6604H170.668L165.378 30.6703L162.342 42.0375H166.703L168.596 34.9422H169.318L171.519 42.0375H176.157L173.645 33.7754C173.645 33.7754 176.374 31.3328 176.873 29.4589Z" fill="white"/>
<path fill-rule="evenodd" clip-rule="evenodd" d="M202.902 32.5743C202.224 35.1108 202.605 37.494 203.975 39.2839C205.29 40.9947 207.352 41.9589 209.784 41.9589H210.852L212.014 37.6226H210.571C209.339 37.6226 208.311 37.1628 207.673 36.3321C206.996 35.4471 206.818 34.2406 207.164 32.9303L209.676 23.5508H205.31L202.892 32.5743H202.902Z" fill="white"/>
<path fill-rule="evenodd" clip-rule="evenodd" d="M193.892 32.5802C193.215 35.1167 193.595 37.4999 194.965 39.2898C196.28 41.0006 198.342 41.9449 200.775 41.9449L200.611 41.9252L200.775 41.9647H201.843L203.005 37.6285H201.561C200.33 37.6285 199.301 37.1686 198.663 36.338C197.986 35.4529 197.803 34.2465 198.154 32.9362L200.666 23.5566H196.3L193.882 32.5802H193.892Z" fill="white"/>
<path fill-rule="evenodd" clip-rule="evenodd" d="M229.027 26.245C227.712 24.5342 225.65 23.5898 223.217 23.5898C218.243 23.5898 213.111 27.6294 211.781 32.5936C211.103 35.1301 211.484 37.5133 212.854 39.3032C214.169 41.014 216.231 41.9584 218.663 41.9584C223.637 41.9584 228.77 37.9188 230.1 32.9546C230.777 30.4181 230.396 28.0349 229.027 26.245ZM225.833 32.5986C225.086 35.3823 222.228 37.6419 219.454 37.6419C218.223 37.6419 217.195 37.1821 216.557 36.3514C215.88 35.4663 215.702 34.2599 216.053 32.9496C216.799 30.1659 219.657 27.9063 222.431 27.9063C223.662 27.9063 224.691 28.3662 225.328 29.1968C226.006 30.0819 226.189 31.2883 225.838 32.5986" fill="white"/>
<path fill-rule="evenodd" clip-rule="evenodd" d="M192.759 26.2802C191.444 24.5694 189.382 23.625 186.95 23.625C181.975 23.625 176.843 27.6646 175.513 32.6288C174.836 35.1653 175.216 37.5485 176.586 39.3384C177.901 41.0491 179.963 41.9935 182.396 41.9935C187.37 41.9935 192.502 37.9539 193.832 32.9897C194.51 30.4532 194.129 28.07 192.759 26.2802ZM189.565 32.6337C188.819 35.4174 185.956 37.677 183.187 37.677C181.956 37.677 180.927 37.2172 180.289 36.3865C179.612 35.5015 179.429 34.2951 179.78 32.9848C180.527 30.2011 183.39 27.9415 186.158 27.9415C187.385 27.9415 188.418 28.4013 189.056 29.232C189.733 30.117 189.911 31.3235 189.565 32.6337Z" fill="white"/>
<path d="M225.171 50.8941C225.171 50.8941 225.611 49.3218 225.264 48.5702C225.047 48.1499 224.538 47.8632 223.929 47.8137C223.435 47.7742 222.679 47.8731 221.863 48.5702C221.358 48.9954 220.933 49.6975 220.701 50.4887C220.473 51.255 220.468 51.967 220.681 52.3972C220.948 52.9213 221.541 53.2328 222.268 53.2328C222.995 53.2328 223.697 52.951 224.182 52.4813C224.587 52.1253 224.988 51.3292 224.988 51.3292H223.974C223.974 51.3292 223.292 52.3478 222.446 52.3478C221.937 52.3478 221.744 52.0758 221.62 51.8088C221.497 51.4578 221.63 50.8892 221.63 50.8892H225.171V50.8941ZM222.575 49.0696L222.585 49.0597C222.876 48.7729 223.287 48.6246 223.682 48.6642C224.053 48.6988 224.231 48.8966 224.315 49.0301C224.404 49.1636 224.478 49.6184 224.37 50.009C224.078 50.009 222.852 50.009 221.922 50.009C221.813 50.009 222.441 49.1635 222.57 49.0696M172.804 50.7655C172.804 50.7655 173.244 49.2575 172.898 48.5406C172.681 48.1401 172.171 47.8632 171.563 47.8187C171.069 47.7791 170.312 47.878 169.496 48.5455C168.992 48.9559 168.567 49.6283 168.334 50.3848C168.107 51.1166 168.102 51.8039 168.315 52.2143C168.582 52.7186 169.175 53.0153 169.902 53.0153C170.629 53.0153 171.331 52.7483 171.815 52.2934C172.221 51.9522 172.621 51.1858 172.621 51.1858H171.608C171.608 51.1858 170.925 52.1599 170.08 52.1599C169.571 52.1599 169.378 51.8978 169.254 51.6407C169.13 51.3045 169.264 50.7606 169.264 50.7606H172.804V50.7655ZM170.208 49.0152L170.218 49.0053C170.51 48.7284 170.92 48.59 171.321 48.6246C171.692 48.6592 171.87 48.8471 171.954 48.9757C172.043 49.1042 172.117 49.5393 172.008 49.9151C171.716 49.9151 170.49 49.9151 169.561 49.9151C169.452 49.9151 170.08 49.1042 170.208 49.0152ZM184.785 48.0164C184.542 47.8829 184.201 47.8088 183.815 47.8088C183.459 47.8088 183.118 47.878 182.881 47.9967C182.668 48.1005 182.297 48.3428 182.297 48.3477L182.302 48.3329L182.411 47.9373H181.516L179.558 54.642L179.519 54.7705H180.513L180.532 54.6964L181.18 52.4911C181.239 52.5703 181.314 52.6494 181.407 52.7186C181.501 52.7878 181.852 53.0251 182.441 53.0251C183.029 53.0251 183.578 52.8125 184.107 52.3972C184.72 51.9275 185.234 51.0474 185.407 50.1475C185.615 49.1537 185.378 48.3576 184.775 48.0214M183.583 51.6308C183.296 51.9077 182.906 52.0659 182.51 52.056C182.169 52.0461 181.887 51.8978 181.768 51.6704C181.61 51.3391 181.59 50.1524 182.466 49.1883C182.718 48.9163 183.098 48.7433 183.479 48.7136C183.855 48.6889 184.152 48.8273 184.27 49.0795C184.621 49.836 184.107 51.1265 183.583 51.6308ZM200.335 47.9472C200.335 47.9472 200.261 48.2043 200.211 48.4021C199.959 48.0263 199.578 47.8236 199.069 47.8088C198.273 47.7841 197.442 48.3823 197.215 48.5949C196.691 49.124 196.295 49.9645 196.058 50.7655C195.652 52.15 196.493 53.2081 197.388 53.2279C198.031 53.2378 198.584 52.9263 199.01 52.6098C198.876 52.9164 198.743 53.7223 197.966 54.0239C197.749 54.108 197.511 54.1426 197.269 54.1426C197.061 54.1426 196.888 54.0981 196.745 54.0437C196.295 53.8706 196.468 53.3564 196.468 53.3564H195.484C195.484 53.3564 195.123 54.459 196.176 54.8892C196.463 55.0079 196.824 55.1018 197.279 55.0375C199.069 54.9238 199.618 53.7075 200.147 52.1154L201.324 47.9472H200.33H200.335ZM198.807 51.9324C198.49 52.1945 198.12 52.323 197.798 52.2884C197.467 52.2686 197.22 52.1055 197.096 51.8236C196.977 51.5319 197.002 51.0968 197.16 50.5925C197.304 50.1475 197.531 49.7322 197.684 49.5344C198.105 48.9757 198.579 48.8669 198.906 48.8718C199.282 48.8817 199.549 49.0597 199.578 49.1339V49.1438L199.588 49.1537C199.944 49.6778 199.578 51.2897 198.802 51.9374M208.374 48.4021C208.003 47.9126 207.395 47.8088 206.95 47.8088C206.268 47.8088 204.607 48.0708 203.924 50.4837C203.657 51.438 203.702 52.1599 204.058 52.6345C204.35 53.0153 204.854 53.2279 205.482 53.2279C206.164 53.2279 207.83 52.9658 208.513 50.543C208.78 49.5937 208.735 48.8718 208.379 48.4021M207.514 50.4837C207.277 51.3292 206.604 52.239 205.699 52.239C205.398 52.239 205.17 52.1401 205.022 51.9473C204.755 51.5913 204.795 50.988 204.918 50.543C205.156 49.7025 205.823 48.7977 206.728 48.7977C207.034 48.7977 207.262 48.8966 207.41 49.0894C207.677 49.4404 207.633 50.0387 207.509 50.4837M161.481 51.8879C161.472 51.9225 161.467 51.972 161.481 51.9967C161.506 52.0264 161.615 52.0857 162.06 52.0115L162.223 51.9819L161.966 52.9312C161.966 52.9312 161.333 53.0301 161.012 53.0004C160.725 52.9708 160.577 52.8224 160.502 52.7087C160.384 52.5258 160.374 52.2934 160.413 52.145L161.417 48.4367H160.74L161.002 47.4676H161.669L162.05 46.0931H163.044L162.678 47.4676H163.444L163.182 48.4367H162.416L161.486 51.883L161.481 51.8879ZM167.88 49.2575V49.2476L166.816 53.0153H165.823C165.823 53.0153 166.797 49.569 166.797 49.564C166.99 48.9954 166.767 48.8817 166.683 48.8422C166.431 48.7136 166.208 48.679 165.961 48.7235C165.734 48.7631 165.472 48.8867 165.121 49.1191C164.918 49.2773 164.769 49.3959 164.656 49.7865L163.741 53.0153H162.747L164.71 46.0585H165.704L165.051 48.3724C165.051 48.3724 165.308 48.1351 165.833 47.9423C166.1 47.8533 166.337 47.8088 166.559 47.8088C166.841 47.8088 167.108 47.8681 167.336 47.9818C167.573 48.0758 167.741 48.234 167.84 48.4565C167.978 48.7779 167.919 49.1388 167.87 49.2575M180.102 48.2834C180.315 48.5603 180.359 48.9509 180.226 49.4355L180.206 49.5146H179.227C179.227 49.5146 179.336 49.0746 179.247 48.9559C179.138 48.8125 178.876 48.7383 178.475 48.7383C178.03 48.7383 177.64 48.9856 177.472 49.213C177.383 49.3366 177.343 49.4602 177.363 49.564C177.378 49.6333 177.417 49.6877 177.487 49.7272C177.689 49.8607 178.011 49.9448 178.421 50.0535C178.421 50.0535 178.49 50.0733 178.48 50.0684C178.831 50.1277 179.232 50.2217 179.538 50.454C179.909 50.7161 179.998 51.2254 179.761 51.7792C179.534 52.3181 179.064 52.7779 178.505 53.0004C178.233 53.1092 177.897 53.1784 177.521 53.213C177.195 53.213 176.854 53.213 176.582 53.1438C176.201 53.0499 175.929 52.8669 175.776 52.6049C175.603 52.3082 175.583 51.9225 175.721 51.433L175.741 51.3539H176.686L176.656 51.4825C176.562 51.9028 176.72 52.1549 177.16 52.3033C177.309 52.3527 177.551 52.3527 177.783 52.3527C178.025 52.2934 178.278 52.2291 178.416 52.145C178.614 52.0264 178.787 51.8088 178.841 51.616C178.906 51.3787 178.817 51.2204 178.564 51.1265L178.154 51.0227C177.669 50.904 177.165 50.7804 176.878 50.6271C176.547 50.4887 176.211 50.1524 176.448 49.3218C176.745 48.2736 177.847 47.7939 178.747 47.7939C179.405 47.7939 179.86 47.9522 180.102 48.2686M188.295 48.9361C187.692 49.2031 187.331 49.6234 187.108 50.4145L186.372 53.0153H185.378L186.812 47.9472H187.806L187.672 48.4268C187.672 48.4268 188.102 47.8434 188.829 47.8088H189.403L189.111 48.8323C189.111 48.8323 188.834 48.6988 188.3 48.9361M190.995 47.9472L189.561 53.0153H188.567L190.001 47.9472H190.995ZM191.197 47.2303H190.204L190.535 46.0585H191.529L191.197 47.2303ZM195.83 49.1487V49.1586V49.1636L194.743 53.0153H193.749L194.743 49.5047C194.812 49.2723 194.797 49.0795 194.698 48.946C194.594 48.8026 194.392 48.7235 194.134 48.7235C193.833 48.7235 192.829 48.8422 192.419 50.3601L191.667 53.0202H190.673L192.102 47.9522H193.096L192.992 48.323L193.432 48.0511C193.788 47.8286 194.263 47.8088 194.515 47.8137C194.841 47.8236 195.183 47.8829 195.326 47.9621C195.529 48.0906 195.944 48.3576 195.835 49.1586M212.468 46.0683L212.577 46.0931L212.34 46.9336L212.251 46.9237C211.796 46.8693 211.559 46.9237 211.43 47.3638L211.267 47.9423H212.043L211.781 48.8619H211.005L209.833 53.0054H208.839L210.006 48.8619H209.353L209.615 47.9373H210.273L210.481 47.1907C210.703 46.3947 211.465 46.0683 211.643 46.0535C211.919 46.0041 212.186 46.0041 212.468 46.0634M216.711 46.192L214.807 52.9361L214.787 53.0103H213.793L213.833 52.8768L215.737 46.1326L215.756 46.0585H216.75L216.711 46.192ZM218.219 48.0807L216.844 52.9361L216.824 53.0103H215.831L215.87 52.8768L217.245 48.0214L217.264 47.9472H218.258L218.219 48.0807ZM217.601 47.2303H217.462L217.502 47.0968L217.774 46.1326L217.793 46.0585H218.787L218.748 46.192L218.476 47.1561L218.456 47.2352H217.601V47.2303ZM221.838 46.1128L221.601 46.9534L221.512 46.9435C221.057 46.8891 220.819 46.9435 220.691 47.3836L220.533 47.9423H221.309L221.047 48.8619H220.271L219.099 53.0054H218.105L219.272 48.8619H218.619L218.881 47.9373H219.539L219.742 47.2105C219.969 46.4145 220.725 46.0881 220.903 46.0733C221.18 46.0238 221.447 46.0238 221.724 46.0832L221.838 46.1079V46.1128Z" fill="white"/>
</g>
<rect x="287" y="28" width="33" height="4" rx="2" fill="white"/>
<rect x="287" y="37" width="33" height="4" rx="2" fill="white"/>
<rect x="287" y="46" width="33" height="4" rx="2" fill="white"/>
<defs>
<clipPath id="clip0_2659_15261">
<rect width="140.155" height="32.1239" fill="white" transform="translate(93.4219 22.9375)"/>
</clipPath>
</defs>
</svg>
