<svg width="29" height="33" viewBox="0 0 29 33" fill="none" xmlns="http://www.w3.org/2000/svg">
<path d="M1.25473 5.09651C4.43952 5.24478 7.71044 4.42505 10.5413 3.00374C11.4347 2.55515 13.1042 1.24811 13.9901 1.25C15.0142 1.25189 15.8272 2.07162 16.6752 2.52115C19.1624 3.84047 21.9535 4.8963 24.7976 5.10217C25.1638 5.12862 26.646 4.99735 26.7842 5.19472C26.7378 8.62853 27.0009 12.2144 26.8334 15.634C26.5296 21.8396 23.0277 27.2708 17.3017 29.7782C16.5786 30.0945 14.6185 30.8614 13.8992 30.8246C13.3569 30.7972 11.9808 30.2938 11.4167 30.0775C5.80714 27.9357 1.83585 22.7613 1.25 16.7748L1.25378 5.09651H1.25473Z" stroke="white" stroke-width="2.5" stroke-linecap="round" stroke-linejoin="round"/>
</svg>
