<svg width="246" height="243" viewBox="0 0 246 243" fill="none" xmlns="http://www.w3.org/2000/svg">
<mask id="path-1-inside-1_2655_16427" fill="white">
<path fill-rule="evenodd" clip-rule="evenodd" d="M34.0899 37.7291C56.5094 14.4782 88.0195 0 122.908 0C180.093 0 228.187 38.8947 242.13 91.6541C242.13 91.6541 198.95 92.3289 171.678 88.5867C141.458 84.415 124.198 80.7955 95.7588 69.8142C70.4524 60.0598 34.1513 37.7291 34.1513 37.7291M245.017 106.378C244.587 103.31 244.096 100.304 243.42 97.2981C243.42 97.2981 182.796 98.157 144.713 92.2676C103.437 85.8874 79.3588 81.6544 41.3993 64.2315C33.2914 60.4893 28.8075 57.79 20.9453 53.925C16.7685 59.9985 13.1446 66.5014 10.1348 73.311C10.1348 73.311 34.1513 81.409 49.7528 85.5807C82.9828 94.4148 102.454 96.8074 136.544 100.856C178.557 105.887 244.956 106.378 244.956 106.378M137.711 117.788L246 118.279C245.939 116.255 245.816 114.23 245.631 112.206C245.631 112.206 174.381 112.758 129.112 108.77C80.0345 104.415 51.1041 99.5067 4.2382 89.5683C2.08839 97.2368 0.614232 105.212 0 113.433L137.711 117.788ZM34.0899 205.271C56.5094 228.522 88.0195 243 122.846 243C180.031 243 228.126 204.105 242.069 151.346C242.069 151.346 198.888 150.671 171.616 154.413C141.396 158.585 124.136 162.204 95.6974 173.186C70.391 182.94 34.0899 205.271 34.0899 205.271ZM136.605 142.144C102.454 146.254 83.0442 148.585 49.8142 157.419C34.1513 161.591 10.1963 169.689 10.1963 169.689C13.206 176.499 16.83 183.002 21.0067 189.075C28.8689 185.149 33.3528 182.511 41.4607 178.768C79.3588 161.346 103.498 157.113 144.775 150.732C182.857 144.843 243.482 145.702 243.482 145.702C244.096 142.696 244.649 139.69 245.079 136.622C245.079 136.622 178.68 137.113 136.667 142.144M0 129.567C0.614232 137.788 2.08839 145.763 4.2382 153.432C51.1655 143.493 80.0345 138.585 129.112 134.23C174.381 130.242 245.631 130.794 245.631 130.794C245.816 128.77 245.939 126.807 246 124.782L137.711 125.212L0 129.567Z"/>
</mask>
<path fill-rule="evenodd" clip-rule="evenodd" d="M34.0899 37.7291C56.5094 14.4782 88.0195 0 122.908 0C180.093 0 228.187 38.8947 242.13 91.6541C242.13 91.6541 198.95 92.3289 171.678 88.5867C141.458 84.415 124.198 80.7955 95.7588 69.8142C70.4524 60.0598 34.1513 37.7291 34.1513 37.7291M245.017 106.378C244.587 103.31 244.096 100.304 243.42 97.2981C243.42 97.2981 182.796 98.157 144.713 92.2676C103.437 85.8874 79.3588 81.6544 41.3993 64.2315C33.2914 60.4893 28.8075 57.79 20.9453 53.925C16.7685 59.9985 13.1446 66.5014 10.1348 73.311C10.1348 73.311 34.1513 81.409 49.7528 85.5807C82.9828 94.4148 102.454 96.8074 136.544 100.856C178.557 105.887 244.956 106.378 244.956 106.378M137.711 117.788L246 118.279C245.939 116.255 245.816 114.23 245.631 112.206C245.631 112.206 174.381 112.758 129.112 108.77C80.0345 104.415 51.1041 99.5067 4.2382 89.5683C2.08839 97.2368 0.614232 105.212 0 113.433L137.711 117.788ZM34.0899 205.271C56.5094 228.522 88.0195 243 122.846 243C180.031 243 228.126 204.105 242.069 151.346C242.069 151.346 198.888 150.671 171.616 154.413C141.396 158.585 124.136 162.204 95.6974 173.186C70.391 182.94 34.0899 205.271 34.0899 205.271ZM136.605 142.144C102.454 146.254 83.0442 148.585 49.8142 157.419C34.1513 161.591 10.1963 169.689 10.1963 169.689C13.206 176.499 16.83 183.002 21.0067 189.075C28.8689 185.149 33.3528 182.511 41.4607 178.768C79.3588 161.346 103.498 157.113 144.775 150.732C182.857 144.843 243.482 145.702 243.482 145.702C244.096 142.696 244.649 139.69 245.079 136.622C245.079 136.622 178.68 137.113 136.667 142.144M0 129.567C0.614232 137.788 2.08839 145.763 4.2382 153.432C51.1655 143.493 80.0345 138.585 129.112 134.23C174.381 130.242 245.631 130.794 245.631 130.794C245.816 128.77 245.939 126.807 246 124.782L137.711 125.212L0 129.567Z" fill="#4064DF" fill-opacity="0.1"/>
<path d="M242.13 91.6541L242.146 92.654L243.424 92.634L243.097 91.3986L242.13 91.6541ZM171.678 88.5867L171.541 89.5773L171.542 89.5774L171.678 88.5867ZM95.7588 69.8142L96.119 68.8813L96.1185 68.8811L95.7588 69.8142ZM243.42 97.2981L244.396 97.0789L244.218 96.2868L243.406 96.2983L243.42 97.2981ZM144.713 92.2676L144.866 91.2794L144.866 91.2793L144.713 92.2676ZM41.3993 64.2315L40.9802 65.1395L40.9821 65.1404L41.3993 64.2315ZM20.9453 53.925L21.3865 53.0276L20.611 52.6464L20.1214 53.3584L20.9453 53.925ZM10.1348 73.311L9.22019 72.9068L8.77738 73.9086L9.81532 74.2586L10.1348 73.311ZM49.7528 85.5807L49.4945 86.5467L49.4959 86.5471L49.7528 85.5807ZM136.544 100.856L136.663 99.8634L136.662 99.8633L136.544 100.856ZM137.711 117.788L137.679 118.788L137.693 118.788L137.706 118.788L137.711 117.788ZM246 118.279L245.995 119.279L247.031 119.284L247 118.249L246 118.279ZM245.631 112.206L246.627 112.115L246.544 111.199L245.624 111.206L245.631 112.206ZM129.112 108.77L129.023 109.766L129.024 109.766L129.112 108.77ZM4.2382 89.5683L4.44565 88.59L3.52842 88.3955L3.27532 89.2984L4.2382 89.5683ZM0 113.433L-0.99722 113.358L-1.075 114.399L-0.0316137 114.432L0 113.433ZM34.0899 205.271L33.5659 204.419L32.5073 205.07L33.37 205.965L34.0899 205.271ZM242.069 151.346L243.036 151.601L243.362 150.366L242.085 150.346L242.069 151.346ZM171.616 154.413L171.481 153.423L171.48 153.423L171.616 154.413ZM95.6974 173.186L96.057 174.119L96.0576 174.119L95.6974 173.186ZM49.8142 157.419L49.5573 156.453L49.5569 156.453L49.8142 157.419ZM10.1963 169.689L9.87601 168.742L8.83915 169.092L9.28161 170.093L10.1963 169.689ZM21.0067 189.075L20.1828 189.642L20.6755 190.358L21.4535 189.97L21.0067 189.075ZM41.4607 178.768L41.043 177.86L41.0416 177.861L41.4607 178.768ZM144.775 150.732L144.927 151.721H144.927L144.775 150.732ZM243.482 145.702L243.467 146.702L244.296 146.713L244.461 145.902L243.482 145.702ZM245.079 136.622L246.069 136.761L246.23 135.614L245.071 135.622L245.079 136.622ZM0 129.567L-0.0316137 128.568L-1.075 128.601L-0.99722 129.642L0 129.567ZM4.2382 153.432L3.27532 153.702L3.52835 154.604L4.44539 154.41L4.2382 153.432ZM129.112 134.23L129.024 133.234L129.023 133.234L129.112 134.23ZM245.631 130.794L245.624 131.794L246.544 131.801L246.627 130.885L245.631 130.794ZM246 124.782L247 124.812L247.031 123.778L245.996 123.782L246 124.782ZM137.711 125.212L137.707 124.212L137.693 124.212L137.679 124.212L137.711 125.212ZM34.0899 37.7291L34.8097 38.4232C57.0484 15.3598 88.3019 1 122.908 1V0V-1C87.7371 -1 55.9703 13.5965 33.37 37.035L34.0899 37.7291ZM122.908 0V1C179.628 1 227.334 39.5786 241.164 91.9096L242.13 91.6541L243.097 91.3986C229.041 38.2108 180.557 -1 122.908 -1V0ZM242.13 91.6541C242.115 90.6542 242.115 90.6542 242.114 90.6543C242.114 90.6543 242.114 90.6543 242.113 90.6543C242.112 90.6543 242.11 90.6543 242.107 90.6544C242.102 90.6544 242.094 90.6546 242.084 90.6547C242.063 90.655 242.033 90.6555 241.992 90.656C241.91 90.6572 241.787 90.6589 241.626 90.6609C241.304 90.6649 240.828 90.6703 240.213 90.6758C238.981 90.687 237.19 90.6987 234.956 90.7011C230.487 90.7059 224.245 90.6733 217.152 90.524C202.955 90.2251 185.39 89.4589 171.814 87.596L171.678 88.5867L171.542 89.5774C185.238 91.4568 202.899 92.2243 217.11 92.5235C224.221 92.6733 230.478 92.7059 234.958 92.7011C237.198 92.6987 238.994 92.6869 240.231 92.6758C240.849 92.6702 241.327 92.6647 241.651 92.6607C241.813 92.6587 241.937 92.657 242.02 92.6558C242.061 92.6553 242.093 92.6548 242.114 92.6545C242.124 92.6543 242.132 92.6542 242.138 92.6541C242.14 92.6541 242.142 92.6541 242.144 92.654C242.144 92.654 242.145 92.654 242.145 92.654C242.146 92.654 242.146 92.654 242.13 91.6541ZM171.678 88.5867L171.815 87.5961C141.647 83.4316 124.466 79.8272 96.119 68.8813L95.7588 69.8142L95.3986 70.7471C123.929 81.7638 141.269 85.3984 171.541 89.5773L171.678 88.5867ZM95.7588 69.8142L96.1185 68.8811C83.5336 64.0303 68.1822 56.0376 55.951 49.2397C49.8411 45.844 44.5206 42.7524 40.7277 40.5099C38.8314 39.3887 37.3173 38.48 36.2777 37.8518C35.7579 37.5377 35.3568 37.2938 35.0859 37.1285C34.9504 37.0459 34.8475 36.983 34.7786 36.9407C34.7441 36.9196 34.7182 36.9037 34.7009 36.8931C34.6922 36.8878 34.6858 36.8838 34.6815 36.8812C34.6794 36.8799 34.6778 36.8789 34.6767 36.8783C34.6762 36.8779 34.6758 36.8777 34.6756 36.8776C34.6754 36.8774 34.6753 36.8774 34.1513 37.7291C33.6274 38.5809 33.6275 38.581 33.6279 38.5812C33.6282 38.5813 33.6286 38.5816 33.6292 38.582C33.6304 38.5827 33.6321 38.5838 33.6344 38.5852C33.6389 38.588 33.6456 38.5921 33.6545 38.5976C33.6724 38.6085 33.6988 38.6247 33.7338 38.6462C33.8038 38.6891 33.9079 38.7527 34.0444 38.836C34.3176 39.0026 34.7211 39.248 35.2434 39.5636C36.2879 40.1947 37.8075 41.1068 39.7098 42.2315C43.5143 44.4808 48.8506 47.5816 54.9794 50.9878C67.2253 57.7939 82.6776 65.8438 95.3991 70.7473L95.7588 69.8142ZM245.017 106.378L246.008 106.239C245.576 103.158 245.08 100.122 244.396 97.0789L243.42 97.2981L242.445 97.5174C243.112 100.486 243.599 103.463 244.027 106.516L245.017 106.378ZM243.42 97.2981C243.406 96.2983 243.406 96.2983 243.405 96.2983C243.405 96.2983 243.404 96.2983 243.404 96.2983C243.402 96.2983 243.399 96.2983 243.395 96.2984C243.388 96.2985 243.377 96.2986 243.363 96.2988C243.334 96.2992 243.29 96.2998 243.233 96.3005C243.117 96.3019 242.945 96.304 242.719 96.3064C242.267 96.3113 241.599 96.3176 240.734 96.3236C239.005 96.3355 236.491 96.3461 233.354 96.3403C227.082 96.3288 218.322 96.2522 208.374 95.9918C188.465 95.4705 163.841 94.2138 144.866 91.2794L144.713 92.2676L144.56 93.2559C163.668 96.2108 188.397 97.4694 208.321 97.9911C218.29 98.2521 227.066 98.3288 233.351 98.3403C236.493 98.3461 239.013 98.3355 240.748 98.3235C241.615 98.3175 242.286 98.3112 242.741 98.3063C242.968 98.3039 243.141 98.3018 243.258 98.3004C243.316 98.2996 243.36 98.2991 243.389 98.2987C243.404 98.2985 243.415 98.2983 243.423 98.2982C243.427 98.2982 243.43 98.2981 243.431 98.2981C243.432 98.2981 243.433 98.2981 243.434 98.2981C243.434 98.2981 243.434 98.298 243.42 97.2981ZM144.713 92.2676L144.866 91.2793C103.614 84.9029 79.6468 80.6863 41.8164 63.3227L41.3993 64.2315L40.9821 65.1404C79.0708 82.6225 103.26 86.8719 144.56 93.2559L144.713 92.2676ZM41.3993 64.2315L41.8183 63.3236C33.6972 59.5752 29.3481 56.9414 21.3865 53.0276L20.9453 53.925L20.5042 54.8224C28.2669 58.6385 32.8856 61.4034 40.9802 65.1395L41.3993 64.2315ZM20.9453 53.925L20.1214 53.3584C15.9089 59.4838 12.2547 66.0411 9.22019 72.9068L10.1348 73.311L11.0495 73.7153C14.0345 66.9616 17.6282 60.5132 21.7693 54.4917L20.9453 53.925ZM10.1348 73.311C9.81532 74.2586 9.81543 74.2587 9.81563 74.2587C9.81582 74.2588 9.81612 74.2589 9.81649 74.259C9.81725 74.2593 9.81837 74.2596 9.81986 74.2601C9.82282 74.2611 9.82724 74.2626 9.83309 74.2646C9.8448 74.2685 9.86225 74.2744 9.88531 74.2822C9.93144 74.2977 10 74.3208 10.0901 74.351C10.2703 74.4115 10.5363 74.5007 10.8804 74.6156C11.5685 74.8455 12.5687 75.1785 13.8175 75.591C16.315 76.4161 19.8077 77.5597 23.7884 78.8339C31.7455 81.3807 41.6691 84.4543 49.4945 86.5467L49.7528 85.5807L50.0111 84.6146C42.235 82.5353 32.3496 79.4741 24.3981 76.9291C20.4245 75.6572 16.938 74.5156 14.4449 73.692C13.1984 73.2802 12.2004 72.9479 11.5141 72.7187C11.171 72.604 10.9059 72.5152 10.7266 72.455C10.637 72.4249 10.5688 72.402 10.5231 72.3866C10.5002 72.3789 10.483 72.3731 10.4715 72.3692C10.4658 72.3673 10.4614 72.3658 10.4586 72.3649C10.4571 72.3644 10.4561 72.364 10.4554 72.3638C10.455 72.3637 10.4548 72.3636 10.4546 72.3635C10.4544 72.3635 10.4543 72.3634 10.1348 73.311ZM49.7528 85.5807L49.4959 86.5471C82.7975 95.4003 102.327 97.7993 136.426 101.849L136.544 100.856L136.662 99.8633C102.581 95.8154 83.1681 93.4293 50.0097 84.6142L49.7528 85.5807ZM136.544 100.856L136.425 101.849C157.476 104.37 184.614 105.751 206.471 106.503C217.403 106.879 227.021 107.098 233.906 107.222C237.349 107.285 240.109 107.323 242.008 107.347C242.958 107.358 243.693 107.366 244.19 107.371C244.439 107.373 244.628 107.375 244.756 107.376C244.819 107.377 244.867 107.377 244.9 107.377C244.916 107.377 244.928 107.377 244.936 107.378C244.94 107.378 244.943 107.378 244.945 107.378C244.946 107.378 244.947 107.378 244.948 107.378C244.948 107.378 244.948 107.378 244.956 106.378C244.963 105.378 244.963 105.378 244.963 105.378C244.962 105.378 244.961 105.378 244.96 105.378C244.958 105.378 244.955 105.378 244.951 105.378C244.943 105.378 244.931 105.377 244.915 105.377C244.884 105.377 244.836 105.377 244.773 105.376C244.646 105.375 244.457 105.373 244.21 105.371C243.714 105.366 242.981 105.358 242.033 105.347C240.137 105.324 237.381 105.285 233.943 105.223C227.065 105.098 217.458 104.88 206.539 104.504C184.693 103.753 157.625 102.373 136.663 99.8634L136.544 100.856ZM137.711 117.788L137.706 118.788L245.995 119.279L246 118.279L246.005 117.279L137.715 116.788L137.711 117.788ZM246 118.279L247 118.249C246.938 116.204 246.813 114.16 246.627 112.115L245.631 112.206L244.636 112.296C244.818 114.301 244.94 116.305 245 118.31L246 118.279ZM245.631 112.206C245.624 111.206 245.623 111.206 245.623 111.206C245.622 111.206 245.622 111.206 245.621 111.206C245.618 111.206 245.615 111.206 245.611 111.206C245.602 111.206 245.59 111.206 245.572 111.206C245.538 111.206 245.487 111.207 245.419 111.207C245.283 111.208 245.081 111.209 244.814 111.211C244.282 111.214 243.495 111.218 242.478 111.222C240.443 111.229 237.484 111.235 233.793 111.23C226.409 111.219 216.093 111.164 204.363 110.983C180.896 110.623 151.796 109.765 129.199 107.774L129.112 108.77L129.024 109.766C151.696 111.764 180.856 112.623 204.332 112.983C216.073 113.164 226.399 113.219 233.79 113.23C237.485 113.235 240.447 113.229 242.485 113.222C243.504 113.218 244.292 113.214 244.826 113.211C245.093 113.209 245.296 113.208 245.432 113.207C245.501 113.207 245.552 113.206 245.587 113.206C245.604 113.206 245.617 113.206 245.626 113.206C245.63 113.206 245.634 113.206 245.636 113.206C245.637 113.206 245.638 113.206 245.638 113.206C245.639 113.206 245.639 113.206 245.631 112.206ZM129.112 108.77L129.2 107.774C80.1713 103.423 51.2816 98.5221 4.44565 88.59L4.2382 89.5683L4.03076 90.5465C50.9266 100.491 79.8976 105.406 129.023 109.766L129.112 108.77ZM4.2382 89.5683L3.27532 89.2984C1.10893 97.026 -0.377698 105.067 -0.99722 113.358L0 113.433L0.99722 113.507C1.60616 105.357 3.06785 97.4476 5.20108 89.8382L4.2382 89.5683ZM0 113.433L-0.0316137 114.432L137.679 118.788L137.711 117.788L137.742 116.789L0.0316137 112.433L0 113.433ZM34.0899 205.271L33.37 205.965C55.9701 229.403 87.7368 244 122.846 244V243V242C88.3021 242 57.0486 227.64 34.8097 204.577L34.0899 205.271ZM122.846 243V244C180.496 244 228.979 204.789 243.036 151.601L242.069 151.346L241.102 151.09C227.272 203.421 179.567 242 122.846 242V243ZM242.069 151.346C242.085 150.346 242.084 150.346 242.084 150.346C242.084 150.346 242.083 150.346 242.082 150.346C242.081 150.346 242.079 150.346 242.076 150.346C242.071 150.346 242.063 150.346 242.052 150.346C242.031 150.345 242 150.345 241.958 150.344C241.875 150.343 241.752 150.341 241.59 150.339C241.266 150.335 240.787 150.33 240.169 150.324C238.933 150.313 237.137 150.301 234.897 150.299C230.417 150.294 224.16 150.327 217.049 150.476C202.837 150.776 185.176 151.543 171.481 153.423L171.616 154.413L171.752 155.404C185.328 153.541 202.894 152.775 217.091 152.476C224.184 152.327 230.426 152.294 234.895 152.299C237.129 152.301 238.92 152.313 240.151 152.324C240.767 152.33 241.243 152.335 241.565 152.339C241.726 152.341 241.848 152.343 241.93 152.344C241.971 152.345 242.002 152.345 242.023 152.345C242.033 152.345 242.041 152.346 242.046 152.346C242.048 152.346 242.05 152.346 242.051 152.346C242.052 152.346 242.053 152.346 242.053 152.346C242.053 152.346 242.053 152.346 242.069 151.346ZM171.616 154.413L171.48 153.423C141.207 157.602 123.868 161.236 95.3372 172.253L95.6974 173.186L96.0576 174.119C124.405 163.173 141.585 159.568 171.753 155.404L171.616 154.413ZM95.6974 173.186L95.3377 172.253C82.6162 177.156 67.1639 185.206 54.918 192.012C48.7892 195.418 43.4528 198.519 39.6484 200.768C37.7461 201.893 36.2265 202.805 35.182 203.436C34.6597 203.752 34.2562 203.997 33.983 204.164C33.8464 204.247 33.7424 204.311 33.6724 204.354C33.6374 204.375 33.6109 204.391 33.5931 204.402C33.5842 204.408 33.5775 204.412 33.5729 204.415C33.5707 204.416 33.569 204.417 33.5678 204.418C33.5672 204.418 33.5667 204.419 33.5664 204.419C33.5661 204.419 33.5659 204.419 34.0899 205.271C34.6138 206.123 34.6139 206.123 34.6142 206.122C34.6144 206.122 34.6148 206.122 34.6153 206.122C34.6163 206.121 34.6179 206.12 34.6201 206.119C34.6244 206.116 34.6308 206.112 34.6395 206.107C34.6567 206.096 34.6827 206.08 34.7172 206.059C34.7861 206.017 34.889 205.954 35.0245 205.871C35.2954 205.706 35.6965 205.462 36.2163 205.148C37.2559 204.52 38.77 203.611 40.6663 202.49C44.4591 200.248 49.7797 197.156 55.8895 193.76C68.1207 186.962 83.4722 178.97 96.057 174.119L95.6974 173.186ZM136.605 142.144L136.486 141.151C102.328 145.262 82.8594 147.6 49.5573 156.453L49.8142 157.419L50.0712 158.386C83.229 149.571 102.58 147.246 136.725 143.136L136.605 142.144ZM49.8142 157.419L49.5569 156.453C41.7002 158.546 31.7761 161.619 23.8265 164.166C19.8495 165.44 16.3626 166.584 13.8697 167.409C12.6233 167.822 11.6252 168.155 10.9386 168.385C10.5953 168.5 10.3299 168.589 10.1502 168.649C10.0603 168.679 9.99186 168.703 9.94584 168.718C9.92283 168.726 9.90543 168.732 9.89375 168.736C9.88791 168.738 9.8835 168.739 9.88054 168.74C9.87906 168.741 9.87794 168.741 9.87718 168.741C9.87681 168.741 9.87651 168.741 9.87632 168.742C9.87612 168.742 9.87601 168.742 10.1963 169.689C10.5165 170.636 10.5166 170.636 10.5167 170.636C10.5169 170.636 10.5172 170.636 10.5175 170.636C10.5182 170.636 10.5193 170.635 10.5207 170.635C10.5236 170.634 10.5279 170.632 10.5336 170.631C10.5451 170.627 10.5623 170.621 10.5851 170.613C10.6306 170.598 10.6986 170.575 10.788 170.545C10.9669 170.485 11.2314 170.396 11.5737 170.281C12.2583 170.052 13.2541 169.72 14.4982 169.308C16.9864 168.484 20.4671 167.343 24.4368 166.071C32.3804 163.526 42.2653 160.465 50.0716 158.386L49.8142 157.419ZM10.1963 169.689L9.28161 170.093C12.3161 176.959 15.9703 183.516 20.1828 189.642L21.0067 189.075L21.8307 188.508C17.6896 182.487 14.0959 176.038 11.1109 169.285L10.1963 169.689ZM21.0067 189.075L21.4535 189.97C29.3808 186.011 33.7809 183.415 41.8797 179.676L41.4607 178.768L41.0416 177.861C32.9248 181.607 28.357 184.287 20.56 188.18L21.0067 189.075ZM41.4607 178.768L41.8784 179.677C79.6468 162.314 103.674 158.097 144.927 151.721L144.775 150.732L144.622 149.744C103.322 156.128 79.0708 160.377 41.043 177.86L41.4607 178.768ZM144.775 150.732L144.927 151.721C163.902 148.786 188.526 147.529 208.435 147.008C218.384 146.748 227.143 146.671 233.416 146.66C236.552 146.654 239.066 146.664 240.795 146.676C241.66 146.682 242.329 146.689 242.781 146.694C243.007 146.696 243.179 146.698 243.294 146.699C243.352 146.7 243.395 146.701 243.424 146.701C243.439 146.701 243.45 146.701 243.457 146.702C243.46 146.702 243.463 146.702 243.465 146.702C243.466 146.702 243.466 146.702 243.467 146.702C243.467 146.702 243.467 146.702 243.482 145.702C243.496 144.702 243.496 144.702 243.495 144.702C243.495 144.702 243.494 144.702 243.493 144.702C243.491 144.702 243.488 144.702 243.484 144.702C243.477 144.702 243.466 144.702 243.451 144.701C243.421 144.701 243.377 144.7 243.319 144.7C243.203 144.698 243.029 144.696 242.802 144.694C242.348 144.689 241.677 144.682 240.809 144.676C239.075 144.664 236.555 144.654 233.412 144.66C227.127 144.671 218.351 144.748 208.383 145.009C188.459 145.531 163.729 146.789 144.622 149.744L144.775 150.732ZM243.482 145.702L244.461 145.902C245.078 142.884 245.635 139.856 246.069 136.761L245.079 136.622L244.088 136.484C243.662 139.524 243.114 142.508 242.502 145.502L243.482 145.702ZM245.079 136.622C245.071 135.622 245.071 135.622 245.07 135.622C245.07 135.622 245.069 135.622 245.068 135.622C245.066 135.622 245.063 135.622 245.059 135.622C245.051 135.622 245.039 135.623 245.022 135.623C244.99 135.623 244.942 135.623 244.878 135.624C244.751 135.625 244.562 135.627 244.313 135.629C243.816 135.634 243.081 135.642 242.131 135.653C240.232 135.677 237.472 135.715 234.029 135.778C227.144 135.902 217.526 136.121 206.593 136.497C184.737 137.249 157.599 138.63 136.548 141.151L136.667 142.144L136.786 143.137C157.748 140.627 184.816 139.247 206.662 138.496C217.581 138.12 227.188 137.902 234.066 137.777C237.504 137.715 240.26 137.676 242.156 137.653C243.104 137.642 243.837 137.634 244.332 137.629C244.58 137.627 244.769 137.625 244.895 137.624C244.959 137.623 245.006 137.623 245.038 137.623C245.054 137.623 245.066 137.622 245.074 137.622C245.078 137.622 245.081 137.622 245.083 137.622C245.084 137.622 245.085 137.622 245.085 137.622C245.086 137.622 245.086 137.622 245.079 136.622ZM0 129.567L-0.99722 129.642C-0.377698 137.933 1.10893 145.974 3.27532 153.702L4.2382 153.432L5.20108 153.162C3.06785 145.552 1.60616 137.643 0.99722 129.493L0 129.567ZM4.2382 153.432L4.44539 154.41C51.3431 144.478 80.1715 139.577 129.2 135.226L129.112 134.23L129.023 133.234C79.8974 137.594 50.988 142.509 4.03101 152.453L4.2382 153.432ZM129.112 134.23L129.199 135.226C151.796 133.235 180.896 132.377 204.363 132.017C216.093 131.836 226.409 131.781 233.793 131.77C237.484 131.765 240.443 131.771 242.478 131.778C243.495 131.782 244.282 131.786 244.814 131.789C245.081 131.791 245.283 131.792 245.419 131.793C245.487 131.793 245.538 131.794 245.572 131.794C245.59 131.794 245.602 131.794 245.611 131.794C245.615 131.794 245.618 131.794 245.621 131.794C245.622 131.794 245.622 131.794 245.623 131.794C245.623 131.794 245.624 131.794 245.631 130.794C245.639 129.794 245.639 129.794 245.638 129.794C245.638 129.794 245.637 129.794 245.636 129.794C245.634 129.794 245.63 129.794 245.626 129.794C245.617 129.794 245.604 129.794 245.587 129.794C245.552 129.794 245.501 129.793 245.432 129.793C245.296 129.792 245.093 129.791 244.826 129.789C244.292 129.786 243.504 129.782 242.485 129.778C240.447 129.771 237.485 129.765 233.79 129.77C226.399 129.781 216.073 129.836 204.332 130.017C180.856 130.377 151.696 131.236 129.024 133.234L129.112 134.23ZM245.631 130.794L246.627 130.885C246.813 128.842 246.937 126.858 247 124.812L246 124.782L245 124.752C244.94 126.755 244.818 128.698 244.636 130.704L245.631 130.794ZM246 124.782L245.996 123.782L137.707 124.212L137.711 125.212L137.715 126.212L246.004 125.782L246 124.782ZM137.711 125.212L137.679 124.212L-0.0316137 128.568L0 129.567L0.0316137 130.567L137.742 126.211L137.711 125.212Z" fill="#4064DF" fill-opacity="0.8" mask="url(#path-1-inside-1_2655_16427)"/>
</svg>
