<svg width="431" height="513" viewBox="0 0 431 513" fill="none" xmlns="http://www.w3.org/2000/svg">
<mask id="path-1-inside-1_2665_20606" fill="white">
<path fill-rule="evenodd" clip-rule="evenodd" d="M158.393 -132.82C262.562 -241.038 408.969 -308.424 571.072 -308.424C836.773 -308.424 1060.24 -127.395 1125.02 118.164C1125.02 118.164 924.389 121.305 797.674 103.887C657.261 84.4709 577.065 67.6244 444.928 16.5138C327.346 -28.8861 158.679 -132.82 158.679 -132.82M1138.43 186.692C1136.44 172.415 1134.15 158.424 1131.01 144.433C1131.01 144.433 849.33 148.43 672.386 121.019C480.602 91.3237 368.728 71.6219 192.355 -9.46979C154.683 -26.8874 133.849 -39.4509 97.3191 -57.4395C77.9124 -29.1716 61.0742 1.09497 47.0899 32.7892C47.0899 32.7892 158.679 70.4797 231.169 89.896C385.566 131.013 476.036 142.149 634.429 160.994C829.638 184.408 1138.15 186.692 1138.15 186.692M639.852 239.801L1143 242.086C1142.71 232.663 1142.14 223.24 1141.29 213.818C1141.29 213.818 810.231 216.388 599.897 197.828C371.867 177.555 237.447 154.712 19.6921 108.456C9.70337 144.147 2.85393 181.267 0 219.528L639.852 239.801ZM158.393 646.973C262.562 755.19 408.969 822.576 570.786 822.576C836.488 822.576 1059.95 641.548 1124.73 395.988C1124.73 395.988 924.103 392.847 797.389 410.265C656.975 429.681 576.78 446.528 444.643 497.638C327.061 543.038 158.393 646.973 158.393 646.973ZM634.715 353.158C476.036 372.289 385.852 383.139 231.454 424.256C158.679 443.673 47.3753 481.363 47.3753 481.363C61.3596 513.057 78.1978 543.324 97.6045 571.592C134.135 553.318 154.969 541.04 192.64 523.622C368.728 442.53 480.888 422.829 672.672 393.133C849.616 365.722 1131.3 369.719 1131.3 369.719C1134.15 355.728 1136.72 341.737 1138.72 327.46C1138.72 327.46 830.209 329.745 635 353.158M0 294.624C2.85393 332.885 9.70337 370.005 19.6921 405.697C237.733 359.44 371.867 336.597 599.897 316.324C810.231 297.765 1141.29 300.335 1141.29 300.335C1142.14 290.912 1142.71 281.775 1143 272.352L639.852 274.351L0 294.624Z"/>
</mask>
<path fill-rule="evenodd" clip-rule="evenodd" d="M158.393 -132.82C262.562 -241.038 408.969 -308.424 571.072 -308.424C836.773 -308.424 1060.24 -127.395 1125.02 118.164C1125.02 118.164 924.389 121.305 797.674 103.887C657.261 84.4709 577.065 67.6244 444.928 16.5138C327.346 -28.8861 158.679 -132.82 158.679 -132.82M1138.43 186.692C1136.44 172.415 1134.15 158.424 1131.01 144.433C1131.01 144.433 849.33 148.43 672.386 121.019C480.602 91.3237 368.728 71.6219 192.355 -9.46979C154.683 -26.8874 133.849 -39.4509 97.3191 -57.4395C77.9124 -29.1716 61.0742 1.09497 47.0899 32.7892C47.0899 32.7892 158.679 70.4797 231.169 89.896C385.566 131.013 476.036 142.149 634.429 160.994C829.638 184.408 1138.15 186.692 1138.15 186.692M639.852 239.801L1143 242.086C1142.71 232.663 1142.14 223.24 1141.29 213.818C1141.29 213.818 810.231 216.388 599.897 197.828C371.867 177.555 237.447 154.712 19.6921 108.456C9.70337 144.147 2.85393 181.267 0 219.528L639.852 239.801ZM158.393 646.973C262.562 755.19 408.969 822.576 570.786 822.576C836.488 822.576 1059.95 641.548 1124.73 395.988C1124.73 395.988 924.103 392.847 797.389 410.265C656.975 429.681 576.78 446.528 444.643 497.638C327.061 543.038 158.393 646.973 158.393 646.973ZM634.715 353.158C476.036 372.289 385.852 383.139 231.454 424.256C158.679 443.673 47.3753 481.363 47.3753 481.363C61.3596 513.057 78.1978 543.324 97.6045 571.592C134.135 553.318 154.969 541.04 192.64 523.622C368.728 442.53 480.888 422.829 672.672 393.133C849.616 365.722 1131.3 369.719 1131.3 369.719C1134.15 355.728 1136.72 341.737 1138.72 327.46C1138.72 327.46 830.209 329.745 635 353.158M0 294.624C2.85393 332.885 9.70337 370.005 19.6921 405.697C237.733 359.44 371.867 336.597 599.897 316.324C810.231 297.765 1141.29 300.335 1141.29 300.335C1142.14 290.912 1142.71 281.775 1143 272.352L639.852 274.351L0 294.624Z" fill="#4064DF" fill-opacity="0.05"/>
<path d="M1125.02 118.164L1125.04 119.164L1126.31 119.144L1125.99 117.909L1125.02 118.164ZM797.674 103.887L797.537 104.878L797.538 104.878L797.674 103.887ZM444.928 16.5138L445.289 15.5811L445.288 15.5809L444.928 16.5138ZM1131.01 144.433L1131.99 144.214L1131.81 143.422L1131 143.433L1131.01 144.433ZM672.386 121.019L672.54 120.031L672.539 120.031L672.386 121.019ZM192.355 -9.46979L191.935 -8.5621L191.937 -8.56122L192.355 -9.46979ZM97.3191 -57.4395L97.7609 -58.3366L96.9845 -58.7189L96.4947 -58.0055L97.3191 -57.4395ZM47.0899 32.7892L46.175 32.3856L45.7333 33.3865L46.7699 33.7366L47.0899 32.7892ZM231.169 89.896L230.91 90.862L230.911 90.8623L231.169 89.896ZM634.429 160.994L634.548 160.001L634.547 160.001L634.429 160.994ZM639.852 239.801L639.82 240.801L639.834 240.801L639.847 240.801L639.852 239.801ZM1143 242.086L1143 243.086L1144.03 243.09L1144 242.055L1143 242.086ZM1141.29 213.818L1142.28 213.727L1142.2 212.811L1141.28 212.818L1141.29 213.818ZM599.897 197.828L599.808 198.824L599.809 198.824L599.897 197.828ZM19.6921 108.456L19.8999 107.478L18.982 107.283L18.7291 108.186L19.6921 108.456ZM0 219.528L-0.99723 219.454L-1.07487 220.495L-0.0316679 220.528L0 219.528ZM158.393 646.973L157.869 646.121L156.812 646.772L157.673 647.666L158.393 646.973ZM1124.73 395.988L1125.7 396.243L1126.03 395.009L1124.75 394.989L1124.73 395.988ZM797.389 410.265L797.253 409.274L797.252 409.274L797.389 410.265ZM444.643 497.638L445.003 498.571L445.003 498.571L444.643 497.638ZM231.454 424.256L231.197 423.29L231.196 423.29L231.454 424.256ZM47.3753 481.363L47.0545 480.416L46.0191 480.767L46.4604 481.767L47.3753 481.363ZM97.6045 571.592L96.7801 572.158L97.273 572.876L98.0519 572.486L97.6045 571.592ZM192.64 523.622L192.222 522.714L192.221 522.714L192.64 523.622ZM672.672 393.133L672.825 394.121H672.825L672.672 393.133ZM1131.3 369.719L1131.28 370.719L1132.11 370.731L1132.28 369.919L1131.3 369.719ZM1138.72 327.46L1139.71 327.599L1139.87 326.452L1138.71 326.46L1138.72 327.46ZM0 294.624L-0.0316679 293.624L-1.07487 293.657L-0.99723 294.698L0 294.624ZM19.6921 405.697L18.7291 405.966L18.982 406.87L19.8997 406.675L19.6921 405.697ZM599.897 316.324L599.809 315.328L599.808 315.328L599.897 316.324ZM1141.29 300.335L1141.28 301.335L1142.2 301.342L1142.28 300.425L1141.29 300.335ZM1143 272.352L1144 272.383L1144.03 271.348L1143 271.352L1143 272.352ZM639.852 274.351L639.848 273.351L639.834 273.351L639.82 273.351L639.852 274.351ZM158.393 -132.82L159.114 -132.127C263.102 -240.157 409.252 -307.424 571.072 -307.424V-308.424V-309.424C408.686 -309.424 262.022 -241.919 157.673 -133.514L158.393 -132.82ZM571.072 -308.424V-307.424C836.307 -307.424 1059.38 -126.713 1124.05 118.419L1125.02 118.164L1125.99 117.909C1061.09 -128.078 837.239 -309.424 571.072 -309.424V-308.424ZM1125.02 118.164C1125 117.164 1125 117.164 1125 117.164C1125 117.164 1125 117.164 1125 117.164C1124.99 117.164 1124.98 117.164 1124.97 117.165C1124.94 117.165 1124.91 117.165 1124.86 117.166C1124.76 117.168 1124.62 117.17 1124.43 117.172C1124.04 117.178 1123.47 117.186 1122.72 117.195C1121.22 117.214 1119.01 117.239 1116.14 117.265C1110.41 117.317 1102.08 117.371 1091.69 117.382C1070.91 117.405 1041.88 117.253 1008.89 116.557C942.896 115.165 861.108 111.597 797.81 102.896L797.674 103.887L797.538 104.878C860.955 113.595 942.84 117.165 1008.84 118.557C1041.85 119.253 1070.9 119.405 1091.69 119.382C1102.09 119.371 1110.42 119.317 1116.16 119.265C1119.03 119.239 1121.25 119.214 1122.75 119.195C1123.5 119.185 1124.07 119.178 1124.45 119.172C1124.65 119.17 1124.79 119.167 1124.89 119.166C1124.94 119.165 1124.97 119.165 1125 119.164C1125.01 119.164 1125.02 119.164 1125.03 119.164C1125.03 119.164 1125.03 119.164 1125.03 119.164C1125.04 119.164 1125.04 119.164 1125.02 118.164ZM797.674 103.887L797.811 102.897C657.45 83.4875 577.334 66.6562 445.289 15.5811L444.928 16.5138L444.567 17.4465C576.796 68.5926 657.071 85.4542 797.537 104.878L797.674 103.887ZM444.928 16.5138L445.288 15.5809C386.566 -7.09262 315.054 -44.3976 258.197 -76.052C229.774 -91.876 205.024 -106.282 187.38 -116.732C178.558 -121.957 171.513 -126.192 166.674 -129.121C164.254 -130.586 162.386 -131.724 161.123 -132.495C160.491 -132.881 160.011 -133.176 159.689 -133.373C159.528 -133.472 159.406 -133.547 159.325 -133.597C159.285 -133.622 159.254 -133.641 159.234 -133.653C159.223 -133.659 159.216 -133.664 159.211 -133.667C159.208 -133.669 159.206 -133.67 159.205 -133.671C159.204 -133.671 159.203 -133.672 158.679 -132.82C158.154 -131.969 158.155 -131.969 158.156 -131.968C158.157 -131.967 158.159 -131.966 158.162 -131.964C158.167 -131.961 158.175 -131.956 158.185 -131.95C158.206 -131.937 158.237 -131.918 158.278 -131.893C158.359 -131.843 158.481 -131.768 158.643 -131.669C158.966 -131.47 159.448 -131.175 160.08 -130.789C161.345 -130.016 163.216 -128.876 165.638 -127.41C170.482 -124.478 177.533 -120.239 186.361 -115.011C204.016 -104.554 228.782 -90.1391 257.224 -74.3046C314.096 -42.6419 385.708 -5.27969 444.568 17.4467L444.928 16.5138ZM1138.43 186.692L1139.42 186.553C1137.42 172.263 1135.14 158.242 1131.99 144.214L1131.01 144.433L1130.04 144.652C1133.17 158.606 1135.45 172.568 1137.44 186.831L1138.43 186.692ZM1131.01 144.433C1131 143.433 1131 143.433 1131 143.433C1130.99 143.433 1130.99 143.433 1130.99 143.433C1130.98 143.433 1130.97 143.434 1130.95 143.434C1130.91 143.434 1130.86 143.435 1130.8 143.436C1130.66 143.438 1130.46 143.44 1130.19 143.444C1129.65 143.45 1128.85 143.46 1127.8 143.471C1125.69 143.494 1122.58 143.523 1118.56 143.551C1110.51 143.607 1098.82 143.656 1084.24 143.629C1055.07 143.576 1014.34 143.219 968.08 142.006C875.549 139.579 760.945 133.726 672.54 120.031L672.386 121.019L672.233 122.007C760.772 135.723 875.481 141.578 968.028 144.005C1014.31 145.219 1055.06 145.576 1084.23 145.629C1098.82 145.656 1110.52 145.607 1118.57 145.551C1122.6 145.523 1125.71 145.494 1127.82 145.471C1128.87 145.46 1129.67 145.45 1130.21 145.444C1130.48 145.44 1130.69 145.438 1130.82 145.436C1130.89 145.435 1130.94 145.434 1130.98 145.434C1130.99 145.433 1131.01 145.433 1131.01 145.433C1131.02 145.433 1131.02 145.433 1131.02 145.433C1131.03 145.433 1131.03 145.433 1131.01 144.433ZM672.386 121.019L672.539 120.031C480.779 90.3392 369.017 70.6538 192.773 -10.3784L192.355 -9.46979L191.937 -8.56122C368.44 72.5898 480.425 92.3082 672.233 122.007L672.386 121.019ZM192.355 -9.46979L192.775 -10.3775C155.09 -27.8012 134.391 -40.299 97.7609 -58.3366L97.3191 -57.4395L96.8773 -56.5424C133.308 -38.6027 154.277 -25.9735 191.935 -8.5621L192.355 -9.46979ZM97.3191 -57.4395L96.4947 -58.0055C77.0523 -29.6857 60.1839 0.635345 46.175 32.3856L47.0899 32.7892L48.0048 33.1929C61.9644 1.5546 78.7724 -28.6576 98.1435 -56.8735L97.3191 -57.4395ZM47.0899 32.7892C46.7699 33.7366 46.7703 33.7368 46.7712 33.7371C46.7721 33.7374 46.7733 33.7378 46.7751 33.7384C46.7785 33.7396 46.7836 33.7413 46.7904 33.7436C46.804 33.7482 46.8243 33.755 46.8513 33.7641C46.9054 33.7824 46.986 33.8096 47.0928 33.8456C47.3064 33.9175 47.6243 34.0246 48.042 34.1651C48.8775 34.446 50.112 34.8605 51.7089 35.395C54.9027 36.4638 59.5459 38.0123 65.3441 39.9311C76.9405 43.7687 93.1574 49.0878 111.64 55.0138C148.601 66.8643 194.64 81.1472 230.91 90.862L231.169 89.896L231.427 88.9301C195.207 79.2285 149.206 64.958 112.251 53.1093C93.7752 47.1856 77.5643 41.8685 65.9725 38.0324C60.1766 36.1143 55.5355 34.5666 52.3437 33.4984C50.7477 32.9643 49.5141 32.55 48.6795 32.2694C48.2622 32.1291 47.9447 32.0222 47.7316 31.9503C47.625 31.9144 47.5445 31.8873 47.4907 31.8691C47.4638 31.86 47.4436 31.8532 47.4301 31.8486C47.4233 31.8463 47.4183 31.8446 47.4149 31.8435C47.4132 31.8429 47.412 31.8425 47.4111 31.8422C47.4103 31.8419 47.4099 31.8418 47.0899 32.7892ZM231.169 89.896L230.911 90.8623C385.381 131.998 475.909 143.141 634.311 161.987L634.429 160.994L634.547 160.001C476.163 141.157 385.752 130.027 231.426 88.9297L231.169 89.896ZM634.429 160.994L634.31 161.987C731.959 173.699 857.924 180.125 959.458 183.623C1010.23 185.372 1054.9 186.389 1086.88 186.969C1102.86 187.259 1115.68 187.44 1124.5 187.548C1128.91 187.602 1132.32 187.638 1134.63 187.661C1135.78 187.672 1136.66 187.68 1137.25 187.685C1137.54 187.687 1137.77 187.689 1137.92 187.69C1137.99 187.691 1138.05 187.691 1138.08 187.692C1138.1 187.692 1138.12 187.692 1138.13 187.692C1138.13 187.692 1138.14 187.692 1138.14 187.692C1138.14 187.692 1138.14 187.692 1138.15 186.692C1138.16 185.692 1138.15 185.692 1138.15 185.692C1138.15 185.692 1138.15 185.692 1138.14 185.692C1138.13 185.692 1138.12 185.692 1138.1 185.692C1138.06 185.691 1138.01 185.691 1137.93 185.69C1137.78 185.689 1137.56 185.687 1137.27 185.685C1136.68 185.68 1135.8 185.672 1134.65 185.661C1132.34 185.638 1128.93 185.602 1124.52 185.548C1115.71 185.44 1102.9 185.259 1086.91 184.969C1054.94 184.39 1010.28 183.372 959.527 181.624C858.003 178.126 732.108 171.703 634.548 160.001L634.429 160.994ZM639.852 239.801L639.847 240.801L1143 243.086L1143 242.086L1143 241.086L639.856 238.801L639.852 239.801ZM1143 242.086L1144 242.055C1143.71 232.613 1143.14 223.17 1142.28 213.727L1141.29 213.818L1140.29 213.908C1141.15 223.311 1141.72 232.713 1142 242.116L1143 242.086ZM1141.29 213.818C1141.28 212.818 1141.28 212.818 1141.28 212.818C1141.27 212.818 1141.27 212.818 1141.27 212.818C1141.25 212.818 1141.24 212.818 1141.22 212.818C1141.18 212.819 1141.12 212.819 1141.04 212.82C1140.88 212.821 1140.64 212.822 1140.32 212.825C1139.69 212.829 1138.75 212.835 1137.51 212.842C1135.04 212.856 1131.38 212.875 1126.65 212.892C1117.19 212.926 1103.43 212.954 1086.28 212.929C1051.96 212.88 1004.01 212.622 949.483 211.783C840.432 210.105 705.114 206.108 599.985 196.832L599.897 197.828L599.809 198.824C705.014 208.107 840.392 212.105 949.452 213.783C1003.99 214.621 1051.95 214.88 1086.27 214.929C1103.44 214.954 1117.19 214.926 1126.66 214.892C1131.39 214.875 1135.05 214.856 1137.52 214.842C1138.76 214.835 1139.71 214.829 1140.34 214.825C1140.66 214.822 1140.89 214.821 1141.05 214.82C1141.13 214.819 1141.19 214.818 1141.23 214.818C1141.26 214.818 1141.27 214.818 1141.28 214.818C1141.29 214.818 1141.29 214.818 1141.29 214.818C1141.29 214.818 1141.3 214.818 1141.29 213.818ZM599.897 197.828L599.985 196.832C372.005 176.563 237.625 153.728 19.8999 107.478L19.6921 108.456L19.4843 109.434C237.269 155.697 371.73 178.547 599.808 198.824L599.897 197.828ZM19.6921 108.456L18.7291 108.186C8.72384 143.937 1.86197 181.122 -0.99723 219.454L0 219.528L0.99723 219.603C3.84589 181.412 10.6829 144.358 20.6551 108.725L19.6921 108.456ZM0 219.528L-0.0316679 220.528L639.82 240.801L639.852 239.801L639.883 238.802L0.0316679 218.529L0 219.528ZM158.393 646.973L157.673 647.666C262.022 756.071 408.685 823.576 570.786 823.576V822.576V821.576C409.252 821.576 263.102 754.309 159.114 646.279L158.393 646.973ZM570.786 822.576V823.576C836.953 823.576 1060.8 642.23 1125.7 396.243L1124.73 395.988L1123.77 395.733C1059.1 640.865 836.022 821.576 570.786 821.576V822.576ZM1124.73 395.988C1124.75 394.989 1124.75 394.989 1124.75 394.988C1124.75 394.988 1124.74 394.988 1124.74 394.988C1124.73 394.988 1124.73 394.988 1124.71 394.988C1124.69 394.988 1124.65 394.987 1124.6 394.986C1124.51 394.985 1124.36 394.983 1124.17 394.98C1123.79 394.975 1123.21 394.967 1122.46 394.957C1120.96 394.939 1118.74 394.913 1115.88 394.888C1110.14 394.836 1101.8 394.781 1091.41 394.77C1070.61 394.747 1041.57 394.899 1008.56 395.595C942.554 396.987 860.67 400.557 797.253 409.274L797.389 410.265L797.525 411.256C860.822 402.555 942.611 398.987 1008.6 397.595C1041.59 396.899 1070.62 396.747 1091.41 396.77C1101.8 396.781 1110.13 396.836 1115.86 396.887C1118.72 396.913 1120.94 396.939 1122.44 396.957C1123.19 396.967 1123.76 396.974 1124.14 396.98C1124.33 396.983 1124.48 396.985 1124.57 396.986C1124.62 396.987 1124.66 396.987 1124.68 396.988C1124.7 396.988 1124.7 396.988 1124.71 396.988C1124.71 396.988 1124.72 396.988 1124.72 396.988C1124.72 396.988 1124.72 396.988 1124.73 395.988ZM797.389 410.265L797.252 409.274C656.786 428.698 576.511 445.56 444.282 496.706L444.643 497.638L445.003 498.571C577.049 447.496 657.165 430.665 797.526 411.256L797.389 410.265ZM444.643 497.638L444.283 496.706C385.423 519.432 313.81 556.794 256.938 588.457C228.497 604.291 203.731 618.706 186.075 629.163C177.247 634.392 170.197 638.63 165.353 641.563C162.93 643.029 161.06 644.168 159.795 644.941C159.162 645.328 158.681 645.622 158.358 645.821C158.196 645.92 158.074 645.995 157.992 646.045C157.951 646.07 157.92 646.089 157.9 646.102C157.89 646.108 157.882 646.113 157.877 646.116C157.874 646.118 157.872 646.119 157.871 646.12C157.869 646.121 157.869 646.121 158.393 646.973C158.918 647.824 158.918 647.824 158.92 647.823C158.921 647.822 158.923 647.821 158.925 647.819C158.93 647.816 158.938 647.812 158.948 647.805C158.969 647.793 158.999 647.774 159.04 647.749C159.121 647.699 159.243 647.624 159.404 647.525C159.726 647.328 160.206 647.034 160.838 646.648C162.1 645.876 163.969 644.738 166.388 643.274C171.227 640.344 178.272 636.109 187.094 630.884C204.738 620.434 229.488 606.028 257.911 590.204C314.768 558.55 386.28 521.245 445.003 498.571L444.643 497.638ZM634.715 353.158L634.595 352.166C475.91 371.297 385.667 382.154 231.197 423.29L231.454 424.256L231.711 425.223C386.037 384.125 476.162 373.281 634.834 354.151L634.715 353.158ZM231.454 424.256L231.196 423.29C194.783 433.005 148.744 447.288 111.818 459.139C93.3532 465.065 77.1629 470.384 65.5888 474.221C59.8017 476.14 55.1685 477.689 51.982 478.758C50.3887 479.292 49.157 479.706 48.3236 479.987C47.9069 480.128 47.5897 480.235 47.3767 480.307C47.2702 480.343 47.1897 480.37 47.1358 480.388C47.1089 480.398 47.0886 480.404 47.075 480.409C47.0682 480.411 47.0631 480.413 47.0597 480.414C47.058 480.415 47.0567 480.415 47.0559 480.415C47.055 480.416 47.0545 480.416 47.3753 481.363C47.696 482.31 47.6964 482.31 47.6973 482.31C47.6981 482.31 47.6993 482.309 47.701 482.309C47.7044 482.307 47.7094 482.306 47.7162 482.303C47.7296 482.299 47.7498 482.292 47.7766 482.283C47.8303 482.265 47.9106 482.238 48.0169 482.202C48.2295 482.13 48.5462 482.023 48.9625 481.883C49.795 481.602 51.0257 481.188 52.618 480.654C55.8026 479.586 60.4336 478.038 66.2183 476.12C77.7878 472.284 93.9718 466.967 112.429 461.043C149.349 449.194 195.349 434.924 231.712 425.222L231.454 424.256ZM47.3753 481.363L46.4604 481.767C60.4693 513.517 77.3377 543.838 96.7801 572.158L97.6045 571.592L98.4289 571.026C79.0578 542.81 62.2498 512.598 48.2902 480.959L47.3753 481.363ZM97.6045 571.592L98.0519 572.486C134.647 554.179 155.397 541.943 193.06 524.53L192.64 523.622L192.221 522.714C154.54 540.136 133.622 552.456 97.1571 570.697L97.6045 571.592ZM192.64 523.622L193.059 524.53C369.017 443.498 481.064 423.813 672.825 394.121L672.672 393.133L672.519 392.145C480.711 421.844 368.44 441.562 192.222 522.714L192.64 523.622ZM672.672 393.133L672.825 394.121C761.231 380.426 875.834 374.573 968.366 372.147C1014.62 370.933 1055.36 370.576 1084.52 370.523C1099.11 370.496 1110.8 370.545 1118.84 370.601C1122.87 370.629 1125.98 370.658 1128.08 370.681C1129.13 370.692 1129.94 370.702 1130.47 370.709C1130.74 370.712 1130.94 370.715 1131.08 370.716C1131.15 370.717 1131.2 370.718 1131.23 370.718C1131.25 370.719 1131.26 370.719 1131.27 370.719C1131.28 370.719 1131.28 370.719 1131.28 370.719C1131.28 370.719 1131.28 370.719 1131.3 369.719C1131.31 368.719 1131.31 368.719 1131.31 368.719C1131.31 368.719 1131.3 368.719 1131.3 368.719C1131.29 368.719 1131.28 368.719 1131.26 368.719C1131.23 368.718 1131.18 368.717 1131.11 368.717C1130.97 368.715 1130.77 368.712 1130.5 368.709C1129.96 368.702 1129.16 368.692 1128.1 368.681C1126 368.659 1122.88 368.629 1118.86 368.601C1110.81 368.545 1099.11 368.496 1084.52 368.523C1055.34 368.577 1014.59 368.934 968.313 370.147C875.767 372.575 761.057 378.429 672.519 392.145L672.672 393.133ZM1131.3 369.719L1132.28 369.919C1135.14 355.916 1137.71 341.903 1139.71 327.599L1138.72 327.46L1137.73 327.322C1135.73 341.571 1133.17 355.541 1130.32 369.519L1131.3 369.719ZM1138.72 327.46C1138.71 326.46 1138.71 326.46 1138.71 326.46C1138.71 326.46 1138.7 326.46 1138.7 326.46C1138.69 326.461 1138.67 326.461 1138.66 326.461C1138.62 326.461 1138.56 326.461 1138.49 326.462C1138.34 326.463 1138.11 326.465 1137.82 326.468C1137.23 326.473 1136.35 326.48 1135.2 326.492C1132.89 326.514 1129.48 326.55 1125.07 326.604C1116.25 326.712 1103.43 326.893 1087.45 327.183C1055.47 327.763 1010.8 328.781 960.029 330.53C858.495 334.028 732.53 340.453 634.881 352.165L635 353.158L635.119 354.151C732.679 342.45 858.574 336.026 960.097 332.529C1010.86 330.78 1055.51 329.763 1087.48 329.183C1103.47 328.893 1116.28 328.712 1125.09 328.604C1129.5 328.55 1132.91 328.514 1135.22 328.492C1136.37 328.48 1137.25 328.473 1137.84 328.468C1138.13 328.465 1138.35 328.463 1138.5 328.462C1138.58 328.461 1138.63 328.461 1138.67 328.461C1138.69 328.461 1138.7 328.46 1138.71 328.46C1138.72 328.46 1138.72 328.46 1138.72 328.46C1138.73 328.46 1138.73 328.46 1138.72 327.46ZM0 294.624L-0.99723 294.698C1.86197 333.031 8.72384 370.215 18.7291 405.966L19.6921 405.697L20.6551 405.427C10.6829 369.794 3.84589 332.74 0.99723 294.549L0 294.624ZM19.6921 405.697L19.8997 406.675C237.91 360.425 372.005 337.589 599.985 317.32L599.897 316.324L599.808 315.328C371.73 335.606 237.555 358.456 19.4846 404.718L19.6921 405.697ZM599.897 316.324L599.985 317.321C705.114 308.044 840.432 304.047 949.483 302.369C1004.01 301.531 1051.96 301.272 1086.28 301.223C1103.43 301.198 1117.19 301.226 1126.65 301.26C1131.38 301.277 1135.04 301.296 1137.51 301.31C1138.75 301.317 1139.69 301.323 1140.32 301.328C1140.64 301.33 1140.88 301.332 1141.04 301.333C1141.12 301.333 1141.18 301.334 1141.22 301.334C1141.24 301.334 1141.25 301.334 1141.27 301.334C1141.27 301.334 1141.27 301.334 1141.28 301.334C1141.28 301.334 1141.28 301.335 1141.29 300.335C1141.3 299.335 1141.29 299.335 1141.29 299.335C1141.29 299.335 1141.29 299.334 1141.28 299.334C1141.27 299.334 1141.26 299.334 1141.23 299.334C1141.19 299.334 1141.13 299.333 1141.05 299.333C1140.89 299.332 1140.66 299.33 1140.34 299.328C1139.71 299.323 1138.76 299.317 1137.52 299.31C1135.05 299.296 1131.39 299.277 1126.66 299.26C1117.19 299.226 1103.44 299.198 1086.27 299.223C1051.95 299.272 1003.99 299.531 949.452 300.37C840.392 302.047 705.014 306.045 599.809 315.328L599.897 316.324ZM1141.29 300.335L1142.28 300.425C1143.14 290.984 1143.71 281.826 1144 272.383L1143 272.352L1142 272.322C1141.72 281.723 1141.15 290.84 1140.29 300.244L1141.29 300.335ZM1143 272.352L1143 271.352L639.848 273.351L639.852 274.351L639.856 275.351L1143 273.352L1143 272.352ZM639.852 274.351L639.82 273.351L-0.0316679 293.624L0 294.624L0.0316679 295.623L639.883 275.35L639.852 274.351Z" fill="#4064DF" fill-opacity="0.3" mask="url(#path-1-inside-1_2665_20606)"/>
</svg>
