<svg width="777" height="770" viewBox="0 0 777 770" fill="none" xmlns="http://www.w3.org/2000/svg">
<mask id="path-1-inside-1_1575_7311" fill="white">
<path fill-rule="evenodd" clip-rule="evenodd" d="M107.674 119.553C178.487 45.8773 278.013 0 388.209 0C568.83 0 720.738 123.247 764.778 290.427C764.778 290.427 628.39 292.565 542.251 280.707C446.799 267.488 392.283 256.019 302.458 221.222C222.527 190.313 107.868 119.553 107.868 119.553M773.896 337.082C772.538 327.362 770.986 317.836 768.852 308.311C768.852 308.311 577.366 311.033 457.082 292.371C326.709 272.154 250.658 258.74 130.761 203.532C105.152 191.674 90.9895 183.12 66.1566 170.874C52.964 190.119 41.5176 210.725 32.0112 232.302C32.0112 232.302 107.868 257.963 157.146 271.182C262.104 299.174 323.604 306.756 431.279 319.586C563.98 335.526 773.702 337.082 773.702 337.082M434.965 373.239L777 374.794C776.806 368.379 776.418 361.964 775.836 355.549C775.836 355.549 550.787 357.299 407.804 344.663C252.792 330.861 161.414 315.309 13.3865 283.817C6.59625 308.117 1.94007 333.388 0 359.437L434.965 373.239ZM107.674 650.447C178.487 724.123 278.013 770 388.015 770C568.636 770 720.544 646.753 764.583 479.573C764.583 479.573 628.196 477.435 542.057 489.293C446.605 502.512 392.089 513.981 302.264 548.778C222.333 579.687 107.674 650.447 107.674 650.447ZM431.473 450.414C323.604 463.439 262.298 470.826 157.34 498.818C107.868 512.037 32.2052 537.698 32.2052 537.698C41.7116 559.275 53.1581 579.881 66.3506 599.126C91.1835 586.685 105.346 578.326 130.955 566.468C250.658 511.26 326.903 497.846 457.276 477.629C577.56 458.967 769.046 461.689 769.046 461.689C770.986 452.164 772.732 442.638 774.09 432.918C774.09 432.918 564.368 434.474 431.667 450.414M0 410.563C1.94007 436.612 6.59625 461.883 13.3865 486.183C161.608 454.691 252.792 439.139 407.804 425.337C550.787 412.701 775.836 414.451 775.836 414.451C776.418 408.036 776.806 401.815 777 395.4L434.965 396.761L0 410.563Z"/>
</mask>
<path fill-rule="evenodd" clip-rule="evenodd" d="M107.674 119.553C178.487 45.8773 278.013 0 388.209 0C568.83 0 720.738 123.247 764.778 290.427C764.778 290.427 628.39 292.565 542.251 280.707C446.799 267.488 392.283 256.019 302.458 221.222C222.527 190.313 107.868 119.553 107.868 119.553M773.896 337.082C772.538 327.362 770.986 317.836 768.852 308.311C768.852 308.311 577.366 311.033 457.082 292.371C326.709 272.154 250.658 258.74 130.761 203.532C105.152 191.674 90.9895 183.12 66.1566 170.874C52.964 190.119 41.5176 210.725 32.0112 232.302C32.0112 232.302 107.868 257.963 157.146 271.182C262.104 299.174 323.604 306.756 431.279 319.586C563.98 335.526 773.702 337.082 773.702 337.082M434.965 373.239L777 374.794C776.806 368.379 776.418 361.964 775.836 355.549C775.836 355.549 550.787 357.299 407.804 344.663C252.792 330.861 161.414 315.309 13.3865 283.817C6.59625 308.117 1.94007 333.388 0 359.437L434.965 373.239ZM107.674 650.447C178.487 724.123 278.013 770 388.015 770C568.636 770 720.544 646.753 764.583 479.573C764.583 479.573 628.196 477.435 542.057 489.293C446.605 502.512 392.089 513.981 302.264 548.778C222.333 579.687 107.674 650.447 107.674 650.447ZM431.473 450.414C323.604 463.439 262.298 470.826 157.34 498.818C107.868 512.037 32.2052 537.698 32.2052 537.698C41.7116 559.275 53.1581 579.881 66.3506 599.126C91.1835 586.685 105.346 578.326 130.955 566.468C250.658 511.26 326.903 497.846 457.276 477.629C577.56 458.967 769.046 461.689 769.046 461.689C770.986 452.164 772.732 442.638 774.09 432.918C774.09 432.918 564.368 434.474 431.667 450.414M0 410.563C1.94007 436.612 6.59625 461.883 13.3865 486.183C161.608 454.691 252.792 439.139 407.804 425.337C550.787 412.701 775.836 414.451 775.836 414.451C776.418 408.036 776.806 401.815 777 395.4L434.965 396.761L0 410.563Z" fill="#4064DF" fill-opacity="0.1"/>
<path d="M764.778 290.427L764.793 291.427L766.07 291.406L765.745 290.172L764.778 290.427ZM542.251 280.707L542.114 281.697L542.115 281.698L542.251 280.707ZM302.458 221.222L302.819 220.289L302.818 220.289L302.458 221.222ZM768.852 308.311L769.828 308.092L769.65 307.3L768.838 307.311L768.852 308.311ZM457.082 292.371L457.235 291.382H457.235L457.082 292.371ZM130.761 203.532L130.341 204.439L130.343 204.44L130.761 203.532ZM66.1566 170.874L66.5989 169.977L65.8217 169.593L65.3317 170.308L66.1566 170.874ZM32.0112 232.302L31.0961 231.899L30.6555 232.899L31.6908 233.25L32.0112 232.302ZM157.146 271.182L156.887 272.147L156.888 272.148L157.146 271.182ZM431.279 319.586L431.398 318.593L431.397 318.593L431.279 319.586ZM434.965 373.239L434.933 374.239L434.947 374.239L434.96 374.239L434.965 373.239ZM777 374.794L776.995 375.794L778.031 375.799L778 374.764L777 374.794ZM775.836 355.549L776.832 355.459L776.749 354.542L775.828 354.549L775.836 355.549ZM407.804 344.663L407.715 345.659L407.716 345.659L407.804 344.663ZM13.3865 283.817L13.5946 282.839L12.6761 282.644L12.4234 283.548L13.3865 283.817ZM0 359.437L-0.997238 359.363L-1.07475 360.403L-0.0317155 360.436L0 359.437ZM107.674 650.447L107.149 649.596L106.095 650.247L106.953 651.14L107.674 650.447ZM764.583 479.573L765.551 479.828L765.876 478.593L764.599 478.573L764.583 479.573ZM542.057 489.293L541.921 488.302L541.92 488.303L542.057 489.293ZM302.264 548.778L302.624 549.711L302.625 549.711L302.264 548.778ZM157.34 498.818L157.082 497.852L157.082 497.852L157.34 498.818ZM32.2052 537.698L31.8841 536.75L30.8498 537.101L31.2901 538.101L32.2052 537.698ZM66.3506 599.126L65.5257 599.692L66.0188 600.411L66.7985 600.021L66.3506 599.126ZM130.955 566.468L130.536 565.56L130.535 565.561L130.955 566.468ZM457.276 477.629L457.429 478.618H457.429L457.276 477.629ZM769.046 461.689L769.031 462.689L769.86 462.701L770.026 461.889L769.046 461.689ZM774.09 432.918L775.08 433.057L775.241 431.91L774.083 431.918L774.09 432.918ZM0 410.563L-0.0317155 409.564L-1.07475 409.597L-0.997238 410.637L0 410.563ZM13.3865 486.183L12.4234 486.452L12.6761 487.356L13.5943 487.161L13.3865 486.183ZM407.804 425.337L407.716 424.341L407.715 424.341L407.804 425.337ZM775.836 414.451L775.828 415.451L776.749 415.458L776.832 414.541L775.836 414.451ZM777 395.4L778 395.43L778.031 394.396L776.996 394.4L777 395.4ZM434.965 396.761L434.961 395.761L434.947 395.761L434.933 395.761L434.965 396.761ZM107.674 119.553L108.395 120.246C179.027 46.7581 278.296 1 388.209 1V0V-1C277.729 -1 177.946 44.9965 106.953 118.86L107.674 119.553ZM388.209 0V1C568.363 1 719.883 123.928 763.81 290.681L764.778 290.427L765.745 290.172C721.592 122.565 569.297 -1 388.209 -1V0ZM764.778 290.427C764.762 289.427 764.761 289.427 764.76 289.427C764.759 289.427 764.758 289.427 764.756 289.427C764.752 289.427 764.746 289.427 764.737 289.427C764.721 289.427 764.696 289.428 764.663 289.428C764.598 289.429 764.5 289.431 764.37 289.433C764.109 289.436 763.722 289.441 763.212 289.448C762.193 289.461 760.687 289.478 758.74 289.495C754.845 289.531 749.183 289.568 742.12 289.575C727.993 289.591 708.261 289.487 685.838 289.014C640.98 288.066 585.397 285.637 542.387 279.716L542.251 280.707L542.115 281.698C585.244 287.635 640.924 290.066 685.795 291.013C708.236 291.487 727.984 291.591 742.122 291.575C749.191 291.568 754.858 291.531 758.758 291.495C760.708 291.478 762.216 291.46 763.237 291.448C763.748 291.441 764.137 291.436 764.398 291.432C764.528 291.43 764.627 291.429 764.693 291.428C764.726 291.428 764.751 291.427 764.768 291.427C764.776 291.427 764.783 291.427 764.787 291.427C764.789 291.427 764.79 291.427 764.792 291.427C764.793 291.427 764.793 291.427 764.778 290.427ZM542.251 280.707L542.388 279.716C446.989 266.505 392.552 255.051 302.819 220.289L302.458 221.222L302.096 222.154C392.014 256.987 446.61 268.471 542.114 281.697L542.251 280.707ZM302.458 221.222L302.818 220.289C262.921 204.861 214.324 179.473 175.676 157.923C156.357 147.152 139.535 137.346 127.543 130.232C121.547 126.676 116.758 123.793 113.469 121.799C111.825 120.802 110.555 120.027 109.697 119.502C109.268 119.24 108.942 119.04 108.723 118.905C108.614 118.838 108.531 118.787 108.476 118.753C108.448 118.736 108.428 118.723 108.414 118.715C108.407 118.711 108.402 118.707 108.398 118.705C108.397 118.704 108.395 118.703 108.395 118.703C108.394 118.702 108.393 118.702 107.868 119.553C107.343 120.404 107.343 120.404 107.344 120.405C107.345 120.406 107.347 120.406 107.348 120.407C107.352 120.41 107.357 120.413 107.364 120.417C107.378 120.426 107.399 120.439 107.427 120.456C107.483 120.49 107.566 120.541 107.676 120.609C107.896 120.744 108.223 120.945 108.653 121.208C109.514 121.735 110.786 122.511 112.433 123.509C115.726 125.506 120.52 128.392 126.522 131.952C138.526 139.073 155.364 148.888 174.702 159.67C213.365 181.228 262.063 206.674 302.097 222.155L302.458 221.222ZM773.896 337.082L774.886 336.943C773.526 327.21 771.97 317.655 769.828 308.092L768.852 308.311L767.876 308.53C770.002 318.018 771.549 327.514 772.906 337.22L773.896 337.082ZM768.852 308.311C768.838 307.311 768.837 307.311 768.835 307.311C768.834 307.311 768.832 307.311 768.829 307.311C768.823 307.311 768.815 307.311 768.803 307.312C768.78 307.312 768.745 307.312 768.699 307.313C768.607 307.314 768.469 307.316 768.286 307.318C767.921 307.323 767.376 307.329 766.661 307.337C765.23 307.352 763.116 307.373 760.382 307.392C754.914 307.429 746.967 307.463 737.055 307.445C717.229 307.408 689.543 307.165 658.1 306.339C595.2 304.687 517.311 300.703 457.235 291.382L457.082 292.371L456.928 293.359C517.137 302.7 595.133 306.686 658.047 308.339C689.511 309.165 717.213 309.408 737.051 309.445C746.97 309.463 754.922 309.429 760.396 309.391C763.133 309.372 765.25 309.352 766.683 309.337C767.399 309.329 767.945 309.323 768.311 309.318C768.495 309.316 768.633 309.314 768.726 309.313C768.772 309.312 768.807 309.312 768.831 309.311C768.842 309.311 768.851 309.311 768.857 309.311C768.86 309.311 768.862 309.311 768.864 309.311C768.865 309.311 768.866 309.311 768.852 308.311ZM457.082 292.371L457.235 291.382C326.886 271.169 250.947 257.772 131.179 202.624L130.761 203.532L130.343 204.44C250.369 259.708 326.531 273.138 456.928 293.359L457.082 292.371ZM130.761 203.532L131.181 202.624C105.559 190.76 91.5314 182.273 66.5989 169.977L66.1566 170.874L65.7142 171.77C90.4477 183.968 104.745 192.587 130.341 204.439L130.761 203.532ZM66.1566 170.874L65.3317 170.308C52.1036 189.605 40.6271 210.265 31.0961 231.899L32.0112 232.302L32.9264 232.706C42.4081 211.184 53.8245 190.632 66.9814 171.439L66.1566 170.874ZM32.0112 232.302C31.6908 233.25 31.6911 233.25 31.6917 233.25C31.6923 233.25 31.6932 233.251 31.6943 233.251C31.6967 233.252 31.7002 233.253 31.7048 233.254C31.7141 233.258 31.7279 233.262 31.7463 233.268C31.783 233.281 31.8379 233.299 31.9105 233.324C32.0558 233.373 32.272 233.446 32.556 233.542C33.1241 233.733 33.9635 234.015 35.0492 234.379C37.2206 235.107 40.3773 236.161 44.3192 237.468C52.203 240.081 63.2281 243.702 75.7937 247.737C100.92 255.805 132.223 265.531 156.887 272.147L157.146 271.182L157.405 270.216C132.791 263.613 101.526 253.899 76.4052 245.833C63.8468 241.8 52.8278 238.181 44.9485 235.569C41.0088 234.263 37.8543 233.21 35.6847 232.483C34.6 232.119 33.7615 231.837 33.1943 231.646C32.9108 231.551 32.695 231.478 32.5502 231.429C32.4778 231.405 32.4231 231.386 32.3865 231.374C32.3683 231.368 32.3545 231.363 32.3454 231.36C32.3408 231.358 32.3373 231.357 32.3351 231.356C32.3339 231.356 32.3331 231.356 32.3325 231.355C32.3319 231.355 32.3317 231.355 32.0112 232.302ZM157.146 271.182L156.888 272.148C261.918 300.16 323.477 307.748 431.16 320.579L431.279 319.586L431.397 318.593C323.732 305.764 262.29 298.189 157.404 270.215L157.146 271.182ZM431.279 319.586L431.159 320.579C497.554 328.554 583.195 332.929 652.219 335.311C686.734 336.502 717.102 337.194 738.841 337.589C749.711 337.787 758.423 337.91 764.419 337.984C767.417 338.02 769.735 338.045 771.305 338.06C772.089 338.068 772.686 338.073 773.088 338.077C773.288 338.078 773.44 338.079 773.541 338.08C773.592 338.081 773.63 338.081 773.656 338.081C773.669 338.081 773.678 338.081 773.685 338.081C773.688 338.081 773.69 338.081 773.692 338.081C773.694 338.082 773.694 338.082 773.702 337.082C773.709 336.082 773.709 336.082 773.707 336.082C773.705 336.082 773.703 336.082 773.7 336.082C773.694 336.081 773.684 336.081 773.671 336.081C773.646 336.081 773.608 336.081 773.557 336.08C773.456 336.08 773.305 336.078 773.105 336.077C772.704 336.073 772.108 336.068 771.324 336.06C769.756 336.045 767.44 336.02 764.443 335.984C758.451 335.91 749.743 335.787 738.878 335.59C717.147 335.195 686.79 334.502 652.288 333.312C583.275 330.931 497.704 326.558 431.398 318.593L431.279 319.586ZM434.965 373.239L434.96 374.239L776.995 375.794L777 374.794L777.005 373.794L434.969 372.239L434.965 373.239ZM777 374.794L778 374.764C777.805 368.329 777.416 361.894 776.832 355.459L775.836 355.549L774.84 355.639C775.42 362.035 775.807 368.43 776 374.824L777 374.794ZM775.836 355.549C775.828 354.549 775.827 354.549 775.826 354.549C775.824 354.549 775.821 354.549 775.818 354.549C775.811 354.549 775.801 354.549 775.787 354.549C775.76 354.55 775.719 354.55 775.665 354.55C775.557 354.551 775.394 354.552 775.179 354.554C774.749 354.557 774.109 354.561 773.268 354.566C771.585 354.575 769.099 354.588 765.883 354.6C759.452 354.623 750.104 354.642 738.439 354.625C715.111 354.592 682.516 354.415 645.454 353.845C571.323 352.703 479.345 349.981 407.892 343.667L407.804 344.663L407.716 345.659C479.246 351.98 571.284 354.702 645.423 355.844C682.497 356.415 715.101 356.592 738.437 356.625C750.105 356.642 759.456 356.623 765.89 356.6C769.107 356.588 771.596 356.575 773.279 356.566C774.121 356.561 774.762 356.557 775.193 356.554C775.408 356.552 775.571 356.551 775.68 356.55C775.734 356.55 775.775 356.55 775.802 356.549C775.816 356.549 775.826 356.549 775.833 356.549C775.837 356.549 775.839 356.549 775.841 356.549C775.843 356.549 775.844 356.549 775.836 355.549ZM407.804 344.663L407.892 343.667C252.929 329.869 161.592 314.325 13.5946 282.839L13.3865 283.817L13.1784 284.795C161.236 316.294 252.654 331.853 407.715 345.659L407.804 344.663ZM13.3865 283.817L12.4234 283.548C5.61666 307.907 0.948093 333.243 -0.997238 359.363L0 359.437L0.997238 359.511C2.93206 333.533 7.57585 308.327 14.3496 284.086L13.3865 283.817ZM0 359.437L-0.0317155 360.436L434.933 374.239L434.965 373.239L434.997 372.24L0.0317155 358.438L0 359.437ZM107.674 650.447L106.953 651.14C177.946 725.003 277.729 771 388.015 771V770V769C278.296 769 179.028 723.242 108.395 649.754L107.674 650.447ZM388.015 770V771C569.103 771 721.398 647.435 765.551 479.828L764.583 479.573L763.617 479.319C719.689 646.072 568.169 769 388.015 769V770ZM764.583 479.573C764.599 478.573 764.599 478.573 764.598 478.573C764.596 478.573 764.595 478.573 764.593 478.573C764.589 478.573 764.582 478.573 764.574 478.573C764.557 478.573 764.532 478.572 764.499 478.572C764.433 478.571 764.334 478.57 764.204 478.568C763.943 478.564 763.554 478.559 763.043 478.552C762.022 478.54 760.514 478.522 758.564 478.505C754.664 478.469 748.997 478.432 741.928 478.424C727.79 478.409 708.042 478.513 685.601 478.987C640.73 479.934 585.05 482.365 541.921 488.302L542.057 489.293L542.193 490.284C585.203 484.363 640.786 481.934 685.644 480.986C708.067 480.513 727.799 480.409 741.926 480.424C748.989 480.432 754.651 480.469 758.546 480.505C760.493 480.522 761.999 480.539 763.018 480.552C763.528 480.559 763.915 480.564 764.176 480.567C764.306 480.569 764.404 480.571 764.469 480.572C764.502 480.572 764.527 480.573 764.543 480.573C764.552 480.573 764.558 480.573 764.562 480.573C764.564 480.573 764.565 480.573 764.566 480.573C764.567 480.573 764.568 480.573 764.583 479.573ZM542.057 489.293L541.92 488.303C446.416 501.529 391.82 513.013 301.902 547.846L302.264 548.778L302.625 549.711C392.358 514.949 446.795 503.495 542.194 490.284L542.057 489.293ZM302.264 548.778L301.903 547.845C261.869 563.326 213.171 588.772 174.508 610.33C155.17 621.112 138.332 630.927 126.328 638.048C120.326 641.608 115.532 644.494 112.239 646.491C110.592 647.489 109.32 648.265 108.459 648.792C108.029 649.055 107.702 649.256 107.482 649.391C107.372 649.458 107.289 649.51 107.233 649.544C107.205 649.561 107.184 649.574 107.17 649.583C107.163 649.587 107.158 649.59 107.154 649.592C107.153 649.594 107.151 649.594 107.15 649.595C107.149 649.596 107.149 649.596 107.674 650.447C108.199 651.298 108.2 651.298 108.201 651.297C108.201 651.297 108.203 651.296 108.204 651.295C108.208 651.293 108.213 651.289 108.22 651.285C108.234 651.277 108.254 651.264 108.282 651.247C108.337 651.213 108.42 651.162 108.529 651.095C108.748 650.96 109.074 650.76 109.503 650.498C110.361 649.972 111.631 649.198 113.275 648.201C116.564 646.207 121.353 643.324 127.349 639.768C139.341 632.654 156.163 622.848 175.482 612.077C214.13 590.527 262.727 565.139 302.624 549.711L302.264 548.778ZM431.473 450.414L431.353 449.421C323.478 462.447 262.113 469.84 157.082 497.852L157.34 498.818L157.598 499.785C262.484 471.811 323.731 464.431 431.593 451.407L431.473 450.414ZM157.34 498.818L157.082 497.852C132.321 504.469 101.017 514.195 75.9147 522.263C63.3611 526.298 52.3541 529.92 44.4854 532.533C40.551 533.839 37.4011 534.893 35.2346 535.621C34.1513 535.985 33.3139 536.267 32.7472 536.459C32.4638 536.554 32.2482 536.627 32.1033 536.676C32.0308 536.701 31.9761 536.719 31.9394 536.732C31.9211 536.738 31.9073 536.743 31.898 536.746C31.8934 536.747 31.8899 536.749 31.8876 536.749C31.8864 536.75 31.8856 536.75 31.885 536.75C31.8844 536.75 31.8841 536.75 32.2052 537.698C32.5264 538.645 32.5267 538.644 32.5272 538.644C32.5278 538.644 32.5287 538.644 32.5298 538.643C32.5321 538.643 32.5355 538.641 32.5401 538.64C32.5492 538.637 32.5629 538.632 32.5811 538.626C32.6176 538.614 32.6721 538.595 32.7443 538.571C32.8888 538.522 33.104 538.449 33.3869 538.354C33.9527 538.163 34.7892 537.881 35.8714 537.517C38.036 536.79 41.1837 535.736 45.1157 534.431C52.9798 531.819 63.9805 528.2 76.5267 524.167C101.623 516.101 132.888 506.387 157.598 499.785L157.34 498.818ZM32.2052 537.698L31.2901 538.101C40.8211 559.734 52.2976 580.395 65.5257 599.692L66.3506 599.126L67.1754 598.561C54.0185 579.368 42.6021 558.816 33.1204 537.294L32.2052 537.698ZM66.3506 599.126L66.7985 600.021C91.6966 587.547 105.775 579.229 131.375 567.375L130.955 566.468L130.535 565.561C104.917 577.423 90.6704 585.824 65.9026 598.232L66.3506 599.126ZM130.955 566.468L131.374 567.376C250.947 512.228 327.08 498.831 457.429 478.618L457.276 477.629L457.122 476.641C326.726 496.862 250.369 510.292 130.536 565.56L130.955 566.468ZM457.276 477.629L457.429 478.618C517.505 469.297 595.394 465.313 658.294 463.661C689.737 462.835 717.423 462.592 737.248 462.555C747.161 462.537 755.108 462.57 760.576 462.608C763.31 462.627 765.424 462.648 766.855 462.663C767.57 462.671 768.115 462.677 768.48 462.682C768.663 462.684 768.801 462.686 768.893 462.687C768.939 462.688 768.974 462.688 768.997 462.688C769.008 462.689 769.017 462.689 769.023 462.689C769.026 462.689 769.028 462.689 769.029 462.689C769.031 462.689 769.031 462.689 769.046 461.689C769.06 460.689 769.059 460.689 769.058 460.689C769.056 460.689 769.054 460.689 769.051 460.689C769.045 460.689 769.036 460.689 769.025 460.689C769.001 460.688 768.966 460.688 768.92 460.687C768.827 460.686 768.688 460.684 768.505 460.682C768.139 460.677 767.593 460.671 766.877 460.663C765.444 460.648 763.327 460.627 760.59 460.608C755.116 460.57 747.164 460.537 737.245 460.555C717.407 460.592 689.705 460.835 658.241 461.661C595.327 463.314 517.331 467.3 457.122 476.641L457.276 477.629ZM769.046 461.689L770.026 461.889C771.968 452.351 773.718 442.804 775.08 433.057L774.09 432.918L773.1 432.78C771.745 442.473 770.003 451.976 768.066 461.489L769.046 461.689ZM774.09 432.918C774.083 431.918 774.082 431.918 774.08 431.918C774.078 431.919 774.076 431.919 774.073 431.919C774.066 431.919 774.057 431.919 774.044 431.919C774.018 431.919 773.98 431.919 773.929 431.92C773.828 431.92 773.676 431.922 773.476 431.923C773.074 431.927 772.477 431.932 771.693 431.94C770.123 431.955 767.805 431.98 764.807 432.016C758.811 432.09 750.099 432.213 739.229 432.411C717.49 432.806 687.122 433.498 652.607 434.689C583.583 437.071 497.942 441.446 431.547 449.421L431.667 450.414L431.786 451.407C498.092 443.442 583.663 439.069 652.676 436.688C687.178 435.498 717.535 434.805 739.266 434.41C750.131 434.213 758.84 434.09 764.832 434.016C767.828 433.98 770.144 433.955 771.712 433.94C772.496 433.932 773.092 433.927 773.493 433.923C773.693 433.922 773.844 433.92 773.945 433.92C773.996 433.919 774.034 433.919 774.059 433.919C774.072 433.919 774.082 433.919 774.088 433.918C774.091 433.918 774.093 433.918 774.095 433.918C774.097 433.918 774.097 433.918 774.09 432.918ZM0 410.563L-0.997238 410.637C0.948093 436.757 5.61666 462.093 12.4234 486.452L13.3865 486.183L14.3496 485.914C7.57585 461.673 2.93206 436.467 0.997238 410.489L0 410.563ZM13.3865 486.183L13.5943 487.161C161.786 455.675 252.929 440.131 407.892 426.333L407.804 425.337L407.715 424.341C252.654 438.147 161.43 453.706 13.1787 485.205L13.3865 486.183ZM407.804 425.337L407.892 426.333C479.345 420.019 571.323 417.297 645.454 416.155C682.516 415.585 715.111 415.408 738.439 415.375C750.104 415.358 759.452 415.377 765.883 415.4C769.099 415.412 771.585 415.425 773.268 415.434C774.109 415.439 774.749 415.443 775.179 415.446C775.394 415.448 775.557 415.449 775.665 415.45C775.719 415.45 775.76 415.45 775.787 415.451C775.801 415.451 775.811 415.451 775.818 415.451C775.821 415.451 775.824 415.451 775.826 415.451C775.827 415.451 775.828 415.451 775.836 414.451C775.844 413.451 775.843 413.451 775.841 413.451C775.839 413.451 775.837 413.451 775.833 413.451C775.826 413.451 775.816 413.451 775.802 413.451C775.775 413.45 775.734 413.45 775.68 413.45C775.571 413.449 775.408 413.448 775.193 413.446C774.762 413.443 774.121 413.439 773.279 413.434C771.596 413.425 769.107 413.412 765.89 413.4C759.456 413.377 750.105 413.358 738.437 413.375C715.101 413.408 682.497 413.585 645.423 414.156C571.284 415.298 479.246 418.02 407.716 424.341L407.804 425.337ZM775.836 414.451L776.832 414.541C777.416 408.108 777.805 401.867 778 395.43L777 395.4L776 395.37C775.807 401.764 775.42 407.964 774.84 414.361L775.836 414.451ZM777 395.4L776.996 394.4L434.961 395.761L434.965 396.761L434.969 397.761L777.004 396.4L777 395.4ZM434.965 396.761L434.933 395.761L-0.0317155 409.564L0 410.563L0.0317155 411.562L434.997 397.76L434.965 396.761Z" fill="#4064DF" fill-opacity="0.8" mask="url(#path-1-inside-1_1575_7311)"/>
</svg>
