<svg width="44" height="24" viewBox="0 0 44 24" fill="none" xmlns="http://www.w3.org/2000/svg">
<path d="M44 16.55C43.9922 15.8627 43.4259 15.3028 42.7377 15.3028H27.1833V7.98297C27.1833 7.39291 26.7649 6.87855 26.1882 6.75899L26.0853 6.73748V3.38121C26.0853 2.98899 25.9054 2.62429 25.5907 2.38259L22.7643 0.250301C22.319 -0.0834337 21.6974 -0.0834337 21.2521 0.250301L18.4075 2.39205C18.0937 2.62601 17.9139 2.98985 17.9139 3.38981V6.74609L17.8101 6.76759C17.2248 6.88715 16.8158 7.39033 16.8158 7.99157V15.3114H1.25368C0.561996 15.3114 0 15.8705 0 16.5586V21.9C0 22.5882 0.561996 23.1472 1.25368 23.1472H42.7463C43.438 23.1472 44 22.5882 44 21.9V16.55ZM20.4134 4.01342L21.9957 2.82298L23.5693 4.01342V6.74351H20.4134V4.01256V4.01342ZM19.3154 9.23877H24.676V15.3114H19.3154V9.23877ZM41.4926 20.6528H2.50737V17.7972H41.4926V20.6528Z" fill="#747DA1"/>
</svg>
