<svg width="21" height="30" viewBox="0 0 21 30" fill="none" xmlns="http://www.w3.org/2000/svg">
<path fill-rule="evenodd" clip-rule="evenodd" d="M9.43912 0.307469C9.87062 -0.10249 10.5702 -0.10249 11.0017 0.307469L20.1172 8.96802C20.4332 9.26825 20.5277 9.71977 20.3567 10.112C20.1857 10.5043 19.7828 10.7601 19.3359 10.7601H14.7505V28.0182C14.7505 28.598 14.2558 29.068 13.6456 29.068C13.0354 29.068 12.5407 28.598 12.5407 28.0182V9.71032C12.5407 9.13055 13.0354 8.66055 13.6456 8.66055H16.6684L10.2204 2.53435L3.77242 8.66055H6.7952C7.40543 8.66055 7.90011 9.13055 7.90011 9.71032V28.0182C7.90011 28.598 7.40543 29.068 6.7952 29.068C6.18498 29.068 5.6903 28.598 5.6903 28.0182V10.7601H1.10494C0.658045 10.7601 0.255157 10.5043 0.0841382 10.112C-0.0868802 9.71977 0.00765086 9.26825 0.323652 8.96802L9.43912 0.307469Z" fill="#747DA1"/>
</svg>
