<svg width="35" height="21" viewBox="0 0 35 21" fill="none" xmlns="http://www.w3.org/2000/svg">
<path d="M1.41455 4.29088C2.19578 4.29088 2.82909 3.60015 2.82909 2.74809C2.82909 1.89603 2.19578 1.2053 1.41455 1.2053C0.633314 1.2053 0 1.89603 0 2.74809C0 3.60015 0.633314 4.29088 1.41455 4.29088Z" fill="#747DA1"/>
<path d="M1.41455 17.1161C2.19578 17.1161 2.82909 16.4253 2.82909 15.5733C2.82909 14.7212 2.19578 14.0305 1.41455 14.0305C0.633314 14.0305 0 14.7212 0 15.5733C0 16.4253 0.633314 17.1161 1.41455 17.1161Z" fill="#747DA1"/>
<path d="M17.9913 7.90679C18.7725 7.90679 19.4058 7.21606 19.4058 6.364C19.4058 5.51194 18.7725 4.82121 17.9913 4.82121C17.21 4.82121 16.5767 5.51194 16.5767 6.364C16.5767 7.21606 17.21 7.90679 17.9913 7.90679Z" fill="#747DA1"/>
<path d="M17.9913 20.732C18.7725 20.732 19.4058 20.0412 19.4058 19.1892C19.4058 18.3371 18.7725 17.6464 17.9913 17.6464C17.21 17.6464 16.5767 18.3371 16.5767 19.1892C16.5767 20.0412 17.21 20.732 17.9913 20.732Z" fill="#747DA1"/>
<path d="M33.4629 3.08558C34.2441 3.08558 34.8774 2.39485 34.8774 1.54279C34.8774 0.69073 34.2441 0 33.4629 0C32.6816 0 32.0483 0.69073 32.0483 1.54279C32.0483 2.39485 32.6816 3.08558 33.4629 3.08558Z" fill="#747DA1"/>
<path d="M25.3126 12.0385C26.0939 12.0385 26.7272 11.3478 26.7272 10.4957C26.7272 9.64369 26.0939 8.95296 25.3126 8.95296C24.5314 8.95296 23.8981 9.64369 23.8981 10.4957C23.8981 11.3478 24.5314 12.0385 25.3126 12.0385Z" fill="#747DA1"/>
<path d="M9.63383 12.0382C10.4151 12.0382 11.0484 11.3475 11.0484 10.4955C11.0484 9.6434 10.4151 8.95267 9.63383 8.95267C8.8526 8.95267 8.21929 9.6434 8.21929 10.4955C8.21929 11.3475 8.8526 12.0382 9.63383 12.0382Z" fill="#747DA1"/>
<path d="M33.4629 15.9108C34.2441 15.9108 34.8774 15.22 34.8774 14.368C34.8774 13.5159 34.2441 12.8252 33.4629 12.8252C32.6816 12.8252 32.0483 13.5159 32.0483 14.368C32.0483 15.22 32.6816 15.9108 33.4629 15.9108Z" fill="#747DA1"/>
</svg>
