<svg width="46" height="29" viewBox="0 0 46 29" fill="none" xmlns="http://www.w3.org/2000/svg">
<path d="M0.91 9.09L9.38 14.58C9.71 14.79 10.09 14.9 10.47 14.9C10.8 14.9 11.13 14.82 11.43 14.66C12.07 14.31 12.47 13.64 12.47 12.9V11.83H28.2C30.8 11.97 33.17 13.22 34.71 15.26C36.24 17.29 36.78 19.89 36.19 22.42C35.86 23.86 35.08 25.25 33.94 26.44C33.81 26.58 33.71 26.74 33.63 26.9C33.61 26.95 33.58 26.99 33.56 27.04C33.52 27.15 33.49 27.26 33.49 27.37C33.49 27.53 33.54 27.68 33.61 27.82C33.78 28.14 34.1 28.37 34.49 28.37C34.88 28.37 35.2 28.14 35.37 27.82H35.39C36.7 26.45 37.71 24.74 38.14 22.87C39.67 16.3 34.92 10.16 28.25 9.83H10.47V12.9L2 7.41L10.47 2V5.07H29.06C38.81 5.91 45.38 15.32 42.59 24.82C42.4 25.49 42.03 26.36 41.75 26.99V27C41.7 27.11 41.67 27.24 41.67 27.37C41.67 27.53 41.72 27.68 41.79 27.82C41.96 28.14 42.28 28.37 42.67 28.37C43.06 28.37 43.38 28.14 43.55 27.82C43.55 27.82 43.55 27.8 43.56 27.8C43.57 27.78 43.58 27.75 43.59 27.73C43.93 26.99 44.26 26.23 44.5 25.38C45.99 20.31 45.15 14.93 42.2 10.61C39.24 6.27 34.51 3.53 29.22 3.07C29.16 3.07 29.11 3.07 29.05 3.07H12.47V2C12.47 1.27 12.07 0.6 11.43 0.25C11.13 0.09 10.8 0 10.47 0C10.1 0 9.72 0.11 9.39 0.31L0.92 5.72C0.35 6.09 0 6.72 0 7.4C0 8.08 0.34 8.72 0.91 9.09Z" fill="#747DA1"/>
</svg>
