<svg width="55" height="55" viewBox="0 0 55 55" fill="none" xmlns="http://www.w3.org/2000/svg">
<path d="M37.4807 25.0055H31.769L33.3154 12.6343C33.3569 12.2768 33.1657 11.9277 32.8332 11.778C32.5006 11.6284 32.1098 11.7115 31.8687 11.9775L16.9036 28.6055C16.6875 28.8466 16.6293 29.1957 16.7623 29.5034C16.9036 29.8027 17.2029 29.9939 17.5272 29.9939H23.2389L21.6925 42.3651C21.6509 42.7226 21.8421 43.0717 22.1747 43.2214C22.2827 43.2713 22.3991 43.2962 22.5155 43.2962C22.7483 43.2962 22.9728 43.1965 23.1308 43.0219L38.0959 26.3939C38.3121 26.1528 38.3703 25.8037 38.2372 25.496C38.1042 25.1967 37.8049 25.0055 37.4807 25.0055ZM23.6712 39.9374L25.0014 29.2623C25.0347 29.0295 24.9598 28.7884 24.8019 28.6055C24.6356 28.4309 24.4194 28.3311 24.1783 28.3311H19.3978L31.345 15.062L30.0147 25.7371C29.9815 25.9699 30.0563 26.211 30.2143 26.3939C30.3639 26.5685 30.5884 26.6683 30.8295 26.6683H35.61L23.6712 39.9374Z" fill="#747DA1" fill-opacity="0.8"/>
</svg>
