<svg width="55" height="55" viewBox="0 0 55 55" fill="none" xmlns="http://www.w3.org/2000/svg">
<path d="M37.4807 25.005H31.769L33.3154 12.6339C33.3569 12.2764 33.1657 11.9272 32.8332 11.7775C32.5006 11.6279 32.1098 11.711 31.8687 11.977L16.9036 28.605C16.6875 28.8461 16.6293 29.1953 16.7623 29.5029C16.9036 29.8022 17.2029 29.9934 17.5272 29.9934H23.2389L21.6925 42.3646C21.6509 42.7221 21.8421 43.0713 22.1747 43.2209C22.2827 43.2708 22.3991 43.2957 22.5155 43.2957C22.7483 43.2957 22.9728 43.196 23.1308 43.0214L38.0959 26.3935C38.3121 26.1524 38.3703 25.8032 38.2372 25.4955C38.1042 25.1962 37.8049 25.005 37.4807 25.005ZM23.6712 39.9369L25.0014 29.2618C25.0347 29.029 24.9598 28.7879 24.8019 28.605C24.6356 28.4304 24.4194 28.3306 24.1783 28.3306H19.3978L31.345 15.0615L30.0147 25.7367C29.9815 25.9694 30.0563 26.2105 30.2143 26.3935C30.3639 26.568 30.5884 26.6678 30.8295 26.6678H35.61L23.6712 39.9369Z" fill="#747DA1" fill-opacity="0.8"/>
</svg>
