<svg width="655" height="33" viewBox="0 0 655 33" fill="none" xmlns="http://www.w3.org/2000/svg">
<g clip-path="url(#clip0_2668_15099)">
<path fill-rule="evenodd" clip-rule="evenodd" d="M260.166 3.04082C261.971 1.16688 264.507 0 267.316 0C271.919 0 275.79 3.13476 276.913 7.38696C276.913 7.38696 273.437 7.44135 271.242 7.13974C268.809 6.80352 267.419 6.5118 265.13 5.62675C263.093 4.84059 260.171 3.04082 260.171 3.04082M277.145 8.57362C277.111 8.3264 277.071 8.08413 277.017 7.84185C277.017 7.84185 272.136 7.91107 269.071 7.43641C265.748 6.92219 263.81 6.58102 260.754 5.17681C260.102 4.8752 259.741 4.65764 259.108 4.34615C258.772 4.83564 258.48 5.35975 258.238 5.90858C258.238 5.90858 260.171 6.56125 261.427 6.89747C264.102 7.60946 265.669 7.8023 268.413 8.12863C271.795 8.53407 277.14 8.57362 277.14 8.57362M268.507 9.49329L277.224 9.53284C277.219 9.36968 277.209 9.20651 277.195 9.04334C277.195 9.04334 271.459 9.08784 267.815 8.76646C263.864 8.4154 261.536 8.01985 257.763 7.21885C257.59 7.83691 257.471 8.47968 257.422 9.14223L268.507 9.49329ZM260.166 16.544C261.971 18.418 264.507 19.5848 267.311 19.5848C271.914 19.5848 275.785 16.4501 276.908 12.1979C276.908 12.1979 273.432 12.1435 271.237 12.4451C268.804 12.7813 267.415 13.073 265.125 13.9581C263.088 14.7443 260.166 16.544 260.166 16.544ZM268.418 11.4562C265.669 11.7875 264.107 11.9754 261.432 12.6874C260.171 13.0236 258.243 13.6763 258.243 13.6763C258.485 14.2251 258.777 14.7492 259.113 15.2387C259.746 14.9223 260.107 14.7097 260.759 14.408C263.81 13.0038 265.753 12.6627 269.076 12.1484C272.141 11.6738 277.022 11.743 277.022 11.743C277.071 11.5007 277.116 11.2584 277.15 11.0112C277.15 11.0112 271.805 11.0508 268.423 11.4562M257.422 10.4426C257.471 11.1052 257.59 11.7479 257.763 12.366C261.541 11.565 263.864 11.1694 267.815 10.8184C271.459 10.497 277.195 10.5415 277.195 10.5415C277.209 10.3783 277.219 10.2201 277.224 10.057L268.507 10.0916L257.422 10.4426Z" fill="#E42313"/>
<path d="M288.828 19.0318C294.425 19.0318 299.192 15.0614 300.522 10.0923C301.204 7.55578 300.819 5.17257 299.444 3.38269C298.129 1.67192 296.067 0.727539 293.634 0.727539C288.655 0.727539 283.523 4.77207 282.188 9.74122L278.148 24.8217L283.221 22.1863L286.46 10.0972C287.207 7.31351 290.069 5.04896 292.843 5.04896C294.074 5.04896 295.103 5.50879 295.741 6.33945C296.418 7.22451 296.601 8.43094 296.25 9.74122C295.503 12.5249 292.606 14.8686 289.867 14.7895C287.128 14.7104 286.455 13.5979 286.455 13.5979L285.318 17.7116C285.318 17.7116 286.035 19.0417 288.828 19.0417" fill="white"/>
<path fill-rule="evenodd" clip-rule="evenodd" d="M395.857 0.682617C394.917 0.682617 394.121 1.4045 394.121 2.3835C394.121 3.36249 394.917 4.09427 395.857 4.09427C396.796 4.09427 397.582 3.37238 397.582 2.3835C397.582 1.39461 396.786 0.682617 395.857 0.682617ZM395.857 3.81244C395.075 3.81244 394.467 3.20922 394.467 2.38844C394.467 1.56767 395.075 0.969394 395.857 0.969394C396.638 0.969394 397.236 1.57756 397.236 2.38844C397.236 3.19933 396.628 3.81244 395.857 3.81244ZM396.643 1.96817C396.643 1.57756 396.41 1.40945 395.946 1.40945H395.194V3.37733H395.491V2.52194H395.832L396.351 3.37733H396.687L396.129 2.51205C396.415 2.47744 396.638 2.32416 396.638 1.96817M395.496 2.26978V1.66161H395.901C396.109 1.66161 396.331 1.70611 396.331 1.94839C396.331 2.25 396.104 2.26978 395.852 2.26978H395.496Z" fill="white"/>
<path fill-rule="evenodd" clip-rule="evenodd" d="M306.055 7.72342C307.355 6.03737 309.372 4.92982 311.286 4.92982H313.807L313.941 4.42055L314.732 1.47367L314.964 0.608398H312.077C307.098 0.608398 301.966 4.65293 300.631 9.62208C299.948 12.1586 300.334 14.5418 301.703 16.3317C303.019 18.0424 305.081 18.9868 307.513 18.9868H310.035L310.168 18.4775L310.959 15.5307L311.192 14.6654H308.304C306.46 14.6654 305.125 13.632 304.804 12.0251H304.818H311.35H311.874L312.013 11.5158L312.804 8.56891L313.036 7.70364H306.079L306.055 7.72342Z" fill="white"/>
<path fill-rule="evenodd" clip-rule="evenodd" d="M318.044 14.6654L316.481 14.6803L316.58 14.6506L318.177 8.52942L318.41 7.66415H314.044L313.905 8.17342L311.24 18.1216L311.008 18.9869H317.263C322.242 18.9869 327.374 14.9423 328.709 9.97319C329.386 7.4367 329.006 5.05349 327.631 3.25867C326.316 1.5479 324.254 0.603516 321.821 0.603516H315.937L315.799 1.11279L315.008 4.05966L314.775 4.92494H321.03C322.251 4.92494 323.27 5.37982 323.903 6.2006C324.58 7.08565 324.758 8.29703 324.407 9.61719C323.661 12.4009 320.798 14.6654 318.024 14.6654" fill="white"/>
<path fill-rule="evenodd" clip-rule="evenodd" d="M340.871 6.52235C341.292 4.94508 341.049 3.46175 340.194 2.33937C339.373 1.26148 338.088 0.668154 336.575 0.668154L331.161 0.65332L330.009 4.9698H335.799C336.12 4.9698 336.372 5.07363 336.53 5.27635C336.698 5.49391 336.738 5.81035 336.644 6.16635C336.417 7.01185 335.527 7.72384 334.696 7.72384H334.666L329.376 7.73373L326.34 19.101H330.701L332.595 12.0057H333.316L335.517 19.101H340.155L337.643 10.8388C337.643 10.8388 340.372 8.39628 340.871 6.52235Z" fill="white"/>
<path fill-rule="evenodd" clip-rule="evenodd" d="M366.902 9.63685C366.224 12.1733 366.605 14.5565 367.975 16.3464C369.29 18.0572 371.352 19.0214 373.784 19.0214H374.852L376.014 14.6851H374.571C373.339 14.6851 372.311 14.2253 371.673 13.3946C370.996 12.5096 370.818 11.3031 371.164 9.99284L373.676 0.613281H369.31L366.892 9.63685H366.902Z" fill="white"/>
<path fill-rule="evenodd" clip-rule="evenodd" d="M357.894 9.64173C357.217 12.1782 357.597 14.5614 358.967 16.3513C360.282 18.0621 362.344 19.0065 364.777 19.0065L364.613 18.9867L364.777 19.0262H365.845L367.007 14.69H365.563C364.332 14.69 363.303 14.2302 362.665 13.3995C361.988 12.5144 361.805 11.308 362.156 9.99773L364.668 0.618164H360.302L357.884 9.64173H357.894Z" fill="white"/>
<path fill-rule="evenodd" clip-rule="evenodd" d="M393.027 3.30847C391.712 1.5977 389.65 0.65332 387.217 0.65332C382.243 0.65332 377.111 4.69291 375.781 9.65711C375.103 12.1936 375.484 14.5768 376.854 16.3667C378.169 18.0775 380.231 19.0218 382.663 19.0218C387.637 19.0218 392.77 14.9822 394.1 10.0181C394.777 7.48156 394.396 5.09835 393.027 3.30847ZM389.833 9.66205C389.086 12.4458 386.228 14.7054 383.454 14.7054C382.223 14.7054 381.195 14.2455 380.557 13.4149C379.88 12.5298 379.702 11.3234 380.053 10.0131C380.799 7.2294 383.657 4.9698 386.431 4.9698C387.662 4.9698 388.691 5.42963 389.328 6.26029C390.006 7.14534 390.189 8.35178 389.838 9.66205" fill="white"/>
<path fill-rule="evenodd" clip-rule="evenodd" d="M356.761 3.34265C355.446 1.63188 353.384 0.6875 350.951 0.6875C345.977 0.6875 340.845 4.72709 339.515 9.69129C338.838 12.2278 339.218 14.611 340.588 16.4009C341.903 18.1116 343.965 19.056 346.398 19.056C351.372 19.056 356.504 15.0164 357.834 10.0522C358.512 7.51574 358.131 5.13253 356.761 3.34265ZM353.567 9.69623C352.82 12.4799 349.958 14.7395 347.189 14.7395C345.958 14.7395 344.929 14.2797 344.291 13.449C343.614 12.564 343.431 11.3576 343.782 10.0473C344.529 7.26358 347.392 5.00398 350.16 5.00398C351.387 5.00398 352.42 5.46381 353.058 6.29447C353.735 7.17952 353.913 8.38596 353.567 9.69623Z" fill="white"/>
<path d="M389.169 27.9556C389.169 27.9556 389.609 26.3833 389.263 25.6317C389.045 25.2115 388.536 24.9247 387.928 24.8752C387.433 24.8357 386.677 24.9346 385.861 25.6317C385.356 26.057 384.931 26.7591 384.699 27.5502C384.471 28.3166 384.466 29.0286 384.679 29.4587C384.946 29.9828 385.539 30.2943 386.266 30.2943C386.993 30.2943 387.695 30.0125 388.18 29.5428C388.585 29.1868 388.986 28.3907 388.986 28.3907H387.972C387.972 28.3907 387.29 29.4093 386.444 29.4093C385.935 29.4093 385.742 29.1373 385.618 28.8703C385.495 28.5193 385.628 27.9507 385.628 27.9507H389.169V27.9556ZM386.573 26.1311L386.583 26.1212C386.874 25.8345 387.285 25.6861 387.68 25.7257C388.051 25.7603 388.229 25.9581 388.313 26.0916C388.402 26.2251 388.476 26.68 388.368 27.0706C388.076 27.0706 386.85 27.0706 385.92 27.0706C385.811 27.0706 386.439 26.2251 386.568 26.1311M336.802 27.8271C336.802 27.8271 337.242 26.319 336.896 25.6021C336.679 25.2016 336.169 24.9247 335.561 24.8802C335.067 24.8406 334.31 24.9395 333.494 25.607C332.99 26.0174 332.565 26.6898 332.332 27.4463C332.105 28.1781 332.1 28.8654 332.313 29.2758C332.58 29.7801 333.173 30.0768 333.9 30.0768C334.627 30.0768 335.329 29.8098 335.813 29.3549C336.219 29.0137 336.619 28.2473 336.619 28.2473H335.606C335.606 28.2473 334.923 29.2214 334.078 29.2214C333.569 29.2214 333.376 28.9593 333.252 28.7022C333.129 28.366 333.262 27.8221 333.262 27.8221H336.802V27.8271ZM334.206 26.0767L334.216 26.0669C334.508 25.79 334.918 25.6515 335.319 25.6861C335.69 25.7207 335.868 25.9086 335.952 26.0372C336.041 26.1657 336.115 26.6009 336.006 26.9766C335.714 26.9766 334.488 26.9766 333.559 26.9766C333.45 26.9766 334.078 26.1657 334.206 26.0767ZM348.783 25.078C348.54 24.9445 348.199 24.8703 347.813 24.8703C347.457 24.8703 347.116 24.9395 346.879 25.0582C346.666 25.162 346.296 25.4043 346.296 25.4092L346.3 25.3944L346.409 24.9989H345.514L343.556 31.7035L343.517 31.832H344.511L344.53 31.7579L345.178 29.5527C345.237 29.6318 345.312 29.7109 345.406 29.7801C345.499 29.8493 345.851 30.0867 346.439 30.0867C347.027 30.0867 347.576 29.8741 348.105 29.4587C348.718 28.989 349.232 28.1089 349.406 27.209C349.613 26.2152 349.376 25.4191 348.773 25.0829M347.581 28.6923C347.294 28.9692 346.904 29.1274 346.508 29.1176C346.167 29.1077 345.885 28.9593 345.766 28.7319C345.608 28.4006 345.588 27.214 346.464 26.2498C346.716 25.9779 347.096 25.8048 347.477 25.7751C347.853 25.7504 348.15 25.8889 348.268 26.141C348.619 26.8975 348.105 28.188 347.581 28.6923ZM364.333 25.0087C364.333 25.0087 364.259 25.2659 364.209 25.4636C363.957 25.0879 363.576 24.8851 363.067 24.8703C362.271 24.8456 361.44 25.4439 361.213 25.6565C360.689 26.1855 360.293 27.0261 360.056 27.8271C359.65 29.2115 360.491 30.2696 361.386 30.2894C362.029 30.2993 362.582 29.9878 363.008 29.6713C362.874 29.9779 362.741 30.7838 361.964 31.0854C361.747 31.1695 361.509 31.2041 361.267 31.2041C361.06 31.2041 360.886 31.1596 360.743 31.1052C360.293 30.9322 360.466 30.4179 360.466 30.4179H359.482C359.482 30.4179 359.121 31.5205 360.174 31.9507C360.461 32.0694 360.822 32.1633 361.277 32.099C363.067 31.9853 363.616 30.769 364.145 29.1769L365.322 25.0087H364.328H364.333ZM362.805 28.9939C362.488 29.256 362.118 29.3846 361.796 29.3499C361.465 29.3302 361.218 29.167 361.094 28.8852C360.975 28.5935 361 28.1583 361.158 27.654C361.302 27.209 361.529 26.7937 361.683 26.5959C362.103 26.0372 362.577 25.9284 362.904 25.9334C363.28 25.9432 363.547 26.1212 363.576 26.1954V26.2053L363.586 26.2152C363.942 26.7393 363.576 28.3512 362.8 28.9989M372.372 25.4636C372.002 24.9741 371.393 24.8703 370.948 24.8703C370.266 24.8703 368.605 25.1324 367.922 27.5452C367.655 28.4995 367.7 29.2214 368.056 29.6961C368.348 30.0768 368.852 30.2894 369.48 30.2894C370.162 30.2894 371.828 30.0273 372.511 27.6046C372.778 26.6552 372.733 25.9334 372.377 25.4636M371.512 27.5452C371.275 28.3907 370.602 29.3005 369.697 29.3005C369.396 29.3005 369.168 29.2016 369.02 29.0088C368.753 28.6528 368.793 28.0496 368.916 27.6046C369.154 26.764 369.821 25.8592 370.726 25.8592C371.032 25.8592 371.26 25.9581 371.408 26.1509C371.675 26.502 371.631 27.1002 371.507 27.5452M325.479 28.9494C325.47 28.9841 325.465 29.0335 325.479 29.0582C325.504 29.0879 325.613 29.1472 326.058 29.0731L326.221 29.0434L325.964 29.9927C325.964 29.9927 325.331 30.0916 325.01 30.0619C324.723 30.0323 324.575 29.8839 324.5 29.7702C324.382 29.5873 324.372 29.3549 324.412 29.2066L325.415 25.4982H324.738L325 24.5291H325.667L326.048 23.1546H327.042L326.676 24.5291H327.442L327.18 25.4982H326.414L325.484 28.9445L325.479 28.9494ZM331.878 26.319V26.3091L330.815 30.0768H329.821C329.821 30.0768 330.795 26.6305 330.795 26.6256C330.988 26.057 330.765 25.9432 330.681 25.9037C330.429 25.7751 330.206 25.7405 329.959 25.785C329.732 25.8246 329.47 25.9482 329.119 26.1806C328.916 26.3388 328.768 26.4575 328.654 26.8481L327.739 30.0768H326.745L328.708 23.12H329.702L329.049 25.434C329.049 25.434 329.306 25.1966 329.831 25.0038C330.098 24.9148 330.335 24.8703 330.557 24.8703C330.839 24.8703 331.106 24.9296 331.334 25.0434C331.571 25.1373 331.739 25.2955 331.838 25.518C331.976 25.8394 331.917 26.2004 331.868 26.319M344.1 25.345C344.313 25.6219 344.357 26.0125 344.224 26.497L344.204 26.5761H343.225C343.225 26.5761 343.334 26.1361 343.245 26.0174C343.136 25.874 342.874 25.7999 342.473 25.7999C342.028 25.7999 341.638 26.0471 341.47 26.2745C341.381 26.3981 341.341 26.5217 341.361 26.6256C341.376 26.6948 341.415 26.7492 341.485 26.7887C341.687 26.9222 342.009 27.0063 342.419 27.1151C342.419 27.1151 342.488 27.1348 342.478 27.1299C342.829 27.1892 343.23 27.2832 343.537 27.5156C343.907 27.7776 343.996 28.2869 343.759 28.8407C343.532 29.3796 343.062 29.8394 342.503 30.0619C342.231 30.1707 341.895 30.2399 341.519 30.2746C341.193 30.2746 340.852 30.2746 340.58 30.2053C340.199 30.1114 339.927 29.9284 339.774 29.6664C339.601 29.3697 339.581 28.9841 339.719 28.4946L339.739 28.4155H340.684L340.654 28.544C340.56 28.9643 340.718 29.2164 341.158 29.3648C341.307 29.4142 341.549 29.4142 341.781 29.4142C342.024 29.3549 342.276 29.2906 342.414 29.2066C342.612 29.0879 342.785 28.8703 342.839 28.6775C342.904 28.4402 342.815 28.282 342.562 28.188L342.152 28.0842C341.668 27.9655 341.163 27.8419 340.876 27.6886C340.545 27.5502 340.209 27.214 340.446 26.3833C340.743 25.3351 341.846 24.8555 342.745 24.8555C343.403 24.8555 343.858 25.0137 344.1 25.3301M352.293 25.9976C351.69 26.2646 351.329 26.6849 351.106 27.476L350.37 30.0768H349.376L350.81 25.0087H351.804L351.67 25.4884C351.67 25.4884 352.1 24.9049 352.827 24.8703H353.401L353.109 25.8938C353.109 25.8938 352.832 25.7603 352.298 25.9976M354.993 25.0087L353.559 30.0768H352.565L353.999 25.0087H354.993ZM355.195 24.2918H354.202L354.533 23.12H355.527L355.195 24.2918ZM359.828 26.2102V26.2201V26.2251L358.741 30.0768H357.747L358.741 26.5662C358.81 26.3339 358.795 26.141 358.696 26.0075C358.592 25.8641 358.39 25.785 358.132 25.785C357.831 25.785 356.827 25.9037 356.417 27.4216L355.665 30.0817H354.671L356.1 25.0137H357.094L356.99 25.3845L357.43 25.1126C357.786 24.8901 358.261 24.8703 358.513 24.8752C358.84 24.8851 359.181 24.9445 359.324 25.0236C359.527 25.1521 359.942 25.4191 359.833 26.2201M376.466 23.1299L376.575 23.1546L376.338 23.9951L376.249 23.9853C375.794 23.9309 375.557 23.9853 375.428 24.4253L375.265 25.0038H376.041L375.779 25.9235H375.003L373.831 30.0669H372.837L374.004 25.9235H373.351L373.613 24.9989H374.271L374.479 24.2522C374.701 23.4562 375.463 23.1299 375.641 23.115C375.918 23.0656 376.185 23.0656 376.466 23.1249M380.709 23.2535L378.805 29.9977L378.785 30.0718H377.791L377.831 29.9383L379.735 23.1941L379.754 23.12H380.748L380.709 23.2535ZM382.217 25.1422L380.842 29.9977L380.822 30.0718H379.829L379.868 29.9383L381.243 25.0829L381.262 25.0087H382.256L382.217 25.1422ZM381.599 24.2918H381.46L381.5 24.1583L381.772 23.1941L381.791 23.12H382.785L382.746 23.2535L382.474 24.2176L382.454 24.2967H381.599V24.2918ZM385.836 23.1744L385.599 24.0149L385.51 24.005C385.055 23.9506 384.817 24.005 384.689 24.4451L384.531 25.0038H385.307L385.045 25.9235H384.269L383.097 30.0669H382.103L383.27 25.9235H382.617L382.879 24.9989H383.537L383.74 24.272C383.967 23.476 384.724 23.1496 384.902 23.1348C385.178 23.0854 385.445 23.0854 385.722 23.1447L385.836 23.1694V23.1744Z" fill="white"/>
</g>
<defs>
<clipPath id="clip0_2668_15099">
<rect width="140.155" height="32.1239" fill="white" transform="translate(257.422)"/>
</clipPath>
</defs>
</svg>
