<svg width="227" height="109" viewBox="0 0 227 109" fill="none" xmlns="http://www.w3.org/2000/svg">
<path d="M54.1035 108.207C83.9841 108.207 108.207 83.9841 108.207 54.1035C108.207 24.223 83.9841 0 54.1035 0C24.223 0 0 24.223 0 54.1035C0 83.9841 24.223 108.207 54.1035 108.207Z" fill="#8497D5" fill-opacity="0.1"/>
<path d="M33.3965 66.5236V54.7012H34.9317L39.1694 63.59L43.3829 54.7012H44.9327V66.5138H43.3248V58.4281L39.552 66.5236H38.782L34.9995 58.4281V66.5236H33.4013H33.3965Z" fill="white"/>
<path d="M49.6847 66.7691C49.0357 66.7691 48.4933 66.6467 48.0526 66.4018C47.6118 66.157 47.2825 65.8337 47.0597 65.4321C46.8369 65.0306 46.7207 64.5898 46.7207 64.1049C46.7207 63.6544 46.7982 63.2626 46.958 62.9247C47.113 62.5867 47.3455 62.2978 47.6554 62.0578C47.9654 61.8178 48.3431 61.6268 48.7935 61.4799C49.181 61.3673 49.6266 61.2644 50.1157 61.1763C50.6097 61.0881 51.1279 61.0049 51.6703 60.9314C52.2128 60.853 52.7552 60.7796 53.2879 60.7012L52.6729 61.0441C52.6825 60.3486 52.5372 59.8344 52.237 59.4965C51.9367 59.1585 51.4233 58.992 50.692 58.992C50.2319 58.992 49.8106 59.0998 49.428 59.3153C49.0454 59.5307 48.7742 59.8883 48.624 60.3878L47.0403 59.8932C47.2583 59.1341 47.6699 58.5268 48.2802 58.0811C48.8904 57.6305 49.6992 57.4102 50.7114 57.4102C51.496 57.4102 52.1789 57.5473 52.76 57.8166C53.3412 58.086 53.7674 58.517 54.0386 59.0998C54.1791 59.3887 54.2662 59.6973 54.3001 60.0205C54.334 60.3437 54.3486 60.6914 54.3486 61.0636V66.5243H52.8472V64.4967L53.1378 64.7612C52.7746 65.4419 52.3145 65.9464 51.7527 66.2745C51.1909 66.6075 50.5031 66.7691 49.6847 66.7691ZM49.9849 65.3636C50.4644 65.3636 50.8809 65.2754 51.2248 65.104C51.5686 64.9326 51.8495 64.7122 52.0626 64.4429C52.2757 64.1735 52.4113 63.8944 52.4743 63.6054C52.5663 63.3409 52.6196 63.0471 52.6341 62.719C52.6486 62.3908 52.6535 62.1264 52.6535 61.9305L53.2056 62.1362C52.668 62.2194 52.1837 62.2929 51.743 62.3566C51.3023 62.4202 50.91 62.4888 50.5516 62.5476C50.198 62.6112 49.8832 62.6847 49.6072 62.7728C49.3747 62.8561 49.1665 62.954 48.9873 63.0667C48.8081 63.1793 48.6628 63.3214 48.5562 63.483C48.4497 63.6495 48.3964 63.8454 48.3964 64.0805C48.3964 64.3155 48.4545 64.5212 48.5659 64.7171C48.6773 64.913 48.8517 65.0648 49.0841 65.1824C49.3166 65.295 49.6169 65.3538 49.9753 65.3538L49.9849 65.3636Z" fill="white"/>
<path d="M59.9362 66.7694C59.1177 66.7694 58.4154 66.5637 57.8197 66.1523C57.2289 65.7409 56.7688 65.1826 56.4492 64.4725C56.1247 63.7624 55.9648 62.9641 55.9648 62.0777C55.9648 61.1912 56.1295 60.3881 56.454 59.6828C56.7785 58.9776 57.2386 58.4242 57.8391 58.0177C58.4348 57.6112 59.1468 57.4055 59.9701 57.4055C60.7934 57.4055 61.4956 57.6112 62.0623 58.0177C62.6289 58.4242 63.0551 58.9825 63.3457 59.6877C63.6363 60.393 63.7816 61.1912 63.7816 62.0777C63.7816 62.9641 63.6363 63.7624 63.3409 64.4676C63.0503 65.1728 62.6192 65.7312 62.0478 66.1474C61.4763 66.5637 60.774 66.7694 59.9362 66.7694ZM60.1735 65.2169C60.7304 65.2169 61.1857 65.0847 61.5392 64.8153C61.8928 64.546 62.1495 64.1787 62.3093 63.7085C62.4691 63.2384 62.5514 62.6947 62.5514 62.0826C62.5514 61.4704 62.4691 60.9268 62.3044 60.4566C62.1398 59.9865 61.8831 59.6192 61.5392 59.3547C61.1954 59.0902 60.7595 58.9629 60.2268 58.9629C59.665 58.9629 59.2 59.1049 58.8368 59.3792C58.4736 59.6583 58.2023 60.0354 58.028 60.5056C57.8536 60.9757 57.7665 61.4998 57.7665 62.0826C57.7665 62.6654 57.8536 63.1992 58.028 63.6693C58.2023 64.1444 58.4687 64.5166 58.8223 64.8006C59.1758 65.0798 59.6262 65.2169 60.1638 65.2169H60.1735ZM62.5514 66.5245V60.1481H62.3577V54.707H64.0625V66.5294H62.5514V66.5245Z" fill="white"/>
<path d="M70.2219 66.7691C69.3501 66.7691 68.5849 66.5781 67.9263 66.1913C67.2676 65.8044 66.7591 65.2656 66.391 64.5751C66.0278 63.8846 65.8438 63.0814 65.8438 62.1656C65.8438 61.1959 66.0229 60.3584 66.3813 59.6434C66.7397 58.9284 67.2434 58.3798 67.8875 57.9929C68.5317 57.6061 69.2823 57.4102 70.1347 57.4102C70.9871 57.4102 71.7862 57.6207 72.4158 58.037C73.0454 58.4533 73.5152 59.0508 73.8252 59.8246C74.1351 60.5984 74.261 61.5142 74.1932 62.5769H72.4981V61.955C72.4885 60.9265 72.2947 60.1674 71.917 59.6728C71.5392 59.1781 70.9677 58.9333 70.1977 58.9333C69.3501 58.9333 68.7109 59.2026 68.2798 59.7462C67.8488 60.2898 67.6405 61.0685 67.6405 62.0921C67.6405 63.1157 67.8536 63.8209 68.2798 64.3547C68.706 64.8885 69.3259 65.153 70.1299 65.153C70.6626 65.153 71.1179 65.0306 71.5053 64.7857C71.8928 64.5408 72.193 64.1931 72.411 63.7376L74.077 64.2715C73.738 65.0648 73.2198 65.6819 72.5272 66.1129C71.8346 66.5488 71.0646 66.7642 70.2122 66.7642L70.2219 66.7691ZM67.0981 62.572V61.2351H73.3554V62.572H67.0981Z" fill="white"/>
<path d="M29.3086 71.0343V69.3691H31.0037V71.0343H29.3086ZM29.3086 81.3531V72.4888H31.0037V81.3531H29.3086Z" fill="white"/>
<path d="M33.4297 81.3543V72.49H34.9456V75.0513H35.149V81.3543H33.4297ZM39.5901 81.3543V76.9956C39.5901 76.6528 39.561 76.2953 39.5029 75.9329C39.4448 75.5705 39.3383 75.2325 39.1784 74.9191C39.0186 74.6057 38.7958 74.3559 38.5052 74.1649C38.2147 73.9739 37.8369 73.876 37.372 73.876C37.0668 73.876 36.7811 73.9249 36.5099 74.0278C36.2387 74.1306 36.0014 74.2922 35.798 74.5175C35.5945 74.7428 35.4347 75.0366 35.3185 75.4039C35.2023 75.7713 35.1441 76.2169 35.1441 76.7409L34.0883 76.3394C34.0883 75.5362 34.2385 74.826 34.5339 74.209C34.8293 73.5919 35.2604 73.1119 35.8173 72.7691C36.3743 72.4263 37.0475 72.25 37.8369 72.25C38.4423 72.25 38.9508 72.348 39.3625 72.5438C39.7741 72.7397 40.1083 72.9993 40.365 73.3176C40.6217 73.636 40.8202 73.9886 40.9558 74.3657C41.0914 74.7428 41.1835 75.115 41.2319 75.4725C41.2803 75.8349 41.3045 76.1533 41.3045 76.4226V81.3494H39.5852L39.5901 81.3543Z" fill="white"/>
<path d="M46.8359 81.3517V69.5293H48.531V81.3517H46.8359Z" fill="white"/>
<path d="M49.9941 73.865V72.4839H55.985V73.865H49.9941ZM55.985 81.3531C55.4329 81.4609 54.8905 81.5099 54.3626 81.4952C53.8299 81.4805 53.3601 81.3727 52.9436 81.1817C52.5271 80.9907 52.2123 80.6871 52.004 80.2806C51.8151 79.9133 51.7134 79.5411 51.6989 79.1591C51.6844 78.7771 51.6795 78.3461 51.6795 77.8662V70.0254H53.3843V77.7829C53.3843 78.1404 53.3843 78.449 53.394 78.7085C53.4037 78.973 53.4569 79.1934 53.5586 79.3746C53.7524 79.7125 54.0623 79.9084 54.4885 79.9525C54.9147 80.0015 55.4136 79.9819 55.985 79.8986V81.3531Z" fill="white"/>
<path d="M60.3038 81.5992C59.6548 81.5992 59.1124 81.4768 58.6717 81.2319C58.231 80.987 57.9016 80.6638 57.6789 80.2622C57.4561 79.8606 57.3398 79.4199 57.3398 78.935C57.3398 78.4845 57.4173 78.0927 57.5772 77.7547C57.7321 77.4168 57.9646 77.1279 58.2746 76.8879C58.5845 76.6479 58.9623 76.4569 59.4127 76.31C59.8001 76.1974 60.2457 76.0945 60.7348 76.0064C61.2288 75.9182 61.747 75.835 62.2895 75.7615C62.8319 75.6831 63.3743 75.6097 63.9071 75.5313L63.292 75.8741C63.3017 75.1787 63.1564 74.6645 62.8561 74.3265C62.5558 73.9886 62.0425 73.8221 61.3112 73.8221C60.8511 73.8221 60.4297 73.9299 60.0471 74.1453C59.6645 74.3608 59.3933 74.7183 59.2432 75.2179L57.6595 74.7281C57.8774 73.969 58.2891 73.3618 58.8993 72.9112C59.5095 72.4606 60.3183 72.2402 61.3305 72.2402C62.1151 72.2402 62.798 72.3774 63.3792 72.6467C63.9603 72.9161 64.3865 73.3471 64.6577 73.9299C64.7982 74.2188 64.8854 74.5273 64.9193 74.8506C64.9532 75.1738 64.9677 75.5215 64.9677 75.8937V81.3544H63.4663V79.3268L63.7569 79.5913C63.3937 80.272 62.9336 80.7765 62.3718 81.1046C61.81 81.4376 61.1223 81.5992 60.3038 81.5992ZM60.6041 80.1986C61.0835 80.1986 61.5001 80.1104 61.8439 79.939C62.1878 79.7676 62.4687 79.5472 62.6818 79.2778C62.8949 79.0085 63.0305 78.7293 63.0934 78.4404C63.1854 78.1759 63.2387 77.8821 63.2532 77.554C63.2678 77.2258 63.2726 76.9614 63.2726 76.7655L63.8247 76.9712C63.2871 77.0544 62.8028 77.1279 62.3621 77.1915C61.9214 77.2552 61.5291 77.3238 61.1707 77.3825C60.8172 77.4462 60.5024 77.5197 60.2263 77.6078C59.9939 77.6911 59.7856 77.789 59.6064 77.9017C59.4272 78.0143 59.2819 78.1563 59.1754 78.3179C59.0688 78.4796 59.0156 78.6804 59.0156 78.9154C59.0156 79.1505 59.0737 79.3562 59.1851 79.5521C59.2964 79.748 59.4708 79.8998 59.7033 80.0174C59.9357 80.1349 60.236 80.1888 60.5944 80.1888L60.6041 80.1986Z" fill="white"/>
<path d="M67.2344 81.3524V69.2852H68.9295V81.3524H67.2344Z" fill="white"/>
<path d="M72.5521 85.297L74.2471 80.6249L74.2714 82.0059L70.4453 72.4902H72.213L75.0705 79.8364H74.5523L77.2789 72.4902H78.9982L74.16 85.297H72.5424H72.5521Z" fill="white"/>
<path d="M39.0719 43.5313L50.4086 22.5968" stroke="#009347" stroke-width="11" stroke-miterlimit="10" stroke-linecap="round"/>
<path d="M48.7809 43.5313L60.1176 22.5968" stroke="white" stroke-width="11" stroke-miterlimit="10" stroke-linecap="round"/>
<path d="M58.4938 43.5313L69.8305 22.5968" stroke="#CF2837" stroke-width="11" stroke-miterlimit="10" stroke-linecap="round"/>
<g clip-path="url(#clip0_2645_13258)">
<mask id="mask0_2645_13258" style="mask-type:luminance" maskUnits="userSpaceOnUse" x="118" y="0" width="109" height="108">
<path d="M226.207 0H118.207V108H226.207V0Z" fill="white"/>
</mask>
<g mask="url(#mask0_2645_13258)">
<path d="M172.207 108C142.427 108 118.207 83.7604 118.207 54C118.207 24.2396 142.427 0 172.207 0C201.987 0 226.207 24.2199 226.207 54C226.207 83.7801 201.987 108 172.207 108Z" fill="#8497D5" fill-opacity="0.1"/>
<path d="M191.747 58.7983H151.08V60.9301H191.747V58.7983Z" fill="#E42313"/>
<path d="M151.392 54.3306C151.851 54.5602 152.605 54.7077 153.212 54.7077C154.114 54.7077 154.524 54.3306 154.524 53.8386C154.524 53.2319 154.081 52.9532 153.163 52.4448C151.457 51.5101 151.178 50.4279 151.178 49.7064C151.178 48.0994 152.31 46.7056 154.737 46.7056C155.458 46.7056 156.147 46.8859 156.475 47.0499L156.131 48.9685C155.819 48.7881 155.36 48.6405 154.753 48.6405C153.933 48.6405 153.556 49.0341 153.556 49.4768C153.556 49.9032 153.769 50.1655 154.966 50.7886C156.426 51.5429 156.901 52.5596 156.901 53.5599C156.901 55.3964 155.426 56.6099 153.195 56.6099C152.294 56.6099 151.441 56.4131 151.08 56.2327L151.392 54.2978V54.3306Z" fill="white"/>
<path d="M161.377 52.9025L161.115 51.0496C161.033 50.4921 160.902 49.4426 160.803 48.8359H160.77C160.656 49.4426 160.508 50.5249 160.41 51.0496L160.098 52.9025H161.377ZM159.852 54.6243L159.491 56.5429H157.146L159.377 46.7861H162.312L164.23 56.5429H161.885L161.541 54.6243H159.836H159.852Z" fill="white"/>
<path d="M167.725 54.9024C167.856 54.9352 167.971 54.9352 168.118 54.9352C168.774 54.9352 169.397 54.5416 169.397 53.6726C169.397 52.8035 168.807 52.3935 168.134 52.3935H167.725V54.9024ZM167.725 50.7537H168.118C168.758 50.7537 169.2 50.229 169.2 49.5403C169.2 48.9008 168.872 48.4088 168.233 48.4088C168.036 48.4088 167.856 48.4088 167.725 48.4744V50.7537ZM165.314 46.9494C165.986 46.8182 166.905 46.769 167.889 46.769C168.872 46.769 169.905 46.851 170.693 47.4578C171.299 47.9169 171.529 48.6056 171.529 49.2779C171.529 50.0814 171.086 50.9341 170.053 51.3933V51.4424C171.266 51.7704 171.873 52.7215 171.873 53.7054C171.873 54.5088 171.594 55.132 171.086 55.6075C170.447 56.247 169.332 56.6406 167.331 56.6406C166.544 56.6406 165.822 56.5914 165.281 56.5258V46.9494H165.314Z" fill="white"/>
<path d="M175.726 54.9024C175.858 54.9352 175.972 54.9352 176.12 54.9352C176.776 54.9352 177.399 54.5416 177.399 53.6726C177.399 52.8035 176.809 52.3935 176.136 52.3935H175.726V54.9024ZM175.726 50.7537H176.12C176.76 50.7537 177.202 50.229 177.202 49.5403C177.202 48.9008 176.874 48.4088 176.235 48.4088C176.038 48.4088 175.858 48.4088 175.726 48.4744V50.7537ZM173.316 46.9494C173.988 46.8182 174.907 46.769 175.89 46.769C176.874 46.769 177.907 46.851 178.695 47.4578C179.301 47.9169 179.531 48.6056 179.531 49.2779C179.531 50.0814 179.088 50.9341 178.055 51.3933V51.4424C179.268 51.7704 179.875 52.7215 179.875 53.7054C179.875 54.5088 179.596 55.132 179.088 55.6075C178.449 56.247 177.333 56.6406 175.333 56.6406C174.546 56.6406 173.824 56.5914 173.283 56.5258V46.9494H173.316Z" fill="white"/>
<path d="M183.745 46.8027H181.318V56.5595H183.745V46.8027Z" fill="white"/>
<path d="M188.877 52.9025L188.615 51.0496C188.533 50.4921 188.402 49.4426 188.303 48.8359H188.27C188.156 49.4426 188.008 50.5249 187.91 51.0496L187.598 52.9025H188.877ZM187.352 54.6243L186.991 56.5429H184.646L186.877 46.7861H189.812L191.73 56.5429H189.385L189.041 54.6243H187.336H187.352Z" fill="white"/>
<path d="M192.533 47.1806H192.631C192.779 47.1806 192.844 47.115 192.844 47.033C192.844 46.9346 192.762 46.9018 192.648 46.9018C192.598 46.9018 192.566 46.9018 192.533 46.9018V47.1806ZM192.517 47.9021H192.074V46.6394C192.156 46.6394 192.385 46.5902 192.68 46.5902C192.992 46.5902 193.123 46.623 193.222 46.6886C193.304 46.7378 193.353 46.8362 193.353 46.9674C193.353 47.0986 193.222 47.2134 193.041 47.2462C193.189 47.3117 193.271 47.4101 193.32 47.5905C193.369 47.7709 193.402 47.8529 193.418 47.8857H192.926C192.926 47.8857 192.861 47.7381 192.844 47.6397C192.828 47.5249 192.762 47.4593 192.648 47.4593H192.533V47.8857L192.517 47.9021ZM192.664 46.2131C192.09 46.2131 191.664 46.6722 191.664 47.2626C191.664 47.8529 192.09 48.312 192.664 48.312C193.254 48.312 193.681 47.8529 193.681 47.2462C193.681 46.6394 193.254 46.2131 192.664 46.2131ZM192.68 45.8359C193.5 45.8359 194.14 46.4755 194.14 47.2626C194.14 48.0497 193.484 48.7056 192.664 48.7056C191.844 48.7056 191.172 48.0661 191.172 47.2626C191.172 46.4591 191.844 45.8359 192.664 45.8359H192.68Z" fill="white"/>
<path d="M147.105 33.9116L144.639 39.021L147.385 40.347L149.852 35.2376L147.105 33.9116Z" fill="#E42313"/>
<path d="M149.619 26.8805L147.75 28.3235L146.258 26.3722L152.456 21.584L153.965 23.5189L152.079 24.9783L157.605 32.1278L155.145 34.0464L149.619 26.8805Z" fill="white"/>
<path d="M161.246 25.7481C160.426 26.1252 159.688 26.7647 160.033 27.5846C160.311 28.2406 160.885 28.3061 161.197 28.1586C161.492 28.0274 161.836 27.7486 161.853 27.3387C161.853 27.2403 161.836 27.1255 161.771 26.9943L161.23 25.7317L161.246 25.7481ZM164.854 26.4204C165.116 27.0435 165.411 27.6502 165.756 28.1258L163.197 29.208L162.738 28.5357H162.706C162.427 29.372 161.787 29.9623 160.984 30.3067C159.541 30.9298 158.049 30.3559 157.458 28.9621C156.573 26.8959 158.442 25.125 160.492 24.2395L160.426 24.0919C160.246 23.6655 159.639 23.5344 158.901 23.8459C158.098 24.1903 157.573 24.6166 157.097 25.1741L155.9 23.7639C156.343 23.272 157.343 22.4029 158.77 21.7962C161.935 20.4516 163.066 22.2225 163.706 23.7147L164.837 26.3876L164.854 26.4204Z" fill="white"/>
<path d="M167.3 16.0453L164.236 16.6104L166.378 28.221L169.442 27.6559L167.3 16.0453Z" fill="white"/>
<path d="M175.053 22.6165C175.086 21.7966 174.955 20.9111 174.151 20.8783C173.364 20.8455 173.053 21.8294 173.02 22.5345L175.053 22.6165ZM172.954 24.3547C172.954 25.1254 173.708 25.6173 174.905 25.6501C175.693 25.6829 176.381 25.5681 176.906 25.4533L177.218 27.3391C176.48 27.5359 175.348 27.6506 174.266 27.6015C171.429 27.5031 169.904 25.9945 170.003 23.3544C170.101 20.4848 172.069 18.8942 174.397 18.9762C176.578 19.0582 177.956 20.37 177.841 23.1904C177.808 23.9119 177.759 24.2727 177.693 24.535L172.971 24.3547H172.954Z" fill="white"/>
<path d="M179.595 22.2382C179.89 21.402 180.152 20.5001 180.398 19.6802L182.924 20.5657L182.76 21.5167H182.792C183.53 21.074 184.498 20.9756 185.465 21.3036C187.449 21.9923 187.564 23.5829 186.974 25.2883L185.236 30.2568L182.3 29.2237L184.006 24.3208C184.203 23.7796 184.203 23.2057 183.612 22.9925C183.284 22.8778 182.989 22.9598 182.71 23.2057C182.579 23.3205 182.415 23.5665 182.3 23.8944L180.644 28.6498L177.709 27.6168L179.595 22.2218V22.2382Z" fill="white"/>
<path d="M194.633 23.9603L193.338 25.8296L194.945 26.9447L193.895 28.4533L192.288 27.3382L190.386 30.0931C189.861 30.8474 190.14 31.3065 190.55 31.6017C190.763 31.7493 190.943 31.8477 191.173 31.9788L189.992 33.6678C189.615 33.5038 189.041 33.1923 188.418 32.7659C187.746 32.2904 187.238 31.7493 187.024 31.1425C186.795 30.421 186.893 29.6667 187.68 28.5353L189.714 25.5837L188.779 24.9277L189.828 23.4191L190.763 24.0751L191.616 22.8452L194.617 23.9931L194.633 23.9603Z" fill="white"/>
<path d="M195.895 37.3748C195.928 37.4732 196.026 37.6208 196.092 37.752C196.682 38.6702 198.043 38.8014 200.437 37.2436C202.225 36.0794 203.045 34.8495 202.307 33.7181C202.225 33.5869 202.143 33.4721 202.028 33.3737L195.895 37.3748ZM201.946 29.7334C202.421 30.2417 203.094 31.0944 203.733 32.0783C204.734 33.6197 205.127 34.8659 205.012 36.0466C204.881 37.5716 203.881 38.8506 202.094 40.0149C200.257 41.2119 198.42 41.5891 196.912 41.0151C195.813 40.6052 194.764 39.6705 193.665 37.9651C193.157 37.1944 192.73 36.3909 192.484 35.899L201.946 29.7334Z" fill="white"/>
<path d="M202.439 41.8012C203.292 41.5389 204.161 41.2273 204.964 40.9321L205.751 43.4902L204.653 43.9985V44.0805C205.719 44.2609 206.325 44.9004 206.522 45.5071C206.62 45.8187 206.653 45.9663 206.67 46.1631L204.194 46.9338C204.161 46.737 204.112 46.5402 204.03 46.2778C203.915 45.9335 203.57 45.2448 202.685 45.1628C202.505 45.1464 202.177 45.1628 201.816 45.294L197.913 46.5074L196.979 43.523L202.439 41.834V41.8012Z" fill="white"/>
<path d="M209.391 50.6409C208.604 50.7557 207.948 50.1162 207.85 49.2471C207.751 48.4272 208.227 47.6893 209.03 47.6073C209.866 47.4925 210.49 48.1485 210.588 48.9683C210.686 49.8046 210.244 50.5425 209.391 50.6573M198.486 48.8536L206.816 47.8697L207.194 50.9689L198.863 51.9528L198.503 48.8536H198.486Z" fill="white"/>
<path d="M207.178 55.9862L203.8 56.2158C202.963 56.2814 202.209 56.3306 201.291 56.3798V56.4289C202.193 56.6257 202.881 56.8225 203.718 57.0357L206.997 57.9048L206.702 60.9548L198.602 57.5112L198.864 54.6416L207.473 52.6738L207.161 55.9862H207.178Z" fill="white"/>
<path d="M201.373 65.7097C202.144 65.9884 203.029 66.1524 203.308 65.3981C203.587 64.6602 202.751 64.0535 202.078 63.8075L201.373 65.7097ZM200.373 63.168C199.635 62.9384 198.946 63.496 198.52 64.5946C198.241 65.3325 198.126 66.0212 198.077 66.546L196.191 66.2508C196.241 65.4965 196.487 64.3814 196.864 63.3648C197.864 60.7083 199.783 59.7244 202.259 60.6591C204.948 61.6594 205.85 64.0207 205.03 66.2016C204.259 68.235 202.587 69.1368 199.947 68.1366C199.274 67.8906 198.946 67.7102 198.717 67.5626L200.373 63.1352V63.168Z" fill="white"/>
<path d="M200.29 70.137C200.995 70.6781 201.766 71.2193 202.471 71.6948L200.847 73.8265L199.995 73.3674V73.4002C200.175 74.2365 199.978 75.2039 199.339 76.0074C198.076 77.6636 196.518 77.3029 195.092 76.2042L190.91 73.0066L192.812 70.5305L196.928 73.6789C197.387 74.0397 197.928 74.2201 198.306 73.7281C198.519 73.4494 198.535 73.1542 198.388 72.8099C198.322 72.6623 198.125 72.4163 197.863 72.2031L193.862 69.1367L195.764 66.6606L200.306 70.137H200.29Z" fill="white"/>
<path d="M187.799 75.3134L185.186 77.0103L191.446 86.6507L194.059 84.9538L187.799 75.3134Z" fill="white"/>
<path d="M186.368 83.0751C186.663 83.9114 187.008 84.7805 187.319 85.584L184.794 86.4694L184.319 85.6168H184.286C183.991 86.4366 183.302 87.1254 182.334 87.4697C180.367 88.1584 179.268 86.9942 178.678 85.2888L176.939 80.3038L179.875 79.2708L181.58 84.1737C181.777 84.7149 182.121 85.174 182.712 84.9772C183.039 84.8624 183.22 84.6165 183.285 84.2557C183.318 84.0917 183.285 83.7802 183.171 83.4686L181.514 78.7132L184.466 77.6802L186.352 83.0751H186.368Z" fill="white"/>
<path d="M176.857 86.0774C176.89 86.9628 176.955 87.8975 177.021 88.7502L174.348 88.8322L174.168 87.8811H174.118C173.594 88.5698 172.725 89.0126 171.691 89.0454C169.593 89.111 168.92 87.6844 168.855 85.8642L168.707 80.6005L171.823 80.5021L171.97 85.6838C171.987 86.2577 172.183 86.7989 172.807 86.7825C173.151 86.7825 173.397 86.6021 173.577 86.2741C173.659 86.1102 173.725 85.8314 173.708 85.487L173.561 80.4529L176.676 80.3545L176.84 86.061L176.857 86.0774Z" fill="white"/>
<path d="M164.608 83.83C165.002 82.4362 164.985 81.4687 164.28 81.2719C163.657 81.1079 163.149 82.1738 162.837 83.338C162.542 84.4039 162.411 85.6502 163.067 85.8305C163.821 86.0437 164.329 84.9123 164.625 83.83M159.853 82.5346C160.82 79.0746 163.428 78.9926 164.854 79.3862C167.379 80.0913 168.281 82.0754 167.576 84.6007C166.773 87.4703 164.51 88.2738 162.509 87.7327C160.033 87.044 159.164 84.9614 159.836 82.5346" fill="white"/>
<path d="M154.59 84.2557L155.869 81.1237C156.18 80.353 156.459 79.6479 156.82 78.8116H156.787C156.197 79.5167 155.737 80.0415 155.164 80.6974L152.933 83.2554L150.326 81.6648L157 75.9092L159.46 77.4178L157.426 86.0103L154.59 84.2721V84.2557Z" fill="white"/>
<path d="M149.406 74.4014C150.03 75.0573 150.882 75.5329 151.538 74.9262C152.063 74.4342 151.915 73.8767 151.686 73.6307C151.473 73.4011 151.095 73.1716 150.702 73.2864C150.604 73.3192 150.505 73.3848 150.407 73.4667L149.406 74.385V74.4014ZM148.849 70.7611C149.357 70.3019 149.816 69.81 150.161 69.3345L152.047 71.3678L151.571 72.0237L151.604 72.0565C152.473 72.0565 153.244 72.4337 153.834 73.0896C154.9 74.2374 154.867 75.8444 153.752 76.8611C152.096 78.3861 149.816 77.2219 148.275 75.5821L148.16 75.6805C147.816 75.992 147.898 76.5987 148.439 77.1891C149.029 77.8286 149.62 78.1893 150.292 78.4353L149.374 80.0259C148.767 79.7635 147.619 79.124 146.57 77.9926C144.241 75.4673 145.537 73.7947 146.717 72.696L148.849 70.7283V70.7611Z" fill="white"/>
<path d="M139.027 70.9073L141.028 69.825L140.11 68.1033L141.733 67.2342L142.651 68.956L145.603 67.3654C146.406 66.9226 146.374 66.3979 146.144 65.9551C146.013 65.7256 145.914 65.5616 145.75 65.332L147.571 64.3481C147.833 64.6597 148.21 65.2008 148.571 65.8731C148.964 66.5947 149.178 67.3162 149.079 67.9557C148.964 68.71 148.522 69.3331 147.308 69.989L144.16 71.678L144.701 72.6783L143.078 73.5474L142.536 72.5307L141.208 73.2358L139.06 70.8581L139.027 70.9073Z" fill="white"/>
<path d="M147.489 63.7593L139.47 66.2518L138.536 63.2674L146.554 60.7749L147.489 63.7429V63.7593ZM136.437 64.0053C137.191 63.7429 137.945 64.2513 138.208 65.1039C138.454 65.891 138.126 66.7109 137.355 66.9405C136.552 67.2193 135.83 66.6781 135.584 65.891C135.338 65.0875 135.633 64.2677 136.453 64.0217" fill="white"/>
<path d="M141.783 57.6919C143.226 57.5771 144.128 57.2492 144.062 56.5113C144.013 55.8718 142.832 55.757 141.635 55.8554C140.536 55.9373 139.323 56.2325 139.372 56.9212C139.438 57.7083 140.668 57.7903 141.783 57.7083M141.389 52.7726C144.98 52.4938 145.931 54.9207 146.046 56.4129C146.243 59.0201 144.685 60.5452 142.061 60.7583C139.077 60.9879 137.552 59.1185 137.404 57.0524C137.208 54.4779 138.864 52.9693 141.389 52.7726Z" fill="white"/>
<path d="M140.044 51.1809C139.174 50.9841 138.256 50.8201 137.42 50.6725L138.01 48.0653L138.978 48.1144V48.0817C138.453 47.4093 138.24 46.4419 138.469 45.4416C138.929 43.4083 140.486 43.0967 142.241 43.4902L147.39 44.6545L146.701 47.7045L141.651 46.573C141.077 46.4419 140.519 46.5075 140.372 47.1142C140.29 47.4421 140.404 47.7373 140.683 47.9833C140.814 48.0981 141.077 48.2292 141.405 48.3112L146.308 49.4099L145.619 52.4435L140.044 51.1809Z" fill="white"/>
</g>
</g>
<defs>
<clipPath id="clip0_2645_13258">
<rect width="108" height="108" fill="white" transform="translate(118.207)"/>
</clipPath>
</defs>
</svg>
