<svg width="473" height="213" viewBox="0 0 473 213" fill="none" xmlns="http://www.w3.org/2000/svg">
<path d="M470.547 1.80628C470.44 0.706907 469.462 -0.0975835 468.362 0.00940371L450.447 1.75286C449.348 1.85985 448.543 2.8378 448.65 3.93717C448.757 5.03655 449.735 5.84104 450.834 5.73405L466.759 4.18431L468.309 20.1091C468.416 21.2085 469.394 22.013 470.493 21.906C471.593 21.799 472.397 20.821 472.29 19.7216L470.547 1.80628ZM0 210.247V212.247C149.107 212.247 266.62 160.013 346.836 107.8C386.945 81.6927 417.741 55.5837 438.516 35.9937C448.905 26.1982 456.79 18.0307 462.083 12.3059C464.73 9.44339 466.728 7.19138 468.068 5.65162C468.738 4.88174 469.243 4.2899 469.583 3.88883C469.752 3.68829 469.88 3.53544 469.967 3.43187C470.01 3.38009 470.043 3.34062 470.065 3.31367C470.076 3.3002 470.085 3.28986 470.091 3.28267C470.094 3.27907 470.096 3.27605 470.098 3.27425C470.099 3.27202 470.101 3.27059 468.556 2C467.011 0.729415 467.011 0.729566 467.011 0.73051C467.009 0.731881 467.008 0.733614 467.006 0.73635C467.001 0.741821 466.994 0.750443 466.984 0.762192C466.965 0.78569 466.935 0.821692 466.895 0.870002C466.814 0.966622 466.692 1.11247 466.528 1.30595C466.201 1.69292 465.708 2.27044 465.051 3.0258C463.736 4.53654 461.764 6.75859 459.146 9.59036C453.909 15.254 446.089 23.3559 435.772 33.0835C415.138 52.5398 384.529 78.4926 344.654 104.447C264.904 156.357 148.139 208.247 0 208.247V210.247Z" fill="url(#paint0_linear_1372_12649)"/>
<defs>
<linearGradient id="paint0_linear_1372_12649" x1="-8.48664" y1="219.504" x2="474.16" y2="22.896" gradientUnits="userSpaceOnUse">
<stop stop-color="#631313"/>
<stop offset="0.485577" stop-color="#C92626"/>
<stop offset="1" stop-color="#EA3030"/>
</linearGradient>
</defs>
</svg>
