<svg width="360" height="78" viewBox="0 0 360 78" fill="none" xmlns="http://www.w3.org/2000/svg">
<mask id="path-1-inside-1_2668_15555" fill="white">
<path d="M0 0H360V78H0V0Z"/>
</mask>
<path d="M360 78V77H0V78V79H360V78Z" fill="white" fill-opacity="0.1" mask="url(#path-1-inside-1_2668_15555)"/>
<g clip-path="url(#clip0_2668_15555)">
<path fill-rule="evenodd" clip-rule="evenodd" d="M96.166 25.9793C97.9707 24.1054 100.507 22.9385 103.316 22.9385C107.919 22.9385 111.79 26.0732 112.913 30.3254C112.913 30.3254 109.437 30.3798 107.242 30.0782C104.809 29.742 103.419 29.4503 101.13 28.5652C99.0931 27.7791 96.171 25.9793 96.171 25.9793M113.145 31.5121C113.111 31.2649 113.071 31.0226 113.017 30.7803C113.017 30.7803 108.136 30.8495 105.071 30.3749C101.748 29.8607 99.8101 29.5195 96.7544 28.1153C96.1018 27.8137 95.7408 27.5961 95.1079 27.2846C94.7717 27.7741 94.48 28.2982 94.2377 28.8471C94.2377 28.8471 96.171 29.4997 97.4269 29.8359C100.102 30.5479 101.669 30.7408 104.413 31.0671C107.795 31.4725 113.14 31.5121 113.14 31.5121M104.507 32.4318L113.224 32.4713C113.219 32.3082 113.209 32.145 113.195 31.9818C113.195 31.9818 107.459 32.0263 103.815 31.7049C99.8645 31.3539 97.5356 30.9583 93.763 30.1573C93.59 30.7754 93.4713 31.4182 93.4219 32.0807L104.507 32.4318ZM96.166 39.4825C97.9707 41.3564 100.507 42.5233 103.311 42.5233C107.914 42.5233 111.785 39.3886 112.908 35.1364C112.908 35.1364 109.432 35.082 107.237 35.3836C104.804 35.7198 103.415 36.0115 101.125 36.8966C99.0882 37.6827 96.166 39.4825 96.166 39.4825ZM104.418 34.3947C101.669 34.726 100.107 34.9139 97.4318 35.6259C96.171 35.9621 94.2426 36.6147 94.2426 36.6147C94.4849 37.1636 94.7766 37.6877 95.1129 38.1772C95.7458 37.8607 96.1067 37.6481 96.7594 37.3465C99.8101 35.9423 101.753 35.6011 105.076 35.0869C108.141 34.6123 113.022 34.6815 113.022 34.6815C113.071 34.4392 113.116 34.1969 113.15 33.9497C113.15 33.9497 107.805 33.9893 104.423 34.3947M93.4219 33.3811C93.4713 34.0436 93.59 34.6864 93.763 35.3045C97.5406 34.5035 99.8645 34.1079 103.815 33.7569C107.459 33.4355 113.195 33.48 113.195 33.48C113.209 33.3168 113.219 33.1586 113.224 32.9954L104.507 33.03L93.4219 33.3811Z" fill="#E42313"/>
<path d="M124.828 41.9703C130.425 41.9703 135.192 37.9999 136.522 33.0307C137.204 30.4943 136.819 28.111 135.444 26.3212C134.129 24.6104 132.067 23.666 129.634 23.666C124.655 23.666 119.523 27.7106 118.188 32.6797L114.148 47.7602L119.221 45.1248L122.46 33.0357C123.207 30.252 126.069 27.9874 128.843 27.9874C130.074 27.9874 131.103 28.4473 131.741 29.2779C132.418 30.163 132.601 31.3694 132.25 32.6797C131.503 35.4634 128.606 37.8071 125.867 37.7279C123.128 37.6488 122.455 36.5363 122.455 36.5363L121.318 40.6501C121.318 40.6501 122.035 41.9801 124.828 41.9801" fill="white"/>
<path fill-rule="evenodd" clip-rule="evenodd" d="M231.857 23.6211C230.917 23.6211 230.121 24.343 230.121 25.322C230.121 26.301 230.917 27.0327 231.857 27.0327C232.796 27.0327 233.582 26.3109 233.582 25.322C233.582 24.3331 232.786 23.6211 231.857 23.6211ZM231.857 26.7509C231.075 26.7509 230.467 26.1477 230.467 25.3269C230.467 24.5061 231.075 23.9079 231.857 23.9079C232.638 23.9079 233.236 24.516 233.236 25.3269C233.236 26.1378 232.628 26.7509 231.857 26.7509ZM232.643 24.9066C232.643 24.516 232.41 24.3479 231.946 24.3479H231.194V26.3158H231.491V25.4604H231.832L232.351 26.3158H232.687L232.129 25.4505C232.415 25.4159 232.638 25.2626 232.638 24.9066M231.496 25.2083V24.6001H231.901C232.109 24.6001 232.331 24.6446 232.331 24.8869C232.331 25.1885 232.104 25.2083 231.852 25.2083H231.496Z" fill="white"/>
<path fill-rule="evenodd" clip-rule="evenodd" d="M142.055 30.6619C143.355 28.9758 145.372 27.8683 147.286 27.8683H149.807L149.941 27.359L150.732 24.4121L150.964 23.5469H148.077C143.098 23.5469 137.966 27.5914 136.631 32.5606C135.948 35.097 136.334 37.4802 137.703 39.2701C139.019 40.9809 141.081 41.9253 143.513 41.9253H146.035L146.168 41.416L146.959 38.4691L147.192 37.6039H144.304C142.46 37.6039 141.125 36.5705 140.804 34.9635H140.818H147.35H147.874L148.013 34.4543L148.804 31.5074L149.036 30.6421H142.079L142.055 30.6619Z" fill="white"/>
<path fill-rule="evenodd" clip-rule="evenodd" d="M154.044 37.6039L152.481 37.6188L152.58 37.5891L154.177 31.4679L154.41 30.6026H150.044L149.905 31.1119L147.24 41.0601L147.008 41.9253H153.263C158.242 41.9253 163.374 37.8808 164.709 32.9117C165.386 30.3752 165.006 27.992 163.631 26.1971C162.316 24.4864 160.254 23.542 157.821 23.542H151.937L151.799 24.0513L151.008 26.9981L150.775 27.8634H157.03C158.251 27.8634 159.27 28.3183 159.903 29.1391C160.58 30.0241 160.758 31.2355 160.407 32.5557C159.661 35.3394 156.798 37.6039 154.024 37.6039" fill="white"/>
<path fill-rule="evenodd" clip-rule="evenodd" d="M176.871 29.4608C177.292 27.8836 177.049 26.4002 176.194 25.2778C175.373 24.2 174.088 23.6066 172.575 23.6066L167.161 23.5918L166.009 27.9083H171.799C172.12 27.9083 172.372 28.0121 172.53 28.2148C172.698 28.4324 172.738 28.7488 172.644 29.1048C172.417 29.9503 171.527 30.6623 170.696 30.6623H170.666L165.376 30.6722L162.34 42.0394H166.701L168.595 34.9442H169.316L171.517 42.0394H176.155L173.643 33.7773C173.643 33.7773 176.372 31.3348 176.871 29.4608Z" fill="white"/>
<path fill-rule="evenodd" clip-rule="evenodd" d="M202.902 32.5753C202.224 35.1118 202.605 37.495 203.975 39.2849C205.29 40.9957 207.352 41.9598 209.784 41.9598H210.852L212.014 37.6236H210.571C209.339 37.6236 208.311 37.1637 207.673 36.3331C206.996 35.448 206.818 34.2416 207.164 32.9313L209.676 23.5518H205.31L202.892 32.5753H202.902Z" fill="white"/>
<path fill-rule="evenodd" clip-rule="evenodd" d="M193.894 32.5802C193.217 35.1167 193.597 37.4999 194.967 39.2898C196.282 41.0006 198.344 41.9449 200.777 41.9449L200.613 41.9252L200.777 41.9647H201.845L203.007 37.6285H201.563C200.332 37.6285 199.303 37.1686 198.665 36.338C197.988 35.4529 197.805 34.2465 198.156 32.9362L200.668 23.5566H196.302L193.884 32.5802H193.894Z" fill="white"/>
<path fill-rule="evenodd" clip-rule="evenodd" d="M229.027 26.247C227.712 24.5362 225.65 23.5918 223.217 23.5918C218.243 23.5918 213.111 27.6314 211.781 32.5956C211.103 35.1321 211.484 37.5153 212.854 39.3052C214.169 41.0159 216.231 41.9603 218.663 41.9603C223.637 41.9603 228.77 37.9207 230.1 32.9565C230.777 30.42 230.396 28.0368 229.027 26.247ZM225.833 32.6005C225.086 35.3842 222.228 37.6438 219.454 37.6438C218.223 37.6438 217.195 37.184 216.557 36.3533C215.88 35.4683 215.702 34.2619 216.053 32.9516C216.799 30.1679 219.657 27.9083 222.431 27.9083C223.662 27.9083 224.691 28.3681 225.328 29.1988C226.006 30.0838 226.189 31.2903 225.838 32.6005" fill="white"/>
<path fill-rule="evenodd" clip-rule="evenodd" d="M192.761 26.2811C191.446 24.5704 189.384 23.626 186.951 23.626C181.977 23.626 176.845 27.6656 175.515 32.6298C174.838 35.1663 175.218 37.5495 176.588 39.3393C177.903 41.0501 179.965 41.9945 182.398 41.9945C187.372 41.9945 192.504 37.9549 193.834 32.9907C194.512 30.4542 194.131 28.071 192.761 26.2811ZM189.567 32.6347C188.82 35.4184 185.958 37.678 183.189 37.678C181.958 37.678 180.929 37.2182 180.291 36.3875C179.614 35.5025 179.431 34.296 179.782 32.9858C180.529 30.2021 183.392 27.9425 186.16 27.9425C187.387 27.9425 188.42 28.4023 189.058 29.2329C189.735 30.118 189.913 31.3244 189.567 32.6347Z" fill="white"/>
<path d="M225.169 50.8941C225.169 50.8941 225.609 49.3218 225.263 48.5702C225.045 48.1499 224.536 47.8632 223.928 47.8137C223.433 47.7742 222.677 47.8731 221.861 48.5702C221.356 48.9954 220.931 49.6975 220.699 50.4887C220.471 51.255 220.466 51.967 220.679 52.3972C220.946 52.9213 221.539 53.2328 222.266 53.2328C222.993 53.2328 223.695 52.951 224.18 52.4813C224.585 52.1253 224.986 51.3292 224.986 51.3292H223.972C223.972 51.3292 223.29 52.3478 222.444 52.3478C221.935 52.3478 221.742 52.0758 221.618 51.8088C221.495 51.4578 221.628 50.8892 221.628 50.8892H225.169V50.8941ZM222.573 49.0696L222.583 49.0597C222.874 48.7729 223.285 48.6246 223.68 48.6642C224.051 48.6988 224.229 48.8966 224.313 49.0301C224.402 49.1636 224.476 49.6184 224.368 50.009C224.076 50.009 222.85 50.009 221.92 50.009C221.811 50.009 222.439 49.1635 222.568 49.0696M172.802 50.7655C172.802 50.7655 173.242 49.2575 172.896 48.5406C172.679 48.1401 172.169 47.8632 171.561 47.8187C171.067 47.7791 170.31 47.878 169.494 48.5455C168.99 48.9559 168.565 49.6283 168.332 50.3848C168.105 51.1166 168.1 51.8039 168.313 52.2143C168.58 52.7186 169.173 53.0153 169.9 53.0153C170.627 53.0153 171.329 52.7483 171.813 52.2934C172.219 51.9522 172.619 51.1858 172.619 51.1858H171.606C171.606 51.1858 170.923 52.1599 170.078 52.1599C169.569 52.1599 169.376 51.8978 169.252 51.6407C169.129 51.3045 169.262 50.7606 169.262 50.7606H172.802V50.7655ZM170.206 49.0152L170.216 49.0053C170.508 48.7284 170.918 48.59 171.319 48.6246C171.69 48.6592 171.868 48.8471 171.952 48.9757C172.041 49.1042 172.115 49.5393 172.006 49.9151C171.714 49.9151 170.488 49.9151 169.559 49.9151C169.45 49.9151 170.078 49.1042 170.206 49.0152ZM184.783 48.0164C184.54 47.8829 184.199 47.8088 183.813 47.8088C183.457 47.8088 183.116 47.878 182.879 47.9967C182.666 48.1005 182.296 48.3428 182.296 48.3477L182.3 48.3329L182.409 47.9373H181.514L179.556 54.642L179.517 54.7705H180.511L180.53 54.6964L181.178 52.4911C181.237 52.5703 181.312 52.6494 181.406 52.7186C181.499 52.7878 181.851 53.0251 182.439 53.0251C183.027 53.0251 183.576 52.8125 184.105 52.3972C184.718 51.9275 185.232 51.0474 185.406 50.1475C185.613 49.1537 185.376 48.3576 184.773 48.0214M183.581 51.6308C183.294 51.9077 182.904 52.0659 182.508 52.056C182.167 52.0461 181.885 51.8978 181.766 51.6704C181.608 51.3391 181.588 50.1524 182.464 49.1883C182.716 48.9163 183.096 48.7433 183.477 48.7136C183.853 48.6889 184.15 48.8273 184.268 49.0795C184.619 49.836 184.105 51.1265 183.581 51.6308ZM200.333 47.9472C200.333 47.9472 200.259 48.2043 200.209 48.4021C199.957 48.0263 199.576 47.8236 199.067 47.8088C198.271 47.7841 197.44 48.3823 197.213 48.5949C196.689 49.124 196.293 49.9645 196.056 50.7655C195.65 52.15 196.491 53.2081 197.386 53.2279C198.029 53.2378 198.582 52.9263 199.008 52.6098C198.874 52.9164 198.741 53.7223 197.964 54.0239C197.747 54.108 197.509 54.1426 197.267 54.1426C197.06 54.1426 196.886 54.0981 196.743 54.0437C196.293 53.8706 196.466 53.3564 196.466 53.3564H195.482C195.482 53.3564 195.121 54.459 196.174 54.8892C196.461 55.0079 196.822 55.1018 197.277 55.0375C199.067 54.9238 199.616 53.7075 200.145 52.1154L201.322 47.9472H200.328H200.333ZM198.805 51.9324C198.488 52.1945 198.118 52.323 197.796 52.2884C197.465 52.2686 197.218 52.1055 197.094 51.8236C196.975 51.5319 197 51.0968 197.158 50.5925C197.302 50.1475 197.529 49.7322 197.683 49.5344C198.103 48.9757 198.577 48.8669 198.904 48.8718C199.28 48.8817 199.547 49.0597 199.576 49.1339V49.1438L199.586 49.1537C199.942 49.6778 199.576 51.2897 198.8 51.9374M208.372 48.4021C208.002 47.9126 207.393 47.8088 206.948 47.8088C206.266 47.8088 204.605 48.0708 203.922 50.4837C203.655 51.438 203.7 52.1599 204.056 52.6345C204.348 53.0153 204.852 53.2279 205.48 53.2279C206.162 53.2279 207.828 52.9658 208.511 50.543C208.778 49.5937 208.733 48.8718 208.377 48.4021M207.512 50.4837C207.275 51.3292 206.602 52.239 205.697 52.239C205.396 52.239 205.168 52.1401 205.02 51.9473C204.753 51.5913 204.793 50.988 204.916 50.543C205.154 49.7025 205.821 48.7977 206.726 48.7977C207.032 48.7977 207.26 48.8966 207.408 49.0894C207.675 49.4404 207.631 50.0387 207.507 50.4837M161.479 51.8879C161.47 51.9225 161.465 51.972 161.479 51.9967C161.504 52.0264 161.613 52.0857 162.058 52.0115L162.221 51.9819L161.964 52.9312C161.964 52.9312 161.331 53.0301 161.01 53.0004C160.723 52.9708 160.575 52.8224 160.5 52.7087C160.382 52.5258 160.372 52.2934 160.412 52.145L161.415 48.4367H160.738L161 47.4676H161.667L162.048 46.0931H163.042L162.676 47.4676H163.442L163.18 48.4367H162.414L161.484 51.883L161.479 51.8879ZM167.878 49.2575V49.2476L166.815 53.0153H165.821C165.821 53.0153 166.795 49.569 166.795 49.564C166.988 48.9954 166.765 48.8817 166.681 48.8422C166.429 48.7136 166.206 48.679 165.959 48.7235C165.732 48.7631 165.47 48.8867 165.119 49.1191C164.916 49.2773 164.768 49.3959 164.654 49.7865L163.739 53.0153H162.745L164.708 46.0585H165.702L165.049 48.3724C165.049 48.3724 165.306 48.1351 165.831 47.9423C166.098 47.8533 166.335 47.8088 166.557 47.8088C166.839 47.8088 167.106 47.8681 167.334 47.9818C167.571 48.0758 167.739 48.234 167.838 48.4565C167.976 48.7779 167.917 49.1388 167.868 49.2575M180.1 48.2834C180.313 48.5603 180.357 48.9509 180.224 49.4355L180.204 49.5146H179.225C179.225 49.5146 179.334 49.0746 179.245 48.9559C179.136 48.8125 178.874 48.7383 178.473 48.7383C178.028 48.7383 177.638 48.9856 177.47 49.213C177.381 49.3366 177.341 49.4602 177.361 49.564C177.376 49.6333 177.415 49.6877 177.485 49.7272C177.687 49.8607 178.009 49.9448 178.419 50.0535C178.419 50.0535 178.488 50.0733 178.478 50.0684C178.829 50.1277 179.23 50.2217 179.537 50.454C179.907 50.7161 179.996 51.2254 179.759 51.7792C179.532 52.3181 179.062 52.7779 178.503 53.0004C178.231 53.1092 177.895 53.1784 177.519 53.213C177.193 53.213 176.852 53.213 176.58 53.1438C176.199 53.0499 175.927 52.8669 175.774 52.6049C175.601 52.3082 175.581 51.9225 175.719 51.433L175.739 51.3539H176.684L176.654 51.4825C176.56 51.9028 176.718 52.1549 177.158 52.3033C177.307 52.3527 177.549 52.3527 177.781 52.3527C178.024 52.2934 178.276 52.2291 178.414 52.145C178.612 52.0264 178.785 51.8088 178.839 51.616C178.904 51.3787 178.815 51.2204 178.562 51.1265L178.152 51.0227C177.668 50.904 177.163 50.7804 176.876 50.6271C176.545 50.4887 176.209 50.1524 176.446 49.3218C176.743 48.2736 177.846 47.7939 178.745 47.7939C179.403 47.7939 179.858 47.9522 180.1 48.2686M188.293 48.9361C187.69 49.2031 187.329 49.6234 187.106 50.4145L186.37 53.0153H185.376L186.81 47.9472H187.804L187.67 48.4268C187.67 48.4268 188.1 47.8434 188.827 47.8088H189.401L189.109 48.8323C189.109 48.8323 188.832 48.6988 188.298 48.9361M190.993 47.9472L189.559 53.0153H188.565L189.999 47.9472H190.993ZM191.195 47.2303H190.202L190.533 46.0585H191.527L191.195 47.2303ZM195.828 49.1487V49.1586V49.1636L194.741 53.0153H193.747L194.741 49.5047C194.81 49.2723 194.795 49.0795 194.696 48.946C194.592 48.8026 194.39 48.7235 194.132 48.7235C193.831 48.7235 192.827 48.8422 192.417 50.3601L191.665 53.0202H190.671L192.1 47.9522H193.094L192.99 48.323L193.43 48.0511C193.786 47.8286 194.261 47.8088 194.513 47.8137C194.84 47.8236 195.181 47.8829 195.324 47.9621C195.527 48.0906 195.942 48.3576 195.833 49.1586M212.466 46.0683L212.575 46.0931L212.338 46.9336L212.249 46.9237C211.794 46.8693 211.557 46.9237 211.428 47.3638L211.265 47.9423H212.041L211.779 48.8619H211.003L209.831 53.0054H208.837L210.004 48.8619H209.351L209.613 47.9373H210.271L210.479 47.1907C210.701 46.3947 211.463 46.0683 211.641 46.0535C211.918 46.0041 212.185 46.0041 212.466 46.0634M216.709 46.192L214.805 52.9361L214.785 53.0103H213.791L213.831 52.8768L215.735 46.1326L215.754 46.0585H216.748L216.709 46.192ZM218.217 48.0807L216.842 52.9361L216.822 53.0103H215.829L215.868 52.8768L217.243 48.0214L217.262 47.9472H218.256L218.217 48.0807ZM217.599 47.2303H217.46L217.5 47.0968L217.772 46.1326L217.791 46.0585H218.785L218.746 46.192L218.474 47.1561L218.454 47.2352H217.599V47.2303ZM221.836 46.1128L221.599 46.9534L221.51 46.9435C221.055 46.8891 220.817 46.9435 220.689 47.3836L220.531 47.9423H221.307L221.045 48.8619H220.269L219.097 53.0054H218.103L219.27 48.8619H218.617L218.879 47.9373H219.537L219.74 47.2105C219.967 46.4145 220.724 46.0881 220.902 46.0733C221.178 46.0238 221.445 46.0238 221.722 46.0832L221.836 46.1079V46.1128Z" fill="white"/>
</g>
<rect x="287" y="28" width="33" height="4" rx="2" fill="white"/>
<rect x="287" y="37" width="33" height="4" rx="2" fill="white"/>
<rect x="287" y="46" width="33" height="4" rx="2" fill="white"/>
<defs>
<clipPath id="clip0_2668_15555">
<rect width="140.155" height="32.1239" fill="white" transform="translate(93.4219 22.9385)"/>
</clipPath>
</defs>
</svg>
