<svg width="55" height="55" viewBox="0 0 55 55" fill="none" xmlns="http://www.w3.org/2000/svg">
<path d="M31.4904 36.3235C31.4904 39.7338 28.7106 42.5 25.2835 42.5C21.8564 42.5 19.0766 39.7338 19.0766 36.3235V27.5C19.0766 27.0147 19.4756 26.6176 19.9633 26.6176C20.4509 26.6176 20.85 27.0147 20.85 27.5V36.3235C20.85 38.7588 22.8362 40.7353 25.2835 40.7353C27.7308 40.7353 29.717 38.7588 29.717 36.3235V32.7544C29.717 32.2956 30.0672 31.9162 30.5239 31.8765C35.0682 31.4706 38.584 27.6632 38.584 23.0882C38.584 18.2132 34.616 14.2647 29.717 14.2647C27.6598 14.2647 25.7179 14.9618 24.1485 16.2191C23.7672 16.5235 23.2086 16.4662 22.9027 16.0868C22.5968 15.7074 22.6544 15.1515 23.0357 14.8471C24.9155 13.3382 27.2519 12.5 29.717 12.5C35.5913 12.5 40.3574 17.2426 40.3574 23.0882C40.3574 28.3029 36.5534 32.6882 31.4904 33.5309V36.3235ZM35.9239 23.0882C35.9239 23.5735 35.5248 23.9706 35.0372 23.9706C34.5495 23.9706 34.1505 23.5735 34.1505 23.0882C34.1505 20.6529 32.1642 18.6765 29.717 18.6765C29.2293 18.6765 28.8303 18.2794 28.8303 17.7941C28.8303 17.3088 29.2293 16.9118 29.717 16.9118C33.1441 16.9118 35.9239 19.6779 35.9239 23.0882ZM20.2869 19.5853L19.4578 21.65C19.3248 21.9853 18.9968 22.2059 18.6332 22.2059H15.5298C15.0421 22.2059 14.6431 21.8088 14.6431 21.3235C14.6431 20.8382 15.0421 20.4412 15.5298 20.4412H18.0347L19.5864 16.5853C19.8968 15.8088 21.0184 15.8574 21.2578 16.6603L23.1864 23.0618L24.0155 20.9971C24.1485 20.6618 24.4766 20.4412 24.8401 20.4412H27.9436C28.4312 20.4412 28.8303 20.8382 28.8303 21.3235C28.8303 21.8088 28.4312 22.2059 27.9436 22.2059H25.4386L23.8869 26.0618C23.5766 26.8382 22.4549 26.7897 22.2155 25.9868L20.2869 19.5853Z" fill="#747DA1"/>
</svg>
