<svg width="35" height="35" viewBox="0 0 35 35" fill="none" xmlns="http://www.w3.org/2000/svg">
<path d="M25.2778 15.5556H20.825L22.0306 5.91111C22.063 5.63241 21.9139 5.36019 21.6546 5.24352C21.3954 5.12685 21.0907 5.19167 20.9028 5.39907L9.23611 18.362C9.06759 18.55 9.02222 18.8222 9.12593 19.062C9.23611 19.2954 9.46944 19.4444 9.72222 19.4444H14.175L12.9694 29.0889C12.937 29.3676 13.0861 29.6398 13.3454 29.7565C13.4296 29.7954 13.5204 29.8148 13.6111 29.8148C13.7926 29.8148 13.9676 29.737 14.0907 29.6009L25.7574 16.638C25.9259 16.45 25.9713 16.1778 25.8676 15.938C25.7639 15.7046 25.5306 15.5556 25.2778 15.5556ZM14.512 27.1963L15.5491 18.8741C15.575 18.6926 15.5167 18.5046 15.3935 18.362C15.2639 18.2259 15.0954 18.1481 14.9074 18.1481H11.1806L20.4944 7.8037L19.4574 16.1259C19.4315 16.3074 19.4898 16.4954 19.613 16.638C19.7296 16.7741 19.9046 16.8519 20.0926 16.8519H23.8194L14.512 27.1963ZM35 17.5C35 7.84907 27.1509 0 17.5 0C7.84907 0 0 7.84907 0 17.5C0 27.1509 7.84907 35 17.5 35C27.1509 35 35 27.1509 35 17.5ZM17.5 33.7037C8.56204 33.7037 1.2963 26.438 1.2963 17.5C1.2963 8.56204 8.56204 1.2963 17.5 1.2963C26.438 1.2963 33.7037 8.56204 33.7037 17.5C33.7037 26.438 26.438 33.7037 17.5 33.7037Z" fill="white"/>
</svg>
