<svg width="41" height="40" viewBox="0 0 41 40" fill="none" xmlns="http://www.w3.org/2000/svg">
<path d="M20.0439 0.5C25.2653 0.500056 30.1718 2.52741 33.8643 6.21191C37.556 9.89571 39.5878 14.791 39.5879 20C39.5879 20.1994 39.5835 20.3988 39.5771 20.5977C39.4899 20.5671 39.4041 20.5323 39.3174 20.5C39.322 20.3345 39.3252 20.1677 39.3252 20C39.325 9.38889 30.6754 0.758906 20.0439 0.758789C9.41226 0.758789 0.761719 9.38866 0.761719 20C0.761891 30.6112 9.41298 39.2412 20.0439 39.2412C23.578 39.2412 26.8927 38.2838 29.7441 36.6201C29.8145 36.685 29.886 36.7485 29.958 36.8115C26.9863 38.5638 23.5884 39.5 20.043 39.5C14.8216 39.5 9.91551 37.472 6.22363 33.7881C2.53183 30.1042 0.5 25.2097 0.5 20C0.500082 14.7904 2.53191 9.8957 6.22363 6.21191C9.91553 2.52801 14.8225 0.5 20.0439 0.5Z" fill="white" stroke="white"/>
</svg>
