<svg width="44" height="21" viewBox="0 0 44 21" fill="none" xmlns="http://www.w3.org/2000/svg">
<path d="M23.2576 16.0255C23.2576 15.3065 22.6958 14.7222 22.0042 14.7222C21.3126 14.7222 20.7507 15.3065 20.7507 16.0255V17.8231C20.7507 18.5421 21.3126 19.1263 22.0042 19.1263C22.6958 19.1263 23.2576 18.5421 23.2576 17.8231V16.0255Z" fill="#4064DF"/>
<path d="M23.2576 7.40606C23.2576 6.68703 22.6958 6.10282 22.0042 6.10282C21.3126 6.10282 20.7507 6.68703 20.7507 7.40606V11.7113C20.7507 12.4348 21.3126 13.0235 22.0042 13.0235C22.6958 13.0235 23.2576 12.4393 23.2576 11.7203V7.40606Z" fill="#4064DF"/>
<path d="M23.2576 1.30325C23.2576 0.584213 22.6958 0 22.0042 0C21.3126 0 20.7507 0.584213 20.7507 1.30325V3.10082C20.7507 3.81986 21.3126 4.40407 22.0042 4.40407C22.6958 4.40407 23.2576 3.81986 23.2576 3.10082V1.30325Z" fill="#4064DF"/>
<path d="M26.6498 17.4257C26.374 17.9893 26.1164 18.5636 25.8839 19.1343C25.7525 19.4462 25.7473 19.7931 25.8683 20.1131C25.9919 20.4403 26.2314 20.6964 26.5417 20.8366C26.7017 20.9076 26.8633 20.9427 27.0353 20.9427C27.5384 20.9427 27.9897 20.6326 28.1868 20.1526C28.4228 19.5963 28.6562 19.0777 28.8818 18.6085C29.1947 17.9659 28.9492 17.1803 28.3337 16.8568C27.7165 16.5314 26.961 16.7876 26.6498 17.4266V17.4257Z" fill="#4064DF"/>
<path d="M33.9907 9.38695C33.3735 9.70332 33.1211 10.4853 33.4271 11.1297C33.6302 11.5764 34.0694 11.8631 34.5474 11.8631C34.7471 11.8631 34.933 11.8173 35.1015 11.7256C35.9859 11.2699 36.9471 10.9248 37.9611 10.6974C38.6328 10.5428 39.0659 9.84803 38.925 9.14877C38.7953 8.54029 38.2706 8.11965 37.6923 8.11965C37.6076 8.11965 37.522 8.12864 37.4364 8.14751C36.2305 8.41266 35.0721 8.8288 33.9924 9.38605L33.9907 9.38695Z" fill="#4064DF"/>
<path d="M30.9495 11.4893C30.054 12.3018 29.2345 13.2347 28.5144 14.262C28.1029 14.8435 28.2179 15.6659 28.772 16.0965C28.9916 16.2618 29.2492 16.349 29.5163 16.349C29.9174 16.349 30.2865 16.1558 30.5277 15.8187C31.151 14.9397 31.8468 14.1461 32.5946 13.4612C32.8487 13.232 33.0018 12.9147 33.0251 12.5678C33.0484 12.2209 32.9404 11.8838 32.7199 11.6196C32.2678 11.0758 31.4734 11.0174 30.9495 11.4893Z" fill="#4064DF"/>
<path d="M42.7511 10.426C43.4029 10.426 43.9501 9.89664 43.9959 9.22075C44.0227 8.87292 43.9181 8.53767 43.7028 8.27702C43.4867 8.01548 43.1816 7.85549 42.8444 7.82853C42.2894 7.77999 41.6912 7.75663 41.0144 7.75663C40.3289 7.76471 39.7696 8.35342 39.7696 9.06886C39.7773 9.7816 40.3392 10.3631 41.023 10.3631C41.5944 10.3631 42.1373 10.3847 42.6447 10.426H42.7519H42.7511Z" fill="#4064DF"/>
<path d="M16.6212 16.7688C16.3022 16.6609 15.9634 16.6888 15.6669 16.847C15.0531 17.1777 14.8067 17.9678 15.1179 18.6068C15.3557 19.0841 15.5899 19.6045 15.8138 20.1527C16.0101 20.6327 16.4622 20.9428 16.9653 20.9428C17.1399 20.9428 17.3102 20.9068 17.4563 20.8376C18.0943 20.5509 18.3899 19.7833 18.1167 19.1263C17.8833 18.5556 17.6257 17.9803 17.3508 17.4168C17.1995 17.1067 16.9411 16.8766 16.6212 16.7688Z" fill="#4064DF"/>
<path d="M13.0666 11.5073C12.8358 11.2996 12.5462 11.1873 12.2445 11.1873C12.2151 11.1873 12.1849 11.1882 12.1546 11.1909C11.8201 11.2152 11.5158 11.3742 11.2962 11.6376C11.0732 11.8973 10.9625 12.229 10.9833 12.5741C11.0049 12.922 11.157 13.2401 11.412 13.4702C12.1451 14.1335 12.8401 14.9272 13.4798 15.8286C13.7149 16.1603 14.0927 16.358 14.4904 16.358C14.7583 16.358 15.0159 16.2709 15.2355 16.1055C15.7879 15.6768 15.9072 14.858 15.5009 14.2809C14.7393 13.2159 13.9198 12.2829 13.0649 11.5073H13.0666Z" fill="#4064DF"/>
<path d="M6.0481 10.6984C7.06124 10.9258 8.02252 11.2709 8.90512 11.7248C9.09012 11.8165 9.2777 11.8632 9.46183 11.8632C9.93815 11.8632 10.3773 11.5792 10.5813 11.1397C10.8882 10.4943 10.6349 9.71239 10.0185 9.39602C8.93884 8.83877 7.78047 8.42263 6.57369 8.15749C5.90115 8.01098 5.23293 8.46128 5.08424 9.16054C4.94333 9.8535 5.37556 10.5438 6.0481 10.6984Z" fill="#4064DF"/>
<path d="M4.23966 9.06706C4.24744 8.35252 3.68813 7.76471 2.99311 7.75663C2.31711 7.75663 1.71891 7.77999 1.16393 7.82763C0.465451 7.88515 -0.0437126 8.50082 0.00296794 9.22974C0.0574285 9.89934 0.608086 10.4251 1.25643 10.4251H1.36362C1.87105 10.3838 2.41393 10.3622 2.97669 10.3622C3.66825 10.3622 4.23101 9.7807 4.23879 9.06616L4.23966 9.06706Z" fill="#4064DF"/>
</svg>
