<svg width="37" height="7" viewBox="0 0 37 7" fill="none" xmlns="http://www.w3.org/2000/svg">
<path d="M1.09316 4.05531C1.37336 4.03808 1.63567 3.91369 1.81254 3.71274C2.80218 2.60275 4.04818 1.99034 5.32597 1.99034C6.60376 1.99034 7.94912 2.64102 8.95268 3.81991C10.3199 5.44089 12.1601 6.33462 14.1294 6.33462C16.0988 6.33462 17.8376 5.47725 19.2009 3.92326C20.2004 2.79987 21.4484 2.18171 22.7143 2.18171C23.9802 2.18171 25.3196 2.8324 26.3211 4.01129C27.6883 5.63227 29.5285 6.526 31.4979 6.526C33.4672 6.526 35.1961 5.66289 36.5594 4.10698C36.7462 3.91369 36.8376 3.65724 36.8217 3.3874C36.8038 3.11755 36.6746 2.86493 36.4779 2.70418C36.2772 2.52428 36.0109 2.43625 35.7307 2.45156C35.4505 2.46878 35.1882 2.59318 35.0093 2.79604C34.0395 3.90603 32.7936 4.51653 31.4979 4.51653C30.1187 4.51653 28.8787 3.90412 27.9109 2.74437C26.5179 1.09851 24.6717 0.191378 22.7143 0.191378C20.7569 0.191378 19.02 1.05449 17.6409 2.6238C16.6711 3.73379 15.4251 4.34429 14.1294 4.34429C12.7503 4.34429 11.5103 3.73188 10.5445 2.57404C9.15538 0.914789 7.30327 0 5.32398 0C3.3447 0 1.63766 0.855462 0.262494 2.39989C0.0776812 2.59509 -0.0157189 2.84962 0.00216622 3.11947C0.0200513 3.38931 0.149222 3.64193 0.345958 3.80269C0.546669 3.98258 0.812959 4.07253 1.09316 4.05531Z" fill="#747DA1"/>
</svg>
