<svg width="35" height="18" viewBox="0 0 35 18" fill="none" xmlns="http://www.w3.org/2000/svg">
<path d="M32.6261 0H1.39428C0.624637 0 0 0.615819 0 1.3746C0 2.13337 0.624637 2.74919 1.39428 2.74919H32.6261C33.3958 2.74919 34.0204 2.13337 34.0204 1.3746C34.0204 0.615819 33.3958 0 32.6261 0Z" fill="#4064DF"/>
<path d="M21.4719 9.8971C22.2419 9.8971 22.8662 9.28167 22.8662 8.5225C22.8662 7.76333 22.2419 7.1479 21.4719 7.1479C20.7019 7.1479 20.0776 7.76333 20.0776 8.5225C20.0776 9.28167 20.7019 9.8971 21.4719 9.8971Z" fill="#4064DF"/>
<path d="M12.5485 9.8971C13.3186 9.8971 13.9428 9.28167 13.9428 8.5225C13.9428 7.76333 13.3186 7.1479 12.5485 7.1479C11.7785 7.1479 11.1542 7.76333 11.1542 8.5225C11.1542 9.28167 11.7785 9.8971 12.5485 9.8971Z" fill="#4064DF"/>
<path d="M25.9336 17.045C26.7036 17.045 27.3279 16.4296 27.3279 15.6704C27.3279 14.9112 26.7036 14.2958 25.9336 14.2958C25.1636 14.2958 24.5393 14.9112 24.5393 15.6704C24.5393 16.4296 25.1636 17.045 25.9336 17.045Z" fill="#4064DF"/>
<path d="M8.08682 17.045C8.85686 17.045 9.4811 16.4296 9.4811 15.6704C9.4811 14.9112 8.85686 14.2958 8.08682 14.2958C7.31678 14.2958 6.69254 14.9112 6.69254 15.6704C6.69254 16.4296 7.31678 17.045 8.08682 17.045Z" fill="#4064DF"/>
<path d="M17.0102 17.045C17.7802 17.045 18.4045 16.4296 18.4045 15.6704C18.4045 14.9112 17.7802 14.2958 17.0102 14.2958C16.2402 14.2958 15.6159 14.9112 15.6159 15.6704C15.6159 16.4296 16.2402 17.045 17.0102 17.045Z" fill="#4064DF"/>
</svg>
