<svg width="12" height="20" viewBox="0 0 12 20" fill="none" xmlns="http://www.w3.org/2000/svg">
<path d="M2.0975 20H9.9025C11.06 20 12 19.0481 12 17.8759V2.12405C12 0.951899 11.06 0 9.9025 0H2.0975C0.94 0 0 0.951899 0 2.12405V17.8759C0 19.0481 0.94 20 2.0975 20ZM1 2.12405C1 1.51139 1.4925 1.01266 2.0975 1.01266H9.9025C10.5075 1.01266 11 1.51139 11 2.12405V17.8759C11 18.4886 10.5075 18.9873 9.9025 18.9873H2.0975C1.4925 18.9873 1 18.4886 1 17.8759V2.12405Z" fill="white"/>
<path d="M4.625 2.78481H7.375C7.65 2.78481 7.875 2.55696 7.875 2.27848C7.875 2 7.65 1.77215 7.375 1.77215H4.625C4.35 1.77215 4.125 2 4.125 2.27848C4.125 2.55696 4.35 2.78481 4.625 2.78481Z" fill="white"/>
<path d="M6 16.5544C5.56 16.5544 5.2025 16.9165 5.2025 17.362C5.2025 17.8076 5.56 18.1696 6 18.1696C6.44 18.1696 6.7975 17.8076 6.7975 17.362C6.7975 16.9165 6.44 16.5544 6 16.5544Z" fill="white"/>
</svg>
