<svg width="24" height="24" viewBox="0 0 24 24" fill="none" xmlns="http://www.w3.org/2000/svg">
<rect width="23.08" height="23.08" rx="4" fill="#4064DF" fill-opacity="0.1"/>
<path d="M15.4042 6.48392C15.4042 7.4197 13.3415 8.46229 10.3819 8.46229C7.42236 8.46229 5.35938 7.4197 5.35938 6.48392C5.35938 5.54815 7.42205 4.50525 10.3819 4.50525C13.3418 4.50525 15.4042 5.54815 15.4042 6.48392Z" fill="white" fill-opacity="0.4"/>
<path d="M15.7178 10.624C15.5651 10.6035 15.409 10.5929 15.2506 10.5929C13.3201 10.5929 11.75 12.163 11.75 14.0932C11.75 14.3271 11.7729 14.5555 11.817 14.7764C12.1357 16.3807 13.554 17.5938 15.2506 17.5938C17.1808 17.5938 18.7509 16.0234 18.7509 14.0932C18.7509 12.3215 17.4279 10.853 15.7178 10.624ZM16.0286 15.9196C15.9037 15.9811 15.7682 16.0246 15.6278 16.0508V16.4015C15.6278 16.6097 15.4588 16.7787 15.2506 16.7787C15.0424 16.7787 14.8734 16.6097 14.8734 16.4015V16.0388C14.4962 15.9591 14.1494 15.7711 13.9337 15.4956C13.8054 15.3314 13.8341 15.0942 13.9982 14.9659C14.1624 14.8374 14.3993 14.8664 14.5279 15.0305C14.7439 15.3066 15.3442 15.4156 15.6951 15.2427C15.8871 15.1482 15.9423 15.0046 15.8801 14.7622C15.8373 14.5948 15.6861 14.5468 15.2234 14.4783C14.7557 14.4089 14.115 14.3138 13.8953 13.6436C13.8051 13.3729 13.8317 13.0744 13.9702 12.8046C14.1229 12.5083 14.4008 12.2738 14.714 12.1772C14.7672 12.1606 14.8203 12.147 14.8734 12.1362V11.7849C14.8734 11.5767 15.0421 11.4077 15.2506 11.4077C15.4591 11.4077 15.6278 11.5767 15.6278 11.7849V12.1697C15.8333 12.2288 16.0416 12.3293 16.254 12.4712C16.4275 12.5867 16.4743 12.8209 16.3587 12.9941C16.2431 13.1677 16.009 13.2144 15.8354 13.0988C15.6758 12.9923 15.5294 12.922 15.3903 12.887C15.2838 12.8601 15.1797 12.8469 15.0704 12.8683C15.0261 12.8743 14.9817 12.8843 14.9371 12.8982C14.8148 12.9359 14.7017 13.0322 14.641 13.1498C14.6093 13.2117 14.5782 13.3065 14.6117 13.4067C14.6796 13.6146 14.8839 13.6653 15.3339 13.7317C15.7992 13.8008 16.4363 13.8949 16.611 14.5748C16.7619 15.1627 16.5443 15.6655 16.0286 15.9196Z" fill="white"/>
<path d="M10.9899 15.2543C10.7738 15.2655 10.555 15.2711 10.3368 15.2711C8.85353 15.2711 7.45298 15.0161 6.39327 14.5533C5.98112 14.3733 5.63475 14.1674 5.35938 13.9413V15.6412C5.35938 16.5648 7.4035 17.5939 10.3368 17.5939C11.0396 17.5939 11.7256 17.533 12.3603 17.4151C11.7109 16.8563 11.2259 16.1074 10.9899 15.2543Z" fill="white" fill-opacity="0.4"/>
<path d="M11.1427 12.192C10.8406 12.2153 10.5333 12.2268 10.2236 12.2268C8.77413 12.2268 7.4054 11.9721 6.36977 11.5094C5.967 11.3293 5.62849 11.1234 5.35938 10.8973V12.5969C5.35938 13.5206 7.35704 14.55 10.2236 14.55C10.3909 14.55 10.5582 14.5463 10.7243 14.5388C10.7123 14.4041 10.706 14.2679 10.706 14.1301C10.706 13.4348 10.8631 12.7767 11.1427 12.192Z" fill="white" fill-opacity="0.4"/>
<path d="M14.3609 8.46543C13.2919 8.92851 11.8786 9.18321 10.3819 9.18321C8.88524 9.18321 7.47198 8.92851 6.40265 8.46543C5.98677 8.28537 5.63725 8.07949 5.35938 7.85339V9.5533C5.35938 10.477 7.42205 11.506 10.3819 11.506C10.889 11.506 11.388 11.4749 11.8681 11.4137C12.6707 10.4306 13.8898 9.80209 15.2528 9.80209C15.3034 9.80209 15.3539 9.80303 15.4042 9.80458V7.85339C15.1263 8.07949 14.7768 8.28537 14.3609 8.46543Z" fill="white" fill-opacity="0.4"/>
</svg>
