<svg width="510" height="60" viewBox="0 0 510 60" fill="none" xmlns="http://www.w3.org/2000/svg">
<rect width="510" height="60" rx="30" fill="#4064DF" fill-opacity="0.1"/>
<rect width="60" height="10" rx="5" transform="matrix(-1 0 0 1 90 25)" fill="#4064DF"/>
<rect width="10" height="10" rx="5" transform="matrix(-1 0 0 1 120 25)" fill="white" fill-opacity="0.8"/>
<rect width="10" height="10" rx="5" transform="matrix(-1 0 0 1 150 25)" fill="white" fill-opacity="0.8"/>
<rect width="10" height="10" rx="5" transform="matrix(-1 0 0 1 180 25)" fill="white" fill-opacity="0.8"/>
<rect width="10" height="10" rx="5" transform="matrix(-1 0 0 1 210 25)" fill="white" fill-opacity="0.8"/>
<rect width="10" height="10" rx="5" transform="matrix(-1 0 0 1 240 25)" fill="white" fill-opacity="0.8"/>
<rect width="10" height="10" rx="5" transform="matrix(-1 0 0 1 270 25)" fill="white" fill-opacity="0.8"/>
<rect width="10" height="10" rx="5" transform="matrix(-1 0 0 1 300 25)" fill="white" fill-opacity="0.8"/>
<rect width="10" height="10" rx="5" transform="matrix(-1 0 0 1 330 25)" fill="white" fill-opacity="0.8"/>
<rect width="10" height="10" rx="5" transform="matrix(-1 0 0 1 360 25)" fill="white" fill-opacity="0.8"/>
<rect width="10" height="10" rx="5" transform="matrix(-1 0 0 1 390 25)" fill="white" fill-opacity="0.8"/>
<rect width="10" height="10" rx="5" transform="matrix(-1 0 0 1 420 25)" fill="white" fill-opacity="0.8"/>
<rect width="10" height="10" rx="5" transform="matrix(-1 0 0 1 450 25)" fill="white" fill-opacity="0.8"/>
<rect width="10" height="10" rx="5" transform="matrix(-1 0 0 1 480 25)" fill="white" fill-opacity="0.8"/>
</svg>
