<svg width="28" height="28" viewBox="0 0 28 28" fill="none" xmlns="http://www.w3.org/2000/svg">
<path d="M10.2765 5.07199C9.31993 5.11712 8.66654 5.27031 8.09567 5.49398C7.50467 5.7243 7.00375 6.0332 6.50534 6.53358C6.0064 7.03432 5.70002 7.53614 5.47132 8.12769C5.24998 8.69999 5.09985 9.35374 5.05778 10.3108C5.0157 11.2699 5.00617 11.5757 5.01085 14.017C5.01552 16.458 5.02631 16.7644 5.07198 17.7236C5.11765 18.68 5.2703 19.333 5.49397 19.9042C5.72465 20.4952 6.03319 20.996 6.53375 21.4945C7.03413 21.9931 7.53632 22.2993 8.12822 22.5282C8.69998 22.7494 9.35391 22.8999 10.3108 22.9417C11.2697 22.984 11.5759 22.9933 14.0165 22.9887C16.4582 22.984 16.7644 22.9732 17.7232 22.9277C18.6798 22.8821 19.3324 22.7289 19.904 22.5057C20.495 22.2745 20.9959 21.9665 21.4943 21.4659C21.9928 20.9656 22.2991 20.4634 22.5278 19.8715C22.7492 19.2997 22.8998 18.6458 22.9414 17.6894C22.9833 16.73 22.9932 16.4235 22.9885 13.9827C22.9838 11.5415 22.9728 11.2357 22.9274 10.277C22.8819 9.31994 22.7287 8.66708 22.5054 8.09568C22.2743 7.50468 21.9661 7.0043 21.4658 6.50535C20.9654 6.00695 20.4632 5.70003 19.8713 5.47186C19.2992 5.25053 18.6456 5.09968 17.6887 5.05832C16.73 5.01553 16.424 5.00618 13.9825 5.01086C11.5415 5.01553 11.2355 5.02596 10.2766 5.07199M10.3815 21.3237C9.50494 21.2856 9.02901 21.14 8.71185 21.0179C8.29183 20.8553 7.99211 20.6604 7.67656 20.3474C7.36173 20.0331 7.16629 19.7343 7.00231 19.3152C6.87915 18.998 6.73081 18.5226 6.68982 17.6461C6.64523 16.6986 6.63498 16.4143 6.63066 14.0138C6.62599 11.614 6.6348 11.3296 6.67615 10.3813C6.71373 9.50549 6.86027 9.02884 6.98199 8.71203C7.14453 8.29148 7.33872 7.9923 7.65247 7.67675C7.96676 7.36138 8.26558 7.16648 8.68506 7.0025C9.00204 6.87862 9.47725 6.73154 10.3534 6.69001C11.3015 6.64506 11.5856 6.63553 13.9854 6.63085C16.3857 6.62618 16.6701 6.63463 17.6184 6.67634C18.4942 6.71446 18.9709 6.85956 19.2875 6.98218C19.7079 7.14472 20.0076 7.33836 20.3228 7.65265C20.638 7.96694 20.8334 8.26523 20.9974 8.6856C21.1211 9.00169 21.2683 9.47762 21.3097 10.3534C21.3548 11.3015 21.3651 11.5858 21.3694 13.9857C21.3741 16.3862 21.3653 16.6705 21.3237 17.6182C21.2856 18.4948 21.1401 18.9709 21.0179 19.2884C20.8553 19.708 20.661 20.0078 20.347 20.3233C20.0331 20.6376 19.7343 20.8336 19.3145 20.9976C18.9982 21.1211 18.5223 21.2685 17.6466 21.3101C16.6986 21.3547 16.4145 21.3649 14.0138 21.3692C11.614 21.3739 11.3299 21.3649 10.3816 21.3237M17.7101 9.19426C17.7112 9.78957 18.1954 10.2716 18.7907 10.2705C19.3864 10.2695 19.8684 9.78562 19.8675 9.19012C19.8663 8.5948 19.3822 8.1124 18.7866 8.11348C18.1909 8.11456 17.7088 8.59876 17.7099 9.19408M9.38376 14.0086C9.38861 16.5581 11.4594 18.6204 14.0084 18.6154C16.5576 18.6104 18.621 16.5403 18.6161 13.9908C18.6111 11.4421 16.5401 9.37873 13.9906 9.38359C11.4416 9.38862 9.37872 11.4596 9.38376 14.0086ZM11.003 14.0053C11.0002 12.3506 12.3395 11.0063 13.9938 11.0034C15.6485 11.0002 16.9931 12.339 16.9963 13.994C16.9995 15.6491 15.6602 16.9931 14.0051 16.9963C12.3506 16.9995 11.0061 15.6606 11.003 14.0055" fill="url(#paint0_linear_1400_8353)"/>
<defs>
<linearGradient id="paint0_linear_1400_8353" x1="0.499999" y1="22.9898" x2="-13" y2="22.9898" gradientUnits="userSpaceOnUse">
<stop stop-color="white"/>
<stop offset="1" stop-color="#4064DF"/>
</linearGradient>
</defs>
</svg>
