<svg width="724" height="324" viewBox="0 0 724 324" fill="none" xmlns="http://www.w3.org/2000/svg">
<path d="M721.989 1.80628C721.882 0.706907 720.904 -0.0975835 719.805 0.00940371L701.89 1.75286C700.79 1.85985 699.986 2.8378 700.093 3.93718C700.2 5.03655 701.178 5.84104 702.277 5.73405L718.202 4.18431L719.752 20.1091C719.859 21.2085 720.837 22.013 721.936 21.906C723.035 21.799 723.84 20.821 723.733 19.7216L721.989 1.80628ZM0 321.999V323.999C228.863 323.999 409.237 243.828 532.375 163.676C593.944 123.6 641.216 83.5218 673.103 53.455C689.047 38.4211 701.146 25.8883 709.264 17.1077C713.323 12.7174 716.388 9.26491 718.44 6.90665C719.466 5.72752 720.239 4.82192 720.757 4.2094C721.016 3.90314 721.211 3.67015 721.342 3.51287C721.408 3.43423 721.457 3.37451 721.491 3.33403C721.508 3.31379 721.521 3.29835 721.529 3.28777C721.534 3.28248 721.537 3.27818 721.539 3.27553C721.542 3.27245 721.543 3.27059 719.999 2C718.454 0.729415 718.454 0.729993 718.452 0.731787C718.451 0.734009 718.448 0.737018 718.444 0.741452C718.437 0.750321 718.426 0.764032 718.41 0.782548C718.38 0.819581 718.333 0.875833 718.27 0.950999C718.145 1.10133 717.956 1.32732 717.703 1.62653C717.197 2.22495 716.436 3.11622 715.422 4.28083C713.395 6.61007 710.358 10.0326 706.327 14.3922C698.265 23.1116 686.23 35.5788 670.359 50.5448C638.614 80.4779 591.528 120.4 530.193 160.324C407.521 240.172 227.895 319.999 0 319.999V321.999Z" fill="url(#paint0_linear_1138_5759)"/>
<defs>
<linearGradient id="paint0_linear_1138_5759" x1="-13.0408" y1="336.224" x2="728.61" y2="34.1094" gradientUnits="userSpaceOnUse">
<stop stop-color="#631313"/>
<stop offset="0.485577" stop-color="#C92626"/>
<stop offset="1" stop-color="#EA3030"/>
</linearGradient>
</defs>
</svg>
