<svg width="50" height="50" viewBox="0 0 50 50" fill="none" xmlns="http://www.w3.org/2000/svg">
<path fill-rule="evenodd" clip-rule="evenodd" d="M12.6172 13.3135C15.7383 10.0784 20.1277 8.05469 24.9875 8.05469C32.9541 8.05469 39.6523 13.4845 41.5905 20.8383C41.5905 20.8383 35.5764 20.9381 31.7712 20.4108C27.567 19.8264 25.1585 19.3276 21.1966 17.7885C17.6765 16.4346 12.6172 13.3135 12.6172 13.3135Z" fill="#233572"/>
<path fill-rule="evenodd" clip-rule="evenodd" d="M42.0053 22.8911C41.9483 22.4636 41.877 22.0503 41.7773 21.6227C41.7773 21.6227 33.3404 21.7367 28.0245 20.9244C22.2812 20.0408 18.9178 19.4422 13.6305 17.0195C12.5046 16.4922 11.8776 16.1216 10.7802 15.5801C10.1959 16.4209 9.69708 17.333 9.26953 18.2879C9.26953 18.2879 12.6186 19.4137 14.7849 19.9981C19.4166 21.2237 22.1244 21.5657 26.8702 22.1215C32.7275 22.8199 41.9625 22.8911 41.9625 22.8911" fill="#4064DF"/>
<path fill-rule="evenodd" clip-rule="evenodd" d="M27.0536 24.4862L42.1318 24.5574C42.1318 24.2724 42.1033 23.9874 42.0748 23.7166C42.0748 23.7166 32.1557 23.7878 25.8423 23.232C19.0015 22.6192 14.9826 21.9351 8.45541 20.5527C8.15612 21.6216 7.9566 22.7332 7.87109 23.8876L27.0536 24.5004V24.4862Z" fill="#4064DF"/>
<path fill-rule="evenodd" clip-rule="evenodd" d="M12.6158 36.6866C15.7369 39.9217 20.1264 41.9454 24.9719 41.9454C32.9385 41.9454 39.6367 36.5156 41.5749 29.1618C41.5749 29.1618 35.5608 29.0621 31.7556 29.5894C27.5514 30.1737 25.1429 30.6725 21.181 32.2116C17.6609 33.5655 12.6016 36.6866 12.6016 36.6866H12.6158Z" fill="#233572"/>
<path fill-rule="evenodd" clip-rule="evenodd" d="M26.8975 27.879C22.1375 28.449 19.444 28.7768 14.8122 30.0024C12.6317 30.5867 9.29688 31.7126 9.29688 31.7126C9.71017 32.6675 10.2232 33.5653 10.8075 34.4204C11.9049 33.8788 12.532 33.5083 13.6578 32.981C18.9309 30.5582 22.2943 29.9597 28.0519 29.0761C33.3534 28.2495 41.8046 28.3778 41.8046 28.3778C41.8901 27.9645 41.9614 27.5369 42.0326 27.1094C42.0326 27.1094 32.7834 27.1806 26.9403 27.879" fill="#4064DF"/>
<path fill-rule="evenodd" clip-rule="evenodd" d="M7.87109 26.1249C7.9566 27.265 8.15612 28.3766 8.45541 29.4598C14.9969 28.0774 19.0158 27.3933 25.8423 26.7805C32.1414 26.2247 42.0748 26.2959 42.0748 26.2959C42.1033 26.0109 42.1175 25.7401 42.1318 25.4551L27.0536 25.5121L7.87109 26.1249Z" fill="#4064DF"/>
</svg>
