<svg width="55" height="55" viewBox="0 0 55 55" fill="none" xmlns="http://www.w3.org/2000/svg">
<path d="M14.6622 18.8376C14.2264 18.3094 13.9887 17.6525 13.9887 16.956C13.9887 16.1637 14.2957 15.421 14.857 14.8631C15.4149 14.3052 16.161 13.995 16.9534 13.995C17.6466 13.995 18.3069 14.2326 18.8351 14.6684C24.0843 11.1131 30.9116 11.1131 36.1608 14.6684C36.689 14.2326 37.346 13.995 38.0426 13.995C38.8349 13.995 39.5777 14.3019 40.139 14.8631C41.2251 15.9492 41.2879 17.6756 40.3338 18.8376C43.8927 24.0862 43.8927 30.916 40.3338 36.1614C41.2912 37.3234 41.2251 39.0498 40.139 40.1358C39.581 40.6937 38.8349 41.004 38.0426 41.004C37.3493 41.004 36.689 40.7663 36.1608 40.3306C33.5362 42.1098 30.5187 42.9978 27.498 42.9978C24.4772 42.9978 21.4597 42.1065 18.8351 40.3306C18.3069 40.7663 17.6466 41.004 16.9534 41.004C16.161 41.004 15.4182 40.697 14.857 40.1358C13.7708 39.0498 13.7081 37.3234 14.6655 36.1614C11.1066 30.9127 11.1066 24.0829 14.6655 18.8376H14.6622ZM15.6064 35.1975L19.3039 31.5003C18.0791 28.9915 18.0791 26.0107 19.3039 23.5019L15.6064 19.8048C12.5526 24.4988 12.5526 30.5067 15.6064 35.1975ZM24.0546 30.9359C24.6126 31.4937 24.9229 32.2398 24.9229 33.032C24.9229 33.6229 24.7512 34.1841 24.4343 34.6627C26.3821 35.4913 28.6105 35.4913 30.5551 34.6627C29.7957 33.514 29.9212 31.946 30.9314 30.9359C31.4894 30.378 32.2355 30.0677 33.0278 30.0677C33.6187 30.0677 34.18 30.2393 34.6587 30.5562C35.4873 28.6086 35.4873 26.3804 34.6587 24.4361C34.18 24.753 33.6154 24.9247 33.0278 24.9247C32.2355 24.9247 31.4927 24.6177 30.9314 24.0565C30.3702 23.4953 30.0632 22.7526 30.0632 21.9603C30.0632 21.3728 30.2348 20.8083 30.5518 20.3296C28.6039 19.5011 26.3755 19.5011 24.431 20.3296C25.1903 21.4784 25.0649 23.0464 24.0513 24.0565C23.4934 24.6144 22.7473 24.9247 21.955 24.9247C21.364 24.9247 20.8028 24.753 20.3241 24.4361C19.4954 26.3804 19.4954 28.6119 20.3241 30.5562C20.8061 30.236 21.3673 30.0677 21.9583 30.0677C22.7506 30.0677 23.4934 30.3747 24.0546 30.9359ZM15.788 15.7973C15.4776 16.1076 15.306 16.5202 15.306 16.9593C15.306 17.3983 15.4776 17.8109 15.788 18.1212L20.7995 23.1322C21.1098 23.4425 21.5225 23.6142 21.9616 23.6142C22.4006 23.6142 22.8133 23.4425 23.1236 23.1322C23.7641 22.4918 23.7641 21.452 23.1236 20.8116L18.1121 15.8006C17.8018 15.4903 17.3891 15.3187 16.9501 15.3187C16.511 15.3187 16.0983 15.4903 15.788 15.8006V15.7973ZM19.7959 15.6125L23.4934 19.3096C26.0025 18.0849 28.9836 18.0849 31.4927 19.3096L35.1902 15.6125C30.4956 12.559 24.4871 12.559 19.7959 15.6125ZM39.1981 15.7973C38.8878 15.487 38.4751 15.3154 38.036 15.3154C37.5969 15.3154 37.1842 15.487 36.8739 15.7973L32.0902 20.5805C32.0902 20.5805 32.0803 20.5904 32.0737 20.597L31.8624 20.8083C31.5521 21.1186 31.3804 21.5312 31.3804 21.9702C31.3804 22.4093 31.5521 22.8219 31.8624 23.1322C32.1727 23.4425 32.5854 23.6142 33.0245 23.6142C33.4636 23.6142 33.8763 23.4425 34.1866 23.1322L39.1981 18.1212C39.8386 17.4808 39.8386 16.441 39.1981 15.8006V15.7973ZM39.383 19.8048L35.6854 23.5019C36.9069 26.0107 36.9069 28.9915 35.6854 31.5003L39.383 35.1975C42.4367 30.5034 42.4367 24.4955 39.383 19.8048ZM39.1981 39.2049C39.8386 38.5645 39.8386 37.5214 39.1981 36.881L34.1866 31.87C33.8763 31.5597 33.4636 31.3881 33.0245 31.3881C32.5854 31.3881 32.1727 31.5597 31.8624 31.87C31.2219 32.5104 31.2219 33.5536 31.8624 34.1907L36.8739 39.2016C37.1842 39.5119 37.5969 39.6836 38.036 39.6836C38.4751 39.6836 38.8878 39.5119 39.1981 39.2016V39.2049ZM35.1902 39.3865L31.4927 35.6893C30.2381 36.3 28.8648 36.6103 27.4947 36.6103C26.1246 36.6103 24.7512 36.3033 23.4967 35.6893L19.7992 39.3865C24.4904 42.44 30.4989 42.44 35.1935 39.3865H35.1902ZM15.788 39.2049C16.0983 39.5152 16.511 39.6869 16.9501 39.6869C17.3891 39.6869 17.8018 39.5152 18.1121 39.2049L23.1236 34.194C23.434 33.8837 23.6056 33.471 23.6056 33.032C23.6056 32.593 23.434 32.1803 23.1236 31.87C22.8133 31.5597 22.4006 31.3881 21.9649 31.3881C21.5291 31.3881 21.1131 31.5597 20.8028 31.87L15.7913 36.881C15.1508 37.5214 15.1508 38.5645 15.7913 39.2049H15.788Z" fill="#747DA1"/>
</svg>
