<svg width="60" height="60" viewBox="0 0 60 60" fill="none" xmlns="http://www.w3.org/2000/svg">
<mask id="mask0_4051_19898" style="mask-type:alpha" maskUnits="userSpaceOnUse" x="8" y="8" width="44" height="44">
<rect x="8" y="8" width="43.08" height="43.08" rx="10" fill="#4064DF"/>
</mask>
<g mask="url(#mask0_4051_19898)">
</g>
<g clip-path="url(#clip0_4051_19898)">
<path d="M19.5016 45.2885C18.5839 46.2077 17.0926 46.2077 16.1749 45.2885L14.6453 43.7565C13.7276 42.8373 13.7276 41.3512 14.6453 40.432L24.4344 30.627L29.306 35.5065L19.5016 45.2962V45.2885Z" fill="#4064DF" fill-opacity="0.5"/>
<path d="M45.0602 45.1198C43.9206 46.3072 42.0393 46.3531 40.8539 45.2118C40.8233 45.1811 40.7927 45.1505 40.7621 45.1198L23.6541 27.984C22.7517 28.3747 21.7804 28.5815 20.7939 28.5892C16.5341 28.5279 13.0926 25.0808 13.0391 20.8141C13.0544 19.7417 13.2914 18.6769 13.7427 17.7041L13.9644 17.1832L18.5531 21.7793C19.3943 22.6679 20.8015 22.6985 21.6887 21.8559C21.7116 21.8329 21.7422 21.8023 21.7651 21.7793C22.6523 20.9367 22.6905 19.5349 21.8493 18.6463C21.8187 18.6157 21.7881 18.585 21.7651 18.562L17.1765 13.9659L17.6965 13.7438C18.6678 13.2918 19.7308 13.0544 20.8015 13.0391C25.0613 13.1003 28.5028 16.5474 28.5563 20.8141C28.5487 21.8023 28.3422 22.7751 27.9522 23.679L45.0602 40.8148C46.2456 41.9562 46.2914 43.8406 45.1519 45.0279C45.1213 45.0586 45.0907 45.0892 45.0602 45.1198Z" fill="#4064DF"/>
<path d="M41.7867 21.0291L41.5573 20.9755C41.2896 20.9066 41.0066 20.8759 40.7313 20.8989L33.8483 27.7931L32.0664 26.0082L38.9494 19.1141C38.9723 18.8537 38.9494 18.5932 38.8652 18.3481L38.7964 18.1106L43.7445 13.8516L46.0388 16.1496L41.7867 21.0291Z" fill="#4064DF" fill-opacity="0.5"/>
</g>
<defs>
<clipPath id="clip0_4051_19898">
<rect width="33" height="33" fill="white" transform="translate(13.0391 13.0391)"/>
</clipPath>
</defs>
</svg>
