<svg width="340" height="338" viewBox="0 0 340 338" fill="none" xmlns="http://www.w3.org/2000/svg">
<mask id="path-1-inside-1_2653_16169" fill="white">
<path fill-rule="evenodd" clip-rule="evenodd" d="M47.1161 52.3356C78.1024 20.0833 121.653 0 169.873 0C248.909 0 315.381 53.9525 334.652 127.137C334.652 127.137 274.971 128.073 237.278 122.882C195.511 117.096 171.655 112.075 132.35 96.8422C97.3733 83.3115 47.201 52.3356 47.201 52.3356M338.642 147.561C338.047 143.306 337.368 139.136 336.434 134.966C336.434 134.966 252.644 136.158 200.01 127.988C142.961 119.138 109.683 113.266 57.2185 89.0982C46.0125 83.9072 39.8152 80.1628 28.9488 74.8016C23.176 83.2264 18.1673 92.2468 14.0075 101.693C14.0075 101.693 47.201 112.926 68.7641 118.712C114.692 130.967 141.603 134.286 188.719 139.902C246.787 146.88 338.557 147.561 338.557 147.561M190.332 163.389L340 164.07C339.915 161.262 339.745 158.454 339.491 155.645C339.491 155.645 241.014 156.411 178.447 150.88C110.617 144.838 70.6317 138.03 5.85768 124.244C2.88639 134.881 0.848939 145.944 0 157.347L190.332 163.389ZM47.1161 284.74C78.1024 316.992 121.653 337.075 169.788 337.075C248.824 337.075 315.296 283.123 334.567 209.938C334.567 209.938 274.886 209.002 237.194 214.193C195.426 219.98 171.571 225.001 132.265 240.233C97.2884 253.764 47.1161 284.74 47.1161 284.74ZM188.804 197.173C141.603 202.875 114.777 206.109 68.8489 218.363C47.201 224.15 14.0924 235.383 14.0924 235.383C18.2522 244.829 23.2609 253.849 29.0337 262.274C39.9001 256.827 46.0974 253.168 57.3034 247.977C109.683 223.809 143.046 217.937 200.095 209.087C252.729 200.918 336.519 202.109 336.519 202.109C337.368 197.939 338.132 193.769 338.727 189.514C338.727 189.514 246.956 190.195 188.889 197.173M0 179.728C0.848939 191.131 2.88639 202.194 5.85768 212.832C70.7166 199.046 110.617 192.238 178.447 186.196C241.014 180.664 339.491 181.43 339.491 181.43C339.745 178.622 339.915 175.899 340 173.09L190.332 173.686L0 179.728Z"/>
</mask>
<path fill-rule="evenodd" clip-rule="evenodd" d="M47.1161 52.3356C78.1024 20.0833 121.653 0 169.873 0C248.909 0 315.381 53.9525 334.652 127.137C334.652 127.137 274.971 128.073 237.278 122.882C195.511 117.096 171.655 112.075 132.35 96.8422C97.3733 83.3115 47.201 52.3356 47.201 52.3356M338.642 147.561C338.047 143.306 337.368 139.136 336.434 134.966C336.434 134.966 252.644 136.158 200.01 127.988C142.961 119.138 109.683 113.266 57.2185 89.0982C46.0125 83.9072 39.8152 80.1628 28.9488 74.8016C23.176 83.2264 18.1673 92.2468 14.0075 101.693C14.0075 101.693 47.201 112.926 68.7641 118.712C114.692 130.967 141.603 134.286 188.719 139.902C246.787 146.88 338.557 147.561 338.557 147.561M190.332 163.389L340 164.07C339.915 161.262 339.745 158.454 339.491 155.645C339.491 155.645 241.014 156.411 178.447 150.88C110.617 144.838 70.6317 138.03 5.85768 124.244C2.88639 134.881 0.848939 145.944 0 157.347L190.332 163.389ZM47.1161 284.74C78.1024 316.992 121.653 337.075 169.788 337.075C248.824 337.075 315.296 283.123 334.567 209.938C334.567 209.938 274.886 209.002 237.194 214.193C195.426 219.98 171.571 225.001 132.265 240.233C97.2884 253.764 47.1161 284.74 47.1161 284.74ZM188.804 197.173C141.603 202.875 114.777 206.109 68.8489 218.363C47.201 224.15 14.0924 235.383 14.0924 235.383C18.2522 244.829 23.2609 253.849 29.0337 262.274C39.9001 256.827 46.0974 253.168 57.3034 247.977C109.683 223.809 143.046 217.937 200.095 209.087C252.729 200.918 336.519 202.109 336.519 202.109C337.368 197.939 338.132 193.769 338.727 189.514C338.727 189.514 246.956 190.195 188.889 197.173M0 179.728C0.848939 191.131 2.88639 202.194 5.85768 212.832C70.7166 199.046 110.617 192.238 178.447 186.196C241.014 180.664 339.491 181.43 339.491 181.43C339.745 178.622 339.915 175.899 340 173.09L190.332 173.686L0 179.728Z" fill="#4064DF" fill-opacity="0.06"/>
<path d="M334.652 127.137L334.667 128.137L335.944 128.117L335.619 126.883L334.652 127.137ZM237.278 122.882L237.141 123.873L237.142 123.873L237.278 122.882ZM132.35 96.8422L132.711 95.9097L132.71 95.9095L132.35 96.8422ZM336.434 134.966L337.41 134.748L337.233 133.955L336.42 133.966L336.434 134.966ZM200.01 127.988L200.163 127L200.163 127L200.01 127.988ZM57.2185 89.0982L56.7981 90.0056L56.8001 90.0065L57.2185 89.0982ZM28.9488 74.8016L29.3913 73.9048L28.6139 73.5213L28.1239 74.2364L28.9488 74.8016ZM14.0075 101.693L13.0923 101.29L12.6519 102.29L13.6869 102.64L14.0075 101.693ZM68.7641 118.712L68.5049 119.678L68.5063 119.679L68.7641 118.712ZM188.719 139.902L188.838 138.909L188.837 138.909L188.719 139.902ZM190.332 163.389L190.3 164.389L190.314 164.389L190.328 164.389L190.332 163.389ZM340 164.07L339.995 165.07L341.031 165.075L341 164.04L340 164.07ZM339.491 155.645L340.487 155.555L340.403 154.638L339.483 154.645L339.491 155.645ZM178.447 150.88L178.358 151.876L178.359 151.876L178.447 150.88ZM5.85768 124.244L6.06585 123.266L5.14722 123.07L4.89455 123.975L5.85768 124.244ZM0 157.347L-0.99724 157.273L-1.07471 158.314L-0.0317286 158.347L0 157.347ZM47.1161 284.74L46.5908 283.889L45.537 284.539L46.395 285.433L47.1161 284.74ZM334.567 209.938L335.534 210.193L335.859 208.958L334.582 208.938L334.567 209.938ZM237.194 214.193L237.057 213.202L237.056 213.203L237.194 214.193ZM132.265 240.233L132.625 241.166L132.626 241.166L132.265 240.233ZM68.8489 218.363L68.5911 217.397L68.5907 217.397L68.8489 218.363ZM14.0924 235.383L13.7711 234.436L12.7372 234.786L13.1772 235.786L14.0924 235.383ZM29.0337 262.274L28.2088 262.839L28.7019 263.559L29.4818 263.168L29.0337 262.274ZM57.3034 247.977L56.8844 247.069L56.883 247.07L57.3034 247.977ZM200.095 209.087L200.248 210.075L200.248 210.075L200.095 209.087ZM336.519 202.109L336.505 203.109L337.334 203.121L337.499 202.309L336.519 202.109ZM338.727 189.514L339.717 189.653L339.877 188.506L338.719 188.515L338.727 189.514ZM0 179.728L-0.0317286 178.729L-1.07471 178.762L-0.99724 179.802L0 179.728ZM5.85768 212.832L4.89455 213.101L5.14715 214.005L6.06559 213.81L5.85768 212.832ZM178.447 186.196L178.359 185.2L178.358 185.2L178.447 186.196ZM339.491 181.43L339.483 182.43L340.403 182.437L340.487 181.52L339.491 181.43ZM340 173.09L341 173.121L341.031 172.086L339.996 172.09L340 173.09ZM190.332 173.686L190.328 172.686L190.314 172.686L190.3 172.687L190.332 173.686ZM47.1161 52.3356L47.8372 53.0284C78.643 20.9639 121.937 1 169.873 1V0V-1C121.369 -1 77.5617 19.2026 46.395 51.6428L47.1161 52.3356ZM169.873 0V1C248.442 1 314.526 54.6338 333.685 127.392L334.652 127.137L335.619 126.883C316.235 53.2712 249.376 -1 169.873 -1V0ZM334.652 127.137C334.636 126.137 334.636 126.137 334.635 126.137C334.635 126.137 334.634 126.137 334.633 126.137C334.632 126.137 334.629 126.137 334.625 126.138C334.618 126.138 334.608 126.138 334.593 126.138C334.565 126.138 334.522 126.139 334.465 126.14C334.352 126.141 334.182 126.144 333.96 126.147C333.514 126.152 332.856 126.16 332.005 126.167C330.301 126.183 327.826 126.199 324.737 126.202C318.558 126.209 309.928 126.164 300.121 125.957C280.496 125.542 256.201 124.479 237.415 121.892L237.278 122.882L237.142 123.873C256.049 126.477 280.44 127.541 300.079 127.956C309.904 128.164 318.549 128.209 324.739 128.202C327.834 128.199 330.315 128.183 332.023 128.167C332.877 128.16 333.537 128.152 333.985 128.146C334.208 128.144 334.379 128.141 334.493 128.14C334.551 128.139 334.594 128.138 334.623 128.138C334.638 128.138 334.649 128.137 334.656 128.137C334.66 128.137 334.663 128.137 334.664 128.137C334.665 128.137 334.666 128.137 334.667 128.137C334.667 128.137 334.667 128.137 334.652 127.137ZM237.278 122.882L237.416 121.892C195.7 116.112 171.925 111.107 132.711 95.9097L132.35 96.8422L131.988 97.7746C171.386 113.043 195.321 118.079 237.141 123.873L237.278 122.882ZM132.35 96.8422L132.71 95.9095C115.291 89.1707 94.0541 78.0728 77.1463 68.6416C68.6982 63.9292 61.3416 59.639 56.0972 56.527C53.4752 54.9711 51.3815 53.7099 49.9437 52.838C49.2248 52.402 48.67 52.0634 48.2951 51.8339C48.1077 51.7192 47.9652 51.6317 47.8697 51.573C47.822 51.5437 47.786 51.5215 47.7621 51.5067C47.7501 51.4994 47.7411 51.4938 47.7351 51.4901C47.7321 51.4883 47.7299 51.4869 47.7284 51.486C47.7277 51.4856 47.7272 51.4852 47.7268 51.485C47.7265 51.4848 47.7263 51.4847 47.201 52.3356C46.6757 53.1865 46.6759 53.1867 46.6763 53.1869C46.6767 53.1872 46.6774 53.1876 46.6782 53.188C46.6797 53.189 46.6821 53.1905 46.6852 53.1924C46.6914 53.1962 46.7007 53.2019 46.7129 53.2095C46.7375 53.2246 46.774 53.2471 46.8222 53.2768C46.9188 53.3361 47.0623 53.4242 47.2509 53.5397C47.628 53.7705 48.1853 54.1106 48.9066 54.5481C50.3493 55.423 52.4485 56.6875 55.0766 58.247C60.3326 61.3658 67.705 65.6653 76.172 70.3882C93.0945 79.8276 114.432 90.983 131.989 97.7748L132.35 96.8422ZM338.642 147.561L339.632 147.423C339.036 143.154 338.352 138.955 337.41 134.748L336.434 134.966L335.459 135.185C336.384 139.318 337.059 143.458 337.651 147.699L338.642 147.561ZM336.434 134.966C336.42 133.966 336.42 133.966 336.419 133.966C336.419 133.966 336.418 133.966 336.417 133.966C336.414 133.967 336.41 133.967 336.405 133.967C336.395 133.967 336.38 133.967 336.36 133.967C336.32 133.968 336.26 133.969 336.18 133.97C336.02 133.972 335.783 133.974 335.47 133.978C334.845 133.984 333.92 133.993 332.724 134.002C330.333 134.018 326.857 134.033 322.522 134.025C313.85 134.009 301.74 133.903 287.986 133.541C260.467 132.818 226.414 131.075 200.163 127L200.01 127.988L199.857 128.976C226.24 133.071 260.399 134.817 287.934 135.54C301.707 135.902 313.834 136.009 322.518 136.025C326.86 136.033 330.342 136.018 332.738 136.002C333.937 135.993 334.864 135.984 335.491 135.978C335.805 135.974 336.044 135.971 336.205 135.969C336.285 135.968 336.346 135.968 336.387 135.967C336.407 135.967 336.423 135.967 336.433 135.966C336.438 135.966 336.442 135.966 336.445 135.966C336.446 135.966 336.447 135.966 336.448 135.966C336.448 135.966 336.449 135.966 336.434 134.966ZM200.01 127.988L200.163 127C143.139 118.154 109.972 112.298 57.6369 88.1899L57.2185 89.0982L56.8001 90.0065C109.394 114.234 142.784 120.122 199.857 128.976L200.01 127.988ZM57.2185 89.0982L57.6388 88.1908C46.4195 82.9937 40.3572 79.3152 29.3913 73.9048L28.9488 74.8016L28.5064 75.6984C39.2732 81.0105 45.6054 84.8207 56.7981 90.0056L57.2185 89.0982ZM28.9488 74.8016L28.1239 74.2364C22.3155 82.7131 17.2767 91.7879 13.0923 101.29L14.0075 101.693L14.9227 102.096C19.0579 92.7058 24.0365 83.7397 29.7737 75.3669L28.9488 74.8016ZM14.0075 101.693C13.6869 102.64 13.6871 102.64 13.6874 102.64C13.6876 102.64 13.688 102.64 13.6885 102.641C13.6896 102.641 13.6911 102.641 13.6931 102.642C13.6972 102.643 13.7033 102.646 13.7114 102.648C13.7275 102.654 13.7516 102.662 13.7834 102.673C13.8471 102.694 13.9418 102.726 14.0662 102.768C14.3151 102.852 14.6826 102.975 15.158 103.135C16.1087 103.454 17.4906 103.915 19.2162 104.488C22.6672 105.632 27.4933 107.218 32.9938 108.985C43.9903 112.517 57.6987 116.778 68.5049 119.678L68.7641 118.712L69.0232 117.747C58.2664 114.86 44.5964 110.611 33.6055 107.081C28.1122 105.316 23.2922 103.732 19.8456 102.589C18.1224 102.018 16.7426 101.557 15.7938 101.239C15.3194 101.08 14.9528 100.956 14.7048 100.873C14.5809 100.831 14.4866 100.799 14.4233 100.778C14.3917 100.767 14.3678 100.759 14.3519 100.754C14.3439 100.751 14.3379 100.749 14.3339 100.748C14.332 100.747 14.3305 100.746 14.3295 100.746C14.329 100.746 14.3286 100.746 14.3284 100.746C14.3282 100.746 14.328 100.746 14.0075 101.693ZM68.7641 118.712L68.5063 119.679C114.506 131.952 141.475 135.277 188.601 140.895L188.719 139.902L188.837 138.909C141.731 133.294 114.878 129.981 69.0218 117.746L68.7641 118.712ZM188.719 139.902L188.6 140.895C217.678 144.389 255.173 146.305 285.379 147.348C300.486 147.869 313.777 148.172 323.292 148.345C328.05 148.432 331.863 148.486 334.488 148.518C335.8 148.534 336.815 148.545 337.502 148.552C337.846 148.555 338.107 148.557 338.283 148.559C338.371 148.559 338.438 148.56 338.482 148.56C338.504 148.561 338.521 148.561 338.532 148.561C338.538 148.561 338.542 148.561 338.545 148.561C338.546 148.561 338.548 148.561 338.548 148.561C338.549 148.561 338.549 148.561 338.557 147.561C338.564 146.561 338.564 146.561 338.563 146.561C338.563 146.561 338.562 146.561 338.56 146.561C338.557 146.561 338.553 146.561 338.548 146.561C338.537 146.561 338.52 146.561 338.498 146.56C338.454 146.56 338.388 146.56 338.3 146.559C338.125 146.557 337.865 146.555 337.522 146.552C336.836 146.545 335.823 146.534 334.512 146.518C331.891 146.486 328.082 146.432 323.329 146.346C313.822 146.173 300.542 145.87 285.448 145.349C255.252 144.307 217.828 142.393 188.838 138.909L188.719 139.902ZM190.332 163.389L190.328 164.389L339.995 165.07L340 164.07L340.005 163.07L190.337 162.389L190.332 163.389ZM340 164.07L341 164.04C340.914 161.211 340.743 158.383 340.487 155.555L339.491 155.645L338.495 155.736C338.748 158.524 338.916 161.312 339 164.1L340 164.07ZM339.491 155.645C339.483 154.645 339.483 154.645 339.482 154.645C339.481 154.645 339.48 154.645 339.479 154.645C339.476 154.645 339.471 154.645 339.465 154.645C339.453 154.646 339.435 154.646 339.412 154.646C339.364 154.646 339.293 154.647 339.199 154.647C339.012 154.649 338.732 154.65 338.364 154.653C337.628 154.657 336.54 154.662 335.133 154.667C332.32 154.678 328.231 154.686 323.127 154.679C312.921 154.664 298.661 154.587 282.447 154.337C250.011 153.837 209.78 152.646 178.535 149.884L178.447 150.88L178.359 151.876C209.68 154.645 249.971 155.837 282.416 156.337C298.642 156.587 312.911 156.664 323.125 156.679C328.231 156.686 332.324 156.678 335.141 156.667C336.549 156.662 337.638 156.657 338.375 156.653C338.744 156.65 339.024 156.649 339.213 156.647C339.307 156.647 339.379 156.646 339.426 156.646C339.45 156.646 339.468 156.645 339.48 156.645C339.486 156.645 339.491 156.645 339.494 156.645C339.495 156.645 339.496 156.645 339.497 156.645C339.498 156.645 339.498 156.645 339.491 155.645ZM178.447 150.88L178.536 149.884C110.754 143.846 70.8098 137.045 6.06585 123.266L5.85768 124.244L5.64951 125.222C70.4536 139.014 110.479 145.829 178.358 151.876L178.447 150.88ZM5.85768 124.244L4.89455 123.975C1.90678 134.671 -0.143049 145.799 -0.99724 157.273L0 157.347L0.99724 157.421C1.84093 146.089 3.866 135.091 6.82081 124.513L5.85768 124.244ZM0 157.347L-0.0317286 158.347L190.3 164.389L190.332 163.389L190.364 162.39L0.0317286 156.348L0 157.347ZM47.1161 284.74L46.395 285.433C77.5615 317.873 121.369 338.075 169.788 338.075V337.075V336.075C121.937 336.075 78.6432 316.112 47.8372 284.047L47.1161 284.74ZM169.788 337.075V338.075C249.291 338.075 316.151 283.804 335.534 210.193L334.567 209.938L333.6 209.684C314.441 282.442 248.357 336.075 169.788 336.075V337.075ZM334.567 209.938C334.582 208.938 334.582 208.938 334.582 208.938C334.581 208.938 334.581 208.938 334.58 208.938C334.578 208.938 334.575 208.938 334.571 208.938C334.564 208.938 334.553 208.938 334.538 208.938C334.509 208.937 334.466 208.937 334.409 208.936C334.294 208.934 334.124 208.932 333.9 208.929C333.452 208.923 332.792 208.916 331.938 208.908C330.23 208.893 327.749 208.876 324.654 208.873C318.464 208.866 309.819 208.912 299.994 209.119C280.355 209.534 255.964 210.599 237.057 213.202L237.194 214.193L237.33 215.184C256.116 212.597 280.411 211.533 300.036 211.119C309.843 210.912 318.473 210.866 324.652 210.873C327.741 210.876 330.217 210.893 331.92 210.908C332.771 210.916 333.43 210.923 333.875 210.929C334.097 210.932 334.267 210.934 334.38 210.936C334.437 210.936 334.48 210.937 334.508 210.937C334.523 210.938 334.533 210.938 334.541 210.938C334.544 210.938 334.547 210.938 334.549 210.938C334.549 210.938 334.55 210.938 334.551 210.938C334.551 210.938 334.551 210.938 334.567 209.938ZM237.194 214.193L237.056 213.203C195.236 218.997 171.301 224.033 131.903 239.301L132.265 240.233L132.626 241.166C171.84 225.969 195.615 220.963 237.331 215.184L237.194 214.193ZM132.265 240.233L131.904 239.301C114.347 246.092 93.0096 257.248 76.0871 266.687C67.6201 271.41 60.2477 275.71 54.9917 278.828C52.3636 280.388 50.2644 281.652 48.8217 282.527C48.1004 282.965 47.5431 283.305 47.166 283.536C46.9774 283.651 46.8339 283.739 46.7374 283.799C46.6891 283.828 46.6526 283.851 46.6281 283.866C46.6158 283.873 46.6065 283.879 46.6003 283.883C46.5972 283.885 46.5949 283.886 46.5933 283.887C46.5925 283.888 46.5918 283.888 46.5914 283.888C46.591 283.889 46.5908 283.889 47.1161 284.74C47.6414 285.591 47.6416 285.591 47.6419 285.59C47.6423 285.59 47.6428 285.59 47.6435 285.589C47.645 285.588 47.6472 285.587 47.6502 285.585C47.6562 285.582 47.6652 285.576 47.6772 285.569C47.7011 285.554 47.7371 285.532 47.7849 285.502C47.8803 285.444 48.0228 285.356 48.2102 285.241C48.5851 285.012 49.1399 284.673 49.8588 284.237C51.2966 283.365 53.3903 282.104 56.0123 280.548C61.2567 277.436 68.6133 273.146 77.0614 268.434C93.9692 259.003 115.206 247.905 132.625 241.166L132.265 240.233ZM188.804 197.173L188.684 196.181C141.477 201.883 114.591 205.123 68.5911 217.397L68.8489 218.363L69.1067 219.329C114.962 207.094 141.729 203.867 188.924 198.166L188.804 197.173ZM68.8489 218.363L68.5907 217.397C57.7414 220.297 44.0327 224.558 33.0466 228.091C27.5513 229.858 22.7331 231.444 19.2886 232.588C17.5663 233.16 16.1873 233.622 15.2387 233.941C14.7644 234.1 14.3977 234.224 14.1495 234.308C14.0254 234.35 13.9309 234.382 13.8674 234.403C13.8356 234.414 13.8116 234.422 13.7955 234.427C13.7874 234.43 13.7814 234.432 13.7773 234.434C13.7753 234.434 13.7737 234.435 13.7727 234.435C13.7722 234.435 13.7718 234.435 13.7715 234.436C13.7712 234.436 13.7711 234.436 14.0924 235.383C14.4137 236.33 14.4138 236.33 14.414 236.329C14.4143 236.329 14.4146 236.329 14.4151 236.329C14.4161 236.329 14.4176 236.328 14.4196 236.328C14.4235 236.326 14.4295 236.324 14.4374 236.322C14.4533 236.316 14.4771 236.308 14.5087 236.297C14.5718 236.276 14.6658 236.244 14.7895 236.202C15.0368 236.119 15.4026 235.996 15.8759 235.837C16.8225 235.518 18.1992 235.057 19.9191 234.486C23.359 233.343 28.1709 231.759 33.6588 229.995C44.639 226.464 58.3085 222.216 69.1072 219.329L68.8489 218.363ZM14.0924 235.383L13.1772 235.786C17.3616 245.287 22.4004 254.362 28.2088 262.839L29.0337 262.274L29.8586 261.709C24.1214 253.336 19.1428 244.37 15.0076 234.98L14.0924 235.383ZM29.0337 262.274L29.4818 263.168C40.4134 257.689 46.5267 254.071 57.7237 248.885L57.3034 247.977L56.883 247.07C45.668 252.265 39.3869 255.966 28.5856 261.38L29.0337 262.274ZM57.3034 247.977L57.7223 248.885C109.972 224.777 143.223 218.922 200.248 210.075L200.095 209.087L199.942 208.099C142.869 216.953 109.394 222.841 56.8844 247.069L57.3034 247.977ZM200.095 209.087L200.248 210.075C226.499 206.001 260.552 204.257 288.071 203.534C301.825 203.173 313.935 203.067 322.607 203.051C326.942 203.043 330.418 203.057 332.809 203.074C334.005 203.082 334.929 203.091 335.555 203.098C335.867 203.101 336.105 203.104 336.265 203.106C336.345 203.107 336.405 203.108 336.445 203.108C336.465 203.108 336.48 203.109 336.49 203.109C336.495 203.109 336.499 203.109 336.502 203.109C336.503 203.109 336.504 203.109 336.504 203.109C336.505 203.109 336.505 203.109 336.519 202.109C336.534 201.109 336.533 201.109 336.533 201.109C336.532 201.109 336.531 201.109 336.53 201.109C336.527 201.109 336.523 201.109 336.518 201.109C336.508 201.109 336.492 201.109 336.472 201.108C336.431 201.108 336.37 201.107 336.29 201.106C336.129 201.104 335.89 201.101 335.576 201.098C334.948 201.091 334.021 201.082 332.823 201.074C330.427 201.057 326.945 201.043 322.603 201.051C313.919 201.067 301.792 201.173 288.019 201.535C260.484 202.258 226.325 204.004 199.942 208.099L200.095 209.087ZM336.519 202.109L337.499 202.309C338.351 198.126 339.119 193.935 339.717 189.653L338.727 189.514L337.736 189.376C337.146 193.604 336.386 197.752 335.539 201.91L336.519 202.109ZM338.727 189.514C338.719 188.515 338.719 188.515 338.718 188.515C338.717 188.515 338.716 188.515 338.715 188.515C338.712 188.515 338.708 188.515 338.702 188.515C338.691 188.515 338.674 188.515 338.652 188.515C338.607 188.515 338.541 188.516 338.453 188.517C338.277 188.518 338.016 188.521 337.672 188.524C336.985 188.531 335.97 188.541 334.658 188.557C332.033 188.59 328.22 188.644 323.462 188.73C313.947 188.903 300.656 189.206 285.549 189.728C255.342 190.77 217.848 192.686 188.77 196.181L188.889 197.173L189.008 198.166C217.998 194.683 255.422 192.769 285.618 191.727C300.711 191.206 313.992 190.903 323.498 190.73C328.252 190.643 332.061 190.59 334.682 190.557C335.993 190.541 337.006 190.53 337.692 190.524C338.034 190.52 338.295 190.518 338.47 190.517C338.558 190.516 338.624 190.515 338.668 190.515C338.69 190.515 338.707 190.515 338.718 190.515C338.723 190.515 338.727 190.515 338.73 190.515C338.731 190.514 338.732 190.514 338.733 190.514C338.734 190.514 338.734 190.514 338.727 189.514ZM0 179.728L-0.99724 179.802C-0.143049 191.276 1.90678 202.404 4.89455 213.101L5.85768 212.832L6.82081 212.562C3.866 201.984 1.84093 190.987 0.99724 179.654L0 179.728ZM5.85768 212.832L6.06559 213.81C70.8948 200.03 110.754 193.229 178.536 187.192L178.447 186.196L178.358 185.2C110.479 191.246 70.5384 198.061 5.64977 211.853L5.85768 212.832ZM178.447 186.196L178.535 187.192C209.78 184.429 250.011 183.238 282.447 182.738C298.661 182.489 312.921 182.412 323.127 182.397C328.231 182.39 332.32 182.398 335.133 182.408C336.54 182.413 337.628 182.419 338.364 182.423C338.732 182.425 339.012 182.427 339.199 182.428C339.293 182.429 339.364 182.429 339.412 182.43C339.435 182.43 339.453 182.43 339.465 182.43C339.471 182.43 339.476 182.43 339.479 182.43C339.48 182.43 339.481 182.43 339.482 182.43C339.483 182.43 339.483 182.43 339.491 181.43C339.498 180.43 339.498 180.43 339.497 180.43C339.496 180.43 339.495 180.43 339.494 180.43C339.491 180.43 339.486 180.43 339.48 180.43C339.468 180.43 339.45 180.43 339.426 180.43C339.379 180.429 339.307 180.429 339.213 180.428C339.024 180.427 338.744 180.425 338.375 180.423C337.638 180.419 336.549 180.413 335.141 180.408C332.324 180.398 328.231 180.39 323.125 180.397C312.911 180.412 298.642 180.489 282.416 180.739C249.971 181.239 209.68 182.43 178.359 185.2L178.447 186.196ZM339.491 181.43L340.487 181.52C340.743 178.694 340.914 175.95 341 173.121L340 173.09L339 173.06C338.916 175.847 338.748 178.55 338.495 181.34L339.491 181.43ZM340 173.09L339.996 172.09L190.328 172.686L190.332 173.686L190.336 174.686L340.004 174.09L340 173.09ZM190.332 173.686L190.3 172.687L-0.0317286 178.729L0 179.728L0.0317286 180.728L190.364 174.686L190.332 173.686Z" fill="#4064DF" fill-opacity="0.8" mask="url(#path-1-inside-1_2653_16169)"/>
</svg>
