<svg width="301" height="301" viewBox="0 0 301 301" fill="none" xmlns="http://www.w3.org/2000/svg">
<path d="M44.8379 255.915C109.867 211.044 191.726 187.943 293.716 190.859C276.003 253.446 218.41 299.34 150.084 299.34C109.015 299.34 71.835 282.739 44.8379 255.915ZM13.7812 210.962C97.1226 183.124 190.94 168.526 297.929 170.587C297.5 173.747 296.972 176.884 296.346 179.982C180.879 175.676 96.6169 197.729 23.5234 229.217C19.8746 223.391 16.6129 217.298 13.7812 210.962ZM299.208 156.955C299.142 158.388 299.059 159.81 298.952 161.24C178.569 160.104 84.1776 170.248 5.50586 187.222C3.22713 178.342 1.75176 169.16 1.15039 159.721L299.208 156.955ZM5.87109 111.63C93.2355 131.361 190.178 141.898 299.081 141.031C299.194 142.908 299.265 144.79 299.314 146.69L1.05371 142.062C1.61163 131.599 3.2566 121.423 5.87109 111.63ZM24.7305 69.1523C85.553 103.954 176.183 121.635 296.714 122.498C297.214 125.12 297.633 127.508 297.987 130.098C194.348 131.501 99.7748 117.884 12.7051 91.7441C16.0654 83.8487 20.1113 76.3027 24.7305 69.1523ZM150.084 1C219.265 1 277.458 48.0417 294.361 111.839C193.957 113.471 109.733 91.9146 40.2637 49.1562C67.5528 19.558 106.661 1.00005 150.084 1Z" fill="url(#paint0_linear_4037_1727)" fill-opacity="0.1" stroke="url(#paint1_linear_4037_1727)" stroke-width="2"/>
<defs>
<linearGradient id="paint0_linear_4037_1727" x1="-229.891" y1="266.047" x2="-13.1503" y2="199.596" gradientUnits="userSpaceOnUse">
<stop stop-color="#999999" stop-opacity="0.2"/>
<stop offset="0.447115" stop-color="#999999" stop-opacity="0.4"/>
<stop offset="1" stop-color="#999999" stop-opacity="0.2"/>
</linearGradient>
<linearGradient id="paint1_linear_4037_1727" x1="-229.891" y1="266.047" x2="-13.1503" y2="199.596" gradientUnits="userSpaceOnUse">
<stop stop-color="#999999" stop-opacity="0.2"/>
<stop offset="0.447115" stop-color="#999999" stop-opacity="0.4"/>
<stop offset="1" stop-color="#999999" stop-opacity="0.2"/>
</linearGradient>
</defs>
</svg>
