<svg width="50" height="21" viewBox="0 0 50 21" fill="none" xmlns="http://www.w3.org/2000/svg">
<path d="M1.48253 5.67811C1.86086 5.654 2.21505 5.47982 2.45385 5.19846C3.79009 3.64428 5.47246 2.7868 7.19776 2.7868C8.92306 2.7868 10.7396 3.69787 12.0946 5.34852C13.9407 7.61816 16.4253 8.86954 19.0844 8.86954C21.7434 8.86954 24.0912 7.66907 25.9319 5.49322C27.2816 3.92028 28.9666 3.05477 30.6758 3.05477C32.4682 3.05477 34.1989 3.97388 35.5485 5.64596C37.4026 7.89684 39.8846 9.1375 42.5356 9.1375C45.1866 9.1375 47.521 7.93167 49.3536 5.73706C49.8554 5.18238 49.8017 4.30883 49.2329 3.78362C48.9565 3.52906 48.5916 3.40312 48.2132 3.43259C47.8537 3.45939 47.5156 3.62552 47.25 3.91224C45.9406 5.46642 44.2582 6.32122 42.5087 6.32122C40.6654 6.32122 38.9911 5.46374 37.6682 3.84257C35.7954 1.51934 33.3027 0.238486 30.649 0.238486C27.9953 0.238486 25.6609 1.44699 23.7988 3.64428C22.4894 5.19846 20.807 6.05326 19.0575 6.05326C17.1954 6.05326 15.5211 5.19578 14.2117 3.56925C12.3039 1.26746 9.80315 0 7.17093 0C4.5387 0 2.1909 1.19779 0.320705 3.379C-0.164956 3.95244 -0.0871428 4.85011 0.473647 5.3244C0.747334 5.57629 1.10688 5.70223 1.48253 5.67811Z" fill="#4064DF"/>
<path d="M47.2741 15.7052C45.9647 17.2594 44.2823 18.1142 42.5329 18.1142C40.6895 18.1142 39.0152 17.2567 37.6924 15.6356C35.8195 13.3123 33.3268 12.0315 30.6731 12.0315C28.0194 12.0315 25.685 13.24 23.8229 15.4373C22.5135 16.9915 20.8311 17.8463 19.0817 17.8463C17.2195 17.8463 15.5452 16.9888 14.2358 15.3623C12.328 13.0605 9.8273 11.7903 7.19508 11.7903C4.56285 11.7903 2.21773 12.9881 0.360953 15.1506C0.108731 15.4212 -0.0146962 15.7803 0.0067694 16.1581C0.0309182 16.5359 0.205327 16.8896 0.470964 17.1147C0.741968 17.3666 1.1042 17.4926 1.47985 17.4684C1.85818 17.4443 2.21236 17.2701 2.45117 16.9888C3.78741 15.4346 5.47246 14.5771 7.19508 14.5771C8.91769 14.5771 10.7369 15.4882 12.0919 17.1388C13.938 19.4085 16.4226 20.6599 19.0817 20.6599C21.7407 20.6599 24.0885 19.4594 25.9292 17.2835C27.2789 15.7106 28.9639 14.8451 30.6731 14.8451C32.3823 14.8451 34.1935 15.7642 35.5458 17.4363C37.3999 19.6872 39.8819 20.9278 42.5329 20.9278C45.1839 20.9278 47.521 19.7193 49.367 17.5408C49.8795 16.9861 49.8285 16.1072 49.257 15.5766C48.7016 15.0648 47.8215 15.1157 47.2741 15.7052Z" fill="#4064DF"/>
</svg>
