<svg width="35" height="45" viewBox="0 0 35 45" fill="none" xmlns="http://www.w3.org/2000/svg">
<path d="M8.77122 45.0002C6.06455 45.0002 3.38003 44.2514 0.834808 42.7443C0.0307196 42.2675 -0.238365 41.2243 0.230159 40.4116C0.698683 39.5988 1.73387 39.3236 2.53796 39.8004C7.97663 43.0163 12.8328 41.3139 15.9447 39.3204C22.3901 35.1926 26.7587 26.3865 26.1066 18.8315C25.7552 14.7741 23.8115 9.30227 16.5494 6.28478C15.6883 5.92639 15.2767 4.93123 15.6313 4.06086C15.9859 3.19049 16.9704 2.7745 17.8315 3.13289C24.72 5.99679 28.8513 11.4654 29.4654 18.5339C30.2347 27.4104 25.3057 37.3621 17.7492 42.2003C14.8367 44.0626 11.7913 44.997 8.77122 44.997V45.0002ZM9.69244 38.6708C7.47962 38.6708 5.26679 38.0021 3.1711 36.6709C2.38284 36.1685 2.14541 35.1158 2.64242 34.319C3.13944 33.5222 4.18095 33.2822 4.96921 33.7846C8.60661 36.1013 11.7691 35.2598 13.7825 34.1494C17.9423 31.8551 20.9972 26.4665 21.0446 21.337C21.07 18.6395 20.2627 14.9373 16.2739 12.6334C15.4667 12.1662 15.1849 11.1262 15.6471 10.307C16.1093 9.48786 17.1382 9.20628 17.9486 9.67346C22.1685 12.1086 24.4668 16.262 24.4193 21.369C24.3591 27.7592 20.6489 34.2454 15.4002 37.1413C13.5514 38.162 11.6235 38.6676 9.69244 38.6676V38.6708ZM28.6898 37.2053C28.3637 37.2053 28.0377 37.1093 27.7464 36.9109C26.974 36.3829 26.7714 35.3237 27.2937 34.543C31.4471 28.3352 35.9551 12.4734 23.3714 3.07209C22.6212 2.51211 22.4629 1.44655 23.0169 0.688177C23.5709 -0.0701964 24.6251 -0.230191 25.3753 0.329789C38.6586 10.2494 36.1292 27.4264 30.0891 36.4501C29.763 36.9365 29.2312 37.1989 28.6898 37.1989V37.2053Z" fill="#ED1C24"/>
</svg>
