<svg width="89" height="84" viewBox="0 0 89 84" fill="none" xmlns="http://www.w3.org/2000/svg">
<path d="M14.2961 54.88H15.4173C16.9591 54.88 17.9402 54.18 17.9402 53.06C17.9402 51.94 17.2394 51.38 15.8378 51.38C14.9969 51.38 14.7165 51.38 14.4362 51.52L14.2961 54.88ZM10.2315 48.86C11.3528 48.72 13.1748 48.58 15.2772 48.58C17.6598 48.58 19.3417 48.86 20.463 49.7C21.4441 50.4 22.0047 51.38 22.0047 52.78C22.0047 54.6 20.6032 55.86 19.3417 56.28V56.42C20.3228 56.84 20.8835 57.68 21.3039 58.94C21.7244 60.34 22.285 62.44 22.5654 63H18.3606C18.0803 62.58 17.8 61.46 17.2394 59.78C16.8189 58.1 16.2583 57.68 14.9969 57.68H14.2961V63H10.2315V48.86Z" fill="#747DA1"/>
<path d="M34.0583 57.12H28.5921V59.78H34.7591V63H24.3874V48.58H34.3386V51.8H28.5921V54.04H34.0583V57.12Z" fill="#747DA1"/>
<path d="M44.4299 56.7L43.7291 54.18C43.4488 53.34 43.1685 52.22 43.0284 51.38C42.748 52.22 42.6079 53.48 42.3276 54.18L41.6268 56.7H44.4299ZM41.0661 59.64L40.2252 63H36.0205L40.5055 48.72H45.9717L50.4567 63H45.9717L44.9906 59.64H41.0661Z" fill="#747DA1"/>
<path d="M63.3512 62.58C62.7906 62.86 61.389 63.14 59.4268 63.14C53.6803 63.14 51.1575 59.78 51.1575 56C51.1575 50.96 55.0819 48.3 59.7071 48.3C61.5291 48.3 62.9307 48.58 63.6315 49L62.7906 52.08C62.0898 51.8 61.1087 51.52 59.9874 51.52C57.6047 51.52 55.5024 52.78 55.5024 55.72C55.5024 58.38 57.1843 59.92 59.9874 59.92C60.9685 59.92 62.0898 59.78 62.7906 59.5L63.3512 62.58Z" fill="#747DA1"/>
<path d="M69.6583 48.58V53.9H74.7039V48.58H78.7685V63H74.7039V57.26H69.6583V63H65.5937V48.58H69.6583Z" fill="#747DA1"/>
<path d="M27.3307 21.84C29.1528 23.52 31.115 25.34 32.937 27.16C34.7591 28.98 36.4409 30.94 38.1228 32.9C38.1228 32.9 38.263 32.76 38.263 32.62C40.3654 28.7 42.8882 25.34 45.6913 21.98C49.4756 17.36 53.4 13.16 57.7449 9.1C59.0063 7.84 60.2677 6.72 61.6693 5.46C61.8095 5.32 61.9496 5.18 62.0898 5.04C63.4913 8.12 65.1732 11.06 67.2756 13.72C67.2756 13.86 67.1354 13.86 66.9953 14C65.1732 15.54 63.211 16.8 61.5291 18.48C58.3055 21.84 55.0819 25.2 51.9984 28.7C49.3354 31.92 46.6724 35.28 44.1496 38.5C42.3276 40.88 40.6457 43.4 38.9638 45.92C38.8236 46.2 38.6835 46.34 38.5433 46.62C33.6378 40.18 27.8913 34.44 21.5843 29.4C23.4063 26.88 25.3685 24.36 27.3307 21.84Z" fill="#747DA1"/>
<path d="M17.0992 77.14C16.8189 77.28 16.1181 77.42 15.4173 77.42C12.1937 77.42 10.9323 74.9 10.9323 71.96C10.9323 67.9 13.315 66.08 15.6976 66.08C16.5386 66.08 17.0992 66.22 17.2394 66.36L16.8189 68.46C16.5386 68.32 16.2583 68.18 15.8378 68.18C14.5764 68.18 13.5953 69.16 13.5953 71.68C13.5953 74.06 14.5764 75.04 15.8378 75.04C16.1181 75.04 16.5386 75.04 16.8189 74.9L17.0992 77.14Z" fill="#747DA1"/>
<path d="M20.1827 71.68C20.1827 74.34 20.6031 75.18 21.3039 75.18C22.0047 75.18 22.285 73.92 22.285 71.54C22.285 69.58 22.0047 68.18 21.1638 68.18C20.6032 68.32 20.1827 69.3 20.1827 71.68ZM24.948 71.54C24.948 75.74 23.4063 77.42 21.1638 77.42C18.3606 77.42 17.3795 74.48 17.3795 71.68C17.3795 68.88 18.5008 66.08 21.3039 66.08C24.3874 66.08 24.948 69.44 24.948 71.54Z" fill="#747DA1"/>
<path d="M33.2173 73.78C33.2173 72.94 33.0772 71.54 33.0772 70.42C32.937 71.54 32.6567 72.94 32.3764 73.64L31.5354 77.14H29.7134L29.0126 73.64C28.8724 72.94 28.5921 71.54 28.452 70.42C28.452 71.54 28.3118 72.94 28.3118 73.78L28.0315 77.28H25.789L26.6299 66.08H29.4331L30.1339 69.58C30.4142 70.98 30.6945 72.24 30.8346 73.5C30.9748 72.24 31.2551 70.98 31.5354 69.58L32.2362 66.08H35.0394L35.7402 77.28H33.4976L33.2173 73.78Z" fill="#747DA1"/>
<path d="M39.8047 71.26C39.9449 71.26 39.9449 71.26 40.085 71.26C41.0661 71.26 41.4866 70.56 41.4866 69.72C41.4866 68.88 41.0661 68.18 40.2252 68.18C40.085 68.18 39.9449 68.18 39.8047 68.32V71.26ZM37.1417 66.36C37.8425 66.22 38.6835 66.08 39.6646 66.08C41.0661 66.08 42.1874 66.22 43.0284 66.92C43.7291 67.48 44.0094 68.46 44.0094 69.44C44.0094 70.7 43.589 71.68 42.8882 72.24C42.1874 72.94 40.926 73.22 40.085 73.22H39.6646V77.14H37.1417V66.36Z" fill="#747DA1"/>
<path d="M45.2709 66.22H47.7937V75.18H50.5969V77.28H45.2709V66.22Z" fill="#747DA1"/>
<path d="M54.3811 66.22H51.8583V77.42H54.3811V66.22Z" fill="#747DA1"/>
<path d="M59.8472 73.08L59.5669 70.98C59.4268 70.28 59.2866 69.16 59.2866 68.46C59.1465 69.16 59.0063 70.42 58.8661 70.98L58.5858 73.08H59.8472ZM58.3055 75.18L57.885 77.42H55.3622L57.7449 66.22H60.8284L62.9307 77.42H60.4079L59.9874 75.18H58.3055Z" fill="#747DA1"/>
<path d="M64.052 77.28V66.08H66.4346L67.9764 70C68.2567 70.7 68.8173 72.1 69.0976 72.94C68.9575 71.96 68.8173 69.86 68.8173 67.76V65.94H71.0598V77.14H68.6772L67.2756 73.5C66.9953 72.66 66.4346 71.12 66.1543 70.42C66.1543 71.4 66.2945 73.22 66.2945 75.46V77.42C66.2945 77.28 64.052 77.28 64.052 77.28Z" fill="#747DA1"/>
<path d="M74.2835 68.6H72.3213V66.22H78.7685V68.6H76.8063V77.28H74.2835V68.6Z" fill="#747DA1"/>
<path d="M14.4362 3.08C8.12913 3.08 3.08346 8.12 3.08346 14.42V69.58C3.08346 75.88 8.12913 80.92 14.4362 80.92H74.5638C80.8709 80.92 85.9165 75.88 85.9165 69.58V14.42C85.9165 8.12 80.8709 3.08 74.5638 3.08H14.4362ZM74.5638 84H14.4362C6.44724 84 0 77.56 0 69.58V14.42C0 6.44 6.44724 0 14.4362 0H74.5638C82.5528 0 89 6.44 89 14.42V69.58C88.8598 77.56 82.4126 84 74.5638 84Z" fill="#747DA1"/>
</svg>
