<svg width="52" height="60" viewBox="0 0 52 60" fill="none" xmlns="http://www.w3.org/2000/svg">
<path d="M51.7945 50.625C51.7945 44.0988 46.4848 38.7891 39.9586 38.7891H33.9387L33.0293 35.0707L33.3129 34.8902C34.943 33.8555 36.3082 32.5172 37.3723 30.9129L37.5117 30.7031H41.7176C45.3363 30.7031 48.2801 27.7594 48.2801 24.1406V20.625C48.2801 17.0063 45.3363 14.0625 41.7176 14.0625H40.8223L40.8832 12.232C40.991 8.99414 39.8121 5.92969 37.5633 3.60352C35.3156 1.27969 32.2934 0 29.0543 0H22.7484C19.507 0 16.4836 1.28203 14.2336 3.60938C11.9859 5.93555 10.8094 9 10.9195 12.2402L10.9816 14.0625H10.077C6.4582 14.0625 3.51445 17.0063 3.51445 20.625V24.1406C3.51445 27.7594 6.4582 30.7031 10.077 30.7031H14.2957L14.4352 30.9129C15.4957 32.5137 16.8586 33.8496 18.484 34.8844L18.7676 35.0648L17.8559 38.7891H11.8359C5.30977 38.7891 0 44.0988 0 50.625V57.7734C0 58.4848 0.577734 59.0625 1.28906 59.0625H50.5078C51.2191 59.0625 51.7969 58.4848 51.7969 57.7734V50.625H51.7945ZM38.9977 27.5145C39.1969 26.8887 39.3527 26.243 39.4605 25.5949C39.7582 23.802 39.9855 22.452 40.1602 21.4184C40.5336 19.2043 40.7199 17.7867 40.7191 17.1656V16.6406H41.7164C43.9137 16.6406 45.7008 18.4277 45.7008 20.625V24.1406C45.7008 26.3379 43.9137 28.125 41.7164 28.125H38.8031L38.9977 27.5145ZM10.0758 28.125C7.87852 28.125 6.09141 26.3379 6.09141 24.1406V20.625C6.09141 18.4277 7.87852 16.6406 10.0758 16.6406H11.0812L11.0848 17.2348C11.0879 17.8355 11.2691 19.2008 11.6285 21.3305C11.8043 22.3711 12.0363 23.7469 12.3434 25.5961C12.4512 26.243 12.607 26.8887 12.8062 27.5156L12.9996 28.1262H10.0746L10.0758 28.125ZM13.4953 12.1523C13.4086 9.61875 14.3297 7.22109 16.0898 5.4C17.8477 3.58008 20.2125 2.57812 22.7473 2.57812H29.0531C31.5867 2.57812 33.9516 3.58008 35.7105 5.39883C37.4684 7.21641 38.3906 9.61289 38.3051 12.1453L38.2418 14.0625H32.9273C31.6992 14.0625 30.7008 13.0641 30.7008 11.8359C30.7008 11.3133 30.3879 10.8457 29.9051 10.6453C29.4223 10.4449 28.8703 10.5551 28.5012 10.9254C26.4773 12.9492 23.7867 14.0637 20.925 14.0637H13.5609L13.4953 12.1535V12.1523ZM14.8863 25.1707L13.6957 18.0234L13.6488 16.6395H20.925C23.5746 16.6395 26.127 15.8672 28.3055 14.407L28.6922 14.148L28.9547 14.5324C29.8535 15.852 31.3395 16.6395 32.9285 16.6395H38.1562L38.1047 18.0539L36.9188 25.1695C36.7664 26.0871 36.4969 26.9871 36.1184 27.8449L35.9953 28.1238H25.8984C25.1871 28.1238 24.6094 28.7016 24.6094 29.4129C24.6094 30.1242 25.1871 30.7008 25.8984 30.7008H34.3746L33.4887 31.5152C31.4273 33.409 28.7355 34.4531 25.9102 34.4531H25.8973C20.4152 34.4531 15.7852 30.5496 14.8875 25.1707H14.8863ZM18.8648 41.3672C19.4613 41.3672 19.9758 40.9629 20.1176 40.384L21.1406 36.2051L21.6199 36.3609C22.9945 36.8051 24.4312 37.0312 25.8926 37.0312H25.9078C27.3645 37.0312 28.8 36.8074 30.1734 36.3645L30.6527 36.2098L31.6746 40.384C31.8164 40.9629 32.3309 41.366 32.9273 41.366H33.866L33.3023 42.116C31.5586 44.434 28.7895 45.8191 25.8961 45.8191C23.0027 45.8191 20.2336 44.4352 18.4898 42.116L17.925 41.366H18.8637L18.8648 41.3672ZM49.2164 56.4844H2.57578V50.625C2.57578 45.5203 6.72891 41.3672 11.8336 41.3672H15.0738L15.2004 41.6344C17.1504 45.743 21.3492 48.3984 25.8949 48.3984C30.4406 48.3984 34.6395 45.7441 36.5895 41.6355L36.716 41.3672H39.9574C45.0621 41.3672 49.2152 45.5203 49.2152 50.625V56.4844H49.2164Z" fill="#747CA0"/>
</svg>
