<svg width="849" height="748" viewBox="0 0 849 748" fill="none" xmlns="http://www.w3.org/2000/svg">
<mask id="path-1-inside-1_1939_12500" fill="white">
<path fill-rule="evenodd" clip-rule="evenodd" d="M140.655 -100.96C233.159 -197.121 363.17 -257 507.12 -257C743.066 -257 941.504 -96.1391 999.034 122.063C999.034 122.063 820.87 124.854 708.346 109.377C583.657 92.1239 512.442 77.1542 395.102 31.7377C290.688 -8.6044 140.909 -100.96 140.909 -100.96M1010.95 182.957C1009.17 170.271 1007.14 157.838 1004.36 145.406C1004.36 145.406 754.217 148.958 597.089 124.601C426.781 98.2133 327.436 80.7064 170.814 8.6488C137.361 -6.82834 118.86 -17.9922 86.4207 -33.9768C69.1873 -8.85812 54.2347 18.0366 41.8165 46.1999C41.8165 46.1999 140.909 79.6915 205.281 96.9447C342.388 133.481 422.727 143.376 563.382 160.122C736.73 180.927 1010.69 182.957 1010.69 182.957M568.197 230.15L1015 232.18C1014.75 223.807 1014.24 215.434 1013.48 207.061C1013.48 207.061 719.497 209.344 532.717 192.852C330.223 174.838 210.856 154.54 17.4869 113.437C8.61673 145.152 2.53433 178.136 0 212.135L568.197 230.15ZM140.655 591.96C233.159 688.121 363.17 748 506.866 748C742.813 748 941.251 587.139 998.78 368.937C998.78 368.937 820.617 366.146 708.092 381.623C583.403 398.876 512.189 413.846 394.849 459.262C290.434 499.604 140.655 591.96 140.655 591.96ZM563.635 330.878C422.727 347.878 342.642 357.519 205.534 394.055C140.909 411.308 42.0699 444.8 42.0699 444.8C54.4881 472.963 69.4407 499.858 86.6742 524.977C119.114 508.738 137.614 497.828 171.067 482.351C327.436 410.294 427.035 392.787 597.342 366.399C754.471 342.042 1004.61 345.594 1004.61 345.594C1007.14 333.162 1009.42 320.729 1011.2 308.043C1011.2 308.043 737.237 310.073 563.889 330.878M0 278.865C2.53433 312.864 8.61673 345.848 17.4869 377.563C211.11 336.46 330.223 316.162 532.717 298.148C719.497 281.656 1013.48 283.939 1013.48 283.939C1014.24 275.566 1014.75 267.447 1015 259.074L568.197 260.85L0 278.865Z"/>
</mask>
<path fill-rule="evenodd" clip-rule="evenodd" d="M140.655 -100.96C233.159 -197.121 363.17 -257 507.12 -257C743.066 -257 941.504 -96.1391 999.034 122.063C999.034 122.063 820.87 124.854 708.346 109.377C583.657 92.1239 512.442 77.1542 395.102 31.7377C290.688 -8.6044 140.909 -100.96 140.909 -100.96M1010.95 182.957C1009.17 170.271 1007.14 157.838 1004.36 145.406C1004.36 145.406 754.217 148.958 597.089 124.601C426.781 98.2133 327.436 80.7064 170.814 8.6488C137.361 -6.82834 118.86 -17.9922 86.4207 -33.9768C69.1873 -8.85812 54.2347 18.0366 41.8165 46.1999C41.8165 46.1999 140.909 79.6915 205.281 96.9447C342.388 133.481 422.727 143.376 563.382 160.122C736.73 180.927 1010.69 182.957 1010.69 182.957M568.197 230.15L1015 232.18C1014.75 223.807 1014.24 215.434 1013.48 207.061C1013.48 207.061 719.497 209.344 532.717 192.852C330.223 174.838 210.856 154.54 17.4869 113.437C8.61673 145.152 2.53433 178.136 0 212.135L568.197 230.15ZM140.655 591.96C233.159 688.121 363.17 748 506.866 748C742.813 748 941.251 587.139 998.78 368.937C998.78 368.937 820.617 366.146 708.092 381.623C583.403 398.876 512.189 413.846 394.849 459.262C290.434 499.604 140.655 591.96 140.655 591.96ZM563.635 330.878C422.727 347.878 342.642 357.519 205.534 394.055C140.909 411.308 42.0699 444.8 42.0699 444.8C54.4881 472.963 69.4407 499.858 86.6742 524.977C119.114 508.738 137.614 497.828 171.067 482.351C327.436 410.294 427.035 392.787 597.342 366.399C754.471 342.042 1004.61 345.594 1004.61 345.594C1007.14 333.162 1009.42 320.729 1011.2 308.043C1011.2 308.043 737.237 310.073 563.889 330.878M0 278.865C2.53433 312.864 8.61673 345.848 17.4869 377.563C211.11 336.46 330.223 316.162 532.717 298.148C719.497 281.656 1013.48 283.939 1013.48 283.939C1014.24 275.566 1014.75 267.447 1015 259.074L568.197 260.85L0 278.865Z" fill="#4064DF" fill-opacity="0.05"/>
<path d="M999.034 122.063L999.049 123.063L1000.33 123.043L1000 121.808L999.034 122.063ZM708.346 109.377L708.209 110.368L708.21 110.368L708.346 109.377ZM395.102 31.7377L395.463 30.8051L395.463 30.8049L395.102 31.7377ZM1004.36 145.406L1005.33 145.187L1005.15 144.395L1004.34 144.406L1004.36 145.406ZM597.089 124.601L597.242 123.612L597.242 123.612L597.089 124.601ZM170.814 8.6488L170.394 9.5564L170.396 9.55728L170.814 8.6488ZM86.4207 -33.9768L86.8627 -34.8738L86.086 -35.2565L85.5961 -34.5425L86.4207 -33.9768ZM41.8165 46.1999L40.9015 45.7965L40.4603 46.7971L41.4963 47.1473L41.8165 46.1999ZM205.281 96.9447L205.022 97.9106L205.023 97.911L205.281 96.9447ZM563.382 160.122L563.501 159.129L563.5 159.129L563.382 160.122ZM568.197 230.15L568.166 231.149L568.179 231.15L568.193 231.15L568.197 230.15ZM1015 232.18L1015 233.18L1016.03 233.184L1016 232.149L1015 232.18ZM1013.48 207.061L1014.48 206.97L1014.39 206.054L1013.47 206.061L1013.48 207.061ZM532.717 192.852L532.628 193.848L532.629 193.848L532.717 192.852ZM17.4869 113.437L17.6948 112.459L16.7767 112.263L16.5238 113.167L17.4869 113.437ZM0 212.135L-0.997233 212.061L-1.07481 213.102L-0.0316886 213.135L0 212.135ZM140.655 591.96L140.131 591.109L139.075 591.759L139.935 592.653L140.655 591.96ZM998.78 368.937L999.747 369.192L1000.07 367.957L998.796 367.937L998.78 368.937ZM708.092 381.623L707.956 380.632L707.955 380.632L708.092 381.623ZM394.849 459.262L395.209 460.195L395.21 460.195L394.849 459.262ZM205.534 394.055L205.277 393.089L205.276 393.089L205.534 394.055ZM42.0699 444.8L41.749 443.853L40.714 444.204L41.1549 445.203L42.0699 444.8ZM86.6742 524.977L85.8496 525.542L86.3426 526.261L87.1218 525.871L86.6742 524.977ZM171.067 482.351L170.649 481.443L170.648 481.444L171.067 482.351ZM597.342 366.399L597.495 367.388H597.495L597.342 366.399ZM1004.61 345.594L1004.6 346.594L1005.42 346.606L1005.59 345.794L1004.61 345.594ZM1011.2 308.043L1012.19 308.181L1012.35 307.034L1011.19 307.043L1011.2 308.043ZM0 278.865L-0.0316886 277.865L-1.07481 277.898L-0.997233 278.939L0 278.865ZM17.4869 377.563L16.5238 377.833L16.7766 378.736L17.6945 378.541L17.4869 377.563ZM532.717 298.148L532.629 297.151L532.628 297.152L532.717 298.148ZM1013.48 283.939L1013.47 284.939L1014.39 284.946L1014.48 284.03L1013.48 283.939ZM1015 259.074L1016 259.104L1016.03 258.07L1015 258.074L1015 259.074ZM568.197 260.85L568.193 259.85L568.179 259.85L568.166 259.851L568.197 260.85ZM140.655 -100.96L141.376 -100.267C233.699 -196.24 363.453 -256 507.12 -256V-257V-258C362.887 -258 232.618 -198.002 139.935 -101.653L140.655 -100.96ZM507.12 -257V-256C742.6 -256 940.65 -95.4569 998.067 122.318L999.034 122.063L1000 121.808C942.359 -96.8214 743.532 -258 507.12 -258V-257ZM999.034 122.063C999.018 121.063 999.017 121.063 999.016 121.063C999.015 121.064 999.013 121.064 999.01 121.064C999.005 121.064 998.997 121.064 998.986 121.064C998.964 121.064 998.932 121.065 998.889 121.065C998.803 121.067 998.675 121.069 998.505 121.071C998.165 121.076 997.658 121.083 996.993 121.091C995.661 121.108 993.694 121.13 991.149 121.153C986.06 121.199 978.664 121.248 969.436 121.258C950.981 121.277 925.202 121.143 895.907 120.524C837.308 119.288 764.684 116.117 708.482 108.386L708.346 109.377L708.21 110.368C764.532 118.115 837.252 121.287 895.865 122.524C925.177 123.143 950.972 123.277 969.438 123.258C978.672 123.248 986.074 123.199 991.167 123.153C993.714 123.13 995.684 123.107 997.018 123.091C997.685 123.082 998.192 123.076 998.533 123.071C998.704 123.068 998.833 123.066 998.919 123.065C998.962 123.065 998.995 123.064 999.016 123.064C999.027 123.064 999.035 123.063 999.041 123.063C999.044 123.063 999.046 123.063 999.047 123.063C999.049 123.063 999.049 123.063 999.034 122.063ZM708.346 109.377L708.483 108.387C583.846 91.1406 512.711 76.1861 395.463 30.8051L395.102 31.7377L394.741 32.6703C512.173 78.1224 583.467 93.1072 708.209 110.368L708.346 109.377ZM395.102 31.7377L395.463 30.8049C343.324 10.6603 279.826 -22.4854 229.337 -50.613C204.098 -64.6735 182.121 -77.474 166.453 -86.7592C158.62 -91.4018 152.364 -95.1654 148.067 -97.768C145.918 -99.0693 144.259 -100.08 143.138 -100.766C142.577 -101.109 142.151 -101.37 141.865 -101.546C141.722 -101.634 141.614 -101.7 141.542 -101.744C141.506 -101.767 141.479 -101.783 141.461 -101.794C141.452 -101.8 141.445 -101.804 141.44 -101.807C141.438 -101.808 141.436 -101.809 141.435 -101.81C141.434 -101.811 141.434 -101.811 140.909 -100.96C140.384 -100.109 140.385 -100.108 140.386 -100.108C140.387 -100.107 140.389 -100.106 140.391 -100.104C140.396 -100.101 140.403 -100.097 140.412 -100.092C140.43 -100.08 140.457 -100.063 140.494 -100.041C140.566 -99.9964 140.675 -99.9297 140.818 -99.8415C141.106 -99.6652 141.533 -99.4031 142.095 -99.0596C143.218 -98.3727 144.88 -97.3602 147.031 -96.0573C151.332 -93.4517 157.594 -89.6848 165.433 -85.0387C181.113 -75.7466 203.106 -62.9369 228.364 -48.8658C278.867 -20.7301 342.466 12.473 394.742 32.6705L395.102 31.7377ZM1010.95 182.957L1011.94 182.819C1010.16 170.119 1008.13 157.657 1005.33 145.187L1004.36 145.406L1003.38 145.625C1006.16 158.02 1008.18 170.423 1009.95 183.096L1010.95 182.957ZM1004.36 145.406C1004.34 144.406 1004.34 144.406 1004.34 144.406C1004.34 144.406 1004.33 144.406 1004.33 144.406C1004.32 144.406 1004.31 144.406 1004.3 144.407C1004.27 144.407 1004.22 144.408 1004.16 144.408C1004.04 144.41 1003.86 144.412 1003.62 144.415C1003.14 144.421 1002.43 144.43 1001.5 144.44C999.628 144.46 996.866 144.486 993.294 144.511C986.15 144.561 975.768 144.604 962.818 144.58C936.919 144.533 900.75 144.216 859.672 143.138C777.504 140.981 675.74 135.781 597.242 123.612L597.089 124.601L596.935 125.589C675.566 137.778 777.436 142.98 859.619 145.137C900.717 146.216 936.903 146.533 962.815 146.58C975.771 146.604 986.158 146.561 993.308 146.511C996.882 146.486 999.647 146.46 1001.52 146.44C1002.45 146.43 1003.17 146.421 1003.65 146.415C1003.89 146.412 1004.07 146.41 1004.19 146.408C1004.25 146.408 1004.29 146.407 1004.32 146.406C1004.34 146.406 1004.35 146.406 1004.36 146.406C1004.36 146.406 1004.37 146.406 1004.37 146.406C1004.37 146.406 1004.37 146.406 1004.36 145.406ZM597.089 124.601L597.242 123.612C426.959 97.2289 327.724 79.7384 171.232 7.74036L170.814 8.6488L170.396 9.55728C327.147 81.6743 426.604 99.1978 596.935 125.589L597.089 124.601ZM170.814 8.6488L171.234 7.74124C137.767 -7.74205 119.402 -18.8402 86.8627 -34.8738L86.4207 -33.9768L85.9787 -33.0798C118.319 -17.1442 136.954 -5.91461 170.394 9.5564L170.814 8.6488ZM86.4207 -33.9768L85.5961 -34.5425C68.327 -9.37193 53.3444 17.5772 40.9015 45.7965L41.8165 46.1999L42.7315 46.6034C55.125 18.496 70.0475 -8.34431 87.2453 -33.411L86.4207 -33.9768ZM41.8165 46.1999C41.4963 47.1473 41.4967 47.1474 41.4975 47.1477C41.4982 47.1479 41.4994 47.1483 41.5009 47.1488C41.5039 47.1499 41.5085 47.1514 41.5145 47.1534C41.5266 47.1575 41.5447 47.1636 41.5687 47.1717C41.6166 47.1879 41.6883 47.2121 41.7831 47.2441C41.9728 47.3081 42.2552 47.4032 42.6261 47.528C43.368 47.7777 44.4644 48.1461 45.8825 48.621C48.7188 49.5708 52.8421 50.9468 57.9911 52.6519C68.2891 56.062 82.6903 60.7886 99.1037 66.0546C131.926 76.585 172.811 89.2774 205.022 97.9106L205.281 96.9447L205.54 95.9788C173.378 87.3588 132.531 74.6788 99.7147 64.1502C83.3085 58.8866 68.9133 54.1619 58.6198 50.7533C53.4731 49.049 49.352 47.6736 46.5176 46.7245C45.1005 46.2499 44.005 45.8819 43.264 45.6325C42.8935 45.5078 42.6115 45.4128 42.4223 45.349C42.3277 45.317 42.2562 45.2929 42.2084 45.2768C42.1845 45.2687 42.1666 45.2627 42.1546 45.2586C42.1486 45.2566 42.1441 45.2551 42.1411 45.2541C42.1396 45.2536 42.1385 45.2532 42.1378 45.253C42.137 45.2527 42.1367 45.2526 41.8165 46.1999ZM205.281 96.9447L205.023 97.911C342.203 134.466 422.599 144.368 563.264 161.115L563.382 160.122L563.5 159.129C422.854 142.384 342.574 132.496 205.538 95.9784L205.281 96.9447ZM563.382 160.122L563.263 161.115C649.981 171.523 761.844 177.233 852.008 180.341C897.094 181.895 936.762 182.799 965.159 183.315C979.357 183.572 990.738 183.733 998.569 183.829C1002.48 183.877 1005.51 183.909 1007.56 183.929C1008.59 183.939 1009.37 183.946 1009.89 183.951C1010.15 183.953 1010.35 183.954 1010.48 183.955C1010.55 183.956 1010.6 183.956 1010.63 183.957C1010.65 183.957 1010.66 183.957 1010.67 183.957C1010.68 183.957 1010.68 183.957 1010.68 183.957C1010.68 183.957 1010.68 183.957 1010.69 182.957C1010.7 181.957 1010.7 181.957 1010.7 181.957C1010.69 181.957 1010.69 181.957 1010.69 181.957C1010.68 181.957 1010.67 181.957 1010.65 181.957C1010.62 181.956 1010.57 181.956 1010.5 181.956C1010.37 181.954 1010.17 181.953 1009.91 181.951C1009.39 181.946 1008.61 181.939 1007.58 181.929C1005.53 181.909 1002.51 181.877 998.594 181.829C990.766 181.733 979.389 181.573 965.195 181.315C936.806 180.8 897.15 179.896 852.077 178.342C761.923 175.234 650.131 169.526 563.501 159.129L563.382 160.122ZM568.197 230.15L568.193 231.15L1015 233.18L1015 232.18L1015 231.18L568.202 229.15L568.197 230.15ZM1015 232.18L1016 232.149C1015.75 223.756 1015.24 215.363 1014.48 206.97L1013.48 207.061L1012.48 207.151C1013.24 215.504 1013.75 223.857 1014 232.21L1015 232.18ZM1013.48 207.061C1013.47 206.061 1013.47 206.061 1013.47 206.061C1013.47 206.061 1013.46 206.061 1013.46 206.061C1013.45 206.061 1013.44 206.061 1013.42 206.061C1013.38 206.062 1013.33 206.062 1013.26 206.062C1013.12 206.064 1012.9 206.065 1012.62 206.067C1012.06 206.071 1011.23 206.076 1010.13 206.082C1007.93 206.095 1004.68 206.112 1000.48 206.127C992.077 206.157 979.866 206.182 964.628 206.16C934.152 206.116 891.572 205.886 843.156 205.141C746.317 203.651 626.157 200.099 532.805 191.856L532.717 192.852L532.629 193.848C626.057 202.098 746.278 205.65 843.125 207.141C891.552 207.886 934.142 208.116 964.625 208.16C979.866 208.182 992.081 208.157 1000.49 208.127C1004.69 208.112 1007.94 208.095 1010.14 208.082C1011.24 208.076 1012.07 208.071 1012.64 208.067C1012.92 208.065 1013.13 208.063 1013.27 208.062C1013.34 208.062 1013.4 208.061 1013.43 208.061C1013.45 208.061 1013.46 208.061 1013.47 208.061C1013.48 208.061 1013.48 208.061 1013.48 208.061C1013.49 208.061 1013.49 208.061 1013.48 207.061ZM532.717 192.852L532.805 191.856C330.361 173.846 211.034 153.555 17.6948 112.459L17.4869 113.437L17.279 114.415C210.679 155.525 330.086 175.83 532.628 193.848L532.717 192.852ZM17.4869 113.437L16.5238 113.167C7.63717 144.942 1.54236 177.991 -0.997233 212.061L0 212.135L0.997233 212.21C3.5263 178.281 9.59629 145.363 18.4499 113.706L17.4869 113.437ZM0 212.135L-0.0316886 213.135L568.166 231.149L568.197 230.15L568.229 229.15L0.0316886 211.136L0 212.135ZM140.655 591.96L139.935 592.653C232.618 689.002 362.886 749 506.866 749V748V747C363.453 747 233.699 687.24 141.376 591.266L140.655 591.96ZM506.866 748V749C743.279 749 942.105 587.821 999.747 369.192L998.78 368.937L997.813 368.682C940.397 586.457 742.346 747 506.866 747V748ZM998.78 368.937C998.796 367.937 998.795 367.937 998.794 367.937C998.792 367.937 998.79 367.937 998.788 367.937C998.782 367.937 998.774 367.936 998.763 367.936C998.741 367.936 998.709 367.935 998.666 367.935C998.579 367.933 998.45 367.932 998.28 367.929C997.939 367.924 997.431 367.917 996.764 367.909C995.431 367.892 993.461 367.87 990.914 367.847C985.82 367.801 978.418 367.752 969.185 367.742C950.718 367.723 924.924 367.857 895.612 368.476C836.998 369.713 764.278 372.885 707.956 380.632L708.092 381.623L708.229 382.613C764.431 374.883 837.055 371.712 895.654 370.476C924.948 369.857 950.727 369.723 969.183 369.742C978.411 369.752 985.807 369.801 990.896 369.847C993.44 369.87 995.408 369.892 996.739 369.909C997.405 369.917 997.912 369.924 998.252 369.929C998.422 369.931 998.55 369.933 998.636 369.935C998.679 369.935 998.711 369.936 998.732 369.936C998.743 369.936 998.751 369.936 998.757 369.936C998.759 369.936 998.761 369.936 998.763 369.936C998.764 369.936 998.765 369.936 998.78 368.937ZM708.092 381.623L707.955 380.632C583.214 397.893 511.919 412.878 394.488 458.33L394.849 459.262L395.21 460.195C512.458 414.814 583.593 399.859 708.229 382.613L708.092 381.623ZM394.849 459.262L394.489 458.329C342.213 478.527 278.614 511.73 228.11 539.866C202.852 553.937 180.859 566.747 165.18 576.039C157.34 580.685 151.079 584.452 146.777 587.057C144.626 588.36 142.965 589.373 141.841 590.06C141.28 590.403 140.852 590.665 140.565 590.841C140.421 590.93 140.313 590.996 140.24 591.041C140.204 591.063 140.177 591.08 140.158 591.091C140.149 591.097 140.142 591.101 140.138 591.104C140.135 591.106 140.134 591.107 140.132 591.107C140.131 591.108 140.131 591.109 140.655 591.96C141.18 592.811 141.181 592.811 141.182 592.81C141.183 592.809 141.185 592.808 141.187 592.807C141.191 592.804 141.198 592.8 141.207 592.794C141.225 592.783 141.252 592.767 141.288 592.744C141.361 592.7 141.469 592.634 141.612 592.546C141.898 592.37 142.324 592.109 142.885 591.766C144.006 591.08 145.665 590.069 147.813 588.768C152.11 586.165 158.366 582.402 166.2 577.759C181.867 568.474 203.845 555.673 229.083 541.613C279.573 513.485 343.071 480.34 395.209 460.195L394.849 459.262ZM563.635 330.878L563.516 329.885C422.6 346.885 342.456 356.534 205.277 393.089L205.534 394.055L205.792 395.022C342.827 358.505 422.853 348.87 563.755 331.871L563.635 330.878ZM205.534 394.055L205.276 393.089C172.938 401.722 132.053 414.415 99.2618 424.945C82.8641 430.211 68.4866 434.938 58.2084 438.348C53.0692 440.053 48.9548 441.429 46.1249 442.379C44.71 442.854 43.6162 443.222 42.8761 443.472C42.506 443.597 42.2243 443.692 42.0351 443.756C41.9405 443.788 41.869 443.812 41.8212 443.828C41.7973 443.837 41.7792 443.843 41.7672 443.847C41.7612 443.849 41.7566 443.85 41.7536 443.851C41.7521 443.852 41.7509 443.852 41.7502 443.853C41.7494 443.853 41.749 443.853 42.0699 444.8C42.3908 445.747 42.3912 445.747 42.3919 445.747C42.3927 445.747 42.3938 445.746 42.3953 445.746C42.3983 445.745 42.4027 445.743 42.4087 445.741C42.4207 445.737 42.4386 445.731 42.4624 445.723C42.5101 445.707 42.5813 445.683 42.6757 445.651C42.8645 445.587 43.1457 445.492 43.5153 445.367C44.2546 445.118 45.3474 444.75 46.7613 444.275C49.5892 443.326 53.7014 441.951 58.8382 440.247C69.1118 436.838 83.4831 432.113 99.8733 426.85C132.658 416.321 173.505 403.641 205.792 395.021L205.534 394.055ZM42.0699 444.8L41.1549 445.203C53.5978 473.423 68.5805 500.372 85.8496 525.542L86.6742 524.977L87.4987 524.411C70.3009 499.344 55.3785 472.504 42.9849 444.397L42.0699 444.8ZM86.6742 524.977L87.1218 525.871C119.626 509.6 138.043 498.732 171.487 483.259L171.067 482.351L170.648 481.444C137.185 496.925 118.601 507.877 86.2265 524.083L86.6742 524.977ZM171.067 482.351L171.486 483.259C327.724 411.262 427.212 393.771 597.495 367.388L597.342 366.399L597.189 365.411C426.858 391.802 327.147 409.326 170.649 481.443L171.067 482.351ZM597.342 366.399L597.495 367.388C675.993 355.219 777.757 350.019 859.925 347.862C901.003 346.784 937.172 346.467 963.072 346.42C976.021 346.396 986.403 346.439 993.547 346.489C997.119 346.514 999.882 346.54 1001.75 346.56C1002.69 346.57 1003.4 346.578 1003.87 346.584C1004.11 346.587 1004.29 346.59 1004.41 346.591C1004.47 346.592 1004.52 346.593 1004.55 346.593C1004.56 346.594 1004.58 346.594 1004.58 346.594C1004.59 346.594 1004.59 346.594 1004.59 346.594C1004.59 346.594 1004.6 346.594 1004.61 345.594C1004.62 344.594 1004.62 344.594 1004.62 344.594C1004.62 344.594 1004.62 344.594 1004.61 344.594C1004.6 344.594 1004.59 344.594 1004.58 344.593C1004.55 344.593 1004.5 344.592 1004.44 344.592C1004.32 344.59 1004.14 344.588 1003.9 344.585C1003.42 344.579 1002.71 344.57 1001.77 344.56C999.901 344.54 997.136 344.514 993.561 344.489C986.412 344.439 976.024 344.396 963.068 344.42C937.156 344.467 900.97 344.784 859.873 345.863C777.689 348.02 675.819 353.222 597.189 365.411L597.342 366.399ZM1004.61 345.594L1005.59 345.794C1008.13 333.349 1010.41 320.895 1012.19 308.181L1011.2 308.043L1010.21 307.904C1008.44 320.563 1006.16 332.974 1003.63 345.394L1004.61 345.594ZM1011.2 308.043C1011.19 307.043 1011.19 307.043 1011.19 307.043C1011.19 307.043 1011.18 307.043 1011.18 307.043C1011.17 307.043 1011.16 307.043 1011.14 307.043C1011.11 307.044 1011.06 307.044 1010.99 307.044C1010.86 307.046 1010.66 307.047 1010.4 307.049C1009.87 307.054 1009.09 307.061 1008.07 307.071C1006.02 307.091 1002.99 307.123 999.076 307.171C991.244 307.267 979.864 307.428 965.665 307.685C937.269 308.201 897.601 309.105 852.515 310.659C762.351 313.767 650.488 319.477 563.77 329.885L563.889 330.878L564.008 331.871C650.638 321.474 762.43 315.766 852.584 312.658C897.657 311.104 937.313 310.2 965.702 309.685C979.896 309.427 991.273 309.267 999.1 309.171C1003.01 309.123 1006.04 309.091 1008.09 309.071C1009.11 309.061 1009.89 309.054 1010.42 309.049C1010.68 309.047 1010.88 309.045 1011.01 309.044C1011.07 309.044 1011.12 309.044 1011.16 309.043C1011.17 309.043 1011.19 309.043 1011.19 309.043C1011.2 309.043 1011.2 309.043 1011.2 309.043C1011.2 309.043 1011.21 309.043 1011.2 308.043ZM0 278.865L-0.997233 278.939C1.54236 313.009 7.63717 346.058 16.5238 377.833L17.4869 377.563L18.4499 377.294C9.59629 345.637 3.5263 312.719 0.997233 278.79L0 278.865ZM17.4869 377.563L17.6945 378.541C211.288 337.444 330.361 317.154 532.805 299.144L532.717 298.148L532.628 297.152C330.086 315.17 210.932 335.475 17.2792 376.585L17.4869 377.563ZM532.717 298.148L532.805 299.144C626.157 290.901 746.317 287.349 843.156 285.859C891.572 285.114 934.152 284.884 964.628 284.84C979.866 284.818 992.077 284.843 1000.48 284.873C1004.68 284.888 1007.93 284.905 1010.13 284.917C1011.23 284.924 1012.06 284.929 1012.62 284.933C1012.9 284.935 1013.12 284.936 1013.26 284.938C1013.33 284.938 1013.38 284.938 1013.42 284.939C1013.44 284.939 1013.45 284.939 1013.46 284.939C1013.46 284.939 1013.47 284.939 1013.47 284.939C1013.47 284.939 1013.47 284.939 1013.48 283.939C1013.49 282.939 1013.49 282.939 1013.48 282.939C1013.48 282.939 1013.48 282.939 1013.47 282.939C1013.46 282.939 1013.45 282.939 1013.43 282.939C1013.4 282.938 1013.34 282.938 1013.27 282.938C1013.13 282.937 1012.92 282.935 1012.64 282.933C1012.07 282.929 1011.24 282.924 1010.14 282.918C1007.94 282.905 1004.69 282.888 1000.49 282.873C992.081 282.843 979.866 282.818 964.625 282.84C934.142 282.884 891.552 283.114 843.125 283.859C746.278 285.35 626.057 288.902 532.629 297.151L532.717 298.148ZM1013.48 283.939L1014.48 284.03C1015.24 275.638 1015.75 267.499 1016 259.104L1015 259.074L1014 259.044C1013.75 267.395 1013.24 275.495 1012.48 283.849L1013.48 283.939ZM1015 259.074L1015 258.074L568.193 259.85L568.197 260.85L568.201 261.85L1015 260.074L1015 259.074ZM568.197 260.85L568.166 259.851L-0.0316886 277.865L0 278.865L0.0316886 279.864L568.229 261.85L568.197 260.85Z" fill="#4064DF" fill-opacity="0.3" mask="url(#path-1-inside-1_1939_12500)"/>
</svg>
