<svg width="11" height="11" viewBox="0 0 11 11" fill="none" xmlns="http://www.w3.org/2000/svg">
<path d="M10.3965 10.4162C10.0266 10.8018 9.41574 10.8167 9.03086 10.4461C9.02093 10.4361 9.011 10.4262 9.00107 10.4162L3.44648 4.85246C3.15348 4.9793 2.83813 5.04645 2.51782 5.04894C1.13476 5.02904 0.0173814 3.90982 0 2.52447C0.00496611 2.17627 0.0819408 1.83055 0.228441 1.51468L0.300449 1.34556L1.79028 2.83785C2.06342 3.12636 2.5203 3.13631 2.80833 2.86273C2.81578 2.85526 2.82571 2.84531 2.83316 2.83785C3.1212 2.56427 3.13361 2.10911 2.86048 1.8206C2.85055 1.81065 2.84061 1.80071 2.83316 1.79324L1.34333 0.300947L1.51218 0.228819C1.82753 0.0820764 2.17267 0.00497433 2.5203 0C3.90336 0.0198973 5.02073 1.13912 5.03812 2.52447C5.03563 2.84531 4.96859 3.16118 4.84195 3.45467L10.3965 9.01845C10.7814 9.38904 10.7963 10.0009 10.4263 10.3864C10.4164 10.3963 10.4065 10.4063 10.3965 10.4162Z" fill="white"/>
</svg>
