<svg width="91" height="273" viewBox="0 0 91 273" fill="none" xmlns="http://www.w3.org/2000/svg">
<mask id="path-1-inside-1_2639_12775" fill="white">
<path d="M17.6033 19.0768C20.5869 25.133 25.659 28.1611 31.3279 30.4321C31.9246 30.8863 32.6705 31.3405 32.9689 31.9461C35.0574 36.6397 37.1459 41.7874 39.2344 46.4809C39.9803 48.4491 40.577 50.1146 41.323 52.2342C38.9361 49.0547 36.6984 46.4809 34.4607 43.907C30.582 39.2135 25.9574 35.7312 19.6918 34.8228C13.2771 33.6116 6.8623 34.2172 0.596725 36.034C0.596725 36.1854 0.298363 36.1854 0 36.4883C1.49181 38.9107 2.98361 41.3332 4.47542 43.6042C7.75739 47.8435 11.6361 51.4772 17.0066 53.294C24.4656 55.7165 32.2229 56.3221 39.9803 54.9595C40.7262 54.8081 41.323 54.6567 42.0689 54.5053C45.9475 65.8605 48.9311 76.913 50.8705 88.5711C49.5279 86.4514 48.1852 83.8776 46.8426 81.7579C43.4115 76.156 39.3836 71.6139 33.118 69.4942C28.1951 67.8288 23.4213 67.0718 18.3492 67.0718C16.7082 67.0718 15.0672 67.2232 13.1279 67.2232C14.1721 69.3428 14.7689 71.4625 15.5148 73.2793C17.9016 78.5784 20.8852 83.1205 25.8082 86.1486C31.6262 90.0851 38.1902 91.9019 45.0525 92.659C47.141 92.8104 49.5279 93.1132 51.7656 93.2646C53.7049 104.771 54.8984 116.581 55.0475 128.39C54.7492 127.936 54.6 127.482 54.4508 126.876C53.7049 124.756 52.8098 122.334 51.9148 120.063C49.3787 113.25 44.9033 107.951 38.1902 104.771C33.5656 102.803 28.6426 101.44 23.7197 100.683C22.8246 100.683 22.0787 100.532 21.0344 100.229V101.44C21.3328 102.5 21.482 103.863 21.7803 105.225C23.2721 112.039 25.9574 118.549 31.7754 123.091C38.041 128.087 45.0525 131.267 52.6607 132.932C53.5557 133.084 54.3016 133.084 55.1967 133.386C55.3459 145.499 54.4508 157.46 52.3623 169.269C51.4672 165.333 50.8705 161.699 49.9754 157.914C48.782 152.615 46.2459 148.073 42.218 144.439C37.1459 140.2 31.3279 137.323 25.0623 135.052C24.4656 135.052 23.7197 134.598 22.6754 134.446C22.8246 137.929 22.9738 140.805 23.2721 143.833C23.8689 149.284 25.3607 154.28 28.941 158.368C34.759 165.181 41.9197 170.48 50.5721 173.357C50.8705 173.357 51.1688 173.508 51.4672 173.811C49.3787 184.864 46.3951 195.613 42.5164 206.06C42.3672 204.092 42.5164 202.275 42.5164 200.458C42.5164 194.099 41.323 188.195 37.5934 183.198C34.4607 179.11 30.582 175.779 26.4049 173.206C24.1672 171.692 21.7803 170.48 19.3934 169.118C19.0951 170.178 18.9459 171.086 18.7967 171.843C17.4541 179.716 17.4541 187.286 21.482 194.251C24.7639 200.004 29.2393 204.849 34.4607 209.088C36.4 210.602 38.3393 211.814 40.4279 213.176C36.5492 223.169 32.2229 232.859 27.0016 242.246C27.0016 241.64 27.0016 241.337 27.0016 240.883C27.3 238.158 27.5984 235.432 27.8967 232.859C28.3443 228.014 27.4492 223.32 25.2115 219.081C22.5262 214.085 18.7967 209.694 14.4705 206.06C12.8295 204.698 11.3377 203.486 9.54755 201.972C7.30984 207.574 5.81804 212.873 5.81804 218.475C5.81804 221.655 5.96722 224.834 7.16066 227.862C10.2934 236.038 15.2164 243.305 21.9295 249.362C22.6754 249.816 22.5262 250.27 22.2279 251.027C17.7525 258.446 12.9787 265.562 7.90656 272.526C7.90656 272.526 8.80164 274.495 15.0672 270.407C16.4098 268.136 18.0508 266.016 19.3934 263.594C22.3771 258.9 25.2115 254.207 27.8967 249.513C28.4934 248.302 29.0902 247.999 30.4328 248.302C38.6377 250.119 46.9918 250.119 55.0475 247.848C61.0148 246.334 65.4902 242.548 69.518 238.158C71.159 236.189 72.6508 233.616 74.2918 231.647C74.441 231.193 74.441 231.042 74.7393 230.739C74.5902 230.588 74.2918 230.285 74.1426 230.285C67.5787 228.165 60.8656 226.954 54.0033 227.559C46.9918 228.014 41.4721 231.345 36.6984 236.189C35.5049 237.401 34.6098 238.309 33.2672 239.369C33.2672 238.915 33.5656 238.612 33.7148 238.158C38.041 229.528 41.9197 220.292 45.0525 211.057C45.3508 210.148 45.7984 209.845 46.6934 209.845C54.8984 210.451 62.8049 208.937 70.4131 205.606C76.2311 202.881 80.259 198.49 83.3918 193.191C84.8836 190.768 85.9279 187.892 87.4197 185.015C84.7344 185.015 82.1984 184.561 79.8115 184.561C75.0377 184.409 70.2639 184.712 65.7885 186.075C59.523 188.043 55.0475 191.828 51.318 196.976C50.423 198.036 49.6771 199.096 48.9311 200.307C51.1689 190.011 53.5557 179.867 55.9426 169.572C59.6721 168.664 63.7 167.907 67.4295 166.544C73.2475 164.576 78.618 161.699 82.9443 157.005C86.6738 152.918 90.5525 143.985 91 138.383H90.8508C82.6459 138.534 74.8885 140.048 67.877 144.439C63.7 147.013 60.8656 151.252 58.6279 155.794C58.0311 156.703 57.5836 157.762 56.9869 158.822C57.882 148.678 58.3295 138.534 57.5836 128.39C62.6557 126.876 67.2803 124.908 71.6066 122.031C77.7229 117.943 83.0934 113.098 85.3311 105.68C86.5246 101.743 87.2705 97.6553 87.4197 93.5674C87.4197 93.1132 87.4197 92.8104 87.4197 91.9019C83.6902 93.2646 80.4082 94.0216 77.1262 95.2328C72.6508 97.2011 68.3246 99.4721 65.0426 103.257C62.059 106.437 60.418 110.373 59.0754 114.461C58.4787 116.429 58.0311 118.246 57.1361 120.063C57.1361 119.457 57.1361 119.306 56.9869 118.7C56.3902 108.859 55.0475 99.1693 53.1082 89.4795C52.959 88.5711 53.1082 87.814 54.0033 87.3598C61.6115 83.5747 67.877 78.2756 72.6508 71.0083C75.9328 66.0119 76.6787 60.41 76.5295 54.5053C76.5295 52.2342 76.082 50.266 75.9328 47.5407C72.9492 49.0547 70.4131 50.266 68.0262 51.6286C62.8049 54.6567 58.3295 58.2904 55.1967 63.7409C52.8098 67.8288 52.2131 72.5223 51.7656 77.2158C51.7656 78.7298 51.7656 80.2439 51.318 81.4551C51.318 81.0009 51.1689 80.6981 50.8705 80.2439C48.4836 70.4026 45.5 60.5614 41.7705 51.023C41.323 50.1146 41.323 49.509 42.3672 49.0547C48.782 44.3612 53.8541 38.4565 57.2852 31.1891C60.1197 25.4358 60.1197 19.5311 58.9262 13.4749C58.4787 11.3553 57.882 9.23561 57.2852 6.96456C53.1082 9.38702 49.3787 12.4151 46.0967 16.0488C41.0246 21.4993 38.3393 27.7068 38.9361 35.5798C38.9361 38.4565 39.3836 41.3332 39.5328 44.664C39.2344 44.2098 39.0852 44.0584 39.0852 43.7556C36.9967 39.5163 35.0574 35.1256 32.9689 30.7349C32.8197 30.1293 32.6705 29.5237 32.8197 29.0695C32.9689 25.133 32.8197 21.1965 31.9246 17.4114C31.0295 14.5347 29.9852 11.5067 27.7475 9.38702C25.2115 6.66176 22.0787 4.54211 18.9459 2.72526C17.3049 1.51404 15.5148 0.757018 13.7246 0C13.4262 0 13.277 0.151404 12.9787 0.151404C12.9787 1.51404 13.4262 2.87667 13.4262 4.3907C13.7246 9.68983 14.918 14.8375 17.3049 19.3797L17.6033 19.0768Z"/>
</mask>
<path d="M17.6033 19.0768C20.5869 25.133 25.659 28.1611 31.3279 30.4321C31.9246 30.8863 32.6705 31.3405 32.9689 31.9461C35.0574 36.6397 37.1459 41.7874 39.2344 46.4809C39.9803 48.4491 40.577 50.1146 41.323 52.2342C38.9361 49.0547 36.6984 46.4809 34.4607 43.907C30.582 39.2135 25.9574 35.7312 19.6918 34.8228C13.2771 33.6116 6.8623 34.2172 0.596725 36.034C0.596725 36.1854 0.298363 36.1854 0 36.4883C1.49181 38.9107 2.98361 41.3332 4.47542 43.6042C7.75739 47.8435 11.6361 51.4772 17.0066 53.294C24.4656 55.7165 32.2229 56.3221 39.9803 54.9595C40.7262 54.8081 41.323 54.6567 42.0689 54.5053C45.9475 65.8605 48.9311 76.913 50.8705 88.5711C49.5279 86.4514 48.1852 83.8776 46.8426 81.7579C43.4115 76.156 39.3836 71.6139 33.118 69.4942C28.1951 67.8288 23.4213 67.0718 18.3492 67.0718C16.7082 67.0718 15.0672 67.2232 13.1279 67.2232C14.1721 69.3428 14.7689 71.4625 15.5148 73.2793C17.9016 78.5784 20.8852 83.1205 25.8082 86.1486C31.6262 90.0851 38.1902 91.9019 45.0525 92.659C47.141 92.8104 49.5279 93.1132 51.7656 93.2646C53.7049 104.771 54.8984 116.581 55.0475 128.39C54.7492 127.936 54.6 127.482 54.4508 126.876C53.7049 124.756 52.8098 122.334 51.9148 120.063C49.3787 113.25 44.9033 107.951 38.1902 104.771C33.5656 102.803 28.6426 101.44 23.7197 100.683C22.8246 100.683 22.0787 100.532 21.0344 100.229V101.44C21.3328 102.5 21.482 103.863 21.7803 105.225C23.2721 112.039 25.9574 118.549 31.7754 123.091C38.041 128.087 45.0525 131.267 52.6607 132.932C53.5557 133.084 54.3016 133.084 55.1967 133.386C55.3459 145.499 54.4508 157.46 52.3623 169.269C51.4672 165.333 50.8705 161.699 49.9754 157.914C48.782 152.615 46.2459 148.073 42.218 144.439C37.1459 140.2 31.3279 137.323 25.0623 135.052C24.4656 135.052 23.7197 134.598 22.6754 134.446C22.8246 137.929 22.9738 140.805 23.2721 143.833C23.8689 149.284 25.3607 154.28 28.941 158.368C34.759 165.181 41.9197 170.48 50.5721 173.357C50.8705 173.357 51.1688 173.508 51.4672 173.811C49.3787 184.864 46.3951 195.613 42.5164 206.06C42.3672 204.092 42.5164 202.275 42.5164 200.458C42.5164 194.099 41.323 188.195 37.5934 183.198C34.4607 179.11 30.582 175.779 26.4049 173.206C24.1672 171.692 21.7803 170.48 19.3934 169.118C19.0951 170.178 18.9459 171.086 18.7967 171.843C17.4541 179.716 17.4541 187.286 21.482 194.251C24.7639 200.004 29.2393 204.849 34.4607 209.088C36.4 210.602 38.3393 211.814 40.4279 213.176C36.5492 223.169 32.2229 232.859 27.0016 242.246C27.0016 241.64 27.0016 241.337 27.0016 240.883C27.3 238.158 27.5984 235.432 27.8967 232.859C28.3443 228.014 27.4492 223.32 25.2115 219.081C22.5262 214.085 18.7967 209.694 14.4705 206.06C12.8295 204.698 11.3377 203.486 9.54755 201.972C7.30984 207.574 5.81804 212.873 5.81804 218.475C5.81804 221.655 5.96722 224.834 7.16066 227.862C10.2934 236.038 15.2164 243.305 21.9295 249.362C22.6754 249.816 22.5262 250.27 22.2279 251.027C17.7525 258.446 12.9787 265.562 7.90656 272.526C7.90656 272.526 8.80164 274.495 15.0672 270.407C16.4098 268.136 18.0508 266.016 19.3934 263.594C22.3771 258.9 25.2115 254.207 27.8967 249.513C28.4934 248.302 29.0902 247.999 30.4328 248.302C38.6377 250.119 46.9918 250.119 55.0475 247.848C61.0148 246.334 65.4902 242.548 69.518 238.158C71.159 236.189 72.6508 233.616 74.2918 231.647C74.441 231.193 74.441 231.042 74.7393 230.739C74.5902 230.588 74.2918 230.285 74.1426 230.285C67.5787 228.165 60.8656 226.954 54.0033 227.559C46.9918 228.014 41.4721 231.345 36.6984 236.189C35.5049 237.401 34.6098 238.309 33.2672 239.369C33.2672 238.915 33.5656 238.612 33.7148 238.158C38.041 229.528 41.9197 220.292 45.0525 211.057C45.3508 210.148 45.7984 209.845 46.6934 209.845C54.8984 210.451 62.8049 208.937 70.4131 205.606C76.2311 202.881 80.259 198.49 83.3918 193.191C84.8836 190.768 85.9279 187.892 87.4197 185.015C84.7344 185.015 82.1984 184.561 79.8115 184.561C75.0377 184.409 70.2639 184.712 65.7885 186.075C59.523 188.043 55.0475 191.828 51.318 196.976C50.423 198.036 49.6771 199.096 48.9311 200.307C51.1689 190.011 53.5557 179.867 55.9426 169.572C59.6721 168.664 63.7 167.907 67.4295 166.544C73.2475 164.576 78.618 161.699 82.9443 157.005C86.6738 152.918 90.5525 143.985 91 138.383H90.8508C82.6459 138.534 74.8885 140.048 67.877 144.439C63.7 147.013 60.8656 151.252 58.6279 155.794C58.0311 156.703 57.5836 157.762 56.9869 158.822C57.882 148.678 58.3295 138.534 57.5836 128.39C62.6557 126.876 67.2803 124.908 71.6066 122.031C77.7229 117.943 83.0934 113.098 85.3311 105.68C86.5246 101.743 87.2705 97.6553 87.4197 93.5674C87.4197 93.1132 87.4197 92.8104 87.4197 91.9019C83.6902 93.2646 80.4082 94.0216 77.1262 95.2328C72.6508 97.2011 68.3246 99.4721 65.0426 103.257C62.059 106.437 60.418 110.373 59.0754 114.461C58.4787 116.429 58.0311 118.246 57.1361 120.063C57.1361 119.457 57.1361 119.306 56.9869 118.7C56.3902 108.859 55.0475 99.1693 53.1082 89.4795C52.959 88.5711 53.1082 87.814 54.0033 87.3598C61.6115 83.5747 67.877 78.2756 72.6508 71.0083C75.9328 66.0119 76.6787 60.41 76.5295 54.5053C76.5295 52.2342 76.082 50.266 75.9328 47.5407C72.9492 49.0547 70.4131 50.266 68.0262 51.6286C62.8049 54.6567 58.3295 58.2904 55.1967 63.7409C52.8098 67.8288 52.2131 72.5223 51.7656 77.2158C51.7656 78.7298 51.7656 80.2439 51.318 81.4551C51.318 81.0009 51.1689 80.6981 50.8705 80.2439C48.4836 70.4026 45.5 60.5614 41.7705 51.023C41.323 50.1146 41.323 49.509 42.3672 49.0547C48.782 44.3612 53.8541 38.4565 57.2852 31.1891C60.1197 25.4358 60.1197 19.5311 58.9262 13.4749C58.4787 11.3553 57.882 9.23561 57.2852 6.96456C53.1082 9.38702 49.3787 12.4151 46.0967 16.0488C41.0246 21.4993 38.3393 27.7068 38.9361 35.5798C38.9361 38.4565 39.3836 41.3332 39.5328 44.664C39.2344 44.2098 39.0852 44.0584 39.0852 43.7556C36.9967 39.5163 35.0574 35.1256 32.9689 30.7349C32.8197 30.1293 32.6705 29.5237 32.8197 29.0695C32.9689 25.133 32.8197 21.1965 31.9246 17.4114C31.0295 14.5347 29.9852 11.5067 27.7475 9.38702C25.2115 6.66176 22.0787 4.54211 18.9459 2.72526C17.3049 1.51404 15.5148 0.757018 13.7246 0C13.4262 0 13.277 0.151404 12.9787 0.151404C12.9787 1.51404 13.4262 2.87667 13.4262 4.3907C13.7246 9.68983 14.918 14.8375 17.3049 19.3797L17.6033 19.0768Z" fill="#4064DF" fill-opacity="0.02" stroke="#4064DF" stroke-opacity="0.15" stroke-width="2" mask="url(#path-1-inside-1_2639_12775)"/>
</svg>
