<svg width="7" height="21" viewBox="0 0 7 21" fill="none" xmlns="http://www.w3.org/2000/svg">
<path d="M5.97947 11.7612L2.40995 7.85604L6.10471 1.78131C6.25083 1.5301 6.31346 1.23322 6.25083 0.913493C6.18821 0.616608 6.04209 0.365397 5.81247 0.182698C5.64548 0.0456745 5.43673 0 5.22799 0C5.16537 0 5.08187 0 5.01924 0C4.74788 0.068512 4.51826 0.228373 4.35126 0.479584L0.176389 7.33078C-0.094978 7.78753 -0.0532303 8.3813 0.301634 8.76953L3.87115 12.6747L0.176389 18.7494C0.0302683 19.0007 -0.0323542 19.2975 0.0302689 19.6173C0.0928921 19.9142 0.239011 20.1654 0.468629 20.3481C0.94874 20.6906 1.61672 20.5308 1.90896 20.0283L6.08384 13.1771C6.35521 12.7204 6.31346 12.1266 5.95859 11.7384L5.97947 11.7612Z" fill="#747DA1"/>
</svg>
