<svg width="141" height="33" viewBox="0 0 141 33" fill="none" xmlns="http://www.w3.org/2000/svg">
<g clip-path="url(#clip0_1400_7833)">
<path fill-rule="evenodd" clip-rule="evenodd" d="M2.75092 3.04831C4.56008 1.16976 7.10282 0 9.91817 0C14.5328 0 18.4138 3.14249 19.5389 7.40517C19.5389 7.40517 16.0545 7.45969 13.8537 7.15734C11.4151 6.82029 10.0223 6.52785 7.72735 5.64062C5.68523 4.85252 2.75587 3.04831 2.75587 3.04831M19.7719 8.59476C19.7372 8.34693 19.6976 8.10405 19.643 7.86118C19.643 7.86118 14.7509 7.93057 11.6778 7.45474C8.34693 6.93925 6.40394 6.59725 3.34075 5.18957C2.68648 4.88722 2.32465 4.66912 1.6902 4.35686C1.35315 4.84756 1.06071 5.37296 0.81784 5.92315C0.81784 5.92315 2.75587 6.57742 4.01485 6.91447C6.69638 7.62822 8.26762 7.82153 11.0185 8.14866C14.4089 8.55511 19.767 8.59476 19.767 8.59476M11.1127 9.51669L19.8512 9.55634C19.8463 9.39277 19.8363 9.2292 19.8215 9.06564C19.8215 9.06564 14.0718 9.11024 10.4188 8.78807C6.45846 8.43615 4.1239 8.03962 0.342006 7.23665C0.168525 7.85622 0.0495661 8.50058 0 9.16477L11.1127 9.51669ZM2.75092 16.5848C4.56008 18.4634 7.10282 19.6331 9.91322 19.6331C14.5278 19.6331 18.4088 16.4906 19.534 12.228C19.534 12.228 16.0495 12.1734 13.8488 12.4758C11.4101 12.8128 10.0173 13.1053 7.7224 13.9925C5.68027 14.7806 2.75092 16.5848 2.75092 16.5848ZM11.0235 11.4845C8.26762 11.8166 6.70133 12.0049 4.01981 12.7187C2.75587 13.0557 0.822797 13.71 0.822797 13.71C1.06567 14.2602 1.35811 14.7856 1.69516 15.2763C2.32961 14.959 2.69144 14.7459 3.34571 14.4436C6.40394 13.0359 8.35188 12.6939 11.6827 12.1784C14.7558 11.7026 19.648 11.7719 19.648 11.7719C19.6976 11.5291 19.7422 11.2862 19.7769 11.0384C19.7769 11.0384 14.4188 11.078 11.0285 11.4845M0 10.4684C0.0495661 11.1325 0.168525 11.7769 0.342006 12.3965C4.12885 11.5935 6.45846 11.197 10.4188 10.8451C14.0718 10.5229 19.8215 10.5675 19.8215 10.5675C19.8363 10.4039 19.8463 10.2453 19.8512 10.0817L11.1127 10.1164L0 10.4684Z" fill="#E42313"/>
<path d="M31.4846 19.0779C37.0955 19.0779 41.8736 15.0977 43.207 10.1163C43.891 7.57359 43.5044 5.18451 42.1264 3.39021C40.808 1.67523 38.7411 0.728516 36.3024 0.728516C31.3111 0.728516 26.1662 4.78302 24.8279 9.76441L20.7783 24.8821L25.8638 22.2402L29.1104 10.1213C29.8588 7.33072 32.7287 5.06059 35.5094 5.06059C36.7436 5.06059 37.7745 5.52155 38.4139 6.35427C39.093 7.2415 39.2764 8.45091 38.9245 9.76441C38.176 12.555 35.2714 14.9044 32.5255 14.8251C29.7795 14.7458 29.1054 13.6306 29.1054 13.6306L27.9654 17.7545C27.9654 17.7545 28.6841 19.0878 31.4846 19.0878" fill="white"/>
<path fill-rule="evenodd" clip-rule="evenodd" d="M138.775 0.685547C137.833 0.685547 137.035 1.40921 137.035 2.39062C137.035 3.37203 137.833 4.10561 138.775 4.10561C139.717 4.10561 140.505 3.38194 140.505 2.39062C140.505 1.3993 139.707 0.685547 138.775 0.685547ZM138.775 3.82308C137.992 3.82308 137.382 3.21837 137.382 2.39558C137.382 1.57278 137.992 0.97303 138.775 0.97303C139.558 0.97303 140.158 1.58269 140.158 2.39558C140.158 3.20846 139.548 3.82308 138.775 3.82308ZM139.563 1.97426C139.563 1.58269 139.33 1.41417 138.864 1.41417H138.111V3.3869H138.408V2.5294H138.75L139.271 3.3869H139.608L139.048 2.51949C139.335 2.4848 139.558 2.33114 139.558 1.97426M138.413 2.27662V1.66696H138.82C139.028 1.66696 139.251 1.71156 139.251 1.95444C139.251 2.25679 139.023 2.27662 138.77 2.27662H138.413Z" fill="white"/>
<path fill-rule="evenodd" clip-rule="evenodd" d="M48.7533 7.74389C50.0569 6.05368 52.0792 4.9434 53.9974 4.9434H56.5253L56.6591 4.43287L57.4522 1.47873L57.6851 0.611328H54.7905C49.7992 0.611328 44.6542 4.66583 43.3159 9.64722C42.6319 12.19 43.0185 14.579 44.3915 16.3733C45.7099 18.0883 47.7769 19.035 50.2155 19.035H52.7434L52.8772 18.5245L53.6703 15.5704L53.9032 14.703H51.0086C49.1597 14.703 47.8215 13.667 47.4993 12.0561H47.5142H54.0618H54.5872L54.726 11.5456L55.5191 8.59147L55.752 7.72406H48.7781L48.7533 7.74389Z" fill="white"/>
<path fill-rule="evenodd" clip-rule="evenodd" d="M60.773 14.7021L59.2067 14.7169L59.3058 14.6872L60.9068 8.55091L61.1398 7.68351H56.7631L56.6243 8.19404L53.9527 18.1667L53.7197 19.0341H59.9898C64.9811 19.0341 70.1261 14.9796 71.4644 9.99824C72.1434 7.4555 71.7618 5.06642 70.3838 3.26717C69.0654 1.55218 66.9985 0.605469 64.5598 0.605469H58.6615L58.5227 1.116L57.7296 4.07014L57.4967 4.93754H63.7668C64.9911 4.93754 66.0121 5.39355 66.6466 6.21635C67.3256 7.10358 67.5041 8.31795 67.1521 9.64137C66.4037 12.4319 63.5338 14.7021 60.7532 14.7021" fill="white"/>
<path fill-rule="evenodd" clip-rule="evenodd" d="M83.6583 6.53779C84.0796 4.95663 83.8367 3.46965 82.9792 2.3445C82.1564 1.26396 80.8677 0.669167 79.351 0.669167L73.9235 0.654297L72.7686 4.98142H78.5728C78.895 4.98142 79.1478 5.0855 79.3064 5.28873C79.4749 5.50682 79.5146 5.82404 79.4204 6.18091C79.1924 7.02849 78.3002 7.74225 77.4675 7.74225H77.4377L72.1342 7.75216L69.0908 19.1474H73.4626L75.3609 12.0347H76.0846L78.2903 19.1474H82.9396L80.4216 10.8649C80.4216 10.8649 83.1577 8.41634 83.6583 6.53779Z" fill="white"/>
<path fill-rule="evenodd" clip-rule="evenodd" d="M109.749 9.66104C109.07 12.2038 109.452 14.5929 110.825 16.3872C112.143 18.1021 114.21 19.0687 116.649 19.0687H117.719L118.884 14.7217H117.437C116.203 14.7217 115.172 14.2608 114.532 13.4281C113.853 12.5408 113.675 11.3314 114.022 10.0179L116.54 0.615234H112.163L109.739 9.66104H109.749Z" fill="white"/>
<path fill-rule="evenodd" clip-rule="evenodd" d="M100.719 9.6669C100.04 12.2096 100.422 14.5987 101.795 16.393C103.113 18.108 105.18 19.0547 107.619 19.0547L107.455 19.0349L107.619 19.0745H108.689L109.854 14.7276H108.407C107.172 14.7276 106.142 14.2666 105.502 13.4339C104.823 12.5467 104.64 11.3373 104.992 10.0238L107.51 0.621094H103.133L100.709 9.6669H100.719Z" fill="white"/>
<path fill-rule="evenodd" clip-rule="evenodd" d="M135.94 3.316C134.622 1.60101 132.555 0.654297 130.116 0.654297C125.13 0.654297 119.985 4.70385 118.652 9.68028C117.973 12.223 118.354 14.6121 119.727 16.4064C121.046 18.1214 123.113 19.0681 125.551 19.0681C130.538 19.0681 135.682 15.0185 137.016 10.0421C137.695 7.49937 137.313 5.11029 135.94 3.316ZM132.738 9.68524C131.99 12.4758 129.125 14.741 126.344 14.741C125.11 14.741 124.079 14.28 123.44 13.4473C122.761 12.5601 122.582 11.3507 122.934 10.0372C123.683 7.24659 126.547 4.98142 129.328 4.98142C130.562 4.98142 131.593 5.44238 132.233 6.27509C132.912 7.16232 133.095 8.37174 132.743 9.68524" fill="white"/>
<path fill-rule="evenodd" clip-rule="evenodd" d="M99.5838 3.35115C98.2653 1.63617 96.1984 0.689453 93.7598 0.689453C88.7734 0.689453 83.6285 4.739 82.2952 9.71544C81.6161 12.2582 81.9978 14.6473 83.3707 16.4416C84.6892 18.1565 86.7561 19.1033 89.1947 19.1033C94.1811 19.1033 99.3261 15.0537 100.659 10.0773C101.338 7.53453 100.957 5.14544 99.5838 3.35115ZM96.3818 9.72039C95.6334 12.511 92.7635 14.7761 89.9878 14.7761C88.7536 14.7761 87.7226 14.3152 87.0832 13.4825C86.4042 12.5952 86.2208 11.3858 86.5727 10.0723C87.3212 7.28174 90.191 5.01657 92.9667 5.01657C94.196 5.01657 95.2319 5.47754 95.8713 6.31025C96.5504 7.19748 96.7288 8.40689 96.3818 9.72039Z" fill="white"/>
<path d="M132.074 28.0253C132.074 28.0253 132.515 26.4491 132.169 25.6957C131.95 25.2743 131.44 24.9869 130.83 24.9373C130.335 24.8976 129.576 24.9968 128.758 25.6957C128.253 26.1219 127.827 26.8258 127.594 27.6188C127.366 28.3871 127.361 29.1008 127.574 29.5321C127.841 30.0575 128.436 30.3697 129.165 30.3697C129.893 30.3697 130.597 30.0872 131.083 29.6163C131.489 29.2595 131.891 28.4614 131.891 28.4614H130.875C130.875 28.4614 130.191 29.4825 129.343 29.4825C128.833 29.4825 128.639 29.2099 128.515 28.9422C128.392 28.5903 128.525 28.0203 128.525 28.0203H132.074V28.0253ZM129.472 26.1963L129.482 26.1864C129.774 25.8989 130.186 25.7502 130.582 25.7898C130.954 25.8245 131.133 26.0228 131.217 26.1566C131.306 26.2904 131.38 26.7465 131.271 27.138C130.979 27.138 129.75 27.138 128.818 27.138C128.709 27.138 129.338 26.2904 129.467 26.1963M79.5789 27.8964C79.5789 27.8964 80.02 26.3846 79.6731 25.6659C79.455 25.2644 78.9445 24.9869 78.3348 24.9422C77.8391 24.9026 77.0808 25.0017 76.2629 25.6709C75.7574 26.0823 75.3311 26.7564 75.0981 27.5147C74.8701 28.2483 74.8652 28.9373 75.0783 29.3487C75.346 29.8542 75.9408 30.1516 76.6694 30.1516C77.398 30.1516 78.1018 29.884 78.5876 29.428C78.994 29.086 79.3955 28.3177 79.3955 28.3177H78.3794C78.3794 28.3177 77.6954 29.2941 76.8478 29.2941C76.3373 29.2941 76.144 29.0314 76.0201 28.7737C75.8961 28.4367 76.03 27.8914 76.03 27.8914H79.5789V27.8964ZM76.9767 26.1417L76.9866 26.1318C77.279 25.8543 77.6904 25.7155 78.0919 25.7502C78.4637 25.7849 78.6421 25.9732 78.7264 26.1021C78.8156 26.231 78.8899 26.6671 78.7809 27.0439C78.4885 27.0439 77.2592 27.0439 76.3274 27.0439C76.2183 27.0439 76.8478 26.231 76.9767 26.1417ZM91.5888 25.1405C91.3459 25.0067 91.0039 24.9323 90.6173 24.9323C90.2604 24.9323 89.9184 25.0017 89.6805 25.1207C89.4673 25.2248 89.0956 25.4676 89.0956 25.4726L89.1005 25.4577L89.2096 25.0612H88.3124L86.3496 31.7824L86.31 31.9112H87.3063L87.3261 31.8369L87.9754 29.6262C88.0349 29.7055 88.1092 29.7849 88.2034 29.8542C88.2976 29.9236 88.6495 30.1616 89.2393 30.1616C89.8292 30.1616 90.3794 29.9484 90.9097 29.5321C91.5243 29.0612 92.0398 28.1789 92.2133 27.2768C92.4215 26.2805 92.1836 25.4825 91.5788 25.1455M90.3843 28.7638C90.0968 29.0414 89.7052 29.2 89.3087 29.1901C88.9667 29.1801 88.6842 29.0315 88.5652 28.8034C88.4066 28.4714 88.3868 27.2818 89.2641 26.3152C89.5169 26.0426 89.8986 25.8691 90.2802 25.8394C90.6569 25.8146 90.9543 25.9534 91.0733 26.2062C91.4252 26.9645 90.9097 28.2582 90.3843 28.7638ZM107.177 25.0711C107.177 25.0711 107.103 25.3289 107.053 25.5271C106.801 25.1504 106.419 24.9472 105.908 24.9323C105.11 24.9076 104.278 25.5073 104.05 25.7204C103.524 26.2508 103.128 27.0934 102.89 27.8964C102.483 29.2842 103.326 30.345 104.223 30.3648C104.868 30.3747 105.423 30.0624 105.849 29.7452C105.715 30.0525 105.581 30.8604 104.803 31.1628C104.585 31.2471 104.347 31.2817 104.104 31.2817C103.896 31.2817 103.723 31.2371 103.579 31.1826C103.128 31.0091 103.301 30.4936 103.301 30.4936H102.315C102.315 30.4936 101.953 31.599 103.009 32.0302C103.296 32.1492 103.658 32.2433 104.114 32.1789C105.908 32.0649 106.459 30.8456 106.989 29.2495L108.169 25.0711H107.172H107.177ZM105.646 29.0661C105.328 29.3288 104.957 29.4577 104.635 29.423C104.302 29.4032 104.055 29.2396 103.931 28.9571C103.812 28.6647 103.837 28.2285 103.995 27.7229C104.139 27.2768 104.367 26.8605 104.521 26.6622C104.942 26.1021 105.418 25.993 105.745 25.998C106.122 26.0079 106.389 26.1864 106.419 26.2607V26.2706L106.429 26.2805C106.786 26.8059 106.419 28.4218 105.641 29.0711M115.237 25.5271C114.865 25.0364 114.255 24.9323 113.809 24.9323C113.125 24.9323 111.46 25.195 110.776 27.6139C110.508 28.5705 110.553 29.2942 110.91 29.77C111.202 30.1516 111.708 30.3648 112.337 30.3648C113.021 30.3648 114.692 30.1021 115.376 27.6733C115.643 26.7217 115.599 25.998 115.242 25.5271M114.374 27.6139C114.136 28.4614 113.462 29.3735 112.555 29.3735C112.253 29.3735 112.025 29.2743 111.876 29.081C111.609 28.7241 111.648 28.1194 111.772 27.6733C112.01 26.8307 112.679 25.9237 113.586 25.9237C113.894 25.9237 114.121 26.0228 114.27 26.2161C114.538 26.568 114.493 27.1678 114.369 27.6139M68.2283 29.0215C68.2184 29.0562 68.2134 29.1058 68.2283 29.1306C68.2531 29.1603 68.3621 29.2198 68.8082 29.1455L68.9718 29.1157L68.714 30.0674C68.714 30.0674 68.0796 30.1665 67.7574 30.1368C67.4699 30.107 67.3212 29.9583 67.2469 29.8443C67.1279 29.6609 67.118 29.428 67.1576 29.2793L68.1638 25.5618H67.4848L67.7475 24.5903H68.4166L68.7983 23.2124H69.7946L69.4278 24.5903H70.196L69.9333 25.5618H69.1651L68.2332 29.0166L68.2283 29.0215ZM74.6421 26.3846V26.3747L73.5765 30.1516H72.5802C72.5802 30.1516 73.5566 26.6969 73.5566 26.6919C73.7499 26.1219 73.5269 26.0079 73.4426 25.9683C73.1898 25.8394 72.9668 25.8047 72.719 25.8493C72.491 25.889 72.2283 26.0129 71.8763 26.2458C71.6731 26.4044 71.5244 26.5234 71.4104 26.915L70.4934 30.1516H69.4972L71.4649 23.1777H72.4612L71.8069 25.4974C71.8069 25.4974 72.0647 25.2595 72.5901 25.0662C72.8577 24.9769 73.0957 24.9323 73.3187 24.9323C73.6012 24.9323 73.8689 24.9918 74.0969 25.1058C74.3348 25.2 74.5033 25.3586 74.6025 25.5817C74.7413 25.9038 74.6818 26.2657 74.6322 26.3846M86.8949 25.4082C87.108 25.6857 87.1526 26.0773 87.0188 26.5631L86.9989 26.6424H86.0175C86.0175 26.6424 86.1266 26.2012 86.0374 26.0823C85.9283 25.9385 85.6656 25.8642 85.2641 25.8642C84.818 25.8642 84.4265 26.112 84.2579 26.34C84.1687 26.4639 84.1291 26.5878 84.1489 26.6919C84.1638 26.7613 84.2034 26.8158 84.2728 26.8555C84.476 26.9893 84.7982 27.0736 85.2096 27.1826C85.2096 27.1826 85.279 27.2025 85.2691 27.1975C85.621 27.257 86.0225 27.3512 86.3298 27.5841C86.7015 27.8468 86.7908 28.3574 86.5528 28.9125C86.3248 29.4528 85.854 29.9137 85.2939 30.1368C85.0213 30.2458 84.6842 30.3152 84.3075 30.3499C83.9804 30.3499 83.6384 30.3499 83.3658 30.2805C82.9841 30.1863 82.7115 30.0029 82.5578 29.7402C82.3843 29.4428 82.3645 29.0562 82.5033 28.5655L82.5231 28.4862H83.4698L83.4401 28.6151C83.3459 29.0364 83.5045 29.2892 83.9457 29.4379C84.0944 29.4875 84.3372 29.4875 84.5702 29.4875C84.8131 29.428 85.0659 29.3635 85.2047 29.2793C85.4029 29.1603 85.5764 28.9422 85.6309 28.7489C85.6954 28.511 85.6061 28.3524 85.3534 28.2582L84.942 28.1541C84.4562 28.0352 83.9506 27.9113 83.6631 27.7576C83.3311 27.6188 82.994 27.2818 83.2319 26.4491C83.5293 25.3983 84.6346 24.9175 85.5368 24.9175C86.196 24.9175 86.652 25.0761 86.8949 25.3933M95.108 26.0624C94.5033 26.3301 94.1414 26.7514 93.9184 27.5445L93.1798 30.1516H92.1836L93.621 25.0711H94.6173L94.4834 25.5519C94.4834 25.5519 94.9147 24.967 95.6433 24.9323H96.2182L95.9258 25.9584C95.9258 25.9584 95.6482 25.8245 95.1129 26.0624M97.8143 25.0711L96.3769 30.1516H95.3806L96.818 25.0711H97.8143ZM98.0175 24.3524H97.0212L97.3533 23.1777H98.3496L98.0175 24.3524ZM102.662 26.2756V26.2855V26.2904L101.571 30.1516H100.575L101.571 26.6325C101.641 26.3995 101.626 26.2062 101.527 26.0724C101.423 25.9286 101.219 25.8493 100.962 25.8493C100.659 25.8493 99.6532 25.9683 99.2418 27.4899L98.4884 30.1566H97.4921L98.9245 25.0761H99.9208L99.8167 25.4478L100.258 25.1752C100.615 24.9522 101.091 24.9323 101.343 24.9373C101.671 24.9472 102.013 25.0067 102.156 25.086C102.359 25.2149 102.776 25.4825 102.667 26.2855M119.341 23.1876L119.45 23.2124L119.212 24.055L119.123 24.0451C118.667 23.9906 118.429 24.0451 118.3 24.4862L118.136 25.0662H118.915L118.652 25.9881H117.874L116.699 30.1417H115.703L116.872 25.9881H116.218L116.481 25.0612H117.14L117.348 24.3128C117.571 23.5147 118.335 23.1876 118.513 23.1727C118.791 23.1232 119.058 23.1232 119.341 23.1827M123.594 23.3115L121.685 30.0723L121.665 30.1467H120.669L120.709 30.0129L122.617 23.252L122.637 23.1777H123.633L123.594 23.3115ZM125.105 25.2049L123.727 30.0723L123.708 30.1467H122.711L122.751 30.0129L124.129 25.1455L124.149 25.0711H125.145L125.105 25.2049ZM124.486 24.3524H124.347L124.387 24.2186L124.659 23.252L124.679 23.1777H125.675L125.636 23.3115L125.363 24.2781L125.343 24.3574H124.486V24.3524ZM128.734 23.2322L128.496 24.0748L128.406 24.0649C127.95 24.0104 127.713 24.0649 127.584 24.5061L127.425 25.0662H128.203L127.941 25.9881H127.162L125.988 30.1417H124.991L126.161 25.9881H125.507L125.77 25.0612H126.429L126.632 24.3326C126.86 23.5346 127.618 23.2074 127.797 23.1926C128.074 23.143 128.342 23.143 128.62 23.2025L128.734 23.2273V23.2322Z" fill="white"/>
</g>
<defs>
<clipPath id="clip0_1400_7833">
<rect width="140.5" height="32.2031" fill="white"/>
</clipPath>
</defs>
</svg>
