<svg width="655" height="33" viewBox="0 0 655 33" fill="none" xmlns="http://www.w3.org/2000/svg">
<g clip-path="url(#clip0_2648_12943)">
<path fill-rule="evenodd" clip-rule="evenodd" d="M260.166 3.04082C261.971 1.16688 264.507 0 267.316 0C271.919 0 275.79 3.13476 276.913 7.38696C276.913 7.38696 273.437 7.44135 271.242 7.13974C268.809 6.80352 267.419 6.5118 265.13 5.62675C263.093 4.84059 260.171 3.04082 260.171 3.04082M277.145 8.57362C277.111 8.3264 277.071 8.08413 277.017 7.84185C277.017 7.84185 272.136 7.91107 269.071 7.43641C265.748 6.92219 263.81 6.58102 260.754 5.17681C260.102 4.8752 259.741 4.65764 259.108 4.34615C258.772 4.83564 258.48 5.35975 258.238 5.90858C258.238 5.90858 260.171 6.56125 261.427 6.89747C264.102 7.60946 265.669 7.8023 268.413 8.12863C271.795 8.53407 277.14 8.57362 277.14 8.57362M268.507 9.49329L277.224 9.53284C277.219 9.36968 277.209 9.20651 277.195 9.04334C277.195 9.04334 271.459 9.08784 267.815 8.76646C263.864 8.4154 261.536 8.01985 257.763 7.21885C257.59 7.83691 257.471 8.47968 257.422 9.14223L268.507 9.49329ZM260.166 16.544C261.971 18.418 264.507 19.5848 267.311 19.5848C271.914 19.5848 275.785 16.4501 276.908 12.1979C276.908 12.1979 273.432 12.1435 271.237 12.4451C268.804 12.7813 267.415 13.073 265.125 13.9581C263.088 14.7443 260.166 16.544 260.166 16.544ZM268.418 11.4562C265.669 11.7875 264.107 11.9754 261.432 12.6874C260.171 13.0236 258.243 13.6763 258.243 13.6763C258.485 14.2251 258.777 14.7492 259.113 15.2387C259.746 14.9223 260.107 14.7097 260.759 14.408C263.81 13.0038 265.753 12.6627 269.076 12.1484C272.141 11.6738 277.022 11.743 277.022 11.743C277.071 11.5007 277.116 11.2584 277.15 11.0112C277.15 11.0112 271.805 11.0508 268.423 11.4562M257.422 10.4426C257.471 11.1052 257.59 11.7479 257.763 12.366C261.541 11.565 263.864 11.1694 267.815 10.8184C271.459 10.497 277.195 10.5415 277.195 10.5415C277.209 10.3783 277.219 10.2201 277.224 10.057L268.507 10.0916L257.422 10.4426Z" fill="#E42313"/>
<path d="M288.828 19.0311C294.425 19.0311 299.192 15.0607 300.522 10.0916C301.204 7.55508 300.819 5.17187 299.444 3.38199C298.129 1.67122 296.067 0.726837 293.634 0.726837C288.655 0.726837 283.523 4.77137 282.188 9.74051L278.148 24.821L283.221 22.1856L286.46 10.0965C287.207 7.3128 290.069 5.04826 292.843 5.04826C294.074 5.04826 295.103 5.50809 295.741 6.33875C296.418 7.2238 296.601 8.43024 296.25 9.74051C295.503 12.5242 292.606 14.8679 289.867 14.7888C287.128 14.7097 286.455 13.5972 286.455 13.5972L285.318 17.7109C285.318 17.7109 286.035 19.041 288.828 19.041" fill="white"/>
<path fill-rule="evenodd" clip-rule="evenodd" d="M395.855 0.682343C394.915 0.682343 394.119 1.40423 394.119 2.38322C394.119 3.36222 394.915 4.09399 395.855 4.09399C396.794 4.09399 397.58 3.37211 397.58 2.38322C397.58 1.39434 396.784 0.682343 395.855 0.682343ZM395.855 3.81216C395.073 3.81216 394.465 3.20894 394.465 2.38817C394.465 1.56739 395.073 0.969119 395.855 0.969119C396.636 0.969119 397.234 1.57728 397.234 2.38817C397.234 3.19905 396.626 3.81216 395.855 3.81216ZM396.641 1.96789C396.641 1.57728 396.408 1.40917 395.944 1.40917H395.192V3.37705H395.489V2.52167H395.83L396.349 3.37705H396.685L396.127 2.51178C396.413 2.47717 396.636 2.32389 396.636 1.96789M395.494 2.2695V1.66134H395.899C396.107 1.66134 396.329 1.70584 396.329 1.94811C396.329 2.24972 396.102 2.2695 395.85 2.2695H395.494Z" fill="white"/>
<path fill-rule="evenodd" clip-rule="evenodd" d="M306.055 7.72319C307.355 6.03714 309.372 4.92959 311.286 4.92959H313.807L313.941 4.42032L314.732 1.47344L314.964 0.60817H312.077C307.098 0.60817 301.966 4.6527 300.631 9.62185C299.948 12.1583 300.334 14.5415 301.703 16.3314C303.019 18.0422 305.081 18.9866 307.513 18.9866H310.035L310.168 18.4773L310.959 15.5304L311.192 14.6652H308.304C306.46 14.6652 305.125 13.6318 304.804 12.0248H304.818H311.35H311.874L312.013 11.5156L312.804 8.56869L313.036 7.70341H306.079L306.055 7.72319Z" fill="white"/>
<path fill-rule="evenodd" clip-rule="evenodd" d="M318.046 14.6652L316.483 14.68L316.582 14.6503L318.179 8.52913L318.412 7.66386H314.046L313.907 8.17313L311.242 18.1213L311.01 18.9866H317.264C322.243 18.9866 327.376 14.942 328.711 9.9729C329.388 7.43641 329.007 5.0532 327.633 3.25838C326.318 1.54761 324.256 0.603226 321.823 0.603226H315.939L315.801 1.1125L315.01 4.05937L314.777 4.92465H321.032C322.253 4.92465 323.272 5.37953 323.905 6.20031C324.582 7.08536 324.76 8.29674 324.409 9.6169C323.663 12.4006 320.8 14.6652 318.026 14.6652" fill="white"/>
<path fill-rule="evenodd" clip-rule="evenodd" d="M340.873 6.52169C341.294 4.94442 341.051 3.4611 340.196 2.33871C339.375 1.26083 338.09 0.667497 336.577 0.667497L331.163 0.652664L330.011 4.96914H335.8C336.122 4.96914 336.374 5.07298 336.532 5.2757C336.7 5.49325 336.74 5.8097 336.646 6.16569C336.419 7.01119 335.529 7.72319 334.698 7.72319H334.668L329.378 7.73308L326.342 19.1003H330.703L332.596 12.0051H333.318L335.519 19.1003H340.157L337.645 10.8382C337.645 10.8382 340.374 8.39563 340.873 6.52169Z" fill="white"/>
<path fill-rule="evenodd" clip-rule="evenodd" d="M366.902 9.63668C366.224 12.1732 366.605 14.5564 367.975 16.3463C369.29 18.057 371.352 19.0212 373.784 19.0212H374.852L376.014 14.6849H374.571C373.339 14.6849 372.311 14.2251 371.673 13.3944C370.996 12.5094 370.818 11.3029 371.164 9.99268L373.676 0.613113H369.31L366.892 9.63668H366.902Z" fill="white"/>
<path fill-rule="evenodd" clip-rule="evenodd" d="M357.892 9.64162C357.215 12.1781 357.595 14.5613 358.965 16.3512C360.28 18.062 362.342 19.0064 364.775 19.0064L364.611 18.9866L364.775 19.0261H365.843L367.005 14.6899H365.561C364.33 14.6899 363.301 14.23 362.663 13.3994C361.986 12.5143 361.803 11.3079 362.154 9.99762L364.666 0.618057H360.3L357.882 9.64162H357.892Z" fill="white"/>
<path fill-rule="evenodd" clip-rule="evenodd" d="M393.027 3.30782C391.712 1.59705 389.65 0.652664 387.217 0.652664C382.243 0.652664 377.111 4.69226 375.781 9.65645C375.103 12.1929 375.484 14.5761 376.854 16.366C378.169 18.0768 380.231 19.0212 382.663 19.0212C387.637 19.0212 392.77 14.9816 394.1 10.0174C394.777 7.48091 394.396 5.0977 393.027 3.30782ZM389.833 9.6614C389.086 12.4451 386.228 14.7047 383.454 14.7047C382.223 14.7047 381.195 14.2449 380.557 13.4142C379.88 12.5292 379.702 11.3227 380.053 10.0125C380.799 7.22874 383.657 4.96914 386.431 4.96914C387.662 4.96914 388.691 5.42897 389.328 6.25964C390.006 7.14469 390.189 8.35113 389.838 9.6614" fill="white"/>
<path fill-rule="evenodd" clip-rule="evenodd" d="M356.759 3.34244C355.444 1.63167 353.382 0.687286 350.95 0.687286C345.975 0.687286 340.843 4.72688 339.513 9.69108C338.836 12.2276 339.216 14.6108 340.586 16.4007C341.901 18.1114 343.963 19.0558 346.396 19.0558C351.37 19.0558 356.502 15.0162 357.832 10.052C358.51 7.51553 358.129 5.13232 356.759 3.34244ZM353.565 9.69602C352.819 12.4797 349.956 14.7393 347.187 14.7393C345.956 14.7393 344.927 14.2795 344.289 13.4488C343.612 12.5638 343.429 11.3573 343.78 10.0471C344.527 7.26336 347.39 5.00376 350.158 5.00376C351.385 5.00376 352.418 5.4636 353.056 6.29426C353.733 7.17931 353.911 8.38575 353.565 9.69602Z" fill="white"/>
<path d="M389.171 27.9558C389.171 27.9558 389.611 26.3834 389.264 25.6319C389.047 25.2116 388.538 24.9248 387.929 24.8754C387.435 24.8358 386.679 24.9347 385.863 25.6319C385.358 26.0571 384.933 26.7592 384.701 27.5503C384.473 28.3167 384.468 29.0287 384.681 29.4589C384.948 29.983 385.541 30.2945 386.268 30.2945C386.995 30.2945 387.697 30.0126 388.182 29.5429C388.587 29.1869 388.988 28.3909 388.988 28.3909H387.974C387.974 28.3909 387.292 29.4094 386.446 29.4094C385.937 29.4094 385.744 29.1375 385.62 28.8705C385.497 28.5194 385.63 27.9508 385.63 27.9508H389.171V27.9558ZM386.575 26.1313L386.585 26.1214C386.876 25.8346 387.287 25.6863 387.682 25.7258C388.053 25.7604 388.231 25.9582 388.315 26.0917C388.404 26.2252 388.478 26.6801 388.37 27.0707C388.078 27.0707 386.852 27.0707 385.922 27.0707C385.813 27.0707 386.441 26.2252 386.57 26.1313M336.804 27.8272C336.804 27.8272 337.244 26.3192 336.898 25.6022C336.681 25.2017 336.171 24.9248 335.563 24.8803C335.069 24.8408 334.312 24.9397 333.496 25.6072C332.992 26.0175 332.567 26.69 332.334 27.4465C332.107 28.1783 332.102 28.8655 332.315 29.2759C332.582 29.7802 333.175 30.0769 333.902 30.0769C334.629 30.0769 335.331 29.8099 335.815 29.355C336.221 29.0139 336.621 28.2475 336.621 28.2475H335.608C335.608 28.2475 334.925 29.2215 334.08 29.2215C333.571 29.2215 333.378 28.9595 333.254 28.7024C333.13 28.3661 333.264 27.8223 333.264 27.8223H336.804V27.8272ZM334.208 26.0769L334.218 26.067C334.51 25.7901 334.92 25.6517 335.321 25.6863C335.692 25.7209 335.87 25.9088 335.954 26.0373C336.043 26.1659 336.117 26.601 336.008 26.9768C335.716 26.9768 334.49 26.9768 333.561 26.9768C333.452 26.9768 334.08 26.1659 334.208 26.0769ZM348.785 25.0781C348.542 24.9446 348.201 24.8704 347.815 24.8704C347.459 24.8704 347.118 24.9397 346.881 25.0583C346.668 25.1622 346.297 25.4044 346.297 25.4094L346.302 25.3945L346.411 24.999H345.516L343.558 31.7036L343.519 31.8322H344.513L344.532 31.758L345.18 29.5528C345.239 29.6319 345.314 29.711 345.407 29.7802C345.501 29.8495 345.852 30.0868 346.441 30.0868C347.029 30.0868 347.578 29.8742 348.107 29.4589C348.72 28.9891 349.234 28.109 349.407 27.2092C349.615 26.2153 349.378 25.4193 348.775 25.083M347.583 28.6925C347.296 28.9694 346.906 29.1276 346.51 29.1177C346.169 29.1078 345.887 28.9595 345.768 28.732C345.61 28.4008 345.59 27.2141 346.466 26.2499C346.718 25.978 347.098 25.8049 347.479 25.7753C347.855 25.7505 348.152 25.889 348.27 26.1412C348.621 26.8977 348.107 28.1881 347.583 28.6925ZM364.335 25.0089C364.335 25.0089 364.261 25.266 364.211 25.4638C363.959 25.088 363.578 24.8853 363.069 24.8704C362.273 24.8457 361.442 25.444 361.215 25.6566C360.691 26.1857 360.295 27.0262 360.058 27.8272C359.652 29.2116 360.493 30.2697 361.388 30.2895C362.031 30.2994 362.584 29.9879 363.01 29.6715C362.876 29.978 362.743 30.784 361.966 31.0856C361.749 31.1696 361.511 31.2042 361.269 31.2042C361.061 31.2042 360.888 31.1597 360.745 31.1054C360.295 30.9323 360.468 30.4181 360.468 30.4181H359.484C359.484 30.4181 359.123 31.5207 360.176 31.9509C360.463 32.0695 360.824 32.1635 361.279 32.0992C363.069 31.9855 363.618 30.7691 364.147 29.177L365.324 25.0089H364.33H364.335ZM362.807 28.9941C362.49 29.2561 362.12 29.3847 361.798 29.3501C361.467 29.3303 361.22 29.1671 361.096 28.8853C360.977 28.5936 361.002 28.1585 361.16 27.6541C361.304 27.2092 361.531 26.7938 361.684 26.596C362.105 26.0373 362.579 25.9285 362.906 25.9335C363.282 25.9434 363.549 26.1214 363.578 26.1955V26.2054L363.588 26.2153C363.944 26.7394 363.578 28.3513 362.802 28.999M372.374 25.4638C372.003 24.9743 371.395 24.8704 370.95 24.8704C370.268 24.8704 368.607 25.1325 367.924 27.5454C367.657 28.4996 367.702 29.2215 368.058 29.6962C368.35 30.0769 368.854 30.2895 369.482 30.2895C370.164 30.2895 371.83 30.0275 372.513 27.6047C372.78 26.6554 372.735 25.9335 372.379 25.4638M371.514 27.5454C371.277 28.3909 370.604 29.3006 369.699 29.3006C369.398 29.3006 369.17 29.2018 369.022 29.0089C368.755 28.6529 368.795 28.0497 368.918 27.6047C369.156 26.7642 369.823 25.8593 370.728 25.8593C371.034 25.8593 371.262 25.9582 371.41 26.151C371.677 26.5021 371.633 27.1004 371.509 27.5454M325.481 28.9496C325.472 28.9842 325.467 29.0336 325.481 29.0584C325.506 29.088 325.615 29.1474 326.06 29.0732L326.223 29.0435L325.966 29.9929C325.966 29.9929 325.333 30.0917 325.012 30.0621C324.725 30.0324 324.577 29.8841 324.502 29.7704C324.384 29.5874 324.374 29.355 324.413 29.2067L325.417 25.4984H324.74L325.002 24.5293H325.669L326.05 23.1547H327.044L326.678 24.5293H327.444L327.182 25.4984H326.416L325.486 28.9446L325.481 28.9496ZM331.88 26.3192V26.3093L330.816 30.0769H329.823C329.823 30.0769 330.797 26.6307 330.797 26.6257C330.99 26.0571 330.767 25.9434 330.683 25.9038C330.431 25.7753 330.208 25.7407 329.961 25.7852C329.734 25.8247 329.472 25.9483 329.121 26.1807C328.918 26.3389 328.769 26.4576 328.656 26.8482L327.741 30.0769H326.747L328.71 23.1201H329.704L329.051 25.4341C329.051 25.4341 329.308 25.1968 329.833 25.0039C330.1 24.9149 330.337 24.8704 330.559 24.8704C330.841 24.8704 331.108 24.9298 331.336 25.0435C331.573 25.1374 331.741 25.2957 331.84 25.5182C331.978 25.8395 331.919 26.2005 331.87 26.3192M344.102 25.3451C344.315 25.622 344.359 26.0126 344.226 26.4972L344.206 26.5763H343.227C343.227 26.5763 343.336 26.1362 343.247 26.0175C343.138 25.8742 342.876 25.8 342.475 25.8C342.03 25.8 341.64 26.0472 341.472 26.2747C341.383 26.3983 341.343 26.5219 341.363 26.6257C341.378 26.6949 341.417 26.7493 341.487 26.7889C341.689 26.9224 342.011 27.0064 342.421 27.1152C342.421 27.1152 342.49 27.135 342.48 27.13C342.831 27.1894 343.232 27.2833 343.538 27.5157C343.909 27.7778 343.998 28.287 343.761 28.8408C343.534 29.3798 343.064 29.8396 342.505 30.0621C342.233 30.1709 341.897 30.2401 341.521 30.2747C341.195 30.2747 340.854 30.2747 340.582 30.2055C340.201 30.1115 339.929 29.9286 339.776 29.6665C339.603 29.3699 339.583 28.9842 339.721 28.4947L339.741 28.4156H340.686L340.656 28.5441C340.562 28.9644 340.72 29.2166 341.16 29.3649C341.309 29.4144 341.551 29.4144 341.783 29.4144C342.025 29.355 342.278 29.2908 342.416 29.2067C342.614 29.088 342.787 28.8705 342.841 28.6776C342.906 28.4403 342.817 28.2821 342.564 28.1881L342.154 28.0843C341.669 27.9656 341.165 27.842 340.878 27.6888C340.547 27.5503 340.211 27.2141 340.448 26.3834C340.745 25.3352 341.847 24.8556 342.747 24.8556C343.405 24.8556 343.86 25.0138 344.102 25.3303M352.295 25.9978C351.692 26.2648 351.331 26.685 351.108 27.4761L350.372 30.0769H349.378L350.812 25.0089H351.806L351.672 25.4885C351.672 25.4885 352.102 24.9051 352.829 24.8704H353.403L353.111 25.8939C353.111 25.8939 352.834 25.7604 352.3 25.9978M354.995 25.0089L353.561 30.0769H352.567L354.001 25.0089H354.995ZM355.197 24.2919H354.204L354.535 23.1201H355.529L355.197 24.2919ZM359.83 26.2104V26.2203V26.2252L358.743 30.0769H357.749L358.743 26.5664C358.812 26.334 358.797 26.1412 358.698 26.0077C358.594 25.8643 358.392 25.7852 358.134 25.7852C357.833 25.7852 356.829 25.9038 356.419 27.4218L355.667 30.0819H354.673L356.102 25.0138H357.096L356.992 25.3847L357.432 25.1127C357.788 24.8902 358.263 24.8704 358.515 24.8754C358.841 24.8853 359.183 24.9446 359.326 25.0237C359.529 25.1523 359.944 25.4193 359.835 26.2203M376.468 23.13L376.577 23.1547L376.34 23.9953L376.251 23.9854C375.796 23.931 375.559 23.9854 375.43 24.4254L375.267 25.0039H376.043L375.781 25.9236H375.005L373.833 30.067H372.839L374.006 25.9236H373.353L373.615 24.999H374.273L374.481 24.2524C374.703 23.4563 375.465 23.13 375.643 23.1152C375.919 23.0657 376.186 23.0657 376.468 23.1251M380.711 23.2536L378.807 29.9978L378.787 30.072H377.793L377.833 29.9385L379.737 23.1943L379.756 23.1201H380.75L380.711 23.2536ZM382.219 25.1424L380.844 29.9978L380.824 30.072H379.831L379.87 29.9385L381.245 25.083L381.264 25.0089H382.258L382.219 25.1424ZM381.601 24.2919H381.462L381.502 24.1584L381.774 23.1943L381.793 23.1201H382.787L382.748 23.2536L382.476 24.2178L382.456 24.2969H381.601V24.2919ZM385.838 23.1745L385.601 24.0151L385.512 24.0052C385.057 23.9508 384.819 24.0052 384.691 24.4452L384.533 25.0039H385.309L385.047 25.9236H384.271L383.099 30.067H382.105L383.272 25.9236H382.619L382.881 24.999H383.539L383.742 24.2722C383.969 23.4761 384.725 23.1498 384.903 23.1349C385.18 23.0855 385.447 23.0855 385.724 23.1448L385.838 23.1696V23.1745Z" fill="white"/>
</g>
<defs>
<clipPath id="clip0_2648_12943">
<rect width="140.155" height="32.1239" fill="white" transform="translate(257.422)"/>
</clipPath>
</defs>
</svg>
