<svg width="55" height="55" viewBox="0 0 55 55" fill="none" xmlns="http://www.w3.org/2000/svg">
<path d="M41.145 18.7846V12.9746H26.715V18.7646C26.125 18.9546 25.685 19.5146 25.685 20.1746V22.3146C25.685 23.3446 26.435 24.2046 27.405 24.3746V25.2246C27.405 26.3746 26.475 27.3146 25.315 27.3146H24.285C24.105 26.3346 23.245 25.5946 22.215 25.5946H20.075C19.415 25.5946 18.855 26.0246 18.665 26.6146H12.895V41.0446H18.695C18.905 41.6146 19.445 42.0246 20.085 42.0246H22.225C22.965 42.0246 23.615 41.6446 23.985 41.0646H25.315C34.065 41.0646 41.145 33.9746 41.145 25.2346V24.0846C41.725 23.7046 42.105 23.0546 42.105 22.3246V20.1846C42.105 19.5446 41.695 19.0046 41.135 18.7946L41.145 18.7846ZM18.205 39.9046H14.025V27.7446H18.195V39.9046H18.205ZM23.195 39.9146C23.195 40.4446 22.765 40.8746 22.225 40.8746H20.085C19.895 40.8746 19.735 40.7146 19.735 40.5246V27.0646C19.735 26.8746 19.895 26.7146 20.085 26.7146H22.225C22.755 26.7146 23.195 27.1446 23.195 27.6846V39.9146ZM27.855 14.1046H40.015V18.6346H27.855V14.1046ZM40.025 25.2246C40.025 25.4146 40.025 25.6046 40.015 25.7846C39.725 33.4546 33.565 39.6246 25.885 39.9046C25.695 39.9046 25.515 39.9146 25.325 39.9146H24.755V28.4446H25.325C27.105 28.4446 28.545 27.0046 28.545 25.2246V24.6546H40.025V25.2246ZM40.985 22.3146C40.985 22.8446 40.555 23.2746 40.025 23.2746H27.795C27.265 23.2746 26.825 22.8446 26.825 22.3146V20.1746C26.825 19.9846 26.985 19.8246 27.175 19.8246H40.635C40.825 19.8246 40.985 19.9846 40.985 20.1746V22.3146Z" fill="#747DA1" fill-opacity="0.8"/>
</svg>
