<svg width="360" height="78" viewBox="0 0 360 78" fill="none" xmlns="http://www.w3.org/2000/svg">
<mask id="path-1-inside-1_2648_13794" fill="white">
<path d="M0 0H360V78H0V0Z"/>
</mask>
<path d="M360 78V77H0V78V79H360V78Z" fill="white" fill-opacity="0.1" mask="url(#path-1-inside-1_2648_13794)"/>
<g clip-path="url(#clip0_2648_13794)">
<path fill-rule="evenodd" clip-rule="evenodd" d="M96.166 25.9789C97.9707 24.1049 100.507 22.938 103.316 22.938C107.919 22.938 111.79 26.0728 112.913 30.325C112.913 30.325 109.437 30.3794 107.242 30.0778C104.809 29.7416 103.419 29.4499 101.13 28.5648C99.0931 27.7786 96.171 25.9789 96.171 25.9789M113.145 31.5117C113.111 31.2645 113.071 31.0222 113.017 30.7799C113.017 30.7799 108.136 30.8491 105.071 30.3745C101.748 29.8602 99.8101 29.5191 96.7544 28.1149C96.1018 27.8132 95.7408 27.5957 95.1079 27.2842C94.7717 27.7737 94.48 28.2978 94.2377 28.8466C94.2377 28.8466 96.171 29.4993 97.4269 29.8355C100.102 30.5475 101.669 30.7403 104.413 31.0667C107.795 31.4721 113.14 31.5117 113.14 31.5117M104.507 32.4313L113.224 32.4709C113.219 32.3077 113.209 32.1446 113.195 31.9814C113.195 31.9814 107.459 32.0259 103.815 31.7045C99.8645 31.3535 97.5356 30.9579 93.763 30.1569C93.59 30.775 93.4713 31.4177 93.4219 32.0803L104.507 32.4313ZM96.166 39.4821C97.9707 41.356 100.507 42.5229 103.311 42.5229C107.914 42.5229 111.785 39.3881 112.908 35.1359C112.908 35.1359 109.432 35.0815 107.237 35.3832C104.804 35.7194 103.415 36.0111 101.125 36.8961C99.0882 37.6823 96.166 39.4821 96.166 39.4821ZM104.418 34.3943C101.669 34.7255 100.107 34.9134 97.4318 35.6254C96.171 35.9617 94.2426 36.6143 94.2426 36.6143C94.4849 37.1631 94.7766 37.6873 95.1129 38.1768C95.7458 37.8603 96.1067 37.6477 96.7594 37.3461C99.8101 35.9419 101.753 35.6007 105.076 35.0865C108.141 34.6118 113.022 34.681 113.022 34.681C113.071 34.4388 113.116 34.1965 113.15 33.9493C113.15 33.9493 107.805 33.9888 104.423 34.3943M93.4219 33.3807C93.4713 34.0432 93.59 34.686 93.763 35.304C97.5406 34.503 99.8645 34.1075 103.815 33.7564C107.459 33.4351 113.195 33.4796 113.195 33.4796C113.209 33.3164 113.219 33.1582 113.224 32.995L104.507 33.0296L93.4219 33.3807Z" fill="#E42313"/>
<path d="M124.828 41.9691C130.425 41.9691 135.192 37.9988 136.522 33.0296C137.204 30.4931 136.819 28.1099 135.444 26.32C134.129 24.6093 132.067 23.6649 129.634 23.6649C124.655 23.6649 119.523 27.7094 118.188 32.6786L114.148 47.759L119.221 45.1237L122.46 33.0346C123.207 30.2509 126.069 27.9863 128.843 27.9863C130.074 27.9863 131.103 28.4461 131.741 29.2768C132.418 30.1619 132.601 31.3683 132.25 32.6786C131.503 35.4623 128.606 37.8059 125.867 37.7268C123.128 37.6477 122.455 36.5352 122.455 36.5352L121.318 40.649C121.318 40.649 122.035 41.979 124.828 41.979" fill="white"/>
<path fill-rule="evenodd" clip-rule="evenodd" d="M231.855 23.6204C230.915 23.6204 230.119 24.3423 230.119 25.3213C230.119 26.3003 230.915 27.032 231.855 27.032C232.794 27.032 233.58 26.3102 233.58 25.3213C233.58 24.3324 232.784 23.6204 231.855 23.6204ZM231.855 26.7502C231.073 26.7502 230.465 26.147 230.465 25.3262C230.465 24.5054 231.073 23.9072 231.855 23.9072C232.636 23.9072 233.234 24.5153 233.234 25.3262C233.234 26.1371 232.626 26.7502 231.855 26.7502ZM232.641 24.9059C232.641 24.5153 232.408 24.3472 231.944 24.3472H231.192V26.3151H231.489V25.4597H231.83L232.349 26.3151H232.685L232.127 25.4498C232.413 25.4152 232.636 25.2619 232.636 24.9059M231.494 25.2076V24.5994H231.899C232.107 24.5994 232.329 24.6439 232.329 24.8862C232.329 25.1878 232.102 25.2076 231.85 25.2076H231.494Z" fill="white"/>
<path fill-rule="evenodd" clip-rule="evenodd" d="M142.055 30.6612C143.355 28.9752 145.372 27.8676 147.286 27.8676H149.807L149.941 27.3584L150.732 24.4115L150.964 23.5462H148.077C143.098 23.5462 137.966 27.5908 136.631 32.5599C135.948 35.0964 136.334 37.4796 137.703 39.2695C139.019 40.9802 141.081 41.9246 143.513 41.9246H146.035L146.168 41.4153L146.959 38.4685L147.192 37.6032H144.304C142.46 37.6032 141.125 36.5698 140.804 34.9629H140.818H147.35H147.874L148.013 34.4536L148.804 31.5067L149.036 30.6415H142.079L142.055 30.6612Z" fill="white"/>
<path fill-rule="evenodd" clip-rule="evenodd" d="M154.046 37.6032L152.483 37.618L152.582 37.5884L154.179 31.4672L154.412 30.6019H150.046L149.907 31.1112L147.242 41.0594L147.01 41.9246H153.264C158.243 41.9246 163.376 37.8801 164.711 32.911C165.388 30.3745 165.007 27.9913 163.633 26.1964C162.318 24.4857 160.256 23.5413 157.823 23.5413H151.939L151.801 24.0506L151.01 26.9974L150.777 27.8627H157.032C158.253 27.8627 159.272 28.3176 159.905 29.1384C160.582 30.0234 160.76 31.2348 160.409 32.555C159.663 35.3387 156.8 37.6032 154.026 37.6032" fill="white"/>
<path fill-rule="evenodd" clip-rule="evenodd" d="M176.873 29.4597C177.294 27.8825 177.051 26.3991 176.196 25.2768C175.375 24.1989 174.09 23.6055 172.577 23.6055L167.163 23.5907L166.011 27.9072H171.8C172.122 27.9072 172.374 28.011 172.532 28.2137C172.7 28.4313 172.74 28.7477 172.646 29.1037C172.419 29.9492 171.529 30.6612 170.698 30.6612H170.668L165.378 30.6711L162.342 42.0383H166.703L168.596 34.9431H169.318L171.519 42.0383H176.157L173.645 33.7762C173.645 33.7762 176.374 31.3337 176.873 29.4597Z" fill="white"/>
<path fill-rule="evenodd" clip-rule="evenodd" d="M202.902 32.5747C202.224 35.1112 202.605 37.4944 203.975 39.2843C205.29 40.9951 207.352 41.9592 209.784 41.9592H210.852L212.014 37.623H210.571C209.339 37.623 208.311 37.1631 207.673 36.3325C206.996 35.4474 206.818 34.241 207.164 32.9307L209.676 23.5512H205.31L202.892 32.5747H202.902Z" fill="white"/>
<path fill-rule="evenodd" clip-rule="evenodd" d="M193.892 32.5797C193.215 35.1162 193.595 37.4994 194.965 39.2892C196.28 41 198.342 41.9444 200.775 41.9444L200.611 41.9246L200.775 41.9642H201.843L203.005 37.6279H201.561C200.33 37.6279 199.301 37.1681 198.663 36.3374C197.986 35.4524 197.803 34.2459 198.154 32.9357L200.666 23.5561H196.3L193.882 32.5797H193.892Z" fill="white"/>
<path fill-rule="evenodd" clip-rule="evenodd" d="M229.027 26.2459C227.712 24.5351 225.65 23.5907 223.217 23.5907C218.243 23.5907 213.111 27.6303 211.781 32.5945C211.103 35.131 211.484 37.5142 212.854 39.3041C214.169 41.0148 216.231 41.9592 218.663 41.9592C223.637 41.9592 228.77 37.9196 230.1 32.9554C230.777 30.419 230.396 28.0357 229.027 26.2459ZM225.833 32.5994C225.086 35.3832 222.228 37.6428 219.454 37.6428C218.223 37.6428 217.195 37.1829 216.557 36.3523C215.88 35.4672 215.702 34.2608 216.053 32.9505C216.799 30.1668 219.657 27.9072 222.431 27.9072C223.662 27.9072 224.691 28.367 225.328 29.1977C226.006 30.0827 226.189 31.2892 225.838 32.5994" fill="white"/>
<path fill-rule="evenodd" clip-rule="evenodd" d="M192.759 26.2805C191.444 24.5697 189.382 23.6253 186.95 23.6253C181.975 23.6253 176.843 27.6649 175.513 32.6291C174.836 35.1656 175.216 37.5488 176.586 39.3387C177.901 41.0495 179.963 41.9939 182.396 41.9939C187.37 41.9939 192.502 37.9543 193.832 32.9901C194.51 30.4536 194.129 28.0704 192.759 26.2805ZM189.565 32.6341C188.819 35.4178 185.956 37.6774 183.187 37.6774C181.956 37.6774 180.927 37.2175 180.289 36.3869C179.612 35.5018 179.429 34.2954 179.78 32.9851C180.527 30.2014 183.39 27.9418 186.158 27.9418C187.385 27.9418 188.418 28.4016 189.056 29.2323C189.733 30.1174 189.911 31.3238 189.565 32.6341Z" fill="white"/>
<path d="M225.171 50.8938C225.171 50.8938 225.611 49.3215 225.264 48.5699C225.047 48.1497 224.538 47.8629 223.929 47.8134C223.435 47.7739 222.679 47.8728 221.863 48.5699C221.358 48.9952 220.933 49.6973 220.701 50.4884C220.473 51.2548 220.468 51.9667 220.681 52.3969C220.948 52.921 221.541 53.2325 222.268 53.2325C222.995 53.2325 223.697 52.9507 224.182 52.481C224.587 52.125 224.988 51.3289 224.988 51.3289H223.974C223.974 51.3289 223.292 52.3475 222.446 52.3475C221.937 52.3475 221.744 52.0755 221.62 51.8085C221.497 51.4575 221.63 50.8889 221.63 50.8889H225.171V50.8938ZM222.575 49.0693L222.585 49.0594C222.876 48.7727 223.287 48.6243 223.682 48.6639C224.053 48.6985 224.231 48.8963 224.315 49.0298C224.404 49.1633 224.478 49.6181 224.37 50.0088C224.078 50.0088 222.852 50.0088 221.922 50.0088C221.813 50.0088 222.441 49.1633 222.57 49.0693M172.804 50.7653C172.804 50.7653 173.244 49.2572 172.898 48.5403C172.681 48.1398 172.171 47.8629 171.563 47.8184C171.069 47.7788 170.312 47.8777 169.496 48.5452C168.992 48.9556 168.567 49.628 168.334 50.3845C168.107 51.1163 168.102 51.8036 168.315 52.214C168.582 52.7183 169.175 53.015 169.902 53.015C170.629 53.015 171.331 52.748 171.815 52.2931C172.221 51.9519 172.621 51.1855 172.621 51.1855H171.608C171.608 51.1855 170.925 52.1596 170.08 52.1596C169.571 52.1596 169.378 51.8975 169.254 51.6404C169.13 51.3042 169.264 50.7603 169.264 50.7603H172.804V50.7653ZM170.208 49.0149L170.218 49.005C170.51 48.7282 170.92 48.5897 171.321 48.6243C171.692 48.6589 171.87 48.8468 171.954 48.9754C172.043 49.1039 172.117 49.539 172.008 49.9148C171.716 49.9148 170.49 49.9148 169.561 49.9148C169.452 49.9148 170.08 49.1039 170.208 49.0149ZM184.785 48.0162C184.542 47.8827 184.201 47.8085 183.815 47.8085C183.459 47.8085 183.118 47.8777 182.881 47.9964C182.668 48.1002 182.297 48.3425 182.297 48.3474L182.302 48.3326L182.411 47.937H181.516L179.558 54.6417L179.519 54.7702H180.513L180.532 54.6961L181.18 52.4909C181.239 52.57 181.314 52.6491 181.407 52.7183C181.501 52.7875 181.852 53.0249 182.441 53.0249C183.029 53.0249 183.578 52.8122 184.107 52.3969C184.72 51.9272 185.234 51.0471 185.407 50.1472C185.615 49.1534 185.378 48.3573 184.775 48.0211M183.583 51.6305C183.296 51.9074 182.906 52.0656 182.51 52.0557C182.169 52.0459 181.887 51.8975 181.768 51.6701C181.61 51.3388 181.59 50.1521 182.466 49.188C182.718 48.916 183.098 48.743 183.479 48.7133C183.855 48.6886 184.152 48.827 184.27 49.0792C184.621 49.8357 184.107 51.1262 183.583 51.6305ZM200.335 47.9469C200.335 47.9469 200.261 48.204 200.211 48.4018C199.959 48.026 199.578 47.8233 199.069 47.8085C198.273 47.7838 197.442 48.382 197.215 48.5947C196.691 49.1237 196.295 49.9643 196.058 50.7653C195.652 52.1497 196.493 53.2078 197.388 53.2276C198.031 53.2375 198.584 52.926 199.01 52.6095C198.876 52.9161 198.743 53.722 197.966 54.0236C197.749 54.1077 197.511 54.1423 197.269 54.1423C197.061 54.1423 196.888 54.0978 196.745 54.0434C196.295 53.8703 196.468 53.3561 196.468 53.3561H195.484C195.484 53.3561 195.123 54.4587 196.176 54.8889C196.463 55.0076 196.824 55.1015 197.279 55.0372C199.069 54.9235 199.618 53.7072 200.147 52.1151L201.324 47.9469H200.33H200.335ZM198.807 51.9321C198.49 52.1942 198.12 52.3227 197.798 52.2881C197.467 52.2684 197.22 52.1052 197.096 51.8234C196.977 51.5316 197.002 51.0965 197.16 50.5922C197.304 50.1472 197.531 49.7319 197.684 49.5341C198.105 48.9754 198.579 48.8666 198.906 48.8715C199.282 48.8814 199.549 49.0594 199.578 49.1336V49.1435L199.588 49.1534C199.944 49.6775 199.578 51.2894 198.802 51.9371M208.374 48.4018C208.003 47.9123 207.395 47.8085 206.95 47.8085C206.268 47.8085 204.607 48.0705 203.924 50.4834C203.657 51.4377 203.702 52.1596 204.058 52.6342C204.35 53.015 204.854 53.2276 205.482 53.2276C206.164 53.2276 207.83 52.9655 208.513 50.5428C208.78 49.5934 208.735 48.8715 208.379 48.4018M207.514 50.4834C207.277 51.3289 206.604 52.2387 205.699 52.2387C205.398 52.2387 205.17 52.1398 205.022 51.947C204.755 51.591 204.795 50.9878 204.918 50.5428C205.156 49.7022 205.823 48.7974 206.728 48.7974C207.034 48.7974 207.262 48.8963 207.41 49.0891C207.677 49.4401 207.633 50.0384 207.509 50.4834M161.481 51.8876C161.472 51.9222 161.467 51.9717 161.481 51.9964C161.506 52.0261 161.615 52.0854 162.06 52.0112L162.223 51.9816L161.966 52.9309C161.966 52.9309 161.333 53.0298 161.012 53.0001C160.725 52.9705 160.577 52.8221 160.502 52.7084C160.384 52.5255 160.374 52.2931 160.413 52.1447L161.417 48.4364H160.74L161.002 47.4673H161.669L162.05 46.0928H163.044L162.678 47.4673H163.444L163.182 48.4364H162.416L161.486 51.8827L161.481 51.8876ZM167.88 49.2572V49.2473L166.816 53.015H165.823C165.823 53.015 166.797 49.5687 166.797 49.5638C166.99 48.9951 166.767 48.8814 166.683 48.8419C166.431 48.7133 166.208 48.6787 165.961 48.7232C165.734 48.7628 165.472 48.8864 165.121 49.1188C164.918 49.277 164.769 49.3956 164.656 49.7863L163.741 53.015H162.747L164.71 46.0582H165.704L165.051 48.3722C165.051 48.3722 165.308 48.1348 165.833 47.942C166.1 47.853 166.337 47.8085 166.559 47.8085C166.841 47.8085 167.108 47.8678 167.336 47.9815C167.573 48.0755 167.741 48.2337 167.84 48.4562C167.978 48.7776 167.919 49.1385 167.87 49.2572M180.102 48.2832C180.315 48.56 180.359 48.9507 180.226 49.4352L180.206 49.5143H179.227C179.227 49.5143 179.336 49.0743 179.247 48.9556C179.138 48.8122 178.876 48.738 178.475 48.738C178.03 48.738 177.64 48.9853 177.472 49.2127C177.383 49.3363 177.343 49.4599 177.363 49.5638C177.378 49.633 177.417 49.6874 177.487 49.7269C177.689 49.8604 178.011 49.9445 178.421 50.0533C178.421 50.0533 178.49 50.073 178.48 50.0681C178.831 50.1274 179.232 50.2214 179.538 50.4538C179.909 50.7158 179.998 51.2251 179.761 51.7789C179.534 52.3178 179.064 52.7776 178.505 53.0001C178.233 53.1089 177.897 53.1781 177.521 53.2127C177.195 53.2127 176.854 53.2127 176.582 53.1435C176.201 53.0496 175.929 52.8666 175.776 52.6046C175.603 52.3079 175.583 51.9222 175.721 51.4328L175.741 51.3536H176.686L176.656 51.4822C176.562 51.9025 176.72 52.1546 177.16 52.303C177.309 52.3524 177.551 52.3524 177.783 52.3524C178.025 52.2931 178.278 52.2288 178.416 52.1447C178.614 52.0261 178.787 51.8085 178.841 51.6157C178.906 51.3784 178.817 51.2201 178.564 51.1262L178.154 51.0224C177.669 50.9037 177.165 50.7801 176.878 50.6268C176.547 50.4884 176.211 50.1521 176.448 49.3215C176.745 48.2733 177.847 47.7937 178.747 47.7937C179.405 47.7937 179.86 47.9519 180.102 48.2683M188.295 48.9358C187.692 49.2028 187.331 49.6231 187.108 50.4142L186.372 53.015H185.378L186.812 47.9469H187.806L187.672 48.4265C187.672 48.4265 188.102 47.8431 188.829 47.8085H189.403L189.111 48.832C189.111 48.832 188.834 48.6985 188.3 48.9358M190.995 47.9469L189.561 53.015H188.567L190.001 47.9469H190.995ZM191.197 47.23H190.204L190.535 46.0582H191.529L191.197 47.23ZM195.83 49.1484V49.1583V49.1633L194.743 53.015H193.749L194.743 49.5044C194.812 49.272 194.797 49.0792 194.698 48.9457C194.594 48.8023 194.392 48.7232 194.134 48.7232C193.833 48.7232 192.829 48.8419 192.419 50.3598L191.667 53.0199H190.673L192.102 47.9519H193.096L192.992 48.3227L193.432 48.0508C193.788 47.8283 194.263 47.8085 194.515 47.8134C194.841 47.8233 195.183 47.8827 195.326 47.9618C195.529 48.0903 195.944 48.3573 195.835 49.1583M212.468 46.0681L212.577 46.0928L212.34 46.9333L212.251 46.9234C211.796 46.869 211.559 46.9234 211.43 47.3635L211.267 47.942H212.043L211.781 48.8617H211.005L209.833 53.0051H208.839L210.006 48.8617H209.353L209.615 47.937H210.273L210.481 47.1904C210.703 46.3944 211.465 46.0681 211.643 46.0532C211.919 46.0038 212.186 46.0038 212.468 46.0631M216.711 46.1917L214.807 52.9359L214.787 53.01H213.793L213.833 52.8765L215.737 46.1323L215.756 46.0582H216.75L216.711 46.1917ZM218.219 48.0804L216.844 52.9359L216.824 53.01H215.831L215.87 52.8765L217.245 48.0211L217.264 47.9469H218.258L218.219 48.0804ZM217.601 47.23H217.462L217.502 47.0965L217.774 46.1323L217.793 46.0582H218.787L218.748 46.1917L218.476 47.1558L218.456 47.2349H217.601V47.23ZM221.838 46.1126L221.601 46.9531L221.512 46.9432C221.057 46.8888 220.819 46.9432 220.691 47.3833L220.533 47.942H221.309L221.047 48.8617H220.271L219.099 53.0051H218.105L219.272 48.8617H218.619L218.881 47.937H219.539L219.742 47.2102C219.969 46.4142 220.725 46.0878 220.903 46.073C221.18 46.0236 221.447 46.0236 221.724 46.0829L221.838 46.1076V46.1126Z" fill="white"/>
</g>
<rect x="287" y="28" width="33" height="4" rx="2" fill="white"/>
<rect x="287" y="37" width="33" height="4" rx="2" fill="white"/>
<rect x="287" y="46" width="33" height="4" rx="2" fill="white"/>
<defs>
<clipPath id="clip0_2648_13794">
<rect width="140.155" height="32.1239" fill="white" transform="translate(93.4219 22.938)"/>
</clipPath>
</defs>
</svg>
