<svg width="60" height="60" viewBox="0 0 60 60" fill="none" xmlns="http://www.w3.org/2000/svg">
<path d="M33.4621 43.625H29.6621C29.3306 43.625 29.0126 43.4933 28.7782 43.2589C28.5438 43.0245 28.4121 42.7065 28.4121 42.375C28.4121 42.0435 28.5438 41.7255 28.7782 41.4911C29.0126 41.2567 29.3306 41.125 29.6621 41.125H33.4621C33.7936 41.125 34.1116 41.2567 34.346 41.4911C34.5804 41.7255 34.7121 42.0435 34.7121 42.375C34.7121 42.7065 34.5804 43.0245 34.346 43.2589C34.1116 43.4933 33.7936 43.625 33.4621 43.625Z" fill="#747CA0"/>
<path d="M37.5508 52.5242H23.6506C23.3191 52.5242 23.0012 52.3925 22.7668 52.1581C22.5323 51.9237 22.4006 51.6057 22.4006 51.2742C22.4006 50.9427 22.5323 50.6248 22.7668 50.3903C23.0012 50.1559 23.3191 50.0242 23.6506 50.0242H37.5508C39.0216 50.0233 40.4449 49.5033 41.5699 48.5557L51.9832 39.793C52.2421 39.5766 52.4488 39.3046 52.5879 38.9973C52.7271 38.69 52.7951 38.3552 52.7869 38.0179C52.7787 37.6806 52.6944 37.3495 52.5405 37.0493C52.3865 36.7491 52.1668 36.4875 51.8977 36.284C51.5203 35.9811 51.0592 35.801 50.5763 35.7679C50.0935 35.7348 49.6121 35.8504 49.1969 36.099L37.411 43.4355C37.2128 43.5588 36.9841 43.6241 36.7506 43.6241H33.4632C33.2927 43.6241 33.1239 43.5892 32.9673 43.5215C32.8108 43.4538 32.6697 43.3548 32.5528 43.2306C32.436 43.1063 32.3458 42.9595 32.2878 42.7991C32.2298 42.6386 32.2053 42.4681 32.2157 42.2978L32.303 40.8726C32.3038 40.5414 32.1732 40.2234 31.9399 39.9882C31.8247 39.8688 31.6865 39.7739 31.5337 39.7091C31.3809 39.6444 31.2165 39.6113 31.0506 39.6117H20.7881C20.1807 39.61 19.5824 39.7598 19.0474 40.0474L13.7599 42.8422C13.6147 42.9193 13.4557 42.9669 13.2921 42.9824C13.1285 42.9979 12.9635 42.9811 12.8064 42.9327C12.6493 42.8844 12.5033 42.8056 12.3767 42.7008C12.2501 42.596 12.1455 42.4672 12.0687 42.3219C11.9919 42.1766 11.9445 42.0176 11.9292 41.854C11.914 41.6903 11.9311 41.5253 11.9797 41.3683C12.0283 41.2113 12.1073 41.0654 12.2123 40.939C12.3173 40.8126 12.4462 40.7081 12.5916 40.6316L17.8663 37.844C18.7644 37.3614 19.7685 37.1097 20.7881 37.1116H31.0506C31.5507 37.1101 32.0459 37.2097 32.5065 37.4044C32.9672 37.599 33.3838 37.8848 33.7312 38.2444C34.0846 38.6053 34.3614 39.0339 34.545 39.5044C34.7287 39.9749 34.8154 40.4776 34.8 40.9825L34.7914 41.1241H36.3936L47.878 33.975C48.7102 33.4654 49.6767 33.2181 50.6515 33.2655C51.6262 33.3128 52.5641 33.6526 53.3431 34.2405C53.9296 34.6715 54.4098 35.2311 54.7466 35.8763C55.0835 36.5216 55.2681 37.2354 55.2864 37.963C55.3058 38.6753 55.163 39.3827 54.8688 40.0317C54.5746 40.6807 54.1368 41.2544 53.5884 41.7094L43.1807 50.468C41.6046 51.7948 39.611 52.5229 37.5508 52.5242Z" fill="#747CA0"/>
<path d="M18.8973 57.2063C18.2798 57.2057 17.6846 56.9756 17.2274 56.5605L6.39365 46.8108C6.14149 46.5838 5.93818 46.3078 5.79611 45.9996C5.65404 45.6915 5.57618 45.3577 5.56727 45.0185C5.55836 44.6793 5.61859 44.3419 5.74429 44.0267C5.87 43.7115 6.05854 43.4253 6.29844 43.1853L9.52414 39.9596C9.9782 39.5048 10.5901 39.2425 11.2326 39.2273C11.8751 39.212 12.4987 39.445 12.9738 39.8778L24.5974 50.4442C24.8859 50.7066 25.109 51.0328 25.2489 51.3968C25.3888 51.7608 25.4416 52.1525 25.4031 52.5406C25.3646 52.9286 25.2359 53.3023 25.0272 53.6317C24.8185 53.9611 24.5357 54.2372 24.2013 54.4378L20.1864 56.8468C19.7974 57.0816 19.3517 57.2059 18.8973 57.2063ZM11.2917 41.7272L8.06602 44.9529L18.9004 54.7032L22.9153 52.2942L22.9183 52.2917L11.2917 41.7272Z" fill="#747CA0"/>
<path d="M15.7434 22.8082C15.4705 22.8079 15.1994 22.7632 14.9408 22.6758C14.5434 22.5427 14.186 22.3114 13.9018 22.0034C13.6175 21.6953 13.4157 21.3206 13.3148 20.9138L13.0109 19.6967C12.9436 19.4261 12.7875 19.1858 12.5677 19.0142C12.3479 18.8426 12.077 18.7496 11.7981 18.75H8.75C7.75577 18.7489 6.80257 18.3535 6.09955 17.6505C5.39652 16.9474 5.00109 15.9942 5 15V7.5C5.00109 6.50577 5.39652 5.55257 6.09955 4.84955C6.80257 4.14652 7.75577 3.75109 8.75 3.75H28.75C29.7442 3.75109 30.6974 4.14652 31.4005 4.84955C32.1035 5.55257 32.4989 6.50577 32.5 7.5V15C32.4989 15.9942 32.1035 16.9474 31.4005 17.6505C30.6974 18.3535 29.7442 18.7489 28.75 18.75H22.1271C21.8433 18.7502 21.568 18.8468 21.3464 19.024L17.3016 22.2589C16.8599 22.614 16.3102 22.8078 15.7434 22.8082ZM8.75 6.25C8.41861 6.25043 8.10092 6.38226 7.86659 6.61659C7.63226 6.85092 7.50043 7.16861 7.5 7.5V15C7.50043 15.3314 7.63226 15.6491 7.86659 15.8834C8.10092 16.1177 8.41861 16.2496 8.75 16.25H11.7981C12.6347 16.249 13.4475 16.5282 14.1069 17.0431C14.7664 17.5579 15.2344 18.2787 15.4364 19.0906L15.7404 20.3076L19.7845 17.0721C20.4498 16.5408 21.2757 16.2509 22.1271 16.25H28.75C29.0814 16.2496 29.3991 16.1177 29.6334 15.8834C29.8677 15.6491 29.9996 15.3314 30 15V7.5C29.9996 7.16861 29.8677 6.85092 29.6334 6.61659C29.3991 6.38226 29.0814 6.25043 28.75 6.25H8.75Z" fill="#4064DF"/>
<path d="M11.25 12.5C11.9404 12.5 12.5 11.9404 12.5 11.25C12.5 10.5596 11.9404 10 11.25 10C10.5596 10 10 10.5596 10 11.25C10 11.9404 10.5596 12.5 11.25 12.5Z" fill="#747CA0"/>
<path d="M16.25 12.5C16.9404 12.5 17.5 11.9404 17.5 11.25C17.5 10.5596 16.9404 10 16.25 10C15.5596 10 15 10.5596 15 11.25C15 11.9404 15.5596 12.5 16.25 12.5Z" fill="#747CA0"/>
<path d="M21.25 12.5C21.9404 12.5 22.5 11.9404 22.5 11.25C22.5 10.5596 21.9404 10 21.25 10C20.5596 10 20 10.5596 20 11.25C20 11.9404 20.5596 12.5 21.25 12.5Z" fill="#747CA0"/>
<path d="M26.25 12.5C26.9404 12.5 27.5 11.9404 27.5 11.25C27.5 10.5596 26.9404 10 26.25 10C25.5596 10 25 10.5596 25 11.25C25 11.9404 25.5596 12.5 26.25 12.5Z" fill="#747CA0"/>
<path d="M25.5549 36.1296C24.2439 36.1296 21.9306 34.1814 18.6787 30.3392C17.7882 29.3466 17.3159 28.0483 17.3603 26.7156C17.3208 25.3478 17.8194 24.0192 18.7488 23.015C19.6384 22.1274 20.8437 21.6289 22.1003 21.6289C23.3569 21.6289 24.5622 22.1274 25.4517 23.015L25.5549 23.1182L25.6586 23.0144C26.5484 22.1273 27.7537 21.6292 29.0102 21.6293C30.2667 21.6294 31.4719 22.1277 32.3615 23.015C33.291 24.0192 33.7895 25.3479 33.7501 26.7156C33.7895 28.0832 33.291 29.4116 32.3615 30.4156C29.1792 34.1814 26.8659 36.1296 25.5549 36.1296ZM22.1003 24.1276C21.8062 24.1272 21.5149 24.1848 21.2431 24.2972C20.9713 24.4096 20.7244 24.5745 20.5164 24.7825C20.091 25.337 19.8603 26.0163 19.8603 26.7152C19.8603 27.4141 20.091 28.0935 20.5164 28.6479C21.98 30.5024 23.6733 32.1634 25.5555 33.5911C27.4078 32.182 29.0768 30.547 30.5238 28.7242C31.0162 28.1736 31.2765 27.4538 31.2501 26.7155C31.2804 26.0119 31.0464 25.3223 30.594 24.7825C30.1734 24.3633 29.6039 24.1279 29.0101 24.1279C28.4163 24.1279 27.8468 24.3633 27.4262 24.7825L26.4387 25.77C26.2042 26.0042 25.8862 26.1356 25.5548 26.1355C25.2234 26.1354 24.9056 26.0037 24.6712 25.7694L23.6842 24.7825C23.4763 24.5745 23.2294 24.4095 22.9575 24.2972C22.6857 24.1848 22.3944 24.1272 22.1003 24.1276Z" fill="#4064DF"/>
<path d="M52.3444 28.7496H44.6448C41.9008 28.783 39.2476 27.768 37.2264 25.9118C35.2053 24.0556 33.9687 21.4981 33.769 18.7612C33.6758 17.2037 33.9267 15.6449 34.5038 14.1953C35.081 12.7457 35.9701 11.441 37.1082 10.3737C38.2464 9.30642 39.6055 8.50281 41.0891 8.01992C42.5728 7.53702 44.1445 7.38669 45.6928 7.5796C47.5928 7.81485 49.3939 8.55971 50.9051 9.73524C52.4163 10.9108 53.5813 12.4732 54.2768 14.257C54.9723 16.0408 55.1723 17.9795 54.8556 19.8677C54.539 21.7559 53.7174 23.5233 52.4781 24.9826L53.3759 25.6564C53.6644 25.8728 53.8776 26.1746 53.9851 26.5189C54.0926 26.8632 54.0891 27.2326 53.9749 27.5747C53.8608 27.9169 53.642 28.2145 53.3493 28.4254C53.0567 28.6362 52.7051 28.7497 52.3444 28.7496ZM44.3927 10.0008C43.2831 9.99837 42.1847 10.2232 41.1653 10.6616C40.1459 11.0999 39.2271 11.7425 38.4656 12.5496C37.7041 13.3567 37.1159 14.3112 36.7375 15.3544C36.3591 16.3975 36.1984 17.5071 36.2653 18.6147C36.427 20.7151 37.3842 22.6747 38.9414 24.0935C40.4986 25.5123 42.5384 26.2835 44.6448 26.2496H50.0006L49.8407 26.1294C49.6925 26.0182 49.5709 25.8754 49.4847 25.7114C49.3984 25.5474 49.3497 25.3663 49.3421 25.1812C49.3344 24.9961 49.368 24.8116 49.4404 24.6411C49.5128 24.4705 49.6222 24.3182 49.7607 24.1952C50.9309 23.1609 51.7778 21.8111 52.1999 20.3075C52.6219 18.8039 52.6012 17.2105 52.1402 15.7184C51.6792 14.2263 50.7974 12.8989 49.6008 11.8954C48.4041 10.892 46.9433 10.2551 45.3937 10.0612C45.0616 10.0211 44.7273 10.001 44.3927 10.0008Z" fill="#4064DF"/>
<path d="M48.125 17.5H40.625C40.2935 17.5 39.9755 17.3683 39.7411 17.1339C39.5067 16.8995 39.375 16.5815 39.375 16.25C39.375 15.9185 39.5067 15.6005 39.7411 15.3661C39.9755 15.1317 40.2935 15 40.625 15H48.125C48.4565 15 48.7745 15.1317 49.0089 15.3661C49.2433 15.6005 49.375 15.9185 49.375 16.25C49.375 16.5815 49.2433 16.8995 49.0089 17.1339C48.7745 17.3683 48.4565 17.5 48.125 17.5Z" fill="#747CA0"/>
<path d="M45.625 21.875H40.625C40.2935 21.875 39.9755 21.7433 39.7411 21.5089C39.5067 21.2745 39.375 20.9565 39.375 20.625C39.375 20.2935 39.5067 19.9755 39.7411 19.7411C39.9755 19.5067 40.2935 19.375 40.625 19.375H45.625C45.9565 19.375 46.2745 19.5067 46.5089 19.7411C46.7433 19.9755 46.875 20.2935 46.875 20.625C46.875 20.9565 46.7433 21.2745 46.5089 21.5089C46.2745 21.7433 45.9565 21.875 45.625 21.875Z" fill="#747CA0"/>
</svg>
