<svg width="45" height="46" viewBox="0 0 45 46" fill="none" xmlns="http://www.w3.org/2000/svg">
<path d="M31.4373 1.8473C29.1087 0.843018 26.5158 0.22198 23.7293 0H21.2332C10.4637 0.567282 1.40359 9.07525 0.156456 19.7942C-0.769409 27.75 2.45341 35.4188 8.77763 40.308C15.0633 45.1669 23.2468 46.347 30.6683 43.4638C36.7003 41.1207 41.4403 36.1966 43.6727 29.9546C45.8527 23.8606 45.329 17.2183 42.2365 11.732C41.7065 10.7923 41.4264 10.6209 40.8749 10.901C40.6226 11.0288 40.5587 11.1597 40.5321 11.247C40.4075 11.6593 40.8155 12.3784 41.1127 12.9033C41.2259 13.1031 41.3334 13.2922 41.4156 13.4661C45.7895 22.6989 42.9202 33.6967 34.5937 39.6168C31.5157 41.805 27.8761 43.1166 24.0683 43.4094C20.2491 43.7028 16.4508 42.956 13.0831 41.2484L12.8384 41.1245L12.8055 40.5098L23.4131 29.8901L23.4536 29.8636C23.5086 29.8275 23.7034 29.6789 23.8919 29.5347C24.1391 29.3456 24.4471 29.111 24.7001 28.9289C25.1074 28.636 25.3534 28.459 25.65 28.5937C26.4108 28.9383 26.1294 29.8149 25.9782 30.2854C25.9333 30.4252 25.872 30.6162 25.8707 30.6863C25.8732 30.7673 25.9428 31 25.9947 31.1069L29.5818 34.7029C29.8866 34.9078 30.2218 34.9008 30.5095 34.6814L37.5547 27.6292C37.7741 27.3788 37.9266 27.0423 37.439 26.4517C36.8344 25.7187 34.9327 23.7696 34.1965 23.2149C33.9973 23.065 33.7608 22.9582 33.6217 22.955H33.621C33.5255 22.955 33.2226 23.0473 33.0417 23.1024C32.6047 23.2352 32.3669 23.3022 32.1475 23.2503C31.9103 23.1941 31.3348 22.6894 31.3715 22.2929L31.3816 22.1834L31.4385 22.0898C31.885 21.3556 31.9521 21.0754 31.5461 20.5625C30.2603 19.3572 29.0069 18.0506 27.7945 16.787C26.4557 15.3912 25.0713 13.9474 23.6496 12.6497C20.9271 10.1636 17.6979 9.31114 14.3113 10.1851C11.6691 10.8675 9.95772 12.6345 8.14584 14.5052C7.88781 14.7715 7.62156 15.0466 7.35215 15.3191C7.14534 15.6714 7.17317 16.0066 7.43752 16.3405C7.80686 16.8079 9.14 18.1429 9.56689 18.4724C9.81733 18.6659 10.0627 18.7178 10.3637 18.6413C10.4611 18.6166 10.6686 18.4408 10.8203 18.313C11.0234 18.1416 11.2327 17.9639 11.4686 17.8488C12.7303 17.2303 14.1058 17.427 15.2416 18.3877C15.6173 18.7051 17.6935 20.6935 17.9629 21.3556C18.2829 22.1423 18.1817 22.9284 17.6771 23.5684L17.6593 23.5906L17.6391 23.6108L5.86596 35.3606L5.54216 34.897C3.28315 31.6622 1.92154 28.0504 1.60407 24.4532C1.26762 20.6391 1.95 16.8376 3.57786 13.4592C5.11843 10.2623 7.47737 7.47269 10.3998 5.39139C13.2918 3.3316 16.6532 2.02818 20.1188 1.62216C23.7938 1.19148 27.57 1.78533 31.0389 3.33918C31.2672 3.44164 31.6099 3.63389 31.9723 3.83817C32.3783 4.06647 33.0575 4.44845 33.2384 4.48576C33.5875 4.55786 33.9372 4.43391 34.1289 4.17019C34.2269 4.03548 34.3603 3.75405 34.1497 3.38156C34.0485 3.20321 33.3636 2.67894 31.4348 1.84667L31.4373 1.8473ZM16.1409 17.1532C14.5459 15.7909 12.2534 15.5987 10.4371 16.6757L10.124 16.861L9.05652 15.8169L11.0385 13.7571C12.4855 12.3904 14.2885 11.5543 16.115 11.4038C18.1248 11.2381 20.1271 11.8168 21.7524 13.0329L21.7789 13.0525L21.8023 13.0759L29.8082 21.009L29.8354 21.0514C30.1054 21.465 29.8404 21.8666 29.7139 22.0595C29.6817 22.1082 29.6412 22.1695 29.6292 22.1999C29.5021 22.5066 29.4894 22.6597 29.5742 22.8987C29.7234 23.1827 30.9402 24.4406 31.2754 24.7062C31.701 25.0439 31.9331 24.98 32.4409 24.8415C32.6541 24.7833 32.8963 24.7169 33.1796 24.679L33.4104 24.648L35.918 27.1302L30.0346 33.0194L27.5998 30.5826V30.3853C27.6023 30.0527 27.6858 29.763 27.7591 29.5075C27.8717 29.1167 27.9261 28.8966 27.804 28.6209C27.6181 28.3483 26.2495 26.9532 26.0263 26.7881C25.5222 26.4194 25.1055 26.6755 24.2745 27.3478C23.9633 27.5995 23.6408 27.8601 23.3018 28.0264L22.9983 28.175L19.0937 24.2881L19.2461 23.982C19.7938 22.881 19.8096 21.6339 19.2891 20.5613C18.9274 19.8144 17.0181 17.9051 16.1409 17.1551V17.1532ZM18.0394 25.4208L21.8871 29.2723L11.0739 40.0993L10.7483 39.8742C9.44546 38.973 8.2622 37.9655 7.23135 36.8809L6.91261 36.5457L18.0394 25.4208Z" fill="white"/>
<path d="M37.8709 6.29702C37.3991 6.29702 37.0152 6.68153 37.0152 7.15395C37.0152 7.62637 37.3991 8.01088 37.8709 8.01088C38.3427 8.01088 38.7266 7.62637 38.7266 7.15395C38.7266 6.68153 38.3427 6.29702 37.8709 6.29702Z" fill="white"/>
</svg>
