<svg width="9" height="66" viewBox="0 0 9 66" fill="none" xmlns="http://www.w3.org/2000/svg">
<path d="M17.7443 4.58426C17.0229 6.03959 15.7967 6.76725 14.4262 7.31299C14.282 7.42214 14.1016 7.53129 14.0295 7.67682C13.5246 8.8047 13.0197 10.0417 12.5148 11.1696C12.3344 11.6426 12.1902 12.0428 12.0098 12.5522C12.5869 11.7881 13.1279 11.1696 13.6689 10.5511C14.6066 9.42321 15.7246 8.5864 17.2393 8.3681C18.7902 8.07704 20.341 8.22257 21.8557 8.65917C21.8557 8.69555 21.9279 8.69555 22 8.76832C21.6393 9.35044 21.2787 9.93257 20.918 10.4783C20.1246 11.497 19.1869 12.3702 17.8885 12.8068C16.0852 13.389 14.2098 13.5345 12.3344 13.207C12.1541 13.1707 12.0098 13.1343 11.8295 13.0979C10.8918 15.8266 10.1705 18.4826 9.70164 21.2841C10.0262 20.7747 10.3508 20.1562 10.6754 19.6468C11.5049 18.3007 12.4787 17.2092 13.9934 16.6998C15.1836 16.2996 16.3377 16.1177 17.5639 16.1177C17.9607 16.1177 18.3574 16.1541 18.8262 16.1541C18.5738 16.6634 18.4295 17.1728 18.2492 17.6094C17.6721 18.8828 16.9508 19.9743 15.7607 20.702C14.3541 21.6479 12.7672 22.0845 11.1082 22.2664C10.6033 22.3028 10.0262 22.3756 9.48525 22.412C9.01639 25.1771 8.72787 28.0149 8.6918 30.8528C8.76394 30.7437 8.8 30.6345 8.83607 30.489C9.01639 29.9796 9.23279 29.3975 9.44918 28.8518C10.0623 27.2145 11.1443 25.9411 12.7672 25.1771C13.8852 24.7041 15.0754 24.3766 16.2656 24.1947C16.482 24.1947 16.6623 24.1583 16.9148 24.0856V24.3766C16.8426 24.6313 16.8066 24.9588 16.7344 25.2862C16.3738 26.9235 15.7246 28.4879 14.318 29.5794C12.8033 30.7801 11.1082 31.5441 9.26885 31.9443C9.05246 31.9807 8.87213 31.9807 8.65574 32.0535C8.61967 34.9641 8.83607 37.8384 9.34098 40.6762C9.55738 39.7303 9.70164 38.8571 9.91803 37.9475C10.2066 36.6741 10.8197 35.5826 11.7934 34.7094C13.0197 33.6907 14.4262 32.9994 15.941 32.4537C16.0852 32.4537 16.2656 32.3445 16.518 32.3081C16.482 33.145 16.4459 33.8362 16.3738 34.5639C16.2295 35.8737 15.8689 37.0743 15.0033 38.0567C13.5967 39.6939 11.8656 40.9673 9.77377 41.6586C9.70164 41.6586 9.62951 41.695 9.55738 41.7677C10.0623 44.4237 10.7836 47.0069 11.7213 49.5173C11.7574 49.0443 11.7213 48.6078 11.7213 48.1712C11.7213 46.6431 12.0098 45.2241 12.9115 44.0235C13.6689 43.0411 14.6066 42.2407 15.6164 41.6222C16.1574 41.2584 16.7344 40.9673 17.3115 40.6399C17.3836 40.8945 17.4197 41.1128 17.4557 41.2948C17.7803 43.1867 17.7803 45.0058 16.8066 46.6795C16.0131 48.062 14.9311 49.2263 13.6689 50.245C13.2 50.6088 12.7311 50.8999 12.2262 51.2273C13.1639 53.6286 14.2098 55.9571 15.4721 58.2129C15.4721 58.0673 15.4721 57.9946 15.4721 57.8854C15.4 57.2305 15.3279 56.5756 15.2557 55.9571C15.1475 54.7929 15.3639 53.665 15.9049 52.6463C16.5541 51.4456 17.4557 50.3905 18.5016 49.5173C18.8984 49.1899 19.259 48.8988 19.6918 48.535C20.2328 49.8812 20.5934 51.1546 20.5934 52.5007C20.5934 53.2648 20.5574 54.0288 20.2689 54.7565C19.5115 56.7212 18.3213 58.4676 16.6984 59.9229C16.518 60.032 16.5541 60.1412 16.6262 60.3231C17.7082 62.1059 18.8623 63.8159 20.0885 65.4895C20.0885 65.4895 19.8721 65.9625 18.3574 64.9801C18.0328 64.4344 17.6361 63.925 17.3115 63.3429C16.5902 62.215 15.9049 61.0871 15.2557 59.9593C15.1115 59.6682 14.9672 59.5954 14.6426 59.6682C12.659 60.1048 10.6393 60.1048 8.6918 59.559C7.24918 59.1952 6.16721 58.2856 5.19344 57.2305C4.79672 56.7576 4.43607 56.139 4.03934 55.6661C4.00328 55.5569 4.00328 55.5205 3.93115 55.4478C3.96721 55.4114 4.03934 55.3386 4.07541 55.3386C5.66229 54.8293 7.28525 54.5382 8.94426 54.6837C10.6393 54.7929 11.9738 55.5933 13.1279 56.7576C13.4164 57.0486 13.6328 57.2669 13.9574 57.5216C13.9574 57.4124 13.8852 57.3397 13.8492 57.2305C12.8033 55.1567 11.8656 52.9373 11.1082 50.718C11.0361 50.4997 10.9279 50.4269 10.7115 50.4269C8.72787 50.5724 6.81639 50.2086 4.97705 49.4082C3.57049 48.7533 2.59672 47.6982 1.83934 46.4248C1.47869 45.8426 1.22623 45.1514 0.865574 44.4601C1.51475 44.4601 2.12787 44.3509 2.70492 44.3509C3.85902 44.3146 5.01311 44.3873 6.09508 44.7148C7.60984 45.1877 8.6918 46.0973 9.59344 47.3343C9.80984 47.589 9.99016 47.8437 10.1705 48.1348C9.62951 45.6607 9.05246 43.2231 8.47541 40.749C7.57377 40.5307 6.6 40.3488 5.69836 40.0214C4.2918 39.5484 2.99344 38.8571 1.94754 37.7292C1.0459 36.7469 0.108197 34.6003 0 33.2541H0.0360656C2.01967 33.2905 3.89508 33.6543 5.59016 34.7094C6.6 35.3279 7.28525 36.3467 7.82623 37.4382C7.97049 37.6565 8.07869 37.9111 8.22295 38.1658C8.00656 35.7282 7.89836 33.2905 8.07869 30.8528C6.85246 30.489 5.73443 30.016 4.68852 29.3247C3.20984 28.3424 1.91148 27.1781 1.37049 25.3954C1.08197 24.4494 0.901639 23.4671 0.865574 22.4847C0.865574 22.3756 0.865574 22.3028 0.865574 22.0845C1.76721 22.412 2.56066 22.5939 3.3541 22.8849C4.43607 23.3579 5.48197 23.9037 6.27541 24.8132C6.99672 25.5773 7.39344 26.5232 7.71803 27.5056C7.8623 27.9786 7.97049 28.4152 8.18688 28.8518C8.18688 28.7062 8.18688 28.6698 8.22295 28.5243C8.36721 26.1594 8.6918 23.8309 9.16066 21.5024C9.19672 21.2841 9.16066 21.1022 8.94426 20.993C7.10492 20.0834 5.59016 18.81 4.43607 17.0637C3.64262 15.863 3.4623 14.5168 3.49836 13.0979C3.49836 12.5522 3.60656 12.0792 3.64262 11.4243C4.36393 11.7881 4.97705 12.0792 5.5541 12.4066C6.81639 13.1343 7.89836 14.0075 8.65574 15.3173C9.23279 16.2996 9.37705 17.4275 9.48525 18.5554C9.48525 18.9192 9.48525 19.283 9.59344 19.5741C9.59344 19.4649 9.62951 19.3922 9.70164 19.283C10.2787 16.9181 11 14.5532 11.9016 12.2611C12.0098 12.0428 12.0098 11.8973 11.7574 11.7881C10.2066 10.6602 8.98033 9.24129 8.15082 7.49491C7.46557 6.11235 7.46557 4.69341 7.7541 3.23809C7.8623 2.72873 8.00656 2.21937 8.15082 1.67362C9.16066 2.25575 10.0623 2.98341 10.8557 3.8566C12.082 5.16639 12.7311 6.6581 12.5869 8.55002C12.5869 9.24129 12.4787 9.93257 12.4426 10.733C12.5148 10.6239 12.5508 10.5875 12.5508 10.5147C13.0557 9.49598 13.5246 8.44087 14.0295 7.38576C14.0656 7.24023 14.1016 7.0947 14.0656 6.98555C14.0295 6.03959 14.0656 5.09363 14.282 4.18405C14.4984 3.49277 14.7508 2.76511 15.2918 2.25575C15.9049 1.60085 16.6623 1.09149 17.4197 0.654895C17.8164 0.363831 18.2492 0.181915 18.682 0C18.7541 0 18.7902 0.036383 18.8623 0.036383C18.8623 0.363831 18.7541 0.691278 18.7541 1.05511C18.682 2.32852 18.3934 3.56554 17.8164 4.65703L17.7443 4.58426Z" fill="white" fill-opacity="0.3"/>
</svg>
