<svg width="61" height="60" viewBox="0 0 61 60" fill="none" xmlns="http://www.w3.org/2000/svg">
<path d="M30.0654 0.5C37.9638 0.5 45.3869 3.56795 50.9727 9.1416C56.5573 14.7141 59.6317 22.12 59.6318 30C59.6318 30.4143 59.6184 30.8278 59.6006 31.2402C59.305 31.1418 59.0113 31.037 58.7197 30.9258C58.7302 30.6193 58.7383 30.3108 58.7383 30C58.738 14.2218 45.8753 1.38867 30.0654 1.38867C14.2555 1.38883 1.39258 14.2217 1.39258 30C1.39284 45.7781 14.2566 58.6112 30.0654 58.6113C35.3882 58.6113 40.3779 57.1549 44.6543 54.6221C44.8844 54.839 45.1218 55.0483 45.3643 55.252C40.7973 58.0188 35.5471 59.5 30.0645 59.5C22.1663 59.4999 14.7439 56.4319 9.15918 50.8594C3.57439 45.2867 0.5 37.8811 0.5 30C0.500123 22.119 3.57452 14.7132 9.15918 9.14062C14.7439 3.56808 22.1672 0.500078 30.0654 0.5Z" fill="white" stroke="white"/>
</svg>
