<svg width="396" height="392" viewBox="0 0 396 392" fill="none" xmlns="http://www.w3.org/2000/svg">
<mask id="path-1-inside-1_1696_8314" fill="white">
<path fill-rule="evenodd" clip-rule="evenodd" d="M54.7506 60.8158C90.7577 23.3375 141.365 0 197.398 0C289.241 0 366.484 62.6947 388.877 147.738C388.877 147.738 319.526 148.826 275.726 142.794C227.19 136.069 199.47 130.235 153.795 112.534C113.151 96.8109 54.8492 60.8158 54.8492 60.8158M393.514 171.471C392.823 166.527 392.034 161.681 390.949 156.836C390.949 156.836 293.581 158.22 232.419 148.727C166.126 138.442 127.455 131.619 66.4899 103.535C53.4681 97.5031 46.2667 93.152 33.6395 86.9221C26.9314 96.712 21.111 107.194 16.2772 118.171C16.2772 118.171 54.8492 131.224 79.9063 137.948C133.276 152.188 164.548 156.044 219.298 162.571C286.775 170.68 393.415 171.471 393.415 171.471M221.173 189.864L395.092 190.655C394.993 187.392 394.796 184.129 394.5 180.865C394.5 180.865 280.066 181.755 207.362 175.328C128.541 168.307 82.0765 160.396 6.80683 144.376C3.35409 156.737 0.986497 169.592 0 182.843L221.173 189.864ZM54.7506 330.878C90.7577 368.356 141.365 391.693 197.299 391.693C289.142 391.693 366.385 328.999 388.778 243.955C388.778 243.955 319.428 242.868 275.627 248.9C227.092 255.624 199.371 261.459 153.696 279.159C113.053 294.883 54.7506 330.878 54.7506 330.878ZM219.397 229.122C164.548 235.748 133.374 239.506 80.0049 253.745C54.8492 260.47 16.3758 273.523 16.3758 273.523C21.2097 284.499 27.03 294.981 33.7382 304.771C46.3654 298.442 53.5668 294.19 66.5885 288.158C127.455 260.074 166.225 253.251 232.517 242.967C293.68 233.473 391.047 234.858 391.047 234.858C392.034 230.012 392.922 225.167 393.612 220.222C393.612 220.222 286.972 221.014 219.496 229.122M0 208.85C0.986497 222.101 3.35409 234.957 6.80683 247.318C82.1752 231.298 128.541 223.387 207.362 216.366C280.066 209.938 394.5 210.828 394.5 210.828C394.796 207.565 394.993 204.4 395.092 201.137L221.173 201.829L0 208.85Z"/>
</mask>
<path fill-rule="evenodd" clip-rule="evenodd" d="M54.7506 60.8158C90.7577 23.3375 141.365 0 197.398 0C289.241 0 366.484 62.6947 388.877 147.738C388.877 147.738 319.526 148.826 275.726 142.794C227.19 136.069 199.47 130.235 153.795 112.534C113.151 96.8109 54.8492 60.8158 54.8492 60.8158M393.514 171.471C392.823 166.527 392.034 161.681 390.949 156.836C390.949 156.836 293.581 158.22 232.419 148.727C166.126 138.442 127.455 131.619 66.4899 103.535C53.4681 97.5031 46.2667 93.152 33.6395 86.9221C26.9314 96.712 21.111 107.194 16.2772 118.171C16.2772 118.171 54.8492 131.224 79.9063 137.948C133.276 152.188 164.548 156.044 219.298 162.571C286.775 170.68 393.415 171.471 393.415 171.471M221.173 189.864L395.092 190.655C394.993 187.392 394.796 184.129 394.5 180.865C394.5 180.865 280.066 181.755 207.362 175.328C128.541 168.307 82.0765 160.396 6.80683 144.376C3.35409 156.737 0.986497 169.592 0 182.843L221.173 189.864ZM54.7506 330.878C90.7577 368.356 141.365 391.693 197.299 391.693C289.142 391.693 366.385 328.999 388.778 243.955C388.778 243.955 319.428 242.868 275.627 248.9C227.092 255.624 199.371 261.459 153.696 279.159C113.053 294.883 54.7506 330.878 54.7506 330.878ZM219.397 229.122C164.548 235.748 133.374 239.506 80.0049 253.745C54.8492 260.47 16.3758 273.523 16.3758 273.523C21.2097 284.499 27.03 294.981 33.7382 304.771C46.3654 298.442 53.5668 294.19 66.5885 288.158C127.455 260.074 166.225 253.251 232.517 242.967C293.68 233.473 391.047 234.858 391.047 234.858C392.034 230.012 392.922 225.167 393.612 220.222C393.612 220.222 286.972 221.014 219.496 229.122M0 208.85C0.986497 222.101 3.35409 234.957 6.80683 247.318C82.1752 231.298 128.541 223.387 207.362 216.366C280.066 209.938 394.5 210.828 394.5 210.828C394.796 207.565 394.993 204.4 395.092 201.137L221.173 201.829L0 208.85Z" fill="#4064DF" fill-opacity="0.06"/>
<path d="M388.877 147.738L388.893 148.738L390.169 148.718L389.844 147.483L388.877 147.738ZM275.726 142.794L275.589 143.784L275.589 143.784L275.726 142.794ZM153.795 112.534L154.156 111.602L154.156 111.601L153.795 112.534ZM390.949 156.836L391.925 156.617L391.747 155.824L390.935 155.836L390.949 156.836ZM232.419 148.727L232.572 147.739L232.572 147.739L232.419 148.727ZM66.4899 103.535L66.0696 104.443L66.0715 104.443L66.4899 103.535ZM33.6395 86.9221L34.082 86.0253L33.3046 85.6418L32.8146 86.3569L33.6395 86.9221ZM16.2772 118.171L15.362 117.768L14.9216 118.768L15.9566 119.118L16.2772 118.171ZM79.9063 137.948L79.6471 138.914L79.6485 138.914L79.9063 137.948ZM219.298 162.571L219.418 161.578L219.417 161.578L219.298 162.571ZM221.173 189.864L221.141 190.863L221.154 190.864L221.168 190.864L221.173 189.864ZM395.092 190.655L395.087 191.655L396.123 191.66L396.092 190.625L395.092 190.655ZM394.5 180.865L395.496 180.775L395.413 179.858L394.492 179.865L394.5 180.865ZM207.362 175.328L207.273 176.324L207.274 176.324L207.362 175.328ZM6.80683 144.376L7.015 143.398L6.09637 143.202L5.8437 144.107L6.80683 144.376ZM0 182.843L-0.99724 182.769L-1.07471 183.809L-0.0317286 183.842L0 182.843ZM54.7506 330.878L54.2252 330.027L53.1714 330.677L54.0295 331.57L54.7506 330.878ZM388.778 243.955L389.745 244.21L390.071 242.976L388.794 242.956L388.778 243.955ZM275.627 248.9L275.491 247.909L275.49 247.909L275.627 248.9ZM153.696 279.159L154.057 280.092L154.058 280.092L153.696 279.159ZM80.0049 253.745L79.7471 252.779L79.7467 252.779L80.0049 253.745ZM16.3758 273.523L16.0546 272.576L15.0206 272.927L15.4607 273.926L16.3758 273.523ZM33.7382 304.771L32.9133 305.336L33.4064 306.056L34.1863 305.665L33.7382 304.771ZM66.5885 288.158L66.1696 287.25L66.1682 287.251L66.5885 288.158ZM232.517 242.967L232.671 243.955L232.671 243.955L232.517 242.967ZM391.047 234.858L391.033 235.858L391.862 235.869L392.027 235.057L391.047 234.858ZM393.612 220.222L394.603 220.361L394.763 219.214L393.605 219.222L393.612 220.222ZM0 208.85L-0.0317286 207.851L-1.07471 207.884L-0.99724 208.925L0 208.85ZM6.80683 247.318L5.8437 247.587L6.0963 248.491L7.01474 248.296L6.80683 247.318ZM207.362 216.366L207.274 215.37L207.273 215.37L207.362 216.366ZM394.5 210.828L394.492 211.828L395.413 211.835L395.496 210.918L394.5 210.828ZM395.092 201.137L396.092 201.167L396.123 200.133L395.088 200.137L395.092 201.137ZM221.173 201.829L221.169 200.829L221.155 200.829L221.141 200.83L221.173 201.829ZM54.7506 60.8158L55.4717 61.5086C91.2984 24.2181 141.649 1 197.398 1V0V-1C141.081 -1 90.2171 22.4568 54.0295 60.123L54.7506 60.8158ZM197.398 0V1C288.774 1 365.629 63.376 387.91 147.993L388.877 147.738L389.844 147.483C367.338 62.0133 289.708 -1 197.398 -1V0ZM388.877 147.738C388.861 146.738 388.861 146.738 388.861 146.738C388.86 146.738 388.859 146.738 388.858 146.738C388.856 146.738 388.853 146.738 388.849 146.738C388.841 146.738 388.828 146.739 388.812 146.739C388.778 146.739 388.729 146.74 388.663 146.741C388.531 146.743 388.334 146.745 388.075 146.749C387.557 146.755 386.792 146.764 385.803 146.773C383.823 146.791 380.946 146.81 377.356 146.814C370.175 146.821 360.145 146.769 348.748 146.528C325.942 146.046 297.702 144.811 275.862 141.803L275.726 142.794L275.589 143.784C297.55 146.809 325.886 148.045 348.706 148.528C360.121 148.769 370.166 148.821 377.358 148.814C380.954 148.81 383.836 148.791 385.821 148.773C386.813 148.764 387.58 148.755 388.1 148.749C388.36 148.745 388.558 148.743 388.691 148.741C388.757 148.74 388.808 148.739 388.842 148.739C388.858 148.738 388.871 148.738 388.88 148.738C388.884 148.738 388.887 148.738 388.889 148.738C388.89 148.738 388.891 148.738 388.892 148.738C388.892 148.738 388.893 148.738 388.877 147.738ZM275.726 142.794L275.863 141.803C227.38 135.086 199.739 129.267 154.156 111.602L153.795 112.534L153.434 113.466C199.2 131.203 227.001 137.052 275.589 143.784L275.726 142.794ZM153.795 112.534L154.156 111.601C133.902 103.766 109.216 90.8654 89.5678 79.9054C79.7493 74.4286 71.1994 69.4425 65.1043 65.8257C62.0569 64.0174 59.6234 62.5516 57.9523 61.5381C57.1168 61.0314 56.4718 60.6378 56.036 60.371C55.8181 60.2376 55.6525 60.1359 55.5415 60.0677C55.486 60.0335 55.4441 60.0078 55.4162 59.9906C55.4022 59.982 55.3918 59.9755 55.3848 59.9712C55.3813 59.9691 55.3787 59.9675 55.377 59.9664C55.3762 59.9659 55.3756 59.9655 55.3751 59.9653C55.3747 59.965 55.3746 59.9649 54.8492 60.8158C54.3239 61.6667 54.3242 61.6669 54.3247 61.6672C54.3251 61.6675 54.3258 61.6679 54.3268 61.6685C54.3286 61.6696 54.3313 61.6713 54.3349 61.6735C54.3421 61.678 54.3529 61.6846 54.3671 61.6933C54.3955 61.7109 54.4379 61.737 54.494 61.7714C54.6061 61.8403 54.7728 61.9427 54.9918 62.0768C55.4299 62.3449 56.0772 62.74 56.9152 63.2482C58.5913 64.2647 61.0302 65.7338 64.0837 67.5457C70.1903 71.1693 78.7561 76.1647 88.5935 81.652C108.257 92.6203 133.044 105.579 153.434 113.467L153.795 112.534ZM393.514 171.471L394.504 171.333C393.812 166.375 393.018 161.5 391.925 156.617L390.949 156.836L389.973 157.054C391.05 161.863 391.835 166.679 392.523 171.609L393.514 171.471ZM390.949 156.836C390.935 155.836 390.934 155.836 390.934 155.836C390.933 155.836 390.932 155.836 390.93 155.836C390.927 155.836 390.923 155.836 390.917 155.836C390.905 155.836 390.888 155.836 390.865 155.837C390.818 155.837 390.748 155.838 390.655 155.839C390.47 155.842 390.193 155.845 389.83 155.849C389.103 155.857 388.028 155.867 386.639 155.877C383.859 155.896 379.82 155.913 374.781 155.904C364.704 155.885 350.63 155.761 334.646 155.341C302.667 154.501 263.087 152.475 232.572 147.739L232.419 148.727L232.265 149.715C262.913 154.472 302.599 156.5 334.593 157.341C350.597 157.761 364.688 157.885 374.778 157.904C379.823 157.913 383.868 157.896 386.652 157.876C388.045 157.867 389.122 157.857 389.851 157.849C390.216 157.845 390.493 157.841 390.68 157.839C390.773 157.838 390.844 157.837 390.891 157.836C390.915 157.836 390.933 157.836 390.945 157.836C390.951 157.836 390.955 157.836 390.958 157.836C390.96 157.835 390.961 157.835 390.962 157.835C390.963 157.835 390.963 157.835 390.949 156.836ZM232.419 148.727L232.572 147.739C166.304 137.458 127.744 130.651 66.9083 102.627L66.4899 103.535L66.0715 104.443C127.166 132.587 165.949 139.427 232.265 149.715L232.419 148.727ZM66.4899 103.535L66.9102 102.628C53.8752 96.5895 46.8087 92.3043 34.082 86.0253L33.6395 86.9221L33.1971 87.8189C45.7247 93.9997 53.0611 98.4166 66.0696 104.443L66.4899 103.535ZM33.6395 86.9221L32.8146 86.3569C26.0709 96.1986 20.2205 106.735 15.362 117.768L16.2772 118.171L17.1924 118.574C22.0016 107.653 27.7919 97.2253 34.4645 87.4874L33.6395 86.9221ZM16.2772 118.171C15.9566 119.118 15.9568 119.118 15.9571 119.118C15.9574 119.118 15.9579 119.118 15.9585 119.118C15.9597 119.119 15.9615 119.119 15.9638 119.12C15.9686 119.122 15.9756 119.124 15.985 119.127C16.0037 119.134 16.0317 119.143 16.0687 119.156C16.1426 119.181 16.2527 119.218 16.3972 119.266C16.6863 119.364 17.1133 119.507 17.6656 119.693C18.7702 120.063 20.3759 120.6 22.3809 121.264C26.3908 122.594 31.9983 124.437 38.3895 126.49C51.1674 130.594 67.0939 135.545 79.6471 138.914L79.9063 137.948L80.1654 136.982C67.6616 133.627 51.7735 128.689 39.0012 124.586C32.6172 122.535 27.0157 120.694 23.0103 119.366C21.0077 118.702 19.4041 118.166 18.3014 117.796C17.7501 117.612 17.324 117.468 17.0358 117.371C16.8917 117.323 16.7821 117.286 16.7085 117.261C16.6718 117.248 16.644 117.239 16.6255 117.233C16.6162 117.23 16.6093 117.227 16.6046 117.226C16.6023 117.225 16.6006 117.224 16.5994 117.224C16.5989 117.224 16.5984 117.224 16.5982 117.223C16.5979 117.223 16.5978 117.223 16.2772 118.171ZM79.9063 137.948L79.6485 138.914C133.09 153.173 164.42 157.036 219.18 163.564L219.298 162.571L219.417 161.578C164.675 155.053 133.462 151.202 80.1641 136.982L79.9063 137.948ZM219.298 162.571L219.179 163.564C252.962 167.624 296.526 169.85 331.626 171.061C349.18 171.667 364.624 172.02 375.68 172.22C381.208 172.321 385.639 172.384 388.689 172.421C390.213 172.44 391.393 172.452 392.191 172.46C392.59 172.464 392.894 172.467 393.098 172.468C393.201 172.469 393.278 172.47 393.329 172.47C393.355 172.47 393.375 172.471 393.388 172.471C393.394 172.471 393.399 172.471 393.403 172.471C393.404 172.471 393.405 172.471 393.406 172.471C393.407 172.471 393.408 172.471 393.415 171.471C393.422 170.471 393.422 170.471 393.421 170.471C393.42 170.471 393.419 170.471 393.418 170.471C393.414 170.471 393.41 170.471 393.403 170.471C393.39 170.471 393.371 170.471 393.345 170.47C393.294 170.47 393.217 170.469 393.116 170.468C392.912 170.467 392.609 170.464 392.211 170.46C391.414 170.452 390.236 170.44 388.713 170.421C385.667 170.384 381.24 170.321 375.716 170.221C364.669 170.02 349.235 169.668 331.695 169.062C296.605 167.851 253.111 165.627 219.418 161.578L219.298 162.571ZM221.173 189.864L221.168 190.864L395.087 191.655L395.092 190.655L395.097 189.655L221.177 188.864L221.173 189.864ZM395.092 190.655L396.092 190.625C395.992 187.341 395.794 184.058 395.496 180.775L394.5 180.865L393.504 180.956C393.798 184.199 393.994 187.442 394.092 190.685L395.092 190.655ZM394.5 180.865C394.492 179.865 394.492 179.865 394.491 179.865C394.49 179.865 394.489 179.865 394.487 179.865C394.484 179.865 394.479 179.865 394.472 179.865C394.458 179.866 394.437 179.866 394.41 179.866C394.354 179.866 394.272 179.867 394.163 179.868C393.944 179.869 393.619 179.871 393.191 179.874C392.336 179.879 391.072 179.885 389.437 179.891C386.168 179.903 381.416 179.912 375.485 179.904C363.625 179.887 347.053 179.797 328.211 179.507C290.519 178.926 243.764 177.542 207.45 174.331L207.362 175.328L207.274 176.324C243.664 179.541 290.479 180.926 328.18 181.507C347.034 181.797 363.615 181.887 375.482 181.904C381.416 181.912 386.172 181.903 389.445 181.891C391.081 181.885 392.346 181.879 393.203 181.874C393.631 181.871 393.957 181.869 394.176 181.868C394.286 181.867 394.369 181.866 394.424 181.866C394.452 181.866 394.473 181.865 394.487 181.865C394.494 181.865 394.499 181.865 394.503 181.865C394.504 181.865 394.506 181.865 394.507 181.865C394.507 181.865 394.508 181.865 394.5 180.865ZM207.362 175.328L207.45 174.331C128.678 167.315 82.2546 159.411 7.015 143.398L6.80683 144.376L6.59866 145.354C81.8984 161.38 128.403 169.298 207.273 176.324L207.362 175.328ZM6.80683 144.376L5.8437 144.107C2.37448 156.527 -0.00549123 169.447 -0.99724 182.769L0 182.843L0.99724 182.917C1.97849 169.737 4.3337 156.947 7.76996 144.645L6.80683 144.376ZM0 182.843L-0.0317286 183.842L221.141 190.863L221.173 189.864L221.204 188.864L0.0317286 181.843L0 182.843ZM54.7506 330.878L54.0295 331.57C90.2169 369.236 141.081 392.693 197.299 392.693V391.693V390.693C141.649 390.693 91.2986 367.475 55.4717 330.185L54.7506 330.878ZM197.299 391.693V392.693C289.609 392.693 367.24 329.68 389.745 244.21L388.778 243.955L387.811 243.701C365.53 328.317 288.675 390.693 197.299 390.693V391.693ZM388.778 243.955C388.794 242.956 388.794 242.956 388.793 242.956C388.793 242.956 388.792 242.956 388.791 242.956C388.789 242.955 388.785 242.955 388.781 242.955C388.773 242.955 388.76 242.955 388.743 242.955C388.709 242.954 388.659 242.954 388.592 242.953C388.459 242.951 388.261 242.948 388.001 242.945C387.482 242.938 386.714 242.93 385.722 242.921C383.738 242.903 380.855 242.884 377.259 242.88C370.067 242.872 360.022 242.925 348.607 243.166C325.787 243.648 297.451 244.885 275.491 247.909L275.627 248.9L275.764 249.89C297.604 246.883 325.843 245.647 348.649 245.165C360.047 244.924 370.077 244.872 377.257 244.88C380.847 244.884 383.724 244.902 385.704 244.92C386.694 244.929 387.459 244.938 387.976 244.945C388.235 244.948 388.432 244.951 388.564 244.952C388.63 244.953 388.68 244.954 388.713 244.955C388.73 244.955 388.742 244.955 388.75 244.955C388.755 244.955 388.758 244.955 388.76 244.955C388.761 244.955 388.762 244.955 388.762 244.955C388.763 244.955 388.763 244.955 388.778 243.955ZM275.627 248.9L275.49 247.909C226.902 254.641 199.102 260.49 153.335 278.227L153.696 279.159L154.058 280.092C199.64 262.427 227.281 256.607 275.764 249.89L275.627 248.9ZM153.696 279.159L153.335 278.227C132.945 286.115 108.158 299.073 88.4949 310.041C78.6574 315.529 70.0917 320.524 63.985 324.148C60.9316 325.96 58.4926 327.429 56.8166 328.445C55.9785 328.953 55.3312 329.348 54.8932 329.617C54.6741 329.751 54.5074 329.853 54.3953 329.922C54.3393 329.956 54.2969 329.982 54.2684 330C54.2542 330.009 54.2435 330.015 54.2363 330.02C54.2327 330.022 54.2299 330.024 54.2281 330.025C54.2272 330.025 54.2265 330.026 54.226 330.026C54.2255 330.026 54.2252 330.027 54.7506 330.878C55.2759 331.728 55.2761 331.728 55.2765 331.728C55.2769 331.728 55.2775 331.727 55.2784 331.727C55.2801 331.726 55.2827 331.724 55.2862 331.722C55.2931 331.718 55.3036 331.711 55.3175 331.703C55.3455 331.686 55.3873 331.66 55.4428 331.626C55.5538 331.557 55.7195 331.456 55.9374 331.322C56.3732 331.056 57.0181 330.662 57.8537 330.155C59.5248 329.142 61.9582 327.676 65.0056 325.868C71.1007 322.251 79.6507 317.265 89.4692 311.788C109.118 300.828 133.804 287.927 154.057 280.092L153.696 279.159ZM219.397 229.122L219.277 228.13C164.421 234.756 133.189 238.52 79.7471 252.779L80.0049 253.745L80.2627 254.712C133.56 240.491 164.674 236.74 219.517 230.115L219.397 229.122ZM80.0049 253.745L79.7467 252.779C67.1435 256.148 51.2167 261.099 38.4509 265.204C32.0658 267.257 26.4674 269.1 22.4651 270.429C20.4639 271.094 18.8617 271.63 17.7596 272.001C17.2085 272.186 16.7825 272.33 16.4941 272.427C16.3499 272.476 16.2401 272.513 16.1663 272.538C16.1294 272.55 16.1016 272.56 16.0829 272.566C16.0735 272.569 16.0665 272.572 16.0617 272.573C16.0594 272.574 16.0576 272.575 16.0564 272.575C16.0558 272.575 16.0553 272.576 16.055 272.576C16.0547 272.576 16.0546 272.576 16.3758 273.523C16.6971 274.47 16.6973 274.47 16.6975 274.47C16.6978 274.47 16.6982 274.469 16.6988 274.469C16.7 274.469 16.7017 274.468 16.704 274.467C16.7086 274.466 16.7156 274.464 16.7248 274.46C16.7433 274.454 16.771 274.445 16.8076 274.432C16.881 274.408 16.9903 274.371 17.134 274.322C17.4215 274.225 17.8466 274.082 18.3967 273.897C19.4968 273.527 21.0969 272.991 23.0956 272.327C27.0933 270.999 32.6854 269.158 39.0631 267.108C51.8229 263.005 67.7106 258.067 80.2631 254.711L80.0049 253.745ZM16.3758 273.523L15.4607 273.926C20.3191 284.958 26.1695 295.495 32.9133 305.336L33.7382 304.771L34.5631 304.206C27.8905 294.468 22.1003 284.04 17.291 273.12L16.3758 273.523ZM33.7382 304.771L34.1863 305.665C46.8786 299.304 53.9961 295.093 67.0089 289.066L66.5885 288.158L66.1682 287.251C53.1375 293.287 45.8521 297.581 33.2901 303.877L33.7382 304.771ZM66.5885 288.158L67.0075 289.066C127.744 261.042 166.402 254.235 232.671 243.955L232.517 242.967L232.364 241.978C166.048 252.266 127.166 259.106 66.1696 287.25L66.5885 288.158ZM232.517 242.967L232.671 243.955C263.186 239.218 302.765 237.192 334.745 236.352C350.728 235.932 364.802 235.808 374.88 235.79C379.919 235.781 383.958 235.798 386.737 235.817C388.127 235.826 389.201 235.837 389.928 235.844C390.292 235.848 390.568 235.852 390.754 235.854C390.846 235.855 390.916 235.856 390.963 235.857C390.987 235.857 391.004 235.857 391.016 235.857C391.022 235.858 391.026 235.858 391.029 235.858C391.03 235.858 391.031 235.858 391.032 235.858C391.033 235.858 391.033 235.858 391.047 234.858C391.062 233.858 391.061 233.858 391.06 233.858C391.06 233.858 391.058 233.858 391.057 233.858C391.054 233.858 391.049 233.858 391.043 233.858C391.031 233.857 391.014 233.857 390.99 233.857C390.943 233.856 390.872 233.855 390.779 233.854C390.592 233.852 390.314 233.849 389.95 233.845C389.22 233.837 388.143 233.827 386.751 233.817C383.967 233.798 379.921 233.781 374.876 233.79C364.786 233.808 350.696 233.932 334.692 234.353C302.697 235.193 263.012 237.221 232.364 241.978L232.517 242.967ZM391.047 234.858L392.027 235.057C393.016 230.2 393.908 225.332 394.603 220.361L393.612 220.222L392.622 220.084C391.935 225.001 391.051 229.825 390.067 234.658L391.047 234.858ZM393.612 220.222C393.605 219.222 393.604 219.222 393.604 219.222C393.603 219.222 393.602 219.223 393.6 219.223C393.597 219.223 393.592 219.223 393.585 219.223C393.572 219.223 393.553 219.223 393.527 219.223C393.475 219.223 393.398 219.224 393.296 219.225C393.092 219.227 392.788 219.229 392.388 219.233C391.59 219.241 390.411 219.254 388.886 219.272C385.837 219.31 381.405 219.372 375.877 219.473C364.821 219.674 349.377 220.026 331.823 220.632C296.723 221.844 253.159 224.07 219.376 228.129L219.496 229.122L219.615 230.115C253.309 226.066 296.803 223.842 331.892 222.631C349.433 222.026 364.866 221.673 375.914 221.473C381.437 221.372 385.865 221.31 388.911 221.272C390.434 221.253 391.611 221.241 392.408 221.233C392.806 221.229 393.109 221.227 393.313 221.225C393.415 221.224 393.491 221.223 393.543 221.223C393.568 221.223 393.588 221.223 393.601 221.223C393.607 221.223 393.612 221.222 393.615 221.222C393.617 221.222 393.618 221.222 393.619 221.222C393.619 221.222 393.62 221.222 393.612 220.222ZM0 208.85L-0.99724 208.925C-0.00549123 222.246 2.37448 235.167 5.8437 247.587L6.80683 247.318L7.76996 247.049C4.3337 234.747 1.97849 221.957 0.99724 208.776L0 208.85ZM6.80683 247.318L7.01474 248.296C82.3534 232.282 128.678 224.379 207.45 217.362L207.362 216.366L207.273 215.37C128.403 222.395 81.997 230.313 6.59892 246.339L6.80683 247.318ZM207.362 216.366L207.45 217.362C243.764 214.151 290.519 212.767 328.211 212.186C347.053 211.896 363.625 211.806 375.485 211.79C381.416 211.781 386.168 211.791 389.437 211.802C391.072 211.808 392.336 211.815 393.191 211.82C393.619 211.822 393.944 211.824 394.163 211.826C394.272 211.826 394.354 211.827 394.41 211.827C394.437 211.828 394.458 211.828 394.472 211.828C394.479 211.828 394.484 211.828 394.487 211.828C394.489 211.828 394.49 211.828 394.491 211.828C394.492 211.828 394.492 211.828 394.5 210.828C394.508 209.828 394.507 209.828 394.507 209.828C394.506 209.828 394.504 209.828 394.503 209.828C394.499 209.828 394.494 209.828 394.487 209.828C394.473 209.828 394.452 209.828 394.424 209.828C394.369 209.827 394.286 209.827 394.176 209.826C393.957 209.824 393.631 209.822 393.203 209.82C392.346 209.815 391.081 209.808 389.445 209.802C386.172 209.791 381.416 209.781 375.482 209.79C363.615 209.807 347.034 209.896 328.18 210.187C290.479 210.768 243.664 212.152 207.274 215.37L207.362 216.366ZM394.5 210.828L395.496 210.918C395.794 207.636 395.992 204.452 396.092 201.167L395.092 201.137L394.092 201.107C393.994 204.349 393.798 207.493 393.504 210.738L394.5 210.828ZM395.092 201.137L395.088 200.137L221.169 200.829L221.173 201.829L221.177 202.829L395.096 202.137L395.092 201.137ZM221.173 201.829L221.141 200.83L-0.0317286 207.851L0 208.85L0.0317286 209.85L221.204 202.829L221.173 201.829Z" fill="#4064DF" fill-opacity="0.8" mask="url(#path-1-inside-1_1696_8314)"/>
</svg>
