<svg width="75" height="70" viewBox="0 0 75 70" fill="none" xmlns="http://www.w3.org/2000/svg">
<path d="M14.513 25.1532H59.9026V32.3677H14.513V25.1532ZM14.513 36.0724H59.9026V34.9025H14.513V36.0724ZM14.513 39.6797H59.9026V37.2423H14.513V39.6797ZM24.1558 43.2869V49.3315H25.3247V44.9443L30.0974 49.3315H31.0714V43.2869H29.9026V47.6741L25.1299 43.2869H24.1558ZM59.9026 49.3315V48.2591H55.5195V43.2869H54.3506V49.3315H59.9026ZM36.039 49.3315H36.9156L40.2273 43.2869H38.961L36.526 47.8691L34.0909 43.2869H32.7273L36.039 49.3315ZM47.9221 43.2869C46.8507 43.2869 45.974 43.4819 45.487 43.9694C45.0974 44.3593 44.8052 44.9443 44.8052 45.7242V46.9916C44.8052 47.7716 45 48.3565 45.487 48.7465C45.974 49.234 46.8507 49.429 47.9221 49.429H51.8182V45.8217H48.1169V46.8941H50.6493V48.2591H47.6299C47.0455 48.2591 46.5584 48.1616 46.2662 47.8691C46.0714 47.6741 45.974 47.2841 45.974 46.8941V45.8217C45.974 45.3343 46.0714 45.0418 46.2662 44.8468C46.5584 44.5543 47.0455 44.4568 47.6299 44.4568H51.8182V43.3844L47.9221 43.2869ZM15.6818 48.2591H18.7987C19.3831 48.2591 19.8701 48.1616 20.1623 47.8691C20.3571 47.6741 20.4545 47.2841 20.4545 46.7967V45.7242C20.4545 45.2368 20.3571 44.9443 20.1623 44.6518C19.8701 44.3593 19.3831 44.2618 18.7987 44.2618H15.6818V48.2591ZM21.6234 46.9916C21.6234 47.7716 21.4286 48.3565 20.9416 48.7465C20.4545 49.234 19.5779 49.429 18.5065 49.429H14.513V43.3844H18.5065C19.5779 43.3844 20.4545 43.5794 20.9416 44.0669C21.3312 44.4568 21.6234 45.0418 21.6234 45.8217C21.6234 45.6267 21.6234 46.9916 21.6234 46.9916ZM42.4675 45.6267H41.1039V46.9916H42.4675V45.6267ZM22.1104 64.5404V69.9025H23.3766V64.5404H22.1104ZM24.2532 69.7075C24.5455 69.9025 25.1299 70 25.8117 70C27.2727 70 27.9545 69.2201 27.9545 68.3426C27.9545 67.5627 27.4675 67.0752 26.5909 66.7827C25.9091 66.4902 25.6169 66.3928 25.6169 66.0028C25.6169 65.7103 25.9091 65.5153 26.3961 65.5153C26.8831 65.5153 27.2727 65.7103 27.4675 65.8078L27.7597 64.8329C27.4675 64.6379 26.9805 64.5404 26.3961 64.5404C25.1299 64.5404 24.3506 65.2228 24.3506 66.1978C24.3506 66.9777 24.9351 67.4652 25.8117 67.7577C26.4935 67.9526 26.6883 68.1476 26.6883 68.5376C26.6883 68.9276 26.3961 69.1226 25.8117 69.1226C25.3247 69.1226 24.8377 68.9276 24.4481 68.8301L24.2532 69.7075ZM31.0714 64.4429C29.513 64.4429 28.4416 65.6128 28.4416 67.2702C28.4416 68.9276 29.4156 70 30.974 70C32.5325 70 33.6039 68.9276 33.6039 67.1727C33.6039 65.7103 32.7273 64.4429 31.0714 64.4429ZM31.0714 65.4178C31.9481 65.4178 32.3377 66.1978 32.3377 67.1727C32.3377 68.2451 31.8506 69.0251 31.0714 69.0251C30.2922 69.0251 29.8052 68.2451 29.8052 67.2702C29.8052 66.2953 30.1948 65.4178 31.0714 65.4178ZM36.2338 70C36.3312 70 36.526 70 36.8182 70C37.5974 70 38.2792 69.7075 38.7662 69.3175C39.3506 68.8301 39.6429 68.0501 39.6429 66.9777C39.6429 65.8078 38.961 64.7354 37.6948 64.7354C36.526 64.7354 35.7468 65.6128 35.7468 66.5877C35.7468 67.5627 36.526 68.2451 37.4026 68.2451C37.8896 68.2451 38.1818 68.1476 38.474 67.8551C38.3766 68.2451 38.1818 68.6351 37.7922 68.8301C37.5 69.0251 37.1104 69.1226 36.8182 69.1226C36.6234 69.1226 36.4286 69.1226 36.3312 69.1226L36.2338 70ZM37.6948 65.5153C38.2792 65.5153 38.474 66.1003 38.474 66.5877C38.474 66.7827 38.474 66.7827 38.3766 66.8802C38.2792 67.0752 37.987 67.2702 37.6948 67.2702C37.2078 67.2702 36.9156 66.8802 36.9156 66.4902C37.013 65.9053 37.2078 65.5153 37.6948 65.5153ZM42.1753 64.6379C40.8117 64.6379 40.2273 65.8078 40.2273 67.3677C40.2273 68.8301 40.8117 70 42.1753 70C43.539 70 44.1234 68.9276 44.1234 67.2702C44.1234 65.9053 43.539 64.6379 42.1753 64.6379ZM42.1753 65.5153C42.6623 65.5153 42.9545 66.1003 42.9545 67.2702C42.9545 68.4401 42.6623 69.0251 42.2727 69.0251C41.8831 69.0251 41.4935 68.4401 41.4935 67.2702C41.3961 66.1003 41.6883 65.5153 42.1753 65.5153ZM46.5584 64.6379C45.1948 64.6379 44.6104 65.8078 44.6104 67.3677C44.6104 68.8301 45.1948 70 46.5584 70C47.9221 70 48.5065 68.9276 48.5065 67.2702C48.5065 65.9053 47.9221 64.6379 46.5584 64.6379ZM46.5584 65.5153C47.0455 65.5153 47.3377 66.1003 47.3377 67.2702C47.3377 68.4401 47.0455 69.0251 46.6558 69.0251C46.2662 69.0251 45.8766 68.4401 45.8766 67.2702C45.8766 66.1003 46.1688 65.5153 46.5584 65.5153ZM50.6493 69.9025H51.8182V64.7354H50.8442L49.4805 65.4178L49.6753 66.2953L50.6493 65.8078V69.9025ZM4.96753 41.922C5.16234 42.117 5.35714 42.6045 5.45455 42.9944C5.74675 44.2618 5.06494 45.1393 3.7987 45.4318C2.33766 45.8217 1.36364 45.1393 1.07143 43.8719C0.974026 43.3844 0.974026 43.0919 1.07143 42.7994H0.487013C0.38961 42.9944 0.38961 43.4819 0.487013 44.0669C0.779221 45.7242 2.14286 46.6017 3.7987 46.2117C5.55195 45.8217 6.23377 44.5543 5.94156 43.0919C5.84416 42.4095 5.64935 41.922 5.45455 41.727C5.45455 41.727 4.96753 42.0195 4.96753 41.922ZM2.24026 38.5098L2.43506 40.5571L0.779221 40.6546L0.584416 38.4123H0L0.194805 41.337L5.55195 40.9471L5.35714 38.0223H4.77273L4.96753 40.3621L3.01948 40.5571L2.82468 38.5098C2.82468 38.5098 2.33766 38.5098 2.24026 38.5098ZM5.35714 37.3398V36.6574L3.01948 36.5599V35.8774C3.11688 35.2925 3.31169 35 4.09091 34.805C4.77273 34.7075 5.25974 34.61 5.35714 34.5125V33.8301C5.16234 33.9276 4.57792 34.0251 3.8961 34.2201C3.31169 34.3175 2.92208 34.5125 2.72727 35C2.53247 34.415 2.14286 33.9276 1.36364 33.9276C0.974026 33.9276 0.584416 34.0251 0.292208 34.3176C0.194805 34.61 0 35.0975 0 35.7799C0 36.2674 0 36.7549 0 37.1448C0.0974026 37.1448 5.35714 37.3398 5.35714 37.3398ZM0.584416 36.4624C0.584416 36.3649 0.584416 36.0724 0.584416 35.7799C0.584416 35 0.974026 34.61 1.65584 34.61C2.24026 34.61 2.62987 35.0975 2.62987 35.8774V36.5599C2.53247 36.5599 0.584416 36.4624 0.584416 36.4624ZM5.74675 32.2702L5.84416 31.5877L1.16883 30.8078L1.46104 29.1504L0.876623 29.0529L0.194805 32.9526L0.779221 33.0501L1.07143 31.3928L5.74675 32.2702ZM1.07143 28.1755L6.23377 29.5404L6.42857 28.8579L1.26623 27.493L1.07143 28.1755ZM6.72078 27.883L6.91558 27.2006L4.57792 26.4206L5.25974 24.4708L4.87013 24.2758L4.18831 26.2256L2.53247 25.6407L3.31169 23.5933L2.62987 23.3983L1.65584 26.1281L6.72078 27.883ZM3.21429 22.2284L8.08442 24.4708L8.37662 23.8858L3.50649 21.6435C3.40909 21.546 3.21429 22.2284 3.21429 22.2284ZM9.93506 19.4011C9.93506 19.6936 9.74026 20.0836 9.54545 20.4735C8.86364 21.6435 7.79221 21.8384 6.62338 21.156C5.45455 20.4735 5.16234 19.3036 5.74675 18.2312C5.94156 17.8412 6.23377 17.5487 6.52597 17.3538L6.13636 16.9638C5.94156 17.0613 5.64935 17.3538 5.25974 17.9387C4.38312 19.4011 4.87013 20.961 6.33117 21.7409C7.88961 22.6184 9.25325 22.1309 10.0325 20.766C10.3247 20.1811 10.5195 19.6936 10.5195 19.4011C10.4221 19.4986 9.93506 19.4011 9.93506 19.4011ZM11.3961 15.8914L13.0519 16.4763L13.539 15.8914L8.18182 14.039L7.5974 14.624L10.7143 19.4011L11.1039 18.8162L10.1299 17.3538L11.3961 15.8914ZM9.83766 16.9638L8.96104 15.5989C8.76623 15.3064 8.57143 15.0139 8.37662 14.8189C8.66883 14.9164 8.96104 15.1114 9.35065 15.2089L10.9091 15.7939L9.83766 16.9638ZM13.6364 15.6964L16.461 12.9666L16.0714 12.5766L13.9286 14.624L13.0519 9.45682L12.6623 9.16434L10.0325 11.6992L10.4221 12.0891L12.3701 10.2368L13.2468 15.4039L13.6364 15.6964ZM13.6364 8.48189L17.0455 12.6741L17.5325 12.2841L14.1234 8.09192C14.1234 7.99443 13.6364 8.48189 13.6364 8.48189ZM17.1429 5.75209C15.974 6.53203 15.6818 8.09192 16.5584 9.45682C17.4351 10.8217 18.8961 11.2117 20.0649 10.4318C21.2338 9.65181 21.6234 8.28691 20.6494 6.72702C19.8701 5.36212 18.4091 4.97215 17.1429 5.75209ZM17.4351 6.23955C18.4091 5.6546 19.4805 6.23955 20.0649 7.11699C20.7468 8.09192 20.7468 9.35933 19.8701 9.94429C18.9935 10.5292 17.9221 10.0418 17.2403 9.06685C16.5584 8.09192 16.461 6.82451 17.4351 6.23955ZM23.2792 8.57939L22.4026 6.43454C22.013 5.6546 21.8182 5.06964 21.4286 4.38719C21.9156 4.77716 22.5 5.26462 23.0844 5.6546L25.7143 7.50696L26.3961 7.21448L24.2532 2.24234L23.6688 2.53482L24.5455 4.58217C24.8377 5.36212 25.1299 5.94708 25.5195 6.62953C25.0325 6.23955 24.5455 5.84958 23.961 5.45961L21.3312 3.60724L20.5519 3.89972L22.6948 8.77437L23.2792 8.57939ZM29.2208 3.21727L27.1753 3.80223L26.6883 2.14485L28.8312 1.55989L28.7338 0.97493L25.9091 1.75487L27.3701 6.92201L30.2922 6.14206L30.0974 5.5571L27.8571 6.14206L27.3701 4.28969L29.4156 3.70474L29.2208 3.21727ZM32.4351 5.6546C32.8247 5.6546 33.2143 5.6546 33.7013 5.5571C34.7727 5.45961 35.5519 5.16713 36.039 4.58217C36.526 3.99721 36.7208 3.31476 36.6234 2.43733C36.526 1.55989 36.2338 0.97493 35.6493 0.584958C35.1623 0.194986 34.3831 0 33.4091 0.097493C32.8247 0.097493 32.3377 0.194986 31.9481 0.292479L32.4351 5.6546ZM32.6299 0.877437C32.8247 0.779944 33.1169 0.779944 33.4091 0.779944C34.8701 0.682451 35.6493 1.3649 35.7468 2.63231C35.8442 4.09471 35.1623 4.97214 33.7013 5.06964C33.4091 5.06964 33.2143 5.06964 33.0195 5.06964L32.6299 0.877437ZM37.5974 0L37.5 5.36212H38.1818L38.2792 0H37.5974ZM40.5195 5.26462C40.8117 5.45961 41.2987 5.75209 41.7857 5.84958C43.0519 6.04457 43.7338 5.45961 43.9286 4.58217C44.026 3.80223 43.6364 3.31476 42.7597 2.8273C42.0779 2.43733 41.7857 2.14485 41.8831 1.65738C41.9805 1.26741 42.2727 0.877437 43.0519 0.97493C43.539 1.07242 43.8312 1.26741 44.026 1.3649L44.3182 0.877437C44.1234 0.682451 43.7338 0.487465 43.1493 0.487465C42.0779 0.292479 41.2987 0.877437 41.2013 1.65738C41.1039 2.43733 41.5909 2.92479 42.3701 3.41226C43.0519 3.80223 43.2468 4.09471 43.2468 4.58217C43.1494 5.16713 42.6623 5.45961 41.9805 5.36212C41.4935 5.26462 41.1039 5.06964 40.8117 4.77716L40.5195 5.26462ZM45.6818 0.97493L44.4156 6.23955L45.0974 6.43454L46.3636 1.16992L45.6818 0.97493ZM45.8766 6.23955C46.0714 6.53203 46.5584 6.82451 47.0455 7.0195C48.2143 7.40947 49.0909 6.92201 49.2857 6.14206C49.5779 5.36212 49.2857 4.87465 48.5065 4.1922C47.9221 3.70474 47.7273 3.41226 47.9221 2.92479C48.0195 2.53482 48.4091 2.24234 49.0909 2.43733C49.5779 2.63231 49.8701 2.8273 49.9675 3.02228L50.3571 2.53482C50.1623 2.33983 49.8701 2.04735 49.2857 1.94986C48.3117 1.65738 47.4351 1.94986 47.1429 2.8273C46.9481 3.50975 47.2403 4.1922 48.0195 4.67967C48.7013 5.16713 48.7987 5.45961 48.7013 5.94707C48.5065 6.43454 48.0195 6.72702 47.3377 6.43454C46.8506 6.23955 46.5584 5.94708 46.2662 5.6546L45.8766 6.23955ZM50.4545 8.28691L51.1364 8.57939L53.1818 4.28969L54.6429 4.97214L54.9351 4.38719L51.3312 2.63231L51.039 3.11978L52.5 3.89972L50.4545 8.28691ZM56.8831 8.3844L55.1299 7.31198L56.0065 5.84958L57.8571 7.0195L58.1493 6.53203L55.7143 4.87465L52.8896 9.45682L55.4221 11.0167L55.7143 10.5292L53.7662 9.26184L54.7403 7.60446L56.5909 8.77437L56.8831 8.3844ZM59.513 14.429L60 14.8189L63.2143 10.5292L62.5325 9.94429L60.0974 11.3092C59.513 11.6992 58.9286 11.9916 58.4416 12.2841C58.7338 11.7967 58.9286 11.2117 59.2208 10.5292L60.1948 7.99443L59.513 7.40947L55.7143 11.2117L56.2013 11.6017L57.8571 9.94429C58.4416 9.35933 59.026 8.67688 59.513 8.18941C59.2208 8.77437 58.9286 9.45682 58.6364 10.2368L57.6623 12.7716L58.0519 13.1616L60.487 11.7967C61.1688 11.4067 61.7532 11.0167 62.3377 10.7242C61.8506 11.2117 61.3636 11.8941 60.8766 12.5766L59.513 14.429ZM63.6039 16.4763L62.7273 18.0362L63.2143 18.6212L66.1364 13.7465L65.5519 13.0641L60.2922 15.1114L60.7792 15.6964L62.4351 15.0139L63.6039 16.4763ZM62.9221 14.8189L64.4805 14.234C64.7727 14.1365 65.0649 13.9415 65.3571 13.844C65.1623 14.1365 64.9675 14.429 64.7727 14.7214L63.8961 16.0864L62.9221 14.8189ZM66.3312 24.4708C66.1364 23.9833 66.039 23.4958 65.9416 22.9109C66.6234 23.5933 67.6948 23.6908 68.961 23.0084C70.3247 22.2284 70.9091 20.8635 70.2273 19.5961C69.5455 18.3287 68.0844 17.9387 66.526 18.7187C64.9675 19.4986 64.6753 20.961 65.2597 22.1309C65.3571 22.2284 65.3571 22.3259 65.3571 22.4234C65.4545 23.1058 65.6494 23.7883 65.7467 24.5682C65.6494 24.5682 66.3312 24.4708 66.3312 24.4708ZM65.7467 21.9359C65.2597 20.961 65.8442 19.9861 66.8182 19.4011C67.8896 18.8162 69.0584 18.8162 69.6429 19.8886C70.2273 20.8635 69.4481 21.9359 68.474 22.4234C67.4026 23.0084 66.2338 22.9109 65.7467 21.9359ZM71.7857 23.2033L68.7662 24.2758C67.2078 24.8607 66.9156 25.8357 67.2078 26.8106C67.5974 27.883 68.474 28.468 70.0325 27.9805L72.9545 27.0056L72.8571 26.3231L69.8377 27.298C68.6688 27.688 68.0844 27.3955 67.7922 26.6156C67.5974 25.9331 67.8896 25.2507 68.961 24.8607L71.9805 23.7883L71.7857 23.2033ZM70.3247 31.7827L68.7662 32.6602L68.8636 33.4401L73.8312 30.6128L73.6364 29.8329L67.987 29.0529L68.0844 29.7354L69.8377 29.9304L70.3247 31.7827ZM70.5195 29.9304L72.1753 30.1253C72.4675 30.1253 72.8571 30.2228 73.1493 30.2228C72.8571 30.3203 72.5649 30.5153 72.2727 30.7103L70.8117 31.4902L70.5195 29.9304ZM68.961 33.9276L69.1558 36.9499H69.7403L69.5455 34.7075L74.3182 34.415L74.2208 33.7326L68.961 33.9276ZM74.4156 37.6323L69.0584 37.5348V38.2173L74.4156 38.3148V37.6323ZM68.961 40.2646L68.8636 40.9471L73.6364 41.4345L73.4416 43.0919L74.026 43.1894L74.4156 39.1922L73.8312 39.0947L73.6364 40.7521L68.961 40.2646ZM69.7403 45.4318L67.987 45.6267L67.7922 46.3092L73.4416 45.6267L73.6364 44.8468L68.7662 41.922L68.5714 42.6045L70.1299 43.4819L69.7403 45.4318ZM70.6169 43.8719L71.9805 44.7493C72.2727 44.9443 72.5649 45.0418 72.8571 45.2368C72.5649 45.2368 72.1753 45.2368 71.7857 45.3343L70.1299 45.5292L70.6169 43.8719ZM75 44.4568L73.8312 45.2368L73.7338 45.8217L74.8052 45.3343C74.8052 45.2368 75 44.4568 75 44.4568ZM68.7662 47.5766L67.6948 47.2841C65.1623 54.6936 59.9026 60.9331 53.1818 64.7354V66.0028C60.3896 61.9081 66.039 55.376 68.7662 47.5766ZM4.28571 47.9666L3.21429 48.2591C6.23377 57.0334 12.5649 64.2479 20.6494 68.4401V67.2702C13.0519 63.1755 7.11039 56.2535 4.28571 47.9666ZM6.72078 47.1866L5.64935 47.4791C8.27922 55.1811 13.7338 61.6156 20.6494 65.6128V64.3454C14.2208 60.5432 9.25325 54.4011 6.72078 47.1866ZM70.1299 47.9666C67.2078 56.4485 61.0714 63.468 53.1818 67.5627V68.7326C61.5584 64.5404 68.0844 57.2284 71.1039 48.2591L70.1299 47.9666Z" fill="#6E6E6E"/>
</svg>
