<svg width="12" height="35" viewBox="0 0 12 35" fill="none" xmlns="http://www.w3.org/2000/svg">
<path d="M9.67869 2.44575C9.28524 3.22218 8.61639 3.61039 7.86885 3.90155C7.79016 3.95978 7.6918 4.01802 7.65246 4.09566C7.37705 4.69739 7.10164 5.35736 6.82623 5.95909C6.72787 6.21143 6.64918 6.42494 6.55082 6.69669C6.86557 6.28907 7.16066 5.95909 7.45574 5.62911C7.96721 5.02737 8.57705 4.58093 9.40328 4.46446C10.2492 4.30918 11.0951 4.38682 11.9213 4.61975C11.9213 4.63916 11.9607 4.63916 12 4.67798C11.8033 4.98855 11.6066 5.29912 11.4098 5.59028C10.977 6.13378 10.4656 6.59964 9.75738 6.83257C8.77377 7.14314 7.75082 7.22078 6.72787 7.04609C6.62951 7.02668 6.55082 7.00727 6.45246 6.98785C5.94098 8.44366 5.54754 9.86064 5.2918 11.3553C5.46885 11.0835 5.6459 10.7535 5.82295 10.4818C6.27541 9.76359 6.80656 9.18126 7.63279 8.90952C8.28197 8.696 8.91148 8.59894 9.58033 8.59894C9.79672 8.59894 10.0131 8.61835 10.2689 8.61835C10.1311 8.8901 10.0525 9.16185 9.9541 9.39478C9.63934 10.0742 9.2459 10.6565 8.59672 11.0447C7.82951 11.5494 6.96393 11.7823 6.05902 11.8794C5.78361 11.8988 5.46885 11.9376 5.17377 11.957C4.91803 13.4322 4.76066 14.9462 4.74098 16.4603C4.78033 16.402 4.8 16.3438 4.81967 16.2662C4.91803 15.9944 5.03607 15.6839 5.1541 15.3927C5.48852 14.5192 6.07869 13.8398 6.96393 13.4322C7.57377 13.1799 8.22295 13.0052 8.87213 12.9081C8.99016 12.9081 9.08852 12.8887 9.22623 12.8499V13.0052C9.18688 13.141 9.16721 13.3157 9.12787 13.4904C8.93115 14.3639 8.57705 15.1986 7.80984 15.7809C6.98361 16.4215 6.05902 16.8291 5.05574 17.0426C4.93771 17.062 4.83934 17.062 4.72131 17.1008C4.70164 18.6537 4.81967 20.1871 5.09508 21.7012C5.21311 21.1965 5.2918 20.7306 5.40984 20.2454C5.56721 19.566 5.90164 18.9837 6.43279 18.5178C7.10164 17.9743 7.86885 17.6055 8.69508 17.3144C8.77377 17.3144 8.87213 17.2561 9.00984 17.2367C8.99016 17.6832 8.97049 18.052 8.93115 18.4402C8.85246 19.139 8.65574 19.7795 8.18361 20.3036C7.41639 21.1771 6.47213 21.8565 5.33115 22.2253C5.2918 22.2253 5.25246 22.2447 5.21312 22.2835C5.48852 23.7005 5.88197 25.0786 6.39344 26.418C6.41312 26.1656 6.39344 25.9327 6.39344 25.6998C6.39344 24.8845 6.55082 24.1275 7.04262 23.487C7.45574 22.9629 7.96721 22.5358 8.51803 22.2058C8.81312 22.0117 9.12787 21.8565 9.44262 21.6818C9.48197 21.8176 9.50164 21.9341 9.52131 22.0312C9.69836 23.0405 9.69836 24.011 9.16721 24.9039C8.73443 25.6415 8.14426 26.2627 7.45574 26.8062C7.2 27.0003 6.94426 27.1556 6.66885 27.3303C7.18033 28.6114 7.75082 29.8537 8.43934 31.0571C8.43934 30.9795 8.43934 30.9407 8.43934 30.8824C8.4 30.533 8.36066 30.1836 8.32131 29.8537C8.2623 29.2325 8.38033 28.6308 8.67541 28.0873C9.02951 27.4467 9.52131 26.8838 10.0918 26.418C10.3082 26.2433 10.5049 26.088 10.741 25.8939C11.0361 26.6121 11.2328 27.2915 11.2328 28.0097C11.2328 28.4173 11.2131 28.8249 11.0557 29.2131C10.6426 30.2613 9.99344 31.193 9.1082 31.9694C9.00984 32.0277 9.02951 32.0859 9.06885 32.183C9.65902 33.1341 10.2885 34.0464 10.9574 34.9393C10.9574 34.9393 10.8393 35.1916 10.0131 34.6675C9.83607 34.3764 9.61967 34.1046 9.44262 33.794C9.04918 33.1923 8.67541 32.5906 8.32131 31.9888C8.24262 31.8336 8.16393 31.7947 7.98689 31.8336C6.90492 32.0665 5.80328 32.0665 4.74098 31.7753C3.9541 31.5812 3.36393 31.096 2.83279 30.533C2.61639 30.2807 2.41967 29.9507 2.20328 29.6984C2.18361 29.6402 2.18361 29.6207 2.14426 29.5819C2.16393 29.5625 2.20328 29.5237 2.22295 29.5237C3.08852 29.2519 3.97377 29.0967 4.87869 29.1743C5.80328 29.2325 6.53115 29.6596 7.16066 30.2807C7.31803 30.436 7.43607 30.5525 7.61312 30.6883C7.61312 30.6301 7.57377 30.5913 7.5541 30.533C6.98361 29.4266 6.47213 28.2426 6.05902 27.0585C6.01967 26.9421 5.96066 26.9032 5.84262 26.9032C4.76066 26.9809 3.71803 26.7868 2.71475 26.3597C1.94754 26.0103 1.41639 25.4474 1.00328 24.7681C0.806557 24.4575 0.668853 24.0887 0.472131 23.7199C0.82623 23.7199 1.16066 23.6617 1.47541 23.6617C2.10492 23.6422 2.73443 23.6811 3.32459 23.8558C4.15082 24.1081 4.74098 24.5934 5.23279 25.2533C5.35082 25.3892 5.44918 25.5251 5.54754 25.6804C5.25246 24.3604 4.93771 23.0599 4.62295 21.74C4.13115 21.6235 3.6 21.5265 3.1082 21.3518C2.34098 21.0994 1.63279 20.7306 1.0623 20.1289C0.570492 19.6048 0.0590164 18.4596 0 17.7414H0.0196721C1.10164 17.7608 2.12459 17.9549 3.04918 18.5178C3.6 18.8478 3.97377 19.3913 4.26885 19.9736C4.34754 20.0901 4.40656 20.226 4.48525 20.3618C4.36721 19.0613 4.3082 17.7608 4.40656 16.4603C3.7377 16.2662 3.12787 16.0138 2.55738 15.645C1.75082 15.1209 1.04262 14.4998 0.747541 13.5487C0.590164 13.044 0.491803 12.5199 0.472131 11.9958C0.472131 11.9376 0.472131 11.8988 0.472131 11.7823C0.963934 11.957 1.39672 12.054 1.82951 12.2093C2.41967 12.4617 2.99016 12.7528 3.42295 13.2381C3.81639 13.6457 4.03279 14.1504 4.20984 14.6745C4.28853 14.9268 4.34754 15.1598 4.46557 15.3927C4.46557 15.315 4.46557 15.2956 4.48525 15.218C4.56393 13.9563 4.74098 12.714 4.99672 11.4717C5.01639 11.3553 4.99672 11.2582 4.87869 11.2C3.87541 10.7147 3.04918 10.0353 2.41967 9.10362C1.98689 8.46307 1.88852 7.74487 1.9082 6.98785C1.9082 6.69669 1.96721 6.44436 1.98689 6.09496C2.38033 6.28907 2.71475 6.44436 3.02951 6.61905C3.71803 7.00727 4.3082 7.47312 4.72131 8.17191C5.03607 8.696 5.11475 9.29773 5.17377 9.89946C5.17377 10.0936 5.17377 10.2877 5.23279 10.443C5.23279 10.3847 5.25246 10.3459 5.2918 10.2877C5.60656 9.02598 6 7.76428 6.4918 6.54141C6.55082 6.42494 6.55082 6.3473 6.41312 6.28907C5.56721 5.68734 4.89836 4.93032 4.4459 3.99861C4.07213 3.261 4.07213 2.50398 4.22951 1.72755C4.28852 1.4558 4.36721 1.18405 4.4459 0.892893C4.99672 1.20346 5.48852 1.59168 5.92131 2.05754C6.59016 2.75632 6.94426 3.55216 6.86557 4.56152C6.86557 4.93032 6.80656 5.29912 6.78689 5.72616C6.82623 5.66793 6.8459 5.64852 6.8459 5.60969C7.12131 5.0662 7.37705 4.50328 7.65246 3.94037C7.67213 3.86273 7.6918 3.78509 7.67213 3.72686C7.65246 3.22218 7.67213 2.7175 7.79016 2.23223C7.9082 1.86343 8.0459 1.47521 8.34098 1.20346C8.67541 0.854071 9.08852 0.582321 9.50164 0.349393C9.71803 0.194107 9.9541 0.0970535 10.1902 0C10.2295 0 10.2492 0.0194107 10.2885 0.0194107C10.2885 0.194107 10.2295 0.368803 10.2295 0.56291C10.1902 1.24229 10.0328 1.90225 9.71803 2.48457L9.67869 2.44575Z" fill="white" fill-opacity="0.3"/>
</svg>
