<svg width="18" height="14" viewBox="0 0 18 14" fill="none" xmlns="http://www.w3.org/2000/svg">
<path d="M-0.000135755 1.00257C0.0157653 1.29667 0.206578 3.89013 2.14015 5.6347C3.58396 6.94145 5.64156 7.4695 8.25252 7.20882L8.42743 7.19211V12.8102H-0.000135755V13.9999H17.9999V12.8102H9.5723V7.19211L9.74722 7.20882C12.3582 7.4695 14.4126 6.93811 15.8596 5.6347C17.7932 3.88679 17.984 1.29667 17.9999 1.00591C18.0253 0.708463 17.8409 0.437754 17.5705 0.36757C12.4599 -0.959239 10.1702 1.54398 9.14933 3.87676L9.00623 4.20763L8.86312 3.87676C7.83273 1.54398 5.53979 -0.959239 0.432373 0.370912C0.162055 0.437754 -0.0223972 0.711805 -0.000135755 1.00257ZM9.69951 5.81183C10.0907 4.14747 11.5536 0.380938 16.6483 1.38356L16.8073 1.41364L16.7755 1.58075C16.5211 2.93095 15.443 6.07251 10.9048 6.07251C10.5645 6.07251 10.2052 6.0558 9.83626 6.01904L9.65181 6.00233L9.69633 5.81517L9.69951 5.81183ZM1.34509 1.38356C6.43979 0.38428 7.90269 4.14747 8.29386 5.81183L8.33838 5.99899L8.15393 6.0157C7.7882 6.05246 7.42884 6.06917 7.08856 6.06917C2.55039 6.07251 1.4723 2.93095 1.21789 1.58075L1.18608 1.41364L1.34509 1.38356Z" fill="#747DA2"/>
</svg>
