<svg width="38" height="24" viewBox="0 0 38 24" fill="none" xmlns="http://www.w3.org/2000/svg">
<path d="M7.52704 23.5197L0 0.464631H2.88901L9.43223 20.4937L16.0379 0.464631H18.9269L11.3999 23.5197H7.52704Z" fill="#ACACAC"/>
<path d="M29.5828 24C27.99 24 26.5533 23.7225 25.2727 23.1675C24.0026 22.6124 22.9511 21.8226 22.1183 20.7979C21.2958 19.7626 20.7596 18.5404 20.5098 17.1315L23.3832 16.6672C23.7476 18.1188 24.5023 19.2556 25.6475 20.0774C26.8031 20.8886 28.1618 21.2942 29.7234 21.2942C30.7332 21.2942 31.6442 21.1341 32.4562 20.8139C33.2787 20.483 33.9294 20.0134 34.4083 19.405C34.8872 18.7966 35.1266 18.0761 35.1266 17.2436C35.1266 16.7313 35.0381 16.2936 34.8611 15.9307C34.6946 15.5572 34.4603 15.2423 34.1584 14.9861C33.8669 14.7193 33.5337 14.4951 33.159 14.3137C32.7842 14.1322 32.3938 13.9828 31.9877 13.8654L26.2566 12.1202C25.6319 11.9281 25.0281 11.688 24.4451 11.3998C23.8621 11.1009 23.3415 10.7327 22.8835 10.295C22.4254 9.84676 22.061 9.31308 21.7903 8.69401C21.5196 8.06426 21.3843 7.32244 21.3843 6.46855C21.3843 5.10233 21.7278 3.9389 22.415 2.97827C23.1125 2.00697 24.0547 1.26515 25.2415 0.752819C26.4283 0.240485 27.7661 -0.0103462 29.2549 0.000326697C30.7645 0.0110008 32.1127 0.288516 33.2995 0.832871C34.4967 1.36655 35.4858 2.13505 36.2666 3.13838C37.0578 4.1417 37.5888 5.34248 37.8595 6.74073L34.908 7.26907C34.7518 6.32979 34.4031 5.52393 33.8617 4.8515C33.3307 4.16838 32.6644 3.64537 31.8628 3.28247C31.0612 2.90889 30.1815 2.71677 29.2237 2.70609C28.3075 2.69542 27.4798 2.84485 26.7407 3.15439C26.0015 3.46392 25.4133 3.8962 24.976 4.45123C24.5388 4.99559 24.3201 5.62533 24.3201 6.34047C24.3201 7.04493 24.518 7.61597 24.9136 8.05359C25.3092 8.48053 25.7933 8.82209 26.3659 9.07825C26.9489 9.32375 27.5163 9.52655 28.0681 9.68665L32.3469 10.9515C32.8362 11.0902 33.3984 11.2824 34.0335 11.5279C34.6789 11.7733 35.3036 12.1202 35.9074 12.5685C36.5112 13.0062 37.011 13.5932 37.4066 14.3297C37.8022 15.0555 38 15.9734 38 17.0835C38 18.1935 37.7814 19.1809 37.3441 20.0454C36.9173 20.91 36.3186 21.6358 35.5482 22.2228C34.7778 22.7992 33.8825 23.2368 32.8622 23.5357C31.842 23.8452 30.7488 24 29.5828 24Z" fill="#ACACAC"/>
</svg>
