<svg width="35" height="22" viewBox="0 0 35 22" fill="none" xmlns="http://www.w3.org/2000/svg">
<path d="M34.2616 14.9071L27.7127 10.6623C27.4576 10.4999 27.1637 10.4149 26.8699 10.4149C26.6148 10.4149 26.3596 10.4767 26.1277 10.6005C25.6328 10.8711 25.3235 11.3891 25.3235 11.9613V12.7886H13.1612C11.151 12.6803 9.31849 11.7138 8.12777 10.1365C6.94479 8.56696 6.52727 6.55666 6.98345 4.60049C7.2386 3.48709 7.84169 2.41236 8.72313 1.49226C8.82365 1.38401 8.90096 1.2603 8.96282 1.13659C8.97828 1.09793 9.00148 1.067 9.01694 1.02834C9.04787 0.943293 9.07107 0.858242 9.07107 0.773191C9.07107 0.649481 9.03241 0.533503 8.97828 0.425256C8.84684 0.177835 8.59942 0 8.29787 0C7.99633 0 7.74891 0.177835 7.61747 0.425256H7.602C6.58912 1.48453 5.8082 2.80668 5.47573 4.25255C4.29274 9.33242 7.9654 14.0798 13.1226 14.335H26.8699V11.9613L33.4189 16.2061L26.8699 20.3891V18.0154H12.4963C4.95769 17.3659 -0.122177 10.0901 2.03503 2.74483C2.18193 2.22679 2.46801 1.55412 2.68451 1.067V1.05927C2.72317 0.974222 2.74636 0.873706 2.74636 0.773191C2.74636 0.649481 2.7077 0.533503 2.65358 0.425256C2.52214 0.177835 2.27472 0 1.97317 0C1.67163 0 1.42421 0.177835 1.29276 0.425256C1.29276 0.425256 1.29276 0.440719 1.28503 0.440719C1.2773 0.456183 1.26957 0.47938 1.26184 0.494843C0.99895 1.067 0.743797 1.65463 0.558232 2.31184C-0.593823 6.23192 0.0556574 10.3917 2.33657 13.7319C4.62522 17.0875 8.28241 19.2061 12.3726 19.5617C12.419 19.5617 12.4576 19.5617 12.504 19.5617H25.3313V20.3891C25.3313 20.9535 25.6406 21.4715 26.1354 21.7421C26.3674 21.8658 26.6225 21.9354 26.8777 21.9354C27.1637 21.9354 27.4576 21.8504 27.7127 21.6957L34.2616 17.5128C34.7024 17.2267 34.973 16.7396 34.973 16.2138C34.973 15.6881 34.7101 15.1932 34.2694 14.9071H34.2616Z" fill="#4064DF"/>
</svg>
