<svg width="60" height="89" viewBox="0 0 60 89" fill="none" xmlns="http://www.w3.org/2000/svg">
<path d="M29.0768 87.49C24.8318 87.49 20.8228 86.6646 17.0495 85.0138C13.2763 83.363 9.99432 81.0244 7.20369 77.9979C4.45236 74.9715 2.46747 71.3947 1.24902 67.2677L14.986 63.5534C15.9686 66.9336 17.757 69.5474 20.3511 71.3947C22.9845 73.2027 25.8734 74.0871 29.0178 74.0478C31.8084 74.0478 34.3043 73.3993 36.5053 72.1022C38.7064 70.8052 40.4358 69.0561 41.6936 66.855C42.9513 64.6147 43.5802 62.1188 43.5802 59.3675C43.5802 55.1619 42.2242 51.6441 39.5121 48.8142C36.8001 45.9842 33.302 44.5693 29.0178 44.5693C27.7207 44.5693 26.4433 44.7461 25.1856 45.0999C23.9671 45.4536 22.788 45.9449 21.6482 46.5738L15.1629 35.372L43.6981 10.9637L44.9362 14.3833H4.55062V1H56.6097V14.4422L33.6754 36.4921L33.5575 32.3062C38.7064 32.6599 43.0889 34.0946 46.7049 36.6101C50.3602 39.1256 53.1509 42.3682 55.0768 46.338C57.042 50.3077 58.0247 54.6509 58.0247 59.3675C58.0247 64.7129 56.708 69.5081 54.0745 73.753C51.4804 77.9979 47.9823 81.3585 43.5802 83.8347C39.2174 86.2715 34.3829 87.49 29.0768 87.49Z" fill="#4064DF" fill-opacity="0.2"/>
<path d="M57.1094 0.5V14.6553L56.9561 14.8027L38.5205 32.5264C41.6851 33.2542 44.5109 34.4746 46.9902 36.1992H46.9893C50.7138 38.7626 53.5607 42.0702 55.5244 46.1162H55.5254C57.5268 50.1592 58.5244 54.579 58.5244 59.3672C58.5244 64.7977 57.1847 69.6838 54.5 74.0127L54.501 74.0137C51.8616 78.3326 48.3006 81.7531 43.8252 84.2705L43.8242 84.2715C39.3824 86.7525 34.463 87.9902 29.0771 87.9902C24.7654 87.9902 20.687 87.151 16.8486 85.4717C13.0122 83.7932 9.67336 81.4141 6.83594 78.3369L6.83398 78.334C4.02927 75.2488 2.0082 71.6047 0.769531 67.4092L0.625 66.9189L1.11816 66.7852L14.8555 63.0703L15.3291 62.9424L15.4658 63.4141C16.4205 66.6982 18.149 69.2122 20.6416 70.9873C23.1894 72.7345 25.9752 73.5858 29.0117 73.5479H29.0176C31.7274 73.5479 34.1348 72.9195 36.252 71.6719C38.3785 70.4187 40.0456 68.7322 41.2598 66.6074C42.4714 64.4479 43.0801 62.0378 43.0801 59.3672C43.08 55.2804 41.7671 51.8897 39.1514 49.1602C36.5429 46.4383 33.1795 45.0693 29.0176 45.0693C27.7679 45.0694 26.537 45.2383 25.3242 45.5791C24.1424 45.9223 22.9978 46.4003 21.8896 47.0117L21.4609 47.248L21.2158 46.8242L14.7305 35.6221L14.5215 35.2627L14.8379 34.9922L38.3477 14.8828H4.05078V0.5H57.1094Z" stroke="#4064DF" stroke-opacity="0.6"/>
</svg>
