<svg width="96" height="97" viewBox="0 0 96 97" fill="none" xmlns="http://www.w3.org/2000/svg">
<g clip-path="url(#clip0_1400_6129)">
<path d="M48 97C74.5095 97 96 75.4681 96 48.9076C96 22.3469 74.5095 0.815125 48 0.815125C21.4904 0.815125 0 22.3469 0 48.9076C0 75.4681 21.4904 97 48 97Z" fill="#8497D5" fill-opacity="0.1"/>
<path d="M33.8633 60.6075V52.372H34.9294L37.8722 58.5636L40.7982 52.372H41.8745V60.6005H40.7579V54.9681L38.1379 60.6075H37.6032L34.9765 54.9681V60.6075H33.8667H33.8633Z" fill="white"/>
<path d="M45.1735 60.7776C44.7228 60.7776 44.3461 60.6926 44.0401 60.5219C43.734 60.3512 43.5054 60.126 43.3507 59.8463C43.196 59.5671 43.1152 59.2598 43.1152 58.9219C43.1152 58.6082 43.169 58.3354 43.28 58.0999C43.3877 57.8645 43.5491 57.6632 43.7643 57.4961C43.9796 57.3288 44.2419 57.1958 44.5547 57.0935C44.8237 57.015 45.1332 56.9433 45.4729 56.8819C45.8159 56.8205 46.1758 56.7626 46.5524 56.7114C46.9291 56.6568 47.3058 56.6056 47.6758 56.551L47.2486 56.7899C47.2554 56.3054 47.1544 55.9472 46.9459 55.7118C46.7374 55.4764 46.3809 55.3605 45.8731 55.3605C45.5536 55.3605 45.261 55.4355 44.9953 55.5856C44.7296 55.7357 44.5412 55.9847 44.437 56.3327L43.3372 55.9882C43.4885 55.4594 43.7744 55.0364 44.1982 54.7259C44.622 54.412 45.1836 54.2586 45.8865 54.2586C46.4313 54.2586 46.9056 54.354 47.3091 54.5417C47.7128 54.7293 48.0087 55.0295 48.197 55.4355C48.2946 55.6368 48.3551 55.8517 48.3787 56.0769C48.4022 56.302 48.4123 56.5442 48.4123 56.8035V60.6075H47.3697V59.1947L47.5715 59.3794C47.3193 59.8533 46.9997 60.2046 46.6096 60.4333C46.2195 60.6656 45.7419 60.7776 45.1735 60.7776ZM45.382 59.7987C45.715 59.7987 46.0042 59.7372 46.243 59.6181C46.4818 59.4985 46.6769 59.3448 46.8249 59.1577C46.9729 58.97 47.067 58.7753 47.1107 58.5742C47.1746 58.39 47.2116 58.1851 47.2217 57.9566C47.2318 57.728 47.2352 57.5438 47.2352 57.4073L47.6186 57.5506C47.2453 57.6086 46.9089 57.6598 46.6029 57.7041C46.2968 57.7485 46.0244 57.7962 45.7755 57.8372C45.53 57.8815 45.3114 57.9327 45.1197 57.9941C44.9583 58.0521 44.8137 58.1203 44.6892 58.1988C44.5648 58.2773 44.4639 58.3759 44.3899 58.4885C44.3159 58.6046 44.2789 58.7413 44.2789 58.9049C44.2789 59.0686 44.3193 59.2123 44.3966 59.3483C44.474 59.485 44.595 59.5905 44.7565 59.6727C44.9179 59.7512 45.1264 59.7917 45.3753 59.7917L45.382 59.7987Z" fill="white"/>
<path d="M52.293 60.7782C51.7247 60.7782 51.237 60.6345 50.8233 60.3483C50.413 60.0615 50.0935 59.6726 49.8715 59.1776C49.6461 58.6832 49.5352 58.1272 49.5352 57.5097C49.5352 56.8922 49.6495 56.3327 49.8748 55.8415C50.1002 55.3502 50.4197 54.9647 50.8368 54.6816C51.2505 54.3984 51.7448 54.2551 52.3166 54.2551C52.8883 54.2551 53.376 54.3984 53.7695 54.6816C54.163 54.9647 54.459 55.3536 54.6607 55.8449C54.8625 56.3361 54.9634 56.8922 54.9634 57.5097C54.9634 58.1272 54.8625 58.6832 54.6573 59.1747C54.4556 59.6656 54.1563 60.0544 53.7594 60.3447C53.3625 60.6345 52.8748 60.7782 52.293 60.7782ZM52.4578 59.6967C52.8446 59.6967 53.1607 59.6046 53.4062 59.4169C53.6517 59.2292 53.83 58.9729 53.941 58.6457C54.052 58.3184 54.1091 57.9395 54.1091 57.5131C54.1091 57.0867 54.052 56.708 53.9376 56.3805C53.8233 56.053 53.645 55.7971 53.4062 55.6129C53.1675 55.4286 52.8648 55.34 52.4948 55.34C52.1047 55.34 51.7818 55.4389 51.5296 55.6299C51.2773 55.8244 51.089 56.0871 50.9679 56.4146C50.8468 56.7421 50.7863 57.1071 50.7863 57.5131C50.7863 57.9191 50.8468 58.2909 50.9679 58.6181C51.089 58.9495 51.274 59.2087 51.5195 59.4064C51.765 59.6011 52.0778 59.6967 52.4511 59.6967H52.4578ZM54.1091 56.1656H53.9746V52.3754H55.1585V60.6104H54.1091V56.1656Z" fill="white"/>
<path d="M59.437 60.7776C58.8311 60.7776 58.3002 60.6451 57.8426 60.3753C57.3852 60.1061 57.0321 59.7307 56.7765 59.2498C56.5243 58.7683 56.3965 58.2091 56.3965 57.5711C56.3965 56.8956 56.5209 56.3122 56.7698 55.8142C57.0187 55.3161 57.3684 54.934 57.8158 54.6645C58.2633 54.395 58.7843 54.2586 59.3761 54.2586C59.9679 54.2586 60.5228 54.4052 60.9601 54.6952C61.3974 54.9852 61.724 55.4014 61.9388 55.9404C62.1543 56.4794 62.2415 57.1174 62.1946 57.8576H61.0175V57.4244C61.011 56.708 60.8764 56.1792 60.6142 55.8346C60.3513 55.4901 59.9545 55.3195 59.42 55.3195C58.8311 55.3195 58.3874 55.5071 58.0883 55.8858C57.7888 56.2645 57.6442 56.8069 57.6442 57.5199C57.6442 58.2329 57.7922 58.7243 58.0883 59.0961C58.3839 59.468 58.8147 59.6521 59.3732 59.6521C59.7431 59.6521 60.0592 59.5671 60.3279 59.3964C60.5972 59.2257 60.8056 58.9835 60.9572 58.6662L62.1139 59.0381C61.8786 59.5905 61.5186 60.0204 61.038 60.3207C60.5568 60.6245 60.0218 60.7747 59.43 60.7747L59.437 60.7776ZM57.2675 57.8542V56.9229H61.6128V57.8542H57.2675Z" fill="white"/>
<path d="M31.0244 63.7494V62.5893H32.2015V63.7494H31.0244ZM31.0244 70.9374V64.7622H32.2015V70.9374H31.0244Z" fill="white"/>
<path d="M33.8867 70.9374V64.7622H34.9394V66.5469H35.0807V70.9374H33.8867ZM38.1647 70.9374V67.9011C38.1647 67.6624 38.1446 67.4132 38.1042 67.161C38.0639 66.9082 37.9899 66.673 37.8789 66.4548C37.7679 66.2361 37.6132 66.0625 37.4114 65.9293C37.2096 65.7962 36.9473 65.7282 36.6244 65.7282C36.4125 65.7282 36.2141 65.7622 36.0258 65.8337C35.8374 65.9053 35.6726 66.0179 35.5314 66.1751C35.3901 66.3317 35.2791 66.5364 35.1984 66.7921C35.1177 67.0484 35.0774 67.3586 35.0774 67.7234L34.3441 67.4437C34.3441 66.8841 34.4484 66.3897 34.6535 65.9598C34.8587 65.5299 35.158 65.1956 35.5448 64.9569C35.9316 64.7182 36.3991 64.5951 36.9473 64.5951C37.3677 64.5951 37.7208 64.6637 38.0067 64.7997C38.2926 64.9364 38.5246 65.117 38.7029 65.3387C38.8811 65.561 39.019 65.8062 39.1132 66.0689C39.2073 66.3317 39.2713 66.5909 39.3049 66.8402C39.3385 67.0923 39.3553 67.314 39.3553 67.5017V70.9339H38.1614L38.1647 70.9374Z" fill="white"/>
<path d="M43.1963 70.9374V62.7019H44.3734V70.9374H43.1963Z" fill="white"/>
<path d="M45.3887 65.7212V64.7593H49.549V65.7212H45.3887ZM49.549 70.9374C49.1656 71.0125 48.7889 71.0465 48.4223 71.036C48.0523 71.026 47.7261 70.9509 47.4369 70.8178C47.1476 70.6847 46.929 70.4735 46.7844 70.1902C46.6532 69.9345 46.5826 69.6753 46.5725 69.409C46.5624 69.1428 46.5591 68.8425 46.5591 68.5082V63.0468H47.7429V68.4501C47.7429 68.6994 47.7429 68.914 47.7496 69.0953C47.7564 69.2794 47.7934 69.4331 47.864 69.5592C47.9985 69.7944 48.2138 69.931 48.5097 69.9615C48.8057 69.9955 49.1521 69.982 49.549 69.924V70.9374Z" fill="white"/>
<path d="M52.5485 71.1081C52.0978 71.1081 51.7211 71.0225 51.4151 70.8518C51.1091 70.6811 50.8804 70.4565 50.7257 70.1767C50.571 69.897 50.4902 69.5897 50.4902 69.2518C50.4902 68.9381 50.544 68.6654 50.655 68.4296C50.7627 68.1944 50.9241 67.9932 51.1393 67.8261C51.3546 67.6589 51.6169 67.5258 51.9297 67.4237C52.1987 67.3452 52.5082 67.2736 52.8479 67.212C53.1909 67.1504 53.5508 67.0924 53.9274 67.0414C54.3041 66.9868 54.6808 66.9358 55.0508 66.8812L54.6236 67.1199C54.6304 66.6355 54.5294 66.2772 54.3209 66.042C54.1124 65.8062 53.7559 65.6907 53.2481 65.6907C52.9286 65.6907 52.636 65.7657 52.3703 65.9153C52.1046 66.0654 51.9162 66.3147 51.812 66.6625L50.7122 66.3217C50.8635 65.7927 51.1494 65.3698 51.5732 65.0561C51.997 64.7423 52.5586 64.5886 53.2615 64.5886C53.8063 64.5886 54.2806 64.6842 54.6841 64.8719C55.0878 65.059 55.3837 65.3593 55.572 65.7657C55.6696 65.9669 55.7301 66.1816 55.7537 66.4068C55.7772 66.632 55.7873 66.8742 55.7873 67.1334V70.9374H54.7447V69.5252L54.9465 69.7093C54.6943 70.1832 54.3747 70.5345 53.9846 70.7632C53.5945 70.9955 53.1169 71.1081 52.5485 71.1081ZM52.7571 70.1322C53.09 70.1322 53.3792 70.0706 53.618 69.9515C53.8568 69.8319 54.0519 69.6782 54.1999 69.4905C54.3479 69.3035 54.442 69.1087 54.4857 68.9076C54.5496 68.7234 54.5866 68.5187 54.5967 68.29C54.6068 68.0613 54.6102 67.8771 54.6102 67.7405L54.9936 67.8841C54.6203 67.9422 54.2839 67.9932 53.9779 68.0378C53.6718 68.0818 53.3994 68.1299 53.1505 68.1704C52.905 68.2149 52.6864 68.266 52.4947 68.3275C52.3333 68.3856 52.1887 68.4536 52.0642 68.5322C51.9398 68.6108 51.8389 68.7093 51.7649 68.8219C51.6909 68.9346 51.6539 69.0747 51.6539 69.2384C51.6539 69.402 51.6943 69.5457 51.7716 69.6817C51.849 69.8184 51.97 69.924 52.1315 70.0061C52.2929 70.0876 52.5014 70.1251 52.7503 70.1251L52.7571 70.1322Z" fill="white"/>
<path d="M57.3613 70.9374V62.5312H58.5384V70.9374H57.3613Z" fill="white"/>
<path d="M61.0546 73.6834L62.2318 70.429L62.2488 71.3908L59.5918 64.7623H60.8193L62.8037 69.88H62.4437L64.3374 64.7623H65.5309L62.1715 73.6834H61.0482H61.0546Z" fill="white"/>
<path d="M40.2234 22.636C41.8384 19.6445 45.5677 18.5311 48.5534 20.1492C51.5391 21.7672 52.6503 25.5038 51.0355 28.4952L43.1628 43.0779C41.5478 46.0694 37.8185 47.1828 34.8328 45.5648C31.847 43.9467 30.7358 40.2102 32.3507 37.2187L40.2234 22.636Z" fill="#009347"/>
<path d="M46.6628 22.636C48.2778 19.6445 52.0071 18.5311 54.9929 20.1492C57.9786 21.7672 59.0898 25.5038 57.475 28.4952L49.6022 43.0779C47.9873 46.0694 44.2579 47.1828 41.2722 45.5648C38.2865 43.9467 37.1752 40.2102 38.7901 37.2187L46.6628 22.636Z" fill="white"/>
<path d="M53.7576 22.636C55.3725 19.6445 59.1018 18.5311 62.0876 20.1492C65.0733 21.7672 66.1845 25.5038 64.5697 28.4952L56.697 43.0779C55.082 46.0694 51.3527 47.1828 48.3669 45.5648C45.3812 43.9467 44.2699 40.2102 45.8848 37.2187L53.7576 22.636Z" fill="#CF2837"/>
</g>
<defs>
<clipPath id="clip0_1400_6129">
<rect width="96" height="97" fill="white"/>
</clipPath>
</defs>
</svg>
