<svg width="169" height="169" viewBox="0 0 169 169" fill="none" xmlns="http://www.w3.org/2000/svg">
<path d="M25.8945 143.944C62.175 119.058 107.781 106.2 164.556 107.73C154.471 142.456 122.396 167.858 84.3809 167.858C61.602 167.858 40.9626 158.728 25.8945 143.944ZM8.3457 118.87C54.9084 103.378 107.297 95.237 167.002 96.3369C166.793 97.8162 166.544 99.2857 166.257 100.74C101.64 98.3842 54.3889 110.707 13.4004 128.319C11.5236 125.293 9.83056 122.141 8.3457 118.87ZM167.763 88.6865C167.737 89.1961 167.707 89.7036 167.672 90.2119C100.368 89.6016 47.5105 95.2658 3.41504 104.744C2.23582 100.05 1.45743 95.2049 1.11328 90.2314L167.763 88.6865ZM3.61523 63.2803C52.5513 74.2972 106.82 80.1875 167.739 79.7314C167.78 80.4932 167.81 81.2576 167.833 82.0283L1.05371 79.4395C1.37984 73.892 2.25248 68.4904 3.61523 63.2803ZM14.0488 39.4629C48.2776 58.914 99.0803 68.7896 166.456 69.3057C166.676 70.4729 166.865 71.5656 167.031 72.7119C109.187 73.4474 56.3774 65.8511 7.73828 51.3018C9.52361 47.1767 11.6446 43.2234 14.0488 39.4629ZM84.3809 1C122.876 1 155.289 27.043 164.928 62.4473C109.013 63.2709 62.0798 51.2653 23.3223 27.541C38.5683 11.2146 60.2869 1.00008 84.3809 1Z" fill="url(#paint0_linear_1390_6363)" fill-opacity="0.1" stroke="url(#paint1_linear_1390_6363)" stroke-width="2"/>
<defs>
<linearGradient id="paint0_linear_1390_6363" x1="-129.251" y1="149.578" x2="-7.39342" y2="112.218" gradientUnits="userSpaceOnUse">
<stop stop-color="#999999" stop-opacity="0.2"/>
<stop offset="0.447115" stop-color="#999999" stop-opacity="0.4"/>
<stop offset="1" stop-color="#999999" stop-opacity="0.2"/>
</linearGradient>
<linearGradient id="paint1_linear_1390_6363" x1="-129.251" y1="149.578" x2="-7.39342" y2="112.218" gradientUnits="userSpaceOnUse">
<stop stop-color="#999999" stop-opacity="0.2"/>
<stop offset="0.447115" stop-color="#999999" stop-opacity="0.4"/>
<stop offset="1" stop-color="#999999" stop-opacity="0.2"/>
</linearGradient>
</defs>
</svg>
