<svg width="55" height="55" viewBox="0 0 55 55" fill="none" xmlns="http://www.w3.org/2000/svg">
<path d="M31.4908 36.3235C31.4908 39.7338 28.711 42.5 25.2839 42.5C21.8569 42.5 19.0771 39.7338 19.0771 36.3235V27.5C19.0771 27.0147 19.4761 26.6176 19.9638 26.6176C20.4514 26.6176 20.8505 27.0147 20.8505 27.5V36.3235C20.8505 38.7588 22.8367 40.7353 25.2839 40.7353C27.7312 40.7353 29.7174 38.7588 29.7174 36.3235V32.7544C29.7174 32.2956 30.0677 31.9162 30.5243 31.8765C35.0687 31.4706 38.5844 27.6632 38.5844 23.0882C38.5844 18.2132 34.6165 14.2647 29.7174 14.2647C27.6603 14.2647 25.7184 14.9618 24.149 16.2191C23.7677 16.5235 23.2091 16.4662 22.9032 16.0868C22.5972 15.7074 22.6549 15.1515 23.0362 14.8471C24.916 13.3382 27.2524 12.5 29.7174 12.5C35.5918 12.5 40.3578 17.2426 40.3578 23.0882C40.3578 28.3029 36.5539 32.6882 31.4908 33.5309V36.3235ZM35.9243 23.0882C35.9243 23.5735 35.5253 23.9706 35.0376 23.9706C34.55 23.9706 34.1509 23.5735 34.1509 23.0882C34.1509 20.6529 32.1647 18.6765 29.7174 18.6765C29.2298 18.6765 28.8307 18.2794 28.8307 17.7941C28.8307 17.3088 29.2298 16.9118 29.7174 16.9118C33.1445 16.9118 35.9243 19.6779 35.9243 23.0882ZM20.2874 19.5853L19.4583 21.65C19.3253 21.9853 18.9972 22.2059 18.6337 22.2059H15.5303C15.0426 22.2059 14.6436 21.8088 14.6436 21.3235C14.6436 20.8382 15.0426 20.4412 15.5303 20.4412H18.0352L19.5869 16.5853C19.8972 15.8088 21.0189 15.8574 21.2583 16.6603L23.1869 23.0618L24.016 20.9971C24.149 20.6618 24.4771 20.4412 24.8406 20.4412H27.944C28.4317 20.4412 28.8307 20.8382 28.8307 21.3235C28.8307 21.8088 28.4317 22.2059 27.944 22.2059H25.4391L23.8874 26.0618C23.5771 26.8382 22.4554 26.7897 22.216 25.9868L20.2874 19.5853Z" fill="#747DA1"/>
</svg>
