<svg width="55" height="55" viewBox="0 0 55 55" fill="none" xmlns="http://www.w3.org/2000/svg">
<path fill-rule="evenodd" clip-rule="evenodd" d="M27.4653 33.0733L23.1902 28.7912L14.5993 37.3958C13.7939 38.2025 13.7939 39.5066 14.5993 40.3133L15.9416 41.6578C16.3341 42.0509 16.8461 42.2525 17.3611 42.2624C17.9 42.2729 18.4423 42.0736 18.8544 41.6645L18.8577 41.6612L18.8611 41.6578V41.6645L27.4653 33.0733ZM17.3611 43.7626C16.4618 43.7525 15.5655 43.4042 14.8801 42.7176L13.5378 41.3731C12.1477 39.9808 12.1477 37.7283 13.5378 36.336L23.19 26.6681L29.5865 33.0749C29.5865 33.0749 20.145 42.2188 19.2388 42.9844C18.3325 43.75 17.3611 43.7626 17.3611 43.7626Z" fill="#747DA1"/>
<path fill-rule="evenodd" clip-rule="evenodd" d="M18.5583 13.2872C19.0946 13.1439 19.6486 13.0676 20.2049 13.0597C23.9432 13.1134 26.9634 16.1385 27.0104 19.8829C27.0037 20.7501 26.8224 21.6039 26.4802 22.3971L41.4938 37.4351C42.5341 38.4368 42.5744 40.0905 41.5743 41.1325L41.4938 41.2131C40.4938 42.2551 38.8428 42.2954 37.8025 41.2938L22.7083 26.1751C21.9163 26.5179 21.064 26.6994 20.1982 26.7062C16.4599 26.6524 13.4397 23.6273 13.3927 19.8829C13.4007 19.3257 13.4768 18.7708 13.6199 18.2336C13.7184 17.8635 13.8486 17.5019 14.0102 17.1536L14.2048 16.6965L18.2317 20.7299C18.97 21.5097 20.2049 21.5366 20.9834 20.7972L21.0505 20.7299C21.8291 19.9905 21.8626 18.7603 21.1244 17.9805L17.0236 13.8731L17.48 13.6781C17.8277 13.5163 18.1888 13.3859 18.5583 13.2872ZM16.87 12.3076C17.9125 11.8265 19.0461 11.5761 20.1834 11.5598L20.205 11.5595L20.2265 11.5598C24.778 11.6253 28.4531 15.3077 28.5102 19.8641L28.5104 19.8793L28.5103 19.8945C28.5048 20.6117 28.4024 21.3211 28.2084 22.0051L42.546 36.366C44.1651 37.9371 44.2313 40.5303 42.6566 42.1711L42.6463 42.1818L42.5931 42.2351C42.5915 42.2367 42.5947 42.2335 42.5931 42.2351L42.5646 42.2636C40.9949 43.8865 38.4018 43.9531 36.7621 42.3743L36.7514 42.3641L22.3153 27.9045C21.6329 28.0982 20.9252 28.2006 20.2098 28.2061L20.1932 28.2062L20.1766 28.206C15.625 28.1405 11.95 24.4581 11.8928 19.9017L11.8926 19.8816L11.8929 19.8615C11.9091 18.7233 12.1588 17.5888 12.6389 16.5452L13.6956 14.0634L19.3073 19.6842L19.321 19.6987C19.4805 19.8672 19.7574 19.8831 19.9408 19.7184L20.0031 19.656L20.0175 19.6423C20.1938 19.4749 20.2033 19.1997 20.0439 19.0212L14.3961 13.3643L16.87 12.3076Z" fill="#747DA1"/>
<path fill-rule="evenodd" clip-rule="evenodd" d="M39.5028 21.5175L38.5932 21.3049L31.9985 27.9103L28.3151 24.221L34.8816 17.6438L34.6318 16.782L40.7605 11.5068L44.7468 15.4997L39.5028 21.5175ZM42.6966 15.5692L38.965 19.8514L38.7637 19.8043C38.5288 19.7438 38.2805 19.7169 38.0388 19.7371L31.9986 25.7871L30.4347 24.221L36.4751 18.1708C36.4952 17.9422 36.4751 17.7137 36.4012 17.4985L36.3408 17.2901L40.6832 13.5525L42.6966 15.5692Z" fill="#747DA1"/>
</svg>
