<svg width="35" height="17" viewBox="0 0 35 17" fill="none" xmlns="http://www.w3.org/2000/svg">
<path d="M17.9826 12.3908C17.9826 11.8348 17.5482 11.3831 17.0134 11.3831C16.4787 11.3831 16.0443 11.8348 16.0443 12.3908V13.7806C16.0443 14.3366 16.4787 14.7883 17.0134 14.7883C17.5482 14.7883 17.9826 14.3366 17.9826 13.7806V12.3908Z" fill="#4064DF"/>
<path d="M17.9826 5.7263C17.9826 5.17035 17.5482 4.71864 17.0134 4.71864C16.4787 4.71864 16.0443 5.17035 16.0443 5.7263V9.05505C16.0443 9.61447 16.4787 10.0697 17.0134 10.0697C17.5482 10.0697 17.9826 9.61795 17.9826 9.062V5.7263Z" fill="#4064DF"/>
<path d="M17.9826 1.00766C17.9826 0.451709 17.5482 0 17.0134 0C16.4787 0 16.0443 0.451709 16.0443 1.00766V2.39753C16.0443 2.95348 16.4787 3.40519 17.0134 3.40519C17.5482 3.40519 17.9826 2.95348 17.9826 2.39753V1.00766Z" fill="#4064DF"/>
<path d="M20.6054 13.4734C20.3922 13.9091 20.193 14.3532 20.0132 14.7945C19.9116 15.0356 19.9076 15.3039 20.0012 15.5513C20.0967 15.8042 20.2819 16.0023 20.5218 16.1107C20.6455 16.1656 20.7705 16.1927 20.9035 16.1927C21.2925 16.1927 21.6414 15.9529 21.7938 15.5818C21.9762 15.1517 22.1567 14.7507 22.3312 14.3879C22.5731 13.8911 22.3833 13.2837 21.9074 13.0335C21.4302 12.7819 20.846 12.98 20.6054 13.4741V13.4734Z" fill="#4064DF"/>
<path d="M26.2813 7.2579C25.8041 7.50252 25.6089 8.10712 25.8455 8.60539C26.0026 8.95077 26.3421 9.17245 26.7117 9.17245C26.8661 9.17245 27.0098 9.13701 27.1402 9.06613C27.8239 8.7138 28.5672 8.44694 29.3512 8.27112C29.8706 8.15159 30.2054 7.61441 30.0965 7.07375C29.9962 6.60327 29.5905 6.27804 29.1433 6.27804C29.0778 6.27804 29.0117 6.28499 28.9455 6.29959C28.0131 6.50459 27.1175 6.82635 26.2826 7.25721L26.2813 7.2579Z" fill="#4064DF"/>
<path d="M23.9299 8.88339C23.2375 9.51161 22.6038 10.233 22.0471 11.0273C21.7289 11.4769 21.8178 12.1128 22.2462 12.4456C22.416 12.5735 22.6152 12.6409 22.8217 12.6409C23.1319 12.6409 23.4173 12.4915 23.6037 12.2309C24.0856 11.5513 24.6237 10.9376 25.2019 10.4081C25.3984 10.2309 25.5167 9.98556 25.5347 9.71731C25.5528 9.44907 25.4692 9.18847 25.2988 8.98416C24.9492 8.56372 24.335 8.51855 23.9299 8.88339Z" fill="#4064DF"/>
<path d="M33.0547 8.06132C33.5587 8.06132 33.9818 7.652 34.0172 7.12941C34.0379 6.86046 33.9571 6.60125 33.7906 6.39972C33.6235 6.1975 33.3876 6.0738 33.1269 6.05295C32.6978 6.01542 32.2353 5.99735 31.712 5.99735C31.1819 6.00361 30.7495 6.45879 30.7495 7.01196C30.7555 7.56305 31.1899 8.01267 31.7186 8.01267C32.1604 8.01267 32.5802 8.02935 32.9725 8.06132H33.0554H33.0547Z" fill="#4064DF"/>
<path d="M12.8514 12.9655C12.6047 12.8821 12.3427 12.9036 12.1135 13.0259C11.6389 13.2817 11.4484 13.8925 11.6891 14.3866C11.8729 14.7556 12.054 15.158 12.2271 15.5819C12.3788 15.953 12.7284 16.1928 13.1174 16.1928C13.2524 16.1928 13.3841 16.165 13.497 16.1114C13.9903 15.8898 14.2189 15.2963 14.0077 14.7883C13.8272 14.347 13.628 13.9022 13.4155 13.4665C13.2985 13.2268 13.0987 13.0489 12.8514 12.9655Z" fill="#4064DF"/>
<path d="M10.103 8.89732C9.92452 8.73679 9.70061 8.64992 9.46734 8.64992C9.44462 8.64992 9.42123 8.65062 9.39783 8.6527C9.13917 8.67146 8.90389 8.79447 8.73412 8.99808C8.56168 9.19892 8.47612 9.45535 8.49217 9.72221C8.50888 9.99115 8.62651 10.2372 8.82369 10.4151C9.39048 10.9279 9.92786 11.5416 10.4225 12.2386C10.6043 12.495 10.8964 12.6479 11.2038 12.6479C11.411 12.6479 11.6102 12.5805 11.78 12.4526C12.2071 12.1211 12.2993 11.488 11.9852 11.0419C11.3963 10.2184 10.7627 9.49705 10.1016 8.89732H10.103Z" fill="#4064DF"/>
<path d="M4.67634 8.27188C5.45969 8.4477 6.20294 8.71456 6.88536 9.0655C7.0284 9.13638 7.17344 9.17252 7.31581 9.17252C7.68409 9.17252 8.02363 8.95292 8.18137 8.6131C8.41865 8.11413 8.22281 7.50954 7.74625 7.26492C6.91143 6.83406 6.01579 6.5123 5.08272 6.3073C4.56272 6.19402 4.04605 6.54219 3.93109 7.08285C3.82214 7.61864 4.15634 8.15235 4.67634 8.27188Z" fill="#4064DF"/>
<path d="M3.27806 7.01057C3.28408 6.4581 2.85163 6.00361 2.31425 5.99735C1.79157 5.99735 1.32905 6.01542 0.89994 6.05225C0.359882 6.09673 -0.0337982 6.57276 0.00229478 7.13636C0.0444032 7.65408 0.470166 8.06062 0.971458 8.06062H1.05434C1.44668 8.02865 1.86643 8.01197 2.30155 8.01197C2.83626 8.01197 3.27138 7.56235 3.2774 7.00988L3.27806 7.01057Z" fill="#4064DF"/>
</svg>
