<svg width="55" height="50" viewBox="0 0 55 50" fill="none" xmlns="http://www.w3.org/2000/svg">
<path d="M4.46789 26.2894C4.91398 38.2555 14.2872 48.3672 26.2707 49.8103C34.6545 50.82 42.636 47.7667 48.1685 41.434C53.6911 35.1118 55.6405 26.8048 53.5163 18.6425C51.5548 11.1064 46.2093 5.0246 38.8502 1.95696C31.6457 -1.04664 23.7373 -0.574923 17.1529 3.24927L17.0896 3.2862C16.5863 3.57781 15.8975 3.97719 15.8154 4.40218C15.8026 4.46925 15.7634 4.6727 16.052 5.04118C16.4273 5.51968 16.7633 5.4285 17.6518 4.88897C17.807 4.79477 17.9675 4.69682 18.1242 4.61619C22.3395 2.43621 26.964 1.50032 31.4972 1.90949C35.7683 2.2953 39.8562 3.84457 43.3202 6.39001C46.7028 8.87593 49.3312 12.2035 50.9226 16.0127C52.6181 20.072 53.0898 24.6278 52.288 29.1867C51.4825 33.7622 49.399 37.8953 46.2613 41.1386C43.3255 44.1731 39.5616 46.3643 35.3772 47.4743C31.1679 48.591 26.7808 48.5504 22.6899 47.356C18.3186 46.0795 14.4251 43.4994 11.4313 39.8937C8.26043 36.0748 6.3766 31.2575 6.12567 26.3293L6.10005 25.8222L6.60718 25.8554C8.40059 25.9722 9.95966 24.7597 10.3259 22.9648L10.3281 16.1769C10.1767 15.7052 9.65598 15.5477 9.19407 15.6035L8.68844 15.6645V11.0408C8.63871 10.9451 8.5076 10.7613 8.45485 10.7093C8.27249 10.5473 8.02156 10.4712 7.76838 10.5051C7.52875 10.5367 7.3268 10.6595 7.1987 10.8509C7.16705 10.9067 7.07437 11.1026 7.03066 11.2036V15.6073H3.79121L3.41369 15.2297V11.0408C3.36396 10.9451 3.23284 10.7605 3.17934 10.7093C2.92766 10.484 2.63077 10.4199 2.34593 10.5322C2.01437 10.6626 1.78681 10.9903 1.75139 11.3875C1.69714 11.9903 1.72351 12.6617 1.74838 13.3112C1.77249 13.9322 1.79736 14.5749 1.75591 15.186L1.72502 15.6457L1.26611 15.6058C0.875028 15.5718 0.203627 15.6382 0.10416 16.461C-0.0563428 17.7865 -0.0337367 21.8496 0.188556 22.9964C0.533676 24.7748 2.16207 26.0046 3.9811 25.8561L4.45206 25.8177L4.46939 26.2894H4.46789ZM3.40465 24.172C3.07912 24.1237 2.62248 23.9436 2.33387 23.649C2.3286 23.6437 1.83051 23.0401 1.83051 22.7267V17.2635H8.68769V22.6513C8.68769 23.5096 7.52122 24.1396 6.88523 24.1976C6.50017 24.2322 5.84611 24.2541 5.18827 24.2541C4.53043 24.2541 3.80252 24.23 3.40465 24.1712V24.172Z" fill="white"/>
</svg>
