<svg width="44" height="16" viewBox="0 0 44 16" fill="none" xmlns="http://www.w3.org/2000/svg">
<path d="M42.1967 11.7559H35.3443V9.37156C35.3443 6.64971 37.1548 4.28736 39.7515 3.62708C40.718 3.38497 41.3023 2.38721 41.0643 1.40412C40.9489 0.927246 40.6603 0.531074 40.2492 0.274297C39.838 0.0248556 39.3475 -0.055845 38.8859 0.0688755C37.1403 0.509065 35.5679 1.4408 34.3344 2.76871L33.5482 3.60507L32.762 2.76871C31.5285 1.4408 29.9489 0.509065 28.2105 0.0688755C27.7344 -0.0631815 27.2511 -0.0044898 26.8328 0.237615C26.4144 0.479719 26.1115 0.868555 25.9816 1.34543C25.8518 1.81496 25.9095 2.31384 26.1475 2.73936C26.3856 3.16488 26.7679 3.47301 27.2367 3.60507L27.3305 3.62708C29.9344 4.28736 31.7449 6.64971 31.7449 9.37156V11.7559H12.2695V9.37156C12.2695 6.64971 14.08 4.28736 16.6767 3.62708C17.1311 3.50236 17.5207 3.19422 17.7515 2.76871C17.9895 2.34319 18.0472 1.84431 17.9174 1.37477C17.6649 0.4357 16.7272 -0.136545 15.7895 0.0762136C14.0584 0.516403 12.4859 1.44814 11.2525 2.77604L10.4662 3.61241L9.68 2.77604C8.44656 1.44814 6.86689 0.516403 5.12852 0.0762136C4.65246 -0.0558434 4.16918 0.00284826 3.75082 0.244953C3.33246 0.487057 3.02951 0.87589 2.89967 1.35276C2.63279 2.32852 3.19541 3.34095 4.15475 3.61241L4.24852 3.63441C6.85246 4.2947 8.67016 6.65705 8.66295 9.37889V11.7633H1.80328C0.807869 11.7633 0 12.5849 0 13.5974C0 14.6098 0.807869 15.4315 1.80328 15.4315H42.1967C43.1921 15.4315 44 14.6098 44 13.5974C44 12.5849 43.1921 11.7633 42.1967 11.7633V11.7559Z" fill="#747DA1"/>
</svg>
