<svg width="1015" height="1005" viewBox="0 0 1015 1005" fill="none" xmlns="http://www.w3.org/2000/svg">
<mask id="path-1-inside-1_1939_12511" fill="white">
<path fill-rule="evenodd" clip-rule="evenodd" d="M140.655 156.04C233.159 59.8788 363.17 0 507.12 0C743.066 0 941.504 160.861 999.034 379.063C999.034 379.063 820.87 381.854 708.346 366.377C583.657 349.124 512.442 334.154 395.102 288.738C290.688 248.396 140.909 156.04 140.909 156.04M1010.95 439.957C1009.17 427.271 1007.14 414.838 1004.36 402.406C1004.36 402.406 754.217 405.958 597.089 381.601C426.781 355.213 327.436 337.706 170.814 265.649C137.361 250.172 118.86 239.008 86.4207 223.023C69.1873 248.142 54.2347 275.037 41.8165 303.2C41.8165 303.2 140.909 336.691 205.281 353.945C342.388 390.481 422.727 400.376 563.382 417.122C736.73 437.927 1010.69 439.957 1010.69 439.957M568.197 487.15L1015 489.18C1014.75 480.807 1014.24 472.434 1013.48 464.061C1013.48 464.061 719.497 466.344 532.717 449.852C330.223 431.838 210.856 411.54 17.4869 370.437C8.61673 402.152 2.53433 435.136 0 469.135L568.197 487.15ZM140.655 848.96C233.159 945.121 363.17 1005 506.866 1005C742.813 1005 941.251 844.139 998.78 625.937C998.78 625.937 820.617 623.146 708.092 638.623C583.403 655.876 512.189 670.846 394.849 716.262C290.434 756.604 140.655 848.96 140.655 848.96ZM563.635 587.878C422.727 604.878 342.642 614.519 205.534 651.055C140.909 668.308 42.0699 701.8 42.0699 701.8C54.4881 729.963 69.4407 756.858 86.6742 781.977C119.114 765.738 137.614 754.828 171.067 739.351C327.436 667.294 427.035 649.787 597.342 623.399C754.471 599.042 1004.61 602.594 1004.61 602.594C1007.14 590.162 1009.42 577.729 1011.2 565.043C1011.2 565.043 737.237 567.073 563.889 587.878M0 535.865C2.53433 569.864 8.61673 602.848 17.4869 634.563C211.11 593.46 330.223 573.162 532.717 555.148C719.497 538.656 1013.48 540.939 1013.48 540.939C1014.24 532.566 1014.75 524.447 1015 516.074L568.197 517.85L0 535.865Z"/>
</mask>
<path fill-rule="evenodd" clip-rule="evenodd" d="M140.655 156.04C233.159 59.8788 363.17 0 507.12 0C743.066 0 941.504 160.861 999.034 379.063C999.034 379.063 820.87 381.854 708.346 366.377C583.657 349.124 512.442 334.154 395.102 288.738C290.688 248.396 140.909 156.04 140.909 156.04M1010.95 439.957C1009.17 427.271 1007.14 414.838 1004.36 402.406C1004.36 402.406 754.217 405.958 597.089 381.601C426.781 355.213 327.436 337.706 170.814 265.649C137.361 250.172 118.86 239.008 86.4207 223.023C69.1873 248.142 54.2347 275.037 41.8165 303.2C41.8165 303.2 140.909 336.691 205.281 353.945C342.388 390.481 422.727 400.376 563.382 417.122C736.73 437.927 1010.69 439.957 1010.69 439.957M568.197 487.15L1015 489.18C1014.75 480.807 1014.24 472.434 1013.48 464.061C1013.48 464.061 719.497 466.344 532.717 449.852C330.223 431.838 210.856 411.54 17.4869 370.437C8.61673 402.152 2.53433 435.136 0 469.135L568.197 487.15ZM140.655 848.96C233.159 945.121 363.17 1005 506.866 1005C742.813 1005 941.251 844.139 998.78 625.937C998.78 625.937 820.617 623.146 708.092 638.623C583.403 655.876 512.189 670.846 394.849 716.262C290.434 756.604 140.655 848.96 140.655 848.96ZM563.635 587.878C422.727 604.878 342.642 614.519 205.534 651.055C140.909 668.308 42.0699 701.8 42.0699 701.8C54.4881 729.963 69.4407 756.858 86.6742 781.977C119.114 765.738 137.614 754.828 171.067 739.351C327.436 667.294 427.035 649.787 597.342 623.399C754.471 599.042 1004.61 602.594 1004.61 602.594C1007.14 590.162 1009.42 577.729 1011.2 565.043C1011.2 565.043 737.237 567.073 563.889 587.878M0 535.865C2.53433 569.864 8.61673 602.848 17.4869 634.563C211.11 593.46 330.223 573.162 532.717 555.148C719.497 538.656 1013.48 540.939 1013.48 540.939C1014.24 532.566 1014.75 524.447 1015 516.074L568.197 517.85L0 535.865Z" fill="#4064DF" fill-opacity="0.05"/>
<path d="M999.034 379.063L999.049 380.063L1000.33 380.043L1000 378.808L999.034 379.063ZM708.346 366.377L708.209 367.368L708.21 367.368L708.346 366.377ZM395.102 288.738L395.463 287.805L395.463 287.805L395.102 288.738ZM1004.36 402.406L1005.33 402.187L1005.15 401.395L1004.34 401.406L1004.36 402.406ZM597.089 381.601L597.242 380.612L597.242 380.612L597.089 381.601ZM170.814 265.649L170.394 266.556L170.396 266.557L170.814 265.649ZM86.4207 223.023L86.8627 222.126L86.086 221.743L85.5961 222.457L86.4207 223.023ZM41.8165 303.2L40.9015 302.796L40.4603 303.797L41.4963 304.147L41.8165 303.2ZM205.281 353.945L205.022 354.911L205.023 354.911L205.281 353.945ZM563.382 417.122L563.501 416.129L563.5 416.129L563.382 417.122ZM568.197 487.15L568.166 488.149L568.179 488.15L568.193 488.15L568.197 487.15ZM1015 489.18L1015 490.18L1016.03 490.184L1016 489.149L1015 489.18ZM1013.48 464.061L1014.48 463.97L1014.39 463.054L1013.47 463.061L1013.48 464.061ZM532.717 449.852L532.628 450.848L532.629 450.848L532.717 449.852ZM17.4869 370.437L17.6948 369.459L16.7767 369.263L16.5238 370.167L17.4869 370.437ZM0 469.135L-0.997233 469.061L-1.07481 470.102L-0.0316886 470.135L0 469.135ZM140.655 848.96L140.131 848.109L139.075 848.759L139.935 849.653L140.655 848.96ZM998.78 625.937L999.747 626.192L1000.07 624.957L998.796 624.937L998.78 625.937ZM708.092 638.623L707.956 637.632L707.955 637.632L708.092 638.623ZM394.849 716.262L395.209 717.195L395.21 717.195L394.849 716.262ZM205.534 651.055L205.277 650.089L205.276 650.089L205.534 651.055ZM42.0699 701.8L41.749 700.853L40.714 701.204L41.1549 702.203L42.0699 701.8ZM86.6742 781.977L85.8496 782.542L86.3426 783.261L87.1218 782.871L86.6742 781.977ZM171.067 739.351L170.649 738.443L170.648 738.444L171.067 739.351ZM597.342 623.399L597.495 624.388H597.495L597.342 623.399ZM1004.61 602.594L1004.6 603.594L1005.42 603.606L1005.59 602.794L1004.61 602.594ZM1011.2 565.043L1012.19 565.181L1012.35 564.034L1011.19 564.043L1011.2 565.043ZM0 535.865L-0.0316886 534.865L-1.07481 534.898L-0.997233 535.939L0 535.865ZM17.4869 634.563L16.5238 634.833L16.7766 635.736L17.6945 635.541L17.4869 634.563ZM532.717 555.148L532.629 554.151L532.628 554.152L532.717 555.148ZM1013.48 540.939L1013.47 541.939L1014.39 541.946L1014.48 541.03L1013.48 540.939ZM1015 516.074L1016 516.104L1016.03 515.07L1015 515.074L1015 516.074ZM568.197 517.85L568.193 516.85L568.179 516.85L568.166 516.851L568.197 517.85ZM140.655 156.04L141.376 156.733C233.699 60.7598 363.453 1 507.12 1V0V-1C362.887 -1 232.618 58.9978 139.935 155.347L140.655 156.04ZM507.12 0V1C742.6 1 940.65 161.543 998.067 379.318L999.034 379.063L1000 378.808C942.359 160.179 743.532 -1 507.12 -1V0ZM999.034 379.063C999.018 378.063 999.017 378.063 999.016 378.063C999.015 378.064 999.013 378.064 999.01 378.064C999.005 378.064 998.997 378.064 998.986 378.064C998.964 378.064 998.932 378.065 998.889 378.065C998.803 378.067 998.675 378.069 998.505 378.071C998.165 378.076 997.658 378.083 996.993 378.091C995.661 378.108 993.694 378.13 991.149 378.153C986.06 378.199 978.664 378.248 969.436 378.258C950.981 378.277 925.202 378.143 895.907 377.524C837.308 376.288 764.684 373.117 708.482 365.386L708.346 366.377L708.21 367.368C764.532 375.115 837.252 378.287 895.865 379.524C925.177 380.143 950.972 380.277 969.438 380.258C978.672 380.248 986.074 380.199 991.167 380.153C993.714 380.13 995.684 380.107 997.018 380.091C997.685 380.082 998.192 380.076 998.533 380.071C998.704 380.068 998.833 380.066 998.919 380.065C998.962 380.065 998.995 380.064 999.016 380.064C999.027 380.064 999.035 380.063 999.041 380.063C999.044 380.063 999.046 380.063 999.047 380.063C999.049 380.063 999.049 380.063 999.034 379.063ZM708.346 366.377L708.483 365.387C583.846 348.141 512.711 333.186 395.463 287.805L395.102 288.738L394.741 289.67C512.173 335.122 583.467 350.107 708.209 367.368L708.346 366.377ZM395.102 288.738L395.463 287.805C343.324 267.66 279.826 234.515 229.337 206.387C204.098 192.327 182.121 179.526 166.453 170.241C158.62 165.598 152.364 161.835 148.067 159.232C145.918 157.931 144.259 156.92 143.138 156.234C142.577 155.891 142.151 155.63 141.865 155.454C141.722 155.366 141.614 155.3 141.542 155.256C141.506 155.233 141.479 155.217 141.461 155.206C141.452 155.2 141.445 155.196 141.44 155.193C141.438 155.192 141.436 155.191 141.435 155.19C141.434 155.189 141.434 155.189 140.909 156.04C140.384 156.891 140.385 156.892 140.386 156.892C140.387 156.893 140.389 156.894 140.391 156.896C140.396 156.899 140.403 156.903 140.412 156.908C140.43 156.92 140.457 156.937 140.494 156.959C140.566 157.004 140.675 157.07 140.818 157.158C141.106 157.335 141.533 157.597 142.095 157.94C143.218 158.627 144.88 159.64 147.031 160.943C151.332 163.548 157.594 167.315 165.433 171.961C181.113 181.253 203.106 194.063 228.364 208.134C278.867 236.27 342.466 269.473 394.742 289.67L395.102 288.738ZM1010.95 439.957L1011.94 439.819C1010.16 427.119 1008.13 414.657 1005.33 402.187L1004.36 402.406L1003.38 402.625C1006.16 415.02 1008.18 427.423 1009.95 440.096L1010.95 439.957ZM1004.36 402.406C1004.34 401.406 1004.34 401.406 1004.34 401.406C1004.34 401.406 1004.33 401.406 1004.33 401.406C1004.32 401.406 1004.31 401.406 1004.3 401.407C1004.27 401.407 1004.22 401.408 1004.16 401.408C1004.04 401.41 1003.86 401.412 1003.62 401.415C1003.14 401.421 1002.43 401.43 1001.5 401.44C999.628 401.46 996.866 401.486 993.294 401.511C986.15 401.561 975.768 401.604 962.818 401.58C936.919 401.533 900.75 401.216 859.672 400.138C777.504 397.981 675.74 392.781 597.242 380.612L597.089 381.601L596.935 382.589C675.566 394.778 777.436 399.98 859.619 402.137C900.717 403.216 936.903 403.533 962.815 403.58C975.771 403.604 986.158 403.561 993.308 403.511C996.882 403.486 999.647 403.46 1001.52 403.44C1002.45 403.43 1003.17 403.421 1003.65 403.415C1003.89 403.412 1004.07 403.41 1004.19 403.408C1004.25 403.408 1004.29 403.407 1004.32 403.406C1004.34 403.406 1004.35 403.406 1004.36 403.406C1004.36 403.406 1004.37 403.406 1004.37 403.406C1004.37 403.406 1004.37 403.406 1004.36 402.406ZM597.089 381.601L597.242 380.612C426.959 354.229 327.724 336.738 171.232 264.74L170.814 265.649L170.396 266.557C327.147 338.674 426.604 356.198 596.935 382.589L597.089 381.601ZM170.814 265.649L171.234 264.741C137.767 249.258 119.402 238.16 86.8627 222.126L86.4207 223.023L85.9787 223.92C118.319 239.856 136.954 251.085 170.394 266.556L170.814 265.649ZM86.4207 223.023L85.5961 222.457C68.327 247.628 53.3444 274.577 40.9015 302.796L41.8165 303.2L42.7315 303.603C55.125 275.496 70.0475 248.656 87.2453 223.589L86.4207 223.023ZM41.8165 303.2C41.4963 304.147 41.4967 304.147 41.4975 304.148C41.4982 304.148 41.4994 304.148 41.5009 304.149C41.5039 304.15 41.5085 304.151 41.5145 304.153C41.5266 304.158 41.5447 304.164 41.5687 304.172C41.6166 304.188 41.6883 304.212 41.7831 304.244C41.9728 304.308 42.2552 304.403 42.6261 304.528C43.368 304.778 44.4644 305.146 45.8825 305.621C48.7188 306.571 52.8421 307.947 57.9911 309.652C68.2891 313.062 82.6903 317.789 99.1037 323.055C131.926 333.585 172.811 346.277 205.022 354.911L205.281 353.945L205.54 352.979C173.378 344.359 132.531 331.679 99.7147 321.15C83.3085 315.887 68.9133 311.162 58.6198 307.753C53.4731 306.049 49.352 304.674 46.5176 303.724C45.1005 303.25 44.005 302.882 43.264 302.633C42.8935 302.508 42.6115 302.413 42.4223 302.349C42.3277 302.317 42.2562 302.293 42.2084 302.277C42.1845 302.269 42.1666 302.263 42.1546 302.259C42.1486 302.257 42.1441 302.255 42.1411 302.254C42.1396 302.254 42.1385 302.253 42.1378 302.253C42.137 302.253 42.1367 302.253 41.8165 303.2ZM205.281 353.945L205.023 354.911C342.203 391.466 422.599 401.368 563.264 418.115L563.382 417.122L563.5 416.129C422.854 399.384 342.574 389.496 205.538 352.978L205.281 353.945ZM563.382 417.122L563.263 418.115C649.981 428.523 761.844 434.233 852.008 437.341C897.094 438.895 936.762 439.799 965.159 440.315C979.357 440.572 990.738 440.733 998.569 440.829C1002.48 440.877 1005.51 440.909 1007.56 440.929C1008.59 440.939 1009.37 440.946 1009.89 440.951C1010.15 440.953 1010.35 440.954 1010.48 440.955C1010.55 440.956 1010.6 440.956 1010.63 440.957C1010.65 440.957 1010.66 440.957 1010.67 440.957C1010.68 440.957 1010.68 440.957 1010.68 440.957C1010.68 440.957 1010.68 440.957 1010.69 439.957C1010.7 438.957 1010.7 438.957 1010.7 438.957C1010.69 438.957 1010.69 438.957 1010.69 438.957C1010.68 438.957 1010.67 438.957 1010.65 438.957C1010.62 438.956 1010.57 438.956 1010.5 438.956C1010.37 438.954 1010.17 438.953 1009.91 438.951C1009.39 438.946 1008.61 438.939 1007.58 438.929C1005.53 438.909 1002.51 438.877 998.594 438.829C990.766 438.733 979.389 438.573 965.195 438.315C936.806 437.8 897.15 436.896 852.077 435.342C761.923 432.234 650.131 426.526 563.501 416.129L563.382 417.122ZM568.197 487.15L568.193 488.15L1015 490.18L1015 489.18L1015 488.18L568.202 486.15L568.197 487.15ZM1015 489.18L1016 489.149C1015.75 480.756 1015.24 472.363 1014.48 463.97L1013.48 464.061L1012.48 464.151C1013.24 472.504 1013.75 480.857 1014 489.21L1015 489.18ZM1013.48 464.061C1013.47 463.061 1013.47 463.061 1013.47 463.061C1013.47 463.061 1013.46 463.061 1013.46 463.061C1013.45 463.061 1013.44 463.061 1013.42 463.061C1013.38 463.062 1013.33 463.062 1013.26 463.062C1013.12 463.064 1012.9 463.065 1012.62 463.067C1012.06 463.071 1011.23 463.076 1010.13 463.082C1007.93 463.095 1004.68 463.112 1000.48 463.127C992.077 463.157 979.866 463.182 964.628 463.16C934.152 463.116 891.572 462.886 843.156 462.141C746.317 460.651 626.157 457.099 532.805 448.856L532.717 449.852L532.629 450.848C626.057 459.098 746.278 462.65 843.125 464.141C891.552 464.886 934.142 465.116 964.625 465.16C979.866 465.182 992.081 465.157 1000.49 465.127C1004.69 465.112 1007.94 465.095 1010.14 465.082C1011.24 465.076 1012.07 465.071 1012.64 465.067C1012.92 465.065 1013.13 465.063 1013.27 465.062C1013.34 465.062 1013.4 465.061 1013.43 465.061C1013.45 465.061 1013.46 465.061 1013.47 465.061C1013.48 465.061 1013.48 465.061 1013.48 465.061C1013.49 465.061 1013.49 465.061 1013.48 464.061ZM532.717 449.852L532.805 448.856C330.361 430.846 211.034 410.555 17.6948 369.459L17.4869 370.437L17.279 371.415C210.679 412.525 330.086 432.83 532.628 450.848L532.717 449.852ZM17.4869 370.437L16.5238 370.167C7.63717 401.942 1.54236 434.991 -0.997233 469.061L0 469.135L0.997233 469.21C3.5263 435.281 9.59629 402.363 18.4499 370.706L17.4869 370.437ZM0 469.135L-0.0316886 470.135L568.166 488.149L568.197 487.15L568.229 486.15L0.0316886 468.136L0 469.135ZM140.655 848.96L139.935 849.653C232.618 946.002 362.886 1006 506.866 1006V1005V1004C363.453 1004 233.699 944.24 141.376 848.266L140.655 848.96ZM506.866 1005V1006C743.279 1006 942.105 844.821 999.747 626.192L998.78 625.937L997.813 625.682C940.397 843.457 742.346 1004 506.866 1004V1005ZM998.78 625.937C998.796 624.937 998.795 624.937 998.794 624.937C998.792 624.937 998.79 624.937 998.788 624.937C998.782 624.937 998.774 624.936 998.763 624.936C998.741 624.936 998.709 624.935 998.666 624.935C998.579 624.933 998.45 624.932 998.28 624.929C997.939 624.924 997.431 624.917 996.764 624.909C995.431 624.892 993.461 624.87 990.914 624.847C985.82 624.801 978.418 624.752 969.185 624.742C950.718 624.723 924.924 624.857 895.612 625.476C836.998 626.713 764.278 629.885 707.956 637.632L708.092 638.623L708.229 639.613C764.431 631.883 837.055 628.712 895.654 627.476C924.948 626.857 950.727 626.723 969.183 626.742C978.411 626.752 985.807 626.801 990.896 626.847C993.44 626.87 995.408 626.892 996.739 626.909C997.405 626.917 997.912 626.924 998.252 626.929C998.422 626.931 998.55 626.933 998.636 626.935C998.679 626.935 998.711 626.936 998.732 626.936C998.743 626.936 998.751 626.936 998.757 626.936C998.759 626.936 998.761 626.936 998.763 626.936C998.764 626.936 998.765 626.936 998.78 625.937ZM708.092 638.623L707.955 637.632C583.214 654.893 511.919 669.878 394.488 715.33L394.849 716.262L395.21 717.195C512.458 671.814 583.593 656.859 708.229 639.613L708.092 638.623ZM394.849 716.262L394.489 715.329C342.213 735.527 278.614 768.73 228.11 796.866C202.852 810.937 180.859 823.747 165.18 833.039C157.34 837.685 151.079 841.452 146.777 844.057C144.626 845.36 142.965 846.373 141.841 847.06C141.28 847.403 140.852 847.665 140.565 847.841C140.421 847.93 140.313 847.996 140.24 848.041C140.204 848.063 140.177 848.08 140.158 848.091C140.149 848.097 140.142 848.101 140.138 848.104C140.135 848.106 140.134 848.107 140.132 848.107C140.131 848.108 140.131 848.109 140.655 848.96C141.18 849.811 141.181 849.811 141.182 849.81C141.183 849.809 141.185 849.808 141.187 849.807C141.191 849.804 141.198 849.8 141.207 849.794C141.225 849.783 141.252 849.767 141.288 849.744C141.361 849.7 141.469 849.634 141.612 849.546C141.898 849.37 142.324 849.109 142.885 848.766C144.006 848.08 145.665 847.069 147.813 845.768C152.11 843.165 158.366 839.402 166.2 834.759C181.867 825.474 203.845 812.673 229.083 798.613C279.573 770.485 343.071 737.34 395.209 717.195L394.849 716.262ZM563.635 587.878L563.516 586.885C422.6 603.885 342.456 613.534 205.277 650.089L205.534 651.055L205.792 652.022C342.827 615.505 422.853 605.87 563.755 588.871L563.635 587.878ZM205.534 651.055L205.276 650.089C172.938 658.722 132.053 671.415 99.2618 681.945C82.8641 687.211 68.4866 691.938 58.2084 695.348C53.0692 697.053 48.9548 698.429 46.1249 699.379C44.71 699.854 43.6162 700.222 42.8761 700.472C42.506 700.597 42.2243 700.692 42.0351 700.756C41.9405 700.788 41.869 700.812 41.8212 700.828C41.7973 700.837 41.7792 700.843 41.7672 700.847C41.7612 700.849 41.7566 700.85 41.7536 700.851C41.7521 700.852 41.7509 700.852 41.7502 700.853C41.7494 700.853 41.749 700.853 42.0699 701.8C42.3908 702.747 42.3912 702.747 42.3919 702.747C42.3927 702.747 42.3938 702.746 42.3953 702.746C42.3983 702.745 42.4027 702.743 42.4087 702.741C42.4207 702.737 42.4386 702.731 42.4624 702.723C42.5101 702.707 42.5813 702.683 42.6757 702.651C42.8645 702.587 43.1457 702.492 43.5153 702.367C44.2546 702.118 45.3474 701.75 46.7613 701.275C49.5892 700.326 53.7014 698.951 58.8382 697.247C69.1118 693.838 83.4831 689.113 99.8733 683.85C132.658 673.321 173.505 660.641 205.792 652.021L205.534 651.055ZM42.0699 701.8L41.1549 702.203C53.5978 730.423 68.5805 757.372 85.8496 782.542L86.6742 781.977L87.4987 781.411C70.3009 756.344 55.3785 729.504 42.9849 701.397L42.0699 701.8ZM86.6742 781.977L87.1218 782.871C119.626 766.6 138.043 755.732 171.487 740.259L171.067 739.351L170.648 738.444C137.185 753.925 118.601 764.877 86.2265 781.083L86.6742 781.977ZM171.067 739.351L171.486 740.259C327.724 668.262 427.212 650.771 597.495 624.388L597.342 623.399L597.189 622.411C426.858 648.802 327.147 666.326 170.649 738.443L171.067 739.351ZM597.342 623.399L597.495 624.388C675.993 612.219 777.757 607.019 859.925 604.862C901.003 603.784 937.172 603.467 963.072 603.42C976.021 603.396 986.403 603.439 993.547 603.489C997.119 603.514 999.882 603.54 1001.75 603.56C1002.69 603.57 1003.4 603.578 1003.87 603.584C1004.11 603.587 1004.29 603.59 1004.41 603.591C1004.47 603.592 1004.52 603.593 1004.55 603.593C1004.56 603.594 1004.58 603.594 1004.58 603.594C1004.59 603.594 1004.59 603.594 1004.59 603.594C1004.59 603.594 1004.6 603.594 1004.61 602.594C1004.62 601.594 1004.62 601.594 1004.62 601.594C1004.62 601.594 1004.62 601.594 1004.61 601.594C1004.6 601.594 1004.59 601.594 1004.58 601.593C1004.55 601.593 1004.5 601.592 1004.44 601.592C1004.32 601.59 1004.14 601.588 1003.9 601.585C1003.42 601.579 1002.71 601.57 1001.77 601.56C999.901 601.54 997.136 601.514 993.561 601.489C986.412 601.439 976.024 601.396 963.068 601.42C937.156 601.467 900.97 601.784 859.873 602.863C777.689 605.02 675.819 610.222 597.189 622.411L597.342 623.399ZM1004.61 602.594L1005.59 602.794C1008.13 590.349 1010.41 577.895 1012.19 565.181L1011.2 565.043L1010.21 564.904C1008.44 577.563 1006.16 589.974 1003.63 602.394L1004.61 602.594ZM1011.2 565.043C1011.19 564.043 1011.19 564.043 1011.19 564.043C1011.19 564.043 1011.18 564.043 1011.18 564.043C1011.17 564.043 1011.16 564.043 1011.14 564.043C1011.11 564.044 1011.06 564.044 1010.99 564.044C1010.86 564.046 1010.66 564.047 1010.4 564.049C1009.87 564.054 1009.09 564.061 1008.07 564.071C1006.02 564.091 1002.99 564.123 999.076 564.171C991.244 564.267 979.864 564.428 965.665 564.685C937.269 565.201 897.601 566.105 852.515 567.659C762.351 570.767 650.488 576.477 563.77 586.885L563.889 587.878L564.008 588.871C650.638 578.474 762.43 572.766 852.584 569.658C897.657 568.104 937.313 567.2 965.702 566.685C979.896 566.427 991.273 566.267 999.1 566.171C1003.01 566.123 1006.04 566.091 1008.09 566.071C1009.11 566.061 1009.89 566.054 1010.42 566.049C1010.68 566.047 1010.88 566.045 1011.01 566.044C1011.07 566.044 1011.12 566.044 1011.16 566.043C1011.17 566.043 1011.19 566.043 1011.19 566.043C1011.2 566.043 1011.2 566.043 1011.2 566.043C1011.2 566.043 1011.21 566.043 1011.2 565.043ZM0 535.865L-0.997233 535.939C1.54236 570.009 7.63717 603.058 16.5238 634.833L17.4869 634.563L18.4499 634.294C9.59629 602.637 3.5263 569.719 0.997233 535.79L0 535.865ZM17.4869 634.563L17.6945 635.541C211.288 594.444 330.361 574.154 532.805 556.144L532.717 555.148L532.628 554.152C330.086 572.17 210.932 592.475 17.2792 633.585L17.4869 634.563ZM532.717 555.148L532.805 556.144C626.157 547.901 746.317 544.349 843.156 542.859C891.572 542.114 934.152 541.884 964.628 541.84C979.866 541.818 992.077 541.843 1000.48 541.873C1004.68 541.888 1007.93 541.905 1010.13 541.917C1011.23 541.924 1012.06 541.929 1012.62 541.933C1012.9 541.935 1013.12 541.936 1013.26 541.938C1013.33 541.938 1013.38 541.938 1013.42 541.939C1013.44 541.939 1013.45 541.939 1013.46 541.939C1013.46 541.939 1013.47 541.939 1013.47 541.939C1013.47 541.939 1013.47 541.939 1013.48 540.939C1013.49 539.939 1013.49 539.939 1013.48 539.939C1013.48 539.939 1013.48 539.939 1013.47 539.939C1013.46 539.939 1013.45 539.939 1013.43 539.939C1013.4 539.938 1013.34 539.938 1013.27 539.938C1013.13 539.937 1012.92 539.935 1012.64 539.933C1012.07 539.929 1011.24 539.924 1010.14 539.918C1007.94 539.905 1004.69 539.888 1000.49 539.873C992.081 539.843 979.866 539.818 964.625 539.84C934.142 539.884 891.552 540.114 843.125 540.859C746.278 542.35 626.057 545.902 532.629 554.151L532.717 555.148ZM1013.48 540.939L1014.48 541.03C1015.24 532.638 1015.75 524.499 1016 516.104L1015 516.074L1014 516.044C1013.75 524.395 1013.24 532.495 1012.48 540.849L1013.48 540.939ZM1015 516.074L1015 515.074L568.193 516.85L568.197 517.85L568.201 518.85L1015 517.074L1015 516.074ZM568.197 517.85L568.166 516.851L-0.0316886 534.865L0 535.865L0.0316886 536.864L568.229 518.85L568.197 517.85Z" fill="#4064DF" fill-opacity="0.3" mask="url(#path-1-inside-1_1939_12511)"/>
</svg>
