<svg width="18" height="18" viewBox="0 0 18 18" fill="none" xmlns="http://www.w3.org/2000/svg">
<path d="M14.7009 3.57313L4.04597 0.0214925C4.00836 0.0107463 3.96537 0 3.92776 0H0.370746C0.166567 0 0 0.166567 0 0.370746V17.6239C0 17.8281 0.166567 17.9946 0.370746 17.9946H17.6239C17.8281 17.9946 17.9946 17.8281 17.9946 17.6239V5.95343C17.9946 5.74925 17.8281 5.58269 17.6239 5.58269C17.4197 5.58269 17.2531 5.74925 17.2531 5.95343V9.47283H13.7337C13.5296 9.47283 13.3576 9.6394 13.3576 9.84358V13.363H9.84895C9.63403 13.363 9.46746 13.5296 9.46746 13.7391V17.2531H4.29313V4.29851H10.6496V6.46388C10.6496 6.66806 10.8161 6.83463 11.0203 6.83463C11.3749 6.83463 11.6651 7.12478 11.6651 7.47403C11.6651 7.82328 11.3749 8.11343 11.0203 8.11343C10.6657 8.11343 10.3809 7.82328 10.3809 7.47403C10.3809 7.37194 10.3433 7.2806 10.2734 7.21075C10.2036 7.1409 10.1122 7.10328 10.0101 7.10328C9.91343 7.10328 9.81672 7.1409 9.74686 7.21075C9.67701 7.2806 9.6394 7.37194 9.63403 7.47403C9.63403 8.24239 10.2573 8.86567 11.0203 8.86567C11.7833 8.86567 12.4066 8.24239 12.4066 7.4794C12.4066 6.89373 12.0358 6.36716 11.4824 6.16836L11.391 6.13612V4.29851H14.5719C14.7761 4.29851 14.9427 4.13194 14.9481 3.92776C14.9481 3.76657 14.846 3.62687 14.6901 3.57313H14.7009ZM14.1098 10.2197H17.2531V13.363H14.1098V10.2197ZM14.1098 14.1098H17.2531V17.2531H14.1098V14.1098ZM10.2197 14.1098H13.363V17.2531H10.2197V14.1098ZM3.92776 3.55164C3.72358 3.55164 3.55701 3.71821 3.55701 3.92239V17.2531H0.746866V0.746866H3.88478L12.283 3.55164H3.92776Z" fill="#747DA2"/>
</svg>
