<svg width="35" height="18" viewBox="0 0 35 18" fill="none" xmlns="http://www.w3.org/2000/svg">
<path d="M34.0204 12.7963C34.0144 12.2649 33.5765 11.832 33.0444 11.832H21.0179V6.17236C21.0179 5.71613 20.6944 5.31843 20.2485 5.22599L20.1689 5.20936V2.61433C20.1689 2.31106 20.0299 2.02908 19.7865 1.8422L17.6012 0.193531C17.2569 -0.0645102 16.7762 -0.0645102 16.4319 0.193531L14.2326 1.84951C13.9899 2.03041 13.8508 2.31172 13.8508 2.62097V5.21601L13.7706 5.23264C13.318 5.32508 13.0018 5.71414 13.0018 6.17901V11.8386H0.969338C0.434531 11.8386 0 12.2709 0 12.8029V16.9329C0 17.465 0.434531 17.8972 0.969338 17.8972H33.0511C33.5859 17.8972 34.0204 17.465 34.0204 16.9329V12.7963ZM15.7835 3.10314L17.0069 2.1827L18.2235 3.10314V5.21402H15.7835V3.10247V3.10314ZM14.9345 7.14334H19.0792V11.8386H14.9345V7.14334ZM32.0817 15.9686H1.93868V13.7606H32.0817V15.9686Z" fill="#747DA1"/>
</svg>
