<svg width="66" height="60" viewBox="0 0 66 60" fill="none" xmlns="http://www.w3.org/2000/svg">
<path d="M5.36146 31.5473C5.89678 45.9067 17.1447 58.0407 31.5248 59.7723C41.5855 60.984 51.1632 57.32 57.8022 49.7207C64.4294 42.1341 66.7686 32.1658 64.2196 22.371C61.8658 13.3277 55.4511 6.02952 46.6203 2.34835C37.9748 -1.25596 28.4848 -0.689908 20.5835 3.89913L20.5075 3.94343C19.9035 4.29338 19.077 4.77263 18.9785 5.28262C18.9631 5.3631 18.9161 5.60724 19.2624 6.04942C19.7127 6.62361 20.116 6.5142 21.1821 5.86676C21.3684 5.75373 21.561 5.63618 21.7491 5.53942C26.8074 2.92345 32.3567 1.80038 37.7967 2.29138C42.9219 2.75435 47.8274 4.61348 51.9842 7.66801C56.0434 10.6511 59.1974 14.6442 61.1072 19.2152C63.1417 24.0864 63.7078 29.5534 62.7456 35.0241C61.779 40.5146 59.2788 45.4744 55.5135 49.3663C51.9906 53.0077 47.4739 55.6372 42.4526 56.9692C37.4015 58.3092 32.137 58.2604 27.2279 56.8272C21.9824 55.2954 17.3101 52.1993 13.7176 47.8725C9.91252 43.2898 7.65191 37.5089 7.3508 31.5952L7.32006 30.9866L7.92861 31.0264C10.0807 31.1666 11.9516 29.7117 12.3911 27.5577L12.3938 19.4123C12.212 18.8463 11.5872 18.6573 11.0329 18.7242L10.4261 18.7974V13.249C10.3665 13.1342 10.2091 12.9135 10.1458 12.8511C9.92699 12.6567 9.62588 12.5654 9.32205 12.6061C9.0345 12.6441 8.79216 12.7915 8.63844 13.0211C8.60046 13.088 8.48924 13.3231 8.4368 13.4443V18.7287H4.54945L4.09643 18.2757V13.249C4.03675 13.1342 3.87941 12.9126 3.81521 12.8511C3.51319 12.5808 3.15692 12.5039 2.81512 12.6386C2.41725 12.7951 2.14417 13.1884 2.10167 13.665C2.03656 14.3883 2.06821 15.194 2.09805 15.9735C2.12699 16.7186 2.15683 17.4899 2.10709 18.2232L2.07002 18.7748L1.51934 18.7269C1.05003 18.6862 0.244353 18.7658 0.124992 19.7532C-0.0676114 21.3438 -0.0404841 26.2195 0.226268 27.5957C0.640411 29.7297 2.59448 31.2055 4.77732 31.0273L5.34248 30.9812L5.36327 31.5473H5.36146ZM4.08558 29.0063C3.69494 28.9485 3.14697 28.7324 2.80065 28.3788C2.79432 28.3725 2.19661 27.6482 2.19661 27.272V20.7162H10.4252V27.1816C10.4252 28.2115 9.02546 28.9675 8.26228 29.0371C7.80021 29.0787 7.01533 29.1049 6.22592 29.1049C5.43652 29.1049 4.56302 29.076 4.08558 29.0054V29.0063Z" fill="white"/>
</svg>
