<svg width="19" height="22" viewBox="0 0 19 22" fill="none" xmlns="http://www.w3.org/2000/svg">
<path d="M0.753154 3.31434C2.87634 3.41318 5.05694 2.8667 6.94414 1.91916C7.53977 1.6201 8.65278 0.748742 9.24336 0.750001C9.92606 0.751261 10.4681 1.29775 11.0334 1.59743C12.6916 2.47698 14.5523 3.18086 16.4483 3.31812C16.6925 3.33574 17.6806 3.24823 17.7727 3.37982C17.7418 5.66902 17.9172 8.05959 17.8055 10.3393C17.603 14.4764 15.2684 18.0972 11.4511 19.7688C10.969 19.9797 9.66232 20.4909 9.18279 20.4664C8.82125 20.4481 7.90383 20.1125 7.52778 19.9684C3.78808 18.5404 1.14056 15.0909 0.75 11.0999L0.752522 3.31434H0.753154Z" stroke="white" stroke-width="1.5" stroke-linecap="round" stroke-linejoin="round"/>
</svg>
