<svg width="30" height="35" viewBox="0 0 30 35" fill="none" xmlns="http://www.w3.org/2000/svg">
<path d="M29.4065 17.3504V7.15501C29.4065 6.80014 29.1524 6.50282 28.8023 6.44527C23.743 5.73073 19.0337 3.56792 15.1876 0.187028C15.0533 0.0671382 14.8807 0 14.7033 0C14.5258 0 14.358 0.0671382 14.2237 0.182232C10.3729 3.56792 5.65879 5.73552 0.589857 6.45006C0.249371 6.50282 0 6.80494 0 7.15981V17.3552C0 27.0615 10.0611 32.8785 14.3868 34.9263C14.5882 35.0222 14.8184 35.027 15.0102 34.9263C19.3454 32.8642 29.4161 27.0183 29.4065 17.3504ZM14.382 33.3437C9.54322 30.9267 1.42908 25.6324 1.43868 17.3552V7.76885L2.02853 7.65855C6.48843 6.83371 10.7133 4.8915 14.2525 2.05251L14.7033 1.69284L15.1541 2.05251C18.6932 4.89629 22.9229 6.83371 27.378 7.65855L27.9679 7.76885V17.3552C27.9679 25.6084 19.8585 30.9171 15.0246 33.3437L14.7033 33.5068L14.382 33.3437Z" fill="white"/>
</svg>
