<svg width="15" height="45" viewBox="0 0 15 45" fill="none" xmlns="http://www.w3.org/2000/svg">
<path d="M2.90164 3.14453C3.39344 4.1428 4.22951 4.64193 5.16393 5.01628C5.2623 5.09115 5.38525 5.16602 5.43443 5.26585C5.77869 6.0395 6.12295 6.88803 6.46721 7.66168C6.59016 7.98612 6.68853 8.26064 6.81148 8.61004C6.41803 8.08595 6.04918 7.66168 5.68033 7.23742C5.04098 6.46377 4.27869 5.88976 3.2459 5.74002C2.18853 5.54037 1.13115 5.6402 0.098361 5.93968C0.098361 5.96463 0.049181 5.96463 9.53674e-07 6.01455C0.245902 6.41385 0.491804 6.81316 0.737706 7.18751C1.27869 7.88629 1.91803 8.48525 2.80328 8.78473C4.03279 9.18404 5.31148 9.28386 6.59016 9.05925C6.71311 9.0343 6.81148 9.00934 6.93443 8.98438C7.57377 10.8561 8.06557 12.678 8.38525 14.5996C8.16393 14.2502 7.94262 13.826 7.72131 13.4766C7.15574 12.5532 6.4918 11.8045 5.45902 11.4551C4.64754 11.1806 3.86066 11.0558 3.02459 11.0558C2.7541 11.0558 2.48361 11.0807 2.16394 11.0807C2.33607 11.4301 2.43443 11.7795 2.55738 12.079C2.95082 12.9525 3.44262 13.7012 4.2541 14.2003C5.21312 14.8492 6.29508 15.1487 7.42623 15.2735C7.77049 15.2984 8.16393 15.3483 8.53279 15.3733C8.85246 17.27 9.04918 19.2166 9.07377 21.1632C9.02459 21.0883 9 21.0135 8.97541 20.9136C8.85246 20.5643 8.70492 20.165 8.55738 19.7906C8.13934 18.6676 7.40164 17.7941 6.29508 17.27C5.53279 16.9455 4.72131 16.7209 3.90984 16.5962C3.7623 16.5962 3.63935 16.5712 3.46721 16.5213V16.7209C3.51639 16.8956 3.54098 17.1202 3.59016 17.3449C3.83607 18.4679 4.27869 19.541 5.23771 20.2897C6.27049 21.1133 7.42623 21.6374 8.68033 21.9119C8.82787 21.9369 8.95082 21.9369 9.09836 21.9868C9.12295 23.9833 8.97541 25.9549 8.63115 27.9015C8.48361 27.2526 8.38525 26.6537 8.23771 26.0298C8.04098 25.1563 7.62295 24.4076 6.95902 23.8086C6.12295 23.1098 5.16394 22.6357 4.13115 22.2613C4.03279 22.2613 3.90984 22.1864 3.73771 22.1615C3.7623 22.7355 3.78689 23.2097 3.83607 23.7088C3.93443 24.6072 4.18033 25.4308 4.77049 26.1046C5.72951 27.2277 6.90984 28.1012 8.33607 28.5753C8.38525 28.5753 8.43443 28.6003 8.48361 28.6502C8.13934 30.472 7.64754 32.244 7.0082 33.966C6.98361 33.6415 7.0082 33.342 7.0082 33.0426C7.0082 31.9944 6.81148 31.0211 6.19672 30.1975C5.68033 29.5237 5.04098 28.9746 4.35246 28.5504C3.98361 28.3008 3.59017 28.1012 3.19672 27.8765C3.14754 28.0512 3.12295 28.201 3.09836 28.3258C2.87705 29.6235 2.87705 30.8713 3.54098 32.0193C4.08197 32.9677 4.81967 33.7663 5.68033 34.4651C6 34.7147 6.31967 34.9143 6.66393 35.1389C6.02459 36.7861 5.31148 38.3833 4.45082 39.9306C4.45082 39.8308 4.45082 39.7809 4.45082 39.706C4.5 39.2568 4.54918 38.8075 4.59836 38.3833C4.67213 37.5847 4.52459 36.811 4.15574 36.1122C3.71312 35.2887 3.09836 34.5649 2.38525 33.966C2.11476 33.7414 1.86885 33.5417 1.57377 33.2921C1.20492 34.2155 0.959018 35.089 0.959018 36.0124C0.959018 36.5365 0.983607 37.0606 1.18033 37.5597C1.69672 38.9074 2.5082 40.1053 3.61476 41.1036C3.73771 41.1784 3.71312 41.2533 3.66394 41.3781C2.92623 42.601 2.13935 43.7739 1.30328 44.9219C1.30328 44.9219 1.45082 45.2464 2.48361 44.5725C2.70492 44.1982 2.97541 43.8488 3.19672 43.4495C3.68853 42.6758 4.15574 41.9022 4.59836 41.1285C4.69672 40.9289 4.79508 40.8789 5.01639 40.9289C6.36885 41.2283 7.7459 41.2283 9.07377 40.854C10.0574 40.6044 10.7951 39.9805 11.459 39.2568C11.7295 38.9323 11.9754 38.5081 12.2459 38.1836C12.2705 38.1088 12.2705 38.0838 12.3197 38.0339C12.2951 38.0089 12.2459 37.959 12.2213 37.959C11.1393 37.6096 10.0328 37.41 8.90164 37.5098C7.7459 37.5847 6.83607 38.1337 6.04918 38.9323C5.85246 39.132 5.70492 39.2817 5.48361 39.4564C5.48361 39.3816 5.53279 39.3316 5.55738 39.2568C6.27049 37.8342 6.90984 36.3119 7.42623 34.7895C7.47541 34.6398 7.54918 34.5899 7.69672 34.5899C9.04918 34.6897 10.3525 34.4401 11.6066 33.8911C12.5656 33.4419 13.2295 32.7181 13.7459 31.8447C13.9918 31.4453 14.1639 30.9712 14.4098 30.497C13.9672 30.497 13.5492 30.4221 13.1557 30.4221C12.3689 30.3972 11.582 30.4471 10.8443 30.6717C9.81148 30.9961 9.07377 31.62 8.45902 32.4686C8.31148 32.6433 8.18852 32.818 8.06557 33.0176C8.43443 31.3206 8.82787 29.6485 9.22131 27.9514C9.83607 27.8017 10.5 27.6769 11.1148 27.4523C12.0738 27.1279 12.959 26.6537 13.6721 25.88C14.2869 25.2062 14.9262 23.7337 15 22.8104H14.9754C13.623 22.8353 12.3443 23.0849 11.1885 23.8086C10.5 24.2329 10.0328 24.9317 9.66393 25.6804C9.56557 25.8301 9.4918 26.0048 9.39344 26.1795C9.54098 24.5074 9.61475 22.8353 9.4918 21.1632C10.3279 20.9137 11.0902 20.5892 11.8033 20.115C12.8115 19.4412 13.6967 18.6426 14.0656 17.4197C14.2623 16.7709 14.3852 16.097 14.4098 15.4232C14.4098 15.3483 14.4098 15.2984 14.4098 15.1487C13.7951 15.3733 13.2541 15.4981 12.7131 15.6977C11.9754 16.0222 11.2623 16.3965 10.7213 17.0204C10.2295 17.5445 9.95902 18.1934 9.7377 18.8672C9.63934 19.1916 9.56557 19.4911 9.41803 19.7906C9.41803 19.6908 9.41803 19.6658 9.39344 19.566C9.29508 17.9438 9.07377 16.3466 8.7541 14.7494C8.72951 14.5996 8.7541 14.4748 8.90164 14.4C10.1557 13.7761 11.1885 12.9026 11.9754 11.7047C12.5164 10.8811 12.6393 9.95769 12.6148 8.98438C12.6148 8.61003 12.541 8.2856 12.5164 7.83638C12.0246 8.08595 11.6066 8.2856 11.2131 8.51021C10.3525 9.00934 9.61475 9.6083 9.09836 10.5067C8.70492 11.1806 8.60656 11.9542 8.53279 12.7279C8.53279 12.9774 8.53279 13.227 8.45902 13.4267C8.45902 13.3518 8.43443 13.3019 8.38525 13.227C7.9918 11.6048 7.5 9.98265 6.88525 8.41038C6.81148 8.26064 6.81148 8.16082 6.98361 8.08595C8.04098 7.31229 8.87705 6.33898 9.44262 5.14106C9.90984 4.19271 9.90984 3.2194 9.71311 2.22114C9.63934 1.87175 9.54098 1.52235 9.44262 1.148C8.7541 1.54731 8.13934 2.04644 7.59836 2.6454C6.7623 3.54384 6.31967 4.56706 6.41803 5.86481C6.41803 6.33898 6.4918 6.81316 6.51639 7.3622C6.46721 7.28733 6.44262 7.26238 6.44262 7.21246C6.09836 6.51368 5.77869 5.78994 5.43443 5.06619C5.40984 4.96637 5.38525 4.86654 5.40984 4.79167C5.43443 4.1428 5.40984 3.49393 5.2623 2.87001C5.11475 2.39584 4.94262 1.8967 4.57377 1.54731C4.15574 1.09809 3.63935 0.748699 3.12295 0.449219C2.85246 0.249566 2.55738 0.124783 2.2623 0C2.21312 0 2.18853 0.0249566 2.13934 0.0249566C2.13934 0.249566 2.21312 0.474176 2.21312 0.723742C2.2623 1.59722 2.45902 2.44575 2.85246 3.19445L2.90164 3.14453Z" fill="white" fill-opacity="0.3"/>
</svg>
