<svg width="63" height="60" viewBox="0 0 63 60" fill="none" xmlns="http://www.w3.org/2000/svg">
<path d="M10.1197 39.2H10.9134C12.0047 39.2 12.6992 38.7 12.6992 37.9C12.6992 37.1 12.2031 36.7 11.211 36.7C10.6157 36.7 10.4173 36.7 10.2189 36.8L10.1197 39.2ZM7.24252 34.9C8.03622 34.8 9.32598 34.7 10.8142 34.7C12.5008 34.7 13.6913 34.9 14.485 35.5C15.1795 36 15.5764 36.7 15.5764 37.7C15.5764 39 14.5843 39.9 13.6913 40.2V40.3C14.3858 40.6 14.7827 41.2 15.0803 42.1C15.378 43.1 15.7748 44.6 15.9732 45H12.9969C12.7984 44.7 12.6 43.9 12.2031 42.7C11.9055 41.5 11.5087 41.2 10.6157 41.2H10.1197V45H7.24252V34.9Z" fill="#6E6E6E"/>
<path d="M24.1087 40.8H20.2394V42.7H24.6047V45H17.263V34.7H24.3071V37H20.2394V38.6H24.1087V40.8Z" fill="#6E6E6E"/>
<path d="M31.4504 40.5L30.9543 38.7C30.7559 38.1 30.5575 37.3 30.4583 36.7C30.2598 37.3 30.1606 38.2 29.9622 38.7L29.4661 40.5H31.4504ZM29.0693 42.6L28.474 45H25.4976L28.6724 34.8H32.5417L35.7165 45H32.5417L31.8472 42.6H29.0693Z" fill="#6E6E6E"/>
<path d="M44.8441 44.7C44.4472 44.9 43.4551 45.1 42.0661 45.1C37.9984 45.1 36.2126 42.7 36.2126 40C36.2126 36.4 38.9906 34.5 42.2646 34.5C43.5543 34.5 44.5465 34.7 45.0425 35L44.4472 37.2C43.9512 37 43.2567 36.8 42.463 36.8C40.7764 36.8 39.2882 37.7 39.2882 39.8C39.2882 41.7 40.4787 42.8 42.463 42.8C43.1575 42.8 43.9512 42.7 44.4472 42.5L44.8441 44.7Z" fill="#6E6E6E"/>
<path d="M49.3087 34.7V38.5H52.8803V34.7H55.7575V45H52.8803V40.9H49.3087V45H46.4315V34.7H49.3087Z" fill="#6E6E6E"/>
<path d="M19.3465 15.6C20.6362 16.8 22.0252 18.1 23.315 19.4C24.6047 20.7 25.7953 22.1 26.9858 23.5C26.9858 23.5 27.085 23.4 27.085 23.3C28.5732 20.5 30.3591 18.1 32.3433 15.7C35.022 12.4 37.8 9.4 40.8756 6.5C41.7685 5.6 42.6614 4.8 43.6535 3.9C43.7528 3.8 43.852 3.7 43.9512 3.6C44.9433 5.8 46.1339 7.9 47.622 9.8C47.622 9.9 47.5228 9.9 47.4236 10C46.1339 11.1 44.7449 12 43.5543 13.2C41.2724 15.6 38.9906 18 36.8079 20.5C34.9228 22.8 33.0378 25.2 31.252 27.5C29.9622 29.2 28.7717 31 27.5811 32.8C27.4819 33 27.3827 33.1 27.2835 33.3C23.811 28.7 19.7433 24.6 15.2787 21C16.5685 19.2 17.9575 17.4 19.3465 15.6Z" fill="#6E6E6E"/>
<path d="M12.1039 55.1C11.9055 55.2 11.4094 55.3 10.9134 55.3C8.6315 55.3 7.73858 53.5 7.73858 51.4C7.73858 48.5 9.4252 47.2 11.1118 47.2C11.7071 47.2 12.1039 47.3 12.2031 47.4L11.9055 48.9C11.7071 48.8 11.5087 48.7 11.211 48.7C10.3181 48.7 9.62362 49.4 9.62362 51.2C9.62362 52.9 10.3181 53.6 11.211 53.6C11.4094 53.6 11.7071 53.6 11.9055 53.5L12.1039 55.1Z" fill="#6E6E6E"/>
<path d="M14.2866 51.2C14.2866 53.1 14.5843 53.7 15.0803 53.7C15.5764 53.7 15.7748 52.8 15.7748 51.1C15.7748 49.7 15.5764 48.7 14.9811 48.7C14.5843 48.8 14.2866 49.5 14.2866 51.2ZM17.6598 51.1C17.6598 54.1 16.5685 55.3 14.9811 55.3C12.9969 55.3 12.3024 53.2 12.3024 51.2C12.3024 49.2 13.0961 47.2 15.0803 47.2C17.263 47.2 17.6598 49.6 17.6598 51.1Z" fill="#6E6E6E"/>
<path d="M23.5134 52.7C23.5134 52.1 23.4142 51.1 23.4142 50.3C23.315 51.1 23.1165 52.1 22.9181 52.6L22.3228 55.1H21.0331L20.537 52.6C20.4378 52.1 20.2394 51.1 20.1402 50.3C20.1402 51.1 20.0409 52.1 20.0409 52.7L19.8425 55.2H18.2551L18.8504 47.2H20.8346L21.3307 49.7C21.5291 50.7 21.7276 51.6 21.8268 52.5C21.926 51.6 22.1244 50.7 22.3228 49.7L22.8189 47.2H24.8032L25.2992 55.2H23.7118L23.5134 52.7Z" fill="#6E6E6E"/>
<path d="M28.1764 50.9C28.2756 50.9 28.2756 50.9 28.3748 50.9C29.0693 50.9 29.3669 50.4 29.3669 49.8C29.3669 49.2 29.0693 48.7 28.474 48.7C28.3748 48.7 28.2756 48.7 28.1764 48.8V50.9ZM26.2913 47.4C26.7874 47.3 27.3827 47.2 28.0772 47.2C29.0693 47.2 29.863 47.3 30.4583 47.8C30.9543 48.2 31.1528 48.9 31.1528 49.6C31.1528 50.5 30.8551 51.2 30.3591 51.6C29.863 52.1 28.9701 52.3 28.3748 52.3H28.0772V55.1H26.2913V47.4Z" fill="#6E6E6E"/>
<path d="M32.0457 47.3H33.8315V53.7H35.8157V55.2H32.0457V47.3Z" fill="#6E6E6E"/>
<path d="M38.4945 47.3H36.7087V55.3H38.4945V47.3Z" fill="#6E6E6E"/>
<path d="M42.3638 52.2L42.1654 50.7C42.0661 50.2 41.9669 49.4 41.9669 48.9C41.8677 49.4 41.7685 50.3 41.6693 50.7L41.4709 52.2H42.3638ZM41.2724 53.7L40.9748 55.3H39.189L40.8756 47.3H43.0583L44.5465 55.3H42.7606L42.463 53.7H41.2724Z" fill="#6E6E6E"/>
<path d="M45.3402 55.2V47.2H47.0268L48.1181 50C48.3165 50.5 48.7134 51.5 48.9118 52.1C48.8126 51.4 48.7134 49.9 48.7134 48.4V47.1H50.3008V55.1H48.6142L47.622 52.5C47.4236 51.9 47.0268 50.8 46.8283 50.3C46.8283 51 46.9276 52.3 46.9276 53.9V55.3C46.9276 55.2 45.3402 55.2 45.3402 55.2Z" fill="#6E6E6E"/>
<path d="M52.5827 49H51.1937V47.3H55.7575V49H54.3685V55.2H52.5827V49Z" fill="#6E6E6E"/>
<path d="M10.2189 2.2C5.75433 2.2 2.18268 5.8 2.18268 10.3V49.7C2.18268 54.2 5.75433 57.8 10.2189 57.8H52.7811C57.2457 57.8 60.8173 54.2 60.8173 49.7V10.3C60.8173 5.8 57.2457 2.2 52.7811 2.2H10.2189ZM52.7811 60H10.2189C4.56378 60 0 55.4 0 49.7V10.3C0 4.6 4.56378 0 10.2189 0H52.7811C58.4362 0 63 4.6 63 10.3V49.7C62.9008 55.4 58.337 60 52.7811 60Z" fill="#6E6E6E"/>
</svg>
