<svg width="60" height="60" viewBox="0 0 60 60" fill="none" xmlns="http://www.w3.org/2000/svg">
<path d="M41.9017 2.46221C38.798 1.12363 35.342 0.295869 31.628 0H28.301C13.9467 0.756111 1.8708 12.0961 0.208535 26.3829C-1.02552 36.987 3.27007 47.2084 11.6994 53.7252C20.0773 60.2014 30.9848 61.7743 40.8767 57.9314C48.9166 54.8083 55.2343 48.2452 58.2099 39.9255C61.1155 31.803 60.4175 22.9497 56.2956 15.6372C55.5892 14.3846 55.2158 14.1562 54.4808 14.5296C54.1444 14.6999 54.0593 14.8744 54.0239 14.9907C53.8578 15.5403 54.4015 16.4987 54.7977 17.1984C54.9486 17.4647 55.0919 17.7168 55.2015 17.9486C61.0312 30.2545 57.2068 44.9131 46.1087 52.8038C42.0062 55.7204 37.1551 57.4686 32.0798 57.8589C26.9893 58.25 21.9267 57.2545 17.4381 54.9786L17.1119 54.8134L17.068 53.994L31.2065 39.8395L31.2605 39.8041C31.3338 39.7561 31.5934 39.558 31.8446 39.3658C32.1742 39.1138 32.5847 38.801 32.9219 38.5583C33.4648 38.168 33.7927 37.932 34.188 38.1115C35.202 38.5709 34.8269 39.7392 34.6255 40.3664C34.5656 40.5526 34.4839 40.8072 34.4822 40.9008C34.4855 41.0087 34.5783 41.3189 34.6474 41.4613L39.4285 46.2542C39.8348 46.5274 40.2816 46.5181 40.6651 46.2256L50.0554 36.826C50.3479 36.4922 50.551 36.0438 49.9011 35.2565C49.0953 34.2795 46.5606 31.6816 45.5794 30.9424C45.3139 30.7426 44.9986 30.6001 44.8132 30.5959H44.8123C44.685 30.5959 44.2813 30.719 44.0402 30.7923C43.4577 30.9693 43.1408 31.0587 42.8483 30.9896C42.5322 30.9146 41.7651 30.2419 41.814 29.7134L41.8275 29.5675L41.9034 29.4428C42.4985 28.4641 42.5878 28.0907 42.0467 27.4071C40.333 25.8005 38.6623 24.059 37.0464 22.3748C35.2619 20.5145 33.4167 18.59 31.5218 16.8603C27.893 13.5468 23.589 12.4105 19.0751 13.5754C15.5533 14.485 13.2723 16.8401 10.8573 19.3335C10.5134 19.6884 10.1585 20.0551 9.79942 20.4184C9.52378 20.8879 9.56087 21.3346 9.91322 21.7797C10.4055 22.4026 12.1824 24.1821 12.7514 24.6212C13.0852 24.8792 13.4122 24.9483 13.8135 24.8463C13.9433 24.8134 14.2198 24.5791 14.4221 24.4088C14.6926 24.1804 14.9717 23.9435 15.2861 23.7901C16.9677 22.9657 18.8011 23.2279 20.315 24.5083C20.8157 24.9314 23.5831 27.5816 23.9421 28.4641C24.3687 29.5128 24.2338 30.5605 23.5611 31.4136L23.5375 31.4431L23.5106 31.47L7.81853 47.1309L7.38695 46.513C4.37599 42.2014 2.56116 37.3874 2.13801 32.5928C1.68957 27.5091 2.59909 22.4422 4.7688 17.9393C6.82218 13.6783 9.96632 9.96009 13.8615 7.186C17.7162 4.44057 22.1964 2.70328 26.8157 2.16212C31.714 1.58809 36.7471 2.3796 41.3706 4.45068C41.6749 4.58724 42.1318 4.84349 42.6148 5.11576C43.156 5.42006 44.0613 5.92919 44.3023 5.97892C44.7676 6.07502 45.2338 5.9098 45.4892 5.5583C45.6198 5.37875 45.7977 5.00365 45.517 4.50716C45.3821 4.26945 44.4692 3.57066 41.8983 2.46136L41.9017 2.46221ZM21.5137 22.8629C19.3878 21.0472 16.3321 20.7909 13.9112 22.2264L13.494 22.4734L12.0711 21.0817L14.7129 18.3363C16.6415 16.5147 19.0447 15.4004 21.4791 15.1998C24.1579 14.9789 26.8267 15.7502 28.993 17.3712L29.0284 17.3973L29.0596 17.4285L39.7303 28.0022L39.7665 28.0587C40.1264 28.61 39.7733 29.1452 39.6047 29.4023C39.5617 29.4672 39.5077 29.549 39.4917 29.5895C39.3223 29.9983 39.3054 30.2023 39.4184 30.5209C39.6173 30.8994 41.2391 32.576 41.6859 32.93C42.2532 33.3801 42.5625 33.295 43.2394 33.1104C43.5235 33.0328 43.8463 32.9443 44.2239 32.8938L44.5316 32.8525L47.8738 36.161L40.032 44.0104L36.7868 40.7625V40.4995C36.7901 40.0562 36.9014 39.6701 36.9992 39.3295C37.1492 38.8086 37.2217 38.5153 37.059 38.1478C36.8112 37.7845 34.9871 35.9249 34.6895 35.7049C34.0177 35.2135 33.4622 35.5549 32.3546 36.4509C31.9399 36.7864 31.51 37.1337 31.0582 37.3554L30.6536 37.5535L25.4493 32.3728L25.6525 31.9648C26.3824 30.4973 26.4035 28.835 25.7098 27.4054C25.2276 26.4099 22.6828 23.8651 21.5137 22.8654V22.8629ZM24.0441 33.8825L29.1725 39.016L14.7601 53.447L14.326 53.1469C12.5895 51.9457 11.0124 50.6029 9.63842 49.1573L9.21358 48.7105L24.0441 33.8825Z" fill="white"/>
<path d="M50.4768 8.39308C49.848 8.39308 49.3363 8.90558 49.3363 9.53525C49.3363 10.1649 49.848 10.6774 50.4768 10.6774C51.1056 10.6774 51.6173 10.1649 51.6173 9.53525C51.6173 8.90558 51.1056 8.39308 50.4768 8.39308Z" fill="white"/>
</svg>
