<svg width="44" height="40" viewBox="0 0 44 40" fill="none" xmlns="http://www.w3.org/2000/svg">
<path d="M3.57431 21.0315C3.93118 30.6044 11.4298 38.6938 21.0166 39.8482C27.7236 40.656 34.1088 38.2133 38.5348 33.1472C42.9529 28.0894 44.5124 21.4438 42.813 14.914C41.2439 8.88511 36.9674 4.01968 31.0802 1.56557C25.3165 -0.837309 18.9898 -0.459938 13.7223 2.59942L13.6717 2.62896C13.269 2.86225 12.718 3.18175 12.6523 3.52175C12.6421 3.5754 12.6107 3.73816 12.8416 4.03294C13.1418 4.41574 13.4107 4.3428 14.1214 3.91117C14.2456 3.83582 14.374 3.75745 14.4994 3.69295C17.8716 1.94897 21.5712 1.20025 25.1978 1.52759C28.6146 1.83624 31.885 3.07565 34.6562 5.11201C37.3623 7.10074 39.4649 9.76283 40.7381 12.8101C42.0945 16.0576 42.4718 19.7023 41.8304 23.3494C41.186 27.0098 39.5192 30.3163 37.009 32.9109C34.6604 35.3384 31.6493 37.0915 28.3017 37.9794C24.9343 38.8728 21.4247 38.8403 18.1519 37.8848C14.6549 36.8636 11.5401 34.7995 9.14505 31.915C6.60835 28.8598 5.10128 25.006 4.90053 21.0635L4.88004 20.6578L5.28574 20.6843C6.72047 20.7777 7.96773 19.8078 8.2607 18.3718L8.26251 12.9415C8.14134 12.5642 7.72479 12.4382 7.35525 12.4828L6.95075 12.5316V8.83267C6.91097 8.75611 6.80608 8.60902 6.76388 8.56742C6.61799 8.43781 6.41725 8.37693 6.2147 8.40406C6.023 8.42938 5.86144 8.52764 5.75896 8.68075C5.73364 8.72536 5.65949 8.8821 5.62453 8.96288V12.4858H3.03297L2.73095 12.1838V8.83267C2.69117 8.75611 2.58627 8.60841 2.54347 8.56742C2.34213 8.38718 2.10461 8.33594 1.87674 8.42576C1.6115 8.53005 1.42945 8.79228 1.40111 9.10997C1.35771 9.59223 1.37881 10.1294 1.3987 10.649C1.41799 11.1457 1.43788 11.6599 1.40473 12.1488L1.38001 12.5166L1.01289 12.4846C0.700022 12.4575 0.162902 12.5105 0.0833283 13.1688C-0.0450743 14.2292 -0.0269894 17.4796 0.150845 18.3971C0.426941 19.8198 1.72965 20.8036 3.18488 20.6849L3.56165 20.6541L3.57552 21.0315H3.57431ZM2.72372 19.3376C2.4633 19.299 2.09798 19.1549 1.8671 18.9192C1.86288 18.915 1.46441 18.4321 1.46441 18.1813V13.8108H6.95015V18.1211C6.95015 18.8077 6.01697 19.3116 5.50818 19.3581C5.20014 19.3858 4.67688 19.4033 4.15061 19.4033C3.62434 19.4033 3.04201 19.384 2.72372 19.337V19.3376Z" fill="white"/>
</svg>
