<svg width="40" height="12" viewBox="0 0 40 12" fill="none" xmlns="http://www.w3.org/2000/svg">
<path fill-rule="evenodd" clip-rule="evenodd" d="M5.47816 3.32934C4.21099 4.3757 2.78022 5.55715 0 5.55715V4.12858C2.20491 4.12858 3.27194 3.2552 4.50101 2.24034L4.51315 2.23031C5.78161 1.18291 7.21416 0 10 0C12.7851 0 14.2158 1.18229 15.4829 2.22939L15.4964 2.24052C16.724 3.25498 17.7912 4.12858 20 4.12858C22.2088 4.12858 23.276 3.25498 24.5036 2.24052L24.5171 2.22939C25.7842 1.18229 27.2149 0 30 0C32.7851 0 34.2158 1.18229 35.4829 2.22939L35.4964 2.24052C36.724 3.25498 37.7912 4.12858 40 4.12858V5.55715C37.2149 5.55715 35.7842 4.37486 34.5171 3.32777L34.5036 3.31664C33.276 2.30218 32.2088 1.42857 30 1.42857C27.7912 1.42857 26.724 2.30218 25.4964 3.31664L25.4829 3.32777C24.2158 4.37486 22.7851 5.55715 20 5.55715C17.2149 5.55715 15.7842 4.37486 14.5171 3.32776L14.5036 3.31664C13.276 2.30218 12.2088 1.42857 10 1.42857C7.79096 1.42857 6.72187 2.30239 5.49333 3.31681L5.47816 3.32934ZM5.47816 9.61507C4.21099 10.6614 2.78022 11.8429 0 11.8429V10.4143C2.20491 10.4143 3.27194 9.54092 4.50101 8.52607L4.51315 8.51604C5.78161 7.46863 7.21416 6.28573 10 6.28573C12.7851 6.28573 14.2158 7.46802 15.4829 8.51512L15.4964 8.52624C16.724 9.5407 17.7912 10.4143 20 10.4143C22.2088 10.4143 23.276 9.5407 24.5036 8.52624L24.5171 8.51511C25.7842 7.46802 27.2149 6.28573 30 6.28573C32.7851 6.28573 34.2158 7.46802 35.4829 8.51511L35.4964 8.52624C36.724 9.5407 37.7912 10.4143 40 10.4143V11.8429C37.2149 11.8429 35.7842 10.6606 34.5171 9.61349L34.5036 9.60236C33.276 8.5879 32.2088 7.7143 30 7.7143C27.7912 7.7143 26.724 8.5879 25.4964 9.60236L25.4829 9.61349C24.2158 10.6606 22.7851 11.8429 20 11.8429C17.2149 11.8429 15.7842 10.6606 14.5171 9.61349L14.5036 9.60236C13.276 8.5879 12.2088 7.7143 10 7.7143C7.79096 7.7143 6.72187 8.58812 5.49333 9.60254L5.47816 9.61507Z" fill="#4064DF"/>
</svg>
