<svg width="40" height="30" viewBox="0 0 40 30" fill="none" xmlns="http://www.w3.org/2000/svg">
<path fill-rule="evenodd" clip-rule="evenodd" d="M5.47919 3.82263C4.21179 5.02403 2.78074 6.38054 0 6.38054V4.7403C2.20532 4.7403 3.27256 3.73751 4.50185 2.57228L4.514 2.56077C5.7827 1.35817 7.21552 0 10.0019 0C12.7875 0 14.2185 1.35747 15.4858 2.55971L15.4993 2.57249C16.7272 3.73725 17.7945 4.7403 20.0038 4.7403C22.213 4.7403 23.2804 3.73725 24.5082 2.57249L24.5217 2.55971C25.7891 1.35747 27.2201 0 30.0057 0C32.7913 0 34.2222 1.35747 35.4896 2.55971L35.5031 2.57249C36.731 3.73725 37.7983 4.7403 40.0075 4.7403V6.38054C37.2219 6.38054 35.791 5.02307 34.5236 3.82083L34.5101 3.80805C33.2822 2.64328 32.2149 1.64024 30.0057 1.64024C27.7964 1.64024 26.7291 2.64328 25.5012 3.80805L25.4877 3.82083C24.2204 5.02307 22.7894 6.38054 20.0038 6.38054C17.2182 6.38054 15.7872 5.02307 14.5198 3.82082L14.5064 3.80805C13.2785 2.64328 12.2111 1.64024 10.0019 1.64024C7.79243 1.64024 6.72313 2.64353 5.49437 3.80825L5.47919 3.82263Z" fill="#4064DF"/>
<path fill-rule="evenodd" clip-rule="evenodd" d="M5.47919 27.4421C4.21179 28.6435 2.78074 30 0 30V28.3598C2.20532 28.3598 3.27256 27.357 4.50185 26.1917L4.514 26.1802C5.7827 24.9776 7.21552 23.6195 10.0019 23.6195C12.7875 23.6195 14.2185 24.9769 15.4858 26.1792L15.4993 26.1919C16.7272 27.3567 17.7945 28.3598 20.0038 28.3598C22.213 28.3598 23.2804 27.3567 24.5082 26.1919L24.5217 26.1792C25.7891 24.9769 27.2201 23.6195 30.0057 23.6195C32.7913 23.6195 34.2222 24.9769 35.4896 26.1792L35.5031 26.1919C36.731 27.3567 37.7983 28.3598 40.0075 28.3598V30C37.2219 30 35.791 28.6425 34.5236 27.4403L34.5101 27.4275C33.2822 26.2627 32.2149 25.2597 30.0057 25.2597C27.7964 25.2597 26.7291 26.2627 25.5012 27.4275L25.4877 27.4403C24.2204 28.6425 22.7894 30 20.0038 30C17.2182 30 15.7872 28.6425 14.5198 27.4403L14.5064 27.4275C13.2785 26.2627 12.2111 25.2597 10.0019 25.2597C7.79243 25.2597 6.72313 26.263 5.49437 27.4277L5.47919 27.4421Z" fill="#4064DF"/>
</svg>
