<svg width="61" height="89" viewBox="0 0 61 89" fill="none" xmlns="http://www.w3.org/2000/svg">
<path d="M1 87.49V75.1175L37.2928 42.7721C40.1208 40.2583 42.0847 37.882 43.1845 35.6431C44.2843 33.4043 44.8342 31.244 44.8342 29.1623C44.8342 26.3343 44.2254 23.8205 43.0077 21.6209C41.7901 19.3821 40.1012 17.6146 37.9409 16.3184C35.8199 15.0222 33.365 14.3741 30.5763 14.3741C27.6304 14.3741 25.0185 15.0615 22.7403 16.4362C20.5015 17.7717 18.7536 19.5588 17.4967 21.7977C16.2398 24.0365 15.6507 26.4521 15.7292 29.0444H1.11783C1.11783 23.3884 2.37473 18.459 4.88851 14.2563C7.44158 10.0536 10.9373 6.79349 15.3757 4.4761C19.8534 2.1587 25.0185 1 30.8709 1C36.2912 1 41.1617 2.21761 45.4823 4.65284C49.8028 7.0488 53.2004 10.3874 55.6749 14.6687C58.1494 18.9107 59.3866 23.8008 59.3866 29.339C59.3866 33.3847 58.8368 36.7822 57.737 39.5316C56.6372 42.2811 54.9875 44.8145 52.7879 47.1319C50.6277 49.4493 47.9371 52.022 44.7163 54.85L18.9697 77.6509L17.6735 74.1159H59.3866V87.49H1Z" fill="#4064DF" fill-opacity="0.2"/>
<path d="M30.8711 0.5C36.369 0.500034 41.3254 1.73565 45.7275 4.2168H45.7266C50.125 6.65634 53.5871 10.0588 56.1064 14.417L56.3398 14.8242C58.7087 19.0563 59.8867 23.8992 59.8867 29.3389C59.8867 33.4263 59.3315 36.8919 58.2012 39.7178C57.0761 42.5304 55.39 45.117 53.1504 47.4766L53.1494 47.4756C50.9755 49.8073 48.2739 52.3901 45.0469 55.2236L24.2793 73.6162H59.8867V87.9902H0.5V74.8936L0.666992 74.7441L36.96 42.3984H36.9609C39.7629 39.9078 41.675 37.5814 42.7354 35.4229C43.808 33.2392 44.334 31.1537 44.334 29.1621C44.334 26.4082 43.7419 23.9798 42.5703 21.8633L42.5684 21.8594C41.3929 19.6982 39.7663 17.9967 37.6836 16.7471L37.6797 16.7451C35.6465 15.5027 33.2843 14.874 30.5762 14.874C27.7115 14.874 25.1909 15.5416 22.999 16.8643L22.9961 16.8652C20.8312 18.1566 19.146 19.8807 17.9326 22.042C16.7207 24.2008 16.1527 26.5268 16.2285 29.0293L16.2441 29.5449H0.618164V29.0449C0.618164 23.3129 1.89218 18.2916 4.45898 14L4.46094 13.9971C7.06224 9.71492 10.6268 6.39199 15.1445 4.0332L15.1455 4.03223C19.7048 1.67257 24.9516 0.5 30.8711 0.5Z" stroke="#4064DF" stroke-opacity="0.6"/>
</svg>
