<svg width="55" height="55" viewBox="0 0 55 55" fill="none" xmlns="http://www.w3.org/2000/svg">
<path d="M27.4964 35.6147C27.918 35.6147 28.2593 35.2734 28.2593 34.8518V33.8948L28.4534 33.8546C30.1064 33.4932 31.311 31.9941 31.311 30.301C31.311 28.6078 30.2336 27.0685 28.6207 26.4997L26.874 25.8773C25.8768 25.5293 25.2009 24.579 25.2009 23.5149C25.2009 22.3504 26.1445 21.4068 27.309 21.4068H27.6704C28.8348 21.4068 29.7785 22.3504 29.7785 23.5149C29.7785 23.9365 30.1198 24.2778 30.5414 24.2778C30.963 24.2778 31.3043 23.9365 31.3043 23.5149C31.3043 21.8217 30.1064 20.3293 28.4467 19.9612L28.2526 19.9211V18.964C28.2526 18.5424 27.9113 18.2011 27.4897 18.2011C27.068 18.2011 26.7267 18.5424 26.7267 18.964V19.9211L26.5327 19.9612C24.8796 20.3293 23.6817 21.8217 23.6817 23.5149C23.6817 25.2081 24.7592 26.7473 26.372 27.3162L28.1188 27.9385C29.1159 28.2932 29.7852 29.2436 29.7919 30.301C29.7919 31.4654 28.8415 32.4091 27.6837 32.4091H27.3224C26.1579 32.4091 25.2143 31.4654 25.2143 30.301C25.2143 29.8793 24.8729 29.538 24.4513 29.538C24.0297 29.538 23.6884 29.8793 23.6884 30.301C23.6884 31.9941 24.8863 33.4865 26.5393 33.8546L26.7334 33.8948V34.8518C26.7334 35.2734 27.0747 35.6147 27.4964 35.6147Z" fill="#747DA1"/>
<path d="M27.4964 12.3252C19.1309 12.3252 12.3247 19.1314 12.3247 27.4969C12.3247 35.8623 19.1309 42.6752 27.4964 42.6752C35.8619 42.6752 42.6747 35.869 42.6747 27.4969C42.6747 19.1247 35.8685 12.3252 27.4964 12.3252ZM27.4964 41.1426C19.9741 41.1426 13.8506 35.0191 13.8506 27.4969C13.8506 19.9746 19.9741 13.8511 27.4964 13.8511C35.0186 13.8511 41.1422 19.9746 41.1422 27.4969C41.1422 35.0191 35.0186 41.1426 27.4964 41.1426Z" fill="#747DA1"/>
</svg>
