<svg width="221" height="221" viewBox="0 0 221 221" fill="none" xmlns="http://www.w3.org/2000/svg">
<path d="M33.3809 188.211C81.0273 155.423 140.968 138.517 215.619 140.596C202.518 186.336 160.354 219.84 110.355 219.84C80.3449 219.84 53.1654 207.755 33.3809 188.211ZM10.4932 155.279C71.5964 134.906 140.363 124.212 218.763 125.691C218.466 127.835 218.106 129.964 217.686 132.069C132.965 128.942 71.0817 145.112 17.4004 168.21C14.8234 164.076 12.5109 159.762 10.4932 155.279ZM219.729 115.677C219.686 116.551 219.635 117.421 219.572 118.293C131.284 117.475 62.0063 124.91 4.24121 137.352C2.62777 131.002 1.57431 124.443 1.12793 117.704L219.729 115.677ZM4.50684 82.3945C68.6353 96.8568 139.775 104.585 219.664 103.967C219.733 105.169 219.779 106.375 219.812 107.593L1.05371 104.197C1.472 96.7065 2.64954 89.4171 4.50684 82.3945ZM18.2705 51.2021C63.0131 76.7222 129.562 89.6827 217.951 90.3359C218.281 92.0773 218.563 93.6845 218.804 95.3994C142.854 96.3988 73.533 86.4218 9.7002 67.29C12.1085 61.6752 14.9914 56.3027 18.2705 51.2021ZM110.355 1C160.982 1 203.587 35.3444 216.099 81.9736C142.594 83.1167 80.919 67.3346 30.0195 36.085C50.0269 14.5122 78.6203 1.00012 110.355 1Z" fill="url(#paint0_linear_1390_7642)" fill-opacity="0.1" stroke="url(#paint1_linear_1390_7642)" stroke-width="2"/>
<defs>
<linearGradient id="paint0_linear_1390_7642" x1="-169.038" y1="195.624" x2="-9.66913" y2="146.763" gradientUnits="userSpaceOnUse">
<stop stop-color="#999999" stop-opacity="0.2"/>
<stop offset="0.447115" stop-color="#999999" stop-opacity="0.4"/>
<stop offset="1" stop-color="#999999" stop-opacity="0.2"/>
</linearGradient>
<linearGradient id="paint1_linear_1390_7642" x1="-169.038" y1="195.624" x2="-9.66913" y2="146.763" gradientUnits="userSpaceOnUse">
<stop stop-color="#999999" stop-opacity="0.2"/>
<stop offset="0.447115" stop-color="#999999" stop-opacity="0.4"/>
<stop offset="1" stop-color="#999999" stop-opacity="0.2"/>
</linearGradient>
</defs>
</svg>
