<svg width="132" height="132" viewBox="0 0 132 132" fill="none" xmlns="http://www.w3.org/2000/svg">
<path d="M38.9622 110.198L34.239 107.177C8.21037 88.9607 2.33976 52.561 21.745 27.1744C44.0026 -1.94463 87.5842 -2.48626 110.513 26.1501C130.745 51.4188 125.31 88.559 98.9418 107.089L94.0415 110.198H121.937V111.26H123V127H10V111.26L11.0701 111.223L11.1513 110.198H38.9622ZM91.6542 110.198H93.2925C93.4844 110.198 96.1744 108.507 96.5729 108.253C128.587 88.0101 131.317 42.2626 102.148 18.1436C77.9129 -1.89672 41.9436 2.07153 22.5863 26.677C2.8047 51.8204 8.15133 88.5369 34.3313 106.82C34.9475 107.251 39.4751 110.195 39.8072 110.195H41.4455L36.6707 107.402C9.55353 89.9223 3.0925 52.8668 23.0291 27.296C44.5893 -0.356579 86.1009 -1.1856 108.746 25.6158C130.62 51.4998 124.026 90.7145 95.1928 108.198L91.6579 110.195L91.6542 110.198ZM90.2372 110.552C90.2557 110.42 90.4033 110.386 90.4993 110.327C91.3627 109.812 92.4069 109.388 93.3073 108.887C125.793 90.744 131.11 46.2862 103.787 20.9254C81.138 -0.0949774 45.3864 1.96838 25.1878 25.2142C2.67188 51.1277 9.27684 91.0867 38.8441 108.323L42.9436 110.552H40.5525L42.4123 111.613H11.5055V125.32H121.583V111.613H90.6764L92.4475 110.552H90.2335H90.2372ZM39.7149 110.552H11.5092V111.26H40.999L39.7149 110.552ZM121.587 110.552H93.2925L92.0969 111.26H121.587V110.552ZM11.0664 111.613H10.3579V126.646H122.649V111.613H121.941V125.674H11.1992L11.0664 125.541V111.613Z" fill="#747DA1"/>
<path d="M74.1015 38.4233C79.5368 37.9149 80.773 46.0135 75.5407 47.1999C69.3268 48.6074 67.8877 39.0055 74.1015 38.4233Z" fill="#747DA1"/>
<path d="M67.3713 27.1007C71.301 26.6254 73.932 30.9326 71.5889 34.1419C69.53 36.9606 65.1168 36.3673 63.8696 33.1139C62.8659 30.4942 64.5559 27.4434 67.3713 27.1007Z" fill="#747DA1"/>
<path d="M50.7409 103.124V107.767C50.7409 107.84 51.0176 108.393 51.0988 108.47C51.346 108.699 51.7482 108.717 52.0692 108.695V109.049H47.4642V108.695C48.4309 108.78 48.7299 108.305 48.7963 107.417C49.0656 103.71 48.5933 99.668 48.7852 95.9245C48.6856 95.206 48.1579 94.8744 47.4642 94.8965V94.5465H54.0618C58.8882 94.5465 60.0062 100.799 55.9362 102.608C55.5967 102.759 54.4751 103.124 54.1504 103.124H50.7409ZM50.7409 102.77H53.9732C54.1799 102.77 55.0138 102.387 55.213 102.24C56.6558 101.164 56.6336 97.4352 55.6521 96.0571C54.8514 94.937 52.8072 94.6386 51.5563 94.9628C51.2132 95.0513 50.7446 95.4787 50.7446 95.8324V102.774L50.7409 102.77Z" fill="#747DA1"/>
<path d="M62.1465 16.4892C66.8918 15.9439 68.2016 23.0698 63.4822 24.1899C58.1318 25.4611 56.6928 17.1156 62.1465 16.4892Z" fill="#747DA1"/>
<path d="M57.1866 33.4713C61.8433 33.0697 63.013 39.9045 58.574 41.1315C53.0798 42.6495 51.5448 33.9577 57.1866 33.4713Z" fill="#747DA1"/>
<path d="M69.9578 94.1927L69.8544 94.6644L61.5632 107.516C61.2865 108.002 61.1463 108.614 61.8547 108.695C63.8584 108.924 66.2753 108.522 68.3232 108.695C69.0279 108.61 69.253 108.091 69.2936 107.453L69.6073 107.369V109.137H58.4933C58.3789 109.137 58.3013 108.813 58.4083 108.699C60.8105 104.852 63.4488 101.138 65.8362 97.2804C66.2605 96.5988 67.7069 94.7418 66.1904 94.5538C64.9875 94.4065 61.936 94.4249 60.7072 94.5465C59.8512 94.6312 59.4342 94.9776 59.4157 95.8655H59.0688V94.1891H69.9615L69.9578 94.1927Z" fill="#747DA1"/>
<path d="M80.5623 49.4733C85.2189 48.8359 85.9016 55.785 81.5032 56.2492C76.9425 56.7282 76.3004 50.0592 80.5623 49.4733Z" fill="#747DA1"/>
<path d="M85.4408 59.7274C89.6694 59.6206 90.0458 65.9764 86.0312 66.4259C81.1531 66.9749 80.9206 59.8416 85.4408 59.7274Z" fill="#747DA1"/>
<path d="M58.8619 47.6974L74.2341 51.5919C74.9794 51.6693 74.4739 53.4084 74.1529 53.5963C74.0533 53.6553 73.9573 53.7032 73.8355 53.6737L58.5335 49.757C57.8213 49.5802 58.3121 47.7747 58.8619 47.6974Z" fill="#747DA1"/>
<path d="M61.6963 57.1593L77.3563 61.1165C78.0574 61.2049 77.6035 62.8519 77.2862 63.003C77.1423 63.0693 77.0021 63.0914 76.8471 63.0509L61.4564 59.1342C60.6778 58.9684 61.1723 57.2367 61.6963 57.1593Z" fill="#747DA1"/>
<path d="M78.0826 24.6247C82.0124 24.0867 83.1673 29.7867 79.3999 30.8074C75.0348 31.9901 73.7802 25.2142 78.0826 24.6247Z" fill="#747DA1"/>
<path d="M51.3424 43.5486C55.036 43.1543 56.2131 48.5854 52.6524 49.7165C48.1913 51.1351 46.7632 44.0349 51.3424 43.5486Z" fill="#747DA1"/>
<path d="M83.0424 70.7811C87.4444 70.0957 88.0791 76.4921 84.2379 77.0153C79.7694 77.6233 79.275 71.3706 83.0424 70.7811Z" fill="#747DA1"/>
<path d="M77.3744 72.0633C77.2527 72.1775 77.0054 72.1923 76.8431 72.1591L63.7513 68.6919C63.5299 68.4009 63.7919 66.5365 64.4856 66.7097L77.6659 70.1805C77.9464 70.4532 77.5515 71.8938 77.3744 72.0633Z" fill="#747DA1"/>
<path d="M53.3753 53.4526C57.7589 52.8594 57.9213 59.8085 53.4417 59.3516C50.0507 59.0089 50.0322 53.9021 53.3753 53.4526Z" fill="#747DA1"/>
<path d="M75.2488 77.148C77.9277 76.728 79.8686 79.6756 78.1933 81.8568C76.1012 84.5797 71.8873 82.2658 73.0422 79.0124C73.3411 78.1649 74.3484 77.2917 75.2488 77.148Z" fill="#747DA1"/>
<path d="M64.9767 81.4847C68.5449 81.0499 69.2238 86.6247 65.652 87.0226C61.9252 87.4353 61.3421 81.9268 64.9767 81.4847Z" fill="#747DA1"/>
<path d="M57.272 63.2683C61.6298 62.6308 61.6999 69.2446 57.3458 68.7177C54.3828 68.3603 54.3238 63.6994 57.272 63.2683Z" fill="#747DA1"/>
<path d="M111.137 115.902C111.196 115.711 111.919 115.711 112.067 115.858L114.281 120.548L116.373 115.784C116.657 115.781 117.044 115.677 117.247 115.906V122.096C117.019 122.357 116.646 122.203 116.362 122.14V117.807L114.532 121.595C114.295 121.613 113.956 121.698 113.801 121.469L112.022 117.719V122.096C111.794 122.357 111.421 122.203 111.137 122.14V115.902Z" fill="#747DA1"/>
<path d="M95.2857 27.2518L99.0346 25.1368C99.208 25.3026 99.5586 25.5163 99.5217 25.7706L97.7616 29.5509L101.721 26.9975C102.057 27.0418 102.444 27.3807 102.145 27.6976C101.846 28.0145 100.503 28.7882 100.057 29.0572C99.1785 29.5841 98.2781 30.0705 97.3483 30.5052C97.1453 30.5237 96.6693 30.1331 96.7099 29.8825L98.3778 26.3675L94.9461 28.3019C93.8059 28.0366 94.4075 27.2223 94.7322 26.4854C95.3262 25.1295 96.0864 23.8288 96.8354 22.5613C96.9904 22.5503 97.4996 22.9556 97.4811 23.1251C96.6767 24.4589 95.8244 25.789 95.282 27.2518H95.2857Z" fill="#747DA1"/>
<path d="M23.8044 60.1659C23.8265 60.3833 23.9593 60.8917 23.76 61.0428L19.9226 62.2292L23.8227 63.4672C23.9556 63.5778 23.9556 64.1636 23.8671 64.311C23.6826 64.6131 18.572 66.1275 18.3285 65.9543C18.1993 65.8032 18.1883 65.2469 18.3285 65.1474C18.4355 65.07 20.5351 64.6574 20.9188 64.5505L22.9372 63.8689L18.727 62.6345L18.7749 61.8792L22.7601 60.5122L18.1514 59.4105C17.9853 59.0458 17.9448 58.6257 18.4503 58.6626C18.9558 58.6994 19.8671 58.9684 20.4059 59.1047C21.5608 59.3958 22.6826 59.7901 23.808 60.1733L23.8044 60.1659Z" fill="#747DA1"/>
<path d="M30.8816 115.618C35.2357 115.029 35.7744 121.996 31.5679 122.313C27.3614 122.63 26.867 116.164 30.8816 115.618ZM31.1547 116.411C28.2581 116.558 28.3245 121.525 31.3023 121.525C34.28 121.525 34.3649 116.249 31.1547 116.411Z" fill="#747DA1"/>
<path d="M37.2616 115.711C37.9332 115.652 38.6637 115.655 39.3205 115.814C42.9108 116.683 42.4681 121.908 38.745 122.232C38.3649 122.265 36.5162 122.317 36.4055 121.996L36.3944 115.994C36.4203 115.714 36.9922 115.736 37.2616 115.711ZM37.28 121.429H38.9184C38.9516 121.429 39.5014 121.245 39.5826 121.208C40.7301 120.696 41.0142 119.307 40.7596 118.175C40.4202 116.665 38.5973 116.318 37.28 116.565V121.429Z" fill="#747DA1"/>
<path d="M75.7138 102.417V107.767C75.7138 107.966 75.972 108.437 76.1602 108.559C76.4628 108.75 77.5218 108.651 76.8207 109.137L72.4962 109.123L72.3891 109.053V108.78C72.6474 108.629 72.8872 108.743 73.1787 108.596C73.3153 108.526 73.6769 108.05 73.6769 107.943V102.549L73.8097 102.417H75.7138Z" fill="#747DA1"/>
<path d="M85.0123 102.417V107.501C85.0123 107.538 85.1414 108.08 85.1673 108.142C85.4477 108.82 86.3666 108.632 86.4293 108.828C86.4736 108.92 86.3665 109.137 86.2964 109.137H81.7357V108.695C82.0567 108.717 82.4589 108.695 82.7061 108.47C82.8168 108.367 83.064 107.8 83.064 107.678V102.417H85.0123Z" fill="#747DA1"/>
<path d="M22.1364 115.991C22.2434 115.663 24.413 115.659 24.7968 115.722C26.9738 116.064 27.0329 118.632 25.2396 119.539L26.7414 122.14C26.4277 122.136 26.0735 122.35 25.793 122.114C25.4277 121.808 24.6603 119.981 24.3503 119.797L23.0219 119.664V122.096C22.7931 122.357 22.4205 122.203 22.1364 122.14V115.991ZM23.0219 118.865C24.2691 118.946 25.7635 119.133 25.5938 117.398C25.4831 116.267 23.8411 116.4 23.0219 116.565V118.865Z" fill="#747DA1"/>
<path d="M77.0423 94.1927V94.5464C76.5368 94.3954 75.714 94.9775 75.714 95.475V100.383H73.6772V95.3865C73.6772 94.8744 72.8322 94.4138 72.3488 94.5464V94.1927H77.0423Z" fill="#747DA1"/>
<path d="M83.0647 100.383V95.6518C83.0647 95.5597 82.8469 94.996 82.7621 94.8928C82.537 94.6275 82.0721 94.5317 81.74 94.5428V94.1927H86.3007L86.3451 94.5022C86.0167 94.5833 85.6218 94.587 85.3672 94.8523C85.2417 94.9849 85.0166 95.5818 85.0166 95.7402V100.383H83.0647Z" fill="#747DA1"/>
<path d="M51.8919 115.769V118.776C52.4565 118.334 53.0394 117.888 53.5302 117.361C53.8069 117.066 54.5007 115.976 54.6741 115.851C54.9213 115.674 55.3937 115.806 55.6999 115.769C55.7221 115.932 55.5855 116.027 55.5043 116.149C54.866 117.114 54.0432 117.929 53.2203 118.732L55.9656 122.092C55.604 122.184 55.187 122.313 54.8549 122.052L52.6779 119.321C52.5303 119.218 51.8919 119.749 51.8919 119.797V122.096C51.6631 122.357 51.2905 122.203 51.0064 122.14V115.773H51.8919V115.769Z" fill="#747DA1"/>
<path d="M91.2117 116.565H88.0235V118.511H90.8575C90.8316 118.776 90.957 119.119 90.7246 119.307H88.0235V121.341H91.1674C91.3998 121.528 91.2744 121.871 91.3002 122.136H87.138V115.902L87.2709 115.769H91.0788C91.3113 115.957 91.1858 116.3 91.2117 116.565Z" fill="#747DA1"/>
<path d="M109.809 56.0797L115.384 55.7297C115.591 56.8645 116.1 59.1489 114.51 59.4879C113.871 59.6242 113.447 59.429 113 58.9979C112.58 60.2985 110.812 60.2801 110.148 59.1489C110.052 58.9831 109.812 58.3125 109.812 58.1578V56.0797H109.809ZM114.857 56.5255L113.085 56.7024C113.251 57.5314 113.034 59.0163 114.351 58.7178C115.211 58.5226 114.857 57.1335 114.857 56.5255ZM112.377 56.6987L110.517 56.8756C110.51 57.5351 110.443 59.0089 111.292 59.1563C112.82 59.4179 112.484 57.6714 112.377 56.7024V56.6987Z" fill="#747DA1"/>
<path d="M109.101 115.769V116.565H106.001V118.511H108.746C108.868 118.691 108.861 119.307 108.614 119.307H106.001V121.341H109.189C109.296 121.628 109.296 121.849 109.189 122.136H105.116V115.769H109.101Z" fill="#747DA1"/>
<path d="M110.595 82.708C110.621 83.0396 110.543 83.4117 110.167 83.456L105.292 84.0271L108.824 85.9836C108.923 86.1383 108.694 86.632 108.514 86.6689L103.621 83.9755L103.935 83.3344L109.012 82.789L105.469 80.7994C105.248 80.6741 105.698 80.0588 105.779 80.0588L110.595 82.7117V82.708Z" fill="#747DA1"/>
<path d="M39.6712 99.7638L42.0991 96.573C42.3168 96.363 42.8998 96.7388 42.7227 97.0188L39.435 101.344C39.3206 101.367 38.8557 101.134 38.8704 100.958L38.959 95.8729L36.5274 99.0637C36.3724 99.2701 35.8853 98.8537 35.8669 98.7321L39.2653 94.2775C39.9885 94.506 39.7598 94.6975 39.7524 95.2023C39.7302 96.7241 39.7118 98.2421 39.6675 99.7601L39.6712 99.7638Z" fill="#747DA1"/>
<path d="M29.3909 39.7314L29.1548 40.4314L24.0848 41.2715L27.8042 43.0843L27.4057 43.7696C26.8633 43.4049 22.5867 41.5184 22.5018 41.2568C22.428 41.0357 22.5387 40.6562 22.8006 40.6083C24.2988 40.2914 25.9187 40.2214 27.4057 39.9008C27.5275 39.875 27.6345 39.9008 27.7156 39.7682L24.1734 37.9996C23.9225 37.738 24.3247 37.5169 24.3542 37.248L29.3946 39.7314H29.3909Z" fill="#747DA1"/>
<path d="M44.5416 115.769V120.058C44.5416 120.161 44.8257 120.814 44.9106 120.928C45.4641 121.679 47.0028 121.621 47.5563 120.854C47.6817 120.681 47.9105 120.058 47.9105 119.881V115.769H48.7075V120.412C48.7075 120.467 48.4013 121.182 48.3386 121.282C47.3902 122.781 44.7039 122.652 43.9364 121.02C43.8811 120.902 43.6597 120.309 43.6597 120.235V115.769H44.5453H44.5416Z" fill="#747DA1"/>
<path d="M77.8172 115.792L80.2304 122.136C79.902 122.184 79.5846 122.321 79.2784 122.114L78.6806 120.456L76.0755 120.379L75.5147 122.118C75.2527 122.284 74.9316 122.247 74.6586 122.129L74.7103 121.713L76.8762 115.921C77.057 115.615 77.5367 115.711 77.8135 115.795L77.8172 115.792ZM78.3707 119.66L77.3522 116.831L76.4224 119.66H78.3707Z" fill="#747DA1"/>
<path d="M70.4894 115.769C70.4747 115.983 70.519 116.223 70.4858 116.429C70.4047 116.904 67.6888 120.136 67.1796 120.821C67.0652 120.976 66.8771 121.149 66.8623 121.344H70.4489C70.7146 121.58 70.6924 121.831 70.5817 122.14H65.711V121.569C66.7811 119.804 68.2718 118.286 69.4305 116.569H65.8439C65.6373 116.392 65.6373 115.95 65.8439 115.773H70.4931L70.4894 115.769Z" fill="#747DA1"/>
<path d="M93.935 94.926C97.0493 94.4691 98.8316 98.8905 95.9977 100.434C92.8096 102.17 89.8871 97.472 92.8133 95.3976C93.0789 95.2097 93.614 94.9775 93.9387 94.9296L93.935 94.926ZM92.9277 96.2598C91.1676 98.0099 94.0568 101.418 96.0863 99.458C97.898 97.7078 94.9239 94.2738 92.9277 96.2598Z" fill="#747DA1"/>
<path d="M91.0126 19.3189C93.6103 18.98 95.1637 21.9313 93.5106 24.0241C91.4443 26.6438 87.5182 24.5473 88.5772 21.397C88.9093 20.4132 89.9646 19.4553 91.0126 19.3189ZM91.0126 20.1111C90.5255 20.1922 90.0495 20.6012 89.758 20.9807C87.8762 23.4604 91.1232 25.7927 92.8427 23.5304C94.0789 21.9018 93.0974 19.7574 91.0126 20.1111Z" fill="#747DA1"/>
<path d="M26.4538 80.6004C30.5201 80.0441 30.8927 85.9725 26.9629 86.3225C23.1402 86.6652 22.727 81.1089 26.4538 80.6004ZM26.6309 81.3926C26.4612 81.4184 26.1364 81.5437 25.9741 81.621C23.2989 82.8885 24.8966 86.5694 27.6604 85.2503C29.9703 84.1487 29.0589 81.0057 26.6309 81.3926Z" fill="#747DA1"/>
<path d="M16.8226 119.837V122.092C16.6307 122.302 16.1289 122.302 15.937 122.092V115.991C16.7968 115.556 18.6085 115.519 19.4535 116.016C20.7634 116.786 20.6638 118.684 19.4203 119.469C19.2395 119.583 18.5494 119.837 18.3723 119.837H16.8226ZM16.8226 119.041H18.4609C18.9959 119.041 19.4719 118.264 19.4867 117.759C19.5236 116.363 17.8262 116.333 16.8226 116.565V119.041Z" fill="#747DA1"/>
<path d="M21.5864 67.4244C25.5789 66.9676 26.0769 72.6086 22.2616 73.0507C18.2654 73.5113 17.7083 67.8666 21.5864 67.4244ZM21.852 68.2203C18.627 68.5224 19.2469 72.6123 22.0697 72.2402C25.1212 71.8385 24.5789 67.9661 21.852 68.2203Z" fill="#747DA1"/>
<path d="M21.9701 80.0404C21.2617 78.7103 20.5569 76.9969 21.568 75.6336C21.9665 75.0994 22.8521 74.5725 23.5163 74.4841C25.8889 74.1709 26.8703 76.1016 27.2356 78.106L21.9701 80.0404ZM26.2948 77.6528C26.1472 75.7037 24.387 74.5283 22.638 75.7258C21.4794 76.5179 21.8041 77.9807 22.3133 79.0713L26.2911 77.6528H26.2948Z" fill="#747DA1"/>
<path d="M76.603 19.201L78.0974 13.7626C80.5807 13.9137 83.005 15.5349 81.6618 18.2946C80.6508 20.3653 78.3668 19.9343 76.603 19.201ZM77.4849 18.7626C78.8687 19.271 80.411 19.3558 81.0087 17.7272C81.7024 15.837 80.3593 14.8496 78.6398 14.6064L77.4886 18.7626H77.4849Z" fill="#747DA1"/>
<path d="M94.7358 115.618C95.3004 115.567 96.3667 115.784 96.8243 116.134C97.1416 116.377 96.8685 116.702 96.6435 116.912C95.9128 116.635 95.4479 116.374 94.6177 116.477C93.5587 116.606 93.4185 117.803 94.4627 118.231C95.3668 118.599 96.6804 118.61 97.0309 119.819C97.5401 121.576 95.9313 122.49 94.3631 122.306C93.8318 122.243 92.0126 121.565 93.0199 120.983C93.3262 120.806 93.6989 121.282 94.1121 121.407C94.9387 121.657 96.3372 121.488 96.2375 120.346C96.1563 119.417 94.9203 119.377 94.2598 119.133C92.1233 118.356 92.5403 115.814 94.7321 115.618H94.7358Z" fill="#747DA1"/>
<path d="M99.813 96.573L99.7539 95.8729C101.702 95.3018 102.385 93.3121 100.736 91.8973C99.3702 90.7256 97.9569 91.4625 97.2485 92.9032L98.2522 93.9312L99.0603 93.1427C99.1673 93.1242 99.5031 93.4595 99.5252 93.5516C99.5953 93.8206 98.4551 94.7307 98.2374 94.9849C98.1083 95.007 96.3924 93.2864 96.3592 93.1611C96.2854 92.8737 96.8573 92.0078 97.0566 91.7646C99.9163 88.2754 104.713 93.1537 101.259 95.9613C101.005 96.1677 100.112 96.7609 99.8093 96.573H99.813Z" fill="#747DA1"/>
<path d="M31.1697 85.5303C31.2804 85.4493 31.7711 85.943 31.7895 86.1088C31.8301 86.5031 31.0331 87.94 30.9187 88.4227C30.9925 88.618 31.439 89.3623 31.642 89.3291L33.2655 88.1132C33.4352 88.0985 33.7526 88.5112 33.7231 88.6622L29.3542 92.0631C28.2915 91.1346 26.5757 89.3439 28.2066 88.1022C28.9446 87.5384 29.4501 87.6637 30.2877 87.8885L31.1697 85.5377V85.5303ZM30.9925 89.8597C30.7269 89.4876 30.1328 88.5664 29.69 88.4632C28.9446 88.2938 28.1955 88.9386 28.3579 89.7086C28.4096 89.9481 29.0811 90.9503 29.2878 91.0019C29.5534 91.0682 30.6346 89.9518 30.9962 89.8597H30.9925Z" fill="#747DA1"/>
<path d="M86.0755 20.0006L86.4297 22.6535L85.6253 22.3292L85.26 19.8827L84.2158 19.3816L83.4076 21.316L82.7029 21.0949L84.9649 15.9586C85.8836 16.1613 87.6954 16.714 87.9168 17.7677C88.1751 18.9947 87.308 19.9969 86.0755 20.0043V20.0006ZM85.3707 16.8208L84.5811 18.6336C85.2563 19.0647 86.2342 19.6948 86.8725 18.8952C87.8061 17.7272 86.3485 17.0235 85.3707 16.8171V16.8208Z" fill="#747DA1"/>
<path d="M77.6621 101.267L78.1086 100.121L78.4112 100.21L79.1639 104.274C79.1786 103.997 79.1454 103.714 79.1639 103.434C79.3225 101.315 79.437 98.979 79.6953 96.8898C79.7359 96.5693 79.913 95.9982 80.1381 96.5361L80.5845 101.709L81.0716 101.267H84.791C85.0936 101.267 85.0936 101.709 84.791 101.709H81.0273C81.031 101.882 80.5623 102.737 80.3594 102.42C80.1528 101.414 80.175 100.379 80.0569 99.3622C80.0421 99.2295 80.0384 99.0895 79.8761 99.0563L79.3004 106.131L78.9904 106.219L78.1935 100.913L77.7949 101.621H73.8098L73.677 101.488L73.8098 101.267H77.6621Z" fill="#747DA1"/>
<path d="M47.1101 16.6403C47.468 17.9077 49.0473 19.7979 48.9661 21.0949C48.8849 22.3992 47.4016 23.2577 46.1913 23.0882C44.5603 22.8635 43.8482 19.9195 43.0622 18.7183C43.0733 18.5747 43.7116 18.243 43.8297 18.3278C44.3573 19.1826 45.1433 21.6255 45.9182 22.1266C46.7854 22.6866 48.169 21.9718 48.1764 20.9328C48.1838 19.8937 46.5714 17.9925 46.409 16.9166L47.1101 16.6439V16.6403Z" fill="#747DA1"/>
<path d="M104.499 88.2716L103.119 90.2208L102.562 89.7455L103.964 87.7889C103.705 87.6416 102.672 86.6688 102.458 86.8052L100.864 88.9385C100.669 89.0417 100.351 88.7175 100.252 88.5664L102.322 85.7882L102.543 85.7477C103.008 86.212 106.809 88.7727 106.879 89.038C106.934 89.2444 105.067 91.5361 104.805 91.8788L104.244 91.4109L105.809 89.2112L104.495 88.2716H104.499Z" fill="#747DA1"/>
<path d="M114.148 48.5632C114.152 48.7917 114.366 49.2412 114.148 49.407C113.067 49.7386 111.72 49.8049 110.672 50.1807C109.905 50.4571 109.539 50.9324 109.654 51.7688C109.982 54.1895 113.499 52.1962 114.93 52.292L114.993 52.9921C113.536 53.1873 110.986 54.3811 109.716 53.3863C108.742 52.6236 108.525 50.8845 109.407 49.9781C110.288 49.0717 112.919 49.0201 114.148 48.5669V48.5632Z" fill="#747DA1"/>
<path d="M100.953 34.5066L106.587 33.0918C106.809 33.0476 107.211 33.5008 107.226 33.6776L103.831 38.6591L103.34 38.0807L104.215 36.6547C104.226 36.5479 103.097 34.9488 102.986 34.8972C102.661 34.7498 101.79 35.262 101.37 35.1957L100.953 34.503V34.5066ZM106.089 33.9761L103.698 34.6393C103.831 34.7683 104.632 36.0947 104.757 36.0099L106.086 33.9761H106.089Z" fill="#747DA1"/>
<path d="M35.0328 90.0697C35.1029 90.1397 35.232 90.324 35.2247 90.4198L34.5715 91.8015L36.1028 93.3858C36.8113 93.2937 37.7523 92.1736 38.0733 93.3416L32.6528 95.7734L32.1842 95.3423L34.5383 89.8671C34.6379 89.7934 34.9442 89.985 35.0328 90.0734V90.0697ZM33.2063 94.8118L35.4166 93.7064L34.3096 92.601C34.1325 92.5642 34.2025 92.6416 34.1582 92.7116C33.7856 93.3416 33.5236 94.1412 33.2026 94.8081L33.2063 94.8118Z" fill="#747DA1"/>
<path d="M111.314 79.425L112.51 76.5069C112.654 76.3226 113.251 76.4995 113.159 76.7943L111.753 80.5709C111.617 80.6667 111.004 80.3056 110.923 80.1251L108.259 75.7994L107.06 78.8908L106.451 78.7066L107.864 74.6499C108.163 74.6167 108.502 74.7751 108.698 75.0036L111.314 79.4214V79.425Z" fill="#747DA1"/>
<path d="M75.714 13.1915C75.7546 13.6116 75.5775 13.9432 75.3155 14.2527L71.8174 17.6572L75.0831 18.1509L75.0019 18.8473L70.7658 18.2173C70.7141 17.9593 70.7474 17.6756 70.9319 17.4767L74.6513 13.8511L71.4632 13.3647L71.5444 12.6978L75.714 13.1915Z" fill="#747DA1"/>
<path d="M112.096 42.8337C112.808 43.9981 113.749 46.2051 112.056 46.9641C110.362 47.7231 109.277 46.2677 109.1 44.7644L107.107 45.4608L106.801 44.6797L112.096 42.8337ZM111.757 43.6996L109.731 44.5507C109.971 45.4866 110.392 46.7099 111.605 46.2456C112.746 45.8109 112.111 44.477 111.757 43.6996Z" fill="#747DA1"/>
<path d="M28.4096 33.077C28.3875 33.1139 27.8044 33.3276 27.6236 33.486C27.2067 33.8397 26.7749 34.6135 27.1402 35.122C27.7528 35.9731 28.8597 34.5398 29.4575 34.2561C30.9298 33.5523 32.3541 34.8051 31.8043 36.3342C31.5903 36.9274 31.0294 37.6348 30.4611 37.9112C29.8117 38.228 29.5424 38.2022 29.5682 37.388C30.4907 37.3253 31.7895 35.7815 30.8449 35.0483C30.0036 34.3924 29.2103 35.6525 28.5387 35.9915C27.3801 36.5774 26.0886 35.7668 26.2288 34.4845C26.3063 33.7845 27.2953 32.4249 28.0332 32.3806C28.3727 32.3585 28.5277 32.8891 28.4096 33.077Z" fill="#747DA1"/>
<path d="M112.919 74.134C114.178 73.0839 113.834 71.2122 112.259 70.6558C110.244 69.941 108.735 71.4517 109.351 73.4413C109.322 73.6772 108.768 73.7582 108.665 73.6698C108.514 73.5408 108.462 72.4649 108.48 72.2217C108.842 67.6934 116.222 69.7162 114.093 73.9351C113.75 74.613 113.237 75.2062 112.919 74.134Z" fill="#747DA1"/>
<path d="M61.7219 115.769C61.792 115.902 61.8953 116.565 61.6776 116.565H59.7736V122.092C59.5817 122.302 59.0798 122.302 58.888 122.092V116.565H56.8511V115.769H61.7219Z" fill="#747DA1"/>
<path d="M103.432 115.769V116.565H101.396V122.092C101.204 122.302 100.702 122.302 100.51 122.092V116.565H98.4732C98.499 116.3 98.3736 115.957 98.6061 115.769H103.432Z" fill="#747DA1"/>
<path d="M83.5072 116.565V122.092C83.3153 122.302 82.8135 122.302 82.6216 122.092V116.565H80.5848V115.769H85.4112C85.6179 115.946 85.6179 116.388 85.4112 116.565H83.5072Z" fill="#747DA1"/>
<path d="M36.483 23.184L37.2136 27.0086C37.3908 27.4323 38.5125 28.3129 38.5974 28.6409C38.6601 28.8804 38.2985 29.1088 38.103 29.1862C37.9 29.2046 36.8816 27.7234 36.5052 27.5392C35.7746 27.1744 34.0846 26.7765 33.2064 26.5001C33.0921 26.4633 32.9702 26.4559 32.8521 26.4596C32.7082 26.3159 33.2211 25.7927 33.4278 25.7853L36.3945 26.7249L35.8114 23.6704C35.8852 23.5267 36.3281 23.0551 36.483 23.1877V23.184Z" fill="#747DA1"/>
<path d="M24.3428 54.9412L24.1767 55.6928L22.0218 55.3944L18.3282 56.9677C18.3577 56.7098 18.2396 56.3229 18.4131 56.1276C18.6787 55.8292 20.8262 55.1291 21.3354 54.9338L18.9001 52.9884L18.9444 52.1925C19.0846 52.1778 19.1842 52.2625 19.2912 52.3325C20.0329 52.8078 21.5162 54.3517 22.1546 54.6022C22.483 54.7312 24.2468 54.8049 24.3391 54.9412H24.3428Z" fill="#747DA1"/>
<path d="M39.5753 21.865L38.0329 22.8156C37.889 22.7124 37.5532 22.2961 37.6455 22.1339L41.2025 19.8348L41.5789 20.358C41.4202 20.6343 40.1731 21.1944 40.2137 21.4449L42.8667 25.5311C42.66 25.6601 42.4312 25.9696 42.1914 25.7558L39.5753 21.8613V21.865Z" fill="#747DA1"/>
<path d="M53.3977 15.137L51.715 15.6712L53.2943 20.2437C53.3091 20.5017 52.8183 20.5348 52.6412 20.5974L50.9218 15.9733C50.2428 16.0212 49.0214 17.1119 49.0509 15.8112L53.0139 14.4479C53.287 14.4295 53.2907 14.9564 53.394 15.1406L53.3977 15.137Z" fill="#747DA1"/>
<path d="M34.7924 32.3917L34.3128 33.0881L30.5934 29.8199L29.4311 31.1353L28.8849 30.6563L31.8221 27.436C32.8147 28.0071 31.5047 28.5414 31.2095 29.1088C31.1726 29.1788 31.1505 29.2193 31.2095 29.2857L34.7961 32.3917H34.7924Z" fill="#747DA1"/>
<path d="M110.694 64.6131C110.683 64.6868 110.558 65.1253 110.525 65.1511L109.894 65.0442L110.074 61.7392L115.702 62.0855C115.75 62.185 115.75 62.2919 115.75 62.4024C115.75 62.6014 115.757 62.7856 115.521 62.8004C114.576 62.7635 113.628 62.7524 112.683 62.7156C112.425 62.7045 110.694 62.4503 110.694 62.7561C110.639 63.342 110.768 64.042 110.694 64.6131Z" fill="#747DA1"/>
<path d="M103.743 29.2009C103.883 29.3851 104.359 29.643 104.189 29.9083L99.9349 33.4492L99.4589 32.9444L103.743 29.2046V29.2009Z" fill="#747DA1"/>
<path d="M26.6457 45.6561C26.6863 45.9177 26.6642 46.2088 26.4797 46.4041L26.2804 46.4299L21.3654 44.606L21.1735 44.4365L21.3506 43.7954L26.6457 45.6524V45.6561Z" fill="#747DA1"/>
<path d="M115.3 67.3102L115.259 68.025C115.189 68.1245 115.015 68.1171 114.901 68.1171C113.765 68.1024 111.315 67.7008 110.145 67.465C109.931 67.4208 109.551 67.4392 109.547 67.1923C109.547 67.0376 109.65 66.5917 109.853 66.6065L115.3 67.3176V67.3102Z" fill="#747DA1"/>
</svg>
