<svg width="18" height="18" viewBox="0 0 18 18" fill="none" xmlns="http://www.w3.org/2000/svg">
<path d="M16 0C17.1046 0 18 0.89543 18 2V16C18 17.1046 17.1046 18 16 18H2C0.89543 18 0 17.1046 0 16V2C0 0.89543 0.89543 0 2 0H16ZM2.75781 15.5H5.44238V6.83301H2.75781V15.5ZM12.3457 6.56836C10.5066 6.56836 9.73242 8.00098 9.73242 8.00098V6.83301H7.1582V15.5H9.73242V10.9502C9.73252 9.73158 10.2936 9.00608 11.3672 9.00586C12.3544 9.00586 12.829 9.70306 12.8291 10.9502V15.5H15.5V10.0127C15.5 7.69111 14.1839 6.56839 12.3457 6.56836ZM4.08691 2.5C3.21029 2.50023 2.5 3.21659 2.5 4.09961C2.50019 4.98247 3.2104 5.69801 4.08691 5.69824C4.96362 5.69824 5.67364 4.98261 5.67383 4.09961C5.67383 3.21645 4.96374 2.5 4.08691 2.5Z" fill="white"/>
</svg>
