<svg width="15" height="45" viewBox="0 0 15 45" fill="none" xmlns="http://www.w3.org/2000/svg">
<path d="M12.0984 3.14453C11.6066 4.1428 10.7705 4.64193 9.83607 5.01628C9.7377 5.09115 9.61475 5.16602 9.56557 5.26585C9.22131 6.0395 8.87705 6.88803 8.53279 7.66168C8.40984 7.98612 8.31147 8.26064 8.18852 8.61004C8.58197 8.08595 8.95082 7.66168 9.31967 7.23742C9.95902 6.46377 10.7213 5.88976 11.7541 5.74002C12.8115 5.54037 13.8689 5.6402 14.9016 5.93968C14.9016 5.96463 14.9508 5.96463 15 6.01455C14.7541 6.41385 14.5082 6.81316 14.2623 7.18751C13.7213 7.88629 13.082 8.48525 12.1967 8.78473C10.9672 9.18404 9.68852 9.28386 8.40984 9.05925C8.28689 9.0343 8.18852 9.00934 8.06557 8.98438C7.42623 10.8561 6.93443 12.678 6.61475 14.5996C6.83607 14.2502 7.05738 13.826 7.27869 13.4766C7.84426 12.5532 8.5082 11.8045 9.54098 11.4551C10.3525 11.1806 11.1393 11.0558 11.9754 11.0558C12.2459 11.0558 12.5164 11.0807 12.8361 11.0807C12.6639 11.4301 12.5656 11.7795 12.4426 12.079C12.0492 12.9525 11.5574 13.7012 10.7459 14.2003C9.78688 14.8492 8.70492 15.1487 7.57377 15.2735C7.22951 15.2984 6.83607 15.3483 6.46721 15.3733C6.14754 17.27 5.95082 19.2166 5.92623 21.1632C5.97541 21.0883 6 21.0135 6.02459 20.9136C6.14754 20.5643 6.29508 20.165 6.44262 19.7906C6.86066 18.6676 7.59836 17.7941 8.70492 17.27C9.46721 16.9455 10.2787 16.7209 11.0902 16.5962C11.2377 16.5962 11.3607 16.5712 11.5328 16.5213V16.7209C11.4836 16.8956 11.459 17.1202 11.4098 17.3449C11.1639 18.4679 10.7213 19.541 9.76229 20.2897C8.72951 21.1133 7.57377 21.6374 6.31967 21.9119C6.17213 21.9369 6.04918 21.9369 5.90164 21.9868C5.87705 23.9833 6.02459 25.9549 6.36885 27.9015C6.51639 27.2526 6.61475 26.6537 6.76229 26.0298C6.95902 25.1563 7.37705 24.4076 8.04098 23.8086C8.87705 23.1098 9.83606 22.6357 10.8689 22.2613C10.9672 22.2613 11.0902 22.1864 11.2623 22.1615C11.2377 22.7355 11.2131 23.2097 11.1639 23.7088C11.0656 24.6072 10.8197 25.4308 10.2295 26.1046C9.27049 27.2277 8.09016 28.1012 6.66393 28.5753C6.61475 28.5753 6.56557 28.6003 6.51639 28.6502C6.86066 30.472 7.35246 32.244 7.9918 33.966C8.01639 33.6415 7.9918 33.342 7.9918 33.0426C7.9918 31.9944 8.18852 31.0211 8.80328 30.1975C9.31967 29.5237 9.95902 28.9746 10.6475 28.5504C11.0164 28.3008 11.4098 28.1012 11.8033 27.8765C11.8525 28.0512 11.877 28.201 11.9016 28.3258C12.1229 29.6235 12.123 30.8713 11.459 32.0193C10.918 32.9677 10.1803 33.7663 9.31967 34.4651C9 34.7147 8.68033 34.9143 8.33607 35.1389C8.97541 36.7861 9.68852 38.3833 10.5492 39.9306C10.5492 39.8308 10.5492 39.7809 10.5492 39.706C10.5 39.2568 10.4508 38.8075 10.4016 38.3833C10.3279 37.5847 10.4754 36.811 10.8443 36.1122C11.2869 35.2887 11.9016 34.5649 12.6148 33.966C12.8852 33.7414 13.1311 33.5417 13.4262 33.2921C13.7951 34.2155 14.041 35.089 14.041 36.0124C14.041 36.5365 14.0164 37.0606 13.8197 37.5597C13.3033 38.9074 12.4918 40.1053 11.3852 41.1036C11.2623 41.1784 11.2869 41.2533 11.3361 41.3781C12.0738 42.601 12.8607 43.7739 13.6967 44.9219C13.6967 44.9219 13.5492 45.2464 12.5164 44.5725C12.2951 44.1982 12.0246 43.8488 11.8033 43.4495C11.3115 42.6758 10.8443 41.9022 10.4016 41.1285C10.3033 40.9289 10.2049 40.8789 9.98361 40.9289C8.63115 41.2283 7.2541 41.2283 5.92623 40.854C4.94262 40.6044 4.20492 39.9805 3.54098 39.2568C3.27049 38.9323 3.02459 38.5081 2.7541 38.1836C2.72951 38.1088 2.72951 38.0838 2.68033 38.0339C2.70492 38.0089 2.7541 37.959 2.77869 37.959C3.86066 37.6096 4.96721 37.41 6.09836 37.5098C7.2541 37.5847 8.16393 38.1337 8.95082 38.9323C9.14754 39.132 9.29508 39.2817 9.51639 39.4564C9.51639 39.3816 9.46721 39.3316 9.44262 39.2568C8.72951 37.8342 8.09016 36.3119 7.57377 34.7895C7.52459 34.6398 7.45082 34.5899 7.30328 34.5899C5.95082 34.6897 4.64754 34.4401 3.39344 33.8911C2.43443 33.4419 1.77049 32.7181 1.2541 31.8447C1.0082 31.4453 0.836066 30.9712 0.590164 30.497C1.03279 30.497 1.45082 30.4221 1.84426 30.4221C2.63115 30.3972 3.41803 30.4471 4.15574 30.6717C5.18852 30.9961 5.92623 31.62 6.54098 32.4686C6.68852 32.6433 6.81148 32.818 6.93443 33.0176C6.56557 31.3206 6.17213 29.6485 5.77869 27.9514C5.16393 27.8017 4.5 27.6769 3.88525 27.4523C2.92623 27.1279 2.04098 26.6537 1.32787 25.88C0.713115 25.2062 0.0737705 23.7337 0 22.8104H0.0245902C1.37705 22.8353 2.65574 23.0849 3.81148 23.8086C4.5 24.2329 4.96721 24.9317 5.33607 25.6804C5.43443 25.8301 5.5082 26.0048 5.60656 26.1795C5.45902 24.5074 5.38525 22.8353 5.5082 21.1632C4.67213 20.9137 3.90984 20.5892 3.19672 20.115C2.18852 19.4412 1.30328 18.6426 0.934426 17.4197C0.737705 16.7709 0.614754 16.097 0.590164 15.4232C0.590164 15.3483 0.590164 15.2984 0.590164 15.1487C1.20492 15.3733 1.7459 15.4981 2.28689 15.6977C3.02459 16.0222 3.7377 16.3965 4.27869 17.0204C4.77049 17.5445 5.04098 18.1934 5.2623 18.8672C5.36066 19.1916 5.43443 19.4911 5.58197 19.7906C5.58197 19.6908 5.58197 19.6658 5.60656 19.566C5.70492 17.9438 5.92623 16.3466 6.2459 14.7494C6.27049 14.5996 6.2459 14.4748 6.09836 14.4C4.84426 13.7761 3.81148 12.9026 3.02459 11.7047C2.48361 10.8811 2.36066 9.95769 2.38525 8.98438C2.38525 8.61003 2.45902 8.2856 2.48361 7.83638C2.97541 8.08595 3.39344 8.2856 3.78689 8.51021C4.64754 9.00934 5.38525 9.6083 5.90164 10.5067C6.29508 11.1806 6.39344 11.9542 6.46721 12.7279C6.46721 12.9774 6.46721 13.227 6.54098 13.4267C6.54098 13.3518 6.56557 13.3019 6.61475 13.227C7.0082 11.6048 7.5 9.98265 8.11475 8.41038C8.18852 8.26064 8.18852 8.16082 8.01639 8.08595C6.95902 7.31229 6.12295 6.33898 5.55738 5.14106C5.09016 4.19271 5.09016 3.2194 5.28689 2.22114C5.36066 1.87175 5.45902 1.52235 5.55738 1.148C6.2459 1.54731 6.86066 2.04644 7.40164 2.6454C8.2377 3.54384 8.68033 4.56706 8.58197 5.86481C8.58197 6.33898 8.5082 6.81316 8.48361 7.3622C8.53279 7.28733 8.55738 7.26238 8.55738 7.21246C8.90164 6.51368 9.22131 5.78994 9.56557 5.06619C9.59016 4.96637 9.61475 4.86654 9.59016 4.79167C9.56557 4.1428 9.59016 3.49393 9.7377 2.87001C9.88525 2.39584 10.0574 1.8967 10.4262 1.54731C10.8443 1.09809 11.3607 0.748699 11.877 0.449219C12.1475 0.249566 12.4426 0.124783 12.7377 0C12.7869 0 12.8115 0.0249566 12.8607 0.0249566C12.8607 0.249566 12.7869 0.474176 12.7869 0.723742C12.7377 1.59722 12.541 2.44575 12.1475 3.19445L12.0984 3.14453Z" fill="white" fill-opacity="0.3"/>
</svg>
