<svg width="35" height="12" viewBox="0 0 35 12" fill="none" xmlns="http://www.w3.org/2000/svg">
<path d="M32.6261 9.08957H27.3279V7.246C27.3279 5.1415 28.7277 3.31495 30.7355 2.80442C31.4828 2.61723 31.9346 1.84577 31.7505 1.08565C31.6613 0.716938 31.4382 0.410622 31.1203 0.212084C30.8024 0.0192182 30.4232 -0.0431788 30.0662 0.0532539C28.7166 0.393605 27.5008 1.11401 26.5471 2.14074L25.9392 2.78741L25.3313 2.14074C24.3776 1.11401 23.1562 0.393605 21.8121 0.0532539C21.444 -0.0488513 21.0703 -0.00347148 20.7469 0.183722C20.4234 0.370915 20.1892 0.671559 20.0888 1.04027C19.9884 1.40331 20.033 1.78904 20.217 2.11805C20.4011 2.44706 20.6967 2.6853 21.0592 2.78741L21.1317 2.80442C23.145 3.31495 24.5449 5.1415 24.5449 7.246V9.08957H9.48668V7.246C9.48668 5.1415 10.8865 3.31495 12.8943 2.80442C13.2457 2.70799 13.5468 2.46975 13.7253 2.14074C13.9093 1.81173 13.9539 1.426 13.8536 1.06296C13.6584 0.336879 12.9333 -0.105575 12.2083 0.0589277C10.8698 0.399279 9.65399 1.11969 8.7003 2.14641L8.0924 2.79308L7.48449 2.14641C6.5308 1.11969 5.30942 0.399279 3.96533 0.0589277C3.59724 -0.0431776 3.22357 0.00220225 2.9001 0.189395C2.57663 0.376588 2.34239 0.677231 2.242 1.04594C2.03565 1.80039 2.47066 2.5832 3.21242 2.79308L3.28492 2.8101C5.29826 3.32062 6.70369 5.14717 6.69812 7.25168V9.09524H1.39428C0.624637 9.09524 0 9.73056 0 10.5134C0 11.2962 0.624637 11.9315 1.39428 11.9315H32.6261C33.3958 11.9315 34.0204 11.2962 34.0204 10.5134C34.0204 9.73056 33.3958 9.09524 32.6261 9.09524V9.08957Z" fill="#747DA1"/>
</svg>
