<svg width="212" height="209" viewBox="0 0 212 209" fill="none" xmlns="http://www.w3.org/2000/svg">
<mask id="path-1-inside-1_2655_16504" fill="white">
<path fill-rule="evenodd" clip-rule="evenodd" d="M29.3783 32.4501C48.6991 12.4524 75.8542 0 105.921 0C155.202 0 196.649 33.4527 208.665 78.8301C208.665 78.8301 171.453 79.4105 147.95 76.1919C121.907 72.6039 107.032 69.4908 82.5238 60.0459C60.7151 51.6564 29.4312 32.4501 29.4312 32.4501M211.153 91.4936C210.783 88.8553 210.359 86.2699 209.777 83.6844C209.777 83.6844 157.531 84.4231 124.712 79.3577C89.1406 73.8702 68.3905 70.2295 35.6774 55.2444C28.6901 52.0258 24.826 49.7041 18.0504 46.38C14.4509 51.6036 11.3278 57.1967 8.73408 63.0535C8.73408 63.0535 29.4312 70.0184 42.8764 73.6064C71.5136 81.2045 88.2936 83.2623 117.672 86.7448C153.879 91.0714 211.1 91.4936 211.1 91.4936M118.678 101.308L212 101.73C211.947 99.9886 211.841 98.2474 211.682 96.5062C211.682 96.5062 150.279 96.9811 111.267 93.5514C68.9728 89.8051 44.041 85.5839 3.65243 77.0361C1.79975 83.6317 0.529338 90.491 0 97.5615L118.678 101.308ZM29.3783 176.55C48.6991 196.548 75.8542 209 105.868 209C155.149 209 196.596 175.547 208.612 130.17C208.612 130.17 171.4 129.589 147.897 132.808C121.854 136.396 106.979 139.509 82.4709 148.954C60.6622 157.344 29.3783 176.55 29.3783 176.55ZM117.725 122.255C88.2936 125.79 71.5665 127.796 42.9293 135.394C29.4312 138.982 8.78702 145.946 8.78702 145.946C11.3808 151.803 14.5039 157.396 18.1034 162.62C24.8789 159.243 28.7431 156.974 35.7303 153.756C68.3905 138.771 89.1935 135.13 124.765 129.642C157.584 124.577 209.83 125.316 209.83 125.316C210.359 122.73 210.835 120.145 211.206 117.506C211.206 117.506 153.985 117.929 117.778 122.255M0 111.439C0.529338 118.509 1.79975 125.368 3.65243 131.964C44.0939 123.416 68.9728 119.195 111.267 115.449C150.279 112.019 211.682 112.494 211.682 112.494C211.841 110.753 211.947 109.064 212 107.323L118.678 107.692L0 111.439Z"/>
</mask>
<path fill-rule="evenodd" clip-rule="evenodd" d="M29.3783 32.4501C48.6991 12.4524 75.8542 0 105.921 0C155.202 0 196.649 33.4527 208.665 78.8301C208.665 78.8301 171.453 79.4105 147.95 76.1919C121.907 72.6039 107.032 69.4908 82.5238 60.0459C60.7151 51.6564 29.4312 32.4501 29.4312 32.4501M211.153 91.4936C210.783 88.8553 210.359 86.2699 209.777 83.6844C209.777 83.6844 157.531 84.4231 124.712 79.3577C89.1406 73.8702 68.3905 70.2295 35.6774 55.2444C28.6901 52.0258 24.826 49.7041 18.0504 46.38C14.4509 51.6036 11.3278 57.1967 8.73408 63.0535C8.73408 63.0535 29.4312 70.0184 42.8764 73.6064C71.5136 81.2045 88.2936 83.2623 117.672 86.7448C153.879 91.0714 211.1 91.4936 211.1 91.4936M118.678 101.308L212 101.73C211.947 99.9886 211.841 98.2474 211.682 96.5062C211.682 96.5062 150.279 96.9811 111.267 93.5514C68.9728 89.8051 44.041 85.5839 3.65243 77.0361C1.79975 83.6317 0.529338 90.491 0 97.5615L118.678 101.308ZM29.3783 176.55C48.6991 196.548 75.8542 209 105.868 209C155.149 209 196.596 175.547 208.612 130.17C208.612 130.17 171.4 129.589 147.897 132.808C121.854 136.396 106.979 139.509 82.4709 148.954C60.6622 157.344 29.3783 176.55 29.3783 176.55ZM117.725 122.255C88.2936 125.79 71.5665 127.796 42.9293 135.394C29.4312 138.982 8.78702 145.946 8.78702 145.946C11.3808 151.803 14.5039 157.396 18.1034 162.62C24.8789 159.243 28.7431 156.974 35.7303 153.756C68.3905 138.771 89.1935 135.13 124.765 129.642C157.584 124.577 209.83 125.316 209.83 125.316C210.359 122.73 210.835 120.145 211.206 117.506C211.206 117.506 153.985 117.929 117.778 122.255M0 111.439C0.529338 118.509 1.79975 125.368 3.65243 131.964C44.0939 123.416 68.9728 119.195 111.267 115.449C150.279 112.019 211.682 112.494 211.682 112.494C211.841 110.753 211.947 109.064 212 107.323L118.678 107.692L0 111.439Z" fill="#4064DF" fill-opacity="0.1"/>
<path d="M208.665 78.8301L208.681 79.83L209.959 79.81L209.632 78.5741L208.665 78.8301ZM147.95 76.1919L147.814 77.1825L147.814 77.1826L147.95 76.1919ZM82.5238 60.0459L82.8834 59.1128L82.8829 59.1126L82.5238 60.0459ZM209.777 83.6844L210.752 83.4647L210.574 82.673L209.763 82.6845L209.777 83.6844ZM124.712 79.3577L124.865 78.3694L124.865 78.3694L124.712 79.3577ZM35.6774 55.2444L35.259 56.1527L35.2609 56.1535L35.6774 55.2444ZM18.0504 46.38L18.4909 45.4822L17.7165 45.1022L17.227 45.8125L18.0504 46.38ZM8.73408 63.0535L7.81973 62.6486L7.3756 63.6515L8.41514 64.0013L8.73408 63.0535ZM42.8764 73.6064L42.6186 74.5726L42.62 74.573L42.8764 73.6064ZM117.672 86.7448L117.791 85.7518L117.79 85.7517L117.672 86.7448ZM118.678 101.308L118.646 102.307L118.66 102.308L118.673 102.308L118.678 101.308ZM212 101.73L211.995 102.73L213.031 102.735L213 101.699L212 101.73ZM211.682 96.5062L212.678 96.4154L212.595 95.4991L211.675 95.5062L211.682 96.5062ZM111.267 93.5514L111.179 94.5475L111.179 94.5475L111.267 93.5514ZM3.65243 77.0361L3.85949 76.0578L2.94303 75.8638L2.6897 76.7657L3.65243 77.0361ZM0 97.5615L-0.997209 97.4868L-1.07516 98.528L-0.0315511 98.561L0 97.5615ZM29.3783 176.55L28.8551 175.698L27.7939 176.349L28.6591 177.245L29.3783 176.55ZM208.612 130.17L209.579 130.426L209.906 129.19L208.628 129.17L208.612 130.17ZM147.897 132.808L147.761 131.817L147.761 131.817L147.897 132.808ZM82.4709 148.954L82.83 149.887L82.8305 149.887L82.4709 148.954ZM42.9293 135.394L42.6729 134.427L42.6724 134.427L42.9293 135.394ZM8.78702 145.946L8.46734 144.999L7.42888 145.349L7.87267 146.351L8.78702 145.946ZM18.1034 162.62L17.2799 163.187L17.7725 163.902L18.5494 163.515L18.1034 162.62ZM35.7303 153.756L35.3133 152.847L35.312 152.847L35.7303 153.756ZM124.765 129.642L124.918 130.631L124.918 130.631L124.765 129.642ZM209.83 125.316L209.816 126.315L210.643 126.327L210.809 125.516L209.83 125.316ZM211.206 117.506L212.196 117.646L212.357 116.498L211.199 116.506L211.206 117.506ZM0 111.439L-0.0315511 110.439L-1.07516 110.472L-0.997209 111.513L0 111.439ZM3.65243 131.964L2.6897 132.234L2.94296 133.136L3.85923 132.942L3.65243 131.964ZM111.267 115.449L111.179 114.452L111.179 114.453L111.267 115.449ZM211.682 112.494L211.675 113.494L212.595 113.501L212.678 112.585L211.682 112.494ZM212 107.323L213 107.353L213.031 106.319L211.996 106.323L212 107.323ZM118.678 107.692L118.674 106.692L118.66 106.692L118.646 106.693L118.678 107.692ZM29.3783 32.4501L30.0975 33.145C49.2373 13.3346 76.1359 1 105.921 1V0V-1C75.5725 -1 48.1609 11.5703 28.6591 31.7553L29.3783 32.4501ZM105.921 0V1C154.739 1 195.796 34.138 207.698 79.0861L208.665 78.8301L209.632 78.5741C197.502 32.7673 155.665 -1 105.921 -1V0ZM208.665 78.8301C208.65 77.8302 208.649 77.8302 208.649 77.8302C208.649 77.8302 208.649 77.8302 208.648 77.8302C208.647 77.8303 208.645 77.8303 208.643 77.8303C208.639 77.8304 208.632 77.8305 208.623 77.8306C208.606 77.8309 208.579 77.8313 208.544 77.8318C208.473 77.8327 208.368 77.8342 208.229 77.8359C207.952 77.8394 207.542 77.844 207.011 77.8488C205.95 77.8583 204.407 77.8684 202.482 77.8705C198.632 77.8746 193.254 77.8466 187.142 77.7182C174.908 77.4611 159.777 76.8022 148.086 75.2011L147.95 76.1919L147.814 77.1826C159.626 78.8001 174.852 79.4604 187.1 79.7178C193.23 79.8465 198.623 79.8746 202.485 79.8705C204.415 79.8684 205.964 79.8583 207.029 79.8487C207.562 79.8439 207.975 79.8392 208.254 79.8357C208.394 79.834 208.5 79.8326 208.572 79.8316C208.608 79.8311 208.635 79.8307 208.653 79.8304C208.662 79.8303 208.669 79.8302 208.674 79.8301C208.676 79.83 208.678 79.83 208.679 79.83C208.679 79.83 208.68 79.83 208.68 79.83C208.681 79.83 208.681 79.83 208.665 78.8301ZM147.95 76.1919L148.087 75.2012C122.095 71.6204 107.3 68.5224 82.8834 59.1128L82.5238 60.0459L82.1643 60.9791C106.764 70.4592 121.718 73.5873 147.814 77.1825L147.95 76.1919ZM82.5238 60.0459L82.8829 59.1126C72.0468 54.9441 58.824 48.0736 48.2843 42.2275C43.0202 39.3076 38.4361 36.6492 35.1683 34.721C33.5345 33.7569 32.23 32.9755 31.3345 32.4355C30.8867 32.1654 30.5412 31.9557 30.3078 31.8137C30.1912 31.7427 30.1026 31.6886 30.0432 31.6523C30.0136 31.6342 29.9912 31.6205 29.9764 31.6114C29.969 31.6069 29.9634 31.6034 29.9597 31.6012C29.9579 31.6001 29.9565 31.5992 29.9556 31.5987C29.9552 31.5984 29.9549 31.5982 29.9547 31.5981C29.9545 31.598 29.9544 31.5979 29.4312 32.4501C28.908 33.3023 28.9082 33.3025 28.9085 33.3026C28.9087 33.3028 28.9091 33.303 28.9096 33.3033C28.9107 33.304 28.9121 33.3049 28.9141 33.3061C28.918 33.3085 28.9239 33.3121 28.9316 33.3168C28.9469 33.3262 28.9698 33.3402 29 33.3587C29.0604 33.3956 29.1501 33.4504 29.2679 33.5221C29.5035 33.6655 29.8514 33.8766 30.3016 34.1481C31.2021 34.6912 32.5121 35.4758 34.1519 36.4434C37.4313 38.3785 42.0312 41.0461 47.3142 43.9764C57.8686 49.8308 71.1922 56.7582 82.1648 60.9793L82.5238 60.0459ZM211.153 91.4936L212.143 91.3545C211.771 88.7025 211.343 86.0873 210.752 83.4647L209.777 83.6844L208.801 83.9041C209.375 86.4524 209.794 89.0082 210.163 91.6326L211.153 91.4936ZM209.777 83.6844C209.763 82.6845 209.763 82.6845 209.762 82.6845C209.762 82.6845 209.761 82.6845 209.76 82.6846C209.759 82.6846 209.757 82.6846 209.754 82.6846C209.747 82.6847 209.738 82.6849 209.726 82.685C209.701 82.6854 209.663 82.6858 209.613 82.6865C209.514 82.6877 209.366 82.6895 209.171 82.6915C208.782 82.6957 208.206 82.7011 207.461 82.7063C205.971 82.7166 203.805 82.7256 201.102 82.7207C195.698 82.7108 188.15 82.6449 179.578 82.4209C162.422 81.9726 141.208 80.892 124.865 78.3694L124.712 79.3577L124.56 80.346C141.035 82.8889 162.354 83.9716 179.525 84.4203C188.117 84.6448 195.682 84.7108 201.099 84.7207C203.807 84.7256 205.979 84.7166 207.475 84.7062C208.222 84.7011 208.801 84.6956 209.193 84.6914C209.389 84.6893 209.538 84.6876 209.638 84.6863C209.689 84.6857 209.727 84.6852 209.752 84.6849C209.765 84.6847 209.775 84.6845 209.781 84.6845C209.784 84.6844 209.787 84.6844 209.788 84.6844C209.789 84.6843 209.79 84.6843 209.79 84.6843C209.791 84.6843 209.791 84.6843 209.777 83.6844ZM124.712 79.3577L124.865 78.3694C89.317 72.8856 68.678 69.2613 36.0939 54.3352L35.6774 55.2444L35.2609 56.1535C68.103 71.1977 88.9641 74.8548 124.56 80.346L124.712 79.3577ZM35.6774 55.2444L36.0958 54.3361C29.0953 51.1114 25.3658 48.8551 18.4909 45.4822L18.0504 46.38L17.61 47.2777C24.2862 50.5532 28.285 52.9401 35.259 56.1527L35.6774 55.2444ZM18.0504 46.38L17.227 45.8125C13.5917 51.0882 10.4383 56.7357 7.81973 62.6486L8.73408 63.0535L9.64843 63.4585C12.2174 57.6577 15.3102 52.1191 18.8739 46.9474L18.0504 46.38ZM8.73408 63.0535C8.41514 64.0013 8.41524 64.0013 8.41542 64.0014C8.41558 64.0014 8.41584 64.0015 8.41616 64.0016C8.41682 64.0019 8.41779 64.0022 8.41907 64.0026C8.42163 64.0035 8.42545 64.0048 8.4305 64.0065C8.4406 64.0099 8.45565 64.0149 8.47554 64.0216C8.51532 64.035 8.57447 64.0548 8.65212 64.0808C8.80743 64.1329 9.03679 64.2096 9.33337 64.3085C9.92652 64.5062 10.7886 64.7927 11.865 65.1476C14.0176 65.8573 17.028 66.841 20.459 67.937C27.3167 70.1277 35.8714 72.7721 42.6186 74.5726L42.8764 73.6064L43.1342 72.6402C36.4362 70.8528 27.9197 68.2207 21.0676 66.0319C17.6437 64.9382 14.6394 63.9564 12.4912 63.2481C11.4172 62.894 10.5572 62.6083 9.96598 62.4111C9.67036 62.3126 9.44192 62.2362 9.28749 62.1844C9.21027 62.1586 9.15155 62.1388 9.11219 62.1256C9.09251 62.119 9.07767 62.114 9.06777 62.1107C9.06282 62.109 9.05911 62.1078 9.05665 62.107C9.05542 62.1066 9.0545 62.1062 9.05389 62.106C9.05359 62.1059 9.05337 62.1059 9.05322 62.1058C9.05308 62.1058 9.05302 62.1057 8.73408 63.0535ZM42.8764 73.6064L42.62 74.573C71.3287 82.19 88.1668 84.2543 117.554 87.7378L117.672 86.7448L117.79 85.7517C88.4205 82.2703 71.6986 80.219 43.1329 72.6399L42.8764 73.6064ZM117.672 86.7448L117.553 87.7377C135.701 89.9063 159.093 91.0945 177.929 91.7411C187.351 92.0645 195.641 92.2526 201.575 92.3598C204.543 92.4135 206.921 92.4469 208.558 92.4669C209.377 92.4769 210.01 92.4836 210.439 92.4877C210.653 92.4898 210.817 92.4912 210.926 92.4922C210.981 92.4927 211.023 92.493 211.051 92.4932C211.065 92.4933 211.075 92.4934 211.082 92.4935C211.086 92.4935 211.088 92.4935 211.09 92.4935C211.091 92.4935 211.092 92.4935 211.092 92.4935C211.093 92.4935 211.093 92.4935 211.1 91.4936C211.108 90.4936 211.107 90.4936 211.107 90.4936C211.107 90.4936 211.106 90.4936 211.105 90.4936C211.103 90.4936 211.101 90.4935 211.097 90.4935C211.09 90.4935 211.08 90.4934 211.066 90.4933C211.039 90.4931 210.998 90.4927 210.943 90.4923C210.834 90.4913 210.672 90.4899 210.458 90.4878C210.031 90.4837 209.4 90.477 208.583 90.467C206.949 90.4471 204.575 90.4137 201.612 90.3602C195.685 90.2531 187.407 90.0652 177.998 89.7423C159.172 89.0961 135.85 87.9099 117.791 85.7518L117.672 86.7448ZM118.678 101.308L118.673 102.308L211.995 102.73L212 101.73L212.005 100.73L118.682 100.308L118.678 101.308ZM212 101.73L213 101.699C212.946 99.938 212.839 98.1766 212.678 96.4154L211.682 96.5062L210.687 96.597C210.844 98.3182 210.948 100.039 211 101.76L212 101.73ZM211.682 96.5062C211.675 95.5062 211.674 95.5062 211.674 95.5062C211.674 95.5062 211.673 95.5062 211.672 95.5062C211.67 95.5063 211.667 95.5063 211.664 95.5063C211.656 95.5064 211.645 95.5064 211.631 95.5065C211.601 95.5068 211.557 95.5071 211.498 95.5075C211.381 95.5083 211.207 95.5094 210.978 95.5107C210.519 95.5133 209.841 95.5168 208.964 95.5199C207.211 95.5262 204.661 95.5313 201.48 95.5268C195.117 95.5177 186.228 95.4699 176.12 95.315C155.897 95.0051 130.823 94.2667 111.354 92.5552L111.267 93.5514L111.179 94.5475C130.723 96.2657 155.857 97.0047 176.089 97.3148C186.208 97.4699 195.108 97.5177 201.477 97.5268C204.662 97.5313 207.215 97.5262 208.971 97.5199C209.85 97.5167 210.529 97.5133 210.989 97.5107C211.219 97.5093 211.394 97.5082 211.512 97.5074C211.571 97.507 211.615 97.5067 211.645 97.5065C211.66 97.5064 211.671 97.5063 211.679 97.5062C211.682 97.5062 211.685 97.5062 211.687 97.5062C211.688 97.5062 211.689 97.5062 211.689 97.5062C211.69 97.5062 211.69 97.5062 211.682 96.5062ZM111.267 93.5514L111.355 92.5553C69.1094 88.8133 44.2181 84.5993 3.85949 76.0578L3.65243 77.0361L3.44538 78.0144C43.8638 86.5686 68.8362 90.7969 111.179 94.5475L111.267 93.5514ZM3.65243 77.0361L2.6897 76.7657C0.820369 83.4205 -0.46256 90.3454 -0.997209 97.4868L0 97.5615L0.997209 97.6361C1.52124 90.6366 2.77913 83.8428 4.61517 77.3065L3.65243 77.0361ZM0 97.5615L-0.0315511 98.561L118.646 102.307L118.678 101.308L118.709 100.308L0.0315511 96.562L0 97.5615ZM29.3783 176.55L28.6591 177.245C48.1608 197.43 75.5722 210 105.868 210V209V208C76.1362 208 49.2375 195.666 30.0975 175.855L29.3783 176.55ZM105.868 209V210C155.612 210 197.449 176.233 209.579 130.426L208.612 130.17L207.646 129.914C195.743 174.862 154.686 208 105.868 208V209ZM208.612 130.17C208.628 129.17 208.628 129.17 208.627 129.17C208.627 129.17 208.627 129.17 208.626 129.17C208.625 129.17 208.623 129.17 208.621 129.17C208.616 129.17 208.609 129.17 208.6 129.17C208.582 129.169 208.555 129.169 208.519 129.168C208.447 129.167 208.341 129.166 208.201 129.164C207.922 129.161 207.509 129.156 206.976 129.151C205.911 129.142 204.362 129.132 202.432 129.13C198.57 129.125 193.177 129.153 187.047 129.282C174.799 129.54 159.573 130.2 147.761 131.817L147.897 132.808L148.033 133.799C159.724 132.198 174.855 131.539 187.089 131.282C193.201 131.153 198.579 131.125 202.43 131.13C204.355 131.132 205.897 131.142 206.958 131.151C207.489 131.156 207.899 131.161 208.176 131.164C208.315 131.166 208.42 131.167 208.491 131.168C208.526 131.169 208.553 131.169 208.57 131.169C208.579 131.17 208.586 131.17 208.59 131.17C208.592 131.17 208.594 131.17 208.595 131.17C208.596 131.17 208.596 131.17 208.596 131.17C208.597 131.17 208.597 131.17 208.612 130.17ZM147.897 132.808L147.761 131.817C121.665 135.413 106.711 138.541 82.1113 148.021L82.4709 148.954L82.8305 149.887C107.247 140.478 122.042 137.38 148.034 133.799L147.897 132.808ZM82.4709 148.954L82.1119 148.021C71.1392 152.242 57.8157 159.169 47.2613 165.024C41.9783 167.954 37.3784 170.621 34.099 172.557C32.4591 173.524 31.1492 174.309 30.2487 174.852C29.7984 175.123 29.4506 175.335 29.215 175.478C29.0972 175.55 29.0075 175.604 28.9471 175.641C28.9169 175.66 28.894 175.674 28.8786 175.683C28.8709 175.688 28.8651 175.691 28.8612 175.694C28.8592 175.695 28.8577 175.696 28.8567 175.697C28.8562 175.697 28.8558 175.697 28.8555 175.697C28.8552 175.698 28.8551 175.698 29.3783 176.55C29.9015 177.402 29.9016 177.402 29.9017 177.402C29.902 177.402 29.9023 177.402 29.9027 177.401C29.9036 177.401 29.905 177.4 29.9068 177.399C29.9105 177.397 29.916 177.393 29.9235 177.389C29.9383 177.379 29.9606 177.366 29.9903 177.348C30.0496 177.311 30.1382 177.257 30.2549 177.186C30.4882 177.044 30.8338 176.835 31.2815 176.565C32.1771 176.024 33.4815 175.243 35.1153 174.279C38.3832 172.351 42.9673 169.692 48.2314 166.773C58.7711 160.926 71.9939 154.056 82.83 149.887L82.4709 148.954ZM117.725 122.255L117.606 121.262C88.168 124.798 71.3821 126.81 42.6729 134.427L42.9293 135.394L43.1858 136.36C71.751 128.781 88.4192 126.783 117.844 123.248L117.725 122.255ZM42.9293 135.394L42.6724 134.427C35.8982 136.228 27.3431 138.872 20.4918 141.063C17.064 142.159 14.0585 143.143 11.9099 143.853C10.8356 144.208 9.97532 144.494 9.38348 144.692C9.08756 144.791 8.85873 144.867 8.70378 144.919C8.6263 144.945 8.5673 144.965 8.52761 144.979C8.50776 144.985 8.49275 144.99 8.48267 144.994C8.47763 144.995 8.47382 144.997 8.47126 144.998C8.46999 144.998 8.46902 144.998 8.46836 144.999C8.46804 144.999 8.46778 144.999 8.46762 144.999C8.46744 144.999 8.46734 144.999 8.78702 145.946C9.10669 146.894 9.10675 146.894 9.10689 146.894C9.10704 146.894 9.10726 146.894 9.10756 146.894C9.10816 146.894 9.10908 146.893 9.1103 146.893C9.11276 146.892 9.11646 146.891 9.12139 146.889C9.13126 146.886 9.14606 146.881 9.16569 146.874C9.20495 146.861 9.26351 146.841 9.34053 146.815C9.49458 146.764 9.72246 146.687 10.0174 146.589C10.6073 146.392 11.4653 146.106 12.5373 145.752C14.6813 145.043 17.6805 144.062 21.1009 142.968C27.9463 140.779 36.4623 138.147 43.1862 136.36L42.9293 135.394ZM8.78702 145.946L7.87267 146.351C10.4913 152.264 13.6446 157.912 17.2799 163.187L18.1034 162.62L18.9268 162.053C15.3631 156.881 12.2703 151.342 9.70137 145.542L8.78702 145.946ZM18.1034 162.62L18.5494 163.515C25.39 160.106 29.1704 157.878 36.1487 154.664L35.7303 153.756L35.312 152.847C28.3157 156.07 24.3678 158.381 17.6573 161.725L18.1034 162.62ZM35.7303 153.756L36.1474 154.665C68.678 139.739 89.3695 136.114 124.918 130.631L124.765 129.642L124.613 128.654C89.0176 134.145 68.103 137.802 35.3133 152.847L35.7303 153.756ZM124.765 129.642L124.918 130.631C141.261 128.108 162.474 127.027 179.631 126.579C188.203 126.355 195.751 126.289 201.155 126.279C203.858 126.274 206.024 126.283 207.514 126.294C208.259 126.299 208.835 126.304 209.224 126.308C209.419 126.311 209.567 126.312 209.666 126.314C209.716 126.314 209.753 126.315 209.778 126.315C209.791 126.315 209.8 126.315 209.806 126.315C209.81 126.315 209.812 126.315 209.813 126.315C209.814 126.315 209.815 126.315 209.815 126.315C209.815 126.315 209.816 126.315 209.83 125.316C209.844 124.316 209.844 124.316 209.843 124.316C209.843 124.316 209.842 124.316 209.841 124.316C209.84 124.316 209.837 124.316 209.834 124.316C209.827 124.315 209.818 124.315 209.805 124.315C209.78 124.315 209.742 124.314 209.691 124.314C209.591 124.312 209.442 124.311 209.246 124.309C208.854 124.304 208.275 124.299 207.528 124.294C206.032 124.283 203.86 124.274 201.152 124.279C195.735 124.289 188.17 124.355 179.578 124.58C162.407 125.028 141.088 126.111 124.613 128.654L124.765 129.642ZM209.83 125.316L210.809 125.516C211.341 122.918 211.822 120.311 212.196 117.646L211.206 117.506L210.216 117.367C209.849 119.978 209.377 122.542 208.85 125.115L209.83 125.316ZM211.206 117.506C211.199 116.506 211.198 116.506 211.198 116.506C211.197 116.506 211.197 116.506 211.196 116.506C211.194 116.507 211.191 116.507 211.188 116.507C211.181 116.507 211.17 116.507 211.156 116.507C211.129 116.507 211.087 116.507 211.032 116.508C210.922 116.509 210.759 116.51 210.545 116.512C210.116 116.516 209.483 116.523 208.664 116.533C207.027 116.553 204.649 116.587 201.681 116.64C195.747 116.747 187.457 116.936 178.035 117.259C159.199 117.905 135.807 119.094 117.659 121.262L117.778 122.255L117.896 123.248C135.956 121.09 159.278 119.904 178.104 119.258C187.513 118.935 195.791 118.747 201.717 118.64C204.68 118.586 207.055 118.553 208.689 118.533C209.506 118.523 210.137 118.516 210.564 118.512C210.778 118.51 210.94 118.509 211.049 118.508C211.104 118.507 211.145 118.507 211.172 118.507C211.186 118.507 211.196 118.507 211.203 118.506C211.207 118.506 211.209 118.506 211.211 118.506C211.212 118.506 211.212 118.506 211.213 118.506C211.213 118.506 211.213 118.506 211.206 117.506ZM0 111.439L-0.997209 111.513C-0.46256 118.655 0.820369 125.58 2.6897 132.234L3.65243 131.964L4.61517 131.693C2.77913 125.157 1.52124 118.363 0.997209 111.364L0 111.439ZM3.65243 131.964L3.85923 132.942C44.2711 124.401 69.1096 120.187 111.355 116.445L111.267 115.449L111.179 114.453C68.836 118.203 43.9166 122.431 3.44564 130.986L3.65243 131.964ZM111.267 115.449L111.354 116.445C130.823 114.733 155.897 113.995 176.12 113.685C186.228 113.53 195.117 113.482 201.48 113.473C204.661 113.469 207.211 113.474 208.964 113.48C209.841 113.483 210.519 113.487 210.978 113.489C211.207 113.491 211.381 113.492 211.498 113.493C211.557 113.493 211.601 113.493 211.631 113.493C211.645 113.494 211.656 113.494 211.664 113.494C211.667 113.494 211.67 113.494 211.672 113.494C211.673 113.494 211.674 113.494 211.674 113.494C211.674 113.494 211.675 113.494 211.682 112.494C211.69 111.494 211.69 111.494 211.689 111.494C211.689 111.494 211.688 111.494 211.687 111.494C211.685 111.494 211.682 111.494 211.679 111.494C211.671 111.494 211.66 111.494 211.645 111.494C211.615 111.493 211.571 111.493 211.512 111.493C211.394 111.492 211.219 111.491 210.989 111.489C210.529 111.487 209.85 111.483 208.971 111.48C207.215 111.474 204.662 111.469 201.477 111.473C195.108 111.482 186.208 111.53 176.089 111.685C155.857 111.995 130.723 112.734 111.179 114.452L111.267 115.449ZM211.682 112.494L212.678 112.585C212.839 110.825 212.946 109.116 213 107.353L212 107.323L211 107.293C210.948 109.012 210.844 110.681 210.687 112.403L211.682 112.494ZM212 107.323L211.996 106.323L118.674 106.692L118.678 107.692L118.682 108.692L212.004 108.323L212 107.323ZM118.678 107.692L118.646 106.693L-0.0315511 110.439L0 111.439L0.0315511 112.438L118.709 108.692L118.678 107.692Z" fill="#4064DF" fill-opacity="0.8" mask="url(#path-1-inside-1_2655_16504)"/>
</svg>
