<svg width="26" height="29" viewBox="0 0 26 29" fill="none" xmlns="http://www.w3.org/2000/svg">
<path d="M2.84021 27.6042C4.27343 28.3158 6.00597 28.22 7.7186 27.3329C10.5769 25.8518 13.4388 24.1183 16.2067 22.441C18.6346 20.9698 21.1448 19.4488 23.6541 18.097C25.0285 17.1105 25.7999 15.6094 25.7718 13.9718C25.7438 12.327 24.9173 10.8477 23.5049 9.90817C20.9061 8.56356 18.3163 6.97661 15.8107 5.4403C13.0952 3.77559 10.2876 2.05481 7.48621 0.656854C6.29442 0.0618619 5.39198 -0.100902 4.15588 0.0564365C2.04538 0.324997 0.274871 2.33603 0.125671 4.63462C-0.0841135 7.85373 0.0117353 11.2609 0.104872 14.5569C0.188967 17.5617 0.276677 20.6678 0.134711 23.6472C0.468377 25.4973 1.42778 26.9007 2.84021 27.6033V27.6042ZM2.12133 4.67441L2.12314 4.65271C2.2208 3.43198 3.28781 2.2429 4.45247 2.05572C5.11709 1.94902 5.73017 2.03583 6.38303 2.3297L6.41468 2.34417L6.44452 2.36226C8.933 3.89495 11.5363 5.34988 14.0546 6.75688C16.5784 8.1675 19.188 9.62604 21.6919 11.1678C21.7832 11.2238 21.8745 11.2781 21.965 11.3314C22.5681 11.6877 23.192 12.0567 23.5275 12.8831C23.9633 13.9574 23.7599 15.198 23.0085 16.0435L22.956 16.1022L22.8891 16.1438C19.6239 18.173 16.2257 20.1144 12.9388 21.9907C10.7994 23.2123 8.58758 24.4755 6.43638 25.7496L6.40654 25.7659C5.96618 25.9901 5.5014 26.1023 5.04204 26.1023C4.58269 26.1023 4.10163 25.9829 3.67302 25.746C2.79047 25.2559 2.20905 24.3345 2.11772 23.281L2.11591 23.234L2.12043 4.6735L2.12133 4.67441Z" fill="white"/>
</svg>
