<svg width="41" height="52" viewBox="0 0 41 52" fill="none" xmlns="http://www.w3.org/2000/svg">
<path d="M10.1646 51.5919C7.02794 51.5919 3.91697 50.7334 0.967423 49.0055C0.0355997 48.4589 -0.276231 47.2629 0.266721 46.3311C0.809673 45.3993 2.0093 45.0838 2.94113 45.6304C9.24377 49.3173 14.8714 47.3656 18.4776 45.0801C25.9469 40.3476 31.0096 30.2516 30.2538 21.5901C29.8466 16.9383 27.5941 10.665 19.1783 7.20551C18.1805 6.79463 17.7036 5.65369 18.1144 4.65583C18.5253 3.65798 19.6663 3.18106 20.6641 3.59194C28.647 6.87534 33.4345 13.145 34.1462 21.2489C35.0377 31.4256 29.3257 42.8349 20.5687 48.3818C17.1936 50.517 13.6644 51.5882 10.1646 51.5882V51.5919ZM11.2322 44.3354C8.6678 44.3354 6.10346 43.5686 3.67485 42.0425C2.76137 41.4665 2.48622 40.2596 3.06219 39.3461C3.63816 38.4326 4.84513 38.1575 5.75861 38.7334C9.97382 41.3895 13.6388 40.4246 15.972 39.1516C20.7925 36.5213 24.3327 30.3433 24.3877 24.4626C24.4171 21.37 23.4816 17.1254 18.8592 14.484C17.9237 13.9484 17.5972 12.7561 18.1328 11.8169C18.6684 10.8778 19.8607 10.5549 20.7999 11.0906C25.6901 13.8824 28.3535 18.6442 28.2985 24.4993C28.2288 31.8255 23.9292 39.2617 17.8466 42.5818C15.7042 43.7521 13.47 44.3317 11.2322 44.3317V44.3354ZM33.2474 42.6552C32.8695 42.6552 32.4917 42.5451 32.1542 42.3176C31.259 41.7123 31.0242 40.498 31.6295 39.6029C36.4427 32.4858 41.6668 14.3006 27.0842 3.52224C26.2147 2.88023 26.0313 1.65859 26.6733 0.789134C27.3153 -0.0803232 28.5369 -0.263753 29.4064 0.378251C44.7998 11.7509 41.8686 31.4439 34.8689 41.7894C34.4911 42.347 33.8747 42.6478 33.2474 42.6478V42.6552Z" fill="#ED1C24"/>
</svg>
