<svg width="50" height="50" viewBox="0 0 50 50" fill="none" xmlns="http://www.w3.org/2000/svg">
<path d="M34.9303 2.05184C32.343 0.936358 29.462 0.246558 26.3659 0H23.5924C11.6263 0.630092 1.55955 10.0801 0.17384 21.9858C-0.854899 30.8225 2.72601 39.3404 9.75292 44.771C16.737 50.1678 25.8298 51.4786 34.0758 48.2762C40.7781 45.6736 46.0448 40.2044 48.5253 33.2713C50.9474 26.5025 50.3656 19.1247 46.9295 13.031C46.3406 11.9872 46.0293 11.7968 45.4166 12.108C45.1362 12.2499 45.0652 12.3953 45.0357 12.4923C44.8973 12.9503 45.3505 13.7489 45.6808 14.332C45.8066 14.5539 45.926 14.764 46.0174 14.9571C50.8772 25.2121 47.6891 37.4276 38.4374 44.0032C35.0174 46.4336 30.9735 47.8905 26.7426 48.2157C22.499 48.5417 18.2787 47.7121 14.5368 45.8155L14.2649 45.6778L14.2284 44.995L26.0146 33.1996L26.0595 33.1701C26.1207 33.1301 26.3371 32.965 26.5465 32.8048C26.8213 32.5948 27.1635 32.3342 27.4446 32.1319C27.8971 31.8067 28.1704 31.61 28.5 31.7596C29.3453 32.1424 29.0326 33.116 28.8647 33.6386C28.8148 33.7939 28.7466 34.006 28.7452 34.084C28.748 34.1739 28.8253 34.4324 28.883 34.5511L32.8686 38.5452C33.2073 38.7728 33.5797 38.7651 33.8995 38.5213L41.7274 30.6884C41.9713 30.4102 42.1406 30.0365 41.5988 29.3804C40.9271 28.5663 38.8141 26.4014 37.9961 25.7853C37.7748 25.6188 37.512 25.5001 37.3574 25.4966H37.3567C37.2506 25.4966 36.914 25.5992 36.713 25.6603C36.2275 25.8078 35.9633 25.8822 35.7194 25.8246C35.4559 25.7621 34.8165 25.2016 34.8572 24.7611L34.8685 24.6396L34.9317 24.5357C35.4278 23.7201 35.5023 23.4089 35.0512 22.8393C33.6226 21.5004 32.2299 20.0492 30.8828 18.6457C29.3952 17.0954 27.857 15.4917 26.2774 14.0503C23.2523 11.289 19.6644 10.3421 15.9015 11.3129C12.9656 12.0708 11.0641 14.0334 9.05093 16.1113C8.76423 16.407 8.4684 16.7125 8.16905 17.0153C7.93927 17.4066 7.97019 17.7789 8.26392 18.1497C8.67429 18.6689 10.1556 20.1517 10.6299 20.5177C10.9081 20.7326 11.1808 20.7902 11.5153 20.7052C11.6235 20.6778 11.854 20.4826 12.0226 20.3407C12.2482 20.1503 12.4808 19.9529 12.7429 19.8251C14.1447 19.1381 15.6731 19.3565 16.9351 20.4236C17.3525 20.7762 19.6594 22.9847 19.9588 23.7201C20.3144 24.594 20.2019 25.4671 19.6412 26.178L19.6215 26.2026L19.599 26.225L6.51773 39.2757L6.15795 38.7609C3.64794 35.1679 2.13505 31.1562 1.7823 27.1607C1.40847 22.9243 2.16667 18.7019 3.9754 14.9494C5.68715 11.3986 8.30818 8.30008 11.5553 5.98833C14.7687 3.70047 18.5035 2.25274 22.3543 1.80177C26.4376 1.3234 30.6334 1.983 34.4876 3.7089C34.7413 3.8227 35.1221 4.03624 35.5248 4.26313C35.9759 4.51671 36.7306 4.94099 36.9316 4.98243C37.3195 5.06251 37.708 4.92483 37.921 4.63192C38.0299 4.48229 38.1781 4.16971 37.9441 3.75597C37.8317 3.55788 37.0707 2.97555 34.9275 2.05114L34.9303 2.05184ZM17.9343 19.0524C16.1622 17.5393 13.6149 17.3258 11.5968 18.522L11.2489 18.7279L10.0628 17.5681L12.265 15.2803C13.8728 13.7623 15.8762 12.8336 17.9055 12.6665C20.1387 12.4824 22.3634 13.1252 24.1693 14.476L24.1988 14.4977L24.2248 14.5237L33.1202 23.3352L33.1504 23.3822C33.4504 23.8416 33.156 24.2877 33.0155 24.5019C32.9796 24.556 32.9347 24.6242 32.9213 24.6579C32.7801 24.9986 32.766 25.1686 32.8602 25.4341C33.026 25.7495 34.378 27.1466 34.7504 27.4417C35.2233 27.8168 35.4812 27.7458 36.0455 27.592C36.2823 27.5274 36.5514 27.4536 36.8662 27.4115L37.1227 27.377L39.9089 30.1341L33.3717 36.6753L30.6664 33.9688V33.7496C30.6692 33.3801 30.762 33.0584 30.8435 32.7746C30.9685 32.3405 31.029 32.0961 30.8934 31.7898C30.6868 31.487 29.1661 29.9375 28.9181 29.7541C28.3581 29.3446 27.895 29.6291 26.9716 30.3758C26.6259 30.6554 26.2675 30.9448 25.8909 31.1295L25.5536 31.2946L21.2152 26.9774L21.3846 26.6374C21.9931 25.4144 22.0106 24.0292 21.4323 22.8379C21.0304 22.0083 18.909 19.8876 17.9343 19.0545V19.0524ZM20.0438 28.2354L24.319 32.5133L12.3044 44.5392L11.9425 44.2891C10.495 43.2881 9.18022 42.1691 8.03484 40.9644L7.68068 40.5921L20.0438 28.2354Z" fill="white"/>
<path d="M42.0788 6.99423C41.5546 6.99423 41.128 7.42132 41.128 7.94605C41.128 8.47077 41.5546 8.89786 42.0788 8.89786C42.603 8.89786 43.0295 8.47077 43.0295 7.94605C43.0295 7.42132 42.603 6.99423 42.0788 6.99423Z" fill="white"/>
</svg>
