<svg width="14" height="20" viewBox="0 0 14 20" fill="none" xmlns="http://www.w3.org/2000/svg">
<path fill-rule="evenodd" clip-rule="evenodd" d="M6.44749 0.20921C6.74222 -0.0697366 7.22008 -0.0697366 7.51482 0.20921L13.7412 6.10208C13.9571 6.30636 14.0217 6.61359 13.9048 6.8805C13.788 7.14741 13.5128 7.32144 13.2076 7.32144H10.0755V19.0643C10.0755 19.4588 9.7376 19.7786 9.32078 19.7786C8.90396 19.7786 8.56606 19.4588 8.56606 19.0643V6.60716C8.56606 6.21267 8.90396 5.89287 9.32078 5.89287H11.3855L6.98115 1.72444L2.57679 5.89287H4.64153C5.05835 5.89287 5.39625 6.21267 5.39625 6.60716V19.0643C5.39625 19.4588 5.05835 19.7786 4.64153 19.7786C4.22471 19.7786 3.88682 19.4588 3.88682 19.0643V7.32144H0.754739C0.449484 7.32144 0.174287 7.14741 0.0574715 6.8805C-0.0593444 6.61359 0.005226 6.30636 0.221074 6.10208L6.44749 0.20921Z" fill="#D3DCFE"/>
</svg>
