<svg width="60" height="60" viewBox="0 0 60 60" fill="none" xmlns="http://www.w3.org/2000/svg">
<g clip-path="url(#clip0_1844_9422)">
<path d="M40 16.25C32.4188 16.25 26.25 22.4187 26.25 30C26.25 37.5812 32.4188 43.7499 40 43.7499C43.3575 43.7499 46.5887 42.5261 49.1025 40.305C49.62 39.8487 49.6688 39.0587 49.2113 38.5412C48.7551 38.025 47.965 37.9774 47.4475 38.4324C45.3913 40.2487 42.7463 41.25 40 41.25C33.7962 41.25 28.75 36.2037 28.75 30C28.75 23.7962 33.7962 18.75 40 18.75C46.2038 18.75 51.25 23.7962 51.25 30V48.75C51.25 49.44 50.69 50 50 50H10C9.31 50 8.74996 49.44 8.74996 48.75V21.2499C8.74996 20.5599 9.31 19.9999 10 19.9999H26.25C26.9413 19.9999 27.5001 19.4411 27.5001 18.7498C27.5001 18.0586 26.9413 17.4998 26.25 17.4998H10C7.93246 17.4998 6.25 19.1823 6.25 21.2498V48.75C6.25 50.8175 7.93246 52.5 10 52.5H50C52.0675 52.5 53.75 50.8175 53.75 48.75V30C53.7501 22.4187 47.5813 16.25 40 16.25Z" fill="#4064DF"/>
<path d="M58.75 9.99996H7.5C6.80871 9.99996 6.24996 10.5587 6.24996 11.25C6.24996 11.9413 6.80871 12.5 7.5 12.5H57.5V53.75C57.5 55.8176 55.8176 57.5 53.75 57.5H6.24996C4.18242 57.5 2.49996 55.8176 2.49996 53.75V6.24996C2.49996 4.18242 4.18242 2.49996 6.24996 2.49996H53.7424C54.37 2.50746 57.4999 2.72121 57.4999 6.24996C57.4999 6.94125 58.0587 7.5 58.75 7.5C59.4412 7.5 60 6.94125 60 6.24996C60 1.30629 55.9112 0 53.75 0H6.24996C2.80371 0 0 2.80371 0 6.24996V53.7499C0 57.1963 2.80371 60 6.24996 60H53.7499C57.1963 60 60 57.1963 60 53.75V11.25C60 10.5587 59.4412 9.99996 58.75 9.99996Z" fill="#747CA0"/>
<path d="M10 5H7.50004C6.80875 5 6.25 5.55875 6.25 6.25004C6.25 6.94121 6.80875 7.49996 7.50004 7.49996H10C10.6913 7.49996 11.25 6.94121 11.25 6.24992C11.25 5.55875 10.6913 5 10 5Z" fill="#747CA0"/>
<path d="M17.5 5H15C14.3087 5 13.75 5.55875 13.75 6.25004C13.75 6.94121 14.3087 7.49996 15 7.49996H17.5C18.1913 7.49996 18.75 6.94121 18.75 6.24992C18.75 5.55875 18.1913 5 17.5 5Z" fill="#747CA0"/>
<path d="M53.75 5H51.25C50.5588 5 50 5.55875 50 6.25004C50 6.94133 50.5588 7.50008 51.25 7.50008H53.75C54.4413 7.50008 55 6.94133 55 6.25004C54.9999 5.55875 54.4412 5 53.75 5Z" fill="#747CA0"/>
<path d="M44.6342 31.6162C44.1455 31.1275 43.3555 31.1275 42.8667 31.6162L41.2505 33.2325V23.75C41.2505 23.0588 40.6917 22.5 40.0004 22.5C39.3091 22.5 38.7504 23.0588 38.7504 23.75V33.2325L37.1341 31.6162C36.6453 31.1275 35.8554 31.1275 35.3666 31.6162C34.8778 32.105 34.8778 32.895 35.3666 33.3838L39.1153 37.1325C39.2303 37.2488 39.369 37.34 39.5228 37.4038C39.6752 37.4675 39.8378 37.5 40.0003 37.5C40.1628 37.5 40.3253 37.4675 40.4778 37.4038C40.6316 37.34 40.7703 37.2488 40.8853 37.1325L44.634 33.3838C45.1229 32.895 45.1229 32.105 44.6342 31.6162Z" fill="#4064DF"/>
</g>
<defs>
<clipPath id="clip0_1844_9422">
<rect width="60" height="60" fill="white"/>
</clipPath>
</defs>
</svg>
