<svg width="360" height="78" viewBox="0 0 360 78" fill="none" xmlns="http://www.w3.org/2000/svg">
<mask id="path-1-inside-1_2476_12634" fill="white">
<path d="M0 0H360V78H0V0Z"/>
</mask>
<path d="M360 78V77H0V78V79H360V78Z" fill="white" fill-opacity="0.1" mask="url(#path-1-inside-1_2476_12634)"/>
<g clip-path="url(#clip0_2476_12634)">
<path fill-rule="evenodd" clip-rule="evenodd" d="M96.166 25.9789C97.9707 24.1049 100.507 22.938 103.316 22.938C107.919 22.938 111.79 26.0728 112.913 30.325C112.913 30.325 109.437 30.3794 107.242 30.0778C104.809 29.7416 103.419 29.4499 101.13 28.5648C99.0931 27.7786 96.171 25.9789 96.171 25.9789M113.145 31.5117C113.111 31.2645 113.071 31.0222 113.017 30.7799C113.017 30.7799 108.136 30.8491 105.071 30.3745C101.748 29.8602 99.8101 29.5191 96.7544 28.1149C96.1018 27.8132 95.7408 27.5957 95.1079 27.2842C94.7717 27.7737 94.48 28.2978 94.2377 28.8466C94.2377 28.8466 96.171 29.4993 97.4269 29.8355C100.102 30.5475 101.669 30.7403 104.413 31.0667C107.795 31.4721 113.14 31.5117 113.14 31.5117M104.507 32.4313L113.224 32.4709C113.219 32.3077 113.209 32.1446 113.195 31.9814C113.195 31.9814 107.459 32.0259 103.815 31.7045C99.8645 31.3535 97.5356 30.9579 93.763 30.1569C93.59 30.775 93.4713 31.4177 93.4219 32.0803L104.507 32.4313ZM96.166 39.4821C97.9707 41.356 100.507 42.5229 103.311 42.5229C107.914 42.5229 111.785 39.3881 112.908 35.1359C112.908 35.1359 109.432 35.0815 107.237 35.3832C104.804 35.7194 103.415 36.0111 101.125 36.8961C99.0882 37.6823 96.166 39.4821 96.166 39.4821ZM104.418 34.3943C101.669 34.7255 100.107 34.9134 97.4318 35.6254C96.171 35.9617 94.2426 36.6143 94.2426 36.6143C94.4849 37.1631 94.7766 37.6873 95.1129 38.1768C95.7458 37.8603 96.1067 37.6477 96.7594 37.3461C99.8101 35.9419 101.753 35.6007 105.076 35.0865C108.141 34.6118 113.022 34.681 113.022 34.681C113.071 34.4388 113.116 34.1965 113.15 33.9493C113.15 33.9493 107.805 33.9888 104.423 34.3943M93.4219 33.3807C93.4713 34.0432 93.59 34.686 93.763 35.304C97.5406 34.503 99.8645 34.1075 103.815 33.7564C107.459 33.4351 113.195 33.4796 113.195 33.4796C113.209 33.3164 113.219 33.1582 113.224 32.995L104.507 33.0296L93.4219 33.3807Z" fill="#E42313"/>
<path d="M124.828 41.9691C130.425 41.9691 135.192 37.9987 136.522 33.0296C137.204 30.4931 136.819 28.1099 135.444 26.32C134.129 24.6092 132.067 23.6649 129.634 23.6649C124.655 23.6649 119.523 27.7094 118.188 32.6785L114.148 47.759L119.221 45.1236L122.46 33.0345C123.207 30.2508 126.069 27.9863 128.843 27.9863C130.074 27.9863 131.103 28.4461 131.741 29.2768C132.418 30.1618 132.601 31.3683 132.25 32.6785C131.503 35.4622 128.606 37.8059 125.867 37.7268C123.128 37.6477 122.455 36.5352 122.455 36.5352L121.318 40.6489C121.318 40.6489 122.035 41.979 124.828 41.979" fill="white"/>
<path fill-rule="evenodd" clip-rule="evenodd" d="M231.857 23.6204C230.917 23.6204 230.121 24.3422 230.121 25.3212C230.121 26.3002 230.917 27.032 231.857 27.032C232.796 27.032 233.582 26.3101 233.582 25.3212C233.582 24.3324 232.786 23.6204 231.857 23.6204ZM231.857 26.7502C231.075 26.7502 230.467 26.147 230.467 25.3262C230.467 24.5054 231.075 23.9071 231.857 23.9071C232.638 23.9071 233.236 24.5153 233.236 25.3262C233.236 26.1371 232.628 26.7502 231.857 26.7502ZM232.643 24.9059C232.643 24.5153 232.41 24.3472 231.946 24.3472H231.194V26.3151H231.491V25.4597H231.832L232.351 26.3151H232.687L232.129 25.4498C232.415 25.4152 232.638 25.2619 232.638 24.9059M231.496 25.2075V24.5994H231.901C232.109 24.5994 232.331 24.6439 232.331 24.8861C232.331 25.1877 232.104 25.2075 231.852 25.2075H231.496Z" fill="white"/>
<path fill-rule="evenodd" clip-rule="evenodd" d="M142.055 30.6612C143.355 28.9752 145.372 27.8676 147.286 27.8676H149.807L149.941 27.3584L150.732 24.4115L150.964 23.5462H148.077C143.098 23.5462 137.966 27.5907 136.631 32.5599C135.948 35.0964 136.334 37.4796 137.703 39.2695C139.019 40.9802 141.081 41.9246 143.513 41.9246H146.035L146.168 41.4153L146.959 38.4685L147.192 37.6032H144.304C142.46 37.6032 141.125 36.5698 140.804 34.9629H140.818H147.35H147.874L148.013 34.4536L148.804 31.5067L149.036 30.6414H142.079L142.055 30.6612Z" fill="white"/>
<path fill-rule="evenodd" clip-rule="evenodd" d="M154.044 37.6032L152.481 37.618L152.58 37.5884L154.177 31.4672L154.41 30.6019H150.044L149.905 31.1112L147.24 41.0593L147.008 41.9246H153.263C158.242 41.9246 163.374 37.8801 164.709 32.9109C165.386 30.3744 165.006 27.9912 163.631 26.1964C162.316 24.4856 160.254 23.5413 157.821 23.5413H151.937L151.799 24.0505L151.008 26.9974L150.775 27.8627H157.03C158.251 27.8627 159.27 28.3176 159.903 29.1383C160.58 30.0234 160.758 31.2348 160.407 32.5549C159.661 35.3386 156.798 37.6032 154.024 37.6032" fill="white"/>
<path fill-rule="evenodd" clip-rule="evenodd" d="M176.871 29.4597C177.292 27.8825 177.049 26.3991 176.194 25.2767C175.373 24.1989 174.088 23.6055 172.575 23.6055L167.161 23.5907L166.009 27.9072H171.799C172.12 27.9072 172.372 28.011 172.53 28.2137C172.698 28.4313 172.738 28.7477 172.644 29.1037C172.417 29.9492 171.527 30.6612 170.696 30.6612H170.666L165.376 30.6711L162.34 42.0383H166.701L168.595 34.9431H169.316L171.517 42.0383H176.155L173.643 33.7762C173.643 33.7762 176.372 31.3337 176.871 29.4597Z" fill="white"/>
<path fill-rule="evenodd" clip-rule="evenodd" d="M202.902 32.5747C202.224 35.1112 202.605 37.4944 203.975 39.2843C205.29 40.9951 207.352 41.9592 209.784 41.9592H210.852L212.014 37.623H210.571C209.339 37.623 208.311 37.1631 207.673 36.3325C206.996 35.4474 206.818 34.241 207.164 32.9307L209.676 23.5511H205.31L202.892 32.5747H202.902Z" fill="white"/>
<path fill-rule="evenodd" clip-rule="evenodd" d="M193.894 32.5797C193.217 35.1161 193.597 37.4994 194.967 39.2892C196.282 41 198.344 41.9444 200.777 41.9444L200.613 41.9246L200.777 41.9642H201.845L203.007 37.6279H201.563C200.332 37.6279 199.303 37.1681 198.665 36.3374C197.988 35.4524 197.805 34.2459 198.156 32.9357L200.668 23.5561H196.302L193.884 32.5797H193.894Z" fill="white"/>
<path fill-rule="evenodd" clip-rule="evenodd" d="M229.027 26.2459C227.712 24.5351 225.65 23.5907 223.217 23.5907C218.243 23.5907 213.111 27.6303 211.781 32.5945C211.103 35.131 211.484 37.5142 212.854 39.3041C214.169 41.0148 216.231 41.9592 218.663 41.9592C223.637 41.9592 228.77 37.9196 230.1 32.9554C230.777 30.4189 230.396 28.0357 229.027 26.2459ZM225.833 32.5994C225.086 35.3831 222.228 37.6427 219.454 37.6427C218.223 37.6427 217.195 37.1829 216.557 36.3522C215.88 35.4672 215.702 34.2608 216.053 32.9505C216.799 30.1668 219.657 27.9072 222.431 27.9072C223.662 27.9072 224.691 28.367 225.328 29.1977C226.006 30.0827 226.189 31.2892 225.838 32.5994" fill="white"/>
<path fill-rule="evenodd" clip-rule="evenodd" d="M192.761 26.2805C191.446 24.5697 189.384 23.6253 186.951 23.6253C181.977 23.6253 176.845 27.6649 175.515 32.6291C174.838 35.1656 175.218 37.5488 176.588 39.3387C177.903 41.0494 179.965 41.9938 182.398 41.9938C187.372 41.9938 192.504 37.9542 193.834 32.99C194.512 30.4535 194.131 28.0703 192.761 26.2805ZM189.567 32.634C188.82 35.4177 185.958 37.6773 183.189 37.6773C181.958 37.6773 180.929 37.2175 180.291 36.3869C179.614 35.5018 179.431 34.2954 179.782 32.9851C180.529 30.2014 183.392 27.9418 186.16 27.9418C187.387 27.9418 188.42 28.4016 189.058 29.2323C189.735 30.1173 189.913 31.3238 189.567 32.634Z" fill="white"/>
<path d="M225.169 50.8938C225.169 50.8938 225.609 49.3215 225.263 48.5699C225.045 48.1496 224.536 47.8629 223.928 47.8134C223.433 47.7739 222.677 47.8728 221.861 48.5699C221.356 48.9951 220.931 49.6972 220.699 50.4884C220.471 51.2547 220.466 51.9667 220.679 52.3969C220.946 52.921 221.539 53.2325 222.266 53.2325C222.993 53.2325 223.695 52.9507 224.18 52.481C224.585 52.125 224.986 51.3289 224.986 51.3289H223.972C223.972 51.3289 223.29 52.3475 222.444 52.3475C221.935 52.3475 221.742 52.0755 221.618 51.8085C221.495 51.4575 221.628 50.8888 221.628 50.8888H225.169V50.8938ZM222.573 49.0693L222.583 49.0594C222.874 48.7726 223.285 48.6243 223.68 48.6639C224.051 48.6985 224.229 48.8962 224.313 49.0297C224.402 49.1632 224.476 49.6181 224.368 50.0087C224.076 50.0087 222.85 50.0087 221.92 50.0087C221.811 50.0087 222.439 49.1632 222.568 49.0693M172.802 50.7652C172.802 50.7652 173.242 49.2572 172.896 48.5402C172.679 48.1397 172.169 47.8629 171.561 47.8184C171.067 47.7788 170.31 47.8777 169.494 48.5452C168.99 48.9556 168.565 49.628 168.332 50.3845C168.105 51.1163 168.1 51.8036 168.313 52.214C168.58 52.7183 169.173 53.015 169.9 53.015C170.627 53.015 171.329 52.748 171.813 52.2931C172.219 51.9519 172.619 51.1855 172.619 51.1855H171.606C171.606 51.1855 170.923 52.1596 170.078 52.1596C169.569 52.1596 169.376 51.8975 169.252 51.6404C169.129 51.3042 169.262 50.7603 169.262 50.7603H172.802V50.7652ZM170.206 49.0149L170.216 49.005C170.508 48.7281 170.918 48.5897 171.319 48.6243C171.69 48.6589 171.868 48.8468 171.952 48.9754C172.041 49.1039 172.115 49.539 172.006 49.9148C171.714 49.9148 170.488 49.9148 169.559 49.9148C169.45 49.9148 170.078 49.1039 170.206 49.0149ZM184.783 48.0161C184.54 47.8826 184.199 47.8085 183.813 47.8085C183.457 47.8085 183.116 47.8777 182.879 47.9964C182.666 48.1002 182.296 48.3425 182.296 48.3474L182.3 48.3326L182.409 47.937H181.514L179.556 54.6417L179.517 54.7702H180.511L180.53 54.6961L181.178 52.4908C181.237 52.57 181.312 52.6491 181.406 52.7183C181.499 52.7875 181.851 53.0248 182.439 53.0248C183.027 53.0248 183.576 52.8122 184.105 52.3969C184.718 51.9272 185.232 51.0471 185.406 50.1472C185.613 49.1534 185.376 48.3573 184.773 48.0211M183.581 51.6305C183.294 51.9074 182.904 52.0656 182.508 52.0557C182.167 52.0458 181.885 51.8975 181.766 51.6701C181.608 51.3388 181.588 50.1521 182.464 49.188C182.716 48.916 183.096 48.743 183.477 48.7133C183.853 48.6886 184.15 48.827 184.268 49.0792C184.619 49.8357 184.105 51.1262 183.581 51.6305ZM200.333 47.9469C200.333 47.9469 200.259 48.204 200.209 48.4018C199.957 48.026 199.576 47.8233 199.067 47.8085C198.271 47.7838 197.44 48.382 197.213 48.5946C196.689 49.1237 196.293 49.9642 196.056 50.7652C195.65 52.1497 196.491 53.2078 197.386 53.2276C198.029 53.2374 198.582 52.9259 199.008 52.6095C198.874 52.9161 198.741 53.722 197.964 54.0236C197.747 54.1077 197.509 54.1423 197.267 54.1423C197.06 54.1423 196.886 54.0978 196.743 54.0434C196.293 53.8703 196.466 53.3561 196.466 53.3561H195.482C195.482 53.3561 195.121 54.4587 196.174 54.8889C196.461 55.0076 196.822 55.1015 197.277 55.0372C199.067 54.9235 199.616 53.7072 200.145 52.1151L201.322 47.9469H200.328H200.333ZM198.805 51.9321C198.488 52.1942 198.118 52.3227 197.796 52.2881C197.465 52.2683 197.218 52.1052 197.094 51.8233C196.975 51.5316 197 51.0965 197.158 50.5922C197.302 50.1472 197.529 49.7319 197.683 49.5341C198.103 48.9754 198.577 48.8666 198.904 48.8715C199.28 48.8814 199.547 49.0594 199.576 49.1336V49.1435L199.586 49.1534C199.942 49.6775 199.576 51.2893 198.8 51.9371M208.372 48.4018C208.002 47.9123 207.393 47.8085 206.948 47.8085C206.266 47.8085 204.605 48.0705 203.922 50.4834C203.655 51.4377 203.7 52.1596 204.056 52.6342C204.348 53.0149 204.852 53.2276 205.48 53.2276C206.162 53.2276 207.828 52.9655 208.511 50.5427C208.778 49.5934 208.733 48.8715 208.377 48.4018M207.512 50.4834C207.275 51.3289 206.602 52.2387 205.697 52.2387C205.396 52.2387 205.168 52.1398 205.02 51.947C204.753 51.591 204.793 50.9877 204.916 50.5427C205.154 49.7022 205.821 48.7974 206.726 48.7974C207.032 48.7974 207.26 48.8962 207.408 49.0891C207.675 49.4401 207.631 50.0384 207.507 50.4834M161.479 51.8876C161.47 51.9222 161.465 51.9717 161.479 51.9964C161.504 52.0261 161.613 52.0854 162.058 52.0112L162.221 51.9816L161.964 52.9309C161.964 52.9309 161.331 53.0298 161.01 53.0001C160.723 52.9704 160.575 52.8221 160.5 52.7084C160.382 52.5255 160.372 52.2931 160.412 52.1447L161.415 48.4364H160.738L161 47.4673H161.667L162.048 46.0928H163.042L162.676 47.4673H163.442L163.18 48.4364H162.414L161.484 51.8827L161.479 51.8876ZM167.878 49.2572V49.2473L166.815 53.015H165.821C165.821 53.015 166.795 49.5687 166.795 49.5637C166.988 48.9951 166.765 48.8814 166.681 48.8419C166.429 48.7133 166.206 48.6787 165.959 48.7232C165.732 48.7627 165.47 48.8864 165.119 49.1187C164.916 49.277 164.768 49.3956 164.654 49.7862L163.739 53.015H162.745L164.708 46.0581H165.702L165.049 48.3721C165.049 48.3721 165.306 48.1348 165.831 47.942C166.098 47.853 166.335 47.8085 166.557 47.8085C166.839 47.8085 167.106 47.8678 167.334 47.9815C167.571 48.0755 167.739 48.2337 167.838 48.4562C167.976 48.7776 167.917 49.1385 167.868 49.2572M180.1 48.2831C180.313 48.56 180.357 48.9506 180.224 49.4352L180.204 49.5143H179.225C179.225 49.5143 179.334 49.0742 179.245 48.9556C179.136 48.8122 178.874 48.738 178.473 48.738C178.028 48.738 177.638 48.9852 177.47 49.2127C177.381 49.3363 177.341 49.4599 177.361 49.5637C177.376 49.633 177.415 49.6874 177.485 49.7269C177.687 49.8604 178.009 49.9445 178.419 50.0532C178.419 50.0532 178.488 50.073 178.478 50.0681C178.829 50.1274 179.23 50.2214 179.537 50.4537C179.907 50.7158 179.996 51.2251 179.759 51.7788C179.532 52.3178 179.062 52.7776 178.503 53.0001C178.231 53.1089 177.895 53.1781 177.519 53.2127C177.193 53.2127 176.852 53.2127 176.58 53.1435C176.199 53.0496 175.927 52.8666 175.774 52.6046C175.601 52.3079 175.581 51.9222 175.719 51.4327L175.739 51.3536H176.684L176.654 51.4822C176.56 51.9025 176.718 52.1546 177.158 52.303C177.307 52.3524 177.549 52.3524 177.781 52.3524C178.024 52.2931 178.276 52.2288 178.414 52.1447C178.612 52.0261 178.785 51.8085 178.839 51.6157C178.904 51.3783 178.815 51.2201 178.562 51.1262L178.152 51.0223C177.668 50.9037 177.163 50.7801 176.876 50.6268C176.545 50.4884 176.209 50.1521 176.446 49.3215C176.743 48.2732 177.846 47.7936 178.745 47.7936C179.403 47.7936 179.858 47.9519 180.1 48.2683M188.293 48.9358C187.69 49.2028 187.329 49.6231 187.106 50.4142L186.37 53.015H185.376L186.81 47.9469H187.804L187.67 48.4265C187.67 48.4265 188.1 47.8431 188.827 47.8085H189.401L189.109 48.832C189.109 48.832 188.832 48.6985 188.298 48.9358M190.993 47.9469L189.559 53.015H188.565L189.999 47.9469H190.993ZM191.195 47.23H190.202L190.533 46.0581H191.527L191.195 47.23ZM195.828 49.1484V49.1583V49.1632L194.741 53.015H193.747L194.741 49.5044C194.81 49.272 194.795 49.0792 194.696 48.9457C194.592 48.8023 194.39 48.7232 194.132 48.7232C193.831 48.7232 192.827 48.8419 192.417 50.3598L191.665 53.0199H190.671L192.1 47.9519H193.094L192.99 48.3227L193.43 48.0508C193.786 47.8283 194.261 47.8085 194.513 47.8134C194.84 47.8233 195.181 47.8826 195.324 47.9618C195.527 48.0903 195.942 48.3573 195.833 49.1583M212.466 46.068L212.575 46.0928L212.338 46.9333L212.249 46.9234C211.794 46.869 211.557 46.9234 211.428 47.3635L211.265 47.942H212.041L211.779 48.8616H211.003L209.831 53.0051H208.837L210.004 48.8616H209.351L209.613 47.937H210.271L210.479 47.1904C210.701 46.3944 211.463 46.068 211.641 46.0532C211.918 46.0038 212.185 46.0038 212.466 46.0631M216.709 46.1916L214.805 52.9358L214.785 53.01H213.791L213.831 52.8765L215.735 46.1323L215.754 46.0581H216.748L216.709 46.1916ZM218.217 48.0804L216.842 52.9358L216.822 53.01H215.829L215.868 52.8765L217.243 48.0211L217.262 47.9469H218.256L218.217 48.0804ZM217.599 47.23H217.46L217.5 47.0965L217.772 46.1323L217.791 46.0581H218.785L218.746 46.1916L218.474 47.1558L218.454 47.2349H217.599V47.23ZM221.836 46.1125L221.599 46.9531L221.51 46.9432C221.055 46.8888 220.817 46.9432 220.689 47.3833L220.531 47.942H221.307L221.045 48.8616H220.269L219.097 53.0051H218.103L219.27 48.8616H218.617L218.879 47.937H219.537L219.74 47.2102C219.967 46.4141 220.724 46.0878 220.902 46.073C221.178 46.0235 221.445 46.0235 221.722 46.0829L221.836 46.1076V46.1125Z" fill="white"/>
</g>
<rect x="287" y="28" width="33" height="4" rx="2" fill="white"/>
<rect x="287" y="37" width="33" height="4" rx="2" fill="white"/>
<rect x="287" y="46" width="33" height="4" rx="2" fill="white"/>
<defs>
<clipPath id="clip0_2476_12634">
<rect width="140.155" height="32.1239" fill="white" transform="translate(93.4219 22.938)"/>
</clipPath>
</defs>
</svg>
