<svg width="12" height="35" viewBox="0 0 12 35" fill="none" xmlns="http://www.w3.org/2000/svg">
<path d="M2.32131 2.44575C2.71476 3.22218 3.38361 3.61039 4.13115 3.90155C4.20984 3.95978 4.3082 4.01802 4.34754 4.09566C4.62295 4.69739 4.89836 5.35736 5.17377 5.95909C5.27213 6.21143 5.35082 6.42494 5.44918 6.69669C5.13443 6.28907 4.83934 5.95909 4.54426 5.62911C4.03279 5.02737 3.42295 4.58093 2.59672 4.46446C1.75082 4.30918 0.904918 4.38682 0.0786886 4.61975C0.0786886 4.63916 0.0393438 4.63916 0 4.67798C0.196721 4.98855 0.393443 5.29912 0.590164 5.59028C1.02295 6.13378 1.53443 6.59964 2.24262 6.83257C3.22623 7.14314 4.24918 7.22078 5.27213 7.04609C5.37049 7.02668 5.44918 7.00727 5.54754 6.98785C6.05902 8.44366 6.45246 9.86064 6.7082 11.3553C6.53115 11.0835 6.3541 10.7535 6.17705 10.4818C5.72459 9.76359 5.19344 9.18126 4.36721 8.90952C3.71803 8.696 3.08852 8.59894 2.41967 8.59894C2.20328 8.59894 1.98689 8.61835 1.73115 8.61835C1.86885 8.8901 1.94754 9.16185 2.0459 9.39478C2.36066 10.0742 2.7541 10.6565 3.40328 11.0447C4.17049 11.5494 5.03607 11.7823 5.94098 11.8794C6.21639 11.8988 6.53115 11.9376 6.82623 11.957C7.08197 13.4322 7.23934 14.9462 7.25902 16.4603C7.21967 16.402 7.2 16.3438 7.18033 16.2662C7.08197 15.9944 6.96393 15.6839 6.8459 15.3927C6.51148 14.5192 5.92131 13.8398 5.03607 13.4322C4.42623 13.1799 3.77705 13.0052 3.12787 12.9081C3.00984 12.9081 2.91148 12.8887 2.77377 12.8499V13.0052C2.81312 13.141 2.83279 13.3157 2.87213 13.4904C3.06885 14.3639 3.42295 15.1986 4.19016 15.7809C5.01639 16.4215 5.94098 16.8291 6.94426 17.0426C7.06229 17.062 7.16066 17.062 7.27869 17.1008C7.29836 18.6537 7.18033 20.1871 6.90492 21.7012C6.78689 21.1965 6.7082 20.7306 6.59016 20.2454C6.43279 19.566 6.09836 18.9837 5.56721 18.5178C4.89836 17.9743 4.13115 17.6055 3.30492 17.3144C3.22623 17.3144 3.12787 17.2561 2.99016 17.2367C3.00984 17.6832 3.02951 18.052 3.06885 18.4402C3.14754 19.139 3.34426 19.7795 3.81639 20.3036C4.58361 21.1771 5.52787 21.8565 6.66885 22.2253C6.7082 22.2253 6.74754 22.2447 6.78688 22.2835C6.51148 23.7005 6.11803 25.0786 5.60656 26.418C5.58688 26.1656 5.60656 25.9327 5.60656 25.6998C5.60656 24.8845 5.44918 24.1275 4.95738 23.487C4.54426 22.9629 4.03279 22.5358 3.48197 22.2058C3.18688 22.0117 2.87213 21.8565 2.55738 21.6818C2.51803 21.8176 2.49836 21.9341 2.47869 22.0312C2.30164 23.0405 2.30164 24.011 2.83279 24.9039C3.26557 25.6415 3.85574 26.2627 4.54426 26.8062C4.8 27.0003 5.05574 27.1556 5.33115 27.3303C4.81967 28.6114 4.24918 29.8537 3.56066 31.0571C3.56066 30.9795 3.56066 30.9407 3.56066 30.8824C3.6 30.533 3.63934 30.1836 3.67869 29.8537C3.7377 29.2325 3.61967 28.6308 3.32459 28.0873C2.97049 27.4467 2.47869 26.8838 1.9082 26.418C1.6918 26.2433 1.49508 26.088 1.25902 25.8939C0.963935 26.6121 0.767214 27.2915 0.767214 28.0097C0.767214 28.4173 0.786885 28.8249 0.944263 29.2131C1.35738 30.2613 2.00656 31.193 2.8918 31.9694C2.99016 32.0277 2.97049 32.0859 2.93115 32.183C2.34098 33.1341 1.71148 34.0464 1.04262 34.9393C1.04262 34.9393 1.16066 35.1916 1.98689 34.6675C2.16393 34.3764 2.38033 34.1046 2.55738 33.794C2.95082 33.1923 3.32459 32.5906 3.67869 31.9888C3.75738 31.8336 3.83607 31.7947 4.01311 31.8336C5.09508 32.0665 6.19672 32.0665 7.25902 31.7753C8.0459 31.5812 8.63607 31.096 9.16721 30.533C9.38361 30.2807 9.58033 29.9507 9.79672 29.6984C9.81639 29.6402 9.81639 29.6207 9.85574 29.5819C9.83607 29.5625 9.79672 29.5237 9.77705 29.5237C8.91148 29.2519 8.02623 29.0967 7.12131 29.1743C6.19672 29.2325 5.46885 29.6596 4.83934 30.2807C4.68197 30.436 4.56393 30.5525 4.38688 30.6883C4.38688 30.6301 4.42623 30.5913 4.4459 30.533C5.01639 29.4266 5.52787 28.2426 5.94098 27.0585C5.98033 26.9421 6.03934 26.9032 6.15738 26.9032C7.23934 26.9809 8.28197 26.7868 9.28525 26.3597C10.0525 26.0103 10.5836 25.4474 10.9967 24.7681C11.1934 24.4575 11.3311 24.0887 11.5279 23.7199C11.1738 23.7199 10.8393 23.6617 10.5246 23.6617C9.89508 23.6422 9.26557 23.6811 8.67541 23.8558C7.84918 24.1081 7.25902 24.5934 6.76721 25.2533C6.64918 25.3892 6.55082 25.5251 6.45246 25.6804C6.74754 24.3604 7.06229 23.0599 7.37705 21.74C7.86885 21.6235 8.4 21.5265 8.8918 21.3518C9.65902 21.0994 10.3672 20.7306 10.9377 20.1289C11.4295 19.6048 11.941 18.4596 12 17.7414H11.9803C10.8984 17.7608 9.87541 17.9549 8.95082 18.5178C8.4 18.8478 8.02623 19.3913 7.73115 19.9736C7.65246 20.0901 7.59344 20.226 7.51475 20.3618C7.63279 19.0613 7.6918 17.7608 7.59344 16.4603C8.2623 16.2662 8.87213 16.0138 9.44262 15.645C10.2492 15.1209 10.9574 14.4998 11.2525 13.5487C11.4098 13.044 11.5082 12.5199 11.5279 11.9958C11.5279 11.9376 11.5279 11.8988 11.5279 11.7823C11.0361 11.957 10.6033 12.054 10.1705 12.2093C9.58033 12.4617 9.00984 12.7528 8.57705 13.2381C8.18361 13.6457 7.96721 14.1504 7.79016 14.6745C7.71147 14.9268 7.65246 15.1598 7.53443 15.3927C7.53443 15.315 7.53443 15.2956 7.51475 15.218C7.43607 13.9563 7.25902 12.714 7.00328 11.4717C6.98361 11.3553 7.00328 11.2582 7.12131 11.2C8.12459 10.7147 8.95082 10.0353 9.58033 9.10362C10.0131 8.46307 10.1115 7.74487 10.0918 6.98785C10.0918 6.69669 10.0328 6.44436 10.0131 6.09496C9.61967 6.28907 9.28525 6.44436 8.97049 6.61905C8.28197 7.00727 7.6918 7.47312 7.27869 8.17191C6.96393 8.696 6.88525 9.29773 6.82623 9.89946C6.82623 10.0936 6.82623 10.2877 6.76721 10.443C6.76721 10.3847 6.74754 10.3459 6.7082 10.2877C6.39344 9.02598 6 7.76428 5.5082 6.54141C5.44918 6.42494 5.44918 6.3473 5.58688 6.28907C6.43279 5.68734 7.10164 4.93032 7.5541 3.99861C7.92787 3.261 7.92787 2.50398 7.77049 1.72755C7.71148 1.4558 7.63279 1.18405 7.5541 0.892893C7.00328 1.20346 6.51148 1.59168 6.07869 2.05754C5.40984 2.75632 5.05574 3.55216 5.13443 4.56152C5.13443 4.93032 5.19344 5.29912 5.21311 5.72616C5.17377 5.66793 5.1541 5.64852 5.1541 5.60969C4.87869 5.0662 4.62295 4.50328 4.34754 3.94037C4.32787 3.86273 4.3082 3.78509 4.32787 3.72686C4.34754 3.22218 4.32787 2.7175 4.20984 2.23223C4.0918 1.86343 3.9541 1.47521 3.65902 1.20346C3.32459 0.854071 2.91148 0.582321 2.49836 0.349393C2.28197 0.194107 2.0459 0.0970535 1.80984 0C1.77049 0 1.75082 0.0194107 1.71148 0.0194107C1.71148 0.194107 1.77049 0.368803 1.77049 0.56291C1.80984 1.24229 1.96721 1.90225 2.28197 2.48457L2.32131 2.44575Z" fill="white" fill-opacity="0.3"/>
</svg>
