<svg width="20" height="20" viewBox="0 0 20 20" fill="none" xmlns="http://www.w3.org/2000/svg">
<path d="M19.4057 19.4424C18.7151 20.162 17.575 20.1899 16.8566 19.4982C16.838 19.4796 16.8195 19.461 16.801 19.4424L6.43303 9.05736C5.88613 9.29412 5.29751 9.41947 4.69963 9.42411C2.11808 9.38697 0.0324432 7.29788 0 4.71205C0.00926949 4.06212 0.152947 3.41682 0.426397 2.82723L0.560804 2.51155L3.34165 5.297C3.85147 5.83552 4.70427 5.85409 5.2419 5.34342C5.2558 5.3295 5.27434 5.31093 5.28824 5.297C5.82588 4.78633 5.84905 3.93677 5.33923 3.39825C5.32069 3.37968 5.30215 3.36111 5.28824 3.34718L2.5074 0.561733L2.82256 0.427102C3.41117 0.1532 4.0554 0.00928484 4.70427 0C7.28582 0.0371393 9.37146 2.12623 9.4039 4.71205C9.39926 5.31093 9.27413 5.90051 9.03775 6.44832L19.4057 16.8334C20.1241 17.5251 20.1519 18.6672 19.4613 19.3867C19.4428 19.4053 19.4242 19.4239 19.4057 19.4424Z" fill="white"/>
</svg>
