<svg width="59" height="58" viewBox="0 0 59 58" fill="none" xmlns="http://www.w3.org/2000/svg">
<path fill-rule="evenodd" clip-rule="evenodd" d="M8.17603 9.0053C13.5531 3.45569 21.1104 0 29.4779 0C43.193 0 54.7278 9.28351 58.0719 21.8763C58.0719 21.8763 47.7156 22.0374 41.1748 21.1442C33.9268 20.1484 29.7873 19.2845 22.9665 16.6635C16.8971 14.3353 8.19076 9.0053 8.19076 9.0053M58.7643 25.3906C58.6612 24.6584 58.5433 23.9409 58.3813 23.2234C58.3813 23.2234 43.8412 23.4284 34.7076 22.0227C24.808 20.4999 19.0332 19.4895 9.92909 15.331C7.98452 14.4378 6.90911 13.7935 5.02347 12.871C4.02172 14.3206 3.15256 15.8728 2.43071 17.4981C2.43071 17.4981 8.19076 19.431 11.9326 20.4267C19.9024 22.5352 24.5723 23.1063 32.7483 24.0727C42.8247 25.2734 58.7496 25.3906 58.7496 25.3906M33.0282 28.1141L59 28.2313C58.9853 27.748 58.9558 27.2648 58.9116 26.7816C58.9116 26.7816 41.823 26.9134 30.9658 25.9616C19.1953 24.922 12.2567 23.7506 1.01648 21.3784C0.500874 23.2088 0.147316 25.1123 0 27.0745L33.0282 28.1141ZM8.17603 48.9947C13.5531 54.5443 21.1104 58 29.4632 58C43.1783 58 54.7131 48.7165 58.0572 36.1237C58.0572 36.1237 47.7009 35.9626 41.1601 36.8558C33.9121 37.8516 29.7725 38.7155 22.9518 41.3365C16.8824 43.6647 8.17603 48.9947 8.17603 48.9947ZM32.763 33.9273C24.5723 34.9084 19.9171 35.4648 11.9473 37.5733C8.19076 38.569 2.44544 40.5019 2.44544 40.5019C3.16729 42.1272 4.03645 43.6794 5.0382 45.129C6.92385 44.1919 7.99925 43.5622 9.94382 42.669C19.0332 38.5105 24.8227 37.5001 34.7223 35.9773C43.8559 34.5716 58.396 34.7766 58.396 34.7766C58.5433 34.0591 58.6759 33.3416 58.779 32.6094C58.779 32.6094 42.8542 32.7266 32.7778 33.9273M0 30.9255C0.147316 32.8877 0.500874 34.7912 1.01648 36.6216C12.2714 34.2494 19.1953 33.078 30.9658 32.0384C41.823 31.0866 58.9116 31.2184 58.9116 31.2184C58.9558 30.7352 58.9853 30.2666 59 29.7834L33.0282 29.8859L0 30.9255Z" fill="#E42313"/>
</svg>
