<svg width="91" height="272" viewBox="0 0 91 272" fill="none" xmlns="http://www.w3.org/2000/svg">
<mask id="path-1-inside-1_2639_12774" fill="white">
<path d="M73.3967 19.007C70.4131 25.0409 65.341 28.0579 59.6721 30.3206C59.0754 30.7732 58.3295 31.2257 58.0311 31.8291C55.9426 36.5054 53.8541 41.6343 51.7656 46.3106C51.0197 48.2717 50.423 49.931 49.677 52.0429C52.0639 48.8751 54.3016 46.3106 56.5393 43.7462C60.418 39.0699 65.0426 35.6003 71.3082 34.6953C77.7229 33.4885 84.1377 34.0919 90.4033 35.902C90.4033 36.0529 90.7016 36.0529 91 36.3546C89.5082 38.7682 88.0164 41.1818 86.5246 43.4445C83.2426 47.6683 79.3639 51.2886 73.9934 53.0988C66.5344 55.5124 58.7771 56.1158 51.0197 54.7582C50.2738 54.6073 49.677 54.4565 48.9311 54.3056C45.0525 65.6193 42.0689 76.6313 40.1295 88.2466C41.4721 86.1347 42.8148 83.5703 44.1574 81.4584C47.5885 75.877 51.6164 71.3515 57.882 69.2397C62.8049 67.5803 67.5787 66.8261 72.6508 66.8261C74.2918 66.8261 75.9328 66.9769 77.8721 66.9769C76.8279 69.0888 76.2311 71.2007 75.4852 73.0109C73.0984 78.2906 70.1148 82.8161 65.1918 85.833C59.3738 89.7551 52.8098 91.5653 45.9475 92.3195C43.859 92.4704 41.4721 92.7721 39.2344 92.9229C37.2951 104.387 36.1016 116.154 35.9525 127.92C36.2508 127.467 36.4 127.015 36.5492 126.411C37.2951 124.3 38.1902 121.886 39.0852 119.623C41.6213 112.835 46.0967 107.555 52.8098 104.387C57.4344 102.426 62.3574 101.069 67.2803 100.315C68.1754 100.315 68.9213 100.164 69.9656 99.862V101.069C69.6672 102.125 69.518 103.482 69.2197 104.84C67.7279 111.628 65.0426 118.115 59.2246 122.64C52.959 127.618 45.9475 130.786 38.3393 132.445C37.4443 132.596 36.6984 132.596 35.8033 132.898C35.6541 144.966 36.5492 156.883 38.6377 168.649C39.5328 164.727 40.1295 161.107 41.0246 157.335C42.218 152.056 44.7541 147.53 48.782 143.91C53.8541 139.686 59.6721 136.82 65.9377 134.557C66.5344 134.557 67.2803 134.105 68.3246 133.954C68.1754 137.423 68.0262 140.29 67.7279 143.306C67.1311 148.737 65.6393 153.715 62.059 157.788C56.241 164.576 49.0803 169.856 40.4279 172.722C40.1295 172.722 39.8312 172.873 39.5328 173.175C41.6213 184.187 44.6049 194.897 48.4836 205.305C48.6328 203.344 48.4836 201.534 48.4836 199.724C48.4836 193.388 49.677 187.505 53.4066 182.527C56.5393 178.454 60.418 175.136 64.5951 172.571C66.8328 171.063 69.2197 169.856 71.6066 168.498C71.9049 169.554 72.0541 170.459 72.2033 171.214C73.5459 179.058 73.5459 186.6 69.518 193.539C66.2361 199.271 61.7607 204.099 56.5393 208.322C54.6 209.831 52.6607 211.038 50.5721 212.395C54.4508 222.351 58.7771 232.006 63.9984 241.358C63.9984 240.755 63.9984 240.453 63.9984 240.001C63.7 237.285 63.4016 234.57 63.1033 232.006C62.6557 227.178 63.5508 222.502 65.7885 218.278C68.4738 213.3 72.2033 208.926 76.5295 205.305C78.1705 203.948 79.6623 202.741 81.4525 201.232C83.6902 206.814 85.182 212.094 85.182 217.675C85.182 220.843 85.0328 224.011 83.8393 227.028C80.7066 235.173 75.7836 242.414 69.0705 248.448C68.3246 248.901 68.4738 249.353 68.7721 250.108C73.2475 257.499 78.0213 264.589 83.0934 271.528C83.0934 271.528 82.1984 273.489 75.9328 269.416C74.5902 267.153 72.9492 265.042 71.6066 262.628C68.6229 257.952 65.7885 253.275 63.1033 248.599C62.5066 247.392 61.9098 247.091 60.5672 247.392C52.3623 249.202 44.0082 249.202 35.9525 246.94C29.9852 245.431 25.5098 241.66 21.482 237.285C19.841 235.324 18.3492 232.76 16.7082 230.799C16.559 230.346 16.559 230.195 16.2607 229.894C16.4098 229.743 16.7082 229.441 16.8574 229.441C23.4213 227.329 30.1344 226.123 36.9967 226.726C44.0082 227.178 49.5279 230.497 54.3016 235.324C55.4951 236.531 56.3902 237.436 57.7328 238.492C57.7328 238.04 57.4344 237.738 57.2852 237.285C52.959 228.687 49.0803 219.485 45.9475 210.283C45.6492 209.378 45.2016 209.077 44.3066 209.077C36.1016 209.68 28.1951 208.172 20.5869 204.853C14.7689 202.138 10.741 197.763 7.6082 192.483C6.11639 190.07 5.07213 187.204 3.58033 184.337C6.26557 184.337 8.80164 183.885 11.1885 183.885C15.9623 183.734 20.7361 184.036 25.2115 185.393C31.477 187.354 35.9525 191.126 39.682 196.254C40.577 197.31 41.3229 198.366 42.0689 199.573C39.8311 189.315 37.4443 179.209 35.0574 168.951C31.3279 168.046 27.3 167.291 23.5705 165.934C17.7525 163.973 12.382 161.107 8.05574 156.43C4.32623 152.357 0.447541 143.457 0 137.876H0.14918C8.3541 138.027 16.1115 139.535 23.123 143.91C27.3 146.474 30.1344 150.698 32.3721 155.224C32.9689 156.129 33.4164 157.185 34.0131 158.241C33.118 148.134 32.6705 138.027 33.4164 127.92C28.3443 126.411 23.7197 124.45 19.3934 121.584C13.2771 117.511 7.90656 112.684 5.66885 105.293C4.47541 101.37 3.72951 97.2976 3.58033 93.2246C3.58033 92.7721 3.58033 92.4704 3.58033 91.5653C7.30984 92.9229 10.5918 93.6772 13.8738 94.884C18.3492 96.845 22.6754 99.1077 25.9574 102.879C28.941 106.047 30.582 109.969 31.9246 114.042C32.5213 116.003 32.9689 117.813 33.8639 119.623C33.8639 119.02 33.8639 118.869 34.0131 118.266C34.6098 108.46 35.9525 98.806 37.8918 89.1517C38.041 88.2466 37.8918 87.4924 36.9967 87.0398C29.3885 83.2686 23.123 77.9889 18.3492 70.7482C15.0672 65.7701 14.3213 60.1887 14.4705 54.3056C14.4705 52.0429 14.918 50.0818 15.0672 47.3666C18.0508 48.8751 20.5869 50.0818 22.9738 51.4395C28.1951 54.4565 32.6705 58.0768 35.8033 63.5074C38.1902 67.5803 38.7869 72.2566 39.2344 76.933C39.2344 78.4414 39.2344 79.9499 39.682 81.1567C39.682 80.7042 39.8311 80.4025 40.1295 79.9499C42.5164 70.1448 45.5 60.3396 49.2295 50.8361C49.677 49.931 49.677 49.3276 48.6328 48.8751C42.218 44.1987 37.1459 38.3156 33.7148 31.0749C30.8803 25.3426 30.8803 19.4595 32.0738 13.4256C32.5213 11.3137 33.118 9.20179 33.7148 6.93905C37.8918 9.35263 41.6213 12.3696 44.9033 15.99C49.9754 21.4205 52.6607 27.6054 52.0639 35.4495C52.0639 38.3156 51.6164 41.1818 51.4672 44.5004C51.7656 44.0479 51.9148 43.897 51.9148 43.5953C54.0033 39.3716 55.9426 34.997 58.0311 30.6223C58.1803 30.0189 58.3295 29.4155 58.1803 28.963C58.0311 25.0409 58.1803 21.1189 59.0754 17.3476C59.9705 14.4815 61.0148 11.4645 63.2525 9.35263C65.7885 6.63735 68.9213 4.52547 72.0541 2.71528C73.6951 1.50849 75.4852 0.754245 77.2754 0C77.5738 0 77.723 0.150849 78.0213 0.150849C78.0213 1.50849 77.5738 2.86613 77.5738 4.37462C77.2754 9.65433 76.082 14.7832 73.6951 19.3087L73.3967 19.007Z"/>
</mask>
<path d="M73.3967 19.007C70.4131 25.0409 65.341 28.0579 59.6721 30.3206C59.0754 30.7732 58.3295 31.2257 58.0311 31.8291C55.9426 36.5054 53.8541 41.6343 51.7656 46.3106C51.0197 48.2717 50.423 49.931 49.677 52.0429C52.0639 48.8751 54.3016 46.3106 56.5393 43.7462C60.418 39.0699 65.0426 35.6003 71.3082 34.6953C77.7229 33.4885 84.1377 34.0919 90.4033 35.902C90.4033 36.0529 90.7016 36.0529 91 36.3546C89.5082 38.7682 88.0164 41.1818 86.5246 43.4445C83.2426 47.6683 79.3639 51.2886 73.9934 53.0988C66.5344 55.5124 58.7771 56.1158 51.0197 54.7582C50.2738 54.6073 49.677 54.4565 48.9311 54.3056C45.0525 65.6193 42.0689 76.6313 40.1295 88.2466C41.4721 86.1347 42.8148 83.5703 44.1574 81.4584C47.5885 75.877 51.6164 71.3515 57.882 69.2397C62.8049 67.5803 67.5787 66.8261 72.6508 66.8261C74.2918 66.8261 75.9328 66.9769 77.8721 66.9769C76.8279 69.0888 76.2311 71.2007 75.4852 73.0109C73.0984 78.2906 70.1148 82.8161 65.1918 85.833C59.3738 89.7551 52.8098 91.5653 45.9475 92.3195C43.859 92.4704 41.4721 92.7721 39.2344 92.9229C37.2951 104.387 36.1016 116.154 35.9525 127.92C36.2508 127.467 36.4 127.015 36.5492 126.411C37.2951 124.3 38.1902 121.886 39.0852 119.623C41.6213 112.835 46.0967 107.555 52.8098 104.387C57.4344 102.426 62.3574 101.069 67.2803 100.315C68.1754 100.315 68.9213 100.164 69.9656 99.862V101.069C69.6672 102.125 69.518 103.482 69.2197 104.84C67.7279 111.628 65.0426 118.115 59.2246 122.64C52.959 127.618 45.9475 130.786 38.3393 132.445C37.4443 132.596 36.6984 132.596 35.8033 132.898C35.6541 144.966 36.5492 156.883 38.6377 168.649C39.5328 164.727 40.1295 161.107 41.0246 157.335C42.218 152.056 44.7541 147.53 48.782 143.91C53.8541 139.686 59.6721 136.82 65.9377 134.557C66.5344 134.557 67.2803 134.105 68.3246 133.954C68.1754 137.423 68.0262 140.29 67.7279 143.306C67.1311 148.737 65.6393 153.715 62.059 157.788C56.241 164.576 49.0803 169.856 40.4279 172.722C40.1295 172.722 39.8312 172.873 39.5328 173.175C41.6213 184.187 44.6049 194.897 48.4836 205.305C48.6328 203.344 48.4836 201.534 48.4836 199.724C48.4836 193.388 49.677 187.505 53.4066 182.527C56.5393 178.454 60.418 175.136 64.5951 172.571C66.8328 171.063 69.2197 169.856 71.6066 168.498C71.9049 169.554 72.0541 170.459 72.2033 171.214C73.5459 179.058 73.5459 186.6 69.518 193.539C66.2361 199.271 61.7607 204.099 56.5393 208.322C54.6 209.831 52.6607 211.038 50.5721 212.395C54.4508 222.351 58.7771 232.006 63.9984 241.358C63.9984 240.755 63.9984 240.453 63.9984 240.001C63.7 237.285 63.4016 234.57 63.1033 232.006C62.6557 227.178 63.5508 222.502 65.7885 218.278C68.4738 213.3 72.2033 208.926 76.5295 205.305C78.1705 203.948 79.6623 202.741 81.4525 201.232C83.6902 206.814 85.182 212.094 85.182 217.675C85.182 220.843 85.0328 224.011 83.8393 227.028C80.7066 235.173 75.7836 242.414 69.0705 248.448C68.3246 248.901 68.4738 249.353 68.7721 250.108C73.2475 257.499 78.0213 264.589 83.0934 271.528C83.0934 271.528 82.1984 273.489 75.9328 269.416C74.5902 267.153 72.9492 265.042 71.6066 262.628C68.6229 257.952 65.7885 253.275 63.1033 248.599C62.5066 247.392 61.9098 247.091 60.5672 247.392C52.3623 249.202 44.0082 249.202 35.9525 246.94C29.9852 245.431 25.5098 241.66 21.482 237.285C19.841 235.324 18.3492 232.76 16.7082 230.799C16.559 230.346 16.559 230.195 16.2607 229.894C16.4098 229.743 16.7082 229.441 16.8574 229.441C23.4213 227.329 30.1344 226.123 36.9967 226.726C44.0082 227.178 49.5279 230.497 54.3016 235.324C55.4951 236.531 56.3902 237.436 57.7328 238.492C57.7328 238.04 57.4344 237.738 57.2852 237.285C52.959 228.687 49.0803 219.485 45.9475 210.283C45.6492 209.378 45.2016 209.077 44.3066 209.077C36.1016 209.68 28.1951 208.172 20.5869 204.853C14.7689 202.138 10.741 197.763 7.6082 192.483C6.11639 190.07 5.07213 187.204 3.58033 184.337C6.26557 184.337 8.80164 183.885 11.1885 183.885C15.9623 183.734 20.7361 184.036 25.2115 185.393C31.477 187.354 35.9525 191.126 39.682 196.254C40.577 197.31 41.3229 198.366 42.0689 199.573C39.8311 189.315 37.4443 179.209 35.0574 168.951C31.3279 168.046 27.3 167.291 23.5705 165.934C17.7525 163.973 12.382 161.107 8.05574 156.43C4.32623 152.357 0.447541 143.457 0 137.876H0.14918C8.3541 138.027 16.1115 139.535 23.123 143.91C27.3 146.474 30.1344 150.698 32.3721 155.224C32.9689 156.129 33.4164 157.185 34.0131 158.241C33.118 148.134 32.6705 138.027 33.4164 127.92C28.3443 126.411 23.7197 124.45 19.3934 121.584C13.2771 117.511 7.90656 112.684 5.66885 105.293C4.47541 101.37 3.72951 97.2976 3.58033 93.2246C3.58033 92.7721 3.58033 92.4704 3.58033 91.5653C7.30984 92.9229 10.5918 93.6772 13.8738 94.884C18.3492 96.845 22.6754 99.1077 25.9574 102.879C28.941 106.047 30.582 109.969 31.9246 114.042C32.5213 116.003 32.9689 117.813 33.8639 119.623C33.8639 119.02 33.8639 118.869 34.0131 118.266C34.6098 108.46 35.9525 98.806 37.8918 89.1517C38.041 88.2466 37.8918 87.4924 36.9967 87.0398C29.3885 83.2686 23.123 77.9889 18.3492 70.7482C15.0672 65.7701 14.3213 60.1887 14.4705 54.3056C14.4705 52.0429 14.918 50.0818 15.0672 47.3666C18.0508 48.8751 20.5869 50.0818 22.9738 51.4395C28.1951 54.4565 32.6705 58.0768 35.8033 63.5074C38.1902 67.5803 38.7869 72.2566 39.2344 76.933C39.2344 78.4414 39.2344 79.9499 39.682 81.1567C39.682 80.7042 39.8311 80.4025 40.1295 79.9499C42.5164 70.1448 45.5 60.3396 49.2295 50.8361C49.677 49.931 49.677 49.3276 48.6328 48.8751C42.218 44.1987 37.1459 38.3156 33.7148 31.0749C30.8803 25.3426 30.8803 19.4595 32.0738 13.4256C32.5213 11.3137 33.118 9.20179 33.7148 6.93905C37.8918 9.35263 41.6213 12.3696 44.9033 15.99C49.9754 21.4205 52.6607 27.6054 52.0639 35.4495C52.0639 38.3156 51.6164 41.1818 51.4672 44.5004C51.7656 44.0479 51.9148 43.897 51.9148 43.5953C54.0033 39.3716 55.9426 34.997 58.0311 30.6223C58.1803 30.0189 58.3295 29.4155 58.1803 28.963C58.0311 25.0409 58.1803 21.1189 59.0754 17.3476C59.9705 14.4815 61.0148 11.4645 63.2525 9.35263C65.7885 6.63735 68.9213 4.52547 72.0541 2.71528C73.6951 1.50849 75.4852 0.754245 77.2754 0C77.5738 0 77.723 0.150849 78.0213 0.150849C78.0213 1.50849 77.5738 2.86613 77.5738 4.37462C77.2754 9.65433 76.082 14.7832 73.6951 19.3087L73.3967 19.007Z" fill="#4064DF" fill-opacity="0.02" stroke="#4064DF" stroke-opacity="0.15" stroke-width="2" mask="url(#path-1-inside-1_2639_12774)"/>
</svg>
