<svg width="17" height="11" viewBox="0 0 17 11" fill="none" xmlns="http://www.w3.org/2000/svg">
<path d="M6.19724 10.721C6.55047 11.037 7.1144 11.0246 7.46143 10.6714L16.5834 1.54944C16.9181 1.19621 16.9057 0.626084 16.5524 0.272855C16.193 -0.080374 15.6291 -0.0927685 15.2573 0.248066L6.80455 8.70077L1.62386 3.52008C1.43795 3.32178 1.20246 3.21643 0.948387 3.21023C0.935993 3.21023 0.923599 3.21023 0.911205 3.21023C0.675719 3.21023 0.440233 3.30938 0.272914 3.4829C0.105595 3.65642 -0.00595124 3.9043 0.000245759 4.15837C0.000245759 4.41245 0.111793 4.65413 0.297703 4.82145L6.19105 10.7148L6.19724 10.721Z" fill="white"/>
</svg>
