<svg width="384" height="381" viewBox="0 0 384 381" fill="none" xmlns="http://www.w3.org/2000/svg">
<mask id="path-1-inside-1_2252_12411" fill="white">
<path fill-rule="evenodd" clip-rule="evenodd" d="M53.2135 59.1555C88.2097 22.7003 137.396 0 191.856 0C281.121 0 356.195 60.9831 377.96 143.705C377.96 143.705 310.556 144.763 267.985 138.895C220.812 132.354 193.87 126.679 149.477 109.462C109.975 94.1679 53.3094 59.1555 53.3094 59.1555M382.466 166.79C381.795 161.98 381.028 157.267 379.973 152.554C379.973 152.554 285.339 153.901 225.894 144.666C161.462 134.663 123.877 128.026 64.6232 100.709C51.967 94.8412 44.9678 90.6089 32.6951 84.5491C26.1753 94.0717 20.5184 104.268 15.8202 114.944C15.8202 114.944 53.3094 127.641 77.6629 134.182C129.534 148.033 159.928 151.784 213.142 158.133C278.724 166.02 382.37 166.79 382.37 166.79M214.963 184.681L384 185.45C383.904 182.276 383.712 179.102 383.425 175.928C383.425 175.928 272.204 176.793 201.54 170.541C124.932 163.712 79.7723 156.017 6.61573 140.434C3.25993 152.458 0.958802 164.962 0 177.851L214.963 184.681ZM53.2135 321.844C88.2097 358.3 137.396 381 191.76 381C281.025 381 356.099 320.017 377.864 237.295C377.864 237.295 310.46 236.237 267.889 242.105C220.716 248.646 193.774 254.321 149.381 271.538C109.879 286.832 53.2135 321.844 53.2135 321.844ZM213.237 222.867C159.928 229.312 129.63 232.967 77.7588 246.818C53.3094 253.359 15.9161 266.056 15.9161 266.056C20.6142 276.732 26.2712 286.928 32.791 296.451C45.0637 290.295 52.0629 286.159 64.7191 280.291C123.877 252.974 161.558 246.337 225.99 236.333C285.435 227.099 380.069 228.446 380.069 228.446C381.028 223.733 381.891 219.02 382.562 214.21C382.562 214.21 278.915 214.98 213.333 222.867M0 203.149C0.958802 216.038 3.25993 228.542 6.61573 240.566C79.8682 224.983 124.932 217.288 201.54 210.459C272.204 204.207 383.425 205.072 383.425 205.072C383.712 201.898 383.904 198.82 384 195.646L214.963 196.319L0 203.149Z"/>
</mask>
<path fill-rule="evenodd" clip-rule="evenodd" d="M53.2135 59.1555C88.2097 22.7003 137.396 0 191.856 0C281.121 0 356.195 60.9831 377.96 143.705C377.96 143.705 310.556 144.763 267.985 138.895C220.812 132.354 193.87 126.679 149.477 109.462C109.975 94.1679 53.3094 59.1555 53.3094 59.1555M382.466 166.79C381.795 161.98 381.028 157.267 379.973 152.554C379.973 152.554 285.339 153.901 225.894 144.666C161.462 134.663 123.877 128.026 64.6232 100.709C51.967 94.8412 44.9678 90.6089 32.6951 84.5491C26.1753 94.0717 20.5184 104.268 15.8202 114.944C15.8202 114.944 53.3094 127.641 77.6629 134.182C129.534 148.033 159.928 151.784 213.142 158.133C278.724 166.02 382.37 166.79 382.37 166.79M214.963 184.681L384 185.45C383.904 182.276 383.712 179.102 383.425 175.928C383.425 175.928 272.204 176.793 201.54 170.541C124.932 163.712 79.7723 156.017 6.61573 140.434C3.25993 152.458 0.958802 164.962 0 177.851L214.963 184.681ZM53.2135 321.844C88.2097 358.3 137.396 381 191.76 381C281.025 381 356.099 320.017 377.864 237.295C377.864 237.295 310.46 236.237 267.889 242.105C220.716 248.646 193.774 254.321 149.381 271.538C109.879 286.832 53.2135 321.844 53.2135 321.844ZM213.237 222.867C159.928 229.312 129.63 232.967 77.7588 246.818C53.3094 253.359 15.9161 266.056 15.9161 266.056C20.6142 276.732 26.2712 286.928 32.791 296.451C45.0637 290.295 52.0629 286.159 64.7191 280.291C123.877 252.974 161.558 246.337 225.99 236.333C285.435 227.099 380.069 228.446 380.069 228.446C381.028 223.733 381.891 219.02 382.562 214.21C382.562 214.21 278.915 214.98 213.333 222.867M0 203.149C0.958802 216.038 3.25993 228.542 6.61573 240.566C79.8682 224.983 124.932 217.288 201.54 210.459C272.204 204.207 383.425 205.072 383.425 205.072C383.712 201.898 383.904 198.82 384 195.646L214.963 196.319L0 203.149Z" fill="#4064DF" fill-opacity="0.1"/>
<path d="M377.96 143.705L377.975 144.704L379.251 144.684L378.927 143.45L377.96 143.705ZM267.985 138.895L267.848 139.886L267.849 139.886L267.985 138.895ZM149.477 109.462L149.839 108.529L149.838 108.529L149.477 109.462ZM379.973 152.554L380.949 152.336L380.771 151.542L379.959 151.554L379.973 152.554ZM225.894 144.666L226.047 143.678L226.047 143.678L225.894 144.666ZM64.6232 100.709L64.2026 101.616L64.2046 101.617L64.6232 100.709ZM32.6951 84.5491L33.1379 83.6525L32.3601 83.2684L31.87 83.9842L32.6951 84.5491ZM15.8202 114.944L14.9049 114.542L14.4651 115.541L15.4994 115.892L15.8202 114.944ZM77.6629 134.182L77.4035 135.148L77.4049 135.148L77.6629 134.182ZM213.142 158.133L213.261 157.14L213.26 157.14L213.142 158.133ZM214.963 184.681L214.932 185.68L214.945 185.681L214.959 185.681L214.963 184.681ZM384 185.45L383.995 186.45L385.031 186.455L385 185.42L384 185.45ZM383.425 175.928L384.421 175.837L384.338 174.92L383.417 174.928L383.425 175.928ZM201.54 170.541L201.451 171.537L201.452 171.537L201.54 170.541ZM6.61573 140.434L6.82406 139.456L5.90512 139.26L5.65254 140.165L6.61573 140.434ZM0 177.851L-0.997245 177.777L-1.07465 178.818L-0.0317538 178.851L0 177.851ZM53.2135 321.844L52.6879 320.994L51.6351 321.644L52.4921 322.537L53.2135 321.844ZM377.864 237.295L378.831 237.55L379.156 236.316L377.879 236.296L377.864 237.295ZM267.889 242.105L267.753 241.114L267.752 241.114L267.889 242.105ZM149.381 271.538L149.742 272.471L149.743 272.471L149.381 271.538ZM77.7588 246.818L77.5008 245.852L77.5004 245.852L77.7588 246.818ZM15.9161 266.056L15.5946 265.109L14.5613 265.459L15.0008 266.458L15.9161 266.056ZM32.791 296.451L31.9659 297.016L32.4591 297.736L33.2394 297.345L32.791 296.451ZM64.7191 280.291L64.2999 279.383L64.2985 279.384L64.7191 280.291ZM225.99 236.333L226.143 237.322L226.143 237.322L225.99 236.333ZM380.069 228.446L380.055 229.446L380.884 229.458L381.049 228.645L380.069 228.446ZM382.562 214.21L383.552 214.349L383.712 213.202L382.554 213.21L382.562 214.21ZM0 203.149L-0.0317538 202.149L-1.07465 202.182L-0.997245 203.223L0 203.149ZM6.61573 240.566L5.65254 240.835L5.90506 241.739L6.8238 241.544L6.61573 240.566ZM201.54 210.459L201.452 209.463L201.451 209.463L201.54 210.459ZM383.425 205.072L383.417 206.072L384.338 206.08L384.421 205.163L383.425 205.072ZM384 195.646L385 195.676L385.031 194.642L383.996 194.646L384 195.646ZM214.963 196.319L214.959 195.319L214.945 195.319L214.932 195.32L214.963 196.319ZM53.2135 59.1555L53.9349 59.848C88.7507 23.5808 137.68 1 191.856 1V0V-1C137.112 -1 87.6687 21.8199 52.4921 58.463L53.2135 59.1555ZM191.856 0V1C280.653 1 355.34 61.6638 376.992 143.959L377.96 143.705L378.927 143.45C357.05 60.3023 281.588 -1 191.856 -1V0ZM377.96 143.705C377.944 142.705 377.944 142.705 377.943 142.705C377.943 142.705 377.942 142.705 377.941 142.705C377.939 142.705 377.936 142.705 377.932 142.705C377.924 142.705 377.912 142.705 377.896 142.705C377.863 142.706 377.815 142.707 377.751 142.708C377.622 142.709 377.431 142.712 377.18 142.715C376.677 142.721 375.933 142.73 374.971 142.739C373.047 142.756 370.251 142.775 366.761 142.778C359.783 142.786 350.035 142.735 338.957 142.5C316.792 142.032 289.347 140.83 268.122 137.905L267.985 138.895L267.849 139.886C289.194 142.828 316.736 144.031 338.915 144.5C350.01 144.735 359.774 144.786 366.764 144.778C370.259 144.774 373.061 144.756 374.989 144.739C375.954 144.73 376.7 144.721 377.205 144.715C377.457 144.712 377.65 144.709 377.779 144.707C377.844 144.706 377.893 144.706 377.925 144.705C377.942 144.705 377.954 144.705 377.963 144.705C377.967 144.705 377.97 144.705 377.972 144.705C377.973 144.705 377.974 144.705 377.974 144.704C377.975 144.704 377.975 144.704 377.96 143.705ZM267.985 138.895L268.122 137.905C221.002 131.371 194.139 125.711 149.839 108.529L149.477 109.462L149.116 110.394C193.6 127.647 220.622 133.338 267.848 139.886L267.985 138.895ZM149.477 109.462L149.838 108.529C130.155 100.909 106.164 88.361 87.0672 77.7003C77.5246 72.3732 69.2149 67.5233 63.2911 64.0054C60.3294 62.2465 57.9643 60.8207 56.3402 59.835C55.5281 59.3421 54.9013 58.9592 54.4778 58.6998C54.266 58.57 54.1051 58.4711 53.9972 58.4047C53.9432 58.3715 53.9026 58.3465 53.8754 58.3298C53.8619 58.3214 53.8517 58.3151 53.845 58.311C53.8416 58.3089 53.8391 58.3073 53.8374 58.3063C53.8366 58.3058 53.836 58.3054 53.8356 58.3051C53.8352 58.3049 53.835 58.3048 53.3094 59.1555C52.7837 60.0062 52.784 60.0064 52.7845 60.0067C52.7849 60.007 52.7856 60.0074 52.7865 60.0079C52.7883 60.009 52.791 60.0107 52.7945 60.0129C52.8015 60.0172 52.8119 60.0236 52.8257 60.0321C52.8534 60.0492 52.8946 60.0746 52.9491 60.1081C53.058 60.1752 53.2201 60.2747 53.433 60.4052C53.8588 60.666 54.488 61.0503 55.3025 61.5447C56.9316 62.5334 59.3021 63.9625 62.2699 65.725C68.2053 69.2498 76.5308 74.1089 86.0923 79.4466C105.204 90.1155 129.296 102.721 149.116 110.394L149.477 109.462ZM382.466 166.79L383.456 166.651C382.783 161.828 382.012 157.086 380.949 152.336L379.973 152.554L378.997 152.772C380.044 157.449 380.806 162.132 381.476 166.928L382.466 166.79ZM379.973 152.554C379.959 151.554 379.959 151.554 379.958 151.554C379.957 151.554 379.956 151.554 379.955 151.554C379.952 151.554 379.948 151.554 379.942 151.554C379.931 151.554 379.914 151.555 379.891 151.555C379.845 151.556 379.777 151.556 379.687 151.558C379.507 151.56 379.238 151.563 378.885 151.567C378.179 151.574 377.134 151.584 375.784 151.594C373.083 151.613 369.157 151.629 364.26 151.62C354.465 151.602 340.786 151.482 325.252 151.073C294.17 150.256 255.704 148.285 226.047 143.678L225.894 144.666L225.74 145.655C255.529 150.282 294.102 152.255 325.199 153.073C340.754 153.482 354.449 153.602 364.256 153.62C369.159 153.629 373.091 153.613 375.798 153.594C377.151 153.584 378.198 153.574 378.907 153.567C379.261 153.563 379.531 153.56 379.712 153.557C379.803 153.556 379.872 153.555 379.918 153.555C379.941 153.554 379.958 153.554 379.97 153.554C379.975 153.554 379.98 153.554 379.983 153.554C379.984 153.554 379.985 153.554 379.986 153.554C379.987 153.554 379.987 153.554 379.973 152.554ZM225.894 144.666L226.047 143.678C161.64 133.679 124.166 127.058 65.0419 99.8005L64.6232 100.709L64.2046 101.617C123.588 128.994 161.285 135.647 225.74 145.655L225.894 144.666ZM64.6232 100.709L65.0438 99.8014C52.3743 93.9278 45.5101 89.7615 33.1379 83.6525L32.6951 84.5491L32.2524 85.4458C44.4255 91.4564 51.5597 95.7546 64.2026 101.616L64.6232 100.709ZM32.6951 84.5491L31.87 83.9842C25.3146 93.5587 19.6276 103.809 14.9049 114.542L15.8202 114.944L16.7355 115.347C21.4091 104.726 27.036 94.5847 33.5203 85.114L32.6951 84.5491ZM15.8202 114.944C15.4994 115.892 15.4996 115.892 15.4999 115.892C15.5002 115.892 15.5007 115.892 15.5012 115.892C15.5024 115.893 15.5041 115.893 15.5064 115.894C15.511 115.896 15.5179 115.898 15.527 115.901C15.5452 115.907 15.5724 115.916 15.6083 115.928C15.6802 115.953 15.7872 115.989 15.9277 116.036C16.2086 116.131 16.6237 116.271 17.1605 116.451C18.2341 116.811 19.7948 117.333 21.7435 117.98C25.6409 119.273 31.0911 121.065 37.3029 123.062C49.7222 127.055 65.2021 131.871 77.4035 135.148L77.6629 134.182L77.9223 133.216C65.7702 129.952 50.3287 125.149 37.9151 121.158C31.7104 119.164 26.2663 117.373 22.3734 116.081C20.427 115.436 18.8685 114.914 17.7968 114.555C17.2609 114.375 16.8468 114.236 16.5667 114.141C16.4267 114.094 16.3201 114.058 16.2487 114.034C16.2129 114.022 16.186 114.013 16.168 114.006C16.159 114.003 16.1522 114.001 16.1477 114C16.1454 113.999 16.1438 113.998 16.1426 113.998C16.1421 113.998 16.1417 113.998 16.1414 113.997C16.1411 113.997 16.141 113.997 15.8202 114.944ZM77.6629 134.182L77.4049 135.148C129.348 149.018 159.8 152.776 213.023 159.126L213.142 158.133L213.26 157.14C160.056 150.793 129.72 147.048 77.9209 133.216L77.6629 134.182ZM213.142 158.133L213.022 159.126C245.858 163.075 288.2 165.24 322.315 166.418C339.376 167.008 354.387 167.351 365.132 167.546C370.505 167.644 374.812 167.705 377.776 167.741C379.258 167.759 380.404 167.772 381.18 167.779C381.568 167.783 381.864 167.786 382.062 167.787C382.161 167.788 382.236 167.789 382.287 167.789C382.312 167.789 382.331 167.789 382.343 167.79C382.35 167.79 382.355 167.79 382.358 167.79C382.359 167.79 382.361 167.79 382.361 167.79C382.362 167.79 382.363 167.79 382.37 166.79C382.378 165.79 382.377 165.79 382.376 165.79C382.376 165.79 382.374 165.79 382.373 165.79C382.37 165.79 382.365 165.79 382.359 165.79C382.346 165.789 382.328 165.789 382.303 165.789C382.253 165.789 382.178 165.788 382.079 165.787C381.882 165.786 381.587 165.783 381.2 165.779C380.425 165.772 379.281 165.76 377.801 165.741C374.84 165.705 370.537 165.644 365.169 165.546C354.431 165.351 339.432 165.009 322.384 164.42C288.279 163.242 246.008 161.078 213.261 157.14L213.142 158.133ZM214.963 184.681L214.959 185.681L383.995 186.45L384 185.45L384.005 184.45L214.968 183.681L214.963 184.681ZM384 185.45L385 185.42C384.903 182.226 384.71 179.031 384.421 175.837L383.425 175.928L382.429 176.018C382.715 179.172 382.905 182.326 383 185.48L384 185.45ZM383.425 175.928C383.417 174.928 383.417 174.928 383.416 174.928C383.415 174.928 383.414 174.928 383.412 174.928C383.409 174.928 383.404 174.928 383.397 174.928C383.383 174.928 383.363 174.928 383.337 174.928C383.283 174.929 383.203 174.929 383.097 174.93C382.884 174.931 382.568 174.933 382.153 174.936C381.322 174.941 380.093 174.947 378.504 174.953C375.326 174.964 370.707 174.973 364.944 174.965C353.416 174.949 337.31 174.861 318.997 174.579C282.363 174.014 236.922 172.668 201.628 169.545L201.54 170.541L201.452 171.537C236.822 174.667 282.323 176.014 318.966 176.579C337.291 176.861 353.406 176.949 364.941 176.965C370.708 176.973 375.331 176.964 378.511 176.953C380.102 176.947 381.332 176.941 382.164 176.936C382.581 176.933 382.897 176.931 383.11 176.93C383.217 176.929 383.297 176.929 383.351 176.928C383.378 176.928 383.398 176.928 383.412 176.928C383.419 176.928 383.424 176.928 383.427 176.928C383.429 176.928 383.43 176.928 383.431 176.928C383.432 176.928 383.433 176.928 383.425 175.928ZM201.54 170.541L201.629 169.545C125.069 162.72 79.9505 155.032 6.82406 139.456L6.61573 140.434L6.4074 141.412C79.594 157.001 124.794 164.703 201.451 171.537L201.54 170.541ZM6.61573 140.434L5.65254 140.165C2.28028 152.248 -0.0331993 164.817 -0.997245 177.777L0 177.851L0.997245 177.925C1.9508 165.107 4.23957 152.668 7.57892 140.703L6.61573 140.434ZM0 177.851L-0.0317538 178.851L214.932 185.68L214.963 184.681L214.995 183.681L0.0317538 176.852L0 177.851ZM53.2135 321.844L52.4921 322.537C87.6685 359.18 137.112 382 191.76 382V381V380C137.68 380 88.7509 357.419 53.9349 321.152L53.2135 321.844ZM191.76 381V382C281.492 382 356.954 320.698 378.831 237.55L377.864 237.295L376.897 237.041C355.244 319.336 280.557 380 191.76 380V381ZM377.864 237.295C377.879 236.296 377.879 236.296 377.879 236.295C377.878 236.295 377.877 236.295 377.876 236.295C377.874 236.295 377.871 236.295 377.867 236.295C377.858 236.295 377.846 236.295 377.83 236.295C377.797 236.294 377.748 236.294 377.683 236.293C377.554 236.291 377.361 236.288 377.109 236.285C376.604 236.279 375.858 236.27 374.893 236.261C372.965 236.244 370.163 236.225 366.668 236.222C359.678 236.214 349.914 236.265 338.819 236.5C316.64 236.969 289.098 238.172 267.753 241.114L267.889 242.105L268.026 243.095C289.251 240.17 316.696 238.968 338.862 238.5C349.939 238.265 359.687 238.214 366.666 238.222C370.155 238.225 372.951 238.244 374.875 238.261C375.837 238.27 376.581 238.279 377.084 238.285C377.335 238.288 377.527 238.291 377.655 238.292C377.719 238.293 377.767 238.294 377.8 238.295C377.816 238.295 377.828 238.295 377.836 238.295C377.84 238.295 377.843 238.295 377.845 238.295C377.846 238.295 377.847 238.295 377.847 238.295C377.848 238.295 377.848 238.295 377.864 237.295ZM267.889 242.105L267.752 241.114C220.526 247.662 193.504 253.353 149.02 270.606L149.381 271.538L149.743 272.471C194.043 255.289 220.906 249.629 268.026 243.095L267.889 242.105ZM149.381 271.538L149.02 270.606C129.2 278.279 105.108 290.884 85.9965 301.553C76.4349 306.891 68.1094 311.75 62.174 315.275C59.2062 317.038 56.8357 318.467 55.2066 319.455C54.3921 319.95 53.7629 320.334 53.3371 320.595C53.1242 320.725 52.9622 320.825 52.8532 320.892C52.7987 320.925 52.7575 320.951 52.7299 320.968C52.716 320.976 52.7056 320.983 52.6986 320.987C52.6951 320.989 52.6924 320.991 52.6906 320.992C52.6897 320.993 52.689 320.993 52.6886 320.993C52.6881 320.994 52.6879 320.994 53.2135 321.844C53.7391 322.695 53.7393 322.695 53.7397 322.695C53.7401 322.695 53.7407 322.694 53.7415 322.694C53.7432 322.693 53.7457 322.691 53.7491 322.689C53.7558 322.685 53.766 322.679 53.7796 322.67C53.8067 322.654 53.8474 322.628 53.9013 322.595C54.0092 322.529 54.1701 322.43 54.3819 322.3C54.8055 322.041 55.4323 321.658 56.2443 321.165C57.8685 320.179 60.2335 318.754 63.1953 316.995C69.1191 313.477 77.4288 308.627 86.9713 303.3C106.068 292.639 130.06 280.091 149.742 272.471L149.381 271.538ZM213.237 222.867L213.117 221.874C159.802 228.32 129.444 231.981 77.5008 245.852L77.7588 246.818L78.0168 247.784C129.816 233.952 160.055 230.304 213.357 223.86L213.237 222.867ZM77.7588 246.818L77.5004 245.852C65.2504 249.129 49.77 253.945 37.3626 257.938C31.1566 259.935 25.7153 261.727 21.8253 263.021C19.8803 263.667 18.323 264.189 17.2518 264.549C16.7162 264.73 16.3021 264.869 16.0218 264.964C15.8817 265.011 15.775 265.047 15.7032 265.072C15.6674 265.084 15.6403 265.093 15.6221 265.099C15.613 265.102 15.6062 265.105 15.6016 265.106C15.5993 265.107 15.5975 265.108 15.5964 265.108C15.5958 265.108 15.5953 265.108 15.5951 265.108C15.5947 265.109 15.5946 265.109 15.9161 266.056C16.2376 267.002 16.2377 267.002 16.238 267.002C16.2383 267.002 16.2387 267.002 16.2393 267.002C16.2404 267.001 16.242 267.001 16.2443 267C16.2488 266.999 16.2555 266.996 16.2645 266.993C16.2825 266.987 16.3094 266.978 16.345 266.966C16.4163 266.942 16.5225 266.906 16.6622 266.859C16.9416 266.764 17.3548 266.625 17.8894 266.445C18.9586 266.085 20.5137 265.564 22.4563 264.918C26.3416 263.627 31.7767 261.836 37.9752 259.841C50.3768 255.851 65.8178 251.048 78.0172 247.784L77.7588 246.818ZM15.9161 266.056L15.0008 266.458C19.7235 277.191 25.4105 287.441 31.9659 297.016L32.791 296.451L33.6161 295.886C27.1318 286.415 21.505 276.274 16.8314 265.653L15.9161 266.056ZM32.791 296.451L33.2394 297.345C45.5772 291.156 52.4925 287.062 65.1397 281.199L64.7191 280.291L64.2985 279.384C51.6333 285.256 44.5501 289.434 32.3427 295.557L32.791 296.451ZM64.7191 280.291L65.1383 281.199C124.166 253.942 161.735 247.322 226.143 237.322L225.99 236.333L225.836 235.345C161.381 245.353 123.588 252.006 64.2999 279.383L64.7191 280.291ZM225.99 236.333L226.143 237.322C255.799 232.715 294.266 230.744 325.348 229.927C340.882 229.518 354.561 229.398 364.355 229.38C369.253 229.371 373.178 229.387 375.88 229.406C377.23 229.416 378.274 229.426 378.981 229.433C379.334 229.437 379.603 229.44 379.783 229.442C379.873 229.444 379.941 229.444 379.987 229.445C380.009 229.445 380.027 229.446 380.038 229.446C380.044 229.446 380.048 229.446 380.051 229.446C380.052 229.446 380.053 229.446 380.054 229.446C380.054 229.446 380.055 229.446 380.069 228.446C380.083 227.446 380.083 227.446 380.082 227.446C380.081 227.446 380.08 227.446 380.079 227.446C380.076 227.446 380.071 227.446 380.065 227.446C380.054 227.446 380.036 227.446 380.013 227.445C379.967 227.445 379.899 227.444 379.808 227.443C379.627 227.44 379.357 227.437 379.002 227.433C378.294 227.426 377.247 227.416 375.893 227.406C373.187 227.387 369.255 227.371 364.352 227.38C354.545 227.398 340.85 227.518 325.295 227.927C294.198 228.745 255.625 230.718 225.836 235.345L225.99 236.333ZM380.069 228.446L381.049 228.645C382.01 223.92 382.877 219.185 383.552 214.349L382.562 214.21L381.571 214.072C380.904 218.854 380.045 223.546 379.089 228.247L380.069 228.446ZM382.562 214.21C382.554 213.21 382.554 213.21 382.553 213.21C382.552 213.21 382.551 213.21 382.55 213.21C382.546 213.21 382.542 213.21 382.535 213.21C382.523 213.211 382.504 213.211 382.478 213.211C382.428 213.211 382.353 213.212 382.254 213.213C382.055 213.214 381.76 213.217 381.372 213.221C380.596 213.228 379.45 213.241 377.968 213.259C375.004 213.295 370.697 213.356 365.324 213.454C354.578 213.649 339.568 213.992 322.506 214.582C288.392 215.76 246.049 217.925 213.214 221.874L213.333 222.867L213.453 223.86C246.199 219.922 288.471 217.758 322.575 216.58C339.623 215.991 354.623 215.649 365.361 215.454C370.729 215.356 375.032 215.295 377.992 215.259C379.473 215.24 380.617 215.228 381.392 215.221C381.779 215.217 382.073 215.214 382.271 215.213C382.37 215.212 382.445 215.211 382.494 215.211C382.519 215.211 382.538 215.211 382.551 215.21C382.557 215.21 382.562 215.21 382.565 215.21C382.566 215.21 382.567 215.21 382.568 215.21C382.569 215.21 382.569 215.21 382.562 214.21ZM0 203.149L-0.997245 203.223C-0.0331993 216.183 2.28028 228.752 5.65254 240.835L6.61573 240.566L7.57892 240.297C4.23957 228.332 1.9508 215.893 0.997245 203.075L0 203.149ZM6.61573 240.566L6.8238 241.544C80.0465 225.968 125.069 218.28 201.629 211.455L201.54 210.459L201.451 209.463C124.794 216.297 79.6898 223.999 6.40766 239.588L6.61573 240.566ZM201.54 210.459L201.628 211.455C236.922 208.332 282.363 206.986 318.997 206.421C337.31 206.139 353.416 206.051 364.944 206.035C370.707 206.027 375.326 206.036 378.504 206.047C380.093 206.053 381.322 206.059 382.153 206.064C382.568 206.067 382.884 206.069 383.097 206.07C383.203 206.071 383.283 206.071 383.337 206.072C383.363 206.072 383.383 206.072 383.397 206.072C383.404 206.072 383.409 206.072 383.412 206.072C383.414 206.072 383.415 206.072 383.416 206.072C383.417 206.072 383.417 206.072 383.425 205.072C383.433 204.072 383.432 204.072 383.431 204.072C383.43 204.072 383.429 204.072 383.427 204.072C383.424 204.072 383.419 204.072 383.412 204.072C383.398 204.072 383.378 204.072 383.351 204.072C383.297 204.071 383.217 204.071 383.11 204.07C382.897 204.069 382.581 204.067 382.164 204.064C381.332 204.059 380.102 204.053 378.511 204.047C375.331 204.036 370.708 204.027 364.941 204.035C353.406 204.051 337.291 204.139 318.966 204.421C282.323 204.986 236.822 206.333 201.452 209.463L201.54 210.459ZM383.425 205.072L384.421 205.163C384.71 201.97 384.903 198.872 385 195.676L384 195.646L383 195.616C382.905 198.769 382.715 201.827 382.429 204.982L383.425 205.072ZM384 195.646L383.996 194.646L214.959 195.319L214.963 196.319L214.967 197.319L384.004 196.646L384 195.646ZM214.963 196.319L214.932 195.32L-0.0317538 202.149L0 203.149L0.0317538 204.148L214.995 197.319L214.963 196.319Z" fill="#4064DF" fill-opacity="0.8" mask="url(#path-1-inside-1_2252_12411)"/>
</svg>
