<svg width="50" height="9" viewBox="0 0 50 9" fill="none" xmlns="http://www.w3.org/2000/svg">
<path d="M1.47603 5.47567C1.85437 5.45241 2.20856 5.28445 2.44737 5.01312C3.78364 3.51435 5.46604 2.68744 7.19138 2.68744C8.91671 2.68744 10.7333 3.56603 12.0883 5.15783C13.9344 7.34654 16.4191 8.55331 19.0782 8.55331C21.7373 8.55331 24.0852 7.39564 25.9259 5.29737C27.2756 3.78051 28.9607 2.94585 30.6699 2.94585C32.3791 2.94585 34.1877 3.82444 35.54 5.41623C37.3861 7.60495 39.8708 8.81172 42.5299 8.81172C45.189 8.81172 47.5235 7.6463 49.3642 5.54544C49.6164 5.28445 49.7398 4.93818 49.7184 4.57382C49.6942 4.20947 49.5198 3.86837 49.2542 3.65131C48.9832 3.4084 48.6236 3.28954 48.2453 3.31021C47.8669 3.33347 47.5127 3.50143 47.2712 3.77534C45.9618 5.27411 44.2794 6.09843 42.5299 6.09843C40.6677 6.09843 38.9934 5.27153 37.6866 3.70557C35.8057 1.48326 33.3129 0.258408 30.6699 0.258408C28.0269 0.258408 25.6817 1.42383 23.8195 3.54278C22.5101 5.04154 20.8277 5.86586 19.0782 5.86586C17.216 5.86586 15.5417 5.03896 14.2376 3.47559C12.362 1.23519 9.86122 0 7.1887 0C4.51617 0 2.21125 1.15508 0.354432 3.24044C0.104889 3.50401 -0.0212244 3.8477 0.00292493 4.21205C0.0270743 4.57641 0.201486 4.91751 0.467129 5.13457C0.738138 5.37747 1.09769 5.49893 1.47603 5.47567Z" fill="#747DA1"/>
</svg>
