<svg width="44" height="50" viewBox="0 0 44 50" fill="none" xmlns="http://www.w3.org/2000/svg">
<path d="M43.1621 42.1875C43.1621 36.749 38.7373 32.3242 33.2988 32.3242H28.2822L27.5244 29.2256L27.7607 29.0752C29.1191 28.2129 30.2568 27.0977 31.1436 25.7607L31.2598 25.5859H34.7647C37.7803 25.5859 40.2334 23.1328 40.2334 20.1172V17.1875C40.2334 14.1719 37.7803 11.7188 34.7647 11.7188H34.0186L34.0693 10.1934C34.1592 7.49512 33.1768 4.94141 31.3027 3.00293C29.4297 1.06641 26.9111 0 24.2119 0H18.957C16.2559 0 13.7363 1.06836 11.8613 3.00781C9.98828 4.94629 9.00781 7.5 9.09961 10.2002L9.15137 11.7188H8.39746C5.38184 11.7188 2.92871 14.1719 2.92871 17.1875V20.1172C2.92871 23.1328 5.38184 25.5859 8.39746 25.5859H11.9131L12.0293 25.7607C12.9131 27.0947 14.0488 28.208 15.4033 29.0703L15.6396 29.2207L14.8799 32.3242H9.86328C4.4248 32.3242 0 36.749 0 42.1875V48.1445C0 48.7373 0.481445 49.2188 1.07422 49.2188H42.0898C42.6826 49.2188 43.1641 48.7373 43.1641 48.1445V42.1875H43.1621ZM32.498 22.9287C32.6641 22.4072 32.7939 21.8691 32.8838 21.3291C33.1318 19.835 33.3213 18.71 33.4668 17.8486C33.778 16.0036 33.9333 14.8223 33.9326 14.3047V13.8672H34.7637C36.5947 13.8672 38.084 15.3564 38.084 17.1875V20.1172C38.084 21.9482 36.5947 23.4375 34.7637 23.4375H32.3359L32.498 22.9287ZM8.39648 23.4375C6.56543 23.4375 5.07617 21.9482 5.07617 20.1172V17.1875C5.07617 15.3564 6.56543 13.8672 8.39648 13.8672H9.23438L9.2373 14.3623C9.23991 14.863 9.39095 16.0007 9.69043 17.7754C9.83691 18.6426 10.0303 19.7891 10.2861 21.3301C10.376 21.8691 10.5059 22.4072 10.6719 22.9297L10.833 23.4385H8.39551L8.39648 23.4375ZM11.2461 10.127C11.1738 8.01562 11.9414 6.01758 13.4082 4.5C14.873 2.9834 16.8438 2.14844 18.9561 2.14844H24.2109C26.3223 2.14844 28.293 2.9834 29.7588 4.49902C31.2236 6.01367 31.9922 8.01074 31.9209 10.1211L31.8682 11.7188H27.4395C26.416 11.7188 25.584 10.8867 25.584 9.86328C25.584 9.42773 25.3232 9.03809 24.9209 8.87109C24.5186 8.7041 24.0586 8.7959 23.751 9.10449C22.0645 10.791 19.8223 11.7197 17.4375 11.7197H11.3008L11.2461 10.1279V10.127ZM12.4053 20.9756L11.4131 15.0195L11.374 13.8662H17.4375C19.6455 13.8662 21.7725 13.2227 23.5879 12.0059L23.9102 11.79L24.1289 12.1104C24.8779 13.21 26.1162 13.8662 27.4404 13.8662H31.7969L31.7539 15.0449L30.7656 20.9746C30.6387 21.7393 30.4141 22.4893 30.0986 23.2041L29.9961 23.4365H21.582C20.9893 23.4365 20.5078 23.918 20.5078 24.5107C20.5078 25.1035 20.9893 25.584 21.582 25.584H28.6455L27.9072 26.2627C26.1895 27.8408 23.9463 28.7109 21.5918 28.7109H21.5811C17.0127 28.7109 13.1543 25.458 12.4062 20.9756H12.4053ZM15.7207 34.4727C16.2178 34.4727 16.6465 34.1357 16.7646 33.6533L17.6172 30.1709L18.0166 30.3008C19.1621 30.6709 20.3594 30.8594 21.5771 30.8594H21.5898C22.8037 30.8594 24 30.6729 25.1445 30.3037L25.5439 30.1748L26.3955 33.6533C26.5137 34.1357 26.9424 34.4717 27.4395 34.4717H28.2217L27.752 35.0967C26.2988 37.0283 23.9912 38.1826 21.5801 38.1826C19.1689 38.1826 16.8613 37.0293 15.4082 35.0967L14.9375 34.4717H15.7197L15.7207 34.4727ZM41.0137 47.0703H2.14648V42.1875C2.14648 37.9336 5.60742 34.4727 9.86133 34.4727H12.5615L12.667 34.6953C14.292 38.1191 17.791 40.332 21.5791 40.332C25.3672 40.332 28.8662 38.1201 30.4912 34.6963L30.5967 34.4727H33.2979C37.5518 34.4727 41.0127 37.9336 41.0127 42.1875V47.0703H41.0137Z" fill="#747CA0"/>
</svg>
