<svg width="132" height="123" viewBox="0 0 132 123" fill="none" xmlns="http://www.w3.org/2000/svg">
<path d="M25.5429 44.1978H105.429V56.8746H25.5429V44.1978ZM25.5429 63.3844H105.429V61.3287H25.5429V63.3844ZM25.5429 69.7228H105.429V65.4401H25.5429V69.7228ZM42.5143 76.0613V86.6824H44.5714V78.9735L52.9714 86.6824H54.6857V76.0613H52.6286V83.7702L44.2286 76.0613H42.5143ZM105.429 86.6824V84.798H97.7143V76.0613H95.6571V86.6824H105.429ZM63.4286 86.6824H64.9714L70.8 76.0613H68.5714L64.2857 84.1128L60 76.0613H57.6L63.4286 86.6824ZM84.3429 76.0613C82.4571 76.0613 80.9143 76.4039 80.0571 77.2604C79.3714 77.9457 78.8571 78.9735 78.8571 80.344V82.571C78.8571 83.9415 79.2 84.9694 80.0571 85.6546C80.9143 86.5111 82.4571 86.8538 84.3429 86.8538H91.2V80.5153H84.6857V82.3997H89.1429V84.798H83.8286C82.8 84.798 81.9429 84.6267 81.4286 84.1128C81.0857 83.7702 80.9143 83.085 80.9143 82.3997V80.5153C80.9143 79.6588 81.0857 79.1448 81.4286 78.8022C81.9429 78.2883 82.8 78.117 83.8286 78.117H91.2V76.2326L84.3429 76.0613ZM27.6 84.798H33.0857C34.1143 84.798 34.9714 84.6267 35.4857 84.1128C35.8286 83.7702 36 83.085 36 82.2284V80.344C36 79.4875 35.8286 78.9735 35.4857 78.4596C34.9714 77.9457 34.1143 77.7744 33.0857 77.7744H27.6V84.798ZM38.0571 82.571C38.0571 83.9415 37.7143 84.9694 36.8571 85.6546C36 86.5111 34.4571 86.8538 32.5714 86.8538H25.5429V76.2326H32.5714C34.4571 76.2326 36 76.5752 36.8571 77.4318C37.5429 78.117 38.0571 79.1448 38.0571 80.5153C38.0571 80.1727 38.0571 82.571 38.0571 82.571ZM74.7429 80.1727H72.3429V82.571H74.7429V80.1727ZM38.9143 113.407V122.829H41.1429V113.407H38.9143ZM42.6857 122.486C43.2 122.829 44.2286 123 45.4286 123C48 123 49.2 121.63 49.2 120.088C49.2 118.717 48.3429 117.861 46.8 117.347C45.6 116.833 45.0857 116.662 45.0857 115.976C45.0857 115.462 45.6 115.12 46.4571 115.12C47.3143 115.12 48 115.462 48.3429 115.634L48.8571 113.921C48.3429 113.578 47.4857 113.407 46.4571 113.407C44.2286 113.407 42.8571 114.606 42.8571 116.319C42.8571 117.689 43.8857 118.546 45.4286 119.06C46.6286 119.403 46.9714 119.745 46.9714 120.43C46.9714 121.116 46.4571 121.458 45.4286 121.458C44.5714 121.458 43.7143 121.116 43.0286 120.944L42.6857 122.486ZM54.6857 113.235C51.9429 113.235 50.0571 115.291 50.0571 118.203C50.0571 121.116 51.7714 123 54.5143 123C57.2571 123 59.1429 121.116 59.1429 118.032C59.1429 115.462 57.6 113.235 54.6857 113.235ZM54.6857 114.948C56.2286 114.948 56.9143 116.319 56.9143 118.032C56.9143 119.916 56.0571 121.287 54.6857 121.287C53.3143 121.287 52.4571 119.916 52.4571 118.203C52.4571 116.49 53.1429 114.948 54.6857 114.948ZM63.7714 123C63.9429 123 64.2857 123 64.8 123C66.1714 123 67.3714 122.486 68.2286 121.801C69.2571 120.944 69.7714 119.574 69.7714 117.689C69.7714 115.634 68.5714 113.749 66.3429 113.749C64.2857 113.749 62.9143 115.291 62.9143 117.004C62.9143 118.717 64.2857 119.916 65.8286 119.916C66.6857 119.916 67.2 119.745 67.7143 119.231C67.5429 119.916 67.2 120.602 66.5143 120.944C66 121.287 65.3143 121.458 64.8 121.458C64.4571 121.458 64.1143 121.458 63.9429 121.458L63.7714 123ZM66.3429 115.12C67.3714 115.12 67.7143 116.148 67.7143 117.004C67.7143 117.347 67.7143 117.347 67.5429 117.518C67.3714 117.861 66.8571 118.203 66.3429 118.203C65.4857 118.203 64.9714 117.518 64.9714 116.833C65.1429 115.805 65.4857 115.12 66.3429 115.12ZM74.2286 113.578C71.8286 113.578 70.8 115.634 70.8 118.375C70.8 120.944 71.8286 123 74.2286 123C76.6286 123 77.6571 121.116 77.6571 118.203C77.6571 115.805 76.6286 113.578 74.2286 113.578ZM74.2286 115.12C75.0857 115.12 75.6 116.148 75.6 118.203C75.6 120.259 75.0857 121.287 74.4 121.287C73.7143 121.287 73.0286 120.259 73.0286 118.203C72.8571 116.148 73.3714 115.12 74.2286 115.12ZM81.9429 113.578C79.5429 113.578 78.5143 115.634 78.5143 118.375C78.5143 120.944 79.5429 123 81.9429 123C84.3429 123 85.3714 121.116 85.3714 118.203C85.3714 115.805 84.3429 113.578 81.9429 113.578ZM81.9429 115.12C82.8 115.12 83.3143 116.148 83.3143 118.203C83.3143 120.259 82.8 121.287 82.1143 121.287C81.4286 121.287 80.7429 120.259 80.7429 118.203C80.7429 116.148 81.2571 115.12 81.9429 115.12ZM89.1429 122.829H91.2V113.749H89.4857L87.0857 114.948L87.4286 116.49L89.1429 115.634V122.829ZM8.74286 73.6629C9.08571 74.0056 9.42857 74.8621 9.6 75.5473C10.1143 77.7744 8.91429 79.3161 6.68571 79.8301C4.11429 80.5153 2.4 79.3162 1.88571 77.0891C1.71429 76.2326 1.71429 75.7187 1.88571 75.2047H0.857143C0.685714 75.5474 0.685714 76.4039 0.857143 77.4318C1.37143 80.344 3.77143 81.8858 6.68571 81.2006C9.77143 80.5153 10.9714 78.2883 10.4571 75.7187C10.2857 74.5195 9.94286 73.6629 9.6 73.3203C9.6 73.3203 8.74286 73.8343 8.74286 73.6629ZM3.94286 67.6671L4.28571 71.2646L1.37143 71.4359L1.02857 67.4958H0L0.342857 72.6351L9.77143 71.9499L9.42857 66.8106H8.4L8.74286 70.922L5.31429 71.2646L4.97143 67.6671C4.97143 67.6671 4.11429 67.6671 3.94286 67.6671ZM9.42857 65.6114V64.4123L5.31429 64.2409V63.0418C5.48571 62.0139 5.82857 61.5 7.2 61.1574C8.4 60.9861 9.25714 60.8148 9.42857 60.6435V59.4443C9.08571 59.6156 8.05714 59.7869 6.85714 60.1295C5.82857 60.3008 5.14286 60.6435 4.8 61.5C4.45714 60.4721 3.77143 59.6156 2.4 59.6156C1.71429 59.6156 1.02857 59.7869 0.514286 60.3008C0.342857 60.8148 0 61.6713 0 62.8705C0 63.727 0 64.5836 0 65.2688C0.171429 65.2688 9.42857 65.6114 9.42857 65.6114ZM1.02857 64.0696C1.02857 63.8983 1.02857 63.3844 1.02857 62.8705C1.02857 61.5 1.71429 60.8148 2.91429 60.8148C3.94286 60.8148 4.62857 61.6713 4.62857 63.0418V64.2409C4.45714 64.2409 1.02857 64.0696 1.02857 64.0696ZM10.1143 56.7033L10.2857 55.5042L2.05714 54.1337L2.57143 51.2214L1.54286 51.0501L0.342857 57.9025L1.37143 58.0738L1.88571 55.1616L10.1143 56.7033ZM1.88571 49.5084L10.9714 51.9067L11.3143 50.7075L2.22857 48.3092L1.88571 49.5084ZM11.8286 48.9944L12.1714 47.7953L8.05714 46.4248L9.25714 42.9986L8.57143 42.656L7.37143 46.0822L4.45714 45.0543L5.82857 41.4568L4.62857 41.1142L2.91429 45.9109L11.8286 48.9944ZM5.65714 39.0585L14.2286 42.9986L14.7429 41.9707L6.17143 38.0306C6 37.8593 5.65714 39.0585 5.65714 39.0585ZM17.4857 34.0905C17.4857 34.6045 17.1429 35.2897 16.8 35.9749C15.6 38.0306 13.7143 38.3733 11.6571 37.1741C9.6 35.9749 9.08571 33.9192 10.1143 32.0348C10.4571 31.3496 10.9714 30.8357 11.4857 30.493L10.8 29.8078C10.4571 29.9791 9.94286 30.493 9.25714 31.5209C7.71429 34.0905 8.57143 36.8315 11.1429 38.2019C13.8857 39.7437 16.2857 38.8872 17.6571 36.4889C18.1714 35.461 18.5143 34.6045 18.5143 34.0905C18.3429 34.2618 17.4857 34.0905 17.4857 34.0905ZM20.0571 27.9234L22.9714 28.9513L23.8286 27.9234L14.4 24.6685L13.3714 25.6964L18.8571 34.0905L19.5429 33.0627L17.8286 30.493L20.0571 27.9234ZM17.3143 29.8078L15.7714 27.4095C15.4286 26.8955 15.0857 26.3816 14.7429 26.039C15.2571 26.2103 15.7714 26.5529 16.4571 26.7242L19.2 27.7521L17.3143 29.8078ZM24 27.5808L28.9714 22.7841L28.2857 22.0989L24.5143 25.6964L22.9714 16.617L22.2857 16.1031L17.6571 20.5571L18.3429 21.2423L21.7714 17.9875L23.3143 27.0669L24 27.5808ZM24 14.9039L30 22.2702L30.8571 21.585L24.8571 14.2187C24.8571 14.0474 24 14.9039 24 14.9039ZM30.1714 10.1072C28.1143 11.4777 27.6 14.2187 29.1429 16.617C30.6857 19.0153 33.2571 19.7006 35.3143 18.3301C37.3714 16.9596 38.0571 14.5613 36.3429 11.8203C34.9714 9.42201 32.4 8.73677 30.1714 10.1072ZM30.6857 10.9638C32.4 9.93593 34.2857 10.9638 35.3143 12.5056C36.5143 14.2187 36.5143 16.4457 34.9714 17.4735C33.4286 18.5014 31.5429 17.6448 30.3429 15.9318C29.1429 14.2187 28.9714 11.9916 30.6857 10.9638ZM40.9714 15.0752L39.4286 11.3064C38.7429 9.93593 38.4 8.90808 37.7143 7.70891C38.5714 8.39415 39.6 9.2507 40.6286 9.93593L45.2571 13.1908L46.4571 12.6769L42.6857 3.94011L41.6571 4.45404L43.2 8.05153C43.7143 9.422 44.2286 10.4499 44.9143 11.649C44.0571 10.9638 43.2 10.2786 42.1714 9.59331L37.5429 6.33844L36.1714 6.85237L39.9429 15.4178L40.9714 15.0752ZM51.4286 5.6532L47.8286 6.68106L46.9714 3.7688L50.7429 2.74095L50.5714 1.71309L45.6 3.08357L48.1714 12.163L53.3143 10.7925L52.9714 9.76462L49.0286 10.7925L48.1714 7.5376L51.7714 6.50975L51.4286 5.6532ZM57.0857 9.93593C57.7714 9.93593 58.4571 9.93593 59.3143 9.76462C61.2 9.59331 62.5714 9.07939 63.4286 8.05153C64.2857 7.02368 64.6286 5.82451 64.4571 4.28273C64.2857 2.74095 63.7714 1.71309 62.7429 1.02786C61.8857 0.342618 60.5143 0 58.8 0.171309C57.7714 0.171309 56.9143 0.342618 56.2286 0.513928L57.0857 9.93593ZM57.4286 1.54178C57.7714 1.37047 58.2857 1.37047 58.8 1.37047C61.3714 1.19916 62.7429 2.39833 62.9143 4.62535C63.0857 7.19499 61.8857 8.73677 59.3143 8.90808C58.8 8.90808 58.4571 8.90808 58.1143 8.90808L57.4286 1.54178ZM66.1714 0L66 9.422H67.2L67.3714 0H66.1714ZM71.3143 9.2507C71.8286 9.59331 72.6857 10.1072 73.5429 10.2786C75.7714 10.6212 76.9714 9.59331 77.3143 8.05153C77.4857 6.68106 76.8 5.82451 75.2571 4.96797C74.0571 4.28273 73.5429 3.7688 73.7143 2.91226C73.8857 2.22702 74.4 1.54178 75.7714 1.71309C76.6286 1.8844 77.1429 2.22702 77.4857 2.39833L78 1.54178C77.6571 1.19916 76.9714 0.856546 75.9429 0.856546C74.0571 0.513928 72.6857 1.54178 72.5143 2.91226C72.3429 4.28273 73.2 5.13928 74.5714 5.99582C75.7714 6.68106 76.1143 7.19499 76.1143 8.05153C75.9429 9.07939 75.0857 9.59331 73.8857 9.422C73.0286 9.2507 72.3429 8.90808 71.8286 8.39415L71.3143 9.2507ZM80.4 1.71309L78.1714 10.9638L79.3714 11.3064L81.6 2.05571L80.4 1.71309ZM80.7429 10.9638C81.0857 11.4777 81.9429 11.9916 82.8 12.3343C84.8571 13.0195 86.4 12.163 86.7429 10.7925C87.2571 9.42201 86.7429 8.56546 85.3714 7.3663C84.3429 6.50975 84 5.99582 84.3429 5.13928C84.5143 4.45404 85.2 3.94011 86.4 4.28273C87.2571 4.62535 87.7714 4.96797 87.9429 5.31058L88.6286 4.45404C88.2857 4.11142 87.7714 3.59749 86.7429 3.42618C85.0286 2.91226 83.4857 3.42618 82.9714 4.96797C82.6286 6.16713 83.1429 7.3663 84.5143 8.22284C85.7143 9.07939 85.8857 9.59331 85.7143 10.4499C85.3714 11.3064 84.5143 11.8203 83.3143 11.3064C82.4571 10.9638 81.9429 10.4499 81.4286 9.93593L80.7429 10.9638ZM88.8 14.5613L90 15.0752L93.6 7.5376L96.1714 8.73677L96.6857 7.70891L90.3429 4.62535L89.8286 5.48189L92.4 6.85237L88.8 14.5613ZM100.114 14.7326L97.0286 12.8482L98.5714 10.2786L101.829 12.3343L102.343 11.4777L98.0571 8.56546L93.0857 16.617L97.5429 19.3579L98.0571 18.5014L94.6286 16.2744L96.3429 13.3621L99.6 15.4178L100.114 14.7326ZM104.743 25.3538L105.6 26.039L111.257 18.5014L110.057 17.4735L105.771 19.8719C104.743 20.5571 103.714 21.071 102.857 21.585C103.371 20.7284 103.714 19.7006 104.229 18.5014L105.943 14.0474L104.743 13.0195L98.0571 19.7006L98.9143 20.3858L101.829 17.4735C102.857 16.4457 103.886 15.2465 104.743 14.39C104.229 15.4178 103.714 16.617 103.2 17.9875L101.486 22.4415L102.171 23.1267L106.457 20.7284C107.657 20.0432 108.686 19.3579 109.714 18.844C108.857 19.7006 108 20.8997 107.143 22.0989L104.743 25.3538ZM111.943 28.9513L110.4 31.6922L111.257 32.7201L116.4 24.1546L115.371 22.9554L106.114 26.5529L106.971 27.5808L109.886 26.3816L111.943 28.9513ZM110.743 26.039L113.486 25.0111C114 24.8398 114.514 24.4972 115.029 24.3259C114.686 24.8398 114.343 25.3538 114 25.8677L112.457 28.266L110.743 26.039ZM116.743 42.9986C116.4 42.1421 116.229 41.2855 116.057 40.2577C117.257 41.4568 119.143 41.6281 121.371 40.429C123.771 39.0585 124.8 36.6602 123.6 34.4331C122.4 32.2061 119.829 31.5209 117.086 32.8914C114.343 34.2618 113.829 36.8315 114.857 38.8872C115.029 39.0585 115.029 39.2298 115.029 39.4011C115.2 40.6003 115.543 41.7994 115.714 43.1699C115.543 43.1699 116.743 42.9986 116.743 42.9986ZM115.714 38.5446C114.857 36.8315 115.886 35.1184 117.6 34.0905C119.486 33.0627 121.543 33.0627 122.571 34.9471C123.6 36.6602 122.229 38.5446 120.514 39.4011C118.629 40.429 116.571 40.2577 115.714 38.5446ZM126.343 40.7716L121.029 42.656C118.286 43.6838 117.771 45.3969 118.286 47.11C118.971 48.9944 120.514 50.0223 123.257 49.1657L128.4 47.4526L128.229 46.2535L122.914 47.9666C120.857 48.6518 119.829 48.1379 119.314 46.7674C118.971 45.5682 119.486 44.3691 121.371 43.6838L126.686 41.7994L126.343 40.7716ZM123.771 55.8468L121.029 57.3886L121.2 58.759L129.943 53.7911L129.6 52.4206L119.657 51.0501L119.829 52.2493L122.914 52.5919L123.771 55.8468ZM124.114 52.5919L127.029 52.9345C127.543 52.9345 128.229 53.1058 128.743 53.1058C128.229 53.2772 127.714 53.6198 127.2 53.9624L124.629 55.3329L124.114 52.5919ZM121.371 59.6156L121.714 64.9262H122.743L122.4 60.9861L130.8 60.4721L130.629 59.273L121.371 59.6156ZM130.971 66.1253L121.543 65.954V67.1532L130.971 67.3245V66.1253ZM121.371 70.7507L121.2 71.9499L129.6 72.8064L129.257 75.7187L130.286 75.89L130.971 68.8663L129.943 68.695L129.6 71.6072L121.371 70.7507ZM122.743 79.8301L119.657 80.1727L119.314 81.3719L129.257 80.1727L129.6 78.8022L121.029 73.6629L120.686 74.8621L123.429 76.4039L122.743 79.8301ZM124.286 77.0891L126.686 78.6309C127.2 78.9735 127.714 79.1448 128.229 79.4875C127.714 79.4875 127.029 79.4875 126.343 79.6588L123.429 80.0014L124.286 77.0891ZM132 78.117L129.943 79.4875L129.771 80.5153L131.657 79.6588C131.657 79.4875 132 78.117 132 78.117ZM121.029 83.5989L119.143 83.085C114.686 96.1045 105.429 107.068 93.6 113.749V115.976C106.286 108.781 116.229 97.3036 121.029 83.5989ZM7.54286 84.2841L5.65714 84.798C10.9714 100.216 22.1143 112.893 36.3429 120.259V118.203C22.9714 111.008 12.5143 98.8454 7.54286 84.2841ZM11.8286 82.9137L9.94286 83.4276C14.5714 96.961 24.1714 108.267 36.3429 115.291V113.064C25.0286 106.383 16.2857 95.5905 11.8286 82.9137ZM123.429 84.2841C118.286 99.188 107.486 111.522 93.6 118.717V120.773C108.343 113.407 119.829 100.558 125.143 84.798L123.429 84.2841Z" fill="#747DA1"/>
</svg>
