<svg width="18" height="19" viewBox="0 0 18 19" fill="none" xmlns="http://www.w3.org/2000/svg">
<path d="M1.89347 18.4028C2.84896 18.8772 4.00398 18.8133 5.14573 18.222C7.05128 17.2345 8.95923 16.0789 10.8045 14.9607C12.4231 13.9798 14.0965 12.9659 15.7694 12.0647C16.6857 11.407 17.1999 10.4063 17.1812 9.31456C17.1625 8.21801 16.6115 7.23178 15.6699 6.60544C13.9374 5.70904 12.2109 4.65107 10.5404 3.62687C8.73015 2.51706 6.85837 1.36988 4.99081 0.437903C4.19628 0.0412413 3.59465 -0.0672679 2.77059 0.0376243C1.36358 0.216664 0.183247 1.55736 0.0837806 3.08975C-0.0560757 5.23582 0.00782353 7.50728 0.0699149 9.70459C0.125978 11.7078 0.184452 13.7785 0.0898074 15.7648C0.312251 16.9982 0.951854 17.9338 1.89347 18.4022V18.4028ZM1.41422 3.11627L1.41543 3.1018C1.48053 2.28798 2.19187 1.49526 2.96831 1.37048C3.41139 1.29935 3.82011 1.35722 4.25535 1.55314L4.27645 1.56278L4.29635 1.57484C5.95533 2.59663 7.69088 3.56658 9.36975 4.50459C11.0522 5.445 12.792 6.41736 14.4612 7.44519C14.5221 7.48256 14.583 7.51873 14.6433 7.5543C15.0454 7.79181 15.4613 8.03777 15.685 8.58875C15.9756 9.30491 15.8399 10.132 15.339 10.6956L15.304 10.7348L15.2594 10.7626C13.0826 12.1153 10.8171 13.4096 8.62586 14.6604C7.19957 15.4749 5.72505 16.317 4.29092 17.1664L4.27103 17.1773C3.97745 17.3268 3.6676 17.4015 3.36136 17.4015C3.05512 17.4015 2.73442 17.3219 2.44868 17.164C1.86032 16.8373 1.4727 16.223 1.41181 15.5207L1.41061 15.4893L1.41362 3.11567L1.41422 3.11627Z" fill="white"/>
</svg>
