<svg width="54" height="162" viewBox="0 0 54 162" fill="none" xmlns="http://www.w3.org/2000/svg">
<mask id="path-1-inside-1_2639_13368" fill="white">
<path d="M10.4459 11.3203C12.2164 14.9141 15.2262 16.711 18.5902 18.0586C18.9443 18.3281 19.3869 18.5977 19.5639 18.9571C20.8033 21.7422 22.0426 24.7969 23.282 27.5821C23.7246 28.75 24.0787 29.7383 24.5213 30.9961C23.1049 29.1094 21.7771 27.5821 20.4492 26.0547C18.1475 23.2696 15.4033 21.2031 11.6852 20.6641C7.87869 19.9453 4.07213 20.3047 0.354099 21.3828C0.354099 21.4727 0.177052 21.4727 0 21.6524C0.885246 23.0899 1.7705 24.5274 2.65574 25.875C4.60328 28.3907 6.90492 30.5469 10.0918 31.625C14.518 33.0625 19.1213 33.4219 23.7246 32.6133C24.1672 32.5235 24.5213 32.4336 24.9639 32.3438C27.2656 39.0821 29.0361 45.6407 30.1869 52.5586C29.3902 51.3008 28.5934 49.7735 27.7967 48.5157C25.7607 45.1915 23.3705 42.4961 19.6525 41.2383C16.7311 40.25 13.8984 39.8008 10.8885 39.8008C9.91476 39.8008 8.94099 39.8907 7.79016 39.8907C8.40984 41.1485 8.76394 42.4063 9.20656 43.4844C10.623 46.629 12.3934 49.3243 15.3148 51.1211C18.7672 53.4571 22.6623 54.5352 26.7344 54.9844C27.9738 55.0743 29.3902 55.254 30.718 55.3438C31.8689 62.1719 32.577 69.1798 32.6656 76.1876C32.4885 75.918 32.4 75.6485 32.3115 75.2891C31.8689 74.0313 31.3377 72.5938 30.8066 71.2462C29.3016 67.2032 26.6459 64.0587 22.6623 62.1719C19.918 61.004 16.9967 60.1954 14.0754 59.7462C13.5443 59.7462 13.1016 59.6563 12.482 59.4766V60.1954C12.659 60.8243 12.7475 61.6329 12.9246 62.4415C13.8098 66.4844 15.4033 70.3477 18.8557 73.043C22.5738 76.0079 26.7344 77.8946 31.2492 78.8829C31.7803 78.9727 32.2229 78.9727 32.7541 79.1524C32.8426 86.3399 32.3115 93.4376 31.0721 100.445C30.541 98.1095 30.1869 95.9532 29.6557 93.7071C28.9475 90.5626 27.4426 87.8673 25.0525 85.711C22.0426 83.1954 18.5902 81.4884 14.8721 80.1407C14.518 80.1407 14.0754 79.8712 13.4557 79.7813C13.5443 81.8477 13.6328 83.5548 13.8098 85.3517C14.1639 88.586 15.0492 91.5509 17.1738 93.9767C20.6262 98.0196 24.8754 101.164 30.0098 102.871C30.1869 102.871 30.3639 102.961 30.541 103.141C29.3016 109.699 27.5311 116.078 25.2295 122.277C25.141 121.109 25.2295 120.031 25.2295 118.953C25.2295 115.18 24.5213 111.676 22.3082 108.711C20.4492 106.285 18.1475 104.309 15.6689 102.781C14.341 101.883 12.9246 101.164 11.5082 100.356C11.3312 100.984 11.2426 101.524 11.1541 101.973C10.3574 106.645 10.3574 111.137 12.7475 115.27C14.6951 118.684 17.3508 121.559 20.4492 124.074C21.6 124.973 22.7508 125.692 23.9902 126.5C21.6885 132.43 19.1213 138.18 16.023 143.75C16.023 143.391 16.023 143.211 16.023 142.942C16.2 141.324 16.377 139.707 16.5541 138.18C16.8197 135.305 16.2885 132.52 14.9607 130.004C13.3672 127.039 11.1541 124.434 8.58689 122.277C7.61312 121.469 6.72787 120.75 5.66558 119.852C4.33771 123.176 3.45247 126.32 3.45247 129.645C3.45247 131.531 3.54099 133.418 4.24918 135.215C6.1082 140.067 9.02951 144.379 13.0131 147.973C13.4557 148.242 13.3672 148.512 13.1902 148.961C10.5344 153.363 7.70164 157.586 4.69181 161.719C4.69181 161.719 5.22295 162.887 8.94099 160.461C9.73771 159.113 10.7115 157.856 11.5082 156.418C13.2787 153.633 14.9607 150.848 16.5541 148.063C16.9082 147.344 17.2623 147.164 18.059 147.344C22.9279 148.422 27.8852 148.422 32.6656 147.074C36.2066 146.176 38.8623 143.93 41.2525 141.324C42.2262 140.156 43.1115 138.629 44.0852 137.461C44.1738 137.192 44.1738 137.102 44.3508 136.922C44.2623 136.832 44.0852 136.652 43.9967 136.652C40.1016 135.395 36.118 134.676 32.0459 135.035C27.8852 135.305 24.6098 137.281 21.7771 140.156C21.0689 140.875 20.5377 141.414 19.741 142.043C19.741 141.774 19.918 141.594 20.0066 141.324C22.5738 136.203 24.8754 130.723 26.7344 125.242C26.9115 124.703 27.177 124.524 27.7082 124.524C32.577 124.883 37.2689 123.985 41.7836 122.008C45.2361 120.391 47.6262 117.785 49.4852 114.641C50.3705 113.203 50.9902 111.496 51.8754 109.789C50.282 109.789 48.777 109.52 47.3607 109.52C44.5279 109.43 41.6951 109.609 39.0393 110.418C35.3213 111.586 32.6656 113.832 30.4525 116.887C29.9213 117.516 29.4787 118.145 29.0361 118.863C30.3639 112.754 31.7803 106.734 33.1967 100.625C35.4098 100.086 37.8 99.6368 40.0131 98.8282C43.4656 97.6603 46.6525 95.9532 49.2197 93.1681C51.4328 90.7423 53.7344 85.4415 54 82.1173H53.9115C49.0426 82.2071 44.4393 83.1056 40.2787 85.711C37.8 87.2384 36.118 89.754 34.7902 92.4493C34.4361 92.9884 34.1705 93.6173 33.8164 94.2462C34.3475 88.2267 34.6131 82.2071 34.1705 76.1876C37.1803 75.2891 39.9246 74.1212 42.4918 72.4141C46.1213 69.9883 49.3082 67.1133 50.6361 62.711C51.3443 60.3751 51.7869 57.9493 51.8754 55.5235C51.8754 55.254 51.8754 55.0743 51.8754 54.5352C49.6623 55.3438 47.7148 55.793 45.7672 56.5118C43.1115 57.6797 40.5443 59.0274 38.5967 61.2735C36.8262 63.1602 35.8525 65.4962 35.0557 67.9219C34.7016 69.0899 34.4361 70.168 33.9049 71.2462C33.9049 70.8868 33.9049 70.797 33.8164 70.4376C33.4623 64.5977 32.6656 58.8477 31.5148 53.0977C31.4262 52.5586 31.5148 52.1094 32.0459 51.8399C36.5607 49.5938 40.2787 46.4493 43.1115 42.1368C45.059 39.1719 45.5016 35.8477 45.4131 32.3438C45.4131 30.9961 45.1475 29.8282 45.059 28.211C43.2885 29.1094 41.7836 29.8282 40.3672 30.6368C37.2689 32.4336 34.6131 34.5899 32.7541 37.8243C31.3377 40.25 30.9836 43.0352 30.718 45.8204C30.718 46.7188 30.718 47.6172 30.4525 48.336C30.4525 48.0665 30.3639 47.8868 30.1869 47.6172C28.7705 41.7774 27 35.9375 24.7869 30.2774C24.5213 29.7383 24.5213 29.3789 25.141 29.1094C28.9475 26.3242 31.9574 22.8203 33.9934 18.5078C35.6754 15.0938 35.6754 11.5899 34.9672 7.9961C34.7016 6.73829 34.3475 5.48047 33.9934 4.13282C31.5148 5.57032 29.3016 7.3672 27.3541 9.52345C24.3443 12.7578 22.7508 16.4414 23.1049 21.1133C23.1049 22.8203 23.3705 24.5274 23.459 26.5039C23.282 26.2344 23.1934 26.1446 23.1934 25.9649C21.9541 23.4492 20.8033 20.8438 19.5639 18.2383C19.4754 17.8789 19.3869 17.5196 19.4754 17.25C19.5639 14.9141 19.4754 12.5781 18.9443 10.332C18.4131 8.62501 17.7934 6.82813 16.4656 5.57032C14.9607 3.95313 13.1016 2.69532 11.2426 1.61719C10.2689 0.898439 9.20656 0.449219 8.14426 0C7.96722 0 7.87869 0.0898438 7.70164 0.0898438C7.70164 0.898439 7.96722 1.70703 7.96722 2.60547C8.14426 5.75001 8.85246 8.8047 10.2689 11.5L10.4459 11.3203Z"/>
</mask>
<path d="M10.4459 11.3203C12.2164 14.9141 15.2262 16.711 18.5902 18.0586C18.9443 18.3281 19.3869 18.5977 19.5639 18.9571C20.8033 21.7422 22.0426 24.7969 23.282 27.5821C23.7246 28.75 24.0787 29.7383 24.5213 30.9961C23.1049 29.1094 21.7771 27.5821 20.4492 26.0547C18.1475 23.2696 15.4033 21.2031 11.6852 20.6641C7.87869 19.9453 4.07213 20.3047 0.354099 21.3828C0.354099 21.4727 0.177052 21.4727 0 21.6524C0.885246 23.0899 1.7705 24.5274 2.65574 25.875C4.60328 28.3907 6.90492 30.5469 10.0918 31.625C14.518 33.0625 19.1213 33.4219 23.7246 32.6133C24.1672 32.5235 24.5213 32.4336 24.9639 32.3438C27.2656 39.0821 29.0361 45.6407 30.1869 52.5586C29.3902 51.3008 28.5934 49.7735 27.7967 48.5157C25.7607 45.1915 23.3705 42.4961 19.6525 41.2383C16.7311 40.25 13.8984 39.8008 10.8885 39.8008C9.91476 39.8008 8.94099 39.8907 7.79016 39.8907C8.40984 41.1485 8.76394 42.4063 9.20656 43.4844C10.623 46.629 12.3934 49.3243 15.3148 51.1211C18.7672 53.4571 22.6623 54.5352 26.7344 54.9844C27.9738 55.0743 29.3902 55.254 30.718 55.3438C31.8689 62.1719 32.577 69.1798 32.6656 76.1876C32.4885 75.918 32.4 75.6485 32.3115 75.2891C31.8689 74.0313 31.3377 72.5938 30.8066 71.2462C29.3016 67.2032 26.6459 64.0587 22.6623 62.1719C19.918 61.004 16.9967 60.1954 14.0754 59.7462C13.5443 59.7462 13.1016 59.6563 12.482 59.4766V60.1954C12.659 60.8243 12.7475 61.6329 12.9246 62.4415C13.8098 66.4844 15.4033 70.3477 18.8557 73.043C22.5738 76.0079 26.7344 77.8946 31.2492 78.8829C31.7803 78.9727 32.2229 78.9727 32.7541 79.1524C32.8426 86.3399 32.3115 93.4376 31.0721 100.445C30.541 98.1095 30.1869 95.9532 29.6557 93.7071C28.9475 90.5626 27.4426 87.8673 25.0525 85.711C22.0426 83.1954 18.5902 81.4884 14.8721 80.1407C14.518 80.1407 14.0754 79.8712 13.4557 79.7813C13.5443 81.8477 13.6328 83.5548 13.8098 85.3517C14.1639 88.586 15.0492 91.5509 17.1738 93.9767C20.6262 98.0196 24.8754 101.164 30.0098 102.871C30.1869 102.871 30.3639 102.961 30.541 103.141C29.3016 109.699 27.5311 116.078 25.2295 122.277C25.141 121.109 25.2295 120.031 25.2295 118.953C25.2295 115.18 24.5213 111.676 22.3082 108.711C20.4492 106.285 18.1475 104.309 15.6689 102.781C14.341 101.883 12.9246 101.164 11.5082 100.356C11.3312 100.984 11.2426 101.524 11.1541 101.973C10.3574 106.645 10.3574 111.137 12.7475 115.27C14.6951 118.684 17.3508 121.559 20.4492 124.074C21.6 124.973 22.7508 125.692 23.9902 126.5C21.6885 132.43 19.1213 138.18 16.023 143.75C16.023 143.391 16.023 143.211 16.023 142.942C16.2 141.324 16.377 139.707 16.5541 138.18C16.8197 135.305 16.2885 132.52 14.9607 130.004C13.3672 127.039 11.1541 124.434 8.58689 122.277C7.61312 121.469 6.72787 120.75 5.66558 119.852C4.33771 123.176 3.45247 126.32 3.45247 129.645C3.45247 131.531 3.54099 133.418 4.24918 135.215C6.1082 140.067 9.02951 144.379 13.0131 147.973C13.4557 148.242 13.3672 148.512 13.1902 148.961C10.5344 153.363 7.70164 157.586 4.69181 161.719C4.69181 161.719 5.22295 162.887 8.94099 160.461C9.73771 159.113 10.7115 157.856 11.5082 156.418C13.2787 153.633 14.9607 150.848 16.5541 148.063C16.9082 147.344 17.2623 147.164 18.059 147.344C22.9279 148.422 27.8852 148.422 32.6656 147.074C36.2066 146.176 38.8623 143.93 41.2525 141.324C42.2262 140.156 43.1115 138.629 44.0852 137.461C44.1738 137.192 44.1738 137.102 44.3508 136.922C44.2623 136.832 44.0852 136.652 43.9967 136.652C40.1016 135.395 36.118 134.676 32.0459 135.035C27.8852 135.305 24.6098 137.281 21.7771 140.156C21.0689 140.875 20.5377 141.414 19.741 142.043C19.741 141.774 19.918 141.594 20.0066 141.324C22.5738 136.203 24.8754 130.723 26.7344 125.242C26.9115 124.703 27.177 124.524 27.7082 124.524C32.577 124.883 37.2689 123.985 41.7836 122.008C45.2361 120.391 47.6262 117.785 49.4852 114.641C50.3705 113.203 50.9902 111.496 51.8754 109.789C50.282 109.789 48.777 109.52 47.3607 109.52C44.5279 109.43 41.6951 109.609 39.0393 110.418C35.3213 111.586 32.6656 113.832 30.4525 116.887C29.9213 117.516 29.4787 118.145 29.0361 118.863C30.3639 112.754 31.7803 106.734 33.1967 100.625C35.4098 100.086 37.8 99.6368 40.0131 98.8282C43.4656 97.6603 46.6525 95.9532 49.2197 93.1681C51.4328 90.7423 53.7344 85.4415 54 82.1173H53.9115C49.0426 82.2071 44.4393 83.1056 40.2787 85.711C37.8 87.2384 36.118 89.754 34.7902 92.4493C34.4361 92.9884 34.1705 93.6173 33.8164 94.2462C34.3475 88.2267 34.6131 82.2071 34.1705 76.1876C37.1803 75.2891 39.9246 74.1212 42.4918 72.4141C46.1213 69.9883 49.3082 67.1133 50.6361 62.711C51.3443 60.3751 51.7869 57.9493 51.8754 55.5235C51.8754 55.254 51.8754 55.0743 51.8754 54.5352C49.6623 55.3438 47.7148 55.793 45.7672 56.5118C43.1115 57.6797 40.5443 59.0274 38.5967 61.2735C36.8262 63.1602 35.8525 65.4962 35.0557 67.9219C34.7016 69.0899 34.4361 70.168 33.9049 71.2462C33.9049 70.8868 33.9049 70.797 33.8164 70.4376C33.4623 64.5977 32.6656 58.8477 31.5148 53.0977C31.4262 52.5586 31.5148 52.1094 32.0459 51.8399C36.5607 49.5938 40.2787 46.4493 43.1115 42.1368C45.059 39.1719 45.5016 35.8477 45.4131 32.3438C45.4131 30.9961 45.1475 29.8282 45.059 28.211C43.2885 29.1094 41.7836 29.8282 40.3672 30.6368C37.2689 32.4336 34.6131 34.5899 32.7541 37.8243C31.3377 40.25 30.9836 43.0352 30.718 45.8204C30.718 46.7188 30.718 47.6172 30.4525 48.336C30.4525 48.0665 30.3639 47.8868 30.1869 47.6172C28.7705 41.7774 27 35.9375 24.7869 30.2774C24.5213 29.7383 24.5213 29.3789 25.141 29.1094C28.9475 26.3242 31.9574 22.8203 33.9934 18.5078C35.6754 15.0938 35.6754 11.5899 34.9672 7.9961C34.7016 6.73829 34.3475 5.48047 33.9934 4.13282C31.5148 5.57032 29.3016 7.3672 27.3541 9.52345C24.3443 12.7578 22.7508 16.4414 23.1049 21.1133C23.1049 22.8203 23.3705 24.5274 23.459 26.5039C23.282 26.2344 23.1934 26.1446 23.1934 25.9649C21.9541 23.4492 20.8033 20.8438 19.5639 18.2383C19.4754 17.8789 19.3869 17.5196 19.4754 17.25C19.5639 14.9141 19.4754 12.5781 18.9443 10.332C18.4131 8.62501 17.7934 6.82813 16.4656 5.57032C14.9607 3.95313 13.1016 2.69532 11.2426 1.61719C10.2689 0.898439 9.20656 0.449219 8.14426 0C7.96722 0 7.87869 0.0898438 7.70164 0.0898438C7.70164 0.898439 7.96722 1.70703 7.96722 2.60547C8.14426 5.75001 8.85246 8.8047 10.2689 11.5L10.4459 11.3203Z" fill="#4064DF" fill-opacity="0.02" stroke="#4064DF" stroke-opacity="0.15" stroke-width="2" mask="url(#path-1-inside-1_2639_13368)"/>
</svg>
